<svg xmlns="http://www.w3.org/2000/svg" width="34" height="34" viewBox="0 0 34 34">
  <g id="A_" data-name="A+" transform="translate(5 5)">
    <rect id="base" width="34" height="34" transform="translate(-5 -5)" fill="none"/>
    <path id="Path_12544" data-name="Path 12544" d="M-18.3-13.4a.251.251,0,0,1,.26-.2h1.84a.251.251,0,0,1,.26.2l4.6,13.2q.06.2-.14.2h-1.96a.251.251,0,0,1-.26-.2l-.9-2.64h-5.12l-.9,2.64a.251.251,0,0,1-.26.2h-1.94q-.2,0-.14-.2Zm2.98,8.46-1.8-5.28h-.06L-19-4.94Zm8.82.52a.106.106,0,0,0-.12-.12H-9.68a.177.177,0,0,1-.2-.2V-6.3a.177.177,0,0,1,.2-.2h3.06a.106.106,0,0,0,.12-.12V-9.7a.177.177,0,0,1,.2-.2h1.62a.177.177,0,0,1,.2.2v3.08a.106.106,0,0,0,.12.12H-1.3a.177.177,0,0,1,.2.2v1.56a.177.177,0,0,1-.2.2H-4.36a.106.106,0,0,0-.12.12v3.08a.177.177,0,0,1-.2.2H-6.3a.177.177,0,0,1-.2-.2Z" transform="translate(24.037 18.8)" fill="#1d1d1b"/>
  </g>
</svg>
