<svg xmlns="http://www.w3.org/2000/svg" width="34" height="34" viewBox="0 0 34 34">
  <g id="A-" transform="translate(5 5)">
    <rect id="base" width="34" height="34" transform="translate(-5 -5)" fill="none"/>
    <path id="Path_12545" data-name="Path 12545" d="M-14.68-13.4a.251.251,0,0,1,.26-.2h1.84a.251.251,0,0,1,.26.2L-7.72-.2q.06.2-.14.2H-9.82a.251.251,0,0,1-.26-.2l-.9-2.64H-16.1L-17-.2a.251.251,0,0,1-.26.2H-19.2q-.2,0-.14-.2Zm2.98,8.46-1.8-5.28h-.06l-1.82,5.28Zm5.1.62a.178.178,0,0,1-.2-.2v-1.6a.178.178,0,0,1,.2-.2h5.5a.178.178,0,0,1,.2.2v1.6a.178.178,0,0,1-.2.2Z" transform="translate(22.127 18.8)" fill="#1d1d1b"/>
  </g>
</svg>
