<svg id="accordionIcon1" xmlns="http://www.w3.org/2000/svg" width="51.482" height="48" viewBox="0 0 51.482 48">
  <g id="Layer_1" data-name="Layer 1">
    <path id="Path_59437" data-name="Path 59437" d="M109.223,50.22a8.4,8.4,0,0,1-.139,4.261,16.58,16.58,0,0,1-7.634,10.812,55.813,55.813,0,0,1-20.628,8.527c-2.2.388-2.242.35-2.115-1.817.125-2,.143-1.906,2.054-2.3,8.981-1.88,17.2-5.364,23.975-11.729a13.691,13.691,0,0,0,4.12-7.087C108.916,50.674,108.876,50.4,109.223,50.22Z" transform="translate(-60.177 -38.416)" fill="#bc1413"/>
    <path id="Path_59438" data-name="Path 59438" d="M21.61,146.188a7.121,7.121,0,0,1,2.882.43c8.33,1.676,16.319.277,24.137-2.658a32.746,32.746,0,0,0,5.909-2.821.812.812,0,0,1,1.112.016c2.585,1.974,2.616,1.981-.2,3.629a42.133,42.133,0,0,1-22.3,5.768A19.326,19.326,0,0,1,21.61,146.188Z" transform="translate(-16.531 -107.803)" fill="#092e85"/>
    <path id="Path_59439" data-name="Path 59439" d="M0,81.225c.136,0,.282-.061.357,0C4,83.681,8.17,83.78,12.309,83.716c7.223-.108,13.633-2.752,19.509-6.783.677-.47,1.048-.5,1.645.08,2.137,2.012,2.181,2.021-.308,3.58-7.239,4.52-15.076,6.9-23.678,6.231A11.428,11.428,0,0,1,0,81.225Z" transform="translate(0 -58.58)" fill="#06811d"/>
    <path id="Path_59440" data-name="Path 59440" d="M84.823,0a5.7,5.7,0,0,1,3.594,6.877,10.632,10.632,0,0,1-3.9,5.441,36.035,36.035,0,0,1-18.935,7.425c-.668.073-1.029-.08-.966-.863.071-.856-.235-1.88.129-2.536s1.5-.251,2.282-.39c5.857-1.039,11.329-3.006,15.983-6.816C85.963,6.7,86.541,3.568,84.823,0Z" transform="translate(-49.388)" fill="#0a2e85"/>
    <path id="Path_59441" data-name="Path 59441" d="M143.2,118a14.292,14.292,0,0,1-3.982,12.234c-4.936,5.371-11.245,7.66-18.385,8.027-.646.035-.79-.167-.679-.787.174-.959-.049-2.158.458-2.821.47-.635,1.739-.353,2.656-.47,6.767-.879,12.149-4.231,16.564-9.291A17.227,17.227,0,0,0,143.2,118Z" transform="translate(-91.883 -90.265)" fill="#06811d"/>
    <path id="Path_59442" data-name="Path 59442" d="M26.729,19.592C28.807,22.842,31.815,23.157,35,22.6c4.022-.705,7.561-2.663,10.979-4.8.886-.557,1.4-.588,2.148.172,1.516,1.532,1.6,1.544-.108,2.9a25.967,25.967,0,0,1-14.925,5.8C28.233,26.958,26.193,24.645,26.729,19.592Z" transform="translate(-20.383 -13.302)" fill="#bc1413"/>
  </g>
</svg>
