<svg id="BDFdwonload" xmlns="http://www.w3.org/2000/svg" width="24" height="23.4" viewBox="0 0 24 23.4">
  <g id="Group_25150" data-name="Group 25150" transform="translate(0 0)" opacity="0.6">
    <path id="Path_57484" data-name="Path 57484" d="M4.264,3.2H19.736A4.261,4.261,0,0,1,24,7.464V22.336A4.261,4.261,0,0,1,19.736,26.6H4.264A4.267,4.267,0,0,1,0,22.336V7.455A4.207,4.207,0,0,1,4.264,3.2Z" transform="translate(0 -3.2)" fill="#b30b00"/>
    <path id="Path_57485" data-name="Path 57485" d="M62.453,59.318c-1.125-1.2-4.189-.675-4.929-.6a16.579,16.579,0,0,1-2.09-2.69,11.7,11.7,0,0,0,.675-3.589c0-1.125-.45-2.24-1.64-2.24a1.2,1.2,0,0,0-1.05.6c-.525.9-.3,2.69.525,4.554a29.712,29.712,0,0,1-2.09,4.929c-1.2.45-3.814,1.64-4.039,2.989a1.1,1.1,0,0,0,.375,1.05,1.4,1.4,0,0,0,1.05.375c1.565,0,3.139-2.165,4.264-4.114a24.109,24.109,0,0,1,3.739-.975,5.788,5.788,0,0,0,3.889,1.715c1.05,0,1.424-.45,1.565-.825A1.066,1.066,0,0,0,62.453,59.318Zm-1.05.75c-.075.3-.45.6-1.125.45a5.432,5.432,0,0,1-2.165-1.125,10.194,10.194,0,0,1,2.69-.075A.681.681,0,0,1,61.4,60.068ZM54.15,51.1a.412.412,0,0,1,.375-.225c.375,0,.45.45.45.825a10.69,10.69,0,0,1-.525,2.69A4.838,4.838,0,0,1,54.15,51.1Zm-.075,8.444a17.9,17.9,0,0,0,.975-2.39,13.159,13.159,0,0,0,1.349,1.79A11.384,11.384,0,0,0,54.075,59.543Zm-2.54,1.724c-1.04,1.64-2.015,2.69-2.615,2.69a.451.451,0,0,1-.3-.075.5.5,0,0,1-.075-.45C48.621,62.833,49.821,62.008,51.536,61.268Z" transform="translate(-43.317 -45.796)" fill="#fff"/>
  </g>
</svg>
