<svg xmlns="http://www.w3.org/2000/svg" width="24" height="20.727" viewBox="0 0 24 20.727">
  <g id="briefcase" transform="translate(0 -34.909)">
    <g id="Group_25185" data-name="Group 25185" transform="translate(0.545 46.364)">
      <g id="Group_25184" data-name="Group 25184" transform="translate(0 0)">
        <path id="Path_57503" data-name="Path 57503" d="M34,279.273a.515.515,0,0,0-.545.545v7.091a.515.515,0,0,1-.545.545H13.273a.515.515,0,0,1-.545-.545v-7.091a.545.545,0,1,0-1.091,0v7.091a1.607,1.607,0,0,0,1.636,1.636H32.91a1.607,1.607,0,0,0,1.636-1.636v-7.091A.515.515,0,0,0,34,279.273Z" transform="translate(-11.637 -279.273)" fill="#1b3e4b"/>
      </g>
    </g>
    <g id="Group_25187" data-name="Group 25187" transform="translate(0 38.727)">
      <g id="Group_25186" data-name="Group 25186" transform="translate(0 0)">
        <path id="Path_57504" data-name="Path 57504" d="M22.364,116.364H1.636A1.607,1.607,0,0,0,0,118v3.491a1.637,1.637,0,0,0,1.255,1.582l8.564,1.909v1.745a.515.515,0,0,0,.545.545h3.273a.515.515,0,0,0,.545-.545v-1.745l8.564-1.909A1.637,1.637,0,0,0,24,121.491V118A1.607,1.607,0,0,0,22.364,116.364Zm-9.273,9.818H10.909V124h2.182Zm9.818-4.691a.531.531,0,0,1-.436.545l-8.291,1.855v-.436a.515.515,0,0,0-.545-.545H10.364a.515.515,0,0,0-.545.545v.436l-8.291-1.855a.531.531,0,0,1-.436-.545V118a.515.515,0,0,1,.545-.545H22.364a.515.515,0,0,1,.545.545Z" transform="translate(0 -116.364)" fill="#1b3e4b"/>
      </g>
    </g>
    <g id="Group_25189" data-name="Group 25189" transform="translate(7.636 34.909)">
      <g id="Group_25188" data-name="Group 25188" transform="translate(0 0)">
        <path id="Path_57505" data-name="Path 57505" d="M170,34.909h-5.455a1.607,1.607,0,0,0-1.636,1.636v.545a.545.545,0,1,0,1.091,0v-.545a.515.515,0,0,1,.545-.545H170a.515.515,0,0,1,.545.545v.545a.545.545,0,1,0,1.091,0v-.545A1.607,1.607,0,0,0,170,34.909Z" transform="translate(-162.909 -34.909)" fill="#cca079"/>
      </g>
    </g>
  </g>
</svg>
