<svg id="call_icon" xmlns="http://www.w3.org/2000/svg" width="28" height="28" viewBox="0 0 28 28">
  <path id="Path_52800" data-name="Path 52800" d="M28,0H0V28H28Z" fill="none"/>
  <path id="Path_52801" data-name="Path 52801" d="M5.052,19.548a16.67,16.67,0,0,0,3.033-.525l1.388,1.388a16.888,16.888,0,0,1-4.433.875V19.548ZM19.588,5h1.75a18,18,0,0,1-.875,4.433l-1.4-1.4A14.606,14.606,0,0,0,19.588,5Z" transform="translate(0.782 0.833)" fill="#cca079"/>
  <path id="Path_52802" data-name="Path 52802" d="M4.167,24A1.17,1.17,0,0,1,3,22.833V18.762a1.17,1.17,0,0,1,1.167-1.167,13.308,13.308,0,0,0,4.165-.665.979.979,0,0,1,.362-.058,1.2,1.2,0,0,1,.828.338l2.567,2.567a17.673,17.673,0,0,0,7.688-7.688L17.21,9.522a1.171,1.171,0,0,1-.292-1.19,13.254,13.254,0,0,0,.665-4.165A1.17,1.17,0,0,1,18.75,3h4.083A1.17,1.17,0,0,1,24,4.167,19.832,19.832,0,0,1,4.167,24Zm4.2-4.643a14.878,14.878,0,0,1-3.033.525V21.62a18,18,0,0,0,4.433-.875ZM21.632,5.333h-1.75a15.166,15.166,0,0,1-.537,3.022l1.4,1.4a17.3,17.3,0,0,0,.887-4.422Z" transform="translate(0.5 0.5)" fill="#007066"/>
</svg>
