<svg xmlns="http://www.w3.org/2000/svg" width="48" height="48" viewBox="0 0 48 48">
  <g id="checkmark-circle" transform="translate(24 24)">
    <g id="checkmark-circle-outline" transform="translate(-24 -24)">
      <g id="checkmark-circle-2" data-name="checkmark-circle">
        <rect id="Rectangle_11924" data-name="Rectangle 11924" width="48" height="48" opacity="0"/>
        <path id="Path_57538" data-name="Path 57538" d="M11.424,16.547a2.008,2.008,0,0,0-2.84,2.84l6,6a1.941,1.941,0,0,0,2.86-.1l14-16a2,2,0,0,0-3-2.64L16,21.047Z" transform="translate(7.996 6.033)" fill="#007066"/>
        <path id="Path_57539" data-name="Path 57539" d="M39.948,20a2,2,0,0,0-2,2,15.995,15.995,0,1,1-16-16,17.58,17.58,0,0,1,3.8.44,2,2,0,1,0,.94-3.88A21.08,21.08,0,0,0,21.948,2a20,20,0,1,0,20,20,2,2,0,0,0-2-2Z" transform="translate(2.052 2)" fill="#cca079"/>
      </g>
    </g>
  </g>
</svg>
