<svg xmlns="http://www.w3.org/2000/svg" width="37.712" height="48" viewBox="0 0 37.712 48">
  <g id="clipboardList" transform="translate(-47.037 0)">
    <g id="Group_25773" data-name="Group 25773" transform="translate(47.037 0)">
      <g id="Group_25772" data-name="Group 25772" transform="translate(0 0)">
        <path id="Path_59467" data-name="Path 59467" d="M79.949,6.289H75.606V4.346c0-.629-.686-.914-1.314-.914H70.921A5.111,5.111,0,0,0,65.836,0,5.2,5.2,0,0,0,60.75,3.432H57.436c-.629,0-1.257.286-1.257.914V6.289H51.837a4.857,4.857,0,0,0-4.8,4.628v32.74A4.6,4.6,0,0,0,51.837,48H79.949a4.6,4.6,0,0,0,4.8-4.343V10.917A4.857,4.857,0,0,0,79.949,6.289ZM58.465,5.718h3.143a1.257,1.257,0,0,0,1.086-1.028,3.314,3.314,0,0,1,3.143-2.571,3.257,3.257,0,0,1,3.085,2.571,1.257,1.257,0,0,0,1.143,1.028h3.257v4.571H58.465Zm24,37.94a2.318,2.318,0,0,1-2.514,2.057H51.837a2.318,2.318,0,0,1-2.514-2.057V10.917a2.571,2.571,0,0,1,2.514-2.343h4.343v2.914a1.2,1.2,0,0,0,1.257,1.086H74.292a1.257,1.257,0,0,0,1.314-1.086V8.575h4.343a2.571,2.571,0,0,1,2.514,2.343v32.74Z" transform="translate(-47.037 0)" fill="#cca079"/>
        <path id="Path_59468" data-name="Path 59468" d="M108.112,230.668a1.143,1.143,0,0,0-1.6-.057l-3.657,3.485-1.543-1.6a1.143,1.143,0,0,0-1.6-.057,1.2,1.2,0,0,0,0,1.657l2.343,2.4a1.028,1.028,0,0,0,.8.343,1.142,1.142,0,0,0,.8-.343l4.457-4.228a1.086,1.086,0,0,0,.066-1.534Q108.147,230.7,108.112,230.668Z" transform="translate(-93.656 -205.123)" fill="#007066"/>
        <path id="Path_59469" data-name="Path 59469" d="M212.833,256.034H199.691a1.143,1.143,0,1,0,0,2.286h13.142a1.143,1.143,0,1,0,0-2.286Z" transform="translate(-181.978 -228.032)" fill="#bbb"/>
        <path id="Path_59470" data-name="Path 59470" d="M108.112,147.076a1.143,1.143,0,0,0-1.6-.057l-3.657,3.485-1.543-1.6a1.143,1.143,0,0,0-1.6-.057,1.2,1.2,0,0,0,0,1.657l2.343,2.4a1.028,1.028,0,0,0,.8.343,1.142,1.142,0,0,0,.8-.343l4.457-4.228a1.086,1.086,0,0,0,.066-1.534Q108.147,147.107,108.112,147.076Z" transform="translate(-93.656 -130.673)" fill="#007066"/>
        <path id="Path_59471" data-name="Path 59471" d="M212.833,172.442H199.691a1.143,1.143,0,1,0,0,2.286h13.142a1.143,1.143,0,0,0,0-2.286Z" transform="translate(-181.978 -153.583)" fill="#bbb"/>
        <path id="Path_59472" data-name="Path 59472" d="M108.112,314.259a1.143,1.143,0,0,0-1.6-.057l-3.657,3.485-1.543-1.6a1.143,1.143,0,0,0-1.6-.057,1.2,1.2,0,0,0,0,1.657l2.343,2.4a1.028,1.028,0,0,0,.8.343,1.143,1.143,0,0,0,.8-.343l4.457-4.228a1.086,1.086,0,0,0,.066-1.534Q108.147,314.291,108.112,314.259Z" transform="translate(-93.656 -279.572)" fill="#007066"/>
        <path id="Path_59473" data-name="Path 59473" d="M212.833,339.626H199.691a1.143,1.143,0,1,0,0,2.286h13.142a1.143,1.143,0,1,0,0-2.286Z" transform="translate(-181.978 -302.482)" fill="#bbb"/>
      </g>
    </g>
  </g>
</svg>
