<svg id="clock-outline" xmlns="http://www.w3.org/2000/svg" width="56" height="56" viewBox="0 0 56 56">
  <g id="clock">
    <rect id="Rectangle_11942" data-name="Rectangle 11942" width="56" height="56" transform="translate(56 56) rotate(180)" fill="#cca079" opacity="0"/>
    <path id="Path_57553" data-name="Path 57553" d="M25.333,2A23.333,23.333,0,1,0,48.667,25.333,23.333,23.333,0,0,0,25.333,2Zm0,42A18.667,18.667,0,1,1,44,25.333,18.667,18.667,0,0,1,25.333,44Z" transform="translate(2.667 2.667)" fill="#cca079"/>
    <path id="Path_57554" data-name="Path 57554" d="M22.667,16.333h-7v-7a2.333,2.333,0,1,0-4.667,0v9.333A2.333,2.333,0,0,0,13.333,21h9.333a2.333,2.333,0,0,0,0-4.667Z" transform="translate(14.667 9.333)" fill="#007066"/>
  </g>
</svg>
