<svg id="ClockDate" xmlns="http://www.w3.org/2000/svg" width="18" height="18" viewBox="0 0 18 18">
  <g id="Group_1373" data-name="Group 1373">
    <rect id="Rectangle_311" data-name="Rectangle 311" width="18" height="18" fill="none"/>
  </g>
  <g id="Group_1375" data-name="Group 1375" transform="translate(1.5 1.5)">
    <g id="Group_1374" data-name="Group 1374">
      <path id="Intersection_2" data-name="Intersection 2" d="M-8186.968-3231.031a5.963,5.963,0,0,1-.532-2.468,6.007,6.007,0,0,1,6-6,5.967,5.967,0,0,1,2.467.531,5.966,5.966,0,0,1,.532,2.468,6.009,6.009,0,0,1-6,6A5.961,5.961,0,0,1-8186.968-3231.031Z" transform="translate(8193 3245)" fill="#cda176" opacity="0.3"/>
      <path id="Path_4279" data-name="Path 4279" d="M9.5,2A7.5,7.5,0,1,0,17,9.5,7.522,7.522,0,0,0,9.5,2Zm0,13.5a6,6,0,1,1,6-6A6.008,6.008,0,0,1,9.5,15.5Zm.375-9.75H8.75v4.5l3.9,2.4.6-.975L9.875,9.65Z" transform="translate(-2 -2)" fill="#cda176"/>
    </g>
  </g>
</svg>
