<svg xmlns="http://www.w3.org/2000/svg" width="210.721" height="257.673" viewBox="0 0 210.721 257.673">
  <g id="dots" transform="translate(-130.833 1719.675) rotate(-90)" opacity="0.1">
    <path id="Path_12362" data-name="Path 12362" d="M1630.519,133.021a2.189,2.189,0,1,1-2.189-2.188A2.189,2.189,0,0,1,1630.519,133.021Z" fill="#012d29"/>
    <path id="Path_12430" data-name="Path 12430" d="M1630.519,133.021a2.189,2.189,0,1,1-2.189-2.188A2.189,2.189,0,0,1,1630.519,133.021Z" transform="translate(-134)" fill="#012d29"/>
    <path id="Path_12364" data-name="Path 12364" d="M1688.81,133.021a2.189,2.189,0,1,1-2.189-2.188A2.189,2.189,0,0,1,1688.81,133.021Z" transform="translate(-28.572)" fill="#012d29"/>
    <path id="Path_12431" data-name="Path 12431" d="M1688.81,133.021a2.189,2.189,0,1,1-2.189-2.188A2.189,2.189,0,0,1,1688.81,133.021Z" transform="translate(-162.572)" fill="#012d29"/>
    <path id="Path_12365" data-name="Path 12365" d="M1717.955,133.021a2.189,2.189,0,1,1-2.189-2.188A2.189,2.189,0,0,1,1717.955,133.021Z" transform="translate(-42.858)" fill="#012d29"/>
    <path id="Path_12432" data-name="Path 12432" d="M1717.955,133.021a2.189,2.189,0,1,1-2.189-2.188A2.189,2.189,0,0,1,1717.955,133.021Z" transform="translate(-176.858)" fill="#012d29"/>
    <path id="Path_12366" data-name="Path 12366" d="M1747.1,133.021a2.188,2.188,0,1,1-2.188-2.188A2.189,2.189,0,0,1,1747.1,133.021Z" transform="translate(-57.144)" fill="#012d29"/>
    <path id="Path_12433" data-name="Path 12433" d="M1747.1,133.021a2.188,2.188,0,1,1-2.188-2.188A2.189,2.189,0,0,1,1747.1,133.021Z" transform="translate(-191.144)" fill="#012d29"/>
    <path id="Path_12367" data-name="Path 12367" d="M1776.246,133.021a2.189,2.189,0,1,1-2.189-2.188A2.189,2.189,0,0,1,1776.246,133.021Z" transform="translate(-71.43)" fill="#012d29"/>
    <path id="Path_12434" data-name="Path 12434" d="M1776.246,133.021a2.189,2.189,0,1,1-2.189-2.188A2.189,2.189,0,0,1,1776.246,133.021Z" transform="translate(-205.43)" fill="#012d29"/>
    <path id="Path_12368" data-name="Path 12368" d="M1805.392,133.021a2.188,2.188,0,1,1-2.188-2.188A2.188,2.188,0,0,1,1805.392,133.021Z" transform="translate(-85.717)" fill="#012d29"/>
    <path id="Path_12435" data-name="Path 12435" d="M1805.392,133.021a2.188,2.188,0,1,1-2.188-2.188A2.188,2.188,0,0,1,1805.392,133.021Z" transform="translate(-219.717)" fill="#012d29"/>
    <path id="Path_12369" data-name="Path 12369" d="M1630.519,162.167a2.189,2.189,0,1,1-2.189-2.189A2.189,2.189,0,0,1,1630.519,162.167Z" transform="translate(0 -14.286)" fill="#012d29"/>
    <path id="Path_12436" data-name="Path 12436" d="M1630.519,162.167a2.189,2.189,0,1,1-2.189-2.189A2.189,2.189,0,0,1,1630.519,162.167Z" transform="translate(-134 -14.286)" fill="#012d29"/>
    <path id="Path_12371" data-name="Path 12371" d="M1688.81,162.167a2.189,2.189,0,1,1-2.189-2.189A2.189,2.189,0,0,1,1688.81,162.167Z" transform="translate(-28.572 -14.286)" fill="#012d29"/>
    <path id="Path_12437" data-name="Path 12437" d="M1688.81,162.167a2.189,2.189,0,1,1-2.189-2.189A2.189,2.189,0,0,1,1688.81,162.167Z" transform="translate(-162.572 -14.286)" fill="#012d29"/>
    <path id="Path_12372" data-name="Path 12372" d="M1717.955,162.167a2.189,2.189,0,1,1-2.189-2.189A2.189,2.189,0,0,1,1717.955,162.167Z" transform="translate(-42.858 -14.286)" fill="#012d29"/>
    <path id="Path_12438" data-name="Path 12438" d="M1717.955,162.167a2.189,2.189,0,1,1-2.189-2.189A2.189,2.189,0,0,1,1717.955,162.167Z" transform="translate(-176.858 -14.286)" fill="#012d29"/>
    <path id="Path_12373" data-name="Path 12373" d="M1747.1,162.167a2.188,2.188,0,1,1-2.188-2.189A2.189,2.189,0,0,1,1747.1,162.167Z" transform="translate(-57.144 -14.286)" fill="#012d29"/>
    <path id="Path_12439" data-name="Path 12439" d="M1747.1,162.167a2.188,2.188,0,1,1-2.188-2.189A2.189,2.189,0,0,1,1747.1,162.167Z" transform="translate(-191.144 -14.286)" fill="#012d29"/>
    <path id="Path_12374" data-name="Path 12374" d="M1776.246,162.167a2.189,2.189,0,1,1-2.189-2.189A2.189,2.189,0,0,1,1776.246,162.167Z" transform="translate(-71.43 -14.286)" fill="#012d29"/>
    <path id="Path_12440" data-name="Path 12440" d="M1776.246,162.167a2.189,2.189,0,1,1-2.189-2.189A2.189,2.189,0,0,1,1776.246,162.167Z" transform="translate(-205.43 -14.286)" fill="#012d29"/>
    <path id="Path_12375" data-name="Path 12375" d="M1805.392,162.167a2.188,2.188,0,1,1-2.188-2.189A2.188,2.188,0,0,1,1805.392,162.167Z" transform="translate(-85.717 -14.286)" fill="#012d29"/>
    <path id="Path_12441" data-name="Path 12441" d="M1805.392,162.167a2.188,2.188,0,1,1-2.188-2.189A2.188,2.188,0,0,1,1805.392,162.167Z" transform="translate(-219.717 -14.286)" fill="#012d29"/>
    <path id="Path_12376" data-name="Path 12376" d="M1630.519,191.312a2.189,2.189,0,1,1-2.189-2.188A2.189,2.189,0,0,1,1630.519,191.312Z" transform="translate(0 -28.572)" fill="#012d29"/>
    <path id="Path_12442" data-name="Path 12442" d="M1630.519,191.312a2.189,2.189,0,1,1-2.189-2.188A2.189,2.189,0,0,1,1630.519,191.312Z" transform="translate(-134 -28.572)" fill="#012d29"/>
    <path id="Path_12378" data-name="Path 12378" d="M1688.81,191.312a2.189,2.189,0,1,1-2.189-2.188A2.189,2.189,0,0,1,1688.81,191.312Z" transform="translate(-28.572 -28.572)" fill="#012d29"/>
    <path id="Path_12443" data-name="Path 12443" d="M1688.81,191.312a2.189,2.189,0,1,1-2.189-2.188A2.189,2.189,0,0,1,1688.81,191.312Z" transform="translate(-162.572 -28.572)" fill="#012d29"/>
    <path id="Path_12379" data-name="Path 12379" d="M1717.955,191.312a2.189,2.189,0,1,1-2.189-2.188A2.189,2.189,0,0,1,1717.955,191.312Z" transform="translate(-42.858 -28.572)" fill="#012d29"/>
    <path id="Path_12444" data-name="Path 12444" d="M1717.955,191.312a2.189,2.189,0,1,1-2.189-2.188A2.189,2.189,0,0,1,1717.955,191.312Z" transform="translate(-176.858 -28.572)" fill="#012d29"/>
    <circle id="Ellipse_195" data-name="Ellipse 195" cx="2.189" cy="2.189" r="2.189" transform="translate(1685.579 160.552)" fill="#012d29"/>
    <circle id="Ellipse_197" data-name="Ellipse 197" cx="2.189" cy="2.189" r="2.189" transform="translate(1551.579 160.552)" fill="#012d29"/>
    <path id="Path_12380" data-name="Path 12380" d="M1776.246,191.312a2.189,2.189,0,1,1-2.189-2.188A2.189,2.189,0,0,1,1776.246,191.312Z" transform="translate(-71.43 -28.572)" fill="#012d29"/>
    <path id="Path_12445" data-name="Path 12445" d="M1776.246,191.312a2.189,2.189,0,1,1-2.189-2.188A2.189,2.189,0,0,1,1776.246,191.312Z" transform="translate(-205.43 -28.572)" fill="#012d29"/>
    <path id="Path_12381" data-name="Path 12381" d="M1805.392,191.312a2.188,2.188,0,1,1-2.188-2.188A2.188,2.188,0,0,1,1805.392,191.312Z" transform="translate(-85.717 -28.572)" fill="#012d29"/>
    <path id="Path_12446" data-name="Path 12446" d="M1805.392,191.312a2.188,2.188,0,1,1-2.188-2.188A2.188,2.188,0,0,1,1805.392,191.312Z" transform="translate(-219.717 -28.572)" fill="#012d29"/>
    <path id="Path_12382" data-name="Path 12382" d="M1630.519,220.458a2.189,2.189,0,1,1-2.189-2.189A2.189,2.189,0,0,1,1630.519,220.458Z" transform="translate(0 -42.858)" fill="#012d29"/>
    <path id="Path_12447" data-name="Path 12447" d="M1630.519,220.458a2.189,2.189,0,1,1-2.189-2.189A2.189,2.189,0,0,1,1630.519,220.458Z" transform="translate(-134 -42.858)" fill="#012d29"/>
    <path id="Path_12384" data-name="Path 12384" d="M1688.81,220.458a2.189,2.189,0,1,1-2.189-2.189A2.189,2.189,0,0,1,1688.81,220.458Z" transform="translate(-28.572 -42.858)" fill="#012d29"/>
    <path id="Path_12448" data-name="Path 12448" d="M1688.81,220.458a2.189,2.189,0,1,1-2.189-2.189A2.189,2.189,0,0,1,1688.81,220.458Z" transform="translate(-162.572 -42.858)" fill="#012d29"/>
    <path id="Path_12385" data-name="Path 12385" d="M1717.955,220.458a2.189,2.189,0,1,1-2.189-2.189A2.189,2.189,0,0,1,1717.955,220.458Z" transform="translate(-42.858 -42.858)" fill="#012d29"/>
    <path id="Path_12449" data-name="Path 12449" d="M1717.955,220.458a2.189,2.189,0,1,1-2.189-2.189A2.189,2.189,0,0,1,1717.955,220.458Z" transform="translate(-176.858 -42.858)" fill="#012d29"/>
    <path id="Path_12386" data-name="Path 12386" d="M1747.1,220.458a2.188,2.188,0,1,1-2.188-2.189A2.189,2.189,0,0,1,1747.1,220.458Z" transform="translate(-57.144 -42.858)" fill="#012d29"/>
    <path id="Path_12450" data-name="Path 12450" d="M1747.1,220.458a2.188,2.188,0,1,1-2.188-2.189A2.189,2.189,0,0,1,1747.1,220.458Z" transform="translate(-191.144 -42.858)" fill="#012d29"/>
    <path id="Path_12387" data-name="Path 12387" d="M1776.246,220.458a2.189,2.189,0,1,1-2.189-2.189A2.189,2.189,0,0,1,1776.246,220.458Z" transform="translate(-71.43 -42.858)" fill="#012d29"/>
    <path id="Path_12451" data-name="Path 12451" d="M1776.246,220.458a2.189,2.189,0,1,1-2.189-2.189A2.189,2.189,0,0,1,1776.246,220.458Z" transform="translate(-205.43 -42.858)" fill="#012d29"/>
    <path id="Path_12388" data-name="Path 12388" d="M1805.392,220.458a2.188,2.188,0,1,1-2.188-2.189A2.188,2.188,0,0,1,1805.392,220.458Z" transform="translate(-85.717 -42.858)" fill="#012d29"/>
    <path id="Path_12452" data-name="Path 12452" d="M1805.392,220.458a2.188,2.188,0,1,1-2.188-2.189A2.188,2.188,0,0,1,1805.392,220.458Z" transform="translate(-219.717 -42.858)" fill="#012d29"/>
    <path id="Path_12389" data-name="Path 12389" d="M1630.519,249.6a2.189,2.189,0,1,1-2.189-2.188A2.189,2.189,0,0,1,1630.519,249.6Z" transform="translate(0 -57.145)" fill="#012d29"/>
    <path id="Path_12453" data-name="Path 12453" d="M1630.519,249.6a2.189,2.189,0,1,1-2.189-2.188A2.189,2.189,0,0,1,1630.519,249.6Z" transform="translate(-134 -57.145)" fill="#012d29"/>
    <path id="Path_12391" data-name="Path 12391" d="M1688.81,249.6a2.189,2.189,0,1,1-2.189-2.188A2.189,2.189,0,0,1,1688.81,249.6Z" transform="translate(-28.572 -57.145)" fill="#012d29"/>
    <path id="Path_12454" data-name="Path 12454" d="M1688.81,249.6a2.189,2.189,0,1,1-2.189-2.188A2.189,2.189,0,0,1,1688.81,249.6Z" transform="translate(-162.572 -57.145)" fill="#012d29"/>
    <path id="Path_12392" data-name="Path 12392" d="M1717.955,249.6a2.189,2.189,0,1,1-2.189-2.188A2.189,2.189,0,0,1,1717.955,249.6Z" transform="translate(-42.858 -57.145)" fill="#012d29"/>
    <path id="Path_12455" data-name="Path 12455" d="M1717.955,249.6a2.189,2.189,0,1,1-2.189-2.188A2.189,2.189,0,0,1,1717.955,249.6Z" transform="translate(-176.858 -57.145)" fill="#012d29"/>
    <path id="Path_12393" data-name="Path 12393" d="M1747.1,249.6a2.188,2.188,0,1,1-2.188-2.188A2.189,2.189,0,0,1,1747.1,249.6Z" transform="translate(-57.144 -57.145)" fill="#012d29"/>
    <path id="Path_12456" data-name="Path 12456" d="M1747.1,249.6a2.188,2.188,0,1,1-2.188-2.188A2.189,2.189,0,0,1,1747.1,249.6Z" transform="translate(-191.144 -57.145)" fill="#012d29"/>
    <path id="Path_12394" data-name="Path 12394" d="M1776.246,249.6a2.189,2.189,0,1,1-2.189-2.188A2.189,2.189,0,0,1,1776.246,249.6Z" transform="translate(-71.43 -57.145)" fill="#012d29"/>
    <path id="Path_12457" data-name="Path 12457" d="M1776.246,249.6a2.189,2.189,0,1,1-2.189-2.188A2.189,2.189,0,0,1,1776.246,249.6Z" transform="translate(-205.43 -57.145)" fill="#012d29"/>
    <path id="Path_12395" data-name="Path 12395" d="M1805.392,249.6a2.188,2.188,0,1,1-2.188-2.188A2.188,2.188,0,0,1,1805.392,249.6Z" transform="translate(-85.717 -57.145)" fill="#012d29"/>
    <path id="Path_12458" data-name="Path 12458" d="M1805.392,249.6a2.188,2.188,0,1,1-2.188-2.188A2.188,2.188,0,0,1,1805.392,249.6Z" transform="translate(-219.717 -57.145)" fill="#012d29"/>
    <path id="Path_12396" data-name="Path 12396" d="M1630.519,276.021a2.189,2.189,0,1,1-2.189-2.188A2.189,2.189,0,0,1,1630.519,276.021Z" transform="translate(0 -70.094)" fill="#012d29"/>
    <path id="Path_12459" data-name="Path 12459" d="M1630.519,276.021a2.189,2.189,0,1,1-2.189-2.188A2.189,2.189,0,0,1,1630.519,276.021Z" transform="translate(-134 -70.094)" fill="#012d29"/>
    <path id="Path_12398" data-name="Path 12398" d="M1688.81,276.021a2.189,2.189,0,1,1-2.189-2.188A2.189,2.189,0,0,1,1688.81,276.021Z" transform="translate(-28.572 -70.094)" fill="#012d29"/>
    <path id="Path_12460" data-name="Path 12460" d="M1688.81,276.021a2.189,2.189,0,1,1-2.189-2.188A2.189,2.189,0,0,1,1688.81,276.021Z" transform="translate(-162.572 -70.094)" fill="#012d29"/>
    <path id="Path_12399" data-name="Path 12399" d="M1717.955,276.021a2.189,2.189,0,1,1-2.189-2.188A2.189,2.189,0,0,1,1717.955,276.021Z" transform="translate(-42.857 -70.094)" fill="#012d29"/>
    <path id="Path_12461" data-name="Path 12461" d="M1717.955,276.021a2.189,2.189,0,1,1-2.189-2.188A2.189,2.189,0,0,1,1717.955,276.021Z" transform="translate(-176.857 -70.094)" fill="#012d29"/>
    <path id="Path_12400" data-name="Path 12400" d="M1747.1,276.021a2.188,2.188,0,1,1-2.188-2.188A2.189,2.189,0,0,1,1747.1,276.021Z" transform="translate(-57.145 -70.094)" fill="#012d29"/>
    <path id="Path_12462" data-name="Path 12462" d="M1747.1,276.021a2.188,2.188,0,1,1-2.188-2.188A2.189,2.189,0,0,1,1747.1,276.021Z" transform="translate(-191.145 -70.094)" fill="#012d29"/>
    <path id="Path_12401" data-name="Path 12401" d="M1776.246,276.021a2.189,2.189,0,1,1-2.189-2.188A2.189,2.189,0,0,1,1776.246,276.021Z" transform="translate(-71.43 -70.094)" fill="#012d29"/>
    <path id="Path_12463" data-name="Path 12463" d="M1776.246,276.021a2.189,2.189,0,1,1-2.189-2.188A2.189,2.189,0,0,1,1776.246,276.021Z" transform="translate(-205.43 -70.094)" fill="#012d29"/>
    <path id="Path_12402" data-name="Path 12402" d="M1805.392,276.021a2.188,2.188,0,1,1-2.188-2.188A2.188,2.188,0,0,1,1805.392,276.021Z" transform="translate(-85.717 -70.094)" fill="#012d29"/>
    <path id="Path_12464" data-name="Path 12464" d="M1805.392,276.021a2.188,2.188,0,1,1-2.188-2.188A2.188,2.188,0,0,1,1805.392,276.021Z" transform="translate(-219.717 -70.094)" fill="#012d29"/>
    <path id="Path_12403" data-name="Path 12403" d="M1630.519,305.167a2.189,2.189,0,1,1-2.189-2.189A2.189,2.189,0,0,1,1630.519,305.167Z" transform="translate(0 -84.38)" fill="#012d29"/>
    <path id="Path_12465" data-name="Path 12465" d="M1630.519,305.167a2.189,2.189,0,1,1-2.189-2.189A2.189,2.189,0,0,1,1630.519,305.167Z" transform="translate(-134 -84.38)" fill="#012d29"/>
    <path id="Path_12405" data-name="Path 12405" d="M1688.81,305.167a2.189,2.189,0,1,1-2.189-2.189A2.189,2.189,0,0,1,1688.81,305.167Z" transform="translate(-28.572 -84.38)" fill="#012d29"/>
    <path id="Path_12466" data-name="Path 12466" d="M1688.81,305.167a2.189,2.189,0,1,1-2.189-2.189A2.189,2.189,0,0,1,1688.81,305.167Z" transform="translate(-162.572 -84.38)" fill="#012d29"/>
    <path id="Path_12406" data-name="Path 12406" d="M1717.955,305.167a2.189,2.189,0,1,1-2.189-2.189A2.189,2.189,0,0,1,1717.955,305.167Z" transform="translate(-42.857 -84.38)" fill="#012d29"/>
    <path id="Path_12467" data-name="Path 12467" d="M1717.955,305.167a2.189,2.189,0,1,1-2.189-2.189A2.189,2.189,0,0,1,1717.955,305.167Z" transform="translate(-176.857 -84.38)" fill="#012d29"/>
    <path id="Path_12407" data-name="Path 12407" d="M1747.1,305.167a2.188,2.188,0,1,1-2.188-2.189A2.189,2.189,0,0,1,1747.1,305.167Z" transform="translate(-57.145 -84.38)" fill="#012d29"/>
    <path id="Path_12468" data-name="Path 12468" d="M1747.1,305.167a2.188,2.188,0,1,1-2.188-2.189A2.189,2.189,0,0,1,1747.1,305.167Z" transform="translate(-191.145 -84.38)" fill="#012d29"/>
    <path id="Path_12408" data-name="Path 12408" d="M1776.246,305.167a2.189,2.189,0,1,1-2.189-2.189A2.189,2.189,0,0,1,1776.246,305.167Z" transform="translate(-71.43 -84.38)" fill="#012d29"/>
    <path id="Path_12469" data-name="Path 12469" d="M1776.246,305.167a2.189,2.189,0,1,1-2.189-2.189A2.189,2.189,0,0,1,1776.246,305.167Z" transform="translate(-205.43 -84.38)" fill="#012d29"/>
    <path id="Path_12409" data-name="Path 12409" d="M1805.392,305.167a2.188,2.188,0,1,1-2.188-2.189A2.188,2.188,0,0,1,1805.392,305.167Z" transform="translate(-85.717 -84.38)" fill="#012d29"/>
    <path id="Path_12470" data-name="Path 12470" d="M1805.392,305.167a2.188,2.188,0,1,1-2.188-2.189A2.188,2.188,0,0,1,1805.392,305.167Z" transform="translate(-219.717 -84.38)" fill="#012d29"/>
    <path id="Path_12410" data-name="Path 12410" d="M1630.519,334.312a2.189,2.189,0,1,1-2.189-2.188A2.189,2.189,0,0,1,1630.519,334.312Z" transform="translate(0 -98.666)" fill="#012d29"/>
    <path id="Path_12471" data-name="Path 12471" d="M1630.519,334.312a2.189,2.189,0,1,1-2.189-2.188A2.189,2.189,0,0,1,1630.519,334.312Z" transform="translate(-134 -98.666)" fill="#012d29"/>
    <path id="Path_12412" data-name="Path 12412" d="M1688.81,334.312a2.189,2.189,0,1,1-2.189-2.188A2.189,2.189,0,0,1,1688.81,334.312Z" transform="translate(-28.572 -98.666)" fill="#012d29"/>
    <path id="Path_12472" data-name="Path 12472" d="M1688.81,334.312a2.189,2.189,0,1,1-2.189-2.188A2.189,2.189,0,0,1,1688.81,334.312Z" transform="translate(-162.572 -98.666)" fill="#012d29"/>
    <path id="Path_12413" data-name="Path 12413" d="M1717.955,334.312a2.189,2.189,0,1,1-2.189-2.188A2.189,2.189,0,0,1,1717.955,334.312Z" transform="translate(-42.857 -98.666)" fill="#012d29"/>
    <path id="Path_12473" data-name="Path 12473" d="M1717.955,334.312a2.189,2.189,0,1,1-2.189-2.188A2.189,2.189,0,0,1,1717.955,334.312Z" transform="translate(-176.857 -98.666)" fill="#012d29"/>
    <circle id="Ellipse_196" data-name="Ellipse 196" cx="2.189" cy="2.189" r="2.189" transform="translate(1685.58 233.458)" fill="#012d29"/>
    <circle id="Ellipse_198" data-name="Ellipse 198" cx="2.189" cy="2.189" r="2.189" transform="translate(1551.58 233.458)" fill="#012d29"/>
    <path id="Path_12414" data-name="Path 12414" d="M1776.246,334.312a2.189,2.189,0,1,1-2.189-2.188A2.189,2.189,0,0,1,1776.246,334.312Z" transform="translate(-71.43 -98.666)" fill="#012d29"/>
    <path id="Path_12474" data-name="Path 12474" d="M1776.246,334.312a2.189,2.189,0,1,1-2.189-2.188A2.189,2.189,0,0,1,1776.246,334.312Z" transform="translate(-205.43 -98.666)" fill="#012d29"/>
    <path id="Path_12415" data-name="Path 12415" d="M1805.392,334.312a2.188,2.188,0,1,1-2.188-2.188A2.188,2.188,0,0,1,1805.392,334.312Z" transform="translate(-85.717 -98.666)" fill="#012d29"/>
    <path id="Path_12475" data-name="Path 12475" d="M1805.392,334.312a2.188,2.188,0,1,1-2.188-2.188A2.188,2.188,0,0,1,1805.392,334.312Z" transform="translate(-219.717 -98.666)" fill="#012d29"/>
    <path id="Path_12416" data-name="Path 12416" d="M1630.519,363.458a2.189,2.189,0,1,1-2.189-2.189A2.189,2.189,0,0,1,1630.519,363.458Z" transform="translate(0 -112.952)" fill="#012d29"/>
    <path id="Path_12476" data-name="Path 12476" d="M1630.519,363.458a2.189,2.189,0,1,1-2.189-2.189A2.189,2.189,0,0,1,1630.519,363.458Z" transform="translate(-134 -112.952)" fill="#012d29"/>
    <path id="Path_12418" data-name="Path 12418" d="M1688.81,363.458a2.189,2.189,0,1,1-2.189-2.189A2.189,2.189,0,0,1,1688.81,363.458Z" transform="translate(-28.572 -112.952)" fill="#012d29"/>
    <path id="Path_12477" data-name="Path 12477" d="M1688.81,363.458a2.189,2.189,0,1,1-2.189-2.189A2.189,2.189,0,0,1,1688.81,363.458Z" transform="translate(-162.572 -112.952)" fill="#012d29"/>
    <path id="Path_12419" data-name="Path 12419" d="M1717.955,363.458a2.189,2.189,0,1,1-2.189-2.189A2.189,2.189,0,0,1,1717.955,363.458Z" transform="translate(-42.857 -112.952)" fill="#012d29"/>
    <path id="Path_12478" data-name="Path 12478" d="M1717.955,363.458a2.189,2.189,0,1,1-2.189-2.189A2.189,2.189,0,0,1,1717.955,363.458Z" transform="translate(-176.857 -112.952)" fill="#012d29"/>
    <path id="Path_12420" data-name="Path 12420" d="M1747.1,363.458a2.188,2.188,0,1,1-2.188-2.189A2.189,2.189,0,0,1,1747.1,363.458Z" transform="translate(-57.145 -112.952)" fill="#012d29"/>
    <path id="Path_12479" data-name="Path 12479" d="M1747.1,363.458a2.188,2.188,0,1,1-2.188-2.189A2.189,2.189,0,0,1,1747.1,363.458Z" transform="translate(-191.145 -112.952)" fill="#012d29"/>
    <path id="Path_12421" data-name="Path 12421" d="M1776.246,363.458a2.189,2.189,0,1,1-2.189-2.189A2.189,2.189,0,0,1,1776.246,363.458Z" transform="translate(-71.43 -112.952)" fill="#012d29"/>
    <path id="Path_12480" data-name="Path 12480" d="M1776.246,363.458a2.189,2.189,0,1,1-2.189-2.189A2.189,2.189,0,0,1,1776.246,363.458Z" transform="translate(-205.43 -112.952)" fill="#012d29"/>
    <path id="Path_12422" data-name="Path 12422" d="M1805.392,363.458a2.188,2.188,0,1,1-2.188-2.189A2.188,2.188,0,0,1,1805.392,363.458Z" transform="translate(-85.717 -112.952)" fill="#012d29"/>
    <path id="Path_12481" data-name="Path 12481" d="M1805.392,363.458a2.188,2.188,0,1,1-2.188-2.189A2.188,2.188,0,0,1,1805.392,363.458Z" transform="translate(-219.717 -112.952)" fill="#012d29"/>
    <path id="Path_12423" data-name="Path 12423" d="M1630.519,392.6a2.189,2.189,0,1,1-2.189-2.188A2.189,2.189,0,0,1,1630.519,392.6Z" transform="translate(0 -127.238)" fill="#012d29"/>
    <path id="Path_12482" data-name="Path 12482" d="M1630.519,392.6a2.189,2.189,0,1,1-2.189-2.188A2.189,2.189,0,0,1,1630.519,392.6Z" transform="translate(-134 -127.238)" fill="#012d29"/>
    <path id="Path_12425" data-name="Path 12425" d="M1688.81,392.6a2.189,2.189,0,1,1-2.189-2.188A2.189,2.189,0,0,1,1688.81,392.6Z" transform="translate(-28.572 -127.238)" fill="#012d29"/>
    <path id="Path_12483" data-name="Path 12483" d="M1688.81,392.6a2.189,2.189,0,1,1-2.189-2.188A2.189,2.189,0,0,1,1688.81,392.6Z" transform="translate(-162.572 -127.238)" fill="#012d29"/>
    <path id="Path_12426" data-name="Path 12426" d="M1717.955,392.6a2.189,2.189,0,1,1-2.189-2.188A2.189,2.189,0,0,1,1717.955,392.6Z" transform="translate(-42.857 -127.238)" fill="#012d29"/>
    <path id="Path_12484" data-name="Path 12484" d="M1717.955,392.6a2.189,2.189,0,1,1-2.189-2.188A2.189,2.189,0,0,1,1717.955,392.6Z" transform="translate(-176.857 -127.238)" fill="#012d29"/>
    <path id="Path_12427" data-name="Path 12427" d="M1747.1,392.6a2.188,2.188,0,1,1-2.188-2.188A2.189,2.189,0,0,1,1747.1,392.6Z" transform="translate(-57.145 -127.238)" fill="#012d29"/>
    <path id="Path_12485" data-name="Path 12485" d="M1747.1,392.6a2.188,2.188,0,1,1-2.188-2.188A2.189,2.189,0,0,1,1747.1,392.6Z" transform="translate(-191.145 -127.238)" fill="#012d29"/>
    <path id="Path_12428" data-name="Path 12428" d="M1776.246,392.6a2.189,2.189,0,1,1-2.189-2.188A2.189,2.189,0,0,1,1776.246,392.6Z" transform="translate(-71.43 -127.238)" fill="#012d29"/>
    <path id="Path_12486" data-name="Path 12486" d="M1776.246,392.6a2.189,2.189,0,1,1-2.189-2.188A2.189,2.189,0,0,1,1776.246,392.6Z" transform="translate(-205.43 -127.238)" fill="#012d29"/>
    <path id="Path_12429" data-name="Path 12429" d="M1805.392,392.6a2.188,2.188,0,1,1-2.188-2.188A2.188,2.188,0,0,1,1805.392,392.6Z" transform="translate(-85.717 -127.238)" fill="#012d29"/>
    <path id="Path_12487" data-name="Path 12487" d="M1805.392,392.6a2.188,2.188,0,1,1-2.188-2.188A2.188,2.188,0,0,1,1805.392,392.6Z" transform="translate(-219.717 -127.238)" fill="#012d29"/>
    <path id="Path_12396-2" data-name="Path 12396" d="M1630.519,276.021a2.189,2.189,0,1,1-2.189-2.188A2.189,2.189,0,0,1,1630.519,276.021Z" transform="translate(0 3.906)" fill="#012d29"/>
    <path id="Path_12488" data-name="Path 12488" d="M1630.519,276.021a2.189,2.189,0,1,1-2.189-2.188A2.189,2.189,0,0,1,1630.519,276.021Z" transform="translate(-134 3.906)" fill="#012d29"/>
    <path id="Path_12398-2" data-name="Path 12398" d="M1688.81,276.021a2.189,2.189,0,1,1-2.189-2.188A2.189,2.189,0,0,1,1688.81,276.021Z" transform="translate(-28.572 3.906)" fill="#012d29"/>
    <path id="Path_12489" data-name="Path 12489" d="M1688.81,276.021a2.189,2.189,0,1,1-2.189-2.188A2.189,2.189,0,0,1,1688.81,276.021Z" transform="translate(-162.572 3.906)" fill="#012d29"/>
    <path id="Path_12399-2" data-name="Path 12399" d="M1717.955,276.021a2.189,2.189,0,1,1-2.189-2.188A2.189,2.189,0,0,1,1717.955,276.021Z" transform="translate(-42.857 3.906)" fill="#012d29"/>
    <path id="Path_12490" data-name="Path 12490" d="M1717.955,276.021a2.189,2.189,0,1,1-2.189-2.188A2.189,2.189,0,0,1,1717.955,276.021Z" transform="translate(-176.857 3.906)" fill="#012d29"/>
    <path id="Path_12400-2" data-name="Path 12400" d="M1747.1,276.021a2.188,2.188,0,1,1-2.188-2.188A2.189,2.189,0,0,1,1747.1,276.021Z" transform="translate(-57.145 3.906)" fill="#012d29"/>
    <path id="Path_12491" data-name="Path 12491" d="M1747.1,276.021a2.188,2.188,0,1,1-2.188-2.188A2.189,2.189,0,0,1,1747.1,276.021Z" transform="translate(-191.145 3.906)" fill="#012d29"/>
    <path id="Path_12401-2" data-name="Path 12401" d="M1776.246,276.021a2.189,2.189,0,1,1-2.189-2.188A2.189,2.189,0,0,1,1776.246,276.021Z" transform="translate(-71.43 3.906)" fill="#012d29"/>
    <path id="Path_12492" data-name="Path 12492" d="M1776.246,276.021a2.189,2.189,0,1,1-2.189-2.188A2.189,2.189,0,0,1,1776.246,276.021Z" transform="translate(-205.43 3.906)" fill="#012d29"/>
    <path id="Path_12402-2" data-name="Path 12402" d="M1805.392,276.021a2.188,2.188,0,1,1-2.188-2.188A2.188,2.188,0,0,1,1805.392,276.021Z" transform="translate(-85.717 3.906)" fill="#012d29"/>
    <path id="Path_12493" data-name="Path 12493" d="M1805.392,276.021a2.188,2.188,0,1,1-2.188-2.188A2.188,2.188,0,0,1,1805.392,276.021Z" transform="translate(-219.717 3.906)" fill="#012d29"/>
    <path id="Path_12403-2" data-name="Path 12403" d="M1630.519,305.167a2.189,2.189,0,1,1-2.189-2.189A2.189,2.189,0,0,1,1630.519,305.167Z" transform="translate(0 -10.38)" fill="#012d29"/>
    <path id="Path_12494" data-name="Path 12494" d="M1630.519,305.167a2.189,2.189,0,1,1-2.189-2.189A2.189,2.189,0,0,1,1630.519,305.167Z" transform="translate(-134 -10.38)" fill="#012d29"/>
    <path id="Path_12405-2" data-name="Path 12405" d="M1688.81,305.167a2.189,2.189,0,1,1-2.189-2.189A2.189,2.189,0,0,1,1688.81,305.167Z" transform="translate(-28.572 -10.38)" fill="#012d29"/>
    <path id="Path_12495" data-name="Path 12495" d="M1688.81,305.167a2.189,2.189,0,1,1-2.189-2.189A2.189,2.189,0,0,1,1688.81,305.167Z" transform="translate(-162.572 -10.38)" fill="#012d29"/>
    <path id="Path_12406-2" data-name="Path 12406" d="M1717.955,305.167a2.189,2.189,0,1,1-2.189-2.189A2.189,2.189,0,0,1,1717.955,305.167Z" transform="translate(-42.857 -10.38)" fill="#012d29"/>
    <path id="Path_12496" data-name="Path 12496" d="M1717.955,305.167a2.189,2.189,0,1,1-2.189-2.189A2.189,2.189,0,0,1,1717.955,305.167Z" transform="translate(-176.857 -10.38)" fill="#012d29"/>
    <path id="Path_12407-2" data-name="Path 12407" d="M1747.1,305.167a2.188,2.188,0,1,1-2.188-2.189A2.189,2.189,0,0,1,1747.1,305.167Z" transform="translate(-57.145 -10.38)" fill="#012d29"/>
    <path id="Path_12497" data-name="Path 12497" d="M1747.1,305.167a2.188,2.188,0,1,1-2.188-2.189A2.189,2.189,0,0,1,1747.1,305.167Z" transform="translate(-191.145 -10.38)" fill="#012d29"/>
    <path id="Path_12408-2" data-name="Path 12408" d="M1776.246,305.167a2.189,2.189,0,1,1-2.189-2.189A2.189,2.189,0,0,1,1776.246,305.167Z" transform="translate(-71.43 -10.38)" fill="#012d29"/>
    <path id="Path_12498" data-name="Path 12498" d="M1776.246,305.167a2.189,2.189,0,1,1-2.189-2.189A2.189,2.189,0,0,1,1776.246,305.167Z" transform="translate(-205.43 -10.38)" fill="#012d29"/>
    <path id="Path_12409-2" data-name="Path 12409" d="M1805.392,305.167a2.188,2.188,0,1,1-2.188-2.189A2.188,2.188,0,0,1,1805.392,305.167Z" transform="translate(-85.717 -10.38)" fill="#012d29"/>
    <path id="Path_12499" data-name="Path 12499" d="M1805.392,305.167a2.188,2.188,0,1,1-2.188-2.189A2.188,2.188,0,0,1,1805.392,305.167Z" transform="translate(-219.717 -10.38)" fill="#012d29"/>
    <path id="Path_12410-2" data-name="Path 12410" d="M1630.519,334.312a2.189,2.189,0,1,1-2.189-2.188A2.189,2.189,0,0,1,1630.519,334.312Z" transform="translate(0 -24.666)" fill="#012d29"/>
    <path id="Path_12500" data-name="Path 12500" d="M1630.519,334.312a2.189,2.189,0,1,1-2.189-2.188A2.189,2.189,0,0,1,1630.519,334.312Z" transform="translate(-134 -24.666)" fill="#012d29"/>
    <path id="Path_12412-2" data-name="Path 12412" d="M1688.81,334.312a2.189,2.189,0,1,1-2.189-2.188A2.189,2.189,0,0,1,1688.81,334.312Z" transform="translate(-28.572 -24.666)" fill="#012d29"/>
    <path id="Path_12501" data-name="Path 12501" d="M1688.81,334.312a2.189,2.189,0,1,1-2.189-2.188A2.189,2.189,0,0,1,1688.81,334.312Z" transform="translate(-162.572 -24.666)" fill="#012d29"/>
    <path id="Path_12413-2" data-name="Path 12413" d="M1717.955,334.312a2.189,2.189,0,1,1-2.189-2.188A2.189,2.189,0,0,1,1717.955,334.312Z" transform="translate(-42.857 -24.666)" fill="#012d29"/>
    <path id="Path_12502" data-name="Path 12502" d="M1717.955,334.312a2.189,2.189,0,1,1-2.189-2.188A2.189,2.189,0,0,1,1717.955,334.312Z" transform="translate(-176.857 -24.666)" fill="#012d29"/>
    <circle id="Ellipse_196-2" data-name="Ellipse 196" cx="2.189" cy="2.189" r="2.189" transform="translate(1685.58 307.458)" fill="#012d29"/>
    <circle id="Ellipse_199" data-name="Ellipse 199" cx="2.189" cy="2.189" r="2.189" transform="translate(1551.58 307.458)" fill="#012d29"/>
    <path id="Path_12414-2" data-name="Path 12414" d="M1776.246,334.312a2.189,2.189,0,1,1-2.189-2.188A2.189,2.189,0,0,1,1776.246,334.312Z" transform="translate(-71.43 -24.666)" fill="#012d29"/>
    <path id="Path_12503" data-name="Path 12503" d="M1776.246,334.312a2.189,2.189,0,1,1-2.189-2.188A2.189,2.189,0,0,1,1776.246,334.312Z" transform="translate(-205.43 -24.666)" fill="#012d29"/>
    <path id="Path_12415-2" data-name="Path 12415" d="M1805.392,334.312a2.188,2.188,0,1,1-2.188-2.188A2.188,2.188,0,0,1,1805.392,334.312Z" transform="translate(-85.717 -24.666)" fill="#012d29"/>
    <path id="Path_12504" data-name="Path 12504" d="M1805.392,334.312a2.188,2.188,0,1,1-2.188-2.188A2.188,2.188,0,0,1,1805.392,334.312Z" transform="translate(-219.717 -24.666)" fill="#012d29"/>
    <path id="Path_12416-2" data-name="Path 12416" d="M1630.519,363.458a2.189,2.189,0,1,1-2.189-2.189A2.189,2.189,0,0,1,1630.519,363.458Z" transform="translate(0 -38.952)" fill="#012d29"/>
    <path id="Path_12505" data-name="Path 12505" d="M1630.519,363.458a2.189,2.189,0,1,1-2.189-2.189A2.189,2.189,0,0,1,1630.519,363.458Z" transform="translate(-134 -38.952)" fill="#012d29"/>
    <path id="Path_12418-2" data-name="Path 12418" d="M1688.81,363.458a2.189,2.189,0,1,1-2.189-2.189A2.189,2.189,0,0,1,1688.81,363.458Z" transform="translate(-28.572 -38.952)" fill="#012d29"/>
    <path id="Path_12506" data-name="Path 12506" d="M1688.81,363.458a2.189,2.189,0,1,1-2.189-2.189A2.189,2.189,0,0,1,1688.81,363.458Z" transform="translate(-162.572 -38.952)" fill="#012d29"/>
    <path id="Path_12419-2" data-name="Path 12419" d="M1717.955,363.458a2.189,2.189,0,1,1-2.189-2.189A2.189,2.189,0,0,1,1717.955,363.458Z" transform="translate(-42.857 -38.952)" fill="#012d29"/>
    <path id="Path_12507" data-name="Path 12507" d="M1717.955,363.458a2.189,2.189,0,1,1-2.189-2.189A2.189,2.189,0,0,1,1717.955,363.458Z" transform="translate(-176.857 -38.952)" fill="#012d29"/>
    <path id="Path_12420-2" data-name="Path 12420" d="M1747.1,363.458a2.188,2.188,0,1,1-2.188-2.189A2.189,2.189,0,0,1,1747.1,363.458Z" transform="translate(-57.145 -38.952)" fill="#012d29"/>
    <path id="Path_12508" data-name="Path 12508" d="M1747.1,363.458a2.188,2.188,0,1,1-2.188-2.189A2.189,2.189,0,0,1,1747.1,363.458Z" transform="translate(-191.145 -38.952)" fill="#012d29"/>
    <path id="Path_12421-2" data-name="Path 12421" d="M1776.246,363.458a2.189,2.189,0,1,1-2.189-2.189A2.189,2.189,0,0,1,1776.246,363.458Z" transform="translate(-71.43 -38.952)" fill="#012d29"/>
    <path id="Path_12509" data-name="Path 12509" d="M1776.246,363.458a2.189,2.189,0,1,1-2.189-2.189A2.189,2.189,0,0,1,1776.246,363.458Z" transform="translate(-205.43 -38.952)" fill="#012d29"/>
    <path id="Path_12422-2" data-name="Path 12422" d="M1805.392,363.458a2.188,2.188,0,1,1-2.188-2.189A2.188,2.188,0,0,1,1805.392,363.458Z" transform="translate(-85.717 -38.952)" fill="#012d29"/>
    <path id="Path_12510" data-name="Path 12510" d="M1805.392,363.458a2.188,2.188,0,1,1-2.188-2.189A2.188,2.188,0,0,1,1805.392,363.458Z" transform="translate(-219.717 -38.952)" fill="#012d29"/>
    <path id="Path_12423-2" data-name="Path 12423" d="M1630.519,392.6a2.189,2.189,0,1,1-2.189-2.188A2.189,2.189,0,0,1,1630.519,392.6Z" transform="translate(0 -53.238)" fill="#012d29"/>
    <path id="Path_12511" data-name="Path 12511" d="M1630.519,392.6a2.189,2.189,0,1,1-2.189-2.188A2.189,2.189,0,0,1,1630.519,392.6Z" transform="translate(-134 -53.238)" fill="#012d29"/>
    <g id="Group_23106" data-name="Group 23106">
      <path id="Path_12363" data-name="Path 12363" d="M1659.665,133.021a2.188,2.188,0,1,1-2.189-2.188A2.189,2.189,0,0,1,1659.665,133.021Z" transform="translate(-14.286)" fill="#012d29"/>
      <path id="Path_12370" data-name="Path 12370" d="M1659.665,162.167a2.188,2.188,0,1,1-2.189-2.189A2.189,2.189,0,0,1,1659.665,162.167Z" transform="translate(-14.286 -14.286)" fill="#012d29"/>
      <path id="Path_12377" data-name="Path 12377" d="M1659.665,191.312a2.188,2.188,0,1,1-2.189-2.188A2.189,2.189,0,0,1,1659.665,191.312Z" transform="translate(-14.286 -28.572)" fill="#012d29"/>
      <path id="Path_12383" data-name="Path 12383" d="M1659.665,220.458a2.188,2.188,0,1,1-2.189-2.189A2.189,2.189,0,0,1,1659.665,220.458Z" transform="translate(-14.286 -42.858)" fill="#012d29"/>
      <path id="Path_12390" data-name="Path 12390" d="M1659.665,249.6a2.188,2.188,0,1,1-2.189-2.188A2.189,2.189,0,0,1,1659.665,249.6Z" transform="translate(-14.286 -57.145)" fill="#012d29"/>
      <path id="Path_12397" data-name="Path 12397" d="M1659.665,276.021a2.188,2.188,0,1,1-2.189-2.188A2.189,2.189,0,0,1,1659.665,276.021Z" transform="translate(-14.286 -70.094)" fill="#012d29"/>
      <path id="Path_12404" data-name="Path 12404" d="M1659.665,305.167a2.188,2.188,0,1,1-2.189-2.189A2.189,2.189,0,0,1,1659.665,305.167Z" transform="translate(-14.286 -84.38)" fill="#012d29"/>
      <path id="Path_12411" data-name="Path 12411" d="M1659.665,334.312a2.188,2.188,0,1,1-2.189-2.188A2.189,2.189,0,0,1,1659.665,334.312Z" transform="translate(-14.286 -98.666)" fill="#012d29"/>
      <path id="Path_12417" data-name="Path 12417" d="M1659.665,363.458a2.188,2.188,0,1,1-2.189-2.189A2.189,2.189,0,0,1,1659.665,363.458Z" transform="translate(-14.286 -112.952)" fill="#012d29"/>
      <path id="Path_12424" data-name="Path 12424" d="M1659.665,392.6a2.188,2.188,0,1,1-2.189-2.188A2.189,2.189,0,0,1,1659.665,392.6Z" transform="translate(-14.286 -127.238)" fill="#012d29"/>
      <path id="Path_12397-2" data-name="Path 12397" d="M1659.665,276.021a2.188,2.188,0,1,1-2.189-2.188A2.189,2.189,0,0,1,1659.665,276.021Z" transform="translate(-14.286 3.906)" fill="#012d29"/>
      <path id="Path_12404-2" data-name="Path 12404" d="M1659.665,305.167a2.188,2.188,0,1,1-2.189-2.189A2.189,2.189,0,0,1,1659.665,305.167Z" transform="translate(-14.286 -10.38)" fill="#012d29"/>
      <path id="Path_12411-2" data-name="Path 12411" d="M1659.665,334.312a2.188,2.188,0,1,1-2.189-2.188A2.189,2.189,0,0,1,1659.665,334.312Z" transform="translate(-14.286 -24.666)" fill="#012d29"/>
      <path id="Path_12417-2" data-name="Path 12417" d="M1659.665,363.458a2.188,2.188,0,1,1-2.189-2.189A2.189,2.189,0,0,1,1659.665,363.458Z" transform="translate(-14.286 -38.952)" fill="#012d29"/>
      <path id="Path_12424-2" data-name="Path 12424" d="M1659.665,392.6a2.188,2.188,0,1,1-2.189-2.188A2.189,2.189,0,0,1,1659.665,392.6Z" transform="translate(-14.286 -53.238)" fill="#012d29"/>
    </g>
    <g id="Group_23109" data-name="Group 23109" transform="translate(-134)">
      <path id="Path_12363-2" data-name="Path 12363" d="M1659.665,133.021a2.188,2.188,0,1,1-2.189-2.188A2.189,2.189,0,0,1,1659.665,133.021Z" transform="translate(-14.286)" fill="#012d29"/>
      <path id="Path_12370-2" data-name="Path 12370" d="M1659.665,162.167a2.188,2.188,0,1,1-2.189-2.189A2.189,2.189,0,0,1,1659.665,162.167Z" transform="translate(-14.286 -14.286)" fill="#012d29"/>
      <path id="Path_12377-2" data-name="Path 12377" d="M1659.665,191.312a2.188,2.188,0,1,1-2.189-2.188A2.189,2.189,0,0,1,1659.665,191.312Z" transform="translate(-14.286 -28.572)" fill="#012d29"/>
      <path id="Path_12383-2" data-name="Path 12383" d="M1659.665,220.458a2.188,2.188,0,1,1-2.189-2.189A2.189,2.189,0,0,1,1659.665,220.458Z" transform="translate(-14.286 -42.858)" fill="#012d29"/>
      <path id="Path_12390-2" data-name="Path 12390" d="M1659.665,249.6a2.188,2.188,0,1,1-2.189-2.188A2.189,2.189,0,0,1,1659.665,249.6Z" transform="translate(-14.286 -57.145)" fill="#012d29"/>
      <path id="Path_12397-3" data-name="Path 12397" d="M1659.665,276.021a2.188,2.188,0,1,1-2.189-2.188A2.189,2.189,0,0,1,1659.665,276.021Z" transform="translate(-14.286 -70.094)" fill="#012d29"/>
      <path id="Path_12404-3" data-name="Path 12404" d="M1659.665,305.167a2.188,2.188,0,1,1-2.189-2.189A2.189,2.189,0,0,1,1659.665,305.167Z" transform="translate(-14.286 -84.38)" fill="#012d29"/>
      <path id="Path_12411-3" data-name="Path 12411" d="M1659.665,334.312a2.188,2.188,0,1,1-2.189-2.188A2.189,2.189,0,0,1,1659.665,334.312Z" transform="translate(-14.286 -98.666)" fill="#012d29"/>
      <path id="Path_12417-3" data-name="Path 12417" d="M1659.665,363.458a2.188,2.188,0,1,1-2.189-2.189A2.189,2.189,0,0,1,1659.665,363.458Z" transform="translate(-14.286 -112.952)" fill="#012d29"/>
      <path id="Path_12424-3" data-name="Path 12424" d="M1659.665,392.6a2.188,2.188,0,1,1-2.189-2.188A2.189,2.189,0,0,1,1659.665,392.6Z" transform="translate(-14.286 -127.238)" fill="#012d29"/>
      <path id="Path_12397-4" data-name="Path 12397" d="M1659.665,276.021a2.188,2.188,0,1,1-2.189-2.188A2.189,2.189,0,0,1,1659.665,276.021Z" transform="translate(-14.286 3.906)" fill="#012d29"/>
      <path id="Path_12404-4" data-name="Path 12404" d="M1659.665,305.167a2.188,2.188,0,1,1-2.189-2.189A2.189,2.189,0,0,1,1659.665,305.167Z" transform="translate(-14.286 -10.38)" fill="#012d29"/>
      <path id="Path_12411-4" data-name="Path 12411" d="M1659.665,334.312a2.188,2.188,0,1,1-2.189-2.188A2.189,2.189,0,0,1,1659.665,334.312Z" transform="translate(-14.286 -24.666)" fill="#012d29"/>
      <path id="Path_12417-4" data-name="Path 12417" d="M1659.665,363.458a2.188,2.188,0,1,1-2.189-2.189A2.189,2.189,0,0,1,1659.665,363.458Z" transform="translate(-14.286 -38.952)" fill="#012d29"/>
      <path id="Path_12424-4" data-name="Path 12424" d="M1659.665,392.6a2.188,2.188,0,1,1-2.189-2.188A2.189,2.189,0,0,1,1659.665,392.6Z" transform="translate(-14.286 -53.238)" fill="#012d29"/>
    </g>
    <g id="Group_23107" data-name="Group 23107" transform="translate(-30)">
      <path id="Path_12363-3" data-name="Path 12363" d="M1659.665,133.021a2.188,2.188,0,1,1-2.189-2.188A2.189,2.189,0,0,1,1659.665,133.021Z" transform="translate(-14.286)" fill="#012d29"/>
      <path id="Path_12370-3" data-name="Path 12370" d="M1659.665,162.167a2.188,2.188,0,1,1-2.189-2.189A2.189,2.189,0,0,1,1659.665,162.167Z" transform="translate(-14.286 -14.286)" fill="#012d29"/>
      <path id="Path_12377-3" data-name="Path 12377" d="M1659.665,191.312a2.188,2.188,0,1,1-2.189-2.188A2.189,2.189,0,0,1,1659.665,191.312Z" transform="translate(-14.286 -28.572)" fill="#012d29"/>
      <path id="Path_12383-3" data-name="Path 12383" d="M1659.665,220.458a2.188,2.188,0,1,1-2.189-2.189A2.189,2.189,0,0,1,1659.665,220.458Z" transform="translate(-14.286 -42.858)" fill="#012d29"/>
      <path id="Path_12390-3" data-name="Path 12390" d="M1659.665,249.6a2.188,2.188,0,1,1-2.189-2.188A2.189,2.189,0,0,1,1659.665,249.6Z" transform="translate(-14.286 -57.145)" fill="#012d29"/>
      <path id="Path_12397-5" data-name="Path 12397" d="M1659.665,276.021a2.188,2.188,0,1,1-2.189-2.188A2.189,2.189,0,0,1,1659.665,276.021Z" transform="translate(-14.286 -70.094)" fill="#012d29"/>
      <path id="Path_12404-5" data-name="Path 12404" d="M1659.665,305.167a2.188,2.188,0,1,1-2.189-2.189A2.189,2.189,0,0,1,1659.665,305.167Z" transform="translate(-14.286 -84.38)" fill="#012d29"/>
      <path id="Path_12411-5" data-name="Path 12411" d="M1659.665,334.312a2.188,2.188,0,1,1-2.189-2.188A2.189,2.189,0,0,1,1659.665,334.312Z" transform="translate(-14.286 -98.666)" fill="#012d29"/>
      <path id="Path_12417-5" data-name="Path 12417" d="M1659.665,363.458a2.188,2.188,0,1,1-2.189-2.189A2.189,2.189,0,0,1,1659.665,363.458Z" transform="translate(-14.286 -112.952)" fill="#012d29"/>
      <path id="Path_12424-5" data-name="Path 12424" d="M1659.665,392.6a2.188,2.188,0,1,1-2.189-2.188A2.189,2.189,0,0,1,1659.665,392.6Z" transform="translate(-14.286 -127.238)" fill="#012d29"/>
      <path id="Path_12397-6" data-name="Path 12397" d="M1659.665,276.021a2.188,2.188,0,1,1-2.189-2.188A2.189,2.189,0,0,1,1659.665,276.021Z" transform="translate(-14.286 3.906)" fill="#012d29"/>
      <path id="Path_12404-6" data-name="Path 12404" d="M1659.665,305.167a2.188,2.188,0,1,1-2.189-2.189A2.189,2.189,0,0,1,1659.665,305.167Z" transform="translate(-14.286 -10.38)" fill="#012d29"/>
      <path id="Path_12411-6" data-name="Path 12411" d="M1659.665,334.312a2.188,2.188,0,1,1-2.189-2.188A2.189,2.189,0,0,1,1659.665,334.312Z" transform="translate(-14.286 -24.666)" fill="#012d29"/>
      <path id="Path_12417-6" data-name="Path 12417" d="M1659.665,363.458a2.188,2.188,0,1,1-2.189-2.189A2.189,2.189,0,0,1,1659.665,363.458Z" transform="translate(-14.286 -38.952)" fill="#012d29"/>
      <path id="Path_12424-6" data-name="Path 12424" d="M1659.665,392.6a2.188,2.188,0,1,1-2.189-2.188A2.189,2.189,0,0,1,1659.665,392.6Z" transform="translate(-14.286 -53.238)" fill="#012d29"/>
    </g>
    <g id="Group_23110" data-name="Group 23110" transform="translate(-164)">
      <path id="Path_12363-4" data-name="Path 12363" d="M1659.665,133.021a2.188,2.188,0,1,1-2.189-2.188A2.189,2.189,0,0,1,1659.665,133.021Z" transform="translate(-14.286)" fill="#012d29"/>
      <path id="Path_12370-4" data-name="Path 12370" d="M1659.665,162.167a2.188,2.188,0,1,1-2.189-2.189A2.189,2.189,0,0,1,1659.665,162.167Z" transform="translate(-14.286 -14.286)" fill="#012d29"/>
      <path id="Path_12377-4" data-name="Path 12377" d="M1659.665,191.312a2.188,2.188,0,1,1-2.189-2.188A2.189,2.189,0,0,1,1659.665,191.312Z" transform="translate(-14.286 -28.572)" fill="#012d29"/>
      <path id="Path_12383-4" data-name="Path 12383" d="M1659.665,220.458a2.188,2.188,0,1,1-2.189-2.189A2.189,2.189,0,0,1,1659.665,220.458Z" transform="translate(-14.286 -42.858)" fill="#012d29"/>
      <path id="Path_12390-4" data-name="Path 12390" d="M1659.665,249.6a2.188,2.188,0,1,1-2.189-2.188A2.189,2.189,0,0,1,1659.665,249.6Z" transform="translate(-14.286 -57.145)" fill="#012d29"/>
      <path id="Path_12397-7" data-name="Path 12397" d="M1659.665,276.021a2.188,2.188,0,1,1-2.189-2.188A2.189,2.189,0,0,1,1659.665,276.021Z" transform="translate(-14.286 -70.094)" fill="#012d29"/>
      <path id="Path_12404-7" data-name="Path 12404" d="M1659.665,305.167a2.188,2.188,0,1,1-2.189-2.189A2.189,2.189,0,0,1,1659.665,305.167Z" transform="translate(-14.286 -84.38)" fill="#012d29"/>
      <path id="Path_12411-7" data-name="Path 12411" d="M1659.665,334.312a2.188,2.188,0,1,1-2.189-2.188A2.189,2.189,0,0,1,1659.665,334.312Z" transform="translate(-14.286 -98.666)" fill="#012d29"/>
      <path id="Path_12417-7" data-name="Path 12417" d="M1659.665,363.458a2.188,2.188,0,1,1-2.189-2.189A2.189,2.189,0,0,1,1659.665,363.458Z" transform="translate(-14.286 -112.952)" fill="#012d29"/>
      <path id="Path_12424-7" data-name="Path 12424" d="M1659.665,392.6a2.188,2.188,0,1,1-2.189-2.188A2.189,2.189,0,0,1,1659.665,392.6Z" transform="translate(-14.286 -127.238)" fill="#012d29"/>
      <path id="Path_12397-8" data-name="Path 12397" d="M1659.665,276.021a2.188,2.188,0,1,1-2.189-2.188A2.189,2.189,0,0,1,1659.665,276.021Z" transform="translate(-14.286 3.906)" fill="#012d29"/>
      <path id="Path_12404-8" data-name="Path 12404" d="M1659.665,305.167a2.188,2.188,0,1,1-2.189-2.189A2.189,2.189,0,0,1,1659.665,305.167Z" transform="translate(-14.286 -10.38)" fill="#012d29"/>
      <path id="Path_12411-8" data-name="Path 12411" d="M1659.665,334.312a2.188,2.188,0,1,1-2.189-2.188A2.189,2.189,0,0,1,1659.665,334.312Z" transform="translate(-14.286 -24.666)" fill="#012d29"/>
      <path id="Path_12417-8" data-name="Path 12417" d="M1659.665,363.458a2.188,2.188,0,1,1-2.189-2.189A2.189,2.189,0,0,1,1659.665,363.458Z" transform="translate(-14.286 -38.952)" fill="#012d29"/>
      <path id="Path_12424-8" data-name="Path 12424" d="M1659.665,392.6a2.188,2.188,0,1,1-2.189-2.188A2.189,2.189,0,0,1,1659.665,392.6Z" transform="translate(-14.286 -53.238)" fill="#012d29"/>
    </g>
    <g id="Group_23108" data-name="Group 23108" transform="translate(-45)">
      <path id="Path_12363-5" data-name="Path 12363" d="M1659.665,133.021a2.188,2.188,0,1,1-2.189-2.188A2.189,2.189,0,0,1,1659.665,133.021Z" transform="translate(-14.286)" fill="#012d29"/>
      <path id="Path_12370-5" data-name="Path 12370" d="M1659.665,162.167a2.188,2.188,0,1,1-2.189-2.189A2.189,2.189,0,0,1,1659.665,162.167Z" transform="translate(-14.286 -14.286)" fill="#012d29"/>
      <path id="Path_12377-5" data-name="Path 12377" d="M1659.665,191.312a2.188,2.188,0,1,1-2.189-2.188A2.189,2.189,0,0,1,1659.665,191.312Z" transform="translate(-14.286 -28.572)" fill="#012d29"/>
      <path id="Path_12383-5" data-name="Path 12383" d="M1659.665,220.458a2.188,2.188,0,1,1-2.189-2.189A2.189,2.189,0,0,1,1659.665,220.458Z" transform="translate(-14.286 -42.858)" fill="#012d29"/>
      <path id="Path_12390-5" data-name="Path 12390" d="M1659.665,249.6a2.188,2.188,0,1,1-2.189-2.188A2.189,2.189,0,0,1,1659.665,249.6Z" transform="translate(-14.286 -57.145)" fill="#012d29"/>
      <path id="Path_12397-9" data-name="Path 12397" d="M1659.665,276.021a2.188,2.188,0,1,1-2.189-2.188A2.189,2.189,0,0,1,1659.665,276.021Z" transform="translate(-14.286 -70.094)" fill="#012d29"/>
      <path id="Path_12404-9" data-name="Path 12404" d="M1659.665,305.167a2.188,2.188,0,1,1-2.189-2.189A2.189,2.189,0,0,1,1659.665,305.167Z" transform="translate(-14.286 -84.38)" fill="#012d29"/>
      <path id="Path_12411-9" data-name="Path 12411" d="M1659.665,334.312a2.188,2.188,0,1,1-2.189-2.188A2.189,2.189,0,0,1,1659.665,334.312Z" transform="translate(-14.286 -98.666)" fill="#012d29"/>
      <path id="Path_12417-9" data-name="Path 12417" d="M1659.665,363.458a2.188,2.188,0,1,1-2.189-2.189A2.189,2.189,0,0,1,1659.665,363.458Z" transform="translate(-14.286 -112.952)" fill="#012d29"/>
      <path id="Path_12424-9" data-name="Path 12424" d="M1659.665,392.6a2.188,2.188,0,1,1-2.189-2.188A2.189,2.189,0,0,1,1659.665,392.6Z" transform="translate(-14.286 -127.238)" fill="#012d29"/>
      <path id="Path_12397-10" data-name="Path 12397" d="M1659.665,276.021a2.188,2.188,0,1,1-2.189-2.188A2.189,2.189,0,0,1,1659.665,276.021Z" transform="translate(-14.286 3.906)" fill="#012d29"/>
      <path id="Path_12404-10" data-name="Path 12404" d="M1659.665,305.167a2.188,2.188,0,1,1-2.189-2.189A2.189,2.189,0,0,1,1659.665,305.167Z" transform="translate(-14.286 -10.38)" fill="#012d29"/>
      <path id="Path_12411-10" data-name="Path 12411" d="M1659.665,334.312a2.188,2.188,0,1,1-2.189-2.188A2.189,2.189,0,0,1,1659.665,334.312Z" transform="translate(-14.286 -24.666)" fill="#012d29"/>
      <path id="Path_12417-10" data-name="Path 12417" d="M1659.665,363.458a2.188,2.188,0,1,1-2.189-2.189A2.189,2.189,0,0,1,1659.665,363.458Z" transform="translate(-14.286 -38.952)" fill="#012d29"/>
      <path id="Path_12424-10" data-name="Path 12424" d="M1659.665,392.6a2.188,2.188,0,1,1-2.189-2.188A2.189,2.189,0,0,1,1659.665,392.6Z" transform="translate(-14.286 -53.238)" fill="#012d29"/>
    </g>
    <g id="Group_23111" data-name="Group 23111" transform="translate(-179)">
      <path id="Path_12363-6" data-name="Path 12363" d="M1659.665,133.021a2.188,2.188,0,1,1-2.189-2.188A2.189,2.189,0,0,1,1659.665,133.021Z" transform="translate(-14.286)" fill="#012d29"/>
      <path id="Path_12370-6" data-name="Path 12370" d="M1659.665,162.167a2.188,2.188,0,1,1-2.189-2.189A2.189,2.189,0,0,1,1659.665,162.167Z" transform="translate(-14.286 -14.286)" fill="#012d29"/>
      <path id="Path_12377-6" data-name="Path 12377" d="M1659.665,191.312a2.188,2.188,0,1,1-2.189-2.188A2.189,2.189,0,0,1,1659.665,191.312Z" transform="translate(-14.286 -28.572)" fill="#012d29"/>
      <path id="Path_12383-6" data-name="Path 12383" d="M1659.665,220.458a2.188,2.188,0,1,1-2.189-2.189A2.189,2.189,0,0,1,1659.665,220.458Z" transform="translate(-14.286 -42.858)" fill="#012d29"/>
      <path id="Path_12390-6" data-name="Path 12390" d="M1659.665,249.6a2.188,2.188,0,1,1-2.189-2.188A2.189,2.189,0,0,1,1659.665,249.6Z" transform="translate(-14.286 -57.145)" fill="#012d29"/>
      <path id="Path_12397-11" data-name="Path 12397" d="M1659.665,276.021a2.188,2.188,0,1,1-2.189-2.188A2.189,2.189,0,0,1,1659.665,276.021Z" transform="translate(-14.286 -70.094)" fill="#012d29"/>
      <path id="Path_12404-11" data-name="Path 12404" d="M1659.665,305.167a2.188,2.188,0,1,1-2.189-2.189A2.189,2.189,0,0,1,1659.665,305.167Z" transform="translate(-14.286 -84.38)" fill="#012d29"/>
      <path id="Path_12411-11" data-name="Path 12411" d="M1659.665,334.312a2.188,2.188,0,1,1-2.189-2.188A2.189,2.189,0,0,1,1659.665,334.312Z" transform="translate(-14.286 -98.666)" fill="#012d29"/>
      <path id="Path_12417-11" data-name="Path 12417" d="M1659.665,363.458a2.188,2.188,0,1,1-2.189-2.189A2.189,2.189,0,0,1,1659.665,363.458Z" transform="translate(-14.286 -112.952)" fill="#012d29"/>
      <path id="Path_12424-11" data-name="Path 12424" d="M1659.665,392.6a2.188,2.188,0,1,1-2.189-2.188A2.189,2.189,0,0,1,1659.665,392.6Z" transform="translate(-14.286 -127.238)" fill="#012d29"/>
      <path id="Path_12397-12" data-name="Path 12397" d="M1659.665,276.021a2.188,2.188,0,1,1-2.189-2.188A2.189,2.189,0,0,1,1659.665,276.021Z" transform="translate(-14.286 3.906)" fill="#012d29"/>
      <path id="Path_12404-12" data-name="Path 12404" d="M1659.665,305.167a2.188,2.188,0,1,1-2.189-2.189A2.189,2.189,0,0,1,1659.665,305.167Z" transform="translate(-14.286 -10.38)" fill="#012d29"/>
      <path id="Path_12411-12" data-name="Path 12411" d="M1659.665,334.312a2.188,2.188,0,1,1-2.189-2.188A2.189,2.189,0,0,1,1659.665,334.312Z" transform="translate(-14.286 -24.666)" fill="#012d29"/>
      <path id="Path_12417-12" data-name="Path 12417" d="M1659.665,363.458a2.188,2.188,0,1,1-2.189-2.189A2.189,2.189,0,0,1,1659.665,363.458Z" transform="translate(-14.286 -38.952)" fill="#012d29"/>
      <path id="Path_12424-12" data-name="Path 12424" d="M1659.665,392.6a2.188,2.188,0,1,1-2.189-2.188A2.189,2.189,0,0,1,1659.665,392.6Z" transform="translate(-14.286 -53.238)" fill="#012d29"/>
    </g>
    <path id="Path_12425-2" data-name="Path 12425" d="M1688.81,392.6a2.189,2.189,0,1,1-2.189-2.188A2.189,2.189,0,0,1,1688.81,392.6Z" transform="translate(-28.572 -53.238)" fill="#012d29"/>
    <path id="Path_12512" data-name="Path 12512" d="M1688.81,392.6a2.189,2.189,0,1,1-2.189-2.188A2.189,2.189,0,0,1,1688.81,392.6Z" transform="translate(-162.572 -53.238)" fill="#012d29"/>
    <path id="Path_12426-2" data-name="Path 12426" d="M1717.955,392.6a2.189,2.189,0,1,1-2.189-2.188A2.189,2.189,0,0,1,1717.955,392.6Z" transform="translate(-42.857 -53.238)" fill="#012d29"/>
    <path id="Path_12513" data-name="Path 12513" d="M1717.955,392.6a2.189,2.189,0,1,1-2.189-2.188A2.189,2.189,0,0,1,1717.955,392.6Z" transform="translate(-176.857 -53.238)" fill="#012d29"/>
    <path id="Path_12427-2" data-name="Path 12427" d="M1747.1,392.6a2.188,2.188,0,1,1-2.188-2.188A2.189,2.189,0,0,1,1747.1,392.6Z" transform="translate(-57.145 -53.238)" fill="#012d29"/>
    <path id="Path_12514" data-name="Path 12514" d="M1747.1,392.6a2.188,2.188,0,1,1-2.188-2.188A2.189,2.189,0,0,1,1747.1,392.6Z" transform="translate(-191.145 -53.238)" fill="#012d29"/>
    <path id="Path_12428-2" data-name="Path 12428" d="M1776.246,392.6a2.189,2.189,0,1,1-2.189-2.188A2.189,2.189,0,0,1,1776.246,392.6Z" transform="translate(-71.43 -53.238)" fill="#012d29"/>
    <path id="Path_12515" data-name="Path 12515" d="M1776.246,392.6a2.189,2.189,0,1,1-2.189-2.188A2.189,2.189,0,0,1,1776.246,392.6Z" transform="translate(-205.43 -53.238)" fill="#012d29"/>
    <path id="Path_12429-2" data-name="Path 12429" d="M1805.392,392.6a2.188,2.188,0,1,1-2.188-2.188A2.188,2.188,0,0,1,1805.392,392.6Z" transform="translate(-85.717 -53.238)" fill="#012d29"/>
    <path id="Path_12516" data-name="Path 12516" d="M1805.392,392.6a2.188,2.188,0,1,1-2.188-2.188A2.188,2.188,0,0,1,1805.392,392.6Z" transform="translate(-219.717 -53.238)" fill="#012d29"/>
  </g>
</svg>
