<svg xmlns="http://www.w3.org/2000/svg" width="19.143" height="20.033" viewBox="0 0 19.143 20.033">
  <path id="DownloadIcon" d="M22.143,13.866V19.92a1.1,1.1,0,0,1-1.113,1.113H4.113A1.1,1.1,0,0,1,3,19.92V13.866a1.113,1.113,0,1,1,2.226,0v4.942H19.917V13.866a1.113,1.113,0,1,1,2.226,0ZM11.77,15.246a1.058,1.058,0,0,0,.8.334,1.093,1.093,0,0,0,.8-.334L17.8,10.7a1.118,1.118,0,1,0-1.6-1.558l-2.515,2.6V2.113a1.113,1.113,0,1,0-2.226,0v9.638L8.921,9.169a1.118,1.118,0,0,0-1.6,1.558Z" transform="translate(-3 -1)" fill="#007066"/>
</svg>
