<svg id="goalsList" xmlns="http://www.w3.org/2000/svg" width="49.259" height="49.8" viewBox="0 0 49.259 49.8">
  <g id="Layer_1" data-name="Layer 1" transform="translate(0.9 0.9)">
    <line id="Line_8608" data-name="Line 8608" y1="6.761" transform="translate(23.392)" fill="none" stroke="#007167" stroke-linecap="round" stroke-linejoin="round" stroke-width="1.8"/>
    <line id="Line_8609" data-name="Line 8609" y2="6.761" transform="translate(23.392 41.239)" fill="none" stroke="#007167" stroke-linecap="round" stroke-linejoin="round" stroke-width="1.8"/>
    <line id="Line_8610" data-name="Line 8610" x1="6.22" transform="translate(0 23.932)" fill="none" stroke="#007167" stroke-linecap="round" stroke-linejoin="round" stroke-width="1.8"/>
    <line id="Line_8611" data-name="Line 8611" x1="6.761" transform="translate(40.699 23.932)" fill="none" stroke="#007167" stroke-linecap="round" stroke-linejoin="round" stroke-width="1.8"/>
    <path id="Path_59462" data-name="Path 59462" d="M20.827,17.248A4.856,4.856,0,0,1,22.314,17a5.972,5.972,0,0,1,5.949,5.814,5.882,5.882,0,1,1-11.763,0,4.777,4.777,0,0,1,.406-1.893" transform="translate(1.077 1.141)" fill="none" stroke="#bbbaba" stroke-linecap="round" stroke-linejoin="round" stroke-width="1.8"/>
    <path id="Path_59463" data-name="Path 59463" d="M16.74,12.692A12.168,12.168,0,0,1,30.532,32.523" transform="translate(1.108 0.423)" fill="none" stroke="#007167" stroke-linecap="round" stroke-linejoin="round" stroke-width="1.8"/>
    <path id="Path_59464" data-name="Path 59464" d="M28.437,34.033a14.3,14.3,0,0,1-5.408,1.127A12.2,12.2,0,0,1,10.86,22.991a12.473,12.473,0,0,1,2.254-7.031" transform="translate(0.363 1.009)" fill="none" stroke="#007167" stroke-linecap="round" stroke-linejoin="round" stroke-width="1.8"/>
    <path id="Path_59465" data-name="Path 59465" d="M8.313,32.049A16.9,16.9,0,0,1,6.42,24.072,17.194,17.194,0,0,1,23.592,6.9a17.555,17.555,0,0,1,12.98,5.634" transform="translate(-0.2 -0.139)" fill="none" stroke="#cea277" stroke-linecap="round" stroke-linejoin="round" stroke-width="1.8"/>
    <path id="Path_59466" data-name="Path 59466" d="M38.47,15.54A17.3,17.3,0,0,1,12.78,37.084" transform="translate(0.606 0.956)" fill="none" stroke="#cea277" stroke-linecap="round" stroke-linejoin="round" stroke-width="1.8"/>
  </g>
</svg>
