<svg xmlns="http://www.w3.org/2000/svg" xmlns:xlink="http://www.w3.org/1999/xlink" width="30.964" height="37.009" viewBox="0 0 30.964 37.009">
  <defs>
    <filter id="Path_57559" x="0" y="0" width="27.964" height="37.009" filterUnits="userSpaceOnUse">
      <feOffset dy="3" input="SourceAlpha"/>
      <feGaussianBlur stdDeviation="3" result="blur"/>
      <feFlood flood-color="#8f6743" flood-opacity="0.149"/>
      <feComposite operator="in" in2="blur"/>
      <feComposite in="SourceGraphic"/>
    </filter>
  </defs>
  <g id="half-star" transform="translate(6.964 4.004)">
    <g id="star">
      <g id="star-2" data-name="star">
        <rect id="Rectangle_11945" data-name="Rectangle 11945" width="24" height="24" transform="translate(24) rotate(90)" fill="#cca079" opacity="0"/>
        <g id="Group_25219" data-name="Group 25219">
          <g transform="matrix(1, 0, 0, 1, -6.96, -4)" filter="url(#Path_57559)">
            <path id="Path_57559-2" data-name="Path 57559" d="M12,18.22,6.9,20.89a1,1,0,0,1-1.45-1.06l1-5.63-4.12-4a.985.985,0,0,1,.56-1.68l5.7-.83L11.1,2.56A1,1,0,0,1,12,2Z" transform="translate(6.96 4)" fill="#cca079"/>
          </g>
          <path id="Path_57562" data-name="Path 57562" d="M2.207,18.22l5.1,2.67a1,1,0,0,0,1.45-1.06l-1-5.63,4.12-4a.985.985,0,0,0-.56-1.68l-5.7-.83L3.107,2.56A1,1,0,0,0,2.207,2Z" transform="translate(9.793)" fill="rgba(204,160,121,0.32)"/>
        </g>
      </g>
    </g>
  </g>
</svg>
