<svg xmlns="http://www.w3.org/2000/svg" xmlns:xlink="http://www.w3.org/1999/xlink" width="487.711" height="431" viewBox="0 0 487.711 431">
  <defs>
    <filter id="Rectangle_11898" x="0" y="0" width="487.711" height="431" filterUnits="userSpaceOnUse">
      <feOffset dy="8" input="SourceAlpha"/>
      <feGaussianBlur stdDeviation="8" result="blur"/>
      <feFlood flood-color="#007066" flood-opacity="0.2"/>
      <feComposite operator="in" in2="blur"/>
      <feComposite in="SourceGraphic"/>
    </filter>
  </defs>
  <g id="innerJopImg" transform="translate(-45.804 -445)">
    <g transform="matrix(1, 0, 0, 1, 45.8, 445)" filter="url(#Rectangle_11898)">
      <rect id="Rectangle_11898-2" data-name="Rectangle 11898" width="439.711" height="383" rx="8" transform="translate(24 16)" fill="#007066"/>
    </g>
    <g id="Group_25135" data-name="Group 25135" transform="translate(172.803 576)">
      <g id="Group_24974" data-name="Group 24974" transform="translate(0 0)">
        <g id="Group_24971" data-name="Group 24971" transform="translate(59.293)">
          <g id="Group_542" data-name="Group 542" transform="translate(94.035 50.018)">
            <path id="Path_256" data-name="Path 256" d="M803.57,367.079a1.122,1.122,0,0,1-.829-.365,45.951,45.951,0,0,0-6.327-4.7,65.368,65.368,0,0,0-9.738-4.954l-.855-.347a1.119,1.119,0,1,1,.83-2.078l.851.345a66.514,66.514,0,0,1,10.092,5.133,48.221,48.221,0,0,1,6.721,5.01,1.123,1.123,0,0,1-.746,1.958Z" transform="translate(-785.117 -354.553)" fill="#c48e61"/>
          </g>
          <g id="Group_543" data-name="Group 543" transform="translate(93.098 78.469)">
            <path id="Path_257" data-name="Path 257" d="M795.4,386.951a1.1,1.1,0,0,1-.559-.151A69.139,69.139,0,0,0,785,382.147a1.119,1.119,0,0,1,.8-2.09,71.611,71.611,0,0,1,10.156,4.806,1.119,1.119,0,0,1-.562,2.088Z" transform="translate(-784.28 -379.983)" fill="#c48e61"/>
          </g>
          <g id="Group_544" data-name="Group 544" transform="translate(17.17 87.951)">
            <path id="Path_258" data-name="Path 258" d="M717.532,396.239a1.119,1.119,0,0,1-.424-2.155,91.227,91.227,0,0,1,15.6-4.725c.014,0,2.4-.472,4.858-.886a1.119,1.119,0,1,1,.371,2.207c-2.428.407-4.781.872-4.781.872a88.8,88.8,0,0,0-15.2,4.6A1.13,1.13,0,0,1,717.532,396.239Z" transform="translate(-716.412 -388.459)" fill="#c48e61"/>
          </g>
          <g id="Group_545" data-name="Group 545" transform="translate(105.802 63.361)">
            <path id="Path_259" data-name="Path 259" d="M801.16,371.895a1.108,1.108,0,0,1-.712-.257c-.785-.65-1.612-1.289-2.462-1.9h0s-.8-.534-1.838-1.2a1.119,1.119,0,0,1,1.213-1.882c1.069.691,1.9,1.241,1.9,1.241.925.664,1.794,1.336,2.617,2.016a1.119,1.119,0,0,1-.715,1.981Z" transform="translate(-795.634 -366.479)" fill="#c48e61"/>
          </g>
          <g id="Group_546" data-name="Group 546" transform="translate(95.04 57.66)">
            <path id="Path_260" data-name="Path 260" d="M794.133,366.988a1.112,1.112,0,0,1-.542-.14,69.566,69.566,0,0,0-6.887-3.314,1.118,1.118,0,1,1,.86-2.064,71.349,71.349,0,0,1,7.111,3.42,1.119,1.119,0,0,1-.542,2.1Z" transform="translate(-786.015 -361.384)" fill="#c48e61"/>
          </g>
          <g id="Group_547" data-name="Group 547" transform="translate(1.593 62.613)">
            <path id="Path_261" data-name="Path 261" d="M703.609,371.95a1.119,1.119,0,0,1-.714-1.981,51.162,51.162,0,0,1,5.53-3.988,1.119,1.119,0,1,1,1.185,1.9,48.852,48.852,0,0,0-5.289,3.814A1.115,1.115,0,0,1,703.609,371.95Z" transform="translate(-702.489 -365.81)" fill="#c48e61"/>
          </g>
          <g id="Group_548" data-name="Group 548" transform="translate(10.684 56.834)">
            <path id="Path_262" data-name="Path 262" d="M711.735,366.569a1.119,1.119,0,0,1-.52-2.11,83.912,83.912,0,0,1,8.164-3.737,1.119,1.119,0,0,1,.818,2.082,81.455,81.455,0,0,0-7.943,3.637A1.107,1.107,0,0,1,711.735,366.569Z" transform="translate(-710.615 -360.645)" fill="#c48e61"/>
          </g>
          <g id="Group_549" data-name="Group 549" transform="translate(23.081 21.811)">
            <path id="Path_263" data-name="Path 263" d="M723.374,336.648a1.679,1.679,0,0,1-.5-3.279q.953-.3,1.928-.584l3.257-.885c2.816-.714,5.714-1.316,8.641-1.8,1.754-.289,3.562-.54,5.371-.751a1.679,1.679,0,0,1,.387,3.335c-1.756.2-3.512.447-5.214.728-2.832.466-5.635,1.048-8.332,1.731l-3.2.869c-.6.175-1.216.363-1.828.555A1.684,1.684,0,0,1,723.374,336.648Z" transform="translate(-721.696 -329.34)" fill="#fff"/>
          </g>
          <g id="Group_550" data-name="Group 550" transform="translate(13.162 28.264)">
            <path id="Path_264" data-name="Path 264" d="M714.509,347.007a1.679,1.679,0,0,1-.715-3.2c1.815-.851,3.741-1.661,5.725-2.405l.107-.039.172-.064a107.365,107.365,0,0,1,36.9-6.192q.938,0,1.871.013c2.11.034,4.211.12,6.247.256a1.679,1.679,0,0,1-.225,3.35c-1.98-.134-4.023-.218-6.073-.25-.6-.009-1.211-.013-1.82-.013a104.011,104.011,0,0,0-35.745,5.988l-.162.059c-1.994.747-3.835,1.523-5.569,2.335A1.669,1.669,0,0,1,714.509,347.007Z" transform="translate(-712.83 -335.109)" fill="#fff"/>
          </g>
          <g id="Group_551" data-name="Group 551" transform="translate(34.987 71.491)">
            <path id="Path_265" data-name="Path 265" d="M786.326,381.707a1.72,1.72,0,0,1-.5-.075,107.388,107.388,0,0,0-31.445-4.53c-3.806,0-7.621.185-11.339.549q-1.156.114-2.3.25c-2.169.26-4.331.583-6.425.962a1.678,1.678,0,0,1-.6-3.3c2.16-.391,4.39-.726,6.627-.993q1.18-.14,2.371-.257c3.827-.375,7.752-.565,11.668-.565a110.8,110.8,0,0,1,32.442,4.68,1.679,1.679,0,0,1-.5,3.281Z" transform="translate(-732.338 -373.746)" fill="#fff"/>
          </g>
          <g id="Group_552" data-name="Group 552" transform="translate(38.913 78.692)">
            <path id="Path_266" data-name="Path 266" d="M779.337,386.359a1.7,1.7,0,0,1-.373-.042c-2.819-.642-6.253-1.247-6.286-1.252a113.331,113.331,0,0,0-18.714-1.527c-2.3,0-4.622.068-6.892.2-.464.028-.925.057-1.388.091-2.659.188-5.324.471-7.921.842a1.679,1.679,0,1,1-.474-3.324c2.675-.381,5.419-.672,8.156-.866q.708-.05,1.427-.093c2.339-.138,4.725-.207,7.092-.207a116.753,116.753,0,0,1,19.281,1.575c.157.027,3.561.628,6.462,1.286a1.678,1.678,0,0,1-.37,3.315Z" transform="translate(-735.847 -380.182)" fill="#fff"/>
          </g>
          <g id="Group_553" data-name="Group 553" transform="translate(43.029 85.903)">
            <path id="Path_267" data-name="Path 267" d="M773.374,391.677a1.729,1.729,0,0,1-.293-.025c-1.554-.274-3.138-.516-4.709-.72a116.839,116.839,0,0,0-17.173-.925c-3.29.065-6.6.268-9.818.608a1.678,1.678,0,1,1-.352-3.338c3.319-.349,6.718-.559,10.1-.626a120.075,120.075,0,0,1,17.671.954c1.622.209,3.256.46,4.86.742a1.678,1.678,0,0,1-.29,3.331Z" transform="translate(-739.526 -386.628)" fill="#fff"/>
          </g>
          <g id="Group_554" data-name="Group 554" transform="translate(19.981 42.677)">
            <path id="Path_268" data-name="Path 268" d="M720.6,357.1a1.678,1.678,0,0,1-.6-3.245l.372-.142c2.175-.765,4.408-1.454,6.679-2.064h.008c.077-.019.153-.04.229-.06h0a111.879,111.879,0,0,1,28.674-3.594,113.507,113.507,0,0,1,25.955,2.913c2.373.557,4.711,1.2,6.952,1.91a1.678,1.678,0,1,1-1.014,3.2c-2.159-.684-4.416-1.3-6.707-1.843a110.179,110.179,0,0,0-25.186-2.824,108.472,108.472,0,0,0-27.817,3.483h0l-.216.057c-2.193.587-4.348,1.253-6.407,1.977l-.331.126A1.676,1.676,0,0,1,720.6,357.1Z" transform="translate(-718.925 -347.991)" fill="#fff"/>
          </g>
          <g id="Group_555" data-name="Group 555" transform="translate(27.341 57.078)">
            <path id="Path_269" data-name="Path 269" d="M798.824,373.471a1.67,1.67,0,0,1-.747-.177c-11.743-5.851-26.972-9.074-42.884-9.074a112.972,112.972,0,0,0-19.667,1.692l-.25.045c-1.559.281-3.119.6-4.625.942q-1.542.354-3.041.746a1.678,1.678,0,0,1-.854-3.245q1.55-.41,3.146-.772c1.558-.358,3.172-.686,4.791-.977l.148-.027a116.53,116.53,0,0,1,20.353-1.761c16.422,0,32.183,3.347,44.381,9.427a1.678,1.678,0,0,1-.75,3.181Z" transform="translate(-725.504 -360.863)" fill="#fff"/>
          </g>
          <g id="Group_556" data-name="Group 556" transform="translate(31.074 64.289)">
            <path id="Path_270" data-name="Path 270" d="M794.689,378.291a1.669,1.669,0,0,1-.665-.138c-11.338-4.9-24.991-7.488-39.486-7.488a115.273,115.273,0,0,0-14.79.942,1.62,1.62,0,0,1-.323.077q-1.993.272-3.937.606c-1.528.266-3.077.572-4.607.91a1.678,1.678,0,0,1-.723-3.278c1.578-.348,3.177-.664,4.757-.937,1.112-.193,2.274-.376,3.459-.543a1.632,1.632,0,0,1,.341-.083,118.308,118.308,0,0,1,15.823-1.05c14.948,0,29.063,2.685,40.818,7.763a1.678,1.678,0,0,1-.667,3.219Z" transform="translate(-728.84 -367.309)" fill="#fff"/>
          </g>
          <g id="Group_557" data-name="Group 557" transform="translate(16.398 35.466)">
            <path id="Path_271" data-name="Path 271" d="M717.4,352.025a1.678,1.678,0,0,1-.589-3.25l4.981-1.863c.565-.189,1.077-.358,1.593-.52.556-.178,1.117-.349,1.682-.518a111.7,111.7,0,0,1,31.284-4.328,119.317,119.317,0,0,1,14.058.825c1.876.224,3.734.493,5.525.8a1.678,1.678,0,1,1-.566,3.308c-1.735-.3-3.537-.558-5.357-.776a116.139,116.139,0,0,0-13.66-.8,108.3,108.3,0,0,0-30.327,4.189c-.544.161-1.088.329-1.626.5q-.749.238-1.488.487l-4.925,1.842A1.668,1.668,0,0,1,717.4,352.025Z" transform="translate(-715.723 -341.546)" fill="#fff"/>
          </g>
          <g id="Group_558" data-name="Group 558" transform="translate(23.738 49.867)">
            <path id="Path_272" data-name="Path 272" d="M789.554,363.07a1.675,1.675,0,0,1-.538-.088,105.552,105.552,0,0,0-33.466-5.207,107.367,107.367,0,0,0-31.1,4.44,1.678,1.678,0,1,1-.985-3.208,110.745,110.745,0,0,1,32.081-4.588,108.966,108.966,0,0,1,34.543,5.384,1.679,1.679,0,0,1-.539,3.268Z" transform="translate(-722.283 -354.418)" fill="#fff"/>
          </g>
          <g id="Group_559" data-name="Group 559" transform="translate(63.859 0.263)">
            <path id="Path_273" data-name="Path 273" d="M760.214,312.383c-.027,0-.055,0-.082,0l-.941-.065a1.121,1.121,0,0,1-1.044-1.19,1.135,1.135,0,0,1,1.191-1.043l.955.067a1.119,1.119,0,0,1-.079,2.234Z" transform="translate(-758.145 -310.081)" fill="#adadad"/>
          </g>
          <g id="Group_560" data-name="Group 560" transform="translate(46.202)">
            <path id="Path_274" data-name="Path 274" d="M743.481,312.477a1.119,1.119,0,0,1-.091-2.234,121.071,121.071,0,0,1,17.821-.133,1.12,1.12,0,0,1,1.045,1.188,1.135,1.135,0,0,1-1.189,1.045,118.163,118.163,0,0,0-17.493.131C743.542,312.476,743.512,312.477,743.481,312.477Z" transform="translate(-742.363 -309.846)" fill="#adadad"/>
          </g>
          <g id="Group_561" data-name="Group 561" transform="translate(52.345 7.214)">
            <path id="Path_275" data-name="Path 275" d="M772.021,320.146a1.061,1.061,0,0,1-.2-.018c-1.473-.258-2.819-.46-4-.6a112.027,112.027,0,0,0-17.194-.977c-.554.012-1.105.023-1.656.027h-.005a1.119,1.119,0,0,1-.007-2.238c.538,0,1.079-.015,1.62-.027a115.45,115.45,0,0,1,17.519.995c1.2.14,2.592.347,4.111.615a1.119,1.119,0,0,1-.194,2.22Z" transform="translate(-747.853 -316.293)" fill="#adadad"/>
          </g>
          <g id="Group_562" data-name="Group 562" transform="translate(80.121 9.769)">
            <path id="Path_276" data-name="Path 276" d="M786.319,324.5a1.108,1.108,0,0,1-.394-.073,89.675,89.675,0,0,0-11.756-3.5l-.609-.138a1.118,1.118,0,1,1,.479-2.185l.635.142a92.131,92.131,0,0,1,12.04,3.59,1.119,1.119,0,0,1-.395,2.166Z" transform="translate(-772.681 -318.577)" fill="#adadad"/>
          </g>
          <g id="Group_563" data-name="Group 563" transform="translate(24.088 7.443)">
            <path id="Path_277" data-name="Path 277" d="M723.715,323.072a1.119,1.119,0,0,1-.331-2.187,103.243,103.243,0,0,1,18.828-3.873c.054-.009,2.142-.308,5.082-.511a1.137,1.137,0,0,1,1.194,1.038,1.121,1.121,0,0,1-1.038,1.195c-2.851.2-4.932.493-4.952.5a101.141,101.141,0,0,0-18.451,3.792A1.143,1.143,0,0,1,723.715,323.072Z" transform="translate(-722.596 -316.499)" fill="#adadad"/>
          </g>
          <g id="Group_564" data-name="Group 564" transform="translate(66.161 14.903)">
            <path id="Path_278" data-name="Path 278" d="M789.661,331.885a1.113,1.113,0,0,1-.421-.083,93.96,93.96,0,0,0-22.729-5.866c-.008,0-2.344-.282-5.286-.535a1.118,1.118,0,0,1-1.018-1.211,1.1,1.1,0,0,1,1.211-1.018c2.982.256,5.353.542,5.378.544a96.2,96.2,0,0,1,23.286,6.012,1.119,1.119,0,0,1-.421,2.156Z" transform="translate(-760.202 -323.166)" fill="#adadad"/>
          </g>
          <g id="Group_565" data-name="Group 565" transform="translate(40.326 14.413)">
            <path id="Path_279" data-name="Path 279" d="M738.228,326a1.119,1.119,0,0,1-.148-2.228,119.752,119.752,0,0,1,19.143-1,1.119,1.119,0,1,1-.064,2.238,116.545,116.545,0,0,0-18.781.976A1.159,1.159,0,0,1,738.228,326Z" transform="translate(-737.11 -322.728)" fill="#adadad"/>
          </g>
          <g id="Group_566" data-name="Group 566" transform="translate(12.277 16.19)">
            <path id="Path_280" data-name="Path 280" d="M713.159,334.019a1.119,1.119,0,0,1-.5-2.121,86.144,86.144,0,0,1,20.353-6.921s2.163-.471,3.093-.64a1.118,1.118,0,1,1,.4,2.2c-.908.167-3.021.627-3.023.628a83.829,83.829,0,0,0-19.829,6.738A1.1,1.1,0,0,1,713.159,334.019Z" transform="translate(-712.039 -324.317)" fill="#adadad"/>
          </g>
          <g id="Group_567" data-name="Group 567" transform="translate(76.558 23.424)">
            <path id="Path_281" data-name="Path 281" d="M800.57,344.512a1.1,1.1,0,0,1-.627-.194,68.379,68.379,0,0,0-17.587-8.309A88.169,88.169,0,0,0,770.419,333a1.119,1.119,0,0,1,.389-2.2,90.294,90.294,0,0,1,12.24,3.081,70.62,70.62,0,0,1,18.152,8.588,1.118,1.118,0,0,1-.631,2.043Z" transform="translate(-769.495 -330.782)" fill="#adadad"/>
          </g>
          <g id="Group_568" data-name="Group 568" transform="translate(47.95 21.615)">
            <path id="Path_282" data-name="Path 282" d="M766.8,332.206a1.065,1.065,0,0,1-.133-.007,115.746,115.746,0,0,0-12.814-.8c-.02,0-2.841,0-5.754.12l-3,.15a1.119,1.119,0,0,1-.112-2.235l3.007-.15c2.97-.118,5.832-.122,5.861-.122a118.646,118.646,0,0,1,13.072.81,1.119,1.119,0,0,1-.131,2.23Z" transform="translate(-743.925 -329.166)" fill="#adadad"/>
          </g>
          <g id="Group_569" data-name="Group 569" transform="translate(3.706 28.179)">
            <path id="Path_283" data-name="Path 283" d="M705.5,345.143a1.119,1.119,0,0,1-.667-2.018,64.35,64.35,0,0,1,14.9-8.015,1.118,1.118,0,0,1,.812,2.084,62.15,62.15,0,0,0-14.384,7.73A1.113,1.113,0,0,1,705.5,345.143Z" transform="translate(-704.378 -335.033)" fill="#adadad"/>
          </g>
          <g id="Group_570" data-name="Group 570" transform="translate(90.083 34.148)">
            <path id="Path_284" data-name="Path 284" d="M803.969,354.335a1.113,1.113,0,0,1-.746-.285c-5.191-4.644-12.41-8.622-20.88-11.5a1.118,1.118,0,0,1,.72-2.117c8.751,2.976,16.239,7.109,21.652,11.953a1.119,1.119,0,0,1-.746,1.952Z" transform="translate(-781.585 -340.368)" fill="#adadad"/>
          </g>
          <g id="Group_571" data-name="Group 571" transform="translate(69.261 29.575)">
            <path id="Path_285" data-name="Path 285" d="M776.946,340.785a1.124,1.124,0,0,1-.264-.031,103.969,103.969,0,0,0-10.553-1.972q-1.074-.144-2.165-.27a1.118,1.118,0,1,1,.256-2.222c.74.084,1.477.175,2.207.274a105.833,105.833,0,0,1,10.781,2.016,1.118,1.118,0,0,1-.262,2.205Z" transform="translate(-762.973 -336.281)" fill="#adadad"/>
          </g>
          <g id="Group_572" data-name="Group 572" transform="translate(105.061 48.361)">
            <path id="Path_286" data-name="Path 286" d="M802.854,360.459a1.112,1.112,0,0,1-.76-.3,46.228,46.228,0,0,0-6.6-5.027,1.12,1.12,0,1,1,1.2-1.891,48.5,48.5,0,0,1,6.921,5.274,1.118,1.118,0,0,1-.759,1.94Z" transform="translate(-794.972 -353.071)" fill="#adadad"/>
          </g>
          <g id="Group_573" data-name="Group 573" transform="translate(80.879 38.753)">
            <path id="Path_287" data-name="Path 287" d="M795.736,354.6a1.1,1.1,0,0,1-.542-.141q-1.22-.676-2.506-1.316a98.508,98.508,0,0,0-9.2-3.822,91.876,91.876,0,0,0-9.257-2.624,1.119,1.119,0,0,1,.5-2.182,94.176,94.176,0,0,1,9.493,2.692,98.474,98.474,0,0,1,9.464,3.931q1.333.661,2.6,1.364a1.119,1.119,0,0,1-.545,2.1Z" transform="translate(-773.357 -344.484)" fill="#adadad"/>
          </g>
          <g id="Group_574" data-name="Group 574" transform="translate(0 49.238)">
            <path id="Path_288" data-name="Path 288" d="M702.184,360.365a1.118,1.118,0,0,1-.757-1.941,47.288,47.288,0,0,1,5.563-4.376,1.119,1.119,0,1,1,1.254,1.853,45.039,45.039,0,0,0-5.3,4.169A1.11,1.11,0,0,1,702.184,360.365Z" transform="translate(-701.065 -353.856)" fill="#adadad"/>
          </g>
          <g id="Group_575" data-name="Group 575" transform="translate(104.152 69.407)">
            <path id="Path_289" data-name="Path 289" d="M799.581,377.048a1.116,1.116,0,0,1-.672-.226c-1.035-.78-2.14-1.543-3.283-2.27l-.951-.609a1.119,1.119,0,1,1,1.209-1.883l.946.606c1.188.755,2.343,1.553,3.425,2.369a1.119,1.119,0,0,1-.673,2.013Z" transform="translate(-794.16 -371.883)" fill="#adadad"/>
          </g>
          <g id="Group_576" data-name="Group 576" transform="translate(3.368 62.801)">
            <path id="Path_290" data-name="Path 290" d="M705.2,377.75a1.119,1.119,0,0,1-.674-2.013,65.687,65.687,0,0,1,17.468-9.106s.6-.212,1.769-.6a1.119,1.119,0,1,1,.7,2.126c-1.128.37-1.707.576-1.715.578a63.533,63.533,0,0,0-16.873,8.785A1.114,1.114,0,0,1,705.2,377.75Z" transform="translate(-704.076 -365.978)" fill="#adadad"/>
          </g>
          <g id="Group_577" data-name="Group 577" transform="translate(100.385 74.514)">
            <path id="Path_291" data-name="Path 291" d="M797.621,382.033a1.115,1.115,0,0,1-.618-.188,58.477,58.477,0,0,0-5.6-3.282,1.119,1.119,0,1,1,1.025-1.989,60.38,60.38,0,0,1,5.819,3.41,1.119,1.119,0,0,1-.622,2.05Z" transform="translate(-790.793 -376.448)" fill="#adadad"/>
          </g>
          <g id="Group_578" data-name="Group 578" transform="translate(14.609 68.912)">
            <path id="Path_292" data-name="Path 292" d="M715.244,377.7a1.119,1.119,0,0,1-.457-2.14c1.705-.763,4.047-1.645,4.146-1.682,2.287-.879,4.7-1.687,7.166-2.4a1.119,1.119,0,0,1,.619,2.15c-2.4.691-4.755,1.478-6.99,2.337-.032.012-2.384.9-4.028,1.633A1.141,1.141,0,0,1,715.244,377.7Z" transform="translate(-714.123 -371.44)" fill="#adadad"/>
          </g>
          <g id="Group_579" data-name="Group 579" transform="translate(5.731 75.678)">
            <path id="Path_293" data-name="Path 293" d="M707.312,381.9a1.12,1.12,0,0,1-.536-2.106c1.136-.751,2.323-1.478,3.529-2.158a1.119,1.119,0,0,1,1.1,1.949c-1.189.671-2.357,1.386-3.473,2.128A1.119,1.119,0,0,1,707.312,381.9Z" transform="translate(-706.188 -377.488)" fill="#adadad"/>
          </g>
          <g id="Group_580" data-name="Group 580" transform="translate(8.738 75.14)">
            <path id="Path_294" data-name="Path 294" d="M710,387.293a1.119,1.119,0,0,1-.561-2.088,77.352,77.352,0,0,1,17.211-7.159c.034-.009,2.513-.641,4.016-1.006a1.119,1.119,0,1,1,.528,2.174c-1.495.362-3.958.991-3.958.991a74.993,74.993,0,0,0-16.679,6.938A1.111,1.111,0,0,1,710,387.293Z" transform="translate(-708.875 -377.008)" fill="#adadad"/>
          </g>
          <g id="Group_581" data-name="Group 581" transform="translate(12.485 84.357)">
            <path id="Path_295" data-name="Path 295" d="M713.346,391.515a1.118,1.118,0,0,1-.5-2.121c1.391-.687,2.842-1.345,4.315-1.958.017-.007,3.753-1.486,5.4-2.117a1.119,1.119,0,1,1,.8,2.089c-1.638.629-5.356,2.1-5.358,2.1-1.411.587-2.818,1.225-4.167,1.891A1.114,1.114,0,0,1,713.346,391.515Z" transform="translate(-712.225 -385.246)" fill="#adadad"/>
          </g>
          <g id="Group_582" data-name="Group 582" transform="translate(81.86 89.409)">
            <path id="Path_296" data-name="Path 296" d="M788.146,396.084a1.13,1.13,0,0,1-.423-.083c-1.331-.545-2.717-1.066-4.116-1.549-.021-.008-4.836-1.541-6.519-1.974l-2.009-.513a1.119,1.119,0,0,1,.55-2.169l2.02.517c1.74.448,6.463,1.952,6.664,2.015,1.463.507,2.886,1.043,4.256,1.6a1.119,1.119,0,0,1-.423,2.155Z" transform="translate(-774.235 -389.761)" fill="#adadad"/>
          </g>
          <g id="Group_583" data-name="Group 583" transform="translate(76.685 95.524)">
            <path id="Path_297" data-name="Path 297" d="M782.685,400.457a1.146,1.146,0,0,1-.342-.054,95.954,95.954,0,0,0-11.819-2.955,1.119,1.119,0,0,1,.408-2.2,98.393,98.393,0,0,1,12.1,3.025,1.119,1.119,0,0,1-.342,2.184Z" transform="translate(-769.609 -395.228)" fill="#adadad"/>
          </g>
          <g id="Group_584" data-name="Group 584" transform="translate(47.706 93.663)">
            <path id="Path_298" data-name="Path 298" d="M765.811,396.491a1.154,1.154,0,0,1-.123-.007,118.515,118.515,0,0,0-18.395-.544l-2.39.17a1.119,1.119,0,0,1-.159-2.232l2.414-.171a120,120,0,0,1,18.772.553,1.119,1.119,0,0,1-.12,2.231Z" transform="translate(-743.706 -393.564)" fill="#adadad"/>
          </g>
          <g id="Group_585" data-name="Group 585" transform="translate(23.192 94.757)">
            <path id="Path_299" data-name="Path 299" d="M722.914,400.539a1.119,1.119,0,0,1-.342-2.184,101.125,101.125,0,0,1,16.887-3.8,1.119,1.119,0,1,1,.307,2.216,98.991,98.991,0,0,0-16.509,3.716A1.144,1.144,0,0,1,722.914,400.539Z" transform="translate(-721.795 -394.541)" fill="#adadad"/>
          </g>
          <g id="Group_586" data-name="Group 586" transform="translate(57.757 100.888)">
            <path id="Path_300" data-name="Path 300" d="M776.4,404.856a1.08,1.08,0,0,1-.245-.027,110.534,110.534,0,0,0-22.361-2.57,1.119,1.119,0,0,1,.017-2.237h.018a112.729,112.729,0,0,1,22.814,2.625,1.118,1.118,0,0,1-.243,2.21Z" transform="translate(-752.691 -400.022)" fill="#adadad"/>
          </g>
          <g id="Group_587" data-name="Group 587" transform="translate(31.482 101.104)">
            <path id="Path_301" data-name="Path 301" d="M730.329,404.833a1.119,1.119,0,0,1-.183-2.224,110.7,110.7,0,0,1,17.146-2.393,1.119,1.119,0,1,1,.138,2.234,108.438,108.438,0,0,0-16.857,2.356A1.056,1.056,0,0,1,730.329,404.833Z" transform="translate(-729.205 -400.215)" fill="#adadad"/>
          </g>
          <g id="Group_588" data-name="Group 588" transform="translate(47.079 108.077)">
            <path id="Path_302" data-name="Path 302" d="M744.265,409.01a1.119,1.119,0,0,1-.082-2.234,121.255,121.255,0,0,1,17.83,0,1.118,1.118,0,0,1,1.034,1.2,1.105,1.105,0,0,1-1.2,1.034,119.3,119.3,0,0,0-17.5,0C744.318,409.009,744.291,409.01,744.265,409.01Z" transform="translate(-743.146 -406.448)" fill="#adadad"/>
          </g>
          <g id="Group_589" data-name="Group 589" transform="translate(0.453 51.122)">
            <path id="Path_303" data-name="Path 303" d="M702.589,366.963a1.115,1.115,0,0,1-1.119-1.114v-.01a1.118,1.118,0,0,1,.372-.833,54.451,54.451,0,0,1,12.309-8.111,23.809,23.809,0,0,1,2.631-1.262,1.119,1.119,0,1,1,.887,2.054,21.748,21.748,0,0,0-2.379,1.132c-.032.02-.072.044-.106.06a52.4,52.4,0,0,0-11.8,7.752A1.118,1.118,0,0,1,702.589,366.963Z" transform="translate(-701.47 -355.54)" fill="#adadad"/>
          </g>
          <g id="Group_590" data-name="Group 590" transform="translate(0.474 40.139)">
            <path id="Path_304" data-name="Path 304" d="M702.608,353.7a1.119,1.119,0,0,1-.746-1.952,47.427,47.427,0,0,1,8.179-5.872,1.119,1.119,0,0,1,1.121,1.937,45.184,45.184,0,0,0-7.808,5.6A1.115,1.115,0,0,1,702.608,353.7Z" transform="translate(-701.489 -345.723)" fill="#adadad"/>
          </g>
          <g id="Group_591" data-name="Group 591" transform="translate(26.576 81.454)">
            <path id="Path_305" data-name="Path 305" d="M725.938,386.517a1.119,1.119,0,0,1-.3-2.2c1.856-.516,4.383-1.115,6.935-1.646a1.119,1.119,0,1,1,.454,2.192c-2.505.519-4.98,1.107-6.791,1.611A1.165,1.165,0,0,1,725.938,386.517Z" transform="translate(-724.82 -382.651)" fill="#adadad"/>
          </g>
          <g id="Group_592" data-name="Group 592" transform="translate(87.325 83.734)">
            <path id="Path_306" data-name="Path 306" d="M792.261,391.592a1.11,1.11,0,0,1-.493-.115,79.576,79.576,0,0,0-11.859-4.6,1.119,1.119,0,0,1,.66-2.139,81.844,81.844,0,0,1,12.189,4.73,1.118,1.118,0,0,1-.5,2.121Z" transform="translate(-779.12 -384.689)" fill="#adadad"/>
          </g>
          <g id="Group_593" data-name="Group 593" transform="translate(8.52 45.525)">
            <path id="Path_307" data-name="Path 307" d="M709.8,354.519a1.118,1.118,0,0,1-.567-2.084c1.338-.783,2.045-1.166,3.291-1.781a1.118,1.118,0,1,1,.99,2.006c-1.19.589-1.867.954-3.15,1.707A1.126,1.126,0,0,1,709.8,354.519Z" transform="translate(-708.681 -350.537)" fill="#adadad"/>
          </g>
        </g>
        <g id="Group_24972" data-name="Group 24972" transform="translate(0 118.53)">
          <g id="Group_595" data-name="Group 595" transform="translate(0 4.349)">
            <path id="Path_308" data-name="Path 308" d="M491.491,358.128l.069-.167a7.229,7.229,0,0,0,.347-1.042c.083-.336.158-.7.228-1.1s.108-.813.152-1.253c.038-.491.054-.926.054-1.327a4.944,4.944,0,0,0-.461-2.2,4.2,4.2,0,0,0-1.364-1.565,5.2,5.2,0,0,0-1.507-.75,7.618,7.618,0,0,0-2.947-.215,6.307,6.307,0,0,0-1,.189,6.955,6.955,0,0,0-.915.313c-.276.115-.629.288-1.091.537l-.226.126.747,1.646.271-.179a5.808,5.808,0,0,1,1.6-.764,5.217,5.217,0,0,1,2.894-.021,3.736,3.736,0,0,1,1.018.465,2.465,2.465,0,0,1,.835.986,2.991,2.991,0,0,1,.226,1.186,18.412,18.412,0,0,1-.113,2.282,7.8,7.8,0,0,1-.212,1.137H478.683l-.006-7.962h-1.9l.005,7.962H471.4l-.006-8.787h-1.9v.824h-.618a9.524,9.524,0,0,0-2.714.357,6.785,6.785,0,0,0-2.108,1,4.535,4.535,0,0,0-1.381,1.544,4.035,4.035,0,0,0-.478,1.938,4.134,4.134,0,0,0,.581,2.218,4.6,4.6,0,0,0,1.522,1.51,6.58,6.58,0,0,0,2.135.85,11.1,11.1,0,0,0,2.449.261h22.607Zm-23.138-7.963H469.5v6.246h-1.149a6.084,6.084,0,0,1-1.705-.227,4.448,4.448,0,0,1-1.362-.627,2.8,2.8,0,0,1-.87-.965,2.588,2.588,0,0,1-.32-1.3,2.377,2.377,0,0,1,.341-1.245,3.147,3.147,0,0,1,.938-.98,5.206,5.206,0,0,1,1.381-.656,5.429,5.429,0,0,1,1.6-.244" transform="translate(-462.198 -347.624)" fill="#fff"/>
          </g>
          <g id="Group_596" data-name="Group 596" transform="translate(30.235 5.173)">
            <path id="Path_309" data-name="Path 309" d="M491.954,348.361l.006,10a5.6,5.6,0,0,1-.044.65,1.364,1.364,0,0,1-.142.52.743.743,0,0,1-.282.309,1.007,1.007,0,0,1-.545.113,2.576,2.576,0,0,1-.765-.178l-.238-.087-.72,1.589.277.1a4,4,0,0,0,1.369.293,3.565,3.565,0,0,0,1.485-.266,2.217,2.217,0,0,0,.947-.767,2.882,2.882,0,0,0,.445-1.085,6.081,6.081,0,0,0,.107-1.191l-.006-10Z" transform="translate(-489.223 -348.361)" fill="#fff"/>
          </g>
          <g id="Group_597" data-name="Group 597" transform="translate(37.321 0.556)">
            <path id="Path_310" data-name="Path 310" d="M515.515,345.952h1.874v-1.718h-3.77l.006,12.58H509.7c.059-.3.121-.671.185-1.131a14.452,14.452,0,0,0,.135-2.037,4.932,4.932,0,0,0-.466-2.205,4.135,4.135,0,0,0-1.36-1.565,5.145,5.145,0,0,0-1.507-.749,5.815,5.815,0,0,0-1.786-.275,11.166,11.166,0,0,0-1.16.06,6.326,6.326,0,0,0-.99.188,7.091,7.091,0,0,0-.921.314,12.107,12.107,0,0,0-1.091.537l-.233.125.764,1.646.266-.179a5.6,5.6,0,0,1,1.592-.763,5.213,5.213,0,0,1,2.892-.022,3.734,3.734,0,0,1,1.021.465,2.514,2.514,0,0,1,.838.986,3.07,3.07,0,0,1,.223,1.187,18.336,18.336,0,0,1-.113,2.281,8.829,8.829,0,0,1-.212,1.137H497.458l0-12.58h-1.9l.006,14.3h19.956Z" transform="translate(-495.557 -344.234)" fill="#fff"/>
          </g>
          <g id="Group_598" data-name="Group 598" transform="translate(60.661 0.556)">
            <rect id="Rectangle_145" data-name="Rectangle 145" width="1.901" height="14.297" fill="#fff"/>
          </g>
          <g id="Group_599" data-name="Group 599" transform="translate(68.147 4.349)">
            <path id="Path_311" data-name="Path 311" d="M532.3,347.624h-1.9v.824h-.613a9.436,9.436,0,0,0-2.706.357,6.622,6.622,0,0,0-2.113,1,4.541,4.541,0,0,0-1.383,1.544,4.032,4.032,0,0,0-.474,1.938,4.114,4.114,0,0,0,.58,2.218,4.588,4.588,0,0,0,1.521,1.51,6.575,6.575,0,0,0,2.134.85,11.094,11.094,0,0,0,2.448.261h2.515Zm-3.039,2.541h1.142v6.246h-1.142a6.1,6.1,0,0,1-1.707-.227,4.423,4.423,0,0,1-1.359-.627,2.837,2.837,0,0,1-.873-.965,2.613,2.613,0,0,1-.313-1.3,2.358,2.358,0,0,1,.34-1.245,3.124,3.124,0,0,1,.932-.98,5.242,5.242,0,0,1,1.383-.656,5.416,5.416,0,0,1,1.6-.244" transform="translate(-523.11 -347.624)" fill="#fff"/>
          </g>
          <g id="Group_600" data-name="Group 600" transform="translate(78.081 5.173)">
            <path id="Path_312" data-name="Path 312" d="M536.513,359.552a6.076,6.076,0,0,0,.108-1.191l-.006-10H534.72l.006,10a5.542,5.542,0,0,1-.044.649,1.361,1.361,0,0,1-.142.52.75.75,0,0,1-.282.31,1.012,1.012,0,0,1-.545.113,2.578,2.578,0,0,1-.765-.178l-.238-.088-.72,1.59.276.1a4.005,4.005,0,0,0,1.37.293,3.58,3.58,0,0,0,1.484-.266,2.217,2.217,0,0,0,.948-.769,2.835,2.835,0,0,0,.445-1.084" transform="translate(-531.99 -348.361)" fill="#fff"/>
          </g>
          <g id="Group_601" data-name="Group 601" transform="translate(85.167 0.556)">
            <path id="Path_313" data-name="Path 313" d="M571.2,356.814h-4.484l-.006-12.58h-1.9l.006,12.58h-5.2l0-7.963h-1.9l.005,7.963h-5.255c.062-.3.12-.671.185-1.131a14.443,14.443,0,0,0,.135-2.037,4.936,4.936,0,0,0-.465-2.205,4.146,4.146,0,0,0-1.361-1.565,5.171,5.171,0,0,0-1.5-.749,5.853,5.853,0,0,0-1.788-.275,11.167,11.167,0,0,0-1.161.06,6.4,6.4,0,0,0-.991.188,7.153,7.153,0,0,0-.921.314c-.276.114-.627.288-1.089.537l-.232.125.764,1.646.265-.179a5.655,5.655,0,0,1,1.594-.763,5.215,5.215,0,0,1,2.892-.022,3.707,3.707,0,0,1,1.019.465,2.506,2.506,0,0,1,.839.986,3.088,3.088,0,0,1,.223,1.187,18.38,18.38,0,0,1-.113,2.281,8.914,8.914,0,0,1-.212,1.137h-10.32l-.006-12.58h-1.9l.006,14.3H573.1l-.005-12.58h1.874v-1.718h-3.771Z" transform="translate(-538.323 -344.234)" fill="#fff"/>
          </g>
          <g id="Group_602" data-name="Group 602" transform="translate(126.068 4.349)">
            <path id="Path_314" data-name="Path 314" d="M596.539,350.7a6.035,6.035,0,0,0-1.885-1.084,6.9,6.9,0,0,0-2.362-.389,6.252,6.252,0,0,0-2.274.4,5.76,5.76,0,0,0-1.826,1.111,5.4,5.4,0,0,0-1.214,1.646,4.522,4.522,0,0,0-.454,2.01,4.613,4.613,0,0,0,.395,2.021H584.08l-.005-8.787h-1.9v.824h-.613a9.437,9.437,0,0,0-2.707.357,6.63,6.63,0,0,0-2.114,1,4.538,4.538,0,0,0-1.382,1.544,4.029,4.029,0,0,0-.476,1.938,4.112,4.112,0,0,0,.58,2.218,4.6,4.6,0,0,0,1.519,1.51,6.6,6.6,0,0,0,2.136.85,11.092,11.092,0,0,0,2.448.261h6.718a5.729,5.729,0,0,0,1.685.986,6.46,6.46,0,0,0,2.328.413,6.833,6.833,0,0,0,2.33-.38,5.861,5.861,0,0,0,1.881-1.066,5.244,5.244,0,0,0,1.272-1.62,4.606,4.606,0,0,0,.466-2.07,4.732,4.732,0,0,0-.456-2.059,5.218,5.218,0,0,0-1.252-1.636m-1.321,1.229a3.173,3.173,0,0,1,.829,1.083,3.236,3.236,0,0,1,.3,1.382,3.031,3.031,0,0,1-.3,1.365,3.314,3.314,0,0,1-.83,1.074,3.881,3.881,0,0,1-1.278.714,4.944,4.944,0,0,1-1.638.266,4.172,4.172,0,0,1-1.554-.282,4,4,0,0,1-1.229-.742,3.28,3.28,0,0,1-.8-1.09,3.116,3.116,0,0,1-.292-1.306,3.164,3.164,0,0,1,.287-1.316,3.462,3.462,0,0,1,.807-1.111,3.851,3.851,0,0,1,1.214-.747,4.3,4.3,0,0,1,1.569-.276,5.023,5.023,0,0,1,1.638.258,4.052,4.052,0,0,1,1.283.727m-14.182-1.761h1.142v6.246h-1.142a6.1,6.1,0,0,1-1.707-.227,4.416,4.416,0,0,1-1.359-.627,2.823,2.823,0,0,1-.873-.965,2.611,2.611,0,0,1-.314-1.3,2.357,2.357,0,0,1,.34-1.245,3.117,3.117,0,0,1,.932-.98,5.258,5.258,0,0,1,1.381-.656,5.441,5.441,0,0,1,1.6-.244" transform="translate(-574.882 -347.624)" fill="#fff"/>
          </g>
          <g id="Group_603" data-name="Group 603" transform="translate(151.301 0.555)">
            <path id="Path_315" data-name="Path 315" d="M616.786,344.233l.009,12.576h-5.56l2.691-5.654a1.173,1.173,0,0,0-.182-.129,10.648,10.648,0,0,0-2.9-1.6,8.623,8.623,0,0,0-5.9-.008.4.4,0,0,0-.1.033,9.487,9.487,0,0,0-2.922,1.665l-.018.026a.078.078,0,0,0-.034.017l2.577,5.654h-5.111V344.233h-1.905l.009,14.3h21.247V345.949h1.879v-1.716Zm-10.2,12.576-2.4-5.094a6.6,6.6,0,0,1,1.638-.793v-.009a5.9,5.9,0,0,1,3.129-.242,8.526,8.526,0,0,1,1.112.319,10.3,10.3,0,0,1,1.026.441c.206.1.379.206.507.284l-2.422,5.094Z" transform="translate(-597.436 -344.233)" fill="#fff"/>
          </g>
          <g id="Group_604" data-name="Group 604" transform="translate(175.942 0.556)">
            <rect id="Rectangle_146" data-name="Rectangle 146" width="1.897" height="14.297" fill="#fff"/>
          </g>
          <g id="Group_605" data-name="Group 605" transform="translate(194.738 0)">
            <path id="Path_316" data-name="Path 316" d="M640.985,346.119h-2.806v-.167c0-.244.065-.336.113-.379.032-.027.175-.12.629-.12h1.458v-1.716h-1.588a2.539,2.539,0,0,0-1.89.656H636.9a2.482,2.482,0,0,0-.635,1.8v1.641h4.723Z" transform="translate(-636.262 -343.737)" fill="#fff"/>
          </g>
          <g id="Group_606" data-name="Group 606" transform="translate(183.423 0.55)">
            <path id="Path_317" data-name="Path 317" d="M670.72,345.948H672.6v-1.719h-3.781l.005,12.58h-3.891c.038-.222.088-.492.138-.822a10.463,10.463,0,0,0,.1-1.512,9.681,9.681,0,0,0-.234-2.13,6.642,6.642,0,0,0-.811-2.009,5.408,5.408,0,0,0-1.014-1.22,6.915,6.915,0,0,0-1.43-.986,8.64,8.64,0,0,0-1.782-.687,8.358,8.358,0,0,0-2.086-.251,11.066,11.066,0,0,0-2.7.309,17.178,17.178,0,0,0-2.621.943l-.271.125.835,1.56.232-.109a17.149,17.149,0,0,1,2-.784,6.84,6.84,0,0,1,2.069-.31,7.517,7.517,0,0,1,3.277.639,4.136,4.136,0,0,1,1.891,1.735,5.438,5.438,0,0,1,.59,1.56,9.473,9.473,0,0,1,.158,1.836,8.4,8.4,0,0,1-.1,1.225c-.056.374-.1.66-.154.893H661.2c.016-.1.037-.216.065-.369a7.883,7.883,0,0,0,.093-1.224,5.722,5.722,0,0,0-.267-1.8,3.908,3.908,0,0,0-.834-1.439,3.97,3.97,0,0,0-1.359-.937,4.646,4.646,0,0,0-1.815-.33,4.7,4.7,0,0,0-1.826.33,3.9,3.9,0,0,0-1.371.938,3.939,3.939,0,0,0-.856,1.434,5.5,5.5,0,0,0-.28,1.809,6.377,6.377,0,0,0,.119,1.241q.04.213.064.352h-4.913l-.006-7.962h-1.9l.006,7.962h-5.4l-.006-7.962h-1.9l.006,7.962h-3.489l-.006-8.787h-1.9v.825h-.617a9.519,9.519,0,0,0-2.714.357,6.774,6.774,0,0,0-2.108,1,4.549,4.549,0,0,0-1.383,1.544,4.034,4.034,0,0,0-.474,1.938,4.112,4.112,0,0,0,.58,2.217,4.6,4.6,0,0,0,1.521,1.51,6.57,6.57,0,0,0,2.135.85,11.083,11.083,0,0,0,2.449.26h19.246l15.239-.006h3.408Zm-11.257,9.274a6.2,6.2,0,0,1-.1,1.122c-.027.2-.054.352-.081.471h-4.454c-.026-.124-.054-.286-.092-.488a6.85,6.85,0,0,1-.086-1.105,4.023,4.023,0,0,1,.157-1.158,2.514,2.514,0,0,1,.461-.883,1.945,1.945,0,0,1,.742-.554,2.528,2.528,0,0,1,1.073-.2,2.351,2.351,0,0,1,1.024.2,2.1,2.1,0,0,1,.73.569,2.341,2.341,0,0,1,.461.884,3.8,3.8,0,0,1,.162,1.141M632.3,350.568h1.149v6.246H632.3a6.1,6.1,0,0,1-1.707-.227,4.433,4.433,0,0,1-1.359-.628,2.834,2.834,0,0,1-.873-.964,2.588,2.588,0,0,1-.319-1.3,2.377,2.377,0,0,1,.341-1.245,3.19,3.19,0,0,1,.936-.98,5.247,5.247,0,0,1,1.383-.656,5.409,5.409,0,0,1,1.6-.244" transform="translate(-626.148 -344.229)" fill="#fff"/>
          </g>
          <g id="Group_607" data-name="Group 607" transform="translate(231.384 0.551)">
            <rect id="Rectangle_147" data-name="Rectangle 147" width="1.895" height="14.297" fill="#fff"/>
          </g>
          <g id="Group_608" data-name="Group 608" transform="translate(0.282 23.729)">
            <path id="Path_318" data-name="Path 318" d="M465.646,373.761a4.787,4.787,0,0,1-.928-.088,5.417,5.417,0,0,1-.86-.238,4.441,4.441,0,0,1-.753-.357,3.4,3.4,0,0,1-.6-.446c-.067-.067-.076-.13-.026-.188l.779-.9c.058-.067.117-.072.176-.013a4.6,4.6,0,0,0,.459.327,3.752,3.752,0,0,0,.553.29,4.273,4.273,0,0,0,.621.207,2.816,2.816,0,0,0,.69.082,1.821,1.821,0,0,0,1.187-.346,1.092,1.092,0,0,0,.421-.885.961.961,0,0,0-.339-.76,2.434,2.434,0,0,0-1.218-.421l-.452-.063a3.541,3.541,0,0,1-1.908-.772,2.118,2.118,0,0,1-.666-1.664,2.688,2.688,0,0,1,.2-1.055,2.279,2.279,0,0,1,.578-.817,2.591,2.591,0,0,1,.91-.52,3.679,3.679,0,0,1,1.2-.182,4.932,4.932,0,0,1,1.526.233,4.126,4.126,0,0,1,1.237.621.123.123,0,0,1,.025.176l-.6.93a.118.118,0,0,1-.176.037,4.589,4.589,0,0,0-1.017-.5,3.207,3.207,0,0,0-1.029-.163,1.414,1.414,0,0,0-1,.32,1.071,1.071,0,0,0-.346.822.917.917,0,0,0,.352.734,2.474,2.474,0,0,0,1.217.421l.452.063a3.475,3.475,0,0,1,1.9.773,2.185,2.185,0,0,1,.652,1.7,2.746,2.746,0,0,1-.2,1.055,2.174,2.174,0,0,1-.608.841,2.964,2.964,0,0,1-1.01.553,4.43,4.43,0,0,1-1.394.2" transform="translate(-462.45 -364.947)" fill="#fff"/>
          </g>
          <g id="Group_609" data-name="Group 609" transform="translate(8.111 26.215)">
            <path id="Path_319" data-name="Path 319" d="M473.327,373.359a.111.111,0,0,1-.125-.125v-.44h-.012a1.509,1.509,0,0,1-.64.508,2.578,2.578,0,0,1-1.067.195,2.684,2.684,0,0,1-.785-.113,1.86,1.86,0,0,1-.646-.339,1.623,1.623,0,0,1-.439-.572,1.905,1.905,0,0,1-.163-.821,1.67,1.67,0,0,1,.646-1.457,2.991,2.991,0,0,1,1.777-.465H473.1a.067.067,0,0,0,.076-.075v-.289a.937.937,0,0,0-.29-.765,1.7,1.7,0,0,0-1.054-.239,2.488,2.488,0,0,0-.841.12,1.807,1.807,0,0,0-.539.3c-.076.058-.134.051-.177-.026l-.464-.828a.108.108,0,0,1,.025-.163,3.053,3.053,0,0,1,.879-.427,4.255,4.255,0,0,1,1.268-.163,2.964,2.964,0,0,1,1.952.5,2.033,2.033,0,0,1,.572,1.607v3.956a.111.111,0,0,1-.125.125Zm-1.494-1a1.678,1.678,0,0,0,1-.252.9.9,0,0,0,.346-.778v-.464a.068.068,0,0,0-.076-.076h-1a1.939,1.939,0,0,0-.991.195.677.677,0,0,0-.314.622q0,.752,1.043.753" transform="translate(-469.448 -367.169)" fill="#fff"/>
          </g>
          <g id="Group_610" data-name="Group 610" transform="translate(15.129 26.354)">
            <path id="Path_320" data-name="Path 320" d="M479.512,373.344a.111.111,0,0,1-.125-.125v-.439h-.013a1.931,1.931,0,0,1-.621.508,2.029,2.029,0,0,1-.948.195,2.135,2.135,0,0,1-.873-.169,1.909,1.909,0,0,1-.653-.471,2.118,2.118,0,0,1-.414-.709,2.679,2.679,0,0,1-.144-.9v-3.816a.11.11,0,0,1,.125-.125H477a.11.11,0,0,1,.125.125v3.49a1.539,1.539,0,0,0,.277.954,1,1,0,0,0,.854.364,1.012,1.012,0,0,0,.835-.364,1.45,1.45,0,0,0,.3-.942v-3.5a.11.11,0,0,1,.125-.125h1.156a.111.111,0,0,1,.125.125v5.8a.111.111,0,0,1-.125.125Z" transform="translate(-475.721 -367.293)" fill="#fff"/>
          </g>
          <g id="Group_611" data-name="Group 611" transform="translate(21.959 23.868)">
            <path id="Path_321" data-name="Path 321" d="M485.882,373.608a.111.111,0,0,1-.125-.125v-.453h-.013a1.6,1.6,0,0,1-.6.516,2.2,2.2,0,0,1-1,.2,2.3,2.3,0,0,1-1.318-.363,2.022,2.022,0,0,1-.779-1.093,4.109,4.109,0,0,1-.163-.722,9.638,9.638,0,0,1,0-1.971,4.153,4.153,0,0,1,.163-.722,2.019,2.019,0,0,1,.779-1.092,2.3,2.3,0,0,1,1.318-.365,2.185,2.185,0,0,1,1,.2,1.6,1.6,0,0,1,.6.515h.013V365.2a.111.111,0,0,1,.125-.125h1.154a.111.111,0,0,1,.125.125v8.287a.111.111,0,0,1-.125.125Zm-1.382-1.118a1.068,1.068,0,0,0,1.13-.779,2.782,2.782,0,0,0,.094-.464,6.816,6.816,0,0,0,0-1.33,2.822,2.822,0,0,0-.094-.465,1.2,1.2,0,0,0-2.248,0,3.032,3.032,0,0,0-.094.465,7.067,7.067,0,0,0,0,1.33,2.987,2.987,0,0,0,.094.464,1.06,1.06,0,0,0,1.118.779" transform="translate(-481.826 -365.071)" fill="#fff"/>
          </g>
          <g id="Group_612" data-name="Group 612" transform="translate(29.379 26.354)">
            <path id="Rectangle_148" data-name="Rectangle 148" d="M.112,0H1.294a.112.112,0,0,1,.112.112V5.939a.113.113,0,0,1-.113.113H.112A.112.112,0,0,1,0,5.94V.112A.112.112,0,0,1,.112,0Z" fill="#fff"/>
          </g>
          <g id="Group_613" data-name="Group 613" transform="translate(35.858 23.729)">
            <path id="Path_322" data-name="Path 322" d="M494.475,371.7c-.043-.134-.077-.267-.108-.4a4.009,4.009,0,0,1-.068-.464c-.017-.177-.03-.384-.038-.622s-.012-.525-.012-.86,0-.621.012-.859.021-.446.038-.622a4,4,0,0,1,.068-.464c.03-.134.065-.268.108-.4a2.786,2.786,0,0,1,1.118-1.538,3.441,3.441,0,0,1,1.933-.521,3.7,3.7,0,0,1,1.092.151,3.455,3.455,0,0,1,.867.4,2.476,2.476,0,0,1,.628.577,2.9,2.9,0,0,1,.388.685.124.124,0,0,1-.049.174l-1.055.465a.12.12,0,0,1-.163-.063,2.245,2.245,0,0,0-.69-.785,1.809,1.809,0,0,0-1.03-.27,1.683,1.683,0,0,0-1.042.3,1.653,1.653,0,0,0-.565.822,2.62,2.62,0,0,0-.07.263,3.426,3.426,0,0,0-.049.377c-.013.151-.021.333-.026.546s-.005.471-.005.772,0,.559.005.773.013.395.026.546a3.459,3.459,0,0,0,.049.377,2.6,2.6,0,0,0,.07.263,1.656,1.656,0,0,0,.565.822,1.683,1.683,0,0,0,1.042.3,1.877,1.877,0,0,0,1-.27,1.439,1.439,0,0,0,.616-.8,3.051,3.051,0,0,0,.1-.471,4.72,4.72,0,0,0,.038-.634.067.067,0,0,0-.076-.075h-1.406a.111.111,0,0,1-.125-.125v-1a.111.111,0,0,1,.125-.125h2.825a.112.112,0,0,1,.126.125v.741c0,.351-.018.7-.05,1.036a4.341,4.341,0,0,1-.151.835,2.842,2.842,0,0,1-1.111,1.552,3.286,3.286,0,0,1-1.9.545,3.43,3.43,0,0,1-1.933-.52,2.785,2.785,0,0,1-1.118-1.538" transform="translate(-494.249 -364.947)" fill="#fff"/>
          </g>
          <g id="Group_614" data-name="Group 614" transform="translate(43.879 26.217)">
            <path id="Path_323" data-name="Path 323" d="M504.156,373.5a2.8,2.8,0,0,1-1.62-.447,2.277,2.277,0,0,1-.9-1.236,3.784,3.784,0,0,1-.158-.647,5.382,5.382,0,0,1-.057-.835,6.208,6.208,0,0,1,.051-.841,3.373,3.373,0,0,1,.15-.652,2.26,2.26,0,0,1,.911-1.232,3.028,3.028,0,0,1,3.15.007,2.288,2.288,0,0,1,.9,1.225c.034.109.065.217.09.326s.045.234.063.377.03.3.038.483.011.391.011.633c0,.084-.045.126-.137.126h-3.73a.067.067,0,0,0-.076.075,1.012,1.012,0,0,0,.027.251,1.2,1.2,0,0,0,.063.214,1.29,1.29,0,0,0,1.355.918,1.971,1.971,0,0,0,.854-.163,1.787,1.787,0,0,0,.565-.415c.067-.067.13-.075.188-.025l.742.652a.117.117,0,0,1,.013.177,2.977,2.977,0,0,1-1.017.741,3.5,3.5,0,0,1-1.47.289m1.206-3.842a1.594,1.594,0,0,0-.076-.515,1.09,1.09,0,0,0-.44-.572,1.313,1.313,0,0,0-.74-.207,1.35,1.35,0,0,0-.755.207,1.091,1.091,0,0,0-.439.572,1.653,1.653,0,0,0-.076.515.068.068,0,0,0,.076.075h2.373a.067.067,0,0,0,.076-.075" transform="translate(-501.419 -367.17)" fill="#fff"/>
          </g>
          <g id="Group_615" data-name="Group 615" transform="translate(50.999 26.215)">
            <path id="Path_324" data-name="Path 324" d="M511.611,373.359a.111.111,0,0,1-.125-.125v-3.491a1.489,1.489,0,0,0-.289-.954,1.025,1.025,0,0,0-.854-.365,1.045,1.045,0,0,0-.854.365,1.445,1.445,0,0,0-.3.954v3.491a.111.111,0,0,1-.125.125h-1.156a.111.111,0,0,1-.124-.125v-5.8a.11.11,0,0,1,.124-.125h1.156a.11.11,0,0,1,.125.125v.44h.012a1.641,1.641,0,0,1,.6-.5,2.42,2.42,0,0,1,1.872-.037,1.954,1.954,0,0,1,.659.471,2.054,2.054,0,0,1,.421.709,2.68,2.68,0,0,1,.144.9v3.817a.111.111,0,0,1-.125.125Z" transform="translate(-507.783 -367.169)" fill="#fff"/>
          </g>
          <g id="Group_616" data-name="Group 616" transform="translate(57.804 26.217)">
            <path id="Path_325" data-name="Path 325" d="M516.6,373.5a2.8,2.8,0,0,1-1.619-.447,2.281,2.281,0,0,1-.9-1.236,3.814,3.814,0,0,1-.158-.647,5.508,5.508,0,0,1-.056-.835,6.183,6.183,0,0,1,.05-.841,3.436,3.436,0,0,1,.15-.652,2.252,2.252,0,0,1,.911-1.232,3.03,3.03,0,0,1,3.152.007,2.3,2.3,0,0,1,.9,1.225c.034.109.064.217.089.326a3.721,3.721,0,0,1,.063.377c.017.142.029.3.038.483s.012.391.012.633c0,.084-.046.126-.137.126H515.36a.067.067,0,0,0-.076.075,1.09,1.09,0,0,0,.026.251,1.376,1.376,0,0,0,.063.214,1.293,1.293,0,0,0,1.356.918,1.97,1.97,0,0,0,.854-.163,1.81,1.81,0,0,0,.565-.415c.067-.067.129-.075.188-.025l.74.652a.116.116,0,0,1,.013.177,2.964,2.964,0,0,1-1.018.741,3.484,3.484,0,0,1-1.469.289m1.206-3.842a1.629,1.629,0,0,0-.075-.515,1.1,1.1,0,0,0-.44-.572,1.321,1.321,0,0,0-.742-.207,1.343,1.343,0,0,0-.753.207,1.085,1.085,0,0,0-.439.572,1.616,1.616,0,0,0-.076.515.067.067,0,0,0,.076.075h2.373a.067.067,0,0,0,.075-.075" transform="translate(-513.865 -367.17)" fill="#fff"/>
          </g>
          <g id="Group_617" data-name="Group 617" transform="translate(64.923 26.215)">
            <path id="Path_326" data-name="Path 326" d="M520.353,373.359a.111.111,0,0,1-.125-.125v-5.8a.11.11,0,0,1,.125-.125h1.155a.111.111,0,0,1,.125.125v.515h.012a1.57,1.57,0,0,1,.6-.565,1.992,1.992,0,0,1,.968-.214,1.874,1.874,0,0,1,.7.132,1.68,1.68,0,0,1,.571.37.124.124,0,0,1,.025.176l-.665.841a.111.111,0,0,1-.176.026,2.029,2.029,0,0,0-.427-.214,1.385,1.385,0,0,0-.464-.076.973.973,0,0,0-.872.4,2.007,2.007,0,0,0-.27,1.129v3.278a.111.111,0,0,1-.125.125Z" transform="translate(-520.228 -367.169)" fill="#fff"/>
          </g>
          <g id="Group_618" data-name="Group 618" transform="translate(69.982 26.215)">
            <path id="Path_327" data-name="Path 327" d="M528.629,373.359a.111.111,0,0,1-.125-.125v-.44h-.012a1.5,1.5,0,0,1-.64.508,2.578,2.578,0,0,1-1.067.195,2.689,2.689,0,0,1-.785-.113,1.854,1.854,0,0,1-.646-.339,1.616,1.616,0,0,1-.44-.572,1.906,1.906,0,0,1-.163-.821,1.672,1.672,0,0,1,.647-1.457,2.99,2.99,0,0,1,1.776-.465H528.4a.066.066,0,0,0,.075-.075v-.289a.937.937,0,0,0-.289-.765,1.7,1.7,0,0,0-1.055-.239,2.494,2.494,0,0,0-.842.12,1.824,1.824,0,0,0-.539.3c-.076.058-.135.051-.177-.026l-.464-.828a.108.108,0,0,1,.026-.163,3.027,3.027,0,0,1,.878-.427,4.253,4.253,0,0,1,1.269-.163,2.964,2.964,0,0,1,1.952.5,2.036,2.036,0,0,1,.572,1.607v3.956a.112.112,0,0,1-.126.125Zm-1.493-1a1.682,1.682,0,0,0,1-.252.9.9,0,0,0,.345-.778v-.464a.067.067,0,0,0-.075-.076h-1a1.94,1.94,0,0,0-.992.195.677.677,0,0,0-.314.622q0,.752,1.043.753" transform="translate(-524.75 -367.169)" fill="#fff"/>
          </g>
          <g id="Group_619" data-name="Group 619" transform="translate(77.05 23.868)">
            <path id="Path_328" data-name="Path 328" d="M532.725,373.683a1.642,1.642,0,0,1-1.274-.426,1.911,1.911,0,0,1-.383-1.306V365.2a.11.11,0,0,1,.125-.125h1.155a.111.111,0,0,1,.126.125v6.679a.588.588,0,0,0,.125.433.565.565,0,0,0,.4.12h.277a.111.111,0,0,1,.125.125v1a.11.11,0,0,1-.125.125Z" transform="translate(-531.068 -365.071)" fill="#fff"/>
          </g>
          <g id="Group_620" data-name="Group 620" transform="translate(83.495 23.868)">
            <path id="Path_329" data-name="Path 329" d="M539.762,365.2a.157.157,0,0,1,.163-.125h1.155a.157.157,0,0,1,.164.125l2.887,8.287c.026.083,0,.125-.087.125h-1.231a.159.159,0,0,1-.163-.125l-.565-1.658h-3.214l-.565,1.658a.158.158,0,0,1-.164.125h-1.217c-.084,0-.113-.042-.089-.125Zm1.871,5.311-1.13-3.315h-.037l-1.143,3.315Z" transform="translate(-536.828 -365.071)" fill="#fff"/>
          </g>
          <g id="Group_621" data-name="Group 621" transform="translate(92.042 26.354)">
            <path id="Path_330" data-name="Path 330" d="M548.259,373.344a.111.111,0,0,1-.125-.125v-.439h-.013a1.93,1.93,0,0,1-.621.508,2.031,2.031,0,0,1-.948.195,2.133,2.133,0,0,1-.872-.169,1.9,1.9,0,0,1-.653-.471,2.1,2.1,0,0,1-.414-.709,2.676,2.676,0,0,1-.144-.9v-3.816a.11.11,0,0,1,.125-.125h1.155a.111.111,0,0,1,.127.125v3.49a1.546,1.546,0,0,0,.275.954,1.163,1.163,0,0,0,1.689,0,1.451,1.451,0,0,0,.295-.942v-3.5a.111.111,0,0,1,.125-.125h1.155a.111.111,0,0,1,.126.125v5.8a.112.112,0,0,1-.126.125Z" transform="translate(-544.468 -367.293)" fill="#fff"/>
          </g>
          <g id="Group_622" data-name="Group 622" transform="translate(98.682 24.496)">
            <path id="Path_331" data-name="Path 331" d="M552.688,373.617a1.647,1.647,0,0,1-1.3-.44,1.981,1.981,0,0,1-.382-1.33v-3.19a.066.066,0,0,0-.075-.075h-.4a.111.111,0,0,1-.126-.125v-.841a.111.111,0,0,1,.126-.125h.4a.067.067,0,0,0,.075-.075v-1.658a.11.11,0,0,1,.125-.125h1.156a.111.111,0,0,1,.125.125v1.658a.066.066,0,0,0,.075.075h.8a.11.11,0,0,1,.124.125v.841a.11.11,0,0,1-.124.125h-.8a.066.066,0,0,0-.075.075V371.8a.573.573,0,0,0,.138.445.634.634,0,0,0,.427.12h.314a.111.111,0,0,1,.124.125v1a.11.11,0,0,1-.124.125Z" transform="translate(-550.403 -365.632)" fill="#fff"/>
          </g>
          <g id="Group_623" data-name="Group 623" transform="translate(103.478 23.868)">
            <path id="Path_332" data-name="Path 332" d="M558.52,373.608a.111.111,0,0,1-.125-.125v-3.491a1.484,1.484,0,0,0-.29-.954,1.021,1.021,0,0,0-.854-.365,1.043,1.043,0,0,0-.853.365,1.448,1.448,0,0,0-.3.954v3.491a.111.111,0,0,1-.125.125h-1.156a.111.111,0,0,1-.125-.125V365.2a.11.11,0,0,1,.125-.125h1.156a.111.111,0,0,1,.125.125v2.926h.012a1.643,1.643,0,0,1,.6-.5,2.419,2.419,0,0,1,1.871-.037,1.951,1.951,0,0,1,.66.471,2.072,2.072,0,0,1,.421.709,2.676,2.676,0,0,1,.144.9v3.817a.112.112,0,0,1-.126.125Z" transform="translate(-554.69 -365.071)" fill="#fff"/>
          </g>
          <g id="Group_624" data-name="Group 624" transform="translate(110.283 26.215)">
            <path id="Path_333" data-name="Path 333" d="M563.473,373.5a2.789,2.789,0,0,1-1.587-.44,2.245,2.245,0,0,1-.911-1.231,4.561,4.561,0,0,1-.151-.658,6.961,6.961,0,0,1,0-1.67,4.568,4.568,0,0,1,.151-.659,2.248,2.248,0,0,1,.911-1.231,3.064,3.064,0,0,1,3.164,0,2.25,2.25,0,0,1,.909,1.231,4.506,4.506,0,0,1,.151.659,6.978,6.978,0,0,1,0,1.67,4.5,4.5,0,0,1-.151.658,2.247,2.247,0,0,1-.909,1.231,2.777,2.777,0,0,1-1.576.44m0-1.255a1.171,1.171,0,0,0,.709-.207,1.225,1.225,0,0,0,.421-.584,2.5,2.5,0,0,0,.1-.483q.025-.245.025-.634c0-.259-.008-.469-.025-.628a2.8,2.8,0,0,0-.1-.49,1.229,1.229,0,0,0-.421-.584,1.171,1.171,0,0,0-.709-.207,1.135,1.135,0,0,0-1.142.791,2.73,2.73,0,0,0-.1.49,6.263,6.263,0,0,0-.025.628c0,.26.008.471.025.634a2.447,2.447,0,0,0,.1.483,1.135,1.135,0,0,0,1.142.791" transform="translate(-560.773 -367.169)" fill="#fff"/>
          </g>
          <g id="Group_625" data-name="Group 625" transform="translate(117.428 26.215)">
            <path id="Path_334" data-name="Path 334" d="M567.284,373.359a.111.111,0,0,1-.125-.125v-5.8a.11.11,0,0,1,.125-.125h1.156a.111.111,0,0,1,.125.125v.515h.012a1.567,1.567,0,0,1,.6-.565,1.991,1.991,0,0,1,.968-.214,1.872,1.872,0,0,1,.7.132,1.675,1.675,0,0,1,.571.37.123.123,0,0,1,.025.176l-.665.841a.111.111,0,0,1-.176.026,2.022,2.022,0,0,0-.427-.214,1.383,1.383,0,0,0-.464-.076.974.974,0,0,0-.873.4,2.01,2.01,0,0,0-.27,1.129v3.278a.111.111,0,0,1-.125.125Z" transform="translate(-567.159 -367.169)" fill="#fff"/>
          </g>
          <g id="Group_626" data-name="Group 626" transform="translate(122.989 26.354)">
            <rect id="Rectangle_149" data-name="Rectangle 149" width="1.406" height="6.052" rx="0.112" fill="#fff"/>
          </g>
          <g id="Group_627" data-name="Group 627" transform="translate(125.965 24.496)">
            <path id="Path_335" data-name="Path 335" d="M577.075,373.617a1.646,1.646,0,0,1-1.3-.44,1.978,1.978,0,0,1-.382-1.33v-3.19a.067.067,0,0,0-.076-.075h-.4a.11.11,0,0,1-.125-.125v-.841a.11.11,0,0,1,.125-.125h.4a.067.067,0,0,0,.076-.075v-1.658a.11.11,0,0,1,.124-.125h1.156a.11.11,0,0,1,.125.125v1.658a.067.067,0,0,0,.075.075h.8a.111.111,0,0,1,.125.125v.841a.111.111,0,0,1-.125.125h-.8a.067.067,0,0,0-.075.075V371.8a.572.572,0,0,0,.138.445.637.637,0,0,0,.427.12h.314a.111.111,0,0,1,.125.125v1a.111.111,0,0,1-.125.125Z" transform="translate(-574.79 -365.632)" fill="#fff"/>
          </g>
          <g id="Group_628" data-name="Group 628" transform="translate(130.062 26.354)">
            <path id="Path_336" data-name="Path 336" d="M579.364,375.6a.11.11,0,0,1-.125-.125v-1a.111.111,0,0,1,.125-.125h.226a.851.851,0,0,0,.565-.169,1.279,1.279,0,0,0,.339-.547l.176-.515-2.21-5.7c-.024-.084.009-.125.1-.125H579.8a.152.152,0,0,1,.151.125l1.367,3.955h.026l1.306-3.955a.152.152,0,0,1,.151-.125H584c.092,0,.125.041.1.125l-2.31,6.3a6.454,6.454,0,0,1-.4.9,2.333,2.333,0,0,1-.44.578,1.433,1.433,0,0,1-.527.313,2.15,2.15,0,0,1-.666.094Z" transform="translate(-578.452 -367.293)" fill="#fff"/>
          </g>
          <g id="Group_629" data-name="Group 629" transform="translate(139.988 26.215)">
            <path id="Path_337" data-name="Path 337" d="M590.023,373.5a2.791,2.791,0,0,1-1.587-.44,2.241,2.241,0,0,1-.91-1.231,4.5,4.5,0,0,1-.151-.658,6.978,6.978,0,0,1,0-1.67,4.506,4.506,0,0,1,.151-.659,2.244,2.244,0,0,1,.91-1.231,3.065,3.065,0,0,1,3.164,0,2.251,2.251,0,0,1,.91,1.231,4.394,4.394,0,0,1,.15.659,6.961,6.961,0,0,1,0,1.67,4.386,4.386,0,0,1-.15.658,2.248,2.248,0,0,1-.91,1.231,2.776,2.776,0,0,1-1.577.44m0-1.255a1.172,1.172,0,0,0,.71-.207,1.225,1.225,0,0,0,.421-.584,2.491,2.491,0,0,0,.1-.483c.017-.163.025-.375.025-.634a6.179,6.179,0,0,0-.025-.628,2.783,2.783,0,0,0-.1-.49,1.23,1.23,0,0,0-.421-.584,1.172,1.172,0,0,0-.71-.207,1.134,1.134,0,0,0-1.142.791,2.659,2.659,0,0,0-.1.49,6.257,6.257,0,0,0-.025.628c0,.26.008.471.025.634a2.388,2.388,0,0,0,.1.483,1.134,1.134,0,0,0,1.142.791" transform="translate(-587.324 -367.169)" fill="#fff"/>
          </g>
          <g id="Group_630" data-name="Group 630" transform="translate(146.717 23.868)">
            <path id="Path_338" data-name="Path 338" d="M594.067,373.608a.111.111,0,0,1-.125-.125v-4.759a.067.067,0,0,0-.076-.075h-.4a.111.111,0,0,1-.125-.125v-.841a.111.111,0,0,1,.125-.125h.4a.068.068,0,0,0,.076-.076v-.389a2.038,2.038,0,0,1,.508-1.544,2.118,2.118,0,0,1,1.5-.476h.553a.111.111,0,0,1,.125.125v1a.111.111,0,0,1-.125.126h-.39a1.934,1.934,0,0,0-.389.032.429.429,0,0,0-.233.118.5.5,0,0,0-.113.227,1.751,1.751,0,0,0-.03.364v.414a.067.067,0,0,0,.075.076h1.08a.111.111,0,0,1,.125.125v.841a.111.111,0,0,1-.125.125h-1.08a.066.066,0,0,0-.075.075v4.759a.112.112,0,0,1-.127.125Z" transform="translate(-593.339 -365.071)" fill="#fff"/>
          </g>
          <g id="Group_631" data-name="Group 631" transform="translate(154.74 23.868)">
            <path id="Path_339" data-name="Path 339" d="M600.51,365.2a.11.11,0,0,1,.125-.125h5.349a.111.111,0,0,1,.125.125v1.079a.111.111,0,0,1-.125.125h-3.917a.067.067,0,0,0-.076.076v2.172a.067.067,0,0,0,.076.075h3.3a.111.111,0,0,1,.125.126v1.078a.111.111,0,0,1-.125.126h-3.3a.067.067,0,0,0-.076.075v3.353a.111.111,0,0,1-.126.125h-1.23a.111.111,0,0,1-.125-.125Z" transform="translate(-600.51 -365.071)" fill="#fff"/>
          </g>
          <g id="Group_632" data-name="Group 632" transform="translate(161.231 26.215)">
            <path id="Path_340" data-name="Path 340" d="M609.011,373.5a2.8,2.8,0,0,1-1.589-.44,2.244,2.244,0,0,1-.91-1.231,4.561,4.561,0,0,1-.151-.658,6.978,6.978,0,0,1,0-1.67,4.569,4.569,0,0,1,.151-.659,2.247,2.247,0,0,1,.91-1.231,3.065,3.065,0,0,1,3.164,0,2.248,2.248,0,0,1,.911,1.231,4.409,4.409,0,0,1,.15.659,7.011,7.011,0,0,1,0,1.67,4.4,4.4,0,0,1-.15.658,2.245,2.245,0,0,1-.911,1.231,2.772,2.772,0,0,1-1.575.44m0-1.255a1.172,1.172,0,0,0,.709-.207,1.231,1.231,0,0,0,.421-.584,2.5,2.5,0,0,0,.1-.483c.016-.163.024-.375.024-.634s-.009-.469-.024-.628a2.8,2.8,0,0,0-.1-.49,1.236,1.236,0,0,0-.421-.584,1.171,1.171,0,0,0-.709-.207,1.134,1.134,0,0,0-1.142.791,2.679,2.679,0,0,0-.1.49,6.207,6.207,0,0,0-.026.628q0,.389.026.634a2.4,2.4,0,0,0,.1.483,1.134,1.134,0,0,0,1.142.791" transform="translate(-606.312 -367.169)" fill="#fff"/>
          </g>
          <g id="Group_633" data-name="Group 633" transform="translate(168.374 26.215)">
            <path id="Path_341" data-name="Path 341" d="M612.822,373.359a.111.111,0,0,1-.125-.125v-5.8a.11.11,0,0,1,.125-.125h1.156a.111.111,0,0,1,.125.125v.515h.012a1.57,1.57,0,0,1,.6-.565,1.988,1.988,0,0,1,.967-.214,1.871,1.871,0,0,1,.7.132,1.672,1.672,0,0,1,.571.37.124.124,0,0,1,.026.176l-.666.841a.111.111,0,0,1-.176.026,2.048,2.048,0,0,0-.426-.214,1.4,1.4,0,0,0-.465-.076.974.974,0,0,0-.873.4,2.01,2.01,0,0,0-.27,1.129v3.278a.111.111,0,0,1-.125.125Z" transform="translate(-612.697 -367.169)" fill="#fff"/>
          </g>
          <g id="Group_634" data-name="Group 634" transform="translate(173.609 26.217)">
            <path id="Path_342" data-name="Path 342" d="M620.114,373.5a2.8,2.8,0,0,1-1.62-.447,2.279,2.279,0,0,1-.9-1.236,3.773,3.773,0,0,1-.158-.647,5.406,5.406,0,0,1-.057-.835,6,6,0,0,1,.051-.841,3.4,3.4,0,0,1,.149-.652,2.261,2.261,0,0,1,.912-1.232,3.028,3.028,0,0,1,3.15.007,2.3,2.3,0,0,1,.9,1.225c.033.109.064.217.089.326s.045.234.061.377.029.3.038.483.012.391.012.633c0,.084-.045.126-.138.126H618.87a.067.067,0,0,0-.076.075,1.07,1.07,0,0,0,.026.251,1.383,1.383,0,0,0,.064.214,1.29,1.29,0,0,0,1.355.918,1.972,1.972,0,0,0,.854-.163,1.8,1.8,0,0,0,.565-.415c.067-.067.13-.075.188-.025l.742.652a.117.117,0,0,1,.012.177,2.964,2.964,0,0,1-1.018.741,3.483,3.483,0,0,1-1.468.289m1.206-3.842a1.62,1.62,0,0,0-.076-.515,1.089,1.089,0,0,0-.44-.572,1.321,1.321,0,0,0-.742-.207,1.345,1.345,0,0,0-.753.207,1.086,1.086,0,0,0-.439.572,1.623,1.623,0,0,0-.076.515.067.067,0,0,0,.076.075h2.373a.067.067,0,0,0,.076-.075" transform="translate(-617.376 -367.17)" fill="#fff"/>
          </g>
          <g id="Group_635" data-name="Group 635" transform="translate(180.729 26.354)">
            <rect id="Rectangle_150" data-name="Rectangle 150" width="1.406" height="6.052" rx="0.112" fill="#fff"/>
          </g>
          <g id="Group_636" data-name="Group 636" transform="translate(183.867 26.217)">
            <path id="Path_343" data-name="Path 343" d="M628.968,375.757a3.265,3.265,0,0,1-1.243-.244,2.414,2.414,0,0,1-.955-.66.115.115,0,0,1,.013-.175l.741-.742a.123.123,0,0,1,.188,0,1.86,1.86,0,0,0,1.318.565,1.316,1.316,0,0,0,1.029-.364,1.57,1.57,0,0,0,.326-1.08v-.565h-.012a1.469,1.469,0,0,1-.6.514,2.207,2.207,0,0,1-.973.188,2.159,2.159,0,0,1-1.292-.377,2.1,2.1,0,0,1-.766-1.092,3.982,3.982,0,0,1-.158-.7,6.863,6.863,0,0,1-.044-.847,6.73,6.73,0,0,1,.044-.841,4,4,0,0,1,.158-.69,2.113,2.113,0,0,1,.766-1.105,2.463,2.463,0,0,1,2.265-.182,1.526,1.526,0,0,1,.6.521h.012v-.452a.111.111,0,0,1,.127-.125h1.155a.11.11,0,0,1,.125.125v5.549a2.523,2.523,0,0,1-2.825,2.775m.2-3.8a1.111,1.111,0,0,0,.7-.2,1.194,1.194,0,0,0,.383-.577,2.207,2.207,0,0,0,.106-.446,4.078,4.078,0,0,0,.031-.546,3.1,3.1,0,0,0-.137-.992,1.193,1.193,0,0,0-.383-.565,1.112,1.112,0,0,0-.7-.2,1.024,1.024,0,0,0-1.067.765,3.055,3.055,0,0,0-.139.992,4.222,4.222,0,0,0,.032.546,2.286,2.286,0,0,0,.107.446,1.025,1.025,0,0,0,1.067.778" transform="translate(-626.545 -367.17)" fill="#fff"/>
          </g>
          <g id="Group_637" data-name="Group 637" transform="translate(191.2 26.215)">
            <path id="Path_344" data-name="Path 344" d="M636.929,373.359a.111.111,0,0,1-.125-.125v-3.491a1.49,1.49,0,0,0-.288-.954,1.025,1.025,0,0,0-.854-.365,1.044,1.044,0,0,0-.854.365,1.444,1.444,0,0,0-.3.954v3.491a.111.111,0,0,1-.125.125h-1.156a.111.111,0,0,1-.125-.125v-5.8a.111.111,0,0,1,.125-.125h1.156a.111.111,0,0,1,.125.125v.44h.012a1.641,1.641,0,0,1,.6-.5,2.42,2.42,0,0,1,1.872-.037,1.952,1.952,0,0,1,.659.471,2.047,2.047,0,0,1,.421.709,2.666,2.666,0,0,1,.144.9v3.817a.111.111,0,0,1-.125.125Z" transform="translate(-633.099 -367.169)" fill="#fff"/>
          </g>
          <g id="Group_638" data-name="Group 638" transform="translate(200.766 23.868)">
            <path id="Path_345" data-name="Path 345" d="M644.212,373.608a.111.111,0,0,1-.125-.125v-7.007a.067.067,0,0,0-.076-.075h-2.234a.111.111,0,0,1-.126-.125V365.2a.111.111,0,0,1,.126-.125h6.1a.111.111,0,0,1,.125.125v1.079a.111.111,0,0,1-.125.125h-2.235a.067.067,0,0,0-.075.075v7.007a.111.111,0,0,1-.125.125Z" transform="translate(-641.65 -365.071)" fill="#fff"/>
          </g>
          <g id="Group_639" data-name="Group 639" transform="translate(208.563 26.215)">
            <path id="Path_346" data-name="Path 346" d="M648.745,373.359a.111.111,0,0,1-.125-.125v-5.8a.11.11,0,0,1,.125-.125H649.9a.111.111,0,0,1,.126.125v.515h.012a1.569,1.569,0,0,1,.6-.565,1.991,1.991,0,0,1,.968-.214,1.878,1.878,0,0,1,.7.132,1.685,1.685,0,0,1,.571.37.122.122,0,0,1,.024.176l-.664.841a.111.111,0,0,1-.176.026,2.023,2.023,0,0,0-.427-.214,1.383,1.383,0,0,0-.464-.076.973.973,0,0,0-.872.4,2.009,2.009,0,0,0-.27,1.129v3.278a.112.112,0,0,1-.126.125Z" transform="translate(-648.619 -367.169)" fill="#fff"/>
          </g>
          <g id="Group_640" data-name="Group 640" transform="translate(213.623 26.215)">
            <path id="Path_347" data-name="Path 347" d="M657.021,373.359a.111.111,0,0,1-.125-.125v-.44h-.012a1.5,1.5,0,0,1-.64.508,2.578,2.578,0,0,1-1.067.195,2.69,2.69,0,0,1-.785-.113,1.857,1.857,0,0,1-.646-.339,1.615,1.615,0,0,1-.44-.572,1.9,1.9,0,0,1-.163-.821,1.673,1.673,0,0,1,.646-1.457,2.991,2.991,0,0,1,1.776-.465H656.8a.067.067,0,0,0,.075-.075v-.289a.937.937,0,0,0-.289-.765,1.7,1.7,0,0,0-1.055-.239,2.491,2.491,0,0,0-.841.12,1.824,1.824,0,0,0-.539.3c-.075.058-.134.051-.177-.026l-.464-.828a.108.108,0,0,1,.026-.163,3.025,3.025,0,0,1,.878-.427,4.255,4.255,0,0,1,1.269-.163,2.966,2.966,0,0,1,1.952.5,2.037,2.037,0,0,1,.571,1.607v3.956a.111.111,0,0,1-.126.125Zm-1.494-1a1.682,1.682,0,0,0,1-.252.9.9,0,0,0,.345-.778v-.464a.067.067,0,0,0-.075-.076h-1a1.939,1.939,0,0,0-.992.195.676.676,0,0,0-.313.622q0,.752,1.041.753" transform="translate(-653.142 -367.169)" fill="#fff"/>
          </g>
          <g id="Group_641" data-name="Group 641" transform="translate(220.39 23.868)">
            <path id="Path_348" data-name="Path 348" d="M663.246,373.608a.111.111,0,0,1-.125-.125v-.453h-.012a1.6,1.6,0,0,1-.6.516,2.2,2.2,0,0,1-1,.2,2.3,2.3,0,0,1-1.318-.363,2.022,2.022,0,0,1-.778-1.093,4.257,4.257,0,0,1-.164-.722,9.685,9.685,0,0,1,0-1.971,4.3,4.3,0,0,1,.164-.722,2.018,2.018,0,0,1,.778-1.092,2.3,2.3,0,0,1,1.318-.365,2.182,2.182,0,0,1,1,.2,1.6,1.6,0,0,1,.6.515h.012V365.2a.111.111,0,0,1,.125-.125H664.4a.111.111,0,0,1,.125.125v8.287a.111.111,0,0,1-.125.125Zm-1.381-1.118a1.069,1.069,0,0,0,1.13-.779,2.979,2.979,0,0,0,.094-.464,7.067,7.067,0,0,0,0-1.33,3.025,3.025,0,0,0-.094-.465,1.2,1.2,0,0,0-2.248,0,2.913,2.913,0,0,0-.094.465,7.122,7.122,0,0,0,0,1.33,2.87,2.87,0,0,0,.094.464,1.06,1.06,0,0,0,1.118.779" transform="translate(-659.19 -365.071)" fill="#fff"/>
          </g>
          <g id="Group_642" data-name="Group 642" transform="translate(227.484 26.217)">
            <path id="Path_349" data-name="Path 349" d="M668.267,373.5a2.806,2.806,0,0,1-1.62-.447,2.288,2.288,0,0,1-.9-1.236,3.81,3.81,0,0,1-.157-.647,5.4,5.4,0,0,1-.056-.835,6.239,6.239,0,0,1,.049-.841,3.383,3.383,0,0,1,.151-.652,2.248,2.248,0,0,1,.911-1.232,3.028,3.028,0,0,1,3.15.007,2.3,2.3,0,0,1,.9,1.225c.035.109.064.217.088.326s.046.234.064.377.029.3.037.483.012.391.012.633c0,.084-.046.126-.138.126h-3.729a.066.066,0,0,0-.075.075,1.151,1.151,0,0,0,.025.251,1.454,1.454,0,0,0,.063.214,1.292,1.292,0,0,0,1.356.918,1.968,1.968,0,0,0,.854-.163,1.812,1.812,0,0,0,.565-.415c.067-.067.13-.075.188-.025l.741.652a.116.116,0,0,1,.013.177,2.959,2.959,0,0,1-1.017.741,3.489,3.489,0,0,1-1.469.289m1.2-3.842a1.617,1.617,0,0,0-.075-.515,1.092,1.092,0,0,0-.44-.572,1.319,1.319,0,0,0-.741-.207,1.34,1.34,0,0,0-.753.207,1.087,1.087,0,0,0-.44.572,1.614,1.614,0,0,0-.075.515.066.066,0,0,0,.075.075H669.4a.067.067,0,0,0,.075-.075" transform="translate(-665.531 -367.17)" fill="#fff"/>
          </g>
          <g id="Group_643" data-name="Group 643" transform="translate(6.865 1.073)">
            <path id="Path_350" data-name="Path 350" d="M470.933,345.858a1.308,1.308,0,1,1-1.3-1.162,1.236,1.236,0,0,1,1.3,1.162" transform="translate(-468.334 -344.696)" fill="#fff"/>
          </g>
          <g id="Group_644" data-name="Group 644" transform="translate(71.58 1.073)">
            <path id="Path_351" data-name="Path 351" d="M528.778,345.858a1.308,1.308,0,1,1-1.3-1.162,1.237,1.237,0,0,1,1.3,1.162" transform="translate(-526.179 -344.696)" fill="#fff"/>
          </g>
          <g id="Group_645" data-name="Group 645" transform="translate(74.996 1.073)">
            <path id="Path_352" data-name="Path 352" d="M531.831,345.858a1.308,1.308,0,1,1-1.3-1.162,1.236,1.236,0,0,1,1.3,1.162" transform="translate(-529.232 -344.696)" fill="#fff"/>
          </g>
          <g id="Group_646" data-name="Group 646" transform="translate(129.542 1.073)">
            <path id="Path_353" data-name="Path 353" d="M580.586,345.858a1.308,1.308,0,1,1-1.3-1.162,1.236,1.236,0,0,1,1.3,1.162" transform="translate(-577.987 -344.696)" fill="#fff"/>
          </g>
          <g id="Group_647" data-name="Group 647" transform="translate(132.918 1.073)">
            <path id="Path_354" data-name="Path 354" d="M583.6,345.858a1.307,1.307,0,1,1-1.3-1.162,1.237,1.237,0,0,1,1.3,1.162" transform="translate(-581.005 -344.696)" fill="#fff"/>
          </g>
          <g id="Group_648" data-name="Group 648" transform="translate(186.901 1.073)">
            <path id="Path_355" data-name="Path 355" d="M631.855,345.858a1.307,1.307,0,1,1-1.3-1.162,1.236,1.236,0,0,1,1.3,1.162" transform="translate(-629.257 -344.696)" fill="#fff"/>
          </g>
          <g id="Group_649" data-name="Group 649" transform="translate(190.317 1.073)">
            <path id="Path_356" data-name="Path 356" d="M634.909,345.858a1.308,1.308,0,1,1-1.3-1.162,1.237,1.237,0,0,1,1.3,1.162" transform="translate(-632.31 -344.696)" fill="#fff"/>
          </g>
          <g id="Group_650" data-name="Group 650" transform="translate(45.12 1.694)">
            <path id="Path_357" data-name="Path 357" d="M505.127,346.413a1.308,1.308,0,1,1-1.3-1.162,1.237,1.237,0,0,1,1.3,1.162" transform="translate(-502.528 -345.251)" fill="#fff"/>
          </g>
          <g id="Group_651" data-name="Group 651" transform="translate(102.358 1.694)">
            <path id="Path_358" data-name="Path 358" d="M556.288,346.413a1.308,1.308,0,1,1-1.3-1.162,1.236,1.236,0,0,1,1.3,1.162" transform="translate(-553.689 -345.251)" fill="#fff"/>
          </g>
          <g id="Group_652" data-name="Group 652" transform="translate(105.734 1.694)">
            <path id="Path_359" data-name="Path 359" d="M559.306,346.413a1.308,1.308,0,1,1-1.3-1.162,1.236,1.236,0,0,1,1.3,1.162" transform="translate(-556.707 -345.251)" fill="#fff"/>
          </g>
          <g id="Group_653" data-name="Group 653" transform="translate(12.371 15.928)">
            <path id="Path_360" data-name="Path 360" d="M475.854,359.136a1.307,1.307,0,1,1-1.3-1.162,1.237,1.237,0,0,1,1.3,1.162" transform="translate(-473.256 -357.974)" fill="#fff"/>
          </g>
          <g id="Group_654" data-name="Group 654" transform="translate(15.759 15.928)">
            <path id="Path_361" data-name="Path 361" d="M478.884,359.136a1.308,1.308,0,1,1-1.3-1.162,1.238,1.238,0,0,1,1.3,1.162" transform="translate(-476.284 -357.974)" fill="#fff"/>
          </g>
          <g id="Group_655" data-name="Group 655" transform="translate(23.518 15.928)">
            <path id="Path_362" data-name="Path 362" d="M485.817,359.136a1.307,1.307,0,1,1-1.3-1.162,1.236,1.236,0,0,1,1.3,1.162" transform="translate(-483.219 -357.974)" fill="#fff"/>
          </g>
          <g id="Group_656" data-name="Group 656" transform="translate(93.015 15.928)">
            <path id="Path_363" data-name="Path 363" d="M547.937,359.136a1.307,1.307,0,1,1-1.3-1.162,1.236,1.236,0,0,1,1.3,1.162" transform="translate(-545.338 -357.974)" fill="#fff"/>
          </g>
          <g id="Group_657" data-name="Group 657" transform="translate(201.221 15.928)">
            <path id="Path_364" data-name="Path 364" d="M644.655,359.136a1.308,1.308,0,1,1-1.3-1.162,1.237,1.237,0,0,1,1.3,1.162" transform="translate(-642.056 -357.974)" fill="#fff"/>
          </g>
          <g id="Group_658" data-name="Group 658" transform="translate(204.557 15.928)">
            <path id="Path_365" data-name="Path 365" d="M647.637,359.136a1.308,1.308,0,1,1-1.3-1.162,1.236,1.236,0,0,1,1.3,1.162" transform="translate(-645.038 -357.974)" fill="#fff"/>
          </g>
          <g id="Group_659" data-name="Group 659" transform="translate(3.474 1.073)">
            <path id="Path_366" data-name="Path 366" d="M467.9,345.858a1.307,1.307,0,1,1-1.3-1.162,1.236,1.236,0,0,1,1.3,1.162" transform="translate(-465.303 -344.696)" fill="#fff"/>
          </g>
          <g id="Group_660" data-name="Group 660" transform="translate(180.741 23.859)">
            <path id="Path_367" data-name="Path 367" d="M625.128,365.752a.689.689,0,1,1-.689-.689.689.689,0,0,1,.689.689" transform="translate(-623.751 -365.063)" fill="#fff"/>
          </g>
          <g id="Group_661" data-name="Group 661" transform="translate(122.999 23.859)">
            <path id="Path_368" data-name="Path 368" d="M573.517,365.752a.689.689,0,1,1-.689-.689.69.69,0,0,1,.689.689" transform="translate(-572.139 -365.063)" fill="#fff"/>
          </g>
          <g id="Group_662" data-name="Group 662" transform="translate(29.388 23.859)">
            <path id="Path_369" data-name="Path 369" d="M489.844,365.752a.689.689,0,1,1-.689-.689.69.69,0,0,1,.689.689" transform="translate(-488.466 -365.063)" fill="#fff"/>
          </g>
        </g>
      </g>
    </g>
  </g>
</svg>
