<svg xmlns="http://www.w3.org/2000/svg" width="26.768" height="14.5" viewBox="0 0 26.768 14.5">
  <g id="JobEducationIcon" transform="translate(-1820 -1189)">
    <path id="Path_52868" data-name="Path 52868" d="M21975,945.441s3.18-8.589,6.758-8.841,4.141,2.569,4.141,2.569l-.238,4.257-.562,1.511-6.414.5Z" transform="translate(-20145.361 257.518)" fill="#cca079"/>
    <g id="mortarboard" transform="translate(1820 1189)">
      <g id="Group_25023" data-name="Group 25023" transform="translate(0 0)">
        <path id="Path_52867" data-name="Path 52867" d="M26.557,122.269a1.111,1.111,0,0,0-.409-.359c-.018-.009-.118-.047-.137-.054l-11.876-4.4a.566.566,0,0,0-.095-.026,2.086,2.086,0,0,0-1.309,0,.454.454,0,0,0-.1.026L.767,121.851c-.029.01-.126.048-.153.061a1.089,1.089,0,0,0-.4.345c-.013.018-.054.079-.065.1A1.083,1.083,0,0,0,0,122.9a1.187,1.187,0,0,0,.206.63,1.116,1.116,0,0,0,.413.364c.018.009.118.047.137.054l4.82,1.786v3.3c0,1.83,3.927,2.788,7.807,2.788s7.807-.958,7.807-2.788v-3.3l2.231-.826V128.9l-1.058,2.117a.558.558,0,0,0,1,.5l.617-1.232.617,1.232a.558.558,0,0,0,.5.308.556.556,0,0,0,.5-.806l-1.055-2.11v-4.333a.427.427,0,0,0-.016-.075L26,123.954c.029-.01.126-.048.153-.061a1.084,1.084,0,0,0,.4-.348h0l.064-.095a1.083,1.083,0,0,0,.154-.547h0A1.184,1.184,0,0,0,26.557,122.269Zm-13.173,8.442c-4.151,0-6.692-1.083-6.692-1.673s2.541-1.673,6.692-1.673,6.692,1.083,6.692,1.673S17.535,130.711,13.384,130.711Zm6.692-3.17c-2.872-1.662-10.512-1.662-13.384,0v-2.965c0-.59,2.541-1.673,6.692-1.673s6.692,1.083,6.692,1.673Zm1.111-2.994c-.086-3.62-15.521-3.62-15.607,0L1.143,122.9l11.8-4.37q.035-.008.07-.02a1,1,0,0,1,.737,0,.483.483,0,0,0,.069.019l11.8,4.374Z" transform="translate(0 -117.326)" fill="#1b3e4b"/>
      </g>
    </g>
  </g>
</svg>
