<svg xmlns="http://www.w3.org/2000/svg" width="15.751" height="18" viewBox="0 0 15.751 18">
  <g id="Jobfingerprint" transform="translate(-1.5)">
    <path id="Path_52861" data-name="Path 52861" d="M16.052,3.612a.557.557,0,0,1-.379-.147,8.813,8.813,0,0,0-11.962,0,.563.563,0,0,1-.758-.832,9.939,9.939,0,0,1,13.479,0,.562.562,0,0,1-.38.978Z" transform="translate(-0.317 0)" fill="#1b3e4b"/>
    <path id="Path_52862" data-name="Path 52862" d="M16.687,8.021a.56.56,0,0,1-.467-.249A8.267,8.267,0,0,0,9.375,4.059,8.267,8.267,0,0,0,2.53,7.772.563.563,0,1,1,1.6,7.145a9.391,9.391,0,0,1,7.78-4.21,9.39,9.39,0,0,1,7.78,4.211.561.561,0,0,1-.467.875Z" transform="translate(0 -0.734)" fill="#1b3e4b"/>
    <path id="Path_52863" data-name="Path 52863" d="M8.5,20.2a.562.562,0,0,1-.4-.166c-.123-.124-3.005-3.066-3.005-5.9A5.264,5.264,0,0,1,10.273,8.8a5.264,5.264,0,0,1,5.182,5.332.563.563,0,0,1-1.125,0,4.138,4.138,0,0,0-4.057-4.207,4.138,4.138,0,0,0-4.057,4.207c0,2.375,2.653,5.08,2.68,5.107a.562.562,0,0,1-.4.958Z" transform="translate(-0.898 -2.201)" fill="#cca079"/>
    <path id="Path_52864" data-name="Path 52864" d="M11.339,19.467c-1.353,0-4.489-2.574-4.793-5.44a3.637,3.637,0,0,1,.862-2.773,2.869,2.869,0,0,1,2.139-.982h.016a3,3,0,0,1,2.122.882,3.145,3.145,0,0,1,.928,2.248v.367a1.571,1.571,0,1,0,3.139,0v-.128A6.463,6.463,0,0,0,9.975,7.009,6.024,6.024,0,0,0,5.416,8.646a6.571,6.571,0,0,0-.622,8.839.562.562,0,1,1-.879.7A7.7,7.7,0,0,1,4.647,7.824a7.134,7.134,0,0,1,5.4-1.939,7.59,7.59,0,0,1,6.827,7.755v.128a2.7,2.7,0,1,1-5.389,0V13.4a2.029,2.029,0,0,0-.6-1.45A1.874,1.874,0,0,0,9.563,11.4h-.01A1.74,1.74,0,0,0,8.246,12a2.494,2.494,0,0,0-.582,1.9c.248,2.339,2.935,4.435,3.675,4.435a.562.562,0,1,1,0,1.124Z" transform="translate(-0.187 -1.467)" fill="#1b3e4b"/>
    <path id="Path_52865" data-name="Path 52865" d="M15.662,20.568c-2.013,0-4.471-2.46-4.471-5.332a.563.563,0,0,1,1.125,0c0,2.226,1.871,4.207,3.346,4.207a.563.563,0,1,1,0,1.125Z" transform="translate(-2.423 -3.669)" fill="#cca079"/>
  </g>
</svg>
