<svg id="locationIcon" xmlns="http://www.w3.org/2000/svg" width="28" height="28" viewBox="0 0 28 28">
  <path id="Intersection_3" data-name="Intersection 3" d="M7.222,13.114C3.606,9.977,1.179,7.12,0,4.609A8.337,8.337,0,0,1,7.667,0a8.332,8.332,0,0,1,7.669,4.606c-1.18,2.513-3.608,5.374-7.226,8.522l-.443.373Z" transform="translate(6.332 12.501)" fill="#cca079" opacity="0.77"/>
  <path id="Path_52780" data-name="Path 52780" d="M14,2a9.747,9.747,0,0,1,10,9.84Q24,17.816,14,26,4.006,17.81,4,11.84A9.747,9.747,0,0,1,14,2Zm7.5,9.84A7.29,7.29,0,0,0,14,4.4a7.29,7.29,0,0,0-7.5,7.44c0,2.808,2.437,6.528,7.5,10.968C19.063,18.368,21.5,14.648,21.5,11.84ZM14,14a2.459,2.459,0,0,1-2.5-2.4,2.5,2.5,0,0,1,5,0A2.459,2.459,0,0,1,14,14Z" transform="translate(0 0)" fill="#007066"/>
  <path id="Path_52781" data-name="Path 52781" d="M0,0H28V28H0Z" fill="none"/>
</svg>
