<svg xmlns="http://www.w3.org/2000/svg" width="121.711" height="80" viewBox="0 0 121.711 80">
  <g id="logoGreenBox" transform="translate(-14367.182 -3454.5)">
    <g id="Group_24974" data-name="Group 24974" transform="translate(14367.183 3454.5)">
      <g id="Group_24971" data-name="Group 24971" transform="translate(30.936 0)">
        <g id="Group_542" data-name="Group 542" transform="translate(49.062 26.096)">
          <path id="Path_256" data-name="Path 256" d="M794.745,361.088a.585.585,0,0,1-.433-.19,23.978,23.978,0,0,0-3.3-2.453,34.1,34.1,0,0,0-5.081-2.585l-.446-.181a.584.584,0,1,1,.433-1.084l.444.18a34.7,34.7,0,0,1,5.265,2.678,25.16,25.16,0,0,1,3.507,2.614.586.586,0,0,1-.389,1.022Z" transform="translate(-785.117 -354.553)" fill="#c48e61"/>
        </g>
        <g id="Group_543" data-name="Group 543" transform="translate(48.573 40.94)">
          <path id="Path_257" data-name="Path 257" d="M790.079,383.618a.576.576,0,0,1-.292-.079,36.074,36.074,0,0,0-5.133-2.428.584.584,0,0,1,.418-1.09,37.361,37.361,0,0,1,5.3,2.508.584.584,0,0,1-.293,1.089Z" transform="translate(-784.28 -379.983)" fill="#c48e61"/>
        </g>
        <g id="Group_544" data-name="Group 544" transform="translate(8.958 45.888)">
          <path id="Path_258" data-name="Path 258" d="M717,392.518a.584.584,0,0,1-.221-1.124,47.594,47.594,0,0,1,8.14-2.465c.007,0,1.252-.246,2.534-.462a.584.584,0,1,1,.194,1.152c-1.267.212-2.495.455-2.495.455a46.328,46.328,0,0,0-7.931,2.4A.59.59,0,0,1,717,392.518Z" transform="translate(-716.412 -388.459)" fill="#c48e61"/>
        </g>
        <g id="Group_545" data-name="Group 545" transform="translate(55.201 33.058)">
          <path id="Path_259" data-name="Path 259" d="M798.517,369.3a.578.578,0,0,1-.371-.134c-.41-.339-.841-.672-1.285-.991h0s-.42-.278-.959-.626a.584.584,0,1,1,.633-.982c.558.361.99.647.99.647.483.347.936.7,1.365,1.052a.584.584,0,0,1-.373,1.034Z" transform="translate(-795.634 -366.479)" fill="#c48e61"/>
        </g>
        <g id="Group_546" data-name="Group 546" transform="translate(49.586 30.084)">
          <path id="Path_260" data-name="Path 260" d="M790.251,364.308a.58.58,0,0,1-.283-.073,36.29,36.29,0,0,0-3.593-1.729.583.583,0,0,1,.449-1.077,37.226,37.226,0,0,1,3.71,1.784.584.584,0,0,1-.283,1.094Z" transform="translate(-786.015 -361.384)" fill="#c48e61"/>
        </g>
        <g id="Group_547" data-name="Group 547" transform="translate(0.831 32.668)">
          <path id="Path_261" data-name="Path 261" d="M703.074,369.013a.584.584,0,0,1-.372-1.034,26.692,26.692,0,0,1,2.885-2.081.584.584,0,1,1,.618.99,25.483,25.483,0,0,0-2.759,1.99A.582.582,0,0,1,703.074,369.013Z" transform="translate(-702.489 -365.81)" fill="#c48e61"/>
        </g>
        <g id="Group_548" data-name="Group 548" transform="translate(5.574 29.652)">
          <path id="Path_262" data-name="Path 262" d="M711.2,363.736a.584.584,0,0,1-.271-1.1,43.77,43.77,0,0,1,4.259-1.95.584.584,0,0,1,.427,1.086,42.5,42.5,0,0,0-4.144,1.9A.578.578,0,0,1,711.2,363.736Z" transform="translate(-710.615 -360.645)" fill="#c48e61"/>
        </g>
        <g id="Group_549" data-name="Group 549" transform="translate(12.042 11.379)">
          <path id="Path_263" data-name="Path 263" d="M722.572,333.153a.876.876,0,0,1-.263-1.711q.5-.157,1.006-.3l1.7-.462c1.469-.372,2.981-.687,4.508-.938.915-.151,1.858-.282,2.8-.392a.876.876,0,0,1,.2,1.74c-.916.106-1.832.233-2.721.38-1.477.243-2.94.547-4.347.9l-1.669.454c-.311.091-.635.189-.954.29A.878.878,0,0,1,722.572,333.153Z" transform="translate(-721.696 -329.34)" fill="#fff"/>
        </g>
        <g id="Group_550" data-name="Group 550" transform="translate(6.867 14.747)">
          <path id="Path_264" data-name="Path 264" d="M713.706,341.317a.876.876,0,0,1-.373-1.668c.947-.444,1.952-.867,2.987-1.255l.056-.02.09-.033a56.016,56.016,0,0,1,19.252-3.231q.489,0,.976.007c1.1.018,2.2.062,3.259.134a.876.876,0,0,1-.117,1.748c-1.033-.07-2.1-.114-3.168-.13q-.472-.007-.95-.007a54.267,54.267,0,0,0-18.649,3.124l-.085.031c-1.04.39-2,.794-2.906,1.218A.871.871,0,0,1,713.706,341.317Z" transform="translate(-712.83 -335.109)" fill="#fff"/>
        </g>
        <g id="Group_551" data-name="Group 551" transform="translate(18.254 37.3)">
          <path id="Path_265" data-name="Path 265" d="M760.505,377.9a.9.9,0,0,1-.26-.039,56.027,56.027,0,0,0-16.406-2.363c-1.986,0-3.976.1-5.916.287q-.6.06-1.2.13c-1.132.135-2.259.3-3.352.5a.875.875,0,0,1-.312-1.723c1.127-.2,2.29-.379,3.457-.518q.615-.073,1.237-.134c2-.2,4.044-.295,6.087-.295a57.81,57.81,0,0,1,16.926,2.442.876.876,0,0,1-.26,1.712Z" transform="translate(-732.338 -373.746)" fill="#fff"/>
        </g>
        <g id="Group_552" data-name="Group 552" transform="translate(20.302 41.057)">
          <path id="Path_266" data-name="Path 266" d="M758.537,383.4a.886.886,0,0,1-.194-.022c-1.471-.335-3.262-.651-3.28-.653a59.13,59.13,0,0,0-9.764-.8c-1.2,0-2.411.036-3.6.1-.242.015-.483.03-.724.047-1.388.1-2.778.246-4.133.439a.876.876,0,1,1-.248-1.734c1.4-.2,2.827-.351,4.255-.452q.37-.026.745-.048c1.221-.072,2.465-.108,3.7-.108a60.915,60.915,0,0,1,10.06.822c.082.014,1.858.327,3.372.671a.876.876,0,0,1-.193,1.73Z" transform="translate(-735.847 -380.182)" fill="#fff"/>
        </g>
        <g id="Group_553" data-name="Group 553" transform="translate(22.45 44.819)">
          <path id="Path_267" data-name="Path 267" d="M757.186,389.262a.9.9,0,0,1-.153-.013c-.811-.143-1.637-.269-2.457-.376a60.961,60.961,0,0,0-8.96-.483c-1.717.034-3.441.14-5.123.317a.876.876,0,1,1-.184-1.742c1.732-.182,3.505-.292,5.272-.327a62.65,62.65,0,0,1,9.22.5c.846.109,1.7.24,2.536.387a.875.875,0,0,1-.151,1.738Z" transform="translate(-739.526 -386.628)" fill="#fff"/>
        </g>
        <g id="Group_554" data-name="Group 554" transform="translate(10.425 22.266)">
          <path id="Path_268" data-name="Path 268" d="M719.8,352.744a.875.875,0,0,1-.312-1.693l.194-.074c1.135-.4,2.3-.759,3.485-1.077h0l.12-.031h0a58.372,58.372,0,0,1,14.96-1.875,59.222,59.222,0,0,1,13.542,1.52c1.238.291,2.458.627,3.627,1a.876.876,0,1,1-.529,1.669c-1.127-.357-2.3-.68-3.5-.961a57.485,57.485,0,0,0-13.141-1.473,56.594,56.594,0,0,0-14.513,1.817h0l-.113.03c-1.144.306-2.268.654-3.343,1.031l-.173.066A.873.873,0,0,1,719.8,352.744Z" transform="translate(-718.925 -347.991)" fill="#fff"/>
        </g>
        <g id="Group_555" data-name="Group 555" transform="translate(14.265 29.78)">
          <path id="Path_269" data-name="Path 269" d="M763.758,367.441a.872.872,0,0,1-.39-.092c-6.127-3.053-14.072-4.734-22.374-4.734a58.941,58.941,0,0,0-10.261.883l-.131.023c-.813.146-1.627.312-2.413.491q-.8.185-1.587.389a.875.875,0,0,1-.446-1.693q.809-.214,1.641-.4c.813-.187,1.655-.358,2.5-.51l.077-.014a60.8,60.8,0,0,1,10.619-.919c8.568,0,16.791,1.746,23.155,4.918a.876.876,0,0,1-.391,1.659Z" transform="translate(-725.504 -360.863)" fill="#fff"/>
        </g>
        <g id="Group_556" data-name="Group 556" transform="translate(16.212 33.542)">
          <path id="Path_270" data-name="Path 270" d="M763.2,373.039a.871.871,0,0,1-.347-.072,52.46,52.46,0,0,0-20.6-3.907,60.14,60.14,0,0,0-7.717.492.847.847,0,0,1-.169.04q-1.04.142-2.054.316c-.8.139-1.606.3-2.4.475a.876.876,0,0,1-.377-1.71c.823-.181,1.658-.347,2.482-.489.58-.1,1.186-.2,1.8-.283a.851.851,0,0,1,.178-.043,61.729,61.729,0,0,1,8.255-.548,54.218,54.218,0,0,1,21.3,4.05.876.876,0,0,1-.348,1.679Z" transform="translate(-728.84 -367.309)" fill="#fff"/>
        </g>
        <g id="Group_557" data-name="Group 557" transform="translate(8.556 18.504)">
          <path id="Path_271" data-name="Path 271" d="M716.6,347.013a.876.876,0,0,1-.307-1.7l2.6-.972c.295-.1.562-.187.831-.271.29-.093.583-.182.878-.27a58.28,58.28,0,0,1,16.322-2.258,62.251,62.251,0,0,1,7.335.43c.979.117,1.948.257,2.882.417a.876.876,0,1,1-.3,1.726c-.905-.155-1.845-.291-2.795-.405a60.6,60.6,0,0,0-7.127-.417,56.506,56.506,0,0,0-15.823,2.185c-.284.084-.568.172-.848.26q-.391.124-.776.254l-2.569.961A.871.871,0,0,1,716.6,347.013Z" transform="translate(-715.723 -341.546)" fill="#fff"/>
        </g>
        <g id="Group_558" data-name="Group 558" transform="translate(12.385 26.018)">
          <path id="Path_272" data-name="Path 272" d="M757.381,358.932a.874.874,0,0,1-.281-.046,55.07,55.07,0,0,0-17.461-2.717,56.018,56.018,0,0,0-16.224,2.316.875.875,0,1,1-.514-1.674,57.781,57.781,0,0,1,16.738-2.394,56.852,56.852,0,0,1,18.023,2.809.876.876,0,0,1-.281,1.705Z" transform="translate(-722.283 -354.418)" fill="#fff"/>
        </g>
        <g id="Group_559" data-name="Group 559" transform="translate(33.318 0.137)">
          <path id="Path_273" data-name="Path 273" d="M759.224,311.282l-.043,0-.491-.034a.585.585,0,0,1-.545-.621.592.592,0,0,1,.621-.544l.5.035a.584.584,0,0,1-.041,1.166Z" transform="translate(-758.145 -310.081)" fill="#adadad"/>
        </g>
        <g id="Group_560" data-name="Group 560" transform="translate(24.106 0)">
          <path id="Path_274" data-name="Path 274" d="M742.946,311.219a.584.584,0,0,1-.047-1.166,63.17,63.17,0,0,1,9.3-.069.584.584,0,0,1,.545.62.592.592,0,0,1-.62.545,61.649,61.649,0,0,0-9.127.068Z" transform="translate(-742.363 -309.846)" fill="#adadad"/>
        </g>
        <g id="Group_561" data-name="Group 561" transform="translate(27.31 3.764)">
          <path id="Path_275" data-name="Path 275" d="M760.462,318.3a.552.552,0,0,1-.1-.009c-.769-.135-1.471-.24-2.086-.312a58.448,58.448,0,0,0-8.971-.51c-.289.006-.577.012-.864.014h0a.584.584,0,0,1,0-1.167c.281,0,.563-.008.845-.014a60.238,60.238,0,0,1,9.14.519c.628.073,1.352.181,2.145.321a.584.584,0,0,1-.1,1.158Z" transform="translate(-747.853 -316.294)" fill="#adadad"/>
        </g>
        <g id="Group_562" data-name="Group 562" transform="translate(41.803 5.097)">
          <path id="Path_276" data-name="Path 276" d="M779.8,321.668a.578.578,0,0,1-.206-.038,46.785,46.785,0,0,0-6.134-1.828l-.318-.072a.583.583,0,1,1,.25-1.14l.331.074A48.066,48.066,0,0,1,780,320.538a.584.584,0,0,1-.206,1.13Z" transform="translate(-772.681 -318.577)" fill="#adadad"/>
        </g>
        <g id="Group_563" data-name="Group 563" transform="translate(12.568 3.884)">
          <path id="Path_277" data-name="Path 277" d="M723.18,319.928a.584.584,0,0,1-.173-1.141,53.866,53.866,0,0,1,9.823-2.021c.028,0,1.118-.16,2.651-.267a.593.593,0,0,1,.623.542.585.585,0,0,1-.542.623c-1.487.1-2.573.257-2.583.259a52.77,52.77,0,0,0-9.627,1.978A.6.6,0,0,1,723.18,319.928Z" transform="translate(-722.596 -316.499)" fill="#adadad"/>
        </g>
        <g id="Group_564" data-name="Group 564" transform="translate(34.519 7.776)">
          <path id="Path_278" data-name="Path 278" d="M775.572,327.715a.581.581,0,0,1-.219-.043,49.022,49.022,0,0,0-11.859-3.06s-1.223-.147-2.758-.279a.584.584,0,0,1-.531-.632.575.575,0,0,1,.632-.531c1.556.134,2.793.283,2.806.284a50.2,50.2,0,0,1,12.149,3.137.584.584,0,0,1-.219,1.125Z" transform="translate(-760.202 -323.166)" fill="#adadad"/>
        </g>
        <g id="Group_565" data-name="Group 565" transform="translate(21.04 7.52)">
          <path id="Path_279" data-name="Path 279" d="M737.693,324.434a.584.584,0,0,1-.077-1.162,62.479,62.479,0,0,1,9.988-.519.584.584,0,1,1-.033,1.167,60.8,60.8,0,0,0-9.8.509A.609.609,0,0,1,737.693,324.434Z" transform="translate(-737.11 -322.728)" fill="#adadad"/>
        </g>
        <g id="Group_566" data-name="Group 566" transform="translate(6.405 8.447)">
          <path id="Path_280" data-name="Path 280" d="M712.623,329.379a.584.584,0,0,1-.26-1.107,44.945,44.945,0,0,1,10.619-3.611s1.128-.246,1.614-.334a.583.583,0,1,1,.21,1.148c-.474.087-1.576.327-1.577.327a43.737,43.737,0,0,0-10.346,3.515A.573.573,0,0,1,712.623,329.379Z" transform="translate(-712.039 -324.317)" fill="#adadad"/>
        </g>
        <g id="Group_567" data-name="Group 567" transform="translate(39.943 12.221)">
          <path id="Path_281" data-name="Path 281" d="M785.708,337.945a.576.576,0,0,1-.327-.1,35.678,35.678,0,0,0-9.176-4.335,46,46,0,0,0-6.228-1.569.584.584,0,0,1,.2-1.149,47.11,47.11,0,0,1,6.386,1.608,36.846,36.846,0,0,1,9.471,4.481.583.583,0,0,1-.329,1.066Z" transform="translate(-769.495 -330.782)" fill="#adadad"/>
        </g>
        <g id="Group_568" data-name="Group 568" transform="translate(25.017 11.278)">
          <path id="Path_282" data-name="Path 282" d="M755.858,330.752a.556.556,0,0,1-.069,0,60.39,60.39,0,0,0-6.686-.415c-.01,0-1.482,0-3,.063l-1.563.078a.584.584,0,0,1-.058-1.166l1.569-.078c1.55-.061,3.043-.064,3.058-.064a61.909,61.909,0,0,1,6.82.423.584.584,0,0,1-.068,1.163Z" transform="translate(-743.925 -329.166)" fill="#adadad"/>
        </g>
        <g id="Group_569" data-name="Group 569" transform="translate(1.933 14.702)">
          <path id="Path_283" data-name="Path 283" d="M704.962,340.308a.584.584,0,0,1-.348-1.053,33.574,33.574,0,0,1,7.776-4.182.584.584,0,0,1,.424,1.088,32.427,32.427,0,0,0-7.5,4.033A.581.581,0,0,1,704.962,340.308Z" transform="translate(-704.377 -335.033)" fill="#adadad"/>
        </g>
        <g id="Group_570" data-name="Group 570" transform="translate(47 17.817)">
          <path id="Path_284" data-name="Path 284" d="M793.264,347.655a.581.581,0,0,1-.389-.149,31.8,31.8,0,0,0-10.894-6,.583.583,0,0,1,.376-1.1,32.938,32.938,0,0,1,11.3,6.236.584.584,0,0,1-.389,1.019Z" transform="translate(-781.585 -340.368)" fill="#adadad"/>
        </g>
        <g id="Group_571" data-name="Group 571" transform="translate(36.136 15.431)">
          <path id="Path_285" data-name="Path 285" d="M770.264,338.631a.586.586,0,0,1-.138-.016,54.25,54.25,0,0,0-5.506-1.029q-.56-.075-1.13-.141a.583.583,0,1,1,.134-1.159c.386.044.771.092,1.152.143a55.214,55.214,0,0,1,5.625,1.052.583.583,0,0,1-.137,1.151Z" transform="translate(-762.973 -336.281)" fill="#adadad"/>
        </g>
        <g id="Group_572" data-name="Group 572" transform="translate(54.814 25.232)">
          <path id="Path_286" data-name="Path 286" d="M799.084,356.926a.58.58,0,0,1-.4-.155,24.12,24.12,0,0,0-3.444-2.623.584.584,0,1,1,.626-.987,25.3,25.3,0,0,1,3.611,2.752.583.583,0,0,1-.4,1.012Z" transform="translate(-794.972 -353.071)" fill="#adadad"/>
        </g>
        <g id="Group_573" data-name="Group 573" transform="translate(42.198 20.219)">
          <path id="Path_287" data-name="Path 287" d="M785.033,349.761a.576.576,0,0,1-.283-.073q-.636-.353-1.308-.687a51.392,51.392,0,0,0-4.8-1.994,47.937,47.937,0,0,0-4.83-1.369.584.584,0,0,1,.26-1.138,49.137,49.137,0,0,1,4.953,1.4,51.374,51.374,0,0,1,4.938,2.051q.7.345,1.356.712a.584.584,0,0,1-.284,1.094Z" transform="translate(-773.358 -344.484)" fill="#adadad"/>
        </g>
        <g id="Group_574" data-name="Group 574" transform="translate(0 25.69)">
          <path id="Path_288" data-name="Path 288" d="M701.649,357.252a.584.584,0,0,1-.4-1.013,24.677,24.677,0,0,1,2.9-2.283.584.584,0,1,1,.654.967,23.5,23.5,0,0,0-2.766,2.175A.579.579,0,0,1,701.649,357.252Z" transform="translate(-701.065 -353.856)" fill="#adadad"/>
        </g>
        <g id="Group_575" data-name="Group 575" transform="translate(54.34 36.212)">
          <path id="Path_289" data-name="Path 289" d="M796.988,374.578a.582.582,0,0,1-.351-.118c-.54-.407-1.117-.8-1.713-1.184l-.5-.318a.584.584,0,1,1,.631-.982l.494.316c.62.394,1.222.81,1.787,1.236a.584.584,0,0,1-.351,1.05Z" transform="translate(-794.16 -371.883)" fill="#adadad"/>
        </g>
        <g id="Group_576" data-name="Group 576" transform="translate(1.757 32.766)">
          <path id="Path_290" data-name="Path 290" d="M704.66,372.12a.584.584,0,0,1-.351-1.05,34.272,34.272,0,0,1,9.114-4.751s.313-.111.923-.311a.584.584,0,1,1,.364,1.109c-.588.193-.891.3-.895.3a33.148,33.148,0,0,0-8.8,4.583A.581.581,0,0,1,704.66,372.12Z" transform="translate(-704.076 -365.978)" fill="#adadad"/>
        </g>
        <g id="Group_577" data-name="Group 577" transform="translate(52.375 38.877)">
          <path id="Path_291" data-name="Path 291" d="M794.355,379.362a.581.581,0,0,1-.323-.1,30.511,30.511,0,0,0-2.923-1.713.584.584,0,1,1,.535-1.038,31.5,31.5,0,0,1,3.036,1.779.584.584,0,0,1-.325,1.069Z" transform="translate(-790.793 -376.448)" fill="#adadad"/>
        </g>
        <g id="Group_578" data-name="Group 578" transform="translate(7.622 35.954)">
          <path id="Path_292" data-name="Path 292" d="M714.708,374.707a.584.584,0,0,1-.239-1.117c.89-.4,2.111-.858,2.163-.877,1.193-.459,2.452-.88,3.739-1.25a.584.584,0,0,1,.323,1.122c-1.254.361-2.481.771-3.647,1.219-.016.006-1.244.469-2.1.852A.6.6,0,0,1,714.708,374.707Z" transform="translate(-714.123 -371.44)" fill="#adadad"/>
        </g>
        <g id="Group_579" data-name="Group 579" transform="translate(2.99 39.484)">
          <path id="Path_293" data-name="Path 293" d="M706.774,379.789a.584.584,0,0,1-.28-1.1c.593-.392,1.212-.771,1.841-1.126a.584.584,0,0,1,.574,1.017c-.62.35-1.23.723-1.812,1.11A.584.584,0,0,1,706.774,379.789Z" transform="translate(-706.188 -377.488)" fill="#adadad"/>
        </g>
        <g id="Group_580" data-name="Group 580" transform="translate(4.559 39.204)">
          <path id="Path_294" data-name="Path 294" d="M709.46,382.374a.584.584,0,0,1-.292-1.089,40.357,40.357,0,0,1,8.98-3.735c.018,0,1.311-.335,2.1-.525a.584.584,0,1,1,.276,1.134c-.78.189-2.065.517-2.065.517a39.125,39.125,0,0,0-8.7,3.62A.58.58,0,0,1,709.46,382.374Z" transform="translate(-708.875 -377.008)" fill="#adadad"/>
        </g>
        <g id="Group_581" data-name="Group 581" transform="translate(6.514 44.012)">
          <path id="Path_295" data-name="Path 295" d="M712.81,388.516a.583.583,0,0,1-.259-1.107c.726-.358,1.483-.7,2.251-1.021.009,0,1.958-.775,2.816-1.1a.584.584,0,1,1,.418,1.09c-.854.328-2.795,1.1-2.8,1.1-.736.306-1.47.639-2.174.986A.581.581,0,0,1,712.81,388.516Z" transform="translate(-712.225 -385.246)" fill="#adadad"/>
        </g>
        <g id="Group_582" data-name="Group 582" transform="translate(42.71 46.648)">
          <path id="Path_296" data-name="Path 296" d="M781.493,393.06a.589.589,0,0,1-.221-.043c-.695-.284-1.418-.556-2.147-.808-.011,0-2.523-.8-3.4-1.03l-1.048-.268a.584.584,0,0,1,.287-1.132l1.054.27c.908.234,3.372,1.019,3.477,1.051.763.264,1.506.544,2.221.836a.584.584,0,0,1-.221,1.124Z" transform="translate(-774.235 -389.761)" fill="#adadad"/>
        </g>
        <g id="Group_583" data-name="Group 583" transform="translate(40.01 49.839)">
          <path id="Path_297" data-name="Path 297" d="M776.431,397.956a.6.6,0,0,1-.179-.028,50.07,50.07,0,0,0-6.166-1.542.584.584,0,0,1,.213-1.148,51.333,51.333,0,0,1,6.311,1.578.584.584,0,0,1-.179,1.139Z" transform="translate(-769.609 -395.228)" fill="#adadad"/>
        </g>
        <g id="Group_584" data-name="Group 584" transform="translate(24.89 48.868)">
          <path id="Path_298" data-name="Path 298" d="M755.239,395.091a.6.6,0,0,1-.064,0,61.831,61.831,0,0,0-9.6-.284l-1.247.089a.584.584,0,0,1-.083-1.165l1.26-.089a62.608,62.608,0,0,1,9.794.288.584.584,0,0,1-.062,1.164Z" transform="translate(-743.706 -393.564)" fill="#adadad"/>
        </g>
        <g id="Group_585" data-name="Group 585" transform="translate(12.1 49.438)">
          <path id="Path_299" data-name="Path 299" d="M722.379,397.67a.584.584,0,0,1-.179-1.139,52.764,52.764,0,0,1,8.811-1.984.584.584,0,1,1,.16,1.156,51.649,51.649,0,0,0-8.614,1.939A.6.6,0,0,1,722.379,397.67Z" transform="translate(-721.795 -394.541)" fill="#adadad"/>
        </g>
        <g id="Group_586" data-name="Group 586" transform="translate(30.134 52.637)">
          <path id="Path_300" data-name="Path 300" d="M765.06,402.544a.564.564,0,0,1-.128-.014,57.671,57.671,0,0,0-11.667-1.341.584.584,0,0,1,.009-1.167h.009a58.815,58.815,0,0,1,11.9,1.369.583.583,0,0,1-.127,1.153Z" transform="translate(-752.691 -400.022)" fill="#adadad"/>
        </g>
        <g id="Group_587" data-name="Group 587" transform="translate(16.425 52.75)">
          <path id="Path_301" data-name="Path 301" d="M729.792,402.625a.584.584,0,0,1-.1-1.16,57.76,57.76,0,0,1,8.946-1.249.584.584,0,1,1,.072,1.166,56.58,56.58,0,0,0-8.795,1.229A.55.55,0,0,1,729.792,402.625Z" transform="translate(-729.205 -400.215)" fill="#adadad"/>
        </g>
        <g id="Group_588" data-name="Group 588" transform="translate(24.563 56.388)">
          <path id="Path_302" data-name="Path 302" d="M743.73,407.785a.584.584,0,0,1-.043-1.166,63.27,63.27,0,0,1,9.3,0,.583.583,0,0,1,.539.625.577.577,0,0,1-.625.539,62.236,62.236,0,0,0-9.131,0Z" transform="translate(-743.146 -406.448)" fill="#adadad"/>
        </g>
        <g id="Group_589" data-name="Group 589" transform="translate(0.236 26.673)">
          <path id="Path_303" data-name="Path 303" d="M702.054,361.5a.582.582,0,0,1-.584-.581v-.005a.583.583,0,0,1,.194-.435,28.408,28.408,0,0,1,6.422-4.232,12.427,12.427,0,0,1,1.373-.658.584.584,0,1,1,.463,1.072,11.34,11.34,0,0,0-1.241.591c-.017.01-.038.023-.055.031a27.34,27.34,0,0,0-6.159,4.045A.583.583,0,0,1,702.054,361.5Z" transform="translate(-701.47 -355.54)" fill="#adadad"/>
        </g>
        <g id="Group_590" data-name="Group 590" transform="translate(0.247 20.942)">
          <path id="Path_304" data-name="Path 304" d="M702.073,349.884a.584.584,0,0,1-.389-1.019,24.742,24.742,0,0,1,4.267-3.064.584.584,0,0,1,.585,1.01,23.575,23.575,0,0,0-4.074,2.923A.582.582,0,0,1,702.073,349.884Z" transform="translate(-701.489 -345.722)" fill="#adadad"/>
        </g>
        <g id="Group_591" data-name="Group 591" transform="translate(13.866 42.498)">
          <path id="Path_305" data-name="Path 305" d="M725.4,384.668a.584.584,0,0,1-.155-1.146c.968-.269,2.287-.582,3.618-.859a.584.584,0,1,1,.237,1.144c-1.307.271-2.6.578-3.543.841A.608.608,0,0,1,725.4,384.668Z" transform="translate(-724.82 -382.651)" fill="#adadad"/>
        </g>
        <g id="Group_592" data-name="Group 592" transform="translate(45.561 43.688)">
          <path id="Path_306" data-name="Path 306" d="M785.976,388.291a.58.58,0,0,1-.257-.06,41.516,41.516,0,0,0-6.187-2.4.584.584,0,0,1,.344-1.116,42.7,42.7,0,0,1,6.359,2.468.584.584,0,0,1-.259,1.107Z" transform="translate(-779.12 -384.689)" fill="#adadad"/>
        </g>
        <g id="Group_593" data-name="Group 593" transform="translate(4.445 23.752)">
          <path id="Path_307" data-name="Path 307" d="M709.266,352.614a.584.584,0,0,1-.3-1.087c.7-.409,1.067-.608,1.717-.929a.584.584,0,1,1,.516,1.047c-.621.307-.974.5-1.644.891A.587.587,0,0,1,709.266,352.614Z" transform="translate(-708.681 -350.537)" fill="#adadad"/>
        </g>
      </g>
      <g id="Group_24972" data-name="Group 24972" transform="translate(0 61.842)">
        <g id="Group_595" data-name="Group 595" transform="translate(0 2.269)">
          <path id="Path_308" data-name="Path 308" d="M477.481,353.1l.036-.087a3.768,3.768,0,0,0,.181-.543c.043-.175.082-.364.119-.573s.056-.424.079-.654c.02-.256.028-.483.028-.692a2.58,2.58,0,0,0-.241-1.15,2.192,2.192,0,0,0-.712-.817,2.712,2.712,0,0,0-.786-.391,3.974,3.974,0,0,0-1.537-.112,3.288,3.288,0,0,0-.52.1,3.626,3.626,0,0,0-.477.163c-.144.06-.328.15-.569.28l-.118.066.39.859.141-.093a3.031,3.031,0,0,1,.834-.4,2.722,2.722,0,0,1,1.51-.011,1.949,1.949,0,0,1,.531.243,1.286,1.286,0,0,1,.435.514,1.561,1.561,0,0,1,.118.619,9.6,9.6,0,0,1-.059,1.191,4.067,4.067,0,0,1-.11.593H470.8l0-4.154H469.8l0,4.154H467l0-4.584h-.989v.43h-.322a4.969,4.969,0,0,0-1.416.186,3.54,3.54,0,0,0-1.1.523,2.366,2.366,0,0,0-.72.805,2.105,2.105,0,0,0-.249,1.011,2.157,2.157,0,0,0,.3,1.157,2.4,2.4,0,0,0,.794.788,3.433,3.433,0,0,0,1.114.444,5.79,5.79,0,0,0,1.278.136h11.795Zm-12.072-4.155h.6v3.259h-.6a3.174,3.174,0,0,1-.89-.119,2.321,2.321,0,0,1-.71-.327,1.46,1.46,0,0,1-.454-.5,1.35,1.35,0,0,1-.167-.679,1.24,1.24,0,0,1,.178-.65,1.642,1.642,0,0,1,.489-.511,2.716,2.716,0,0,1,.72-.342,2.833,2.833,0,0,1,.833-.127" transform="translate(-462.198 -347.624)" fill="#fff"/>
        </g>
        <g id="Group_596" data-name="Group 596" transform="translate(15.775 2.699)">
          <path id="Path_309" data-name="Path 309" d="M490.648,348.361l0,5.217a2.922,2.922,0,0,1-.023.339.712.712,0,0,1-.074.271.388.388,0,0,1-.147.161.526.526,0,0,1-.284.059,1.344,1.344,0,0,1-.4-.093l-.124-.046-.376.829.145.053a2.09,2.09,0,0,0,.714.153,1.86,1.86,0,0,0,.775-.139,1.157,1.157,0,0,0,.494-.4,1.5,1.5,0,0,0,.232-.566,3.173,3.173,0,0,0,.056-.622l0-5.217Z" transform="translate(-489.223 -348.361)" fill="#fff"/>
        </g>
        <g id="Group_597" data-name="Group 597" transform="translate(19.472 0.29)">
          <path id="Path_310" data-name="Path 310" d="M505.97,345.13h.978v-.9H504.98l0,6.563h-2.047c.031-.155.063-.35.1-.59a7.542,7.542,0,0,0,.071-1.063,2.573,2.573,0,0,0-.243-1.151,2.158,2.158,0,0,0-.71-.817,2.684,2.684,0,0,0-.786-.391,3.033,3.033,0,0,0-.932-.144,5.826,5.826,0,0,0-.605.031,3.3,3.3,0,0,0-.516.1,3.7,3.7,0,0,0-.48.164,6.321,6.321,0,0,0-.569.28l-.121.065.4.859.139-.093a2.922,2.922,0,0,1,.831-.4,2.72,2.72,0,0,1,1.509-.012,1.949,1.949,0,0,1,.532.243,1.312,1.312,0,0,1,.437.514,1.6,1.6,0,0,1,.116.619,9.57,9.57,0,0,1-.059,1.19,4.608,4.608,0,0,1-.111.593h-5.385l0-6.563h-.989l0,7.46h10.412Z" transform="translate(-495.557 -344.234)" fill="#fff"/>
        </g>
        <g id="Group_598" data-name="Group 598" transform="translate(31.649 0.29)">
          <rect id="Rectangle_145" data-name="Rectangle 145" width="0.992" height="7.459" fill="#fff"/>
        </g>
        <g id="Group_599" data-name="Group 599" transform="translate(35.555 2.269)">
          <path id="Path_311" data-name="Path 311" d="M527.906,347.624h-.992v.43h-.32a4.923,4.923,0,0,0-1.412.186,3.455,3.455,0,0,0-1.1.523,2.369,2.369,0,0,0-.722.805,2.1,2.1,0,0,0-.248,1.011,2.146,2.146,0,0,0,.3,1.157,2.394,2.394,0,0,0,.794.788,3.431,3.431,0,0,0,1.113.444,5.789,5.789,0,0,0,1.277.136h1.312Zm-1.585,1.326h.6v3.259h-.6a3.181,3.181,0,0,1-.891-.119,2.308,2.308,0,0,1-.709-.327,1.48,1.48,0,0,1-.455-.5,1.364,1.364,0,0,1-.163-.679,1.23,1.23,0,0,1,.178-.65,1.63,1.63,0,0,1,.486-.511,2.736,2.736,0,0,1,.721-.342,2.826,2.826,0,0,1,.834-.127" transform="translate(-523.11 -347.624)" fill="#fff"/>
        </g>
        <g id="Group_600" data-name="Group 600" transform="translate(40.738 2.699)">
          <path id="Path_312" data-name="Path 312" d="M534.35,354.2a3.169,3.169,0,0,0,.056-.622l0-5.217h-.989l0,5.217a2.9,2.9,0,0,1-.023.339.71.71,0,0,1-.074.271.391.391,0,0,1-.147.162.528.528,0,0,1-.284.059,1.345,1.345,0,0,1-.4-.093l-.124-.046-.375.829.144.053a2.09,2.09,0,0,0,.715.153,1.868,1.868,0,0,0,.775-.139,1.157,1.157,0,0,0,.494-.4,1.478,1.478,0,0,0,.232-.566" transform="translate(-531.99 -348.361)" fill="#fff"/>
        </g>
        <g id="Group_601" data-name="Group 601" transform="translate(44.435 0.29)">
          <path id="Path_313" data-name="Path 313" d="M555.476,350.8h-2.339l0-6.563h-.989l0,6.563h-2.714l0-4.154h-.99l0,4.154H545.7c.032-.155.063-.35.1-.59a7.542,7.542,0,0,0,.071-1.063,2.575,2.575,0,0,0-.243-1.151,2.164,2.164,0,0,0-.71-.817,2.7,2.7,0,0,0-.785-.391,3.054,3.054,0,0,0-.933-.144,5.827,5.827,0,0,0-.605.031,3.332,3.332,0,0,0-.517.1,3.728,3.728,0,0,0-.48.164c-.144.06-.327.15-.568.28l-.121.065.4.859.138-.093a2.951,2.951,0,0,1,.831-.4,2.721,2.721,0,0,1,1.509-.012,1.935,1.935,0,0,1,.532.243,1.308,1.308,0,0,1,.438.514,1.611,1.611,0,0,1,.116.619,9.6,9.6,0,0,1-.059,1.19,4.651,4.651,0,0,1-.111.593h-5.384l0-6.563h-.989l0,7.46h18.14l0-6.563h.978v-.9h-1.968Z" transform="translate(-538.323 -344.234)" fill="#fff"/>
        </g>
        <g id="Group_602" data-name="Group 602" transform="translate(65.775 2.269)">
          <path id="Path_314" data-name="Path 314" d="M586.181,349.227a3.148,3.148,0,0,0-.983-.566,3.6,3.6,0,0,0-1.232-.2,3.262,3.262,0,0,0-1.187.209,3,3,0,0,0-.953.58,2.814,2.814,0,0,0-.633.859,2.359,2.359,0,0,0-.237,1.049,2.406,2.406,0,0,0,.206,1.054h-1.481l0-4.584h-.992v.43h-.32a4.923,4.923,0,0,0-1.412.186,3.459,3.459,0,0,0-1.1.523,2.368,2.368,0,0,0-.721.805,2.1,2.1,0,0,0-.248,1.011,2.145,2.145,0,0,0,.3,1.157,2.4,2.4,0,0,0,.793.788,3.445,3.445,0,0,0,1.114.444,5.787,5.787,0,0,0,1.277.136h3.505a2.988,2.988,0,0,0,.879.514,3.37,3.37,0,0,0,1.215.215,3.565,3.565,0,0,0,1.216-.2,3.058,3.058,0,0,0,.981-.556,2.736,2.736,0,0,0,.664-.845,2.4,2.4,0,0,0,.243-1.08,2.469,2.469,0,0,0-.238-1.074,2.722,2.722,0,0,0-.653-.853m-.689.641a1.656,1.656,0,0,1,.432.565,1.689,1.689,0,0,1,.156.721,1.581,1.581,0,0,1-.158.712,1.729,1.729,0,0,1-.433.56,2.025,2.025,0,0,1-.667.373,2.579,2.579,0,0,1-.855.139,2.176,2.176,0,0,1-.811-.147,2.084,2.084,0,0,1-.641-.387,1.711,1.711,0,0,1-.418-.569,1.626,1.626,0,0,1-.152-.681,1.651,1.651,0,0,1,.15-.686,1.807,1.807,0,0,1,.421-.58,2.009,2.009,0,0,1,.633-.39,2.245,2.245,0,0,1,.819-.144,2.62,2.62,0,0,1,.855.135,2.114,2.114,0,0,1,.669.379m-7.4-.919h.6v3.259h-.6a3.18,3.18,0,0,1-.891-.119,2.3,2.3,0,0,1-.709-.327,1.473,1.473,0,0,1-.455-.5,1.362,1.362,0,0,1-.164-.679,1.229,1.229,0,0,1,.178-.65,1.626,1.626,0,0,1,.486-.511,2.744,2.744,0,0,1,.72-.342,2.839,2.839,0,0,1,.835-.127" transform="translate(-574.882 -347.624)" fill="#fff"/>
        </g>
        <g id="Group_603" data-name="Group 603" transform="translate(78.94 0.29)">
          <path id="Path_315" data-name="Path 315" d="M607.532,344.233l0,6.562h-2.9l1.4-2.95a.614.614,0,0,0-.095-.067,5.555,5.555,0,0,0-1.511-.837,4.5,4.5,0,0,0-3.08,0,.21.21,0,0,0-.05.017,4.95,4.95,0,0,0-1.525.869l-.009.013a.04.04,0,0,0-.018.009l1.344,2.95H598.43v-6.562h-.994l0,7.461h11.085v-6.566h.981v-.9Zm-5.32,6.562-1.25-2.658a3.441,3.441,0,0,1,.855-.414v0a3.079,3.079,0,0,1,1.633-.126,4.452,4.452,0,0,1,.58.166,5.374,5.374,0,0,1,.535.23c.107.054.2.107.265.148l-1.264,2.658Z" transform="translate(-597.436 -344.233)" fill="#fff"/>
        </g>
        <g id="Group_604" data-name="Group 604" transform="translate(91.796 0.29)">
          <rect id="Rectangle_146" data-name="Rectangle 146" width="0.99" height="7.459" fill="#fff"/>
        </g>
        <g id="Group_605" data-name="Group 605" transform="translate(101.603 0)">
          <path id="Path_316" data-name="Path 316" d="M638.726,344.98h-1.464v-.087c0-.127.034-.175.059-.2s.091-.062.328-.062h.76v-.9h-.828a1.325,1.325,0,0,0-.986.342h0a1.3,1.3,0,0,0-.331.941v.856h2.464Z" transform="translate(-636.262 -343.737)" fill="#fff"/>
        </g>
        <g id="Group_606" data-name="Group 606" transform="translate(95.699 0.287)">
          <path id="Path_317" data-name="Path 317" d="M649.4,345.126h.981v-.9h-1.973l0,6.563h-2.03c.02-.116.046-.257.072-.429a5.465,5.465,0,0,0,.053-.789,5.052,5.052,0,0,0-.122-1.111,3.467,3.467,0,0,0-.423-1.048,2.822,2.822,0,0,0-.529-.636,3.609,3.609,0,0,0-.746-.514,4.506,4.506,0,0,0-.93-.358,4.36,4.36,0,0,0-1.089-.131,5.772,5.772,0,0,0-1.41.161,8.962,8.962,0,0,0-1.368.492l-.141.065.435.814.121-.057a8.948,8.948,0,0,1,1.046-.409,3.57,3.57,0,0,1,1.08-.162,3.921,3.921,0,0,1,1.71.333,2.157,2.157,0,0,1,.986.905,2.836,2.836,0,0,1,.308.814,4.94,4.94,0,0,1,.082.958,4.385,4.385,0,0,1-.05.639c-.029.195-.054.344-.08.466h-.952c.008-.051.019-.113.034-.193a4.117,4.117,0,0,0,.049-.639,2.986,2.986,0,0,0-.139-.942,2.039,2.039,0,0,0-.435-.751,2.071,2.071,0,0,0-.709-.489,2.424,2.424,0,0,0-.947-.172,2.45,2.45,0,0,0-.953.172,2.034,2.034,0,0,0-.716.489,2.056,2.056,0,0,0-.447.748,2.872,2.872,0,0,0-.146.944,3.327,3.327,0,0,0,.062.647q.021.111.033.184h-2.563l0-4.154h-.989l0,4.154h-2.815l0-4.154h-.99l0,4.154h-1.82l0-4.584h-.989v.43h-.322a4.967,4.967,0,0,0-1.416.186,3.535,3.535,0,0,0-1.1.523,2.373,2.373,0,0,0-.721.806,2.1,2.1,0,0,0-.248,1.011,2.145,2.145,0,0,0,.3,1.157,2.4,2.4,0,0,0,.794.788,3.428,3.428,0,0,0,1.114.444,5.783,5.783,0,0,0,1.278.136h10.041l7.951,0h1.778Zm-5.873,4.838a3.235,3.235,0,0,1-.051.585c-.014.1-.028.184-.042.246h-2.324c-.014-.065-.028-.149-.048-.254a3.567,3.567,0,0,1-.045-.577,2.1,2.1,0,0,1,.082-.6,1.311,1.311,0,0,1,.241-.46,1.015,1.015,0,0,1,.387-.289,1.319,1.319,0,0,1,.56-.1,1.227,1.227,0,0,1,.534.1,1.1,1.1,0,0,1,.381.3,1.221,1.221,0,0,1,.24.461,1.982,1.982,0,0,1,.085.6m-14.171-2.428h.6V350.8h-.6a3.185,3.185,0,0,1-.891-.118,2.313,2.313,0,0,1-.709-.327,1.479,1.479,0,0,1-.455-.5,1.35,1.35,0,0,1-.166-.679,1.24,1.24,0,0,1,.178-.65,1.664,1.664,0,0,1,.489-.511,2.739,2.739,0,0,1,.721-.342,2.823,2.823,0,0,1,.834-.127" transform="translate(-626.148 -344.229)" fill="#fff"/>
        </g>
        <g id="Group_607" data-name="Group 607" transform="translate(120.722 0.287)">
          <rect id="Rectangle_147" data-name="Rectangle 147" width="0.989" height="7.459" fill="#fff"/>
        </g>
        <g id="Group_608" data-name="Group 608" transform="translate(0.147 12.381)">
          <path id="Path_318" data-name="Path 318" d="M464.118,369.545a2.5,2.5,0,0,1-.484-.046,2.826,2.826,0,0,1-.449-.124,2.317,2.317,0,0,1-.393-.186,1.771,1.771,0,0,1-.311-.233c-.035-.035-.04-.068-.013-.1l.406-.472c.03-.035.061-.037.092-.007a2.4,2.4,0,0,0,.239.17,1.959,1.959,0,0,0,.288.151,2.23,2.23,0,0,0,.324.108,1.469,1.469,0,0,0,.36.043.95.95,0,0,0,.619-.18.57.57,0,0,0,.219-.462.5.5,0,0,0-.177-.4,1.27,1.27,0,0,0-.636-.219l-.236-.033a1.848,1.848,0,0,1-1-.4,1.105,1.105,0,0,1-.347-.868,1.4,1.4,0,0,1,.1-.55,1.189,1.189,0,0,1,.3-.426,1.352,1.352,0,0,1,.475-.271,1.919,1.919,0,0,1,.625-.1,2.573,2.573,0,0,1,.8.121,2.153,2.153,0,0,1,.646.324.064.064,0,0,1,.013.092l-.315.485a.061.061,0,0,1-.092.019,2.392,2.392,0,0,0-.531-.262,1.672,1.672,0,0,0-.537-.085.738.738,0,0,0-.521.167.559.559,0,0,0-.18.429.479.479,0,0,0,.184.383,1.291,1.291,0,0,0,.635.219l.236.033a1.813,1.813,0,0,1,.989.4,1.14,1.14,0,0,1,.34.887,1.433,1.433,0,0,1-.105.55,1.135,1.135,0,0,1-.317.439,1.547,1.547,0,0,1-.527.288,2.311,2.311,0,0,1-.727.1" transform="translate(-462.45 -364.947)" fill="#fff"/>
        </g>
        <g id="Group_609" data-name="Group 609" transform="translate(4.232 13.678)">
          <path id="Path_319" data-name="Path 319" d="M471.472,370.4a.058.058,0,0,1-.065-.065V370.1H471.4a.788.788,0,0,1-.334.265,1.346,1.346,0,0,1-.557.1,1.4,1.4,0,0,1-.41-.059.971.971,0,0,1-.337-.177.847.847,0,0,1-.229-.3.994.994,0,0,1-.085-.428.872.872,0,0,1,.337-.76,1.561,1.561,0,0,1,.927-.243h.641a.035.035,0,0,0,.04-.039v-.151a.489.489,0,0,0-.151-.4.887.887,0,0,0-.55-.125,1.3,1.3,0,0,0-.439.063.942.942,0,0,0-.281.154c-.04.03-.07.026-.092-.013l-.242-.432a.056.056,0,0,1,.013-.085,1.594,1.594,0,0,1,.459-.223,2.22,2.22,0,0,1,.661-.085,1.546,1.546,0,0,1,1.019.262,1.061,1.061,0,0,1,.3.838v2.064a.058.058,0,0,1-.065.065Zm-.779-.524a.876.876,0,0,0,.521-.131.467.467,0,0,0,.18-.406V369.1a.035.035,0,0,0-.04-.04h-.524a1.012,1.012,0,0,0-.517.1.353.353,0,0,0-.164.324q0,.392.544.393" transform="translate(-469.448 -367.169)" fill="#fff"/>
        </g>
        <g id="Group_610" data-name="Group 610" transform="translate(7.894 13.75)">
          <path id="Path_320" data-name="Path 320" d="M477.7,370.45a.058.058,0,0,1-.065-.065v-.229h-.007a1.007,1.007,0,0,1-.324.265,1.058,1.058,0,0,1-.494.1,1.114,1.114,0,0,1-.455-.088,1,1,0,0,1-.341-.246,1.106,1.106,0,0,1-.216-.37,1.4,1.4,0,0,1-.075-.469v-1.991a.058.058,0,0,1,.065-.065h.6a.058.058,0,0,1,.065.065v1.821a.8.8,0,0,0,.144.5.522.522,0,0,0,.445.19.528.528,0,0,0,.435-.19.757.757,0,0,0,.154-.491v-1.828a.058.058,0,0,1,.065-.065h.6a.058.058,0,0,1,.065.065v3.027a.058.058,0,0,1-.065.065Z" transform="translate(-475.721 -367.293)" fill="#fff"/>
        </g>
        <g id="Group_611" data-name="Group 611" transform="translate(11.457 12.453)">
          <path id="Path_321" data-name="Path 321" d="M483.942,369.525a.058.058,0,0,1-.065-.065v-.236h-.007a.832.832,0,0,1-.314.269,1.148,1.148,0,0,1-.524.1,1.2,1.2,0,0,1-.688-.19,1.055,1.055,0,0,1-.406-.57,2.144,2.144,0,0,1-.085-.376,5.029,5.029,0,0,1,0-1.029,2.168,2.168,0,0,1,.085-.377,1.053,1.053,0,0,1,.406-.57,1.2,1.2,0,0,1,.688-.19,1.14,1.14,0,0,1,.524.105.836.836,0,0,1,.314.268h.007v-1.533a.058.058,0,0,1,.065-.065h.6a.058.058,0,0,1,.065.065v4.323a.058.058,0,0,1-.065.065Zm-.721-.583a.557.557,0,0,0,.59-.406,1.451,1.451,0,0,0,.049-.242,3.557,3.557,0,0,0,0-.694,1.472,1.472,0,0,0-.049-.243.626.626,0,0,0-1.173,0,1.58,1.58,0,0,0-.049.243,3.689,3.689,0,0,0,0,.694,1.556,1.556,0,0,0,.049.242.553.553,0,0,0,.583.406" transform="translate(-481.826 -365.071)" fill="#fff"/>
        </g>
        <g id="Group_612" data-name="Group 612" transform="translate(15.328 13.75)">
          <path id="Rectangle_148" data-name="Rectangle 148" d="M.112,0h.51A.112.112,0,0,1,.734.112V3.044a.113.113,0,0,1-.113.113H.112A.112.112,0,0,1,0,3.045V.112A.112.112,0,0,1,.112,0Z" fill="#fff"/>
        </g>
        <g id="Group_613" data-name="Group 613" transform="translate(18.708 12.381)">
          <path id="Path_322" data-name="Path 322" d="M494.367,368.471c-.022-.07-.04-.14-.056-.21a2.091,2.091,0,0,1-.036-.242c-.009-.092-.016-.2-.02-.325s-.006-.274-.006-.449,0-.324.006-.448.011-.233.02-.325a2.085,2.085,0,0,1,.036-.242c.016-.07.034-.14.056-.21a1.454,1.454,0,0,1,.583-.8,1.8,1.8,0,0,1,1.009-.272,1.929,1.929,0,0,1,.57.079,1.8,1.8,0,0,1,.452.207,1.291,1.291,0,0,1,.328.3,1.513,1.513,0,0,1,.2.357.065.065,0,0,1-.026.091l-.55.243a.063.063,0,0,1-.085-.033,1.172,1.172,0,0,0-.36-.41.944.944,0,0,0-.537-.141.878.878,0,0,0-.543.154.862.862,0,0,0-.295.429,1.363,1.363,0,0,0-.036.137,1.79,1.79,0,0,0-.026.2c-.007.079-.011.174-.013.285s0,.246,0,.4,0,.292,0,.4.007.206.013.285a1.806,1.806,0,0,0,.026.2,1.352,1.352,0,0,0,.036.137.864.864,0,0,0,.295.429.878.878,0,0,0,.543.154.979.979,0,0,0,.524-.141.751.751,0,0,0,.322-.416,1.6,1.6,0,0,0,.052-.246,2.465,2.465,0,0,0,.02-.331.035.035,0,0,0-.04-.039H496.1a.058.058,0,0,1-.065-.065v-.524a.058.058,0,0,1,.065-.065h1.474a.058.058,0,0,1,.066.065v.386c0,.183-.009.364-.026.54a2.262,2.262,0,0,1-.079.436,1.483,1.483,0,0,1-.58.81,1.715,1.715,0,0,1-.992.284,1.79,1.79,0,0,1-1.009-.271,1.453,1.453,0,0,1-.583-.8" transform="translate(-494.249 -364.947)" fill="#fff"/>
        </g>
        <g id="Group_614" data-name="Group 614" transform="translate(22.894 13.678)">
          <path id="Path_323" data-name="Path 323" d="M502.847,370.471a1.463,1.463,0,0,1-.845-.233,1.188,1.188,0,0,1-.471-.645,1.976,1.976,0,0,1-.082-.337,2.808,2.808,0,0,1-.03-.435,3.237,3.237,0,0,1,.027-.439,1.757,1.757,0,0,1,.078-.34A1.179,1.179,0,0,1,502,367.4a1.58,1.58,0,0,1,1.644,0,1.194,1.194,0,0,1,.468.639c.018.057.034.113.047.17s.023.122.033.2.016.158.02.252.006.2.006.33c0,.044-.023.066-.071.066H502.2a.035.035,0,0,0-.04.039.528.528,0,0,0,.014.131.625.625,0,0,0,.033.111.673.673,0,0,0,.707.479,1.029,1.029,0,0,0,.445-.085.932.932,0,0,0,.295-.217c.035-.035.068-.039.1-.013l.387.34a.061.061,0,0,1,.007.092,1.553,1.553,0,0,1-.531.386,1.824,1.824,0,0,1-.767.151m.629-2a.831.831,0,0,0-.04-.269.568.568,0,0,0-.229-.3.685.685,0,0,0-.386-.108.7.7,0,0,0-.394.108.569.569,0,0,0-.229.3.863.863,0,0,0-.04.269.035.035,0,0,0,.04.039h1.238a.035.035,0,0,0,.04-.039" transform="translate(-501.419 -367.17)" fill="#fff"/>
        </g>
        <g id="Group_615" data-name="Group 615" transform="translate(26.608 13.678)">
          <path id="Path_324" data-name="Path 324" d="M509.78,370.4a.058.058,0,0,1-.065-.065v-1.821a.777.777,0,0,0-.151-.5.535.535,0,0,0-.445-.19.545.545,0,0,0-.445.19.754.754,0,0,0-.158.5v1.821a.058.058,0,0,1-.065.065h-.6a.058.058,0,0,1-.065-.065v-3.027a.057.057,0,0,1,.065-.065h.6a.058.058,0,0,1,.065.065v.229h.006a.856.856,0,0,1,.311-.259,1.263,1.263,0,0,1,.977-.019,1.02,1.02,0,0,1,.344.246,1.072,1.072,0,0,1,.219.37,1.4,1.4,0,0,1,.075.468v1.992a.058.058,0,0,1-.065.065Z" transform="translate(-507.783 -367.169)" fill="#fff"/>
        </g>
        <g id="Group_616" data-name="Group 616" transform="translate(30.158 13.678)">
          <path id="Path_325" data-name="Path 325" d="M515.293,370.471a1.461,1.461,0,0,1-.845-.233,1.19,1.19,0,0,1-.472-.645,1.988,1.988,0,0,1-.082-.337,2.875,2.875,0,0,1-.029-.435,3.226,3.226,0,0,1,.026-.439,1.794,1.794,0,0,1,.078-.34,1.175,1.175,0,0,1,.475-.643,1.581,1.581,0,0,1,1.644,0,1.2,1.2,0,0,1,.468.639c.018.057.033.113.046.17a1.935,1.935,0,0,1,.033.2c.009.074.015.158.02.252s.006.2.006.33c0,.044-.024.066-.072.066h-1.945a.035.035,0,0,0-.04.039.57.57,0,0,0,.013.131.717.717,0,0,0,.033.111.675.675,0,0,0,.708.479,1.028,1.028,0,0,0,.445-.085.944.944,0,0,0,.295-.217c.035-.035.068-.039.1-.013l.386.34a.06.06,0,0,1,.007.092,1.546,1.546,0,0,1-.531.386,1.818,1.818,0,0,1-.766.151m.629-2a.851.851,0,0,0-.039-.269.575.575,0,0,0-.229-.3.689.689,0,0,0-.387-.108.7.7,0,0,0-.393.108.566.566,0,0,0-.229.3.843.843,0,0,0-.04.269.035.035,0,0,0,.04.039h1.238a.035.035,0,0,0,.039-.039" transform="translate(-513.865 -367.17)" fill="#fff"/>
        </g>
        <g id="Group_617" data-name="Group 617" transform="translate(33.873 13.678)">
          <path id="Path_326" data-name="Path 326" d="M520.293,370.4a.058.058,0,0,1-.065-.065v-3.027a.058.058,0,0,1,.065-.065h.6a.058.058,0,0,1,.065.065v.269h.006a.819.819,0,0,1,.314-.295,1.039,1.039,0,0,1,.5-.112.978.978,0,0,1,.364.069.876.876,0,0,1,.3.193.065.065,0,0,1,.013.092l-.347.439a.058.058,0,0,1-.092.013,1.059,1.059,0,0,0-.223-.111.722.722,0,0,0-.242-.04.508.508,0,0,0-.455.21,1.047,1.047,0,0,0-.141.589v1.71a.058.058,0,0,1-.065.065Z" transform="translate(-520.228 -367.169)" fill="#fff"/>
        </g>
        <g id="Group_618" data-name="Group 618" transform="translate(36.512 13.678)">
          <path id="Path_327" data-name="Path 327" d="M526.774,370.4a.058.058,0,0,1-.065-.065V370.1H526.7a.784.784,0,0,1-.334.265,1.346,1.346,0,0,1-.557.1,1.4,1.4,0,0,1-.41-.059.967.967,0,0,1-.337-.177.843.843,0,0,1-.229-.3.994.994,0,0,1-.085-.428.873.873,0,0,1,.337-.76,1.56,1.56,0,0,1,.927-.243h.642a.035.035,0,0,0,.039-.039v-.151a.489.489,0,0,0-.151-.4.888.888,0,0,0-.55-.125,1.3,1.3,0,0,0-.439.063.95.95,0,0,0-.281.154c-.04.03-.07.026-.092-.013l-.242-.432a.056.056,0,0,1,.014-.085,1.579,1.579,0,0,1,.458-.223,2.219,2.219,0,0,1,.662-.085,1.547,1.547,0,0,1,1.019.262,1.062,1.062,0,0,1,.3.838v2.064a.058.058,0,0,1-.066.065Zm-.779-.524a.877.877,0,0,0,.521-.131.468.468,0,0,0,.18-.406V369.1a.035.035,0,0,0-.039-.04h-.524a1.013,1.013,0,0,0-.518.1.353.353,0,0,0-.164.324q0,.392.544.393" transform="translate(-524.75 -367.169)" fill="#fff"/>
        </g>
        <g id="Group_619" data-name="Group 619" transform="translate(40.2 12.453)">
          <path id="Path_328" data-name="Path 328" d="M531.932,369.564a.857.857,0,0,1-.665-.222,1,1,0,0,1-.2-.681v-3.524a.058.058,0,0,1,.065-.065h.6a.058.058,0,0,1,.066.065v3.485a.307.307,0,0,0,.065.226.3.3,0,0,0,.21.063h.144a.058.058,0,0,1,.065.065v.524a.058.058,0,0,1-.065.065Z" transform="translate(-531.068 -365.071)" fill="#fff"/>
        </g>
        <g id="Group_620" data-name="Group 620" transform="translate(43.563 12.453)">
          <path id="Path_329" data-name="Path 329" d="M538.359,365.136a.082.082,0,0,1,.085-.065h.6a.082.082,0,0,1,.085.065l1.506,4.323c.013.043,0,.065-.046.065h-.642a.083.083,0,0,1-.085-.065l-.295-.865h-1.677l-.295.865a.082.082,0,0,1-.085.065h-.635c-.044,0-.059-.022-.046-.065Zm.976,2.771-.59-1.73h-.019l-.6,1.73Z" transform="translate(-536.828 -365.071)" fill="#fff"/>
        </g>
        <g id="Group_621" data-name="Group 621" transform="translate(48.022 13.75)">
          <path id="Path_330" data-name="Path 330" d="M546.446,370.45a.058.058,0,0,1-.065-.065v-.229h-.007a1.006,1.006,0,0,1-.324.265,1.059,1.059,0,0,1-.494.1,1.113,1.113,0,0,1-.455-.088.99.99,0,0,1-.341-.246,1.1,1.1,0,0,1-.216-.37,1.4,1.4,0,0,1-.075-.469v-1.991a.058.058,0,0,1,.065-.065h.6a.058.058,0,0,1,.066.065v1.821a.807.807,0,0,0,.144.5.607.607,0,0,0,.881,0,.757.757,0,0,0,.154-.491v-1.828a.058.058,0,0,1,.065-.065h.6a.058.058,0,0,1,.066.065v3.027a.058.058,0,0,1-.066.065Z" transform="translate(-544.468 -367.293)" fill="#fff"/>
        </g>
        <g id="Group_622" data-name="Group 622" transform="translate(51.486 12.78)">
          <path id="Path_331" data-name="Path 331" d="M551.6,369.8a.859.859,0,0,1-.678-.229,1.033,1.033,0,0,1-.2-.694V367.21a.035.035,0,0,0-.039-.039h-.21a.058.058,0,0,1-.066-.065v-.439a.058.058,0,0,1,.066-.065h.21a.035.035,0,0,0,.039-.039V365.7a.058.058,0,0,1,.065-.065h.6a.058.058,0,0,1,.065.065v.865a.035.035,0,0,0,.039.039h.42a.057.057,0,0,1,.065.065v.439a.057.057,0,0,1-.065.065h-.42a.034.034,0,0,0-.039.039v1.638a.3.3,0,0,0,.072.232.331.331,0,0,0,.223.063h.164a.058.058,0,0,1,.065.065v.524a.057.057,0,0,1-.065.065Z" transform="translate(-550.403 -365.632)" fill="#fff"/>
        </g>
        <g id="Group_623" data-name="Group 623" transform="translate(53.988 12.453)">
          <path id="Path_332" data-name="Path 332" d="M556.688,369.525a.058.058,0,0,1-.065-.065v-1.821a.775.775,0,0,0-.151-.5.533.533,0,0,0-.445-.19.544.544,0,0,0-.445.19.755.755,0,0,0-.158.5v1.821a.058.058,0,0,1-.065.065h-.6a.058.058,0,0,1-.065-.065v-4.323a.058.058,0,0,1,.065-.065h.6a.058.058,0,0,1,.065.065v1.526h.006a.856.856,0,0,1,.311-.259,1.262,1.262,0,0,1,.976-.019,1.017,1.017,0,0,1,.344.246,1.079,1.079,0,0,1,.22.37,1.4,1.4,0,0,1,.075.468v1.992a.058.058,0,0,1-.066.065Z" transform="translate(-554.69 -365.071)" fill="#fff"/>
        </g>
        <g id="Group_624" data-name="Group 624" transform="translate(57.539 13.678)">
          <path id="Path_333" data-name="Path 333" d="M562.181,370.47a1.455,1.455,0,0,1-.828-.229,1.172,1.172,0,0,1-.475-.642,2.378,2.378,0,0,1-.079-.343,3.631,3.631,0,0,1,0-.872,2.381,2.381,0,0,1,.079-.344,1.173,1.173,0,0,1,.475-.642,1.6,1.6,0,0,1,1.651,0,1.174,1.174,0,0,1,.474.642,2.35,2.35,0,0,1,.079.344,3.639,3.639,0,0,1,0,.872,2.347,2.347,0,0,1-.079.343,1.173,1.173,0,0,1-.474.642,1.449,1.449,0,0,1-.822.229m0-.655a.611.611,0,0,0,.37-.108.639.639,0,0,0,.219-.3,1.3,1.3,0,0,0,.053-.252q.013-.128.013-.331c0-.135,0-.245-.013-.328a1.457,1.457,0,0,0-.053-.256.642.642,0,0,0-.219-.3.611.611,0,0,0-.37-.108.592.592,0,0,0-.6.413,1.423,1.423,0,0,0-.052.256,3.267,3.267,0,0,0-.013.328c0,.135,0,.246.013.331a1.276,1.276,0,0,0,.052.252.592.592,0,0,0,.6.413" transform="translate(-560.773 -367.169)" fill="#fff"/>
        </g>
        <g id="Group_625" data-name="Group 625" transform="translate(61.267 13.678)">
          <path id="Path_334" data-name="Path 334" d="M567.224,370.4a.058.058,0,0,1-.065-.065v-3.027a.058.058,0,0,1,.065-.065h.6a.058.058,0,0,1,.065.065v.269h.006a.818.818,0,0,1,.314-.295,1.039,1.039,0,0,1,.5-.112.977.977,0,0,1,.364.069.874.874,0,0,1,.3.193.064.064,0,0,1,.013.092l-.347.439a.058.058,0,0,1-.092.013,1.055,1.055,0,0,0-.223-.111.722.722,0,0,0-.242-.04.508.508,0,0,0-.455.21,1.048,1.048,0,0,0-.141.589v1.71a.058.058,0,0,1-.065.065Z" transform="translate(-567.159 -367.169)" fill="#fff"/>
        </g>
        <g id="Group_626" data-name="Group 626" transform="translate(64.168 13.75)">
          <rect id="Rectangle_149" data-name="Rectangle 149" width="0.734" height="3.157" rx="0.112" fill="#fff"/>
        </g>
        <g id="Group_627" data-name="Group 627" transform="translate(65.721 12.78)">
          <path id="Path_335" data-name="Path 335" d="M575.982,369.8a.859.859,0,0,1-.678-.229,1.032,1.032,0,0,1-.2-.694V367.21a.035.035,0,0,0-.04-.039h-.21a.058.058,0,0,1-.065-.065v-.439a.058.058,0,0,1,.065-.065h.21a.035.035,0,0,0,.04-.039V365.7a.057.057,0,0,1,.065-.065h.6a.058.058,0,0,1,.065.065v.865a.035.035,0,0,0,.039.039h.42a.058.058,0,0,1,.065.065v.439a.058.058,0,0,1-.065.065h-.42a.035.035,0,0,0-.039.039v1.638a.3.3,0,0,0,.072.232.332.332,0,0,0,.223.063h.164a.058.058,0,0,1,.065.065v.524a.058.058,0,0,1-.065.065Z" transform="translate(-574.79 -365.632)" fill="#fff"/>
        </g>
        <g id="Group_628" data-name="Group 628" transform="translate(67.859 13.75)">
          <path id="Path_336" data-name="Path 336" d="M578.928,371.629a.058.058,0,0,1-.065-.065v-.524a.058.058,0,0,1,.065-.065h.118a.444.444,0,0,0,.295-.088.667.667,0,0,0,.177-.285l.092-.268-1.153-2.974c-.013-.044,0-.065.053-.065h.648a.079.079,0,0,1,.079.065l.713,2.063h.013l.681-2.063a.079.079,0,0,1,.079-.065h.622c.048,0,.065.022.053.065l-1.205,3.289a3.368,3.368,0,0,1-.21.468,1.22,1.22,0,0,1-.229.3.748.748,0,0,1-.275.163,1.123,1.123,0,0,1-.347.049Z" transform="translate(-578.452 -367.293)" fill="#fff"/>
        </g>
        <g id="Group_629" data-name="Group 629" transform="translate(73.037 13.678)">
          <path id="Path_337" data-name="Path 337" d="M588.732,370.47a1.456,1.456,0,0,1-.828-.229,1.169,1.169,0,0,1-.475-.642,2.347,2.347,0,0,1-.079-.343,3.639,3.639,0,0,1,0-.872,2.35,2.35,0,0,1,.079-.344,1.171,1.171,0,0,1,.475-.642,1.6,1.6,0,0,1,1.651,0,1.174,1.174,0,0,1,.475.642,2.294,2.294,0,0,1,.078.344,3.639,3.639,0,0,1,0,.872,2.291,2.291,0,0,1-.078.343,1.173,1.173,0,0,1-.475.642,1.448,1.448,0,0,1-.823.229m0-.655a.612.612,0,0,0,.37-.108.639.639,0,0,0,.219-.3,1.3,1.3,0,0,0,.052-.252c.009-.085.013-.2.013-.331a3.226,3.226,0,0,0-.013-.328,1.45,1.45,0,0,0-.052-.256.642.642,0,0,0-.219-.3.611.611,0,0,0-.37-.108.592.592,0,0,0-.6.413,1.388,1.388,0,0,0-.053.256,3.265,3.265,0,0,0-.013.328c0,.135,0,.246.013.331a1.246,1.246,0,0,0,.053.252.592.592,0,0,0,.6.413" transform="translate(-587.324 -367.169)" fill="#fff"/>
        </g>
        <g id="Group_630" data-name="Group 630" transform="translate(76.548 12.453)">
          <path id="Path_338" data-name="Path 338" d="M593.719,369.525a.058.058,0,0,1-.065-.065v-2.483a.035.035,0,0,0-.04-.039h-.21a.058.058,0,0,1-.065-.065v-.439a.058.058,0,0,1,.065-.065h.21a.035.035,0,0,0,.04-.04v-.2a1.063,1.063,0,0,1,.265-.806,1.105,1.105,0,0,1,.783-.249h.288a.058.058,0,0,1,.065.065v.523a.058.058,0,0,1-.065.066h-.2a1.007,1.007,0,0,0-.2.016.224.224,0,0,0-.121.062.26.26,0,0,0-.059.118.914.914,0,0,0-.016.19v.216a.035.035,0,0,0,.039.04h.563a.058.058,0,0,1,.065.065v.439a.058.058,0,0,1-.065.065h-.563a.034.034,0,0,0-.039.039v2.483a.058.058,0,0,1-.066.065Z" transform="translate(-593.339 -365.071)" fill="#fff"/>
        </g>
        <g id="Group_631" data-name="Group 631" transform="translate(80.734 12.453)">
          <path id="Path_339" data-name="Path 339" d="M600.51,365.136a.058.058,0,0,1,.065-.065h2.791a.058.058,0,0,1,.065.065v.563a.058.058,0,0,1-.065.065h-2.043a.035.035,0,0,0-.04.04v1.133a.035.035,0,0,0,.04.039h1.722a.058.058,0,0,1,.065.066v.563a.058.058,0,0,1-.065.066h-1.722a.035.035,0,0,0-.04.039v1.749a.058.058,0,0,1-.066.065h-.642a.058.058,0,0,1-.065-.065Z" transform="translate(-600.51 -365.071)" fill="#fff"/>
        </g>
        <g id="Group_632" data-name="Group 632" transform="translate(84.121 13.678)">
          <path id="Path_340" data-name="Path 340" d="M607.72,370.47a1.46,1.46,0,0,1-.829-.229,1.171,1.171,0,0,1-.475-.642,2.379,2.379,0,0,1-.079-.343,3.639,3.639,0,0,1,0-.872,2.382,2.382,0,0,1,.079-.344,1.172,1.172,0,0,1,.475-.642,1.6,1.6,0,0,1,1.651,0,1.173,1.173,0,0,1,.475.642,2.294,2.294,0,0,1,.078.344,3.656,3.656,0,0,1,0,.872,2.291,2.291,0,0,1-.078.343,1.171,1.171,0,0,1-.475.642,1.446,1.446,0,0,1-.822.229m0-.655a.611.611,0,0,0,.37-.108.642.642,0,0,0,.219-.3,1.3,1.3,0,0,0,.052-.252c.008-.085.013-.2.013-.331s0-.245-.013-.328a1.456,1.456,0,0,0-.052-.256.645.645,0,0,0-.219-.3.611.611,0,0,0-.37-.108.592.592,0,0,0-.6.413,1.4,1.4,0,0,0-.053.256,3.239,3.239,0,0,0-.013.328q0,.2.013.331a1.255,1.255,0,0,0,.053.252.592.592,0,0,0,.6.413" transform="translate(-606.312 -367.169)" fill="#fff"/>
        </g>
        <g id="Group_633" data-name="Group 633" transform="translate(87.848 13.678)">
          <path id="Path_341" data-name="Path 341" d="M612.762,370.4a.058.058,0,0,1-.065-.065v-3.027a.058.058,0,0,1,.065-.065h.6a.058.058,0,0,1,.065.065v.269h.006a.82.82,0,0,1,.315-.295,1.037,1.037,0,0,1,.5-.112.976.976,0,0,1,.364.069.873.873,0,0,1,.3.193.065.065,0,0,1,.013.092l-.347.439a.058.058,0,0,1-.092.013,1.068,1.068,0,0,0-.222-.111.727.727,0,0,0-.243-.04.508.508,0,0,0-.455.21,1.048,1.048,0,0,0-.141.589v1.71a.058.058,0,0,1-.065.065Z" transform="translate(-612.697 -367.169)" fill="#fff"/>
        </g>
        <g id="Group_634" data-name="Group 634" transform="translate(90.579 13.678)">
          <path id="Path_342" data-name="Path 342" d="M618.8,370.471a1.461,1.461,0,0,1-.845-.233,1.189,1.189,0,0,1-.471-.645,1.965,1.965,0,0,1-.082-.337,2.815,2.815,0,0,1-.03-.435,3.123,3.123,0,0,1,.027-.439,1.768,1.768,0,0,1,.078-.34,1.18,1.18,0,0,1,.476-.643,1.58,1.58,0,0,1,1.644,0,1.2,1.2,0,0,1,.468.639c.017.057.033.113.047.17s.023.122.032.2.015.158.02.252.006.2.006.33c0,.044-.023.066-.072.066h-1.946a.035.035,0,0,0-.04.039.557.557,0,0,0,.013.131.724.724,0,0,0,.033.111.673.673,0,0,0,.707.479,1.029,1.029,0,0,0,.445-.085.941.941,0,0,0,.295-.217c.035-.035.068-.039.1-.013l.387.34a.061.061,0,0,1,.006.092,1.547,1.547,0,0,1-.531.386,1.817,1.817,0,0,1-.766.151m.629-2a.845.845,0,0,0-.04-.269.568.568,0,0,0-.229-.3.689.689,0,0,0-.387-.108.7.7,0,0,0-.393.108.566.566,0,0,0-.229.3.847.847,0,0,0-.04.269.035.035,0,0,0,.04.039h1.238a.035.035,0,0,0,.04-.039" transform="translate(-617.376 -367.17)" fill="#fff"/>
        </g>
        <g id="Group_635" data-name="Group 635" transform="translate(94.293 13.75)">
          <rect id="Rectangle_150" data-name="Rectangle 150" width="0.734" height="3.157" rx="0.112" fill="#fff"/>
        </g>
        <g id="Group_636" data-name="Group 636" transform="translate(95.931 13.678)">
          <path id="Path_343" data-name="Path 343" d="M627.809,371.65a1.7,1.7,0,0,1-.648-.127,1.26,1.26,0,0,1-.5-.344.06.06,0,0,1,.007-.091l.387-.387a.064.064,0,0,1,.1,0,.97.97,0,0,0,.688.295.686.686,0,0,0,.537-.19.819.819,0,0,0,.17-.563v-.295h-.006a.767.767,0,0,1-.311.268,1.152,1.152,0,0,1-.508.1,1.127,1.127,0,0,1-.674-.2,1.1,1.1,0,0,1-.4-.57,2.078,2.078,0,0,1-.082-.364,3.587,3.587,0,0,1-.023-.442,3.517,3.517,0,0,1,.023-.439,2.089,2.089,0,0,1,.082-.36,1.1,1.1,0,0,1,.4-.577,1.285,1.285,0,0,1,1.182-.1.8.8,0,0,1,.311.272h.006v-.236a.058.058,0,0,1,.066-.065h.6a.058.058,0,0,1,.065.065v2.9a1.316,1.316,0,0,1-1.474,1.448m.1-1.985a.579.579,0,0,0,.364-.1.623.623,0,0,0,.2-.3,1.151,1.151,0,0,0,.055-.233,2.123,2.123,0,0,0,.016-.285,1.615,1.615,0,0,0-.072-.518.622.622,0,0,0-.2-.295.58.58,0,0,0-.364-.1.534.534,0,0,0-.557.4,1.593,1.593,0,0,0-.073.518,2.206,2.206,0,0,0,.016.285,1.194,1.194,0,0,0,.056.233.535.535,0,0,0,.557.406" transform="translate(-626.545 -367.17)" fill="#fff"/>
        </g>
        <g id="Group_637" data-name="Group 637" transform="translate(99.756 13.678)">
          <path id="Path_344" data-name="Path 344" d="M635.1,370.4a.058.058,0,0,1-.065-.065v-1.821a.778.778,0,0,0-.15-.5.535.535,0,0,0-.445-.19.545.545,0,0,0-.445.19.753.753,0,0,0-.158.5v1.821a.058.058,0,0,1-.065.065h-.6a.058.058,0,0,1-.065-.065v-3.027a.058.058,0,0,1,.065-.065h.6a.058.058,0,0,1,.065.065v.229h.006a.856.856,0,0,1,.311-.259,1.263,1.263,0,0,1,.977-.019,1.019,1.019,0,0,1,.344.246,1.067,1.067,0,0,1,.22.37,1.391,1.391,0,0,1,.075.468v1.992a.058.058,0,0,1-.065.065Z" transform="translate(-633.099 -367.169)" fill="#fff"/>
        </g>
        <g id="Group_638" data-name="Group 638" transform="translate(104.748 12.453)">
          <path id="Path_345" data-name="Path 345" d="M642.987,369.525a.058.058,0,0,1-.065-.065V365.8a.035.035,0,0,0-.04-.039h-1.166a.058.058,0,0,1-.066-.065v-.563a.058.058,0,0,1,.066-.065H644.9a.058.058,0,0,1,.065.065v.563a.058.058,0,0,1-.065.065h-1.166a.035.035,0,0,0-.039.039v3.656a.058.058,0,0,1-.065.065Z" transform="translate(-641.65 -365.071)" fill="#fff"/>
        </g>
        <g id="Group_639" data-name="Group 639" transform="translate(108.816 13.678)">
          <path id="Path_346" data-name="Path 346" d="M648.685,370.4a.058.058,0,0,1-.065-.065v-3.027a.058.058,0,0,1,.065-.065h.6a.058.058,0,0,1,.066.065v.269h.006a.819.819,0,0,1,.314-.295,1.039,1.039,0,0,1,.5-.112.98.98,0,0,1,.364.069.878.878,0,0,1,.3.193.064.064,0,0,1,.013.092l-.347.439a.058.058,0,0,1-.092.013,1.057,1.057,0,0,0-.223-.111.722.722,0,0,0-.242-.04.508.508,0,0,0-.455.21,1.048,1.048,0,0,0-.141.589v1.71a.058.058,0,0,1-.066.065Z" transform="translate(-648.619 -367.169)" fill="#fff"/>
        </g>
        <g id="Group_640" data-name="Group 640" transform="translate(111.456 13.678)">
          <path id="Path_347" data-name="Path 347" d="M655.166,370.4a.058.058,0,0,1-.065-.065V370.1h-.006a.784.784,0,0,1-.334.265,1.346,1.346,0,0,1-.557.1,1.4,1.4,0,0,1-.41-.059.968.968,0,0,1-.337-.177.843.843,0,0,1-.229-.3.994.994,0,0,1-.085-.428.873.873,0,0,1,.337-.76,1.561,1.561,0,0,1,.927-.243h.642a.035.035,0,0,0,.039-.039v-.151a.489.489,0,0,0-.151-.4.889.889,0,0,0-.551-.125,1.3,1.3,0,0,0-.439.063.952.952,0,0,0-.281.154c-.039.03-.07.026-.092-.013l-.242-.432a.057.057,0,0,1,.013-.085,1.578,1.578,0,0,1,.458-.223,2.221,2.221,0,0,1,.662-.085,1.547,1.547,0,0,1,1.019.262,1.063,1.063,0,0,1,.3.838v2.064a.058.058,0,0,1-.066.065Zm-.779-.524a.877.877,0,0,0,.521-.131.468.468,0,0,0,.18-.406V369.1a.035.035,0,0,0-.039-.04h-.524a1.012,1.012,0,0,0-.518.1.353.353,0,0,0-.163.324q0,.392.543.393" transform="translate(-653.142 -367.169)" fill="#fff"/>
        </g>
        <g id="Group_641" data-name="Group 641" transform="translate(114.986 12.453)">
          <path id="Path_348" data-name="Path 348" d="M661.306,369.525a.058.058,0,0,1-.065-.065v-.236h-.006a.833.833,0,0,1-.315.269,1.146,1.146,0,0,1-.524.1,1.2,1.2,0,0,1-.688-.19,1.055,1.055,0,0,1-.406-.57,2.224,2.224,0,0,1-.085-.376,5.052,5.052,0,0,1,0-1.029,2.249,2.249,0,0,1,.085-.377,1.053,1.053,0,0,1,.406-.57,1.2,1.2,0,0,1,.688-.19,1.138,1.138,0,0,1,.524.105.836.836,0,0,1,.315.268h.006v-1.533a.058.058,0,0,1,.065-.065h.6a.058.058,0,0,1,.065.065v4.323a.058.058,0,0,1-.065.065Zm-.72-.583a.557.557,0,0,0,.589-.406,1.556,1.556,0,0,0,.049-.242,3.689,3.689,0,0,0,0-.694,1.58,1.58,0,0,0-.049-.243.626.626,0,0,0-1.173,0,1.524,1.524,0,0,0-.049.243,3.717,3.717,0,0,0,0,.694,1.5,1.5,0,0,0,.049.242.553.553,0,0,0,.583.406" transform="translate(-659.19 -365.071)" fill="#fff"/>
        </g>
        <g id="Group_642" data-name="Group 642" transform="translate(118.687 13.678)">
          <path id="Path_349" data-name="Path 349" d="M666.959,370.471a1.464,1.464,0,0,1-.845-.233,1.194,1.194,0,0,1-.472-.645,1.989,1.989,0,0,1-.082-.337,2.814,2.814,0,0,1-.029-.435,3.254,3.254,0,0,1,.026-.439,1.764,1.764,0,0,1,.079-.34,1.173,1.173,0,0,1,.475-.643,1.58,1.58,0,0,1,1.644,0,1.2,1.2,0,0,1,.468.639c.018.057.033.113.046.17s.024.122.033.2.015.158.019.252.006.2.006.33c0,.044-.024.066-.072.066H666.31a.034.034,0,0,0-.039.039.6.6,0,0,0,.013.131.76.76,0,0,0,.033.111.674.674,0,0,0,.707.479,1.027,1.027,0,0,0,.445-.085.945.945,0,0,0,.295-.217c.035-.035.068-.039.1-.013l.386.34a.061.061,0,0,1,.007.092,1.543,1.543,0,0,1-.531.386,1.821,1.821,0,0,1-.766.151m.629-2a.844.844,0,0,0-.039-.269.57.57,0,0,0-.229-.3.688.688,0,0,0-.386-.108.7.7,0,0,0-.393.108.567.567,0,0,0-.229.3.842.842,0,0,0-.039.269.035.035,0,0,0,.039.039h1.238a.035.035,0,0,0,.039-.039" transform="translate(-665.531 -367.17)" fill="#fff"/>
        </g>
        <g id="Group_643" data-name="Group 643" transform="translate(3.582 0.56)">
          <path id="Path_350" data-name="Path 350" d="M469.69,345.3a.682.682,0,1,1-.678-.606.645.645,0,0,1,.678.606" transform="translate(-468.334 -344.696)" fill="#fff"/>
        </g>
        <g id="Group_644" data-name="Group 644" transform="translate(37.346 0.56)">
          <path id="Path_351" data-name="Path 351" d="M527.535,345.3a.682.682,0,1,1-.678-.606.645.645,0,0,1,.678.606" transform="translate(-526.179 -344.696)" fill="#fff"/>
        </g>
        <g id="Group_645" data-name="Group 645" transform="translate(39.128 0.56)">
          <path id="Path_352" data-name="Path 352" d="M530.588,345.3a.682.682,0,1,1-.678-.606.645.645,0,0,1,.678.606" transform="translate(-529.232 -344.696)" fill="#fff"/>
        </g>
        <g id="Group_646" data-name="Group 646" transform="translate(67.587 0.56)">
          <path id="Path_353" data-name="Path 353" d="M579.343,345.3a.682.682,0,1,1-.678-.606.645.645,0,0,1,.678.606" transform="translate(-577.987 -344.696)" fill="#fff"/>
        </g>
        <g id="Group_647" data-name="Group 647" transform="translate(69.349 0.56)">
          <path id="Path_354" data-name="Path 354" d="M582.361,345.3a.682.682,0,1,1-.678-.606.645.645,0,0,1,.678.606" transform="translate(-581.005 -344.696)" fill="#fff"/>
        </g>
        <g id="Group_648" data-name="Group 648" transform="translate(97.514 0.56)">
          <path id="Path_355" data-name="Path 355" d="M630.612,345.3a.682.682,0,1,1-.678-.606.645.645,0,0,1,.678.606" transform="translate(-629.257 -344.696)" fill="#fff"/>
        </g>
        <g id="Group_649" data-name="Group 649" transform="translate(99.296 0.56)">
          <path id="Path_356" data-name="Path 356" d="M633.666,345.3a.682.682,0,1,1-.678-.606.645.645,0,0,1,.678.606" transform="translate(-632.31 -344.696)" fill="#fff"/>
        </g>
        <g id="Group_650" data-name="Group 650" transform="translate(23.541 0.884)">
          <path id="Path_357" data-name="Path 357" d="M503.884,345.857a.682.682,0,1,1-.678-.607.645.645,0,0,1,.678.607" transform="translate(-502.528 -345.251)" fill="#fff"/>
        </g>
        <g id="Group_651" data-name="Group 651" transform="translate(53.404 0.884)">
          <path id="Path_358" data-name="Path 358" d="M555.045,345.857a.682.682,0,1,1-.678-.607.645.645,0,0,1,.678.607" transform="translate(-553.689 -345.251)" fill="#fff"/>
        </g>
        <g id="Group_652" data-name="Group 652" transform="translate(55.166 0.884)">
          <path id="Path_359" data-name="Path 359" d="M558.063,345.857a.682.682,0,1,1-.678-.607.645.645,0,0,1,.678.607" transform="translate(-556.707 -345.251)" fill="#fff"/>
        </g>
        <g id="Group_653" data-name="Group 653" transform="translate(6.455 8.31)">
          <path id="Path_360" data-name="Path 360" d="M474.611,358.58a.682.682,0,1,1-.678-.607.645.645,0,0,1,.678.607" transform="translate(-473.256 -357.974)" fill="#fff"/>
        </g>
        <g id="Group_654" data-name="Group 654" transform="translate(8.222 8.31)">
          <path id="Path_361" data-name="Path 361" d="M477.641,358.58a.682.682,0,1,1-.679-.607.646.646,0,0,1,.679.607" transform="translate(-476.284 -357.974)" fill="#fff"/>
        </g>
        <g id="Group_655" data-name="Group 655" transform="translate(12.27 8.31)">
          <path id="Path_362" data-name="Path 362" d="M484.574,358.58a.682.682,0,1,1-.678-.607.645.645,0,0,1,.678.607" transform="translate(-483.219 -357.974)" fill="#fff"/>
        </g>
        <g id="Group_656" data-name="Group 656" transform="translate(48.53 8.31)">
          <path id="Path_363" data-name="Path 363" d="M546.694,358.58a.682.682,0,1,1-.677-.607.645.645,0,0,1,.677.607" transform="translate(-545.338 -357.974)" fill="#fff"/>
        </g>
        <g id="Group_657" data-name="Group 657" transform="translate(104.985 8.31)">
          <path id="Path_364" data-name="Path 364" d="M643.412,358.58a.682.682,0,1,1-.678-.607.645.645,0,0,1,.678.607" transform="translate(-642.056 -357.974)" fill="#fff"/>
        </g>
        <g id="Group_658" data-name="Group 658" transform="translate(106.725 8.31)">
          <path id="Path_365" data-name="Path 365" d="M646.394,358.58a.682.682,0,1,1-.678-.607.645.645,0,0,1,.678.607" transform="translate(-645.038 -357.974)" fill="#fff"/>
        </g>
        <g id="Group_659" data-name="Group 659" transform="translate(1.812 0.56)">
          <path id="Path_366" data-name="Path 366" d="M466.658,345.3a.682.682,0,1,1-.678-.606.645.645,0,0,1,.678.606" transform="translate(-465.303 -344.696)" fill="#fff"/>
        </g>
        <g id="Group_660" data-name="Group 660" transform="translate(94.3 12.448)">
          <path id="Path_367" data-name="Path 367" d="M624.469,365.422a.359.359,0,1,1-.36-.36.36.36,0,0,1,.36.36" transform="translate(-623.751 -365.063)" fill="#fff"/>
        </g>
        <g id="Group_661" data-name="Group 661" transform="translate(64.174 12.448)">
          <path id="Path_368" data-name="Path 368" d="M572.858,365.422a.36.36,0,1,1-.36-.36.36.36,0,0,1,.36.36" transform="translate(-572.139 -365.063)" fill="#fff"/>
        </g>
        <g id="Group_662" data-name="Group 662" transform="translate(15.333 12.448)">
          <path id="Path_369" data-name="Path 369" d="M489.185,365.422a.36.36,0,1,1-.36-.36.36.36,0,0,1,.36.36" transform="translate(-488.466 -365.063)" fill="#fff"/>
        </g>
      </g>
    </g>
  </g>
</svg>
