<svg xmlns="http://www.w3.org/2000/svg" xmlns:xlink="http://www.w3.org/1999/xlink" width="274.57" height="266.333" viewBox="0 0 274.57 266.333">
  <defs>
    <clipPath id="clip-path"/>
  </defs>
  <g id="Mask_Group_12" data-name="Mask Group 12" transform="translate(-1587.922 -380.667)" clip-path="url(#clip-path)">
    <g id="bannerJobRigth" transform="translate(886.857 70.821)" opacity="0.5">
      <g id="Group_542" data-name="Group 542" transform="translate(927.43 430.249)">
        <path id="Path_256" data-name="Path 256" d="M829.537,384.706a2.7,2.7,0,0,1-2-.878,110.656,110.656,0,0,0-15.23-11.319,157.3,157.3,0,0,0-23.441-11.925l-2.058-.835a2.693,2.693,0,1,1,2-5l2.049.83a160.093,160.093,0,0,1,24.292,12.356,116.077,116.077,0,0,1,16.181,12.06,2.7,2.7,0,0,1-1.8,4.713Z" transform="translate(-785.117 -354.553)" fill="#c48e61"/>
      </g>
      <g id="Group_543" data-name="Group 543" transform="translate(925.174 498.735)">
        <path id="Path_257" data-name="Path 257" d="M811.037,396.756a2.657,2.657,0,0,1-1.347-.364,166.435,166.435,0,0,0-23.681-11.2,2.694,2.694,0,0,1,1.931-5.031,172.448,172.448,0,0,1,24.448,11.57,2.694,2.694,0,0,1-1.352,5.025Z" transform="translate(-784.28 -379.983)" fill="#c48e61"/>
      </g>
      <g id="Group_544" data-name="Group 544" transform="translate(742.397 521.562)">
        <path id="Path_258" data-name="Path 258" d="M719.107,407.188A2.694,2.694,0,0,1,718.087,402a219.618,219.618,0,0,1,37.556-11.373c.035-.008,5.777-1.136,11.694-2.133a2.694,2.694,0,1,1,.894,5.314c-5.844.98-11.511,2.1-11.511,2.1a213.769,213.769,0,0,0-36.592,11.082A2.731,2.731,0,0,1,719.107,407.188Z" transform="translate(-716.412 -388.459)" fill="#adadad"/>
      </g>
      <g id="Group_545" data-name="Group 545" transform="translate(955.754 462.369)">
        <path id="Path_259" data-name="Path 259" d="M808.934,379.516a2.666,2.666,0,0,1-1.713-.619c-1.891-1.565-3.881-3.1-5.928-4.573h0s-1.936-1.285-4.425-2.887a2.695,2.695,0,0,1,2.919-4.53c2.575,1.664,4.568,2.987,4.568,2.987,2.227,1.6,4.32,3.216,6.3,4.853a2.693,2.693,0,0,1-1.721,4.77Z" transform="translate(-795.635 -366.479)" fill="#c48e61"/>
      </g>
      <g id="Group_546" data-name="Group 546" transform="translate(929.849 448.646)">
        <path id="Path_260" data-name="Path 260" d="M805.555,374.874a2.673,2.673,0,0,1-1.3-.337,167.524,167.524,0,0,0-16.579-7.977,2.692,2.692,0,0,1,2.071-4.969,171.8,171.8,0,0,1,17.117,8.233,2.693,2.693,0,0,1-1.306,5.05Z" transform="translate(-786.015 -361.384)" fill="#c48e61"/>
      </g>
      <g id="Group_547" data-name="Group 547" transform="translate(704.9 460.567)">
        <path id="Path_261" data-name="Path 261" d="M705.184,380.589a2.694,2.694,0,0,1-1.718-4.77,123.167,123.167,0,0,1,13.312-9.6,2.694,2.694,0,0,1,2.852,4.57,117.576,117.576,0,0,0-12.73,9.181A2.69,2.69,0,0,1,705.184,380.589Z" transform="translate(-702.489 -365.81)" fill="#adadad"/>
      </g>
      <g id="Group_548" data-name="Group 548" transform="translate(726.785 446.656)">
        <path id="Path_262" data-name="Path 262" d="M713.31,374.905a2.693,2.693,0,0,1-1.252-5.079,202.1,202.1,0,0,1,19.652-9,2.692,2.692,0,1,1,1.969,5.012,195.957,195.957,0,0,0-19.121,8.755A2.666,2.666,0,0,1,713.31,374.905Z" transform="translate(-710.615 -360.645)" fill="#adadad"/>
      </g>
      <g id="Group_549" data-name="Group 549" transform="translate(756.627 362.348)">
        <path id="Path_263" data-name="Path 263" d="M725.735,346.931a4.041,4.041,0,0,1-1.214-7.894q2.295-.723,4.64-1.406L737,335.5c6.779-1.718,13.754-3.167,20.8-4.328,4.223-.695,8.575-1.3,12.93-1.807a4.041,4.041,0,0,1,.932,8.028c-4.228.487-8.454,1.077-12.553,1.753-6.816,1.12-13.565,2.523-20.056,4.166l-7.7,2.093c-1.433.42-2.928.873-4.4,1.336A4.048,4.048,0,0,1,725.735,346.931Z" transform="translate(-721.696 -329.34)" fill="#005f54"/>
      </g>
      <g id="Group_550" data-name="Group 550" transform="translate(732.749 377.884)">
        <path id="Path_264" data-name="Path 264" d="M716.873,363.75a4.041,4.041,0,0,1-1.721-7.7c4.368-2.049,9.006-4,13.781-5.79l.259-.094.415-.153c26.277-9.749,57.006-14.907,88.825-14.907q2.258,0,4.5.032c5.079.081,10.137.288,15.038.617a4.041,4.041,0,0,1-.541,8.063c-4.767-.323-9.685-.525-14.618-.6q-2.177-.032-4.382-.032c-30.874,0-60.628,4.985-86.046,14.414l-.391.143c-4.8,1.8-9.232,3.665-13.406,5.621A4.018,4.018,0,0,1,716.873,363.75Z" transform="translate(-712.83 -335.109)" fill="#005f54"/>
      </g>
      <g id="Group_551" data-name="Group 551" transform="translate(785.286 481.939)">
        <path id="Path_265" data-name="Path 265" d="M862.3,392.91a4.138,4.138,0,0,1-1.2-.18c-22.946-7.134-49.12-10.9-75.7-10.9-9.162,0-18.346.444-27.3,1.322q-2.783.275-5.542.6c-5.222.625-10.425,1.4-15.467,2.316a4.039,4.039,0,1,1-1.441-7.948c5.2-.943,10.568-1.748,15.951-2.392q2.84-.335,5.707-.619c9.213-.9,18.661-1.36,28.087-1.36,27.378,0,54.383,3.894,78.1,11.265a4.041,4.041,0,0,1-1.2,7.9Z" transform="translate(-732.338 -373.746)" fill="#005f54"/>
      </g>
      <g id="Group_552" data-name="Group 552" transform="translate(794.737 499.272)">
        <path id="Path_266" data-name="Path 266" d="M840.538,395.051a4.08,4.08,0,0,1-.9-.1c-6.787-1.546-15.052-3-15.133-3.014a272.821,272.821,0,0,0-45.048-3.676c-5.543,0-11.126.164-16.593.482-1.115.067-2.227.137-3.34.218-6.4.452-12.817,1.134-19.067,2.028a4.041,4.041,0,1,1-1.142-8c6.439-.918,13.046-1.619,19.633-2.084q1.7-.121,3.437-.224c5.631-.331,11.373-.5,17.072-.5a281.058,281.058,0,0,1,46.414,3.792c.377.065,8.572,1.511,15.556,3.1a4.04,4.04,0,0,1-.892,7.98Z" transform="translate(-735.847 -380.182)" fill="#005f54"/>
      </g>
      <g id="Group_553" data-name="Group 553" transform="translate(804.645 516.632)">
        <path id="Path_267" data-name="Path 267" d="M821.008,398.782a4.181,4.181,0,0,1-.706-.059c-3.741-.66-7.554-1.242-11.335-1.734a281.283,281.283,0,0,0-41.34-2.227c-7.921.156-15.876.646-23.635,1.465a4.04,4.04,0,1,1-.848-8.036c7.99-.84,16.172-1.347,24.324-1.508a289.059,289.059,0,0,1,42.538,2.3c3.9.5,7.837,1.107,11.7,1.786a4.039,4.039,0,0,1-.7,8.018Z" transform="translate(-739.526 -386.628)" fill="#005f54"/>
      </g>
      <g id="Group_554" data-name="Group 554" transform="translate(749.165 412.577)">
        <path id="Path_268" data-name="Path 268" d="M722.967,369.919a4.038,4.038,0,0,1-1.438-7.813l.9-.342c5.236-1.842,10.611-3.5,16.078-4.969l.014,0,.005,0c.186-.046.369-.1.552-.145l.011,0a269.322,269.322,0,0,1,69.025-8.65A273.256,273.256,0,0,1,870.589,355c5.712,1.341,11.341,2.892,16.735,4.6a4.04,4.04,0,1,1-2.44,7.7c-5.2-1.646-10.63-3.137-16.145-4.436a265.219,265.219,0,0,0-60.628-6.8,261.108,261.108,0,0,0-66.962,8.384h0l-.52.137c-5.278,1.414-10.466,3.016-15.424,4.759l-.8.3A4.028,4.028,0,0,1,722.967,369.919Z" transform="translate(-718.925 -347.991)" fill="#005f54"/>
      </g>
      <g id="Group_555" data-name="Group 555" transform="translate(766.883 447.243)">
        <path id="Path_269" data-name="Path 269" d="M902,391.212a4.027,4.027,0,0,1-1.8-.425c-28.267-14.085-64.926-21.844-103.231-21.844a271.982,271.982,0,0,0-47.343,4.072l-.6.108c-3.752.676-7.508,1.441-11.133,2.268q-3.712.852-7.32,1.8a4.038,4.038,0,1,1-2.057-7.81q3.733-.986,7.573-1.858c3.751-.862,7.635-1.651,11.535-2.351l.356-.065a280.538,280.538,0,0,1,48.994-4.239c39.53,0,77.471,8.058,106.834,22.692a4.04,4.04,0,0,1-1.8,7.657Z" transform="translate(-725.504 -360.863)" fill="#005f54"/>
      </g>
      <g id="Group_556" data-name="Group 556" transform="translate(775.867 464.603)">
        <path id="Path_270" data-name="Path 270" d="M887.353,393.745a4.019,4.019,0,0,1-1.6-.331c-27.292-11.791-60.16-18.025-95.052-18.025a277.473,277.473,0,0,0-35.6,2.268,3.909,3.909,0,0,1-.778.186q-4.8.654-9.477,1.46c-3.679.641-7.409,1.376-11.09,2.19a4.04,4.04,0,0,1-1.74-7.891c3.8-.837,7.648-1.6,11.451-2.257,2.677-.466,5.472-.9,8.327-1.306a3.935,3.935,0,0,1,.821-.2,284.825,284.825,0,0,1,38.089-2.529c35.983,0,69.96,6.464,98.257,18.688a4.04,4.04,0,0,1-1.605,7.748Z" transform="translate(-728.84 -367.309)" fill="#005f54"/>
      </g>
      <g id="Group_557" data-name="Group 557" transform="translate(740.54 395.219)">
        <path id="Path_271" data-name="Path 271" d="M719.766,366.77a4.04,4.04,0,0,1-1.417-7.824l11.99-4.484c1.36-.455,2.593-.862,3.835-1.252,1.339-.428,2.69-.84,4.051-1.247,23.021-6.819,49.058-10.417,75.308-10.417a287.268,287.268,0,0,1,33.842,1.985c4.516.539,8.99,1.188,13.3,1.926a4.04,4.04,0,1,1-1.363,7.964c-4.177-.716-8.513-1.344-12.895-1.869a279.659,279.659,0,0,0-32.883-1.926c-25.483,0-50.728,3.485-73,10.083-1.309.388-2.618.792-3.913,1.2q-1.8.574-3.582,1.172l-11.855,4.433A4.017,4.017,0,0,1,719.766,366.77Z" transform="translate(-715.723 -341.546)" fill="#005f54"/>
      </g>
      <g id="Group_558" data-name="Group 558" transform="translate(758.208 429.886)">
        <path id="Path_272" data-name="Path 272" d="M884.219,375.244a4.027,4.027,0,0,1-1.3-.213c-24.182-8.2-52.04-12.534-80.56-12.534-26.21,0-52.094,3.7-74.853,10.686a4.039,4.039,0,1,1-2.373-7.721c23.519-7.226,50.222-11.045,77.226-11.045,29.393,0,58.145,4.481,83.154,12.959a4.04,4.04,0,0,1-1.3,7.867Z" transform="translate(-722.283 -354.418)" fill="#005f54"/>
      </g>
      <g id="Group_559" data-name="Group 559" transform="translate(854.789 310.48)">
        <path id="Path_273" data-name="Path 273" d="M763.125,315.623c-.065,0-.132,0-.2-.008l-2.265-.156a2.7,2.7,0,0,1-2.513-2.866,2.732,2.732,0,0,1,2.865-2.51l2.3.162a2.693,2.693,0,0,1-.191,5.378Z" transform="translate(-758.145 -310.081)" fill="#adadad"/>
      </g>
      <g id="Group_560" data-name="Group 560" transform="translate(812.285 309.846)">
        <path id="Path_274" data-name="Path 274" d="M745.054,316.181a2.694,2.694,0,0,1-.218-5.378,291.451,291.451,0,0,1,42.9-.32,2.7,2.7,0,0,1,2.515,2.86,2.732,2.732,0,0,1-2.863,2.515,284.444,284.444,0,0,0-42.11.315C745.2,316.178,745.129,316.181,745.054,316.181Z" transform="translate(-742.363 -309.846)" fill="#adadad"/>
      </g>
      <g id="Group_561" data-name="Group 561" transform="translate(827.071 327.211)">
        <path id="Path_275" data-name="Path 275" d="M806.03,325.567a2.56,2.56,0,0,1-.471-.043c-3.547-.622-6.787-1.107-9.625-1.438a269.639,269.639,0,0,0-41.388-2.351c-1.333.03-2.661.057-3.986.065h-.013a2.693,2.693,0,0,1-.016-5.386c1.3-.008,2.6-.035,3.9-.065a277.931,277.931,0,0,1,42.172,2.394c2.9.337,6.24.835,9.895,1.481a2.692,2.692,0,0,1-.466,5.343Z" transform="translate(-747.853 -316.293)" fill="#adadad"/>
      </g>
      <g id="Group_562" data-name="Group 562" transform="translate(893.936 333.362)">
        <path id="Path_276" data-name="Path 276" d="M805.511,332.839a2.67,2.67,0,0,1-.948-.175,215.828,215.828,0,0,0-28.3-8.432L774.8,323.9a2.692,2.692,0,1,1,1.153-5.26l1.527.342a221.8,221.8,0,0,1,28.984,8.642,2.694,2.694,0,0,1-.951,5.214Z" transform="translate(-772.68 -318.577)" fill="#adadad"/>
      </g>
      <g id="Group_563" data-name="Group 563" transform="translate(759.051 327.764)">
        <path id="Path_277" data-name="Path 277" d="M725.289,332.322a2.693,2.693,0,0,1-.8-5.265,248.549,248.549,0,0,1,45.323-9.324c.129-.022,5.157-.741,12.232-1.231a2.737,2.737,0,0,1,2.873,2.5,2.7,2.7,0,0,1-2.5,2.876c-6.862.474-11.872,1.188-11.92,1.2a243.508,243.508,0,0,0-44.415,9.127A2.756,2.756,0,0,1,725.289,332.322Z" transform="translate(-722.596 -316.499)" fill="#adadad"/>
      </g>
      <g id="Group_564" data-name="Group 564" transform="translate(860.329 345.72)">
        <path id="Path_278" data-name="Path 278" d="M831.115,344.153a2.682,2.682,0,0,1-1.013-.2,226.188,226.188,0,0,0-54.714-14.12c-.019,0-5.642-.679-12.725-1.287a2.691,2.691,0,0,1-2.451-2.914,2.652,2.652,0,0,1,2.914-2.451c7.18.617,12.887,1.3,12.946,1.309a231.574,231.574,0,0,1,56.055,14.473,2.693,2.693,0,0,1-1.012,5.19Z" transform="translate(-760.202 -323.166)" fill="#adadad"/>
      </g>
      <g id="Group_565" data-name="Group 565" transform="translate(798.139 344.54)">
        <path id="Path_279" data-name="Path 279" d="M739.8,330.6a2.693,2.693,0,0,1-.356-5.362,288.265,288.265,0,0,1,46.082-2.4,2.694,2.694,0,1,1-.154,5.386,280.528,280.528,0,0,0-45.21,2.348A2.771,2.771,0,0,1,739.8,330.6Z" transform="translate(-737.11 -322.728)" fill="#adadad"/>
      </g>
      <g id="Group_566" data-name="Group 566" transform="translate(730.618 348.819)">
        <path id="Path_280" data-name="Path 280" d="M714.735,347.672a2.694,2.694,0,0,1-1.2-5.106,207.359,207.359,0,0,1,48.994-16.66s5.206-1.134,7.446-1.541a2.691,2.691,0,1,1,.967,5.295c-2.187.4-7.271,1.508-7.277,1.511a201.79,201.79,0,0,0-47.733,16.218A2.644,2.644,0,0,1,714.735,347.672Z" transform="translate(-712.038 -324.317)" fill="#adadad"/>
      </g>
      <g id="Group_567" data-name="Group 567" transform="translate(885.357 366.231)">
        <path id="Path_281" data-name="Path 281" d="M844.3,363.832a2.659,2.659,0,0,1-1.511-.466c-11.826-8.05-26.07-14.78-42.337-20a212.181,212.181,0,0,0-28.733-7.237,2.692,2.692,0,0,1,.937-5.3,217.321,217.321,0,0,1,29.466,7.417c16.738,5.375,31.445,12.335,43.7,20.673a2.692,2.692,0,0,1-1.519,4.918Z" transform="translate(-769.495 -330.782)" fill="#adadad"/>
      </g>
      <g id="Group_568" data-name="Group 568" transform="translate(816.492 361.878)">
        <path id="Path_282" data-name="Path 282" d="M798.984,336.483a2.594,2.594,0,0,1-.321-.016,278.615,278.615,0,0,0-30.847-1.915c-.048,0-6.838.011-13.851.288l-7.212.361a2.694,2.694,0,0,1-.269-5.381l7.239-.361c7.15-.283,14.039-.294,14.109-.294a285.552,285.552,0,0,1,31.467,1.95,2.693,2.693,0,0,1-.315,5.367Z" transform="translate(-743.924 -329.166)" fill="#adadad"/>
      </g>
      <g id="Group_569" data-name="Group 569" transform="translate(709.986 377.678)">
        <path id="Path_283" data-name="Path 283" d="M707.074,359.371a2.693,2.693,0,0,1-1.605-4.858,154.9,154.9,0,0,1,35.875-19.294,2.692,2.692,0,0,1,1.955,5.017,149.64,149.64,0,0,0-34.626,18.607A2.674,2.674,0,0,1,707.074,359.371Z" transform="translate(-704.377 -335.033)" fill="#adadad"/>
      </g>
      <g id="Group_570" data-name="Group 570" transform="translate(917.916 392.047)">
        <path id="Path_284" data-name="Path 284" d="M835.47,373.989a2.682,2.682,0,0,1-1.8-.687c-12.5-11.179-29.875-20.756-50.262-27.691a2.691,2.691,0,1,1,1.734-5.1c21.066,7.164,39.091,17.112,52.121,28.774a2.693,2.693,0,0,1-1.8,4.7Z" transform="translate(-781.585 -340.368)" fill="#adadad"/>
      </g>
      <g id="Group_571" data-name="Group 571" transform="translate(867.793 381.04)">
        <path id="Path_285" data-name="Path 285" d="M796.61,347.124a2.712,2.712,0,0,1-.636-.076,250.262,250.262,0,0,0-25.4-4.748q-2.586-.347-5.211-.649a2.692,2.692,0,1,1,.617-5.349c1.78.2,3.555.423,5.313.66a254.816,254.816,0,0,1,25.951,4.853,2.692,2.692,0,0,1-.63,5.308Z" transform="translate(-762.973 -336.281)" fill="#adadad"/>
      </g>
      <g id="Group_572" data-name="Group 572" transform="translate(953.971 426.259)">
        <path id="Path_286" data-name="Path 286" d="M813.945,370.856a2.674,2.674,0,0,1-1.828-.714,111.311,111.311,0,0,0-15.892-12.1,2.695,2.695,0,1,1,2.887-4.551,116.778,116.778,0,0,1,16.66,12.7,2.692,2.692,0,0,1-1.826,4.67Z" transform="translate(-794.972 -353.071)" fill="#adadad"/>
      </g>
      <g id="Group_573" data-name="Group 573" transform="translate(895.759 403.132)">
        <path id="Path_287" data-name="Path 287" d="M827.227,368.83a2.653,2.653,0,0,1-1.3-.339q-2.937-1.628-6.033-3.167a237.093,237.093,0,0,0-22.156-9.2,221.169,221.169,0,0,0-22.283-6.315,2.693,2.693,0,0,1,1.2-5.252,226.7,226.7,0,0,1,22.851,6.48,236.975,236.975,0,0,1,22.781,9.464q3.208,1.592,6.256,3.283a2.694,2.694,0,0,1-1.311,5.047Z" transform="translate(-773.358 -344.484)" fill="#adadad"/>
      </g>
      <g id="Group_574" data-name="Group 574" transform="translate(701.065 428.372)">
        <path id="Path_288" data-name="Path 288" d="M703.758,369.525a2.692,2.692,0,0,1-1.823-4.673,113.808,113.808,0,0,1,13.391-10.533,2.693,2.693,0,1,1,3.019,4.46,108.488,108.488,0,0,0-12.76,10.035A2.672,2.672,0,0,1,703.758,369.525Z" transform="translate(-701.065 -353.856)" fill="#adadad"/>
      </g>
      <g id="Group_575" data-name="Group 575" transform="translate(951.783 476.922)">
        <path id="Path_289" data-name="Path 289" d="M807.208,384.317a2.687,2.687,0,0,1-1.619-.544c-2.491-1.877-5.152-3.714-7.9-5.464l-2.289-1.465a2.693,2.693,0,1,1,2.908-4.533l2.279,1.46c2.86,1.818,5.639,3.738,8.244,5.7a2.693,2.693,0,0,1-1.621,4.845Z" transform="translate(-794.16 -371.883)" fill="#adadad"/>
      </g>
      <g id="Group_576" data-name="Group 576" transform="translate(709.173 461.02)">
        <path id="Path_290" data-name="Path 290" d="M706.772,394.314a2.693,2.693,0,0,1-1.621-4.845c11.551-8.7,25.7-16.078,42.051-21.919.008,0,1.446-.512,4.258-1.435a2.693,2.693,0,1,1,1.678,5.117c-2.715.891-4.11,1.387-4.129,1.392-15.833,5.658-29.5,12.773-40.618,21.147A2.681,2.681,0,0,1,706.772,394.314Z" transform="translate(-704.076 -365.978)" fill="#adadad"/>
      </g>
      <g id="Group_577" data-name="Group 577" transform="translate(942.714 489.215)">
        <path id="Path_291" data-name="Path 291" d="M807.229,389.892a2.688,2.688,0,0,1-1.489-.452,140.706,140.706,0,0,0-13.487-7.9,2.693,2.693,0,1,1,2.467-4.788,145.26,145.26,0,0,1,14.007,8.209,2.693,2.693,0,0,1-1.5,4.934Z" transform="translate(-790.793 -376.448)" fill="#adadad"/>
      </g>
      <g id="Group_578" data-name="Group 578" transform="translate(736.233 475.73)">
        <path id="Path_292" data-name="Path 292" d="M716.821,386.513a2.693,2.693,0,0,1-1.1-5.152c4.1-1.837,9.741-3.959,9.981-4.048,5.5-2.117,11.314-4.061,17.25-5.769a2.693,2.693,0,0,1,1.489,5.176c-5.788,1.664-11.446,3.558-16.827,5.626-.075.03-5.739,2.163-9.7,3.932A2.74,2.74,0,0,1,716.821,386.513Z" transform="translate(-714.123 -371.44)" fill="#adadad"/>
      </g>
      <g id="Group_579" data-name="Group 579" transform="translate(714.861 492.018)">
        <path id="Path_293" data-name="Path 293" d="M708.894,388.1a2.7,2.7,0,0,1-1.29-5.068c2.733-1.807,5.591-3.558,8.494-5.2a2.693,2.693,0,0,1,2.648,4.691c-2.863,1.616-5.675,3.337-8.36,5.122A2.69,2.69,0,0,1,708.894,388.1Z" transform="translate(-706.188 -377.488)" fill="#adadad"/>
      </g>
      <g id="Group_580" data-name="Group 580" transform="translate(722.099 490.723)">
        <path id="Path_294" data-name="Path 294" d="M711.573,401.767a2.693,2.693,0,0,1-1.349-5.025,186.179,186.179,0,0,1,41.431-17.233c.081-.022,6.049-1.543,9.668-2.421a2.693,2.693,0,1,1,1.271,5.233c-3.6.872-9.529,2.386-9.529,2.386a180.558,180.558,0,0,0-40.149,16.7A2.672,2.672,0,0,1,711.573,401.767Z" transform="translate(-708.875 -377.008)" fill="#adadad"/>
      </g>
      <g id="Group_581" data-name="Group 581" transform="translate(731.121 512.909)">
        <path id="Path_295" data-name="Path 295" d="M714.923,400.336a2.692,2.692,0,0,1-1.2-5.106c3.348-1.654,6.841-3.237,10.387-4.713.04-.016,9.033-3.576,12.992-5.1a2.693,2.693,0,0,1,1.931,5.028c-3.943,1.513-12.895,5.058-12.9,5.058-3.4,1.414-6.784,2.949-10.029,4.551A2.682,2.682,0,0,1,714.923,400.336Z" transform="translate(-712.225 -385.246)" fill="#adadad"/>
      </g>
      <g id="Group_582" data-name="Group 582" transform="translate(898.122 525.07)">
        <path id="Path_296" data-name="Path 296" d="M807.722,404.982a2.716,2.716,0,0,1-1.018-.2c-3.2-1.312-6.542-2.567-9.908-3.73-.051-.019-11.643-3.708-15.693-4.751l-4.837-1.236a2.694,2.694,0,0,1,1.325-5.222l4.864,1.244c4.188,1.077,15.558,4.7,16.04,4.85,3.523,1.22,6.948,2.51,10.245,3.857a2.693,2.693,0,0,1-1.018,5.187Z" transform="translate(-774.235 -389.761)" fill="#adadad"/>
      </g>
      <g id="Group_583" data-name="Group 583" transform="translate(885.663 539.792)">
        <path id="Path_297" data-name="Path 297" d="M801.087,407.816a2.756,2.756,0,0,1-.824-.129,231.065,231.065,0,0,0-28.45-7.113,2.694,2.694,0,1,1,.983-5.3,236.89,236.89,0,0,1,29.116,7.282,2.693,2.693,0,0,1-.824,5.257Z" transform="translate(-769.609 -395.228)" fill="#adadad"/>
      </g>
      <g id="Group_584" data-name="Group 584" transform="translate(815.904 535.312)">
        <path id="Path_298" data-name="Path 298" d="M796.919,400.609a2.8,2.8,0,0,1-.3-.016,285.272,285.272,0,0,0-44.281-1.309l-5.753.409a2.693,2.693,0,0,1-.382-5.373l5.812-.412a288.921,288.921,0,0,1,45.188,1.331,2.693,2.693,0,0,1-.288,5.37Z" transform="translate(-743.706 -393.564)" fill="#adadad"/>
      </g>
      <g id="Group_585" data-name="Group 585" transform="translate(756.893 537.944)">
        <path id="Path_299" data-name="Path 299" d="M724.488,408.979a2.693,2.693,0,0,1-.824-5.257,243.47,243.47,0,0,1,40.65-9.151,2.693,2.693,0,1,1,.74,5.335,238.269,238.269,0,0,0-39.743,8.944A2.754,2.754,0,0,1,724.488,408.979Z" transform="translate(-721.795 -394.541)" fill="#adadad"/>
      </g>
      <g id="Group_586" data-name="Group 586" transform="translate(840.101 552.704)">
        <path id="Path_300" data-name="Path 300" d="M809.762,411.659a2.6,2.6,0,0,1-.59-.065,266.08,266.08,0,0,0-53.828-6.186,2.693,2.693,0,0,1,.04-5.386h.043a271.4,271.4,0,0,1,54.919,6.318,2.692,2.692,0,0,1-.584,5.319Z" transform="translate(-752.691 -400.022)" fill="#adadad"/>
      </g>
      <g id="Group_587" data-name="Group 587" transform="translate(776.85 553.223)">
        <path id="Path_301" data-name="Path 301" d="M731.912,411.332a2.694,2.694,0,0,1-.442-5.354,266.473,266.473,0,0,1,41.275-5.761,2.694,2.694,0,1,1,.331,5.378,261.126,261.126,0,0,0-40.578,5.672A2.543,2.543,0,0,1,731.912,411.332Z" transform="translate(-729.205 -400.215)" fill="#adadad"/>
      </g>
      <g id="Group_588" data-name="Group 588" transform="translate(814.395 570.009)">
        <path id="Path_302" data-name="Path 302" d="M745.839,412.616a2.693,2.693,0,0,1-.2-5.378,291.979,291.979,0,0,1,42.921,0,2.691,2.691,0,0,1,2.488,2.882,2.661,2.661,0,0,1-2.884,2.488,287.163,287.163,0,0,0-42.129,0C745.968,412.613,745.9,412.616,745.839,412.616Z" transform="translate(-743.146 -406.448)" fill="#adadad"/>
      </g>
      <g id="Group_589" data-name="Group 589" transform="translate(702.155 432.907)">
        <path id="Path_303" data-name="Path 303" d="M704.163,383.037a2.683,2.683,0,0,1-2.693-2.682v-.024a2.691,2.691,0,0,1,.9-2.006A131.086,131.086,0,0,1,732,358.8a57.511,57.511,0,0,1,6.334-3.038,2.693,2.693,0,1,1,2.136,4.945,52.2,52.2,0,0,0-5.726,2.725c-.078.049-.175.105-.256.145a126.165,126.165,0,0,0-28.415,18.661A2.689,2.689,0,0,1,704.163,383.037Z" transform="translate(-701.47 -355.54)" fill="#adadad"/>
      </g>
      <g id="Group_590" data-name="Group 590" transform="translate(702.207 406.468)">
        <path id="Path_304" data-name="Path 304" d="M704.182,364.923a2.693,2.693,0,0,1-1.8-4.7,114.167,114.167,0,0,1,19.69-14.136,2.693,2.693,0,0,1,2.7,4.662,108.78,108.78,0,0,0-18.8,13.487A2.681,2.681,0,0,1,704.182,364.923Z" transform="translate(-701.489 -345.723)" fill="#adadad"/>
      </g>
      <g id="Group_591" data-name="Group 591" transform="translate(765.039 505.922)">
        <path id="Path_305" data-name="Path 305" d="M727.511,391.958a2.693,2.693,0,0,1-.716-5.289c4.468-1.242,10.552-2.685,16.7-3.962a2.694,2.694,0,1,1,1.093,5.276c-6.03,1.25-11.987,2.666-16.347,3.878A2.792,2.792,0,0,1,727.511,391.958Z" transform="translate(-724.82 -382.651)" fill="#adadad"/>
      </g>
      <g id="Group_592" data-name="Group 592" transform="translate(911.277 511.411)">
        <path id="Path_306" data-name="Path 306" d="M810.754,401.3a2.675,2.675,0,0,1-1.188-.277,191.564,191.564,0,0,0-28.547-11.066,2.694,2.694,0,1,1,1.589-5.149A196.977,196.977,0,0,1,811.95,396.2a2.692,2.692,0,0,1-1.2,5.106Z" transform="translate(-779.119 -384.689)" fill="#adadad"/>
      </g>
      <g id="Group_593" data-name="Group 593" transform="translate(721.576 419.433)">
        <path id="Path_307" data-name="Path 307" d="M711.379,360.122a2.693,2.693,0,0,1-1.365-5.017c3.221-1.885,4.923-2.806,7.923-4.288a2.693,2.693,0,0,1,2.383,4.829c-2.865,1.417-4.495,2.3-7.584,4.11A2.706,2.706,0,0,1,711.379,360.122Z" transform="translate(-708.681 -350.537)" fill="#adadad"/>
      </g>
    </g>
  </g>
</svg>
