<svg xmlns="http://www.w3.org/2000/svg" width="30" height="30" viewBox="0 0 30 30">
  <g id="person-done" transform="translate(12 12)">
    <g id="person-done-outline" transform="translate(-12 -12)">
      <g id="person-done-2" data-name="person-done">
        <rect id="Rectangle_11910" data-name="Rectangle 11910" width="30" height="30" opacity="0"/>
        <path id="Path_57509" data-name="Path 57509" d="M23.076,4.312a1.25,1.25,0,0,0-1.763.113L18.976,7.112l-.787-.887a1.253,1.253,0,1,0-1.875,1.662l1.737,1.95a1.245,1.245,0,0,0,1.862-.013l3.263-3.75a1.25,1.25,0,0,0-.1-1.763Z" transform="translate(3.999 1)" fill="#007066"/>
        <path id="Path_57510" data-name="Path 57510" d="M11,13A5,5,0,1,0,6,8,5,5,0,0,0,11,13Zm0-7.5A2.5,2.5,0,1,1,8.5,8,2.5,2.5,0,0,1,11,5.5Z" transform="translate(1.5 0.75)" fill="#cca079"/>
        <path id="Path_57511" data-name="Path 57511" d="M11.75,13A8.75,8.75,0,0,0,3,21.75a1.25,1.25,0,0,0,2.5,0,6.25,6.25,0,0,1,12.5,0,1.25,1.25,0,0,0,2.5,0A8.75,8.75,0,0,0,11.75,13Z" transform="translate(0.75 3.25)" fill="#cca079"/>
      </g>
    </g>
  </g>
</svg>
