<svg xmlns="http://www.w3.org/2000/svg" width="30" height="30" viewBox="0 0 30 30">
  <g id="pin" transform="translate(12 12)">
    <g id="pin-outline" transform="translate(-12 -12)">
      <g id="pin-2" data-name="pin">
        <rect id="Rectangle_11913" data-name="Rectangle 11913" width="30" height="30" opacity="0"/>
        <path id="Path_57518" data-name="Path 57518" d="M14,2A10,10,0,0,0,4,11.9c0,6.849,8.813,14.474,9.188,14.8a1.25,1.25,0,0,0,1.625,0C15.25,26.375,24,18.75,24,11.9A10,10,0,0,0,14,2Zm0,22.063c-2.087-1.988-7.5-7.5-7.5-12.163a7.5,7.5,0,0,1,15,0C21.5,16.525,16.088,22.075,14,24.063Z" transform="translate(1 0.5)" fill="#cca079"/>
        <path id="Path_57519" data-name="Path 57519" d="M12.875,6a4.375,4.375,0,1,0,4.375,4.375A4.375,4.375,0,0,0,12.875,6Zm0,6.25a1.875,1.875,0,1,1,1.875-1.875A1.875,1.875,0,0,1,12.875,12.25Z" transform="translate(2.125 1.5)" fill="#007066"/>
      </g>
    </g>
  </g>
</svg>
