<svg id="prePagi" xmlns="http://www.w3.org/2000/svg" width="24" height="24" viewBox="0 0 24 24">
  <g id="arrowhead-left">
    <rect id="Rectangle_11266" data-name="Rectangle 11266" width="24" height="24" transform="translate(24) rotate(90)" fill="#bbb" opacity="0"/>
    <path id="Path_6578" data-name="Path 6578" d="M11.64,5.23a1,1,0,0,0-1.41.13l-5,6a1,1,0,0,0,0,1.27l4.83,6a1,1,0,1,0,1.56-1.26L7.29,12l4.48-5.37a1,1,0,0,0-.13-1.4Z" fill="#bbb"/>
    <path id="Path_6579" data-name="Path 6579" d="M14.29,12l4.48-5.37a1,1,0,1,0-1.54-1.28l-5,6a1,1,0,0,0,0,1.27l4.83,6a1,1,0,1,0,1.56-1.26Z" fill="#bbb"/>
  </g>
</svg>
