<svg xmlns="http://www.w3.org/2000/svg" width="24" height="24" viewBox="0 0 24 24">
  <g id="qualityAssurance" transform="translate(12 12)">
    <g id="grid-outline" transform="translate(-12 -12)">
      <g id="grid">
        <rect id="Rectangle_16197" data-name="Rectangle 16197" width="24" height="24" fill="#cca079" opacity="0"/>
        <path id="Path_65885" data-name="Path 65885" d="M9,3H5A2,2,0,0,0,3,5V9a2,2,0,0,0,2,2H9a2,2,0,0,0,2-2V5A2,2,0,0,0,9,3ZM5,9V5H9V9Z" fill="#cca079"/>
        <path id="Path_65886" data-name="Path 65886" d="M19,3H15a2,2,0,0,0-2,2V9a2,2,0,0,0,2,2h4a2,2,0,0,0,2-2V5A2,2,0,0,0,19,3ZM15,9V5h4V9Z" fill="#cca079"/>
        <path id="Path_65887" data-name="Path 65887" d="M9,13H5a2,2,0,0,0-2,2v4a2,2,0,0,0,2,2H9a2,2,0,0,0,2-2V15A2,2,0,0,0,9,13ZM5,19V15H9v4Z" fill="#cca079"/>
        <path id="Path_65888" data-name="Path 65888" d="M19,13H15a2,2,0,0,0-2,2v4a2,2,0,0,0,2,2h4a2,2,0,0,0,2-2V15A2,2,0,0,0,19,13Zm-4,6V15h4v4Z" fill="#cca079"/>
      </g>
    </g>
  </g>
</svg>
