<svg xmlns="http://www.w3.org/2000/svg" width="207.475" height="52.659" viewBox="0 0 207.475 52.659">
  <g id="reCAPTCHA_v2_checkbox" data-name="reCAPTCHA v2 checkbox" transform="translate(-6.671 -6.678)">
    <g id="Group_24836" data-name="Group 24836" transform="translate(7 7.007)">
      <rect id="Rectangle_11682" data-name="Rectangle 11682" width="206.816" height="52" rx="4.03" fill="#f9f9f9"/>
      <rect id="Rectangle_11683" data-name="Rectangle 11683" width="206.132" height="51.316" rx="3.358" transform="translate(0.342 0.342)" fill="none" stroke="#d3d3d3" stroke-width="1.343"/>
    </g>
    <path id="Path_52804" data-name="Path 52804" d="M325.348,75.981a1.857,1.857,0,0,0-.3-.023.814.814,0,0,0-.825.518v2.566H323.6V75.426h.6l.01.418a.962.962,0,0,1,.862-.484.631.631,0,0,1,.274.047Z" transform="translate(-155.325 -33.533)" fill="#555"/>
    <path id="Path_52805" data-name="Path 52805" d="M329.37,79.108a1.582,1.582,0,0,1-1.2-.481,1.8,1.8,0,0,1-.461-1.293V77.22a2.171,2.171,0,0,1,.2-.959,1.6,1.6,0,0,1,.575-.661,1.445,1.445,0,0,1,.8-.241,1.353,1.353,0,0,1,1.1.464,2.009,2.009,0,0,1,.391,1.33v.257h-2.449a1.3,1.3,0,0,0,.311.865.99.99,0,0,0,.762.327,1.075,1.075,0,0,0,.554-.134,1.39,1.39,0,0,0,.4-.354l.377.294A1.518,1.518,0,0,1,329.37,79.108Zm-.077-3.241a.822.822,0,0,0-.628.274,1.313,1.313,0,0,0-.314.762h1.81v-.047a1.171,1.171,0,0,0-.254-.728A.774.774,0,0,0,329.293,75.867Z" transform="translate(-157.342 -33.533)" fill="#555"/>
    <path id="Path_52806" data-name="Path 52806" d="M338.751,76.294a1.794,1.794,0,0,1-.571,1.193,1.867,1.867,0,0,1-1.273.418,1.719,1.719,0,0,1-1.383-.618,2.491,2.491,0,0,1-.518-1.654v-.468a2.786,2.786,0,0,1,.24-1.193,1.81,1.81,0,0,1,.688-.788,1.9,1.9,0,0,1,1.029-.277,1.753,1.753,0,0,1,1.243.434,1.8,1.8,0,0,1,.545,1.2h-.645a1.383,1.383,0,0,0-.364-.842,1.092,1.092,0,0,0-.778-.261,1.152,1.152,0,0,0-.965.454,2.091,2.091,0,0,0-.347,1.293v.471a2.142,2.142,0,0,0,.331,1.259,1.069,1.069,0,0,0,.926.468,1.235,1.235,0,0,0,.819-.241,1.346,1.346,0,0,0,.38-.845Z" transform="translate(-160.92 -32.33)" fill="#555"/>
    <path id="Path_52807" data-name="Path 52807" d="M346.315,76.632h-2.038l-.457,1.27h-.662l1.858-4.864h.561l1.861,4.864h-.658Zm-1.844-.528h1.654l-.828-2.275Z" transform="translate(-164.919 -32.394)" fill="#555"/>
    <path id="Path_52808" data-name="Path 52808" d="M353.486,76v1.9h-.641V73.038h1.794a1.8,1.8,0,0,1,1.25.408,1.381,1.381,0,0,1,.454,1.079,1.365,1.365,0,0,1-.445,1.092,1.88,1.88,0,0,1-1.266.381Zm0-.525h1.153a1.16,1.16,0,0,0,.789-.241.891.891,0,0,0,.274-.7.915.915,0,0,0-.274-.695,1.082,1.082,0,0,0-.752-.271h-1.189Z" transform="translate(-169.672 -32.394)" fill="#555"/>
    <path id="Path_52809" data-name="Path 52809" d="M364.293,73.565H362.73V77.9h-.638V73.565h-1.56v-.528h3.761Z" transform="translate(-173.443 -32.394)" fill="#555"/>
    <path id="Path_52810" data-name="Path 52810" d="M372.567,76.294A1.794,1.794,0,0,1,372,77.487a1.865,1.865,0,0,1-1.273.418,1.719,1.719,0,0,1-1.383-.618,2.491,2.491,0,0,1-.518-1.654v-.468a2.786,2.786,0,0,1,.241-1.193,1.807,1.807,0,0,1,.688-.788,1.9,1.9,0,0,1,1.029-.277,1.753,1.753,0,0,1,1.242.434,1.8,1.8,0,0,1,.545,1.2h-.645a1.389,1.389,0,0,0-.364-.842,1.092,1.092,0,0,0-.778-.261,1.153,1.153,0,0,0-.966.454,2.094,2.094,0,0,0-.347,1.293v.471a2.142,2.142,0,0,0,.331,1.259,1.068,1.068,0,0,0,.925.468,1.234,1.234,0,0,0,.819-.241,1.348,1.348,0,0,0,.381-.845Z" transform="translate(-177.51 -32.33)" fill="#555"/>
    <path id="Path_52811" data-name="Path 52811" d="M381.636,77.9h-.644V75.654H378.54V77.9H377.9V73.038h.642v2.091h2.452V73.038h.644Z" transform="translate(-181.963 -32.394)" fill="#555"/>
    <path id="Path_52812" data-name="Path 52812" d="M389.824,76.632h-2.038l-.457,1.27h-.662l1.858-4.864h.561l1.861,4.864h-.658ZM387.98,76.1h1.654l-.829-2.275Z" transform="translate(-186.265 -32.394)" fill="#555"/>
    <path id="Path_52813" data-name="Path 52813" d="M321.853,91.776V93.3h-.513V89.408h1.435a1.436,1.436,0,0,1,1,.326,1.229,1.229,0,0,1,.008,1.737,1.506,1.506,0,0,1-1.013.3Zm0-.42h.922a.927.927,0,0,0,.631-.192.712.712,0,0,0,.219-.561.731.731,0,0,0-.219-.556.864.864,0,0,0-.6-.216h-.952Z" transform="translate(-154.215 -40.426)" fill="#555"/>
    <path id="Path_52814" data-name="Path 52814" d="M329.364,91.762a1.481,1.481,0,0,0-.243-.019.651.651,0,0,0-.66.414V94.21h-.495V91.318h.481l.008.334a.771.771,0,0,1,.69-.388.5.5,0,0,1,.219.037Z" transform="translate(-157.466 -41.337)" fill="#555"/>
    <path id="Path_52815" data-name="Path 52815" d="M332.147,93.247h-.495V90.356h.495Zm-.534-3.659a.3.3,0,0,1,.072-.2.332.332,0,0,1,.439,0,.292.292,0,0,1,.075.2.282.282,0,0,1-.075.2.34.34,0,0,1-.439,0A.289.289,0,0,1,331.613,89.589Z" transform="translate(-159.255 -40.374)" fill="#555"/>
    <path id="Path_52816" data-name="Path 52816" d="M334.9,93.591l.717-2.221h.5l-1.037,2.892h-.376l-1.048-2.892h.505Z" transform="translate(-160.259 -41.388)" fill="#555"/>
    <path id="Path_52817" data-name="Path 52817" d="M341.047,94.21a1.038,1.038,0,0,1-.069-.3,1.1,1.1,0,0,1-.823.358,1.029,1.029,0,0,1-.7-.241.788.788,0,0,1-.273-.615.815.815,0,0,1,.342-.7,1.618,1.618,0,0,1,.967-.251h.481V92.23a.552.552,0,0,0-.155-.412.62.62,0,0,0-.457-.155.722.722,0,0,0-.444.134.394.394,0,0,0-.179.323h-.5a.681.681,0,0,1,.152-.417,1.056,1.056,0,0,1,.417-.321,1.41,1.41,0,0,1,.58-.118,1.138,1.138,0,0,1,.783.251.9.9,0,0,1,.294.687v1.331a1.627,1.627,0,0,0,.1.633v.043Zm-.821-.377a.869.869,0,0,0,.441-.12.729.729,0,0,0,.3-.313v-.593h-.388q-.909,0-.909.532a.451.451,0,0,0,.155.363A.6.6,0,0,0,340.226,93.833Z" transform="translate(-162.967 -41.337)" fill="#555"/>
    <path id="Path_52818" data-name="Path 52818" d="M346.222,93.86a.713.713,0,0,0,.463-.16.564.564,0,0,0,.219-.4h.468a.893.893,0,0,1-.171.473,1.122,1.122,0,0,1-.422.358,1.287,1.287,0,0,1-1.5-.259,1.581,1.581,0,0,1-.347-1.08v-.083a1.74,1.74,0,0,1,.155-.751,1.18,1.18,0,0,1,.444-.51,1.269,1.269,0,0,1,.687-.182,1.153,1.153,0,0,1,.807.291,1.038,1.038,0,0,1,.345.756H346.9a.674.674,0,0,0-.214-.46.653.653,0,0,0-.47-.182.7.7,0,0,0-.585.273,1.275,1.275,0,0,0-.206.783v.094a1.25,1.25,0,0,0,.206.77A.7.7,0,0,0,346.222,93.86Z" transform="translate(-165.791 -41.337)" fill="#555"/>
    <path id="Path_52819" data-name="Path 52819" d="M351.453,93.537l.673-2.168h.529l-1.162,3.338q-.271.722-.858.722l-.093-.008-.184-.035v-.4l.133.011a.651.651,0,0,0,.39-.1.728.728,0,0,0,.233-.372l.11-.294-1.032-2.86h.54Z" transform="translate(-168.37 -41.388)" fill="#555"/>
    <path id="Path_52820" data-name="Path 52820" d="M369.388,89.83h-1.251V93.3h-.51V89.83h-1.248v-.422h3.01Z" transform="translate(-176.311 -40.426)" fill="#555"/>
    <path id="Path_52821" data-name="Path 52821" d="M373.821,94.264a1.264,1.264,0,0,1-.957-.385,1.437,1.437,0,0,1-.369-1.034v-.091a1.734,1.734,0,0,1,.163-.767,1.279,1.279,0,0,1,.459-.529,1.156,1.156,0,0,1,.641-.192,1.083,1.083,0,0,1,.877.371,1.609,1.609,0,0,1,.313,1.064v.206H372.99a1.038,1.038,0,0,0,.249.692.792.792,0,0,0,.609.262.861.861,0,0,0,.444-.107,1.118,1.118,0,0,0,.318-.283l.3.235A1.215,1.215,0,0,1,373.821,94.264Zm-.062-2.593a.657.657,0,0,0-.5.219,1.052,1.052,0,0,0-.251.609h1.448v-.037a.938.938,0,0,0-.2-.583A.62.62,0,0,0,373.76,91.671Z" transform="translate(-179.313 -41.337)" fill="#555"/>
    <path id="Path_52822" data-name="Path 52822" d="M379.838,91.762a1.48,1.48,0,0,0-.243-.019.651.651,0,0,0-.66.414V94.21h-.495V91.318h.481l.008.334a.771.771,0,0,1,.69-.388.5.5,0,0,1,.219.037Z" transform="translate(-182.229 -41.337)" fill="#555"/>
    <path id="Path_52823" data-name="Path 52823" d="M382.544,91.318l.014.321a1.067,1.067,0,0,1,.858-.374.827.827,0,0,1,.826.465,1.1,1.1,0,0,1,.374-.337,1.115,1.115,0,0,1,.548-.128q.951,0,.967,1.008V94.21h-.494V92.3a.66.66,0,0,0-.142-.462.621.621,0,0,0-.476-.155.652.652,0,0,0-.457.166.663.663,0,0,0-.211.441V94.21h-.5V92.315a.552.552,0,0,0-.617-.631.661.661,0,0,0-.665.414V94.21h-.495V91.318Z" transform="translate(-184.013 -41.337)" fill="#555"/>
    <path id="Path_52824" data-name="Path 52824" d="M393.072,93.443a.36.36,0,0,0-.152-.31,1.419,1.419,0,0,0-.527-.192,2.524,2.524,0,0,1-.6-.192.865.865,0,0,1-.326-.267.647.647,0,0,1-.1-.369.751.751,0,0,1,.3-.6,1.179,1.179,0,0,1,.77-.246,1.2,1.2,0,0,1,.8.254.805.805,0,0,1,.307.649h-.5a.444.444,0,0,0-.174-.35.641.641,0,0,0-.433-.147.677.677,0,0,0-.422.118.371.371,0,0,0-.152.307.3.3,0,0,0,.142.27,1.747,1.747,0,0,0,.51.174,2.659,2.659,0,0,1,.6.2.856.856,0,0,1,.339.278.668.668,0,0,1,.113.393.744.744,0,0,1-.31.623,1.306,1.306,0,0,1-.8.233,1.457,1.457,0,0,1-.615-.123,1.015,1.015,0,0,1-.42-.342.839.839,0,0,1-.15-.478h.495a.519.519,0,0,0,.2.4.784.784,0,0,0,.492.144.8.8,0,0,0,.449-.112A.352.352,0,0,0,393.072,93.443Z" transform="translate(-188.522 -41.337)" fill="#555"/>
    <path id="Path_52825" data-name="Path 52825" d="M360.724,94.124h-1.4V93.6h1.4Z" transform="translate(-172.849 -42.482)"/>
    <g id="Group_24837" data-name="Group 24837" transform="translate(180.994 16.086)">
      <path id="Path_52826" data-name="Path 52826" d="M361.656,28.482q-.139-.173-.286-.341a9.765,9.765,0,0,0-12.8-1.633l2.816,4.16a4.74,4.74,0,0,1,6.676,1.41l-2.493,2.493h8.285V26.287Z" transform="translate(-348.567 -24.83)" fill="#1c3aa9"/>
    </g>
    <g id="Group_24838" data-name="Group 24838" transform="translate(176.703 16.087)">
      <path id="Path_52827" data-name="Path 52827" d="M349.886,24.831H341.6l2.17,2.17A9.765,9.765,0,0,0,341.2,39l4.483-2.268a4.741,4.741,0,0,1,1.573-6.066c.038-.026.075-.05.114-.075l2.521,2.521Z" transform="translate(-340.144 -24.831)" fill="#4285f4"/>
    </g>
    <g id="Group_24839" data-name="Group 24839" transform="translate(176.703 25.92)">
      <path id="Path_52828" data-name="Path 52828" d="M340.144,44.134h8.285l-2.5,2.5a4.741,4.741,0,0,0,8.126-.268l3.623,3.614a9.765,9.765,0,0,1-15.342.245l-2.19,2.191Z" transform="translate(-340.144 -44.134)" fill="#ababab"/>
    </g>
    <path id="Path_52829" data-name="Path 52829" d="M80.767,56.862h-.9v-6.81h.9Z" transform="translate(-35.749 -21.118)"/>
    <path id="Path_52830" data-name="Path 52830" d="M84.244,51.609l-.491-.337a2.251,2.251,0,0,0,.449-1.282v-.673h.856v.608a2.16,2.16,0,0,1-.234.935A2.135,2.135,0,0,1,84.244,51.609Z" transform="translate(-37.655 -20.757)"/>
    <path id="Path_52831" data-name="Path 52831" d="M88.987,53.4l.023.561a1.869,1.869,0,0,1,1.5-.655,1.447,1.447,0,0,1,1.445.814,1.923,1.923,0,0,1,.655-.589,1.955,1.955,0,0,1,.959-.224q1.665,0,1.693,1.763v3.391H94.4v-3.34a1.152,1.152,0,0,0-.248-.809,1.086,1.086,0,0,0-.833-.271,1.142,1.142,0,0,0-.8.29,1.158,1.158,0,0,0-.37.772v3.358h-.87V55.14a.965.965,0,0,0-1.08-1.1,1.158,1.158,0,0,0-1.165.725v3.7h-.865V53.4Z" transform="translate(-39.822 -22.712)"/>
    <path id="Path_52832" data-name="Path 52832" d="M110.152,53.4l.028.636a1.844,1.844,0,0,1,1.515-.73q1.6,0,1.618,1.81v3.344h-.865V55.108a1.156,1.156,0,0,0-.253-.809.994.994,0,0,0-.762-.262,1.249,1.249,0,0,0-.739.225,1.522,1.522,0,0,0-.5.589v3.606h-.865V53.4Z" transform="translate(-50.205 -22.712)"/>
    <path id="Path_52833" data-name="Path 52833" d="M119.259,55.879a3.006,3.006,0,0,1,.29-1.338,2.2,2.2,0,0,1,.814-.917,2.227,2.227,0,0,1,1.193-.323,2.127,2.127,0,0,1,1.67.716,2.748,2.748,0,0,1,.641,1.9v.061a3.012,3.012,0,0,1-.285,1.328,2.133,2.133,0,0,1-.809.912,2.228,2.228,0,0,1-1.207.327,2.137,2.137,0,0,1-1.67-.716,2.747,2.747,0,0,1-.636-1.894Zm.87.1a2.171,2.171,0,0,0,.389,1.352,1.327,1.327,0,0,0,2.1,0,2.378,2.378,0,0,0,.388-1.45,2.143,2.143,0,0,0-.4-1.347,1.31,1.31,0,0,0-2.081-.009A2.351,2.351,0,0,0,120.129,55.982Z" transform="translate(-55.074 -22.712)"/>
    <path id="Path_52834" data-name="Path 52834" d="M131.017,51.08v1.225h.944v.669h-.944v3.138a.712.712,0,0,0,.126.458.537.537,0,0,0,.43.15,2.1,2.1,0,0,0,.412-.056v.7a2.508,2.508,0,0,1-.664.094,1.078,1.078,0,0,1-.875-.351,1.509,1.509,0,0,1-.294-1V52.975h-.921v-.669h.921V51.08Z" transform="translate(-59.966 -21.622)"/>
    <path id="Path_52835" data-name="Path 52835" d="M144.234,58.457a1.812,1.812,0,0,1-.122-.533,1.931,1.931,0,0,1-1.441.627,1.8,1.8,0,0,1-1.23-.421,1.38,1.38,0,0,1-.477-1.076,1.426,1.426,0,0,1,.6-1.225,2.832,2.832,0,0,1,1.693-.44h.842v-.4a.964.964,0,0,0-.271-.72,1.085,1.085,0,0,0-.8-.271,1.264,1.264,0,0,0-.777.234.689.689,0,0,0-.313.566h-.87a1.191,1.191,0,0,1,.267-.73,1.847,1.847,0,0,1,.729-.561,2.471,2.471,0,0,1,1.015-.206,1.994,1.994,0,0,1,1.37.44,1.571,1.571,0,0,1,.514,1.2v2.329a2.844,2.844,0,0,0,.178,1.109v.075ZM142.8,57.8a1.522,1.522,0,0,0,.772-.21,1.273,1.273,0,0,0,.528-.547V56h-.678q-1.59,0-1.59.931a.788.788,0,0,0,.272.636A1.042,1.042,0,0,0,142.8,57.8Z" transform="translate(-65.723 -22.712)"/>
    <path id="Path_52836" data-name="Path 52836" d="M158.588,54.172a2.585,2.585,0,0,0-.425-.033,1.14,1.14,0,0,0-1.155.725v3.592h-.865V53.4h.842l.014.585A1.348,1.348,0,0,1,158.2,53.3a.883.883,0,0,1,.384.065Z" transform="translate(-73.169 -22.712)"/>
    <path id="Path_52837" data-name="Path 52837" d="M161.881,55.879a3.006,3.006,0,0,1,.29-1.338,2.2,2.2,0,0,1,.814-.917,2.227,2.227,0,0,1,1.193-.323,2.127,2.127,0,0,1,1.67.716,2.746,2.746,0,0,1,.641,1.9v.061a3.012,3.012,0,0,1-.285,1.328,2.133,2.133,0,0,1-.809.912,2.228,2.228,0,0,1-1.207.327,2.137,2.137,0,0,1-1.67-.716,2.747,2.747,0,0,1-.636-1.894Zm.87.1a2.174,2.174,0,0,0,.388,1.352,1.327,1.327,0,0,0,2.1,0,2.378,2.378,0,0,0,.388-1.45,2.143,2.143,0,0,0-.4-1.347,1.31,1.31,0,0,0-2.081-.009A2.351,2.351,0,0,0,162.751,55.982Z" transform="translate(-75.985 -22.712)"/>
    <path id="Path_52838" data-name="Path 52838" d="M177.34,54.027a3.019,3.019,0,0,1-.533,1.866,1.706,1.706,0,0,1-1.431.7,1.763,1.763,0,0,1-1.482-.678l-.042.585h-.8V49.317h.865V52a1.753,1.753,0,0,1,1.445-.65,1.708,1.708,0,0,1,1.445.7,3.088,3.088,0,0,1,.529,1.908Zm-.865-.1a2.338,2.338,0,0,0-.341-1.366,1.131,1.131,0,0,0-.982-.482,1.27,1.27,0,0,0-1.23.8v2.189a1.305,1.305,0,0,0,1.239.8,1.124,1.124,0,0,0,.968-.482A2.49,2.49,0,0,0,176.474,53.929Z" transform="translate(-81.467 -20.757)"/>
    <path id="Path_52839" data-name="Path 52839" d="M183.164,55.879a3.006,3.006,0,0,1,.29-1.338,2.2,2.2,0,0,1,.814-.917,2.228,2.228,0,0,1,1.193-.323,2.126,2.126,0,0,1,1.669.716,2.746,2.746,0,0,1,.641,1.9v.061a3.005,3.005,0,0,1-.285,1.328,2.129,2.129,0,0,1-.809.912,2.229,2.229,0,0,1-1.207.327,2.136,2.136,0,0,1-1.67-.716,2.747,2.747,0,0,1-.636-1.894Zm.87.1a2.174,2.174,0,0,0,.388,1.352,1.328,1.328,0,0,0,2.1,0,2.378,2.378,0,0,0,.388-1.45,2.14,2.14,0,0,0-.4-1.347,1.31,1.31,0,0,0-2.081-.009A2.351,2.351,0,0,0,184.034,55.982Z" transform="translate(-86.426 -22.712)"/>
    <path id="Path_52840" data-name="Path 52840" d="M194.922,51.08v1.225h.945v.669h-.945v3.138a.712.712,0,0,0,.126.458.537.537,0,0,0,.43.15,2.1,2.1,0,0,0,.412-.056v.7a2.511,2.511,0,0,1-.664.094,1.078,1.078,0,0,1-.875-.351,1.506,1.506,0,0,1-.294-1V52.975h-.922v-.669h.922V51.08Z" transform="translate(-91.318 -21.622)"/>
    <path id="Path_52841" data-name="Path 52841" d="M42.2,39.269H25.88a.051.051,0,0,0-.051.051v16.32a.051.051,0,0,0,.051.051H42.2a.051.051,0,0,0,.051-.051V39.319A.051.051,0,0,0,42.2,39.269Zm0-1.368H25.88a1.419,1.419,0,0,0-1.419,1.419v16.32a1.419,1.419,0,0,0,1.419,1.419H42.2a1.419,1.419,0,0,0,1.419-1.419V39.319A1.419,1.419,0,0,0,42.2,37.9Z" transform="translate(-8.567 -15.156)" fill="#c1c1c1" fill-rule="evenodd"/>
    <rect id="Rectangle_11684" data-name="Rectangle 11684" width="16.421" height="16.421" transform="translate(17.263 24.113)" fill="#fff"/>
  </g>
</svg>
