<svg xmlns="http://www.w3.org/2000/svg" width="16.286" height="18" viewBox="0 0 16.286 18">
  <g id="reloadImg" transform="translate(-4.396 -0.001)">
    <path id="Path_56316" data-name="Path 56316" d="M17.3,3.267a.747.747,0,0,0-.874,1.212A6.644,6.644,0,1,1,11.55,3.291a.353.353,0,0,0,.041-.01l.031,1.476a.4.4,0,0,0,.7.272L14.443,2.81a.4.4,0,0,0-.012-.572L12.213.113a.4.4,0,0,0-.571.012.411.411,0,0,0-.113.288l.029,1.406a.747.747,0,0,0-.232-.005A8.137,8.137,0,1,0,17.3,3.267Z" transform="translate(0 0)" fill="#fff"/>
  </g>
</svg>
