<svg xmlns="http://www.w3.org/2000/svg" width="78.934" height="79.578" viewBox="0 0 78.934 79.578">
  <g id="RULESicon" transform="translate(1.5 -7.302)">
    <circle id="Ellipse_219" data-name="Ellipse 219" cx="31.572" cy="31.572" r="31.572" transform="translate(9 23.736)" fill="#bbb" opacity="0.3"/>
    <path id="Path_51124" data-name="Path 51124" d="M229.733,170.618s7.7-.12,8.382-3.5-.413-7.142,2.387-9.7,5.115-2.781,7.867-1.879a6.353,6.353,0,0,1,4.328,6.958l-.9,3.793,3.309,3.354,8.194.555,6.089,2.932-2.706-7.291-4.361-5.865,2.7-4.359s1.5-2.256,5.186-1.43,5.2.468,5.2.468" transform="translate(-227.058 -109.82)" fill="none" stroke="#c48e61" stroke-linecap="round" stroke-linejoin="round" stroke-width="3"/>
    <path id="Path_51125" data-name="Path 51125" d="M241.284,173.411s3.281-.619,3.839-3.219,2.415-4.29,4.334-3.445,4.086,1.836,4.086,1.836a8.834,8.834,0,0,1,1.8,2.937c.681,1.83,1.8,4.611,1.8,4.611" transform="translate(-217.575 -99.538)" fill="none" stroke="#c48e61" stroke-linecap="round" stroke-linejoin="round" stroke-width="3"/>
    <path id="Path_51126" data-name="Path 51126" d="M254.819,179.141s.92-4.643,3.886-4.891,4.516-3.591,3.649-5.51-2.974-5.882-2.974-5.882" transform="translate(-206.463 -102.55)" fill="none" stroke="#c48e61" stroke-linecap="round" stroke-linejoin="round" stroke-width="3"/>
    <path id="Path_51129" data-name="Path 51129" d="M304.2,172.54a37.967,37.967,0,1,1-37.967-37.967" transform="translate(-228.264 -125.77)" fill="none" stroke="#005f54" stroke-linecap="round" stroke-linejoin="round" stroke-width="3"/>
    <g id="Layer_2" data-name="Layer 2" transform="translate(56.431 8.803)">
      <g id="Layer_1" data-name="Layer 1" transform="translate(0 0)">
        <path id="Path_57487" data-name="Path 57487" d="M15.3,4.71l-1.788-1.8A3.684,3.684,0,0,0,13,2.5V5.209h2.709a3.056,3.056,0,0,0-.412-.5Z" transform="translate(1.086 0.209)" fill="none"/>
        <path id="Path_57488" data-name="Path 57488" d="M11.752,5.251V2h-6.5A3.251,3.251,0,0,0,2,5.251V20.42a3.251,3.251,0,0,0,3.251,3.251h8.668A3.251,3.251,0,0,0,17.17,20.42v-13H13.919A2.167,2.167,0,0,1,11.752,5.251Zm2.806,14.964A7.021,7.021,0,0,1,10.82,21.5a3.467,3.467,0,0,1-2.167-.758,1.257,1.257,0,0,0-.769-.325,4.334,4.334,0,0,0-1.983.856A1.084,1.084,0,0,1,4.59,19.564a6.274,6.274,0,0,1,3.3-1.311,3.251,3.251,0,0,1,1.983.715,1.506,1.506,0,0,0,.943.368,4.93,4.93,0,0,0,2.46-.878,1.086,1.086,0,0,1,1.279,1.755Zm-.639-4.128H5.251a1.084,1.084,0,0,1,0-2.167h8.668a1.084,1.084,0,0,1,0,2.167ZM15,10.668a1.084,1.084,0,0,1-1.084,1.084H5.251a1.084,1.084,0,0,1,0-2.167h8.668A1.084,1.084,0,0,1,15,10.668Z" transform="translate(0.167 0.167)" fill="none"/>
        <path id="Path_57489" data-name="Path 57489" d="M13.106,17.206a4.93,4.93,0,0,1-2.46.878,1.506,1.506,0,0,1-.943-.368A3.251,3.251,0,0,0,7.721,17a6.274,6.274,0,0,0-3.3,1.311,1.084,1.084,0,0,0,1.311,1.712,4.334,4.334,0,0,1,1.983-.856,1.257,1.257,0,0,1,.769.325,3.467,3.467,0,0,0,2.167.758,7.021,7.021,0,0,0,3.738-1.289,1.086,1.086,0,1,0-1.279-1.755Z" transform="translate(0.34 1.42)" fill="#c89971"/>
        <path id="Path_57490" data-name="Path 57490" d="M17.911,3.381l-1.788-1.8A5.418,5.418,0,0,0,12.287,0H5.418A5.418,5.418,0,0,0,0,5.418v15.17a5.418,5.418,0,0,0,5.418,5.418h8.668A5.418,5.418,0,0,0,19.5,20.587V7.216a5.417,5.417,0,0,0-1.592-3.835Zm-3.825-.672a3.684,3.684,0,0,1,.509.412l1.788,1.8a3.056,3.056,0,0,1,.412.5H14.086Zm3.251,17.879a3.251,3.251,0,0,1-3.251,3.251H5.418a3.251,3.251,0,0,1-3.251-3.251V5.418A3.251,3.251,0,0,1,5.418,2.167h6.5V5.418a2.167,2.167,0,0,0,2.167,2.167h3.251Z" transform="translate(0 0)" fill="#bbb"/>
        <path id="Path_57491" data-name="Path 57491" d="M5.084,9a1.084,1.084,0,1,0,0,2.167h8.668a1.084,1.084,0,1,0,0-2.167Z" transform="translate(0.334 0.752)" fill="#c89971"/>
        <path id="Path_57492" data-name="Path 57492" d="M13.752,13H5.084a1.084,1.084,0,1,0,0,2.167h8.668a1.084,1.084,0,1,0,0-2.167Z" transform="translate(0.334 1.086)" fill="#c89971"/>
      </g>
    </g>
  </g>
</svg>
