<svg xmlns="http://www.w3.org/2000/svg" xmlns:xlink="http://www.w3.org/1999/xlink" width="37.958" height="37.009" viewBox="0 0 37.958 37.009">
  <defs>
    <filter id="Path_57559" x="0" y="0" width="37.958" height="37.009" filterUnits="userSpaceOnUse">
      <feOffset dy="3" input="SourceAlpha"/>
      <feGaussianBlur stdDeviation="3" result="blur"/>
      <feFlood flood-color="#8f6743" flood-opacity="0.149"/>
      <feComposite operator="in" in2="blur"/>
      <feComposite in="SourceGraphic"/>
    </filter>
  </defs>
  <g id="star" transform="translate(6.964 4.004)">
    <g id="star-2" data-name="star">
      <g id="star-3" data-name="star">
        <rect id="Rectangle_11945" data-name="Rectangle 11945" width="24" height="24" transform="translate(24) rotate(90)" fill="#cca079" opacity="0"/>
        <g transform="matrix(1, 0, 0, 1, -6.96, -4)" filter="url(#Path_57559)">
          <path id="Path_57559-2" data-name="Path 57559" d="M17.56,21a1,1,0,0,1-.46-.11L12,18.22,6.9,20.89a1,1,0,0,1-1.45-1.06l1-5.63-4.12-4a.985.985,0,0,1,.56-1.68l5.7-.83L11.1,2.56a1,1,0,0,1,1.8,0l2.54,5.12,5.7.83a.985.985,0,0,1,.56,1.68l-4.12,4,1,5.63A.99.99,0,0,1,17.56,21Z" transform="translate(6.96 4)" fill="#cca079"/>
        </g>
      </g>
    </g>
  </g>
</svg>
