<svg id="SupportContacticon2" xmlns="http://www.w3.org/2000/svg" width="96.053" height="96.053" viewBox="0 0 96.053 96.053">
  <path id="Path_53244" data-name="Path 53244" d="M50.662,184H18.839A8.809,8.809,0,0,0,10,192.778V215.31a8.809,8.809,0,0,0,8.839,8.778h9.573l-.133.011,2.946-.962,3.529.95H50.662a8.809,8.809,0,0,0,8.84-8.778V192.778A8.809,8.809,0,0,0,50.662,184Z" transform="translate(-8.124 -136.349)" fill="#bbb" opacity="0.3"/>
  <path id="Path_53245" data-name="Path 53245" d="M33.394,237.41a1.875,1.875,0,0,1-1.327-.549l-7.705-7.705H13.132A13.147,13.147,0,0,1,0,216.023V187.132A13.147,13.147,0,0,1,13.132,174H32.08a1.876,1.876,0,1,1,0,3.752H13.132a9.391,9.391,0,0,0-9.38,9.38v28.891a9.391,9.391,0,0,0,9.38,9.38h12.19a1.877,1.877,0,0,1,1.721,1.127l4.478,4.478,0-3.73A1.876,1.876,0,0,1,33.4,225.4H53.654a9.391,9.391,0,0,0,9.38-9.38V203.078a1.876,1.876,0,0,1,3.752,0v12.945a13.147,13.147,0,0,1-13.132,13.132H35.274l0,6.38a1.876,1.876,0,0,1-1.876,1.875Z" transform="translate(0 -141.357)" fill="#005f54"/>
  <path id="Path_53246" data-name="Path 53246" d="M230.859,10h-3.916C215.377,10,206,19.86,206,32.023h0c0,12.163,9.376,22.023,20.943,22.023h3.916a19.991,19.991,0,0,0,6.159-.969l6.428,6.755V49.625a22.385,22.385,0,0,0,8.356-17.6h0C251.8,19.86,242.426,10,230.859,10Z" transform="translate(-157.625 -0.503)" fill="#bbb" opacity="0.3"/>
  <path id="Path_53247" data-name="Path 53247" d="M243.276,61.206a1.876,1.876,0,0,1-1.327-.549l-7.014-7.01a27.319,27.319,0,0,1-6.921.887h-4.748a27.267,27.267,0,0,1,0-54.535h4.748a27.3,27.3,0,0,1,27.267,27.267A26.973,26.973,0,0,1,252.32,39.64a27.527,27.527,0,0,1-7.168,8.836V59.33a1.876,1.876,0,0,1-1.876,1.876Zm-7.794-11.541a1.877,1.877,0,0,1,1.326.549L241.4,54.8V47.562a1.877,1.877,0,0,1,.747-1.5A23.516,23.516,0,0,0,228.015,3.752h-4.748a23.515,23.515,0,1,0,0,47.031h4.748a23.521,23.521,0,0,0,6.917-1.034A1.874,1.874,0,0,1,235.483,49.666Z" transform="translate(-159.23)" fill="#005f54"/>
  <g id="Group_25097" data-name="Group 25097" transform="translate(58.994 13.144)">
    <path id="Path_53248" data-name="Path 53248" d="M322.4,91.958a1.876,1.876,0,0,1-1.876-1.876V85.575a3.55,3.55,0,0,1,2.8-3.48,4.191,4.191,0,1,0-5.111-4.089,1.876,1.876,0,1,1-3.752,0,7.971,7.971,0,0,1,2.524-5.807,7.881,7.881,0,0,1,5.978-2.116,7.944,7.944,0,0,1,1.317,15.643v4.357A1.876,1.876,0,0,1,322.4,91.958Z" transform="translate(-314.462 -70.063)" fill="#c48e61"/>
    <path id="Path_53249" data-name="Path 53249" d="M348.676,210.082a1.873,1.873,0,1,1,1.326-.548A1.888,1.888,0,0,1,348.676,210.082Z" transform="translate(-340.733 -180.766)" fill="#c48e61"/>
  </g>
  <g id="Group_25096" data-name="Group 25096" transform="translate(10.131 47.651)">
    <path id="Path_53250" data-name="Path 53250" d="M95.46,313.752H55.876a1.876,1.876,0,1,1,0-3.752H95.46a1.876,1.876,0,1,1,0,3.752Z" transform="translate(-54 -299.494)" fill="#c48e61"/>
    <path id="Path_53251" data-name="Path 53251" d="M266.876,369.752a1.877,1.877,0,1,1,1.326-.55A1.89,1.89,0,0,1,266.876,369.752Z" transform="translate(-225.416 -344.989)" fill="#c48e61"/>
    <path id="Path_53252" data-name="Path 53252" d="M88.081,369.752H55.876a1.876,1.876,0,0,1,0-3.752H88.081a1.876,1.876,0,0,1,0,3.752Z" transform="translate(-54 -344.989)" fill="#c48e61"/>
    <path id="Path_53253" data-name="Path 53253" d="M83.266,257.752H55.876a1.876,1.876,0,1,1,0-3.752h27.39a1.876,1.876,0,1,1,0,3.752Z" transform="translate(-54 -254)" fill="#c48e61"/>
  </g>
</svg>
