<svg xmlns="http://www.w3.org/2000/svg" width="96" height="96" viewBox="0 0 96 96">
  <g id="SupportContacticon1" transform="translate(-0.001)">
    <g id="Group_25801" data-name="Group 25801" transform="translate(14.368 88.273)">
      <g id="Group_25800" data-name="Group 25800">
        <path id="Path_59559" data-name="Path 59559" d="M82.851,475.557l-2.823-3.976a1.875,1.875,0,1,0-3.058,2.171l2.823,3.976a1.875,1.875,0,1,0,3.058-2.171Z" transform="translate(-76.624 -470.791)" fill="#cca079"/>
      </g>
    </g>
    <g id="Group_25803" data-name="Group 25803" transform="translate(0.001 29.334)">
      <g id="Group_25802" data-name="Group 25802" transform="translate(0)">
        <path id="Path_59560" data-name="Path 59560" d="M42.227,220.856l-3.072-14.641a27.613,27.613,0,0,0-11.678-17.335l-6.559-4.41a6.6,6.6,0,0,0-8.363.854V162.73a6.277,6.277,0,0,0-10.205-4.9A6.247,6.247,0,0,0,0,162.73V191.8a18.162,18.162,0,0,0,3.37,10.57l3.344,4.71a1.875,1.875,0,0,0,3.058-2.171L6.429,200.2a14.432,14.432,0,0,1-2.678-8.4V162.73a2.527,2.527,0,1,1,5.053,0V185.8a13.1,13.1,0,0,0,3.379,8.8c.093.112.189.223.291.33,1.245,1.319,2.709,2.874,4.088,4.34l1.93,2.054.019.019,2.895,3.08a1.875,1.875,0,1,0,2.733-2.567c-.034-.036-2.229-2.374-4.735-5.038l-4.3-4.576-.032-.035a3.164,3.164,0,0,1,.061-4.147,2.835,2.835,0,0,1,3.691-.471l6.559,4.41a23.881,23.881,0,0,1,10.1,14.993l3.072,14.642a1.875,1.875,0,1,0,3.67-.77Z" transform="translate(-0.001 -156.451)" fill="#cca079"/>
      </g>
    </g>
    <g id="Group_25805" data-name="Group 25805" transform="translate(10.479 82.795)">
      <g id="Group_25804" data-name="Group 25804">
        <path id="Path_59561" data-name="Path 59561" d="M59.3,442.378l-.012-.017a1.875,1.875,0,0,0-3.053,2.178l.012.017a1.875,1.875,0,0,0,3.053-2.178Z" transform="translate(-55.884 -441.575)" fill="#007066"/>
      </g>
    </g>
    <g id="Group_25807" data-name="Group 25807" transform="translate(53.734 29.335)">
      <g id="Group_25806" data-name="Group 25806">
        <path id="Path_59562" data-name="Path 59562" d="M326.5,157.837a6.277,6.277,0,0,0-10.205,4.9v22.593a6.6,6.6,0,0,0-8.363-.854l-6.559,4.41a27.612,27.612,0,0,0-11.678,17.335l-3.072,14.642a1.875,1.875,0,1,0,3.67.77l3.072-14.642a23.882,23.882,0,0,1,10.1-14.993l6.559-4.41a2.835,2.835,0,0,1,3.691.471,3.164,3.164,0,0,1,.065,4.142l-.035.04-9.035,9.613a1.875,1.875,0,1,0,2.733,2.567c.025-.027,7.687-8.173,8.932-9.493.1-.107.2-.218.291-.33a13.1,13.1,0,0,0,3.379-8.8V162.732a2.527,2.527,0,1,1,5.054,0V191.8a14.432,14.432,0,0,1-2.678,8.4l-14.166,19.955a1.875,1.875,0,1,0,3.058,2.171l14.166-19.955a18.162,18.162,0,0,0,3.37-10.57V162.732A6.249,6.249,0,0,0,326.5,157.837Z" transform="translate(-286.58 -156.454)" fill="#cca079"/>
      </g>
    </g>
    <g id="Group_25809" data-name="Group 25809" transform="translate(17.511 10.125)">
      <g id="Group_25808" data-name="Group 25808">
        <path id="Path_59563" data-name="Path 59563" d="M147.628,79.811l-3.336-.8v-.6a8.386,8.386,0,0,0,3.59-6.876V67.2a8.385,8.385,0,0,0-13.836-6.378,10.948,10.948,0,0,0-20.29.015A8.385,8.385,0,0,0,99.9,67.2V71.54a8.386,8.386,0,0,0,3.59,6.876v.6l-3.336.8a8.784,8.784,0,0,0-6.765,8.571v3.5a1.875,1.875,0,0,0,1.875,1.875h8.616c-.013.227-.022.456-.022.686v6.742a1.875,1.875,0,0,0,1.875,1.875H117a1.875,1.875,0,1,0,0-3.75h-1.937V95.437a1.875,1.875,0,0,0-3.75,0v3.875h-3.708V94.445a7.763,7.763,0,0,1,5.973-7.573l5.145-1.233,3.443,7.834a1.875,1.875,0,0,0,1.716,1.12h0a1.875,1.875,0,0,0,1.716-1.12l3.44-7.822,5.129,1.225a7.762,7.762,0,0,1,5.978,7.574v4.862h-3.708V95.437a1.875,1.875,0,0,0-3.75,0v3.875h-2.125a1.875,1.875,0,1,0,0,3.75h11.458a1.875,1.875,0,0,0,1.875-1.875V94.451c0-.232-.009-.463-.023-.692h8.64a1.875,1.875,0,0,0,1.875-1.875v-3.5A8.784,8.784,0,0,0,147.628,79.811Zm-8.138-17.25a4.648,4.648,0,0,1,4.632,4.336h-2.607a13.667,13.667,0,0,1-6.287-1.532A4.648,4.648,0,0,1,139.49,62.562Zm-4.642,8.7c0-.091.007-.182.007-.274v-1.67a17.417,17.417,0,0,0,6.66,1.325h2.617v.893a4.642,4.642,0,1,1-9.283,0ZM116.7,64.952h0a7.2,7.2,0,0,1,14.313-1.144l-3.157-1.855a1.875,1.875,0,0,0-2.387.412,8.078,8.078,0,0,1-6.207,2.9H116.7Zm-8.408-2.39a4.649,4.649,0,0,1,4.262,2.8,13.667,13.667,0,0,1-6.287,1.532h-2.607A4.648,4.648,0,0,1,108.293,62.562Zm-4.642,8.085h2.617a17.418,17.418,0,0,0,6.667-1.328V71.54a4.642,4.642,0,0,1-9.283,0Zm9.057,12.578a11.5,11.5,0,0,0-7.968,6.783h-7.6V88.382a5.046,5.046,0,0,1,3.886-4.924l4.775-1.141a1.875,1.875,0,0,0,1.439-1.824v-.63a8.139,8.139,0,0,0,2.1,0V80.4c0,.028,0,.056,0,.084a1.878,1.878,0,0,0,1.524,1.845l2.8.67Zm5.23-2.911a8.8,8.8,0,0,0-1.5-.506l-3.349-.8v-.584a8.46,8.46,0,0,0,1.625-1.485,11.038,11.038,0,0,0,3.226,3.233Zm8.143,2.755-2.194,4.99-2.2-5V81.719a10.989,10.989,0,0,0,4.393.007ZM123.9,78.194a7.21,7.21,0,0,1-7.2-7.2v-1.98h2.563a11.814,11.814,0,0,0,7.967-3.078l3.867,2.272v3.061A7.209,7.209,0,0,1,123.9,78.194Zm5.928,2.127v-.127a11.034,11.034,0,0,0,3.253-3.241,8.458,8.458,0,0,0,1.611,1.469v.584l-3.35.8A8.829,8.829,0,0,0,129.831,80.321Zm20.811,9.688h-7.626a11.5,11.5,0,0,0-7.973-6.78L134.1,83l2.812-.674a1.877,1.877,0,0,0,1.532-1.846c0-.015,0-.029,0-.044v-.575a8.139,8.139,0,0,0,2.1,0v.63a1.875,1.875,0,0,0,1.439,1.824l4.775,1.141a5.046,5.046,0,0,1,3.886,4.924Z" transform="translate(-93.39 -54)" fill="#007066"/>
      </g>
    </g>
    <g id="Group_25811" data-name="Group 25811" transform="translate(46.126 55.438)">
      <g id="Group_25810" data-name="Group 25810">
        <path id="Path_59564" data-name="Path 59564" d="M249.2,296.217a1.876,1.876,0,1,0,.55,1.327A1.89,1.89,0,0,0,249.2,296.217Z" transform="translate(-246 -295.67)" fill="#012d29"/>
      </g>
    </g>
    <g id="Group_25813" data-name="Group 25813" transform="translate(46.124)">
      <g id="Group_25812" data-name="Group 25812">
        <path id="Path_59565" data-name="Path 59565" d="M247.868,0a1.875,1.875,0,0,0-1.875,1.875V4.681a1.875,1.875,0,1,0,3.75,0V1.875A1.875,1.875,0,0,0,247.868,0Z" transform="translate(-245.993)" fill="#012d29"/>
      </g>
    </g>
    <g id="Group_25815" data-name="Group 25815" transform="translate(35.926 3.602)">
      <g id="Group_25814" data-name="Group 25814">
        <path id="Path_59566" data-name="Path 59566" d="M196.766,21.727,194.8,19.762a1.875,1.875,0,1,0-2.65,2.653l1.967,1.965a1.875,1.875,0,1,0,2.65-2.653Z" transform="translate(-191.599 -19.213)" fill="#012d29"/>
      </g>
    </g>
    <g id="Group_25817" data-name="Group 25817" transform="translate(54.328 3.65)">
      <g id="Group_25816" data-name="Group 25816">
        <path id="Path_59567" data-name="Path 59567" d="M294.9,20.018a1.875,1.875,0,0,0-2.652,0l-1.952,1.954a1.875,1.875,0,1,0,2.653,2.65L294.9,22.67A1.875,1.875,0,0,0,294.9,20.018Z" transform="translate(-289.746 -19.469)" fill="#012d29"/>
      </g>
    </g>
  </g>
</svg>
