<svg xmlns="http://www.w3.org/2000/svg" xmlns:xlink="http://www.w3.org/1999/xlink" width="48" height="48" viewBox="0 0 48 48">
  <defs>
    <filter id="Rectangle_16191" x="0" y="0" width="48" height="48" filterUnits="userSpaceOnUse">
      <feOffset dy="3" input="SourceAlpha"/>
      <feGaussianBlur stdDeviation="3" result="blur"/>
      <feFlood flood-opacity="0.161"/>
      <feComposite operator="in" in2="blur"/>
      <feComposite in="SourceGraphic"/>
    </filter>
  </defs>
  <g id="testArrows" transform="translate(9 6)">
    <g transform="matrix(1, 0, 0, 1, -9, -6)" filter="url(#Rectangle_16191)">
      <rect id="Rectangle_16191-2" data-name="Rectangle 16191" width="30" height="30" rx="4" transform="translate(9 6)" fill="#fff"/>
    </g>
    <g id="menu-arrow-outline" transform="translate(3 3)">
      <g id="menu-arrow-outline-2" data-name="menu-arrow-outline">
        <g id="menu-arrow">
          <rect id="Rectangle_16185" data-name="Rectangle 16185" width="24" height="24" transform="translate(24 24) rotate(180)" fill="#007066" opacity="0"/>
          <path id="Path_65873" data-name="Path 65873" d="M20.05,11H5.91l1.3-1.29A1,1,0,0,0,5.79,8.29l-3,3a1,1,0,0,0,0,1.42l3,3a1,1,0,1,0,1.42-1.42L5.91,13H20.05a1,1,0,0,0,.95-.95V12A1,1,0,0,0,20.05,11Z" fill="#007066"/>
          <rect id="Rectangle_16186" data-name="Rectangle 16186" width="18" height="2" rx="0.95" transform="translate(3 17)" fill="#007066"/>
          <rect id="Rectangle_16187" data-name="Rectangle 16187" width="18" height="2" rx="0.95" transform="translate(3 5)" fill="#007066"/>
        </g>
      </g>
    </g>
  </g>
</svg>
