<svg id="_2030" data-name="2030" xmlns="http://www.w3.org/2000/svg" width="110.489" height="74.487" viewBox="0 0 110.489 74.487">
  <g id="Group_3" data-name="Group 3">
    <path id="Path_99" data-name="Path 99" d="M211.889,182.309q-.706.323-1.433.6.355.746.754,1.467.754-.366,1.488-.777-.424-.63-.808-1.289Z" transform="translate(-174.93 -133.722)" fill="#e9d700" fill-rule="evenodd"/>
    <path id="Path_100" data-name="Path 100" d="M186.849,170.51l-4.309-3.48s4.027-6.451,11.377-5.76c0,0,6.213.325,8.121,5.333,0,0,2.156,6.679-2.8,11.1,0,0-7.85,6.9-11,8.626l3.736-1.6h10.913v5.386H182.157v-5.092l11.5-9.3c2.429-1.964,4.227-5.912,1.258-8.345a3.516,3.516,0,0,0-2.92-.722c-2.081.371-4.011,2.553-5.148,3.853Z" transform="translate(-181.762 -138.815)" fill="#8c8c8e" fill-rule="evenodd"/>
    <path id="Path_101" data-name="Path 101" d="M229.93,166.712l-.006-5.175h18.921v4.622l-7.108,6.98s5.947.6,7.395,6.177c1.63,6.287-3.925,11.578-10.564,11.106a13.6,13.6,0,0,1-10.195-4.974l3.942-3.884s2.923,3.816,7.137,3.271c0,0,3.684,0,3.869-3.246.243-4.277-4.824-4.436-8.083-4.045l-.952-3.815,9.107-9.13-3.6,2.112Z" transform="translate(-170.604 -138.738)" fill="#8c8c8e" fill-rule="evenodd"/>
    <path id="Path_102" data-name="Path 102" d="M261.906,161a14.8,14.8,0,1,1-14.858,14.8A14.787,14.787,0,0,1,261.906,161Zm0,5.648c4.71,0,8.55,4.113,8.55,9.156s-3.84,9.155-8.55,9.155-8.549-4.112-8.549-9.155S257.2,166.646,261.906,166.646Z" transform="translate(-166.095 -138.868)" fill="#8c8c8e" fill-rule="evenodd"/>
    <path id="Path_103" data-name="Path 103" d="M214.714,163.419q.528-.516,1.1-1-.527-.609-1.1-1.18-.57.571-1.1,1.18Q214.186,162.9,214.714,163.419Z" transform="translate(-174.167 -138.809)" fill="#e9d700" fill-rule="evenodd"/>
    <path id="Path_104" data-name="Path 104" d="M214.824,160.234q.723-.739,1.51-1.416-.721-.887-1.511-1.7-.788.817-1.511,1.7.785.678,1.511,1.416Z" transform="translate(-174.24 -139.806)" fill="#8bbb2a" fill-rule="evenodd"/>
    <path id="Path_105" data-name="Path 105" d="M216.4,162.052q.7-.527,1.456-1-.5-.8-1.043-1.554-.776.58-1.5,1.218.565.65,1.083,1.338Z" transform="translate(-173.757 -139.23)" fill="#8c8c8e" fill-rule="evenodd"/>
    <path id="Path_106" data-name="Path 106" d="M218.663,165.707q-.256-.584-.542-1.151.665-.244,1.347-.444.263.637.494,1.291-.659.13-1.3.3Z" transform="translate(-173.079 -138.116)" fill="#46bbc6" fill-rule="evenodd"/>
    <path id="Path_107" data-name="Path 107" d="M217.144,166.181q-.294-.472-.618-.934c.358-.175.722-.342,1.089-.5q.3.519.578,1.054-.533.171-1.05.375Z" transform="translate(-173.464 -137.961)" fill="#8bbb2a" fill-rule="evenodd"/>
    <path id="Path_108" data-name="Path 108" d="M217.764,163.92q-.389-.674-.821-1.322.723-.4,1.46-.755.4.736.763,1.5-.711.267-1.4.58Z" transform="translate(-173.364 -138.664)" fill="#8bbb2a" fill-rule="evenodd"/>
    <path id="Path_109" data-name="Path 109" d="M216.11,164.721q-.433-.537-.91-1.046.585-.4,1.186-.764c.3.389.59.789.863,1.2Q216.672,164.4,216.11,164.721Z" transform="translate(-173.784 -138.406)" fill="#46bbc6" fill-rule="evenodd"/>
    <path id="Path_110" data-name="Path 110" d="M213.136,162.079q.514-.687,1.078-1.337-.717-.638-1.491-1.219-.543.756-1.036,1.551.75.477,1.45,1Z" transform="translate(-174.633 -139.224)" fill="#003980" fill-rule="evenodd"/>
    <path id="Path_111" data-name="Path 111" d="M214.714,182.819q.528.515,1.1,1-.527.608-1.1,1.18-.57-.572-1.1-1.18Q214.186,183.335,214.714,182.819Z" transform="translate(-174.167 -133.599)" fill="#00abe7" fill-rule="evenodd"/>
    <path id="Path_112" data-name="Path 112" d="M214.824,186.189q.723.739,1.51,1.416-.721.887-1.511,1.7-.788-.818-1.511-1.7.785-.677,1.511-1.416Z" transform="translate(-174.24 -132.786)" fill="#e9d700" fill-rule="evenodd"/>
    <path id="Path_113" data-name="Path 113" d="M216.4,184.259q.7.526,1.456,1-.5.8-1.043,1.554-.776-.58-1.5-1.218Q215.878,184.947,216.4,184.259Z" transform="translate(-173.757 -133.251)" fill="#46bbc6" fill-rule="evenodd"/>
    <path id="Path_114" data-name="Path 114" d="M213.136,184.232q.514.688,1.078,1.337-.717.639-1.491,1.22-.543-.756-1.036-1.551.75-.476,1.45-1Z" transform="translate(-174.633 -133.258)" fill="#8bbb2a" fill-rule="evenodd"/>
    <path id="Path_115" data-name="Path 115" d="M220.316,165.127q.728-.113,1.471-.175-.076-.8-.211-1.6-.8.132-1.576.324.185.723.316,1.45Z" transform="translate(-172.625 -138.299)" fill="#e9d700" fill-rule="evenodd"/>
    <path id="Path_116" data-name="Path 116" d="M222.307,162.549q1.017-.181,2.05-.275-.074-1.142-.244-2.266-1.115.208-2.217.51.248,1.007.411,2.03Z" transform="translate(-172.168 -139.107)" fill="#00abe7" fill-rule="evenodd"/>
    <path id="Path_117" data-name="Path 117" d="M222.481,164.945q.877-.02,1.766.03.057-.938.049-1.872-.968.021-1.924.121.084.857.108,1.72Z" transform="translate(-172.053 -138.359)" fill="#46bbc6" fill-rule="evenodd"/>
    <path id="Path_118" data-name="Path 118" d="M222.482,167.312c.047-.517.081-1.035.094-1.553q.82.094,1.629.234-.1.833-.246,1.664-.733-.2-1.479-.344Z" transform="translate(-172.027 -137.718)" fill="#8c8c8e" fill-rule="evenodd"/>
    <path id="Path_119" data-name="Path 119" d="M220.652,167q-.043-.69-.135-1.381.706.016,1.408.067.031.739.01,1.477-.639-.1-1.284-.163Z" transform="translate(-172.501 -137.752)" fill="#8bbb2a" fill-rule="evenodd"/>
    <path id="Path_120" data-name="Path 120" d="M219.058,166.977q-.15-.538-.335-1.068c.393-.069.788-.128,1.185-.174q.149.582.263,1.173c-.372.011-.743.035-1.113.069Z" transform="translate(-172.934 -137.724)" fill="#8c8c8e" fill-rule="evenodd"/>
    <path id="Path_121" data-name="Path 121" d="M219.847,163.124q.817-.259,1.652-.462-.215-.936-.508-1.86-.88.3-1.743.661.336.824.6,1.662Z" transform="translate(-172.807 -138.915)" fill="#003980" fill-rule="evenodd"/>
    <path id="Path_122" data-name="Path 122" d="M209.068,180.928q.131.726.316,1.45-.781.188-1.577.323-.135-.8-.211-1.6.743-.062,1.471-.175Z" transform="translate(-175.62 -134.056)" fill="#e9d700" fill-rule="evenodd"/>
    <path id="Path_123" data-name="Path 123" d="M208.808,179.112q.042.691.135,1.382-.706-.016-1.408-.067-.031-.739-.01-1.477.638.1,1.283.163Z" transform="translate(-175.64 -134.533)" fill="#00abe7" fill-rule="evenodd"/>
    <path id="Path_124" data-name="Path 124" d="M207.255,183.688q.161,1.023.411,2.03-1.1.3-2.217.51c-.112-.749-.2-1.506-.244-2.266q1.031-.094,2.05-.275Z" transform="translate(-176.198 -133.39)" fill="#00abe7" fill-rule="evenodd"/>
    <path id="Path_125" data-name="Path 125" d="M209.642,183.08q.267.837.606,1.663-.865.36-1.749.659-.3-.924-.514-1.862Q208.821,183.34,209.642,183.08Z" transform="translate(-175.527 -133.536)" fill="#46bbc6" fill-rule="evenodd"/>
    <path id="Path_126" data-name="Path 126" d="M213.69,181.33c-.364.218-.734.425-1.107.622q.4.586.84,1.145.582-.367,1.149-.764-.46-.489-.883-1Z" transform="translate(-174.416 -133.959)" fill="#8c8c8e" fill-rule="evenodd"/>
    <path id="Path_127" data-name="Path 127" d="M212.721,180.025q-.514.216-1.043.4.285.526.6,1.039.548-.245,1.081-.523-.335-.45-.638-.916Z" transform="translate(-174.635 -134.274)" fill="#8c8c8e" fill-rule="evenodd"/>
    <path id="Path_128" data-name="Path 128" d="M211,180.642q-.664.185-1.346.323.245.664.523,1.312.707-.212,1.4-.472-.3-.574-.573-1.162Z" transform="translate(-175.123 -134.125)" fill="#003980" fill-rule="evenodd"/>
    <path id="Path_129" data-name="Path 129" d="M210.428,179.094q-.556.033-1.117.032.1.592.224,1.18c.4-.033.8-.079,1.192-.135-.111-.356-.21-.716-.3-1.077Z" transform="translate(-175.207 -134.499)" fill="#8bbb2a" fill-rule="evenodd"/>
    <path id="Path_130" data-name="Path 130" d="M206.975,181.125q.021.858.1,1.716-.952.1-1.919.127-.006-.931.052-1.867Q206.1,181.147,206.975,181.125Z" transform="translate(-176.209 -134.014)" fill="#8bbb2a" fill-rule="evenodd"/>
    <path id="Path_131" data-name="Path 131" d="M223.943,169.948q.654.338,1.291.728.409-.693.77-1.416-.722-.363-1.464-.67Q224.263,169.283,223.943,169.948Z" transform="translate(-171.674 -137.035)" fill="#e9d700" fill-rule="evenodd"/>
    <path id="Path_132" data-name="Path 132" d="M220.45,168.6q.542.13,1.079.292.079-.594.125-1.193c-.391-.084-.785-.155-1.18-.216q.006.56-.023,1.117Z" transform="translate(-172.517 -137.303)" fill="#8bbb2a" fill-rule="evenodd"/>
    <path id="Path_133" data-name="Path 133" d="M222.247,169.178q.646.244,1.278.534.192-.682.348-1.369-.7-.246-1.406-.442Q222.373,168.541,222.247,169.178Z" transform="translate(-172.083 -137.201)" fill="#00abe7" fill-rule="evenodd"/>
    <path id="Path_134" data-name="Path 134" d="M227.139,169.012q.928.454,1.818.988.612-.966,1.135-1.976c-.682-.327-1.379-.628-2.091-.9q-.392.961-.862,1.884Z" transform="translate(-170.902 -137.388)" fill="#003980" fill-rule="evenodd"/>
    <path id="Path_135" data-name="Path 135" d="M225.839,171.112q.721.5,1.409,1.068.6-.725,1.14-1.484-.794-.554-1.626-1.039-.436.743-.923,1.454Z" transform="translate(-171.216 -136.777)" fill="#8bbb2a" fill-rule="evenodd"/>
    <path id="Path_136" data-name="Path 136" d="M224.758,168q.813.273,1.606.6.377-.885.682-1.8-.887-.278-1.8-.5-.213.864-.492,1.7Z" transform="translate(-171.477 -137.587)" fill="#46bbc6" fill-rule="evenodd"/>
    <path id="Path_137" data-name="Path 137" d="M205.584,176.1q-.321.664-.6,1.358-.743-.307-1.464-.669.36-.724.77-1.417.636.389,1.291.728Z" transform="translate(-176.604 -135.397)" fill="#46bbc6" fill-rule="evenodd"/>
    <path id="Path_138" data-name="Path 138" d="M207.487,172.983q-.357.43-.688.883-.419-.428-.814-.879.394-.453.814-.883.33.452.688.879Z" transform="translate(-176.01 -136.186)" fill="#8bbb2a" fill-rule="evenodd"/>
    <path id="Path_139" data-name="Path 139" d="M206.438,174.507q-.37.581-.7,1.2-.562-.431-1.1-.885.41-.616.86-1.2.458.457.942.89Z" transform="translate(-176.335 -135.821)" fill="#e9d700" fill-rule="evenodd"/>
    <path id="Path_140" data-name="Path 140" d="M202.58,177.246q-.471.921-.862,1.884-1.068-.405-2.091-.9.525-1.008,1.136-1.976.89.533,1.818.988Z" transform="translate(-177.545 -135.184)" fill="#46bbc6" fill-rule="evenodd"/>
    <path id="Path_141" data-name="Path 141" d="M204.8,178.134q-.276.834-.487,1.7-.911-.22-1.8-.5.3-.921.679-1.808.794.33,1.609.607Z" transform="translate(-176.848 -134.877)" fill="#e9d700" fill-rule="evenodd"/>
    <path id="Path_142" data-name="Path 142" d="M208.968,177.493q-.542-.129-1.079-.292-.078.594-.124,1.193.586.125,1.18.216c0-.374,0-.746.023-1.117Z" transform="translate(-175.58 -134.956)" fill="#8c8c8e" fill-rule="evenodd"/>
    <path id="Path_143" data-name="Path 143" d="M207,178.816q-.761-.157-1.511-.362-.151.814-.254,1.63.824.151,1.659.251c.019-.507.055-1.014.1-1.519Z" transform="translate(-176.19 -134.653)" fill="#8c8c8e" fill-rule="evenodd"/>
    <path id="Path_144" data-name="Path 144" d="M207.253,176.991q-.646-.242-1.278-.534-.191.682-.348,1.369.7.247,1.406.443.094-.64.22-1.278Z" transform="translate(-176.096 -135.135)" fill="#8bbb2a" fill-rule="evenodd"/>
    <path id="Path_145" data-name="Path 145" d="M207.695,175.443q-.471-.3-.922-.634c-.181.356-.353.718-.512,1.086q.512.313,1.042.595.179-.53.392-1.046Z" transform="translate(-175.943 -135.533)" fill="#003980" fill-rule="evenodd"/>
    <path id="Path_146" data-name="Path 146" d="M203.821,175.045q-.487.708-.923,1.448-.831-.479-1.625-1.032.543-.755,1.139-1.478.688.563,1.41,1.061Z" transform="translate(-177.147 -135.732)" fill="#00abe7" fill-rule="evenodd"/>
    <path id="Path_147" data-name="Path 147" d="M224.039,175.978q.33.661.612,1.351.738-.317,1.455-.689-.37-.72-.788-1.406-.631.4-1.281.744Z" transform="translate(-171.651 -135.431)" fill="#003980" fill-rule="evenodd"/>
    <path id="Path_148" data-name="Path 148" d="M222.935,171.626q.475.421.928.867.435-.561.832-1.151-.525-.444-1.076-.864-.323.589-.684,1.149Z" transform="translate(-171.917 -136.579)" fill="#8c8c8e" fill-rule="evenodd"/>
    <path id="Path_149" data-name="Path 149" d="M221.987,172.887q.362.425.7.874c.276-.289.544-.586.8-.89q-.4-.448-.826-.872-.325.456-.676.888Z" transform="translate(-172.146 -136.212)" fill="#46bbc6" fill-rule="evenodd"/>
    <path id="Path_150" data-name="Path 150" d="M224.433,173.111q.522.576,1.007,1.185.6-.567,1.164-1.166-.577-.608-1.193-1.184-.471.6-.979,1.165Z" transform="translate(-171.555 -136.224)" fill="#e9d700" fill-rule="evenodd"/>
    <path id="Path_151" data-name="Path 151" d="M223.113,174.4q.377.577.718,1.187.556-.437,1.087-.9-.417-.61-.875-1.189-.451.463-.93.9Z" transform="translate(-171.874 -135.85)" fill="#003980" fill-rule="evenodd"/>
    <path id="Path_152" data-name="Path 152" d="M227.231,177.082q.483.916.886,1.872,1.063-.419,2.08-.924-.538-1-1.161-1.96-.883.545-1.8,1.013Z" transform="translate(-170.88 -135.229)" fill="#00abe7" fill-rule="evenodd"/>
    <path id="Path_153" data-name="Path 153" d="M221.7,170.762c.322.186.64.382.951.588q.245-.547.459-1.108-.526-.288-1.07-.544Q221.888,170.237,221.7,170.762Z" transform="translate(-172.215 -136.767)" fill="#8bbb2a" fill-rule="evenodd"/>
    <path id="Path_154" data-name="Path 154" d="M224.9,178q.287.831.51,1.7.908-.232,1.794-.524-.315-.918-.7-1.8Q225.709,177.716,224.9,178Z" transform="translate(-171.443 -134.914)" fill="#46bbc6" fill-rule="evenodd"/>
    <path id="Path_155" data-name="Path 155" d="M225.883,174.9q.5.7.942,1.436.825-.491,1.611-1.053-.552-.749-1.158-1.464-.681.572-1.4,1.08Z" transform="translate(-171.205 -135.772)" fill="#46bbc6" fill-rule="evenodd"/>
    <path id="Path_156" data-name="Path 156" d="M205.6,170.071q-.65.347-1.282.744-.418-.687-.788-1.407.716-.372,1.455-.688.283.69.612,1.351Z" transform="translate(-176.602 -137.003)" fill="#00abe7" fill-rule="evenodd"/>
    <path id="Path_157" data-name="Path 157" d="M202.567,169.176q-.923.467-1.8,1.012-.625-.958-1.162-1.961,1.017-.5,2.079-.924.4.956.887,1.873Z" transform="translate(-177.551 -137.345)" fill="#46bbc6" fill-rule="evenodd"/>
    <path id="Path_158" data-name="Path 158" d="M203.816,171.259q-.714.511-1.4,1.086-.606-.717-1.16-1.468.787-.567,1.612-1.059.446.737.942,1.441Z" transform="translate(-177.15 -136.738)" fill="#8bbb2a" fill-rule="evenodd"/>
    <path id="Path_159" data-name="Path 159" d="M205.172,173.161q-.522-.576-1.006-1.185-.6.567-1.164,1.166.577.608,1.193,1.184.471-.6.978-1.165Z" transform="translate(-176.73 -136.217)" fill="#003980" fill-rule="evenodd"/>
    <path id="Path_160" data-name="Path 160" d="M206.42,171.824q-.377-.577-.718-1.187-.557.438-1.087.9.417.61.876,1.189.451-.463.93-.9Z" transform="translate(-176.34 -136.54)" fill="#46bbc6" fill-rule="evenodd"/>
    <path id="Path_161" data-name="Path 161" d="M204.805,168.135q-.81.283-1.6.623-.389-.879-.707-1.794.883-.289,1.79-.519.225.861.514,1.691Z" transform="translate(-176.851 -137.553)" fill="#003980" fill-rule="evenodd"/>
    <path id="Path_162" data-name="Path 162" d="M220.566,180.841q-.122.728-.3,1.455.783.178,1.581.3.124-.8.188-1.6-.743-.052-1.472-.156Z" transform="translate(-172.561 -134.077)" fill="#8bbb2a" fill-rule="evenodd"/>
    <path id="Path_163" data-name="Path 163" d="M222.22,176.71q.137.623.241,1.249.68-.2,1.349-.439-.164-.669-.362-1.334-.608.283-1.228.524Z" transform="translate(-172.09 -135.201)" fill="#e9d700" fill-rule="evenodd"/>
    <path id="Path_164" data-name="Path 164" d="M220.684,177.169q.042.557.051,1.119c.392-.07.784-.151,1.172-.245q-.06-.6-.155-1.192-.53.176-1.068.317Z" transform="translate(-172.461 -135.04)" fill="#46bbc6" fill-rule="evenodd"/>
    <path id="Path_165" data-name="Path 165" d="M222.56,178.762q.083.773.116,1.552.82-.1,1.626-.255-.109-.832-.268-1.661c-.487.137-.979.256-1.475.364Z" transform="translate(-172.008 -134.666)" fill="#8bbb2a" fill-rule="evenodd"/>
    <path id="Path_166" data-name="Path 166" d="M220.73,179.029q-.034.69-.118,1.382.707-.024,1.407-.085.022-.739-.008-1.477-.637.107-1.281.179Z" transform="translate(-172.478 -134.558)" fill="#8c8c8e" fill-rule="evenodd"/>
    <path id="Path_167" data-name="Path 167" d="M222.543,183.576q-.149,1.024-.384,2.036,1.1.289,2.224.482c.1-.75.175-1.508.214-2.27q-1.033-.081-2.053-.248Z" transform="translate(-172.104 -133.416)" fill="#8bbb2a" fill-rule="evenodd"/>
    <path id="Path_168" data-name="Path 168" d="M221.722,175.324q.227.511.424,1.039.519-.3,1.023-.624-.256-.544-.545-1.072-.441.344-.9.661Z" transform="translate(-172.21 -135.567)" fill="#8c8c8e" fill-rule="evenodd"/>
    <path id="Path_169" data-name="Path 169" d="M220.111,183q-.257.84-.585,1.671.87.348,1.757.636.283-.926.49-1.868Q220.934,183.25,220.111,183Z" transform="translate(-172.74 -133.555)" fill="#46bbc6" fill-rule="evenodd"/>
    <path id="Path_170" data-name="Path 170" d="M215.989,181.3q.55.32,1.115.608-.393.591-.825,1.156-.587-.359-1.159-.748.454-.5.87-1.015Z" transform="translate(-173.804 -133.965)" fill="#e9d700" fill-rule="evenodd"/>
    <path id="Path_171" data-name="Path 171" d="M216.881,179.987q.518.21,1.048.388-.278.531-.587,1.045-.551-.238-1.088-.509.33-.452.626-.924Z" transform="translate(-173.53 -134.283)" fill="#8c8c8e" fill-rule="evenodd"/>
    <path id="Path_172" data-name="Path 172" d="M217.851,182.259q.71.313,1.441.58-.347.751-.734,1.476-.758-.355-1.5-.758Q217.475,182.921,217.851,182.259Z" transform="translate(-173.336 -133.734)" fill="#8c8c8e" fill-rule="evenodd"/>
    <path id="Path_173" data-name="Path 173" d="M218.651,180.58q.667.176,1.351.305-.236.667-.507,1.319-.709-.2-1.4-.455.295-.576.559-1.17Z" transform="translate(-173.086 -134.14)" fill="#8bbb2a" fill-rule="evenodd"/>
    <path id="Path_174" data-name="Path 174" d="M214.8,180.4q.417.37.858.717-.439.407-.9.788-.44-.41-.854-.845c.308-.211.606-.432.9-.661Z" transform="translate(-174.098 -134.183)" fill="#003980" fill-rule="evenodd"/>
    <path id="Path_175" data-name="Path 175" d="M219.111,179.026q.557.025,1.117.017c-.058.4-.127.79-.208,1.18-.4-.027-.8-.068-1.194-.119.107-.357.2-.718.283-1.08Z" transform="translate(-172.909 -134.515)" fill="#8c8c8e" fill-rule="evenodd"/>
    <path id="Path_176" data-name="Path 176" d="M222.685,181.015q-.01.859-.082,1.717.954.091,1.921.1-.008-.93-.076-1.866-.887.06-1.763.047Z" transform="translate(-171.997 -134.046)" fill="#003980" fill-rule="evenodd"/>
    <path id="Path_177" data-name="Path 177" d="M209.115,165.185q-.729-.1-1.472-.155.066-.8.188-1.6.8.124,1.58.3-.175.726-.3,1.454Z" transform="translate(-175.609 -138.281)" fill="#e9d700" fill-rule="evenodd"/>
    <path id="Path_178" data-name="Path 178" d="M213.588,164.831q-.549-.319-1.115-.608.392-.591.825-1.156.588.359,1.16.748-.454.5-.87,1.015Z" transform="translate(-174.443 -138.368)" fill="#e9d700" fill-rule="evenodd"/>
    <path id="Path_179" data-name="Path 179" d="M212.636,166.084q-.519-.21-1.049-.388.279-.531.587-1.046.551.239,1.088.509-.33.453-.626.924Z" transform="translate(-174.657 -137.986)" fill="#8c8c8e" fill-rule="evenodd"/>
    <path id="Path_180" data-name="Path 180" d="M211.774,163.933q-.711-.314-1.441-.58.346-.751.734-1.477.759.355,1.5.758Q212.149,163.271,211.774,163.933Z" transform="translate(-174.96 -138.656)" fill="#00abe7" fill-rule="evenodd"/>
    <path id="Path_181" data-name="Path 181" d="M210.909,165.527q-.667-.176-1.35-.305.235-.669.506-1.319.71.2,1.4.455-.295.576-.559,1.169Z" transform="translate(-175.147 -138.166)" fill="#8bbb2a" fill-rule="evenodd"/>
    <path id="Path_182" data-name="Path 182" d="M207.221,162.633q-1.019-.168-2.053-.248.059-1.142.215-2.27,1.118.193,2.223.482-.236,1.012-.384,2.037Z" transform="translate(-176.207 -139.081)" fill="#8bbb2a" fill-rule="evenodd"/>
    <path id="Path_183" data-name="Path 183" d="M214.731,165.684q-.417-.37-.858-.717.439-.407.9-.788.44.41.854.845-.461.317-.9.661Z" transform="translate(-174.105 -138.1)" fill="#8bbb2a" fill-rule="evenodd"/>
    <path id="Path_184" data-name="Path 184" d="M206.979,165.032q-.877-.009-1.766.053-.068-.936-.074-1.871.969.009,1.925.094-.073.86-.086,1.721Z" transform="translate(-176.214 -138.333)" fill="#8c8c8e" fill-rule="evenodd"/>
    <path id="Path_185" data-name="Path 185" d="M207.28,169.426q-.138-.622-.24-1.249-.681.2-1.349.439.165.669.362,1.334.608-.283,1.228-.524Z" transform="translate(-176.081 -137.134)" fill="#e9d700" fill-rule="evenodd"/>
    <path id="Path_186" data-name="Path 186" d="M208.746,168.9q-.042-.557-.052-1.119-.589.106-1.172.245c.04.4.094.8.155,1.193.354-.118.71-.223,1.069-.318Z" transform="translate(-175.638 -137.23)" fill="#8bbb2a" fill-rule="evenodd"/>
    <path id="Path_187" data-name="Path 187" d="M206.97,167.4q-.084-.775-.117-1.552-.819.1-1.626.255.109.832.268,1.661c.488-.137.979-.257,1.475-.363Z" transform="translate(-176.192 -137.696)" fill="#8bbb2a" fill-rule="evenodd"/>
    <path id="Path_188" data-name="Path 188" d="M208.735,167.071q.033-.691.117-1.383-.707.023-1.407.084-.021.739.008,1.478Q208.09,167.142,208.735,167.071Z" transform="translate(-175.659 -137.735)" fill="#46bbc6" fill-rule="evenodd"/>
    <path id="Path_189" data-name="Path 189" d="M207.75,170.8q-.225-.511-.423-1.039-.519.3-1.022.624.256.544.544,1.072.44-.344.9-.661Z" transform="translate(-175.932 -136.752)" fill="#8c8c8e" fill-rule="evenodd"/>
    <path id="Path_190" data-name="Path 190" d="M210.332,167.02q.144-.54.321-1.073-.591-.1-1.187-.158c-.094.389-.176.782-.247,1.176.372.007.743.026,1.113.055Z" transform="translate(-175.229 -137.711)" fill="#003980" fill-rule="evenodd"/>
    <path id="Path_191" data-name="Path 191" d="M209.65,163.177q-.82-.249-1.658-.44.2-.94.484-1.866.884.287,1.752.637-.325.829-.578,1.669Z" transform="translate(-175.525 -138.898)" fill="#46bbc6" fill-rule="evenodd"/>
    <path id="Path_192" data-name="Path 192" d="M182.308,204.229v-5.742h.759v2.847l2.845-2.847h1.027l-2.4,2.326,2.509,3.416h-1l-2.039-2.906-.938.916v1.99Zm103.458,0,2.2-5.742h.817l2.345,5.742h-.864l-.668-1.739h-2.4l-.628,1.739Zm1.653-2.358h1.943l-.6-1.59q-.272-.725-.405-1.191a7.342,7.342,0,0,1-.309,1.1Zm-3.117,2.358v-5.742h.758v5.742Zm-5.5,0v-5.742h2.15a2.667,2.667,0,0,1,1.052.173,1.352,1.352,0,0,1,.621.538,1.418,1.418,0,0,1,.226.758,1.3,1.3,0,0,1-.2.693,1.428,1.428,0,0,1-.6.526,1.491,1.491,0,0,1,.8.519,1.4,1.4,0,0,1,.283.87,1.686,1.686,0,0,1-.171.75,1.457,1.457,0,0,1-.421.535,1.75,1.75,0,0,1-.627.283,3.782,3.782,0,0,1-.924.094Zm.759-3.329H280.8a2.775,2.775,0,0,0,.723-.067.8.8,0,0,0,.435-.286.827.827,0,0,0,.147-.5.929.929,0,0,0-.136-.5.7.7,0,0,0-.391-.3,3.272,3.272,0,0,0-.873-.08h-1.144V200.9Zm0,2.652h1.426a3.339,3.339,0,0,0,.518-.027,1.242,1.242,0,0,0,.438-.158.831.831,0,0,0,.289-.318,1.009,1.009,0,0,0,.113-.484.962.962,0,0,0-.164-.559.867.867,0,0,0-.456-.333,2.866,2.866,0,0,0-.838-.094h-1.324v1.973Zm-6.695.678,2.2-5.742h.816l2.345,5.742h-.864l-.668-1.739h-2.4l-.628,1.739Zm1.653-2.358h1.943l-.6-1.59q-.273-.724-.406-1.191a7.329,7.329,0,0,1-.309,1.1Zm-6.79,2.358v-5.742h2.54a3.37,3.37,0,0,1,1.165.155,1.279,1.279,0,0,1,.638.545,1.64,1.64,0,0,1,.235.866,1.44,1.44,0,0,1-.395,1.03,2,2,0,0,1-1.219.533,1.915,1.915,0,0,1,.458.286,4.024,4.024,0,0,1,.629.763l1,1.563h-.953l-.758-1.195c-.221-.344-.4-.609-.548-.79a1.691,1.691,0,0,0-.384-.383,1.139,1.139,0,0,0-.346-.154,2.409,2.409,0,0,0-.424-.027h-.878v2.55Zm.758-3.207h1.63a2.417,2.417,0,0,0,.813-.108.862.862,0,0,0,.446-.345.935.935,0,0,0,.152-.515.853.853,0,0,0-.295-.669,1.373,1.373,0,0,0-.932-.263h-1.815v1.9Zm-6.735,3.207,2.2-5.742h.816l2.345,5.742h-.865l-.668-1.739h-2.4l-.628,1.739Zm1.653-2.358h1.943l-.6-1.59q-.273-.724-.406-1.191a7.336,7.336,0,0,1-.309,1.1Zm-4.9,2.358v-5.742h.758v5.742Zm-5.909,0v-5.742h1.973a4.776,4.776,0,0,1,1.02.083,1.936,1.936,0,0,1,.84.41,2.347,2.347,0,0,1,.677.981,3.852,3.852,0,0,1,.225,1.365,3.984,3.984,0,0,1-.153,1.159,2.774,2.774,0,0,1-.39.837,2.054,2.054,0,0,1-.522.519,2.094,2.094,0,0,1-.683.289,3.9,3.9,0,0,1-.92.1Zm.758-.678h1.225a2.947,2.947,0,0,0,.889-.105,1.278,1.278,0,0,0,.514-.3,1.8,1.8,0,0,0,.42-.726,3.567,3.567,0,0,0,.151-1.107,2.672,2.672,0,0,0-.3-1.384,1.481,1.481,0,0,0-.717-.648,2.931,2.931,0,0,0-.981-.118h-1.2v4.387Zm-2.779-5.065h.759V201.8a3.925,3.925,0,0,1-.2,1.375,1.673,1.673,0,0,1-.707.827,2.481,2.481,0,0,1-1.338.319,2.735,2.735,0,0,1-1.319-.278,1.579,1.579,0,0,1-.731-.8,3.824,3.824,0,0,1-.219-1.439v-3.318h.758V201.8a3.23,3.23,0,0,0,.139,1.1,1.058,1.058,0,0,0,.476.547,1.648,1.648,0,0,0,.827.193,1.576,1.576,0,0,0,1.193-.382,2.2,2.2,0,0,0,.355-1.459v-3.314Zm-9.726,5.742,2.2-5.742h.816l2.345,5.742h-.864l-.668-1.739h-2.4l-.628,1.739Zm1.652-2.358h1.943l-.6-1.59c-.181-.483-.317-.88-.406-1.191a7.34,7.34,0,0,1-.309,1.1Zm-6.618.513.715-.062a1.578,1.578,0,0,0,.236.708,1.293,1.293,0,0,0,.576.447,2.185,2.185,0,0,0,.879.169,2.114,2.114,0,0,0,.766-.128,1.07,1.07,0,0,0,.495-.354.826.826,0,0,0,.162-.492.739.739,0,0,0-.157-.472,1.147,1.147,0,0,0-.515-.339,10.062,10.062,0,0,0-1.021-.28,5.2,5.2,0,0,1-1.105-.359,1.556,1.556,0,0,1-.612-.535,1.318,1.318,0,0,1-.2-.715,1.465,1.465,0,0,1,.245-.812,1.533,1.533,0,0,1,.719-.575,2.743,2.743,0,0,1,1.051-.2,2.864,2.864,0,0,1,1.124.206,1.616,1.616,0,0,1,.748.6,1.746,1.746,0,0,1,.283.9l-.726.055a1.183,1.183,0,0,0-.4-.823,1.539,1.539,0,0,0-1-.278,1.6,1.6,0,0,0-1,.253.759.759,0,0,0-.315.609.653.653,0,0,0,.223.509,2.991,2.991,0,0,0,1.143.41,7.6,7.6,0,0,1,1.268.366,1.749,1.749,0,0,1,.739.586,1.43,1.43,0,0,1,.236.817,1.565,1.565,0,0,1-.261.864,1.732,1.732,0,0,1-.754.631,2.617,2.617,0,0,1-1.1.225,3.27,3.27,0,0,1-1.3-.227,1.829,1.829,0,0,1-.826-.684,1.934,1.934,0,0,1-.313-1.033Zm-6.816,1.845v-5.742h3.866v.678h-3.109v1.779h2.688v.678h-2.688v2.609Zm-6.495-2.8a3.121,3.121,0,0,1,.765-2.238,2.606,2.606,0,0,1,1.978-.809,2.752,2.752,0,0,1,1.43.378,2.484,2.484,0,0,1,.971,1.061,3.439,3.439,0,0,1,.333,1.54,3.386,3.386,0,0,1-.35,1.564,2.4,2.4,0,0,1-1,1.044,2.839,2.839,0,0,1-1.391.354,2.7,2.7,0,0,1-1.446-.391,2.516,2.516,0,0,1-.966-1.07,3.245,3.245,0,0,1-.33-1.433Zm.781.012a2.3,2.3,0,0,0,.556,1.636,1.94,1.94,0,0,0,2.748.053l.058-.058a2.448,2.448,0,0,0,.553-1.713,2.953,2.953,0,0,0-.236-1.224,1.824,1.824,0,0,0-.691-.812,1.88,1.88,0,0,0-1.022-.288,1.932,1.932,0,0,0-1.386.555,2.479,2.479,0,0,0-.58,1.85Zm-9.467,2.786v-5.742h1.142l1.355,4.066c.125.378.218.661.274.85q.1-.313.305-.921l1.371-3.995h1.021v5.742h-.731v-4.807l-1.664,4.807h-.684l-1.657-4.888v4.888Zm-6.432-2.8a3.125,3.125,0,0,1,.765-2.238,2.606,2.606,0,0,1,1.978-.809,2.752,2.752,0,0,1,1.43.378,2.492,2.492,0,0,1,.971,1.061,3.441,3.441,0,0,1,.333,1.54,3.386,3.386,0,0,1-.35,1.564,2.41,2.41,0,0,1-1,1.044,2.846,2.846,0,0,1-1.391.354,2.7,2.7,0,0,1-1.446-.391,2.516,2.516,0,0,1-.966-1.07,3.245,3.245,0,0,1-.33-1.433Zm.781.012a2.3,2.3,0,0,0,.556,1.636,1.941,1.941,0,0,0,2.748.054l.058-.059a2.45,2.45,0,0,0,.553-1.713,2.958,2.958,0,0,0-.236-1.224,1.826,1.826,0,0,0-.691-.812,1.88,1.88,0,0,0-1.022-.288,1.933,1.933,0,0,0-1.386.555,2.477,2.477,0,0,0-.58,1.85Zm-6.33,2.786v-5.742h1.973a4.779,4.779,0,0,1,1.021.083,1.936,1.936,0,0,1,.84.41,2.343,2.343,0,0,1,.678.981,3.851,3.851,0,0,1,.225,1.365,3.982,3.982,0,0,1-.154,1.159,2.775,2.775,0,0,1-.391.837,2.037,2.037,0,0,1-.522.519,2.094,2.094,0,0,1-.682.289,3.9,3.9,0,0,1-.92.1Zm.758-.678h1.225a2.95,2.95,0,0,0,.89-.105,1.277,1.277,0,0,0,.513-.3,1.8,1.8,0,0,0,.42-.726,3.55,3.55,0,0,0,.151-1.107,2.681,2.681,0,0,0-.295-1.384,1.482,1.482,0,0,0-.718-.648,2.931,2.931,0,0,0-.981-.118h-1.2v4.387Zm-4.3-1.575V201.3l2.426,0v2.13a4.278,4.278,0,0,1-1.152.672,3.427,3.427,0,0,1-1.219.225,3.244,3.244,0,0,1-1.534-.362,2.4,2.4,0,0,1-1.041-1.047,3.3,3.3,0,0,1-.352-1.533,3.551,3.551,0,0,1,.351-1.564,2.32,2.32,0,0,1,1.006-1.08,3.154,3.154,0,0,1,1.512-.352,2.967,2.967,0,0,1,1.123.2,1.845,1.845,0,0,1,.787.561,2.512,2.512,0,0,1,.435.94l-.684.189a2.169,2.169,0,0,0-.32-.69,1.32,1.32,0,0,0-.548-.4,2,2,0,0,0-.788-.152,2.32,2.32,0,0,0-.9.159,1.674,1.674,0,0,0-.612.417,2,2,0,0,0-.361.567,3,3,0,0,0-.219,1.155,2.8,2.8,0,0,0,.264,1.285,1.691,1.691,0,0,0,.768.767,2.362,2.362,0,0,0,1.07.252,2.521,2.521,0,0,0,.962-.191,2.415,2.415,0,0,0,.711-.405v-1.07Zm-8.469,2.253v-5.742h.778l3.009,4.509v-4.509h.727v5.742h-.778l-3.009-4.512v4.512Zm-2.086,0v-5.742h.758v5.742Z" transform="translate(-181.726 -129.841)" fill="#8c8c8e" fill-rule="evenodd"/>
    <path id="Path_193" data-name="Path 193" d="M216.072,166.558a2.5,2.5,0,0,1,.37,1.251s.774-1.271,2.38-.212c0,0-1.366-.184-1.69.522,0,0,2.1-.55,2.549,1.4,0,0-.972-1.086-1.859-.89a2.28,2.28,0,0,1,1.45,2.781s-.169-1.864-1.521-2.089a3.1,3.1,0,0,1,.775,3.106,3.057,3.057,0,0,0-.958-2.273,3.284,3.284,0,0,1-.408,3.036s.549-1.849-.338-2.527c0,0-.366-.226-.352.452,0,0-.105,3.88.087,5.773,0,0,3.875-3.288,7.191-1.1,0,0-3.283-1.605-7.065,1.932l2.524,2.222a.633.633,0,0,1,1.17.335c0,.854-1.2.793-1.633.281l-2.652-2.443-.019-.058-.019.058-2.652,2.443c-.437.512-1.634.573-1.634-.281a.633.633,0,0,1,1.171-.335l2.524-2.222c-3.781-3.541-7.065-1.932-7.065-1.932,3.316-2.186,7.191,1.1,7.191,1.1.192-1.893.086-5.773.086-5.773.015-.678-.352-.452-.352-.452-.887.678-.338,2.527-.338,2.527a3.285,3.285,0,0,1-.408-3.036,3.058,3.058,0,0,0-.958,2.273,3.1,3.1,0,0,1,.775-3.106c-1.352.226-1.521,2.089-1.521,2.089a2.278,2.278,0,0,1,1.451-2.781c-.887-.2-1.859.89-1.859.89.451-1.948,2.549-1.4,2.549-1.4-.324-.706-1.69-.522-1.69-.522,1.606-1.059,2.38.212,2.38.212a2.5,2.5,0,0,1,.367-1.251Z" transform="translate(-175.428 -137.525)" fill="#8c8c8e" fill-rule="evenodd"/>
    <path id="Path_194" data-name="Path 194" d="M187.643,198.124h.738v-.739h-.738Zm-1.727-8.016h-.738v.739h.738Zm2.967,8.016h.738v-.739h-.738Zm-4.211-8.016h-.738v.739h.738Zm9.432,2.2a1.8,1.8,0,0,0-.641-.466,1.915,1.915,0,0,0-.854-.156h-.543v.7h.641a1.045,1.045,0,0,1,.485.117,1.2,1.2,0,0,1,.388.292,1.372,1.372,0,0,1,.214.409,2.229,2.229,0,0,1,.058.544v2.082h-3.358v.72h4.077v-2.821a2.647,2.647,0,0,0-.117-.8,1.628,1.628,0,0,0-.349-.623Zm27.716,4.241h.718v-6.44h-.718Zm-2.795-.72h-1.184a2.375,2.375,0,0,1-.989-.176,1.379,1.379,0,0,1-.565-.545,2.351,2.351,0,0,0,.078-.68v-2.3h-.718v2.412a1.417,1.417,0,0,1-.33.992,1.288,1.288,0,0,1-1.009.37,1.41,1.41,0,0,1-.582-.1,1.683,1.683,0,0,1-.447-.253,1.572,1.572,0,0,1-.291-.408,1.063,1.063,0,0,1-.116-.486v-2.529h-.718V194.6a1.538,1.538,0,0,1-.1.564.872.872,0,0,1-.272.37.933.933,0,0,1-.388.214,1.127,1.127,0,0,1-.447.078h-1.4v-3.7h-.718v3.7H205.09l1.242-3a7.444,7.444,0,0,0-.6-.486,5.6,5.6,0,0,0-.659-.37,3.472,3.472,0,0,0-.7-.272,2.486,2.486,0,0,0-1.378,0,5.1,5.1,0,0,0-.7.253,4.548,4.548,0,0,0-.659.389,5.133,5.133,0,0,0-.6.486l1.261,3h-2.484v-4.144h-1.145a3.909,3.909,0,0,0-1.2.175,3.071,3.071,0,0,0-.932.525,2.2,2.2,0,0,0-.621.778,2.291,2.291,0,0,0-.214.973,2.1,2.1,0,0,0,.252,1.09,1.969,1.969,0,0,0,.641.739,2.873,2.873,0,0,0,.951.448,5.282,5.282,0,0,0,1.126.136h.427v.2a.968.968,0,0,1-.31.817,1.547,1.547,0,0,1-.912.234,2.86,2.86,0,0,1-.6-.059,3.769,3.769,0,0,1-.6-.214l-.213.681a5.048,5.048,0,0,0,.718.234,2.4,2.4,0,0,0,.641.078,2.077,2.077,0,0,0,1.533-.506,1.866,1.866,0,0,0,.466-1.322v-.137h11.14a1.839,1.839,0,0,0,.932-.233,1.971,1.971,0,0,0,.659-.6,1.686,1.686,0,0,0,.7.681,2.281,2.281,0,0,0,1.068.234,2.58,2.58,0,0,0,1.086-.214,1.524,1.524,0,0,0,.7-.7,1.181,1.181,0,0,0,.233.311,1.136,1.136,0,0,0,.33.254,1.6,1.6,0,0,0,.485.194,2.18,2.18,0,0,0,.524.059v.019h2.077v-6.44h-.718v5.72Zm17.322,2.314h.738V197.4h-.738Zm7.007-2.3-1.106-2.762a2.53,2.53,0,0,1,.835-.507,2.434,2.434,0,0,1,.912-.155,2.3,2.3,0,0,1,.951.195,2.355,2.355,0,0,1,.815.467l-1.126,2.762Zm5.087,0h-3.047l1.261-3.015c-.194-.156-.407-.311-.621-.467a7.285,7.285,0,0,0-.659-.39,4.756,4.756,0,0,0-.679-.253,2.555,2.555,0,0,0-1.4,0,5.06,5.06,0,0,0-.7.253,4.47,4.47,0,0,0-.659.39c-.213.156-.407.311-.6.467l1.281,3.014h-2.678v-4.163h-.718V196.7a2.091,2.091,0,0,1-.039.525.743.743,0,0,1-.1.331.418.418,0,0,1-.214.2.779.779,0,0,1-.33.058.545.545,0,0,1-.175-.02,1.18,1.18,0,0,1-.194-.039l-.194.7a3.459,3.459,0,0,0,.583.078,1.328,1.328,0,0,0,.659-.137,1.064,1.064,0,0,0,.427-.35,2.04,2.04,0,0,0,.233-.584,4.312,4.312,0,0,0,.058-.759v-.156h9.219v-6.421h-.718v5.722Zm-14.712,2.3h.738V197.4h-.738Zm-4.347-2.3h-.718a2.569,2.569,0,0,1-.756-.116,1.7,1.7,0,0,1-.6-.35,1.419,1.419,0,0,1-.427-.526,1.771,1.771,0,0,1-.155-.72,1.465,1.465,0,0,1,.175-.72,2.323,2.323,0,0,1,.427-.545,3.347,3.347,0,0,1,.641-.35,2.175,2.175,0,0,1,.7-.117h.718v3.443Zm7.705-4.163h-.718v4.163h-2.7v-4.163h-.718v4.163H230.1v-4.163h-1.125a4.029,4.029,0,0,0-1.225.195,2.683,2.683,0,0,0-.932.506,2.346,2.346,0,0,0-.6.779,2.312,2.312,0,0,0-.213.973,2.44,2.44,0,0,0,.252,1.089,2.4,2.4,0,0,0,.641.759,2.865,2.865,0,0,0,.951.428,4.172,4.172,0,0,0,1.126.136h8.113v-4.863Zm-4.6,6.46h.737V197.4h-.737Zm-2.388-8.016h-.738v.739h.738Zm-1.261,0H228.1v.739h.737Zm22.4,6.421h.718v-6.421h-.717v6.421Zm32.04-.627a1.843,1.843,0,0,1-.407.6,2.05,2.05,0,0,1-.582.39,1.941,1.941,0,0,1-.757.136,1.57,1.57,0,0,1-.738-.155,2.33,2.33,0,0,1-.582-.39,1.742,1.742,0,0,1-.368-.6,1.839,1.839,0,0,1-.155-.72,1.938,1.938,0,0,1,.155-.739,1.751,1.751,0,0,1,.368-.6,2.224,2.224,0,0,1,.582-.408,1.788,1.788,0,0,1,.738-.136,1.94,1.94,0,0,1,.757.136,2.162,2.162,0,0,1,.6.389,1.534,1.534,0,0,1,.388.6,1.956,1.956,0,0,1,.155.759,1.859,1.859,0,0,1-.155.739Zm-6.948,0a1.831,1.831,0,0,1-.407.6,1.91,1.91,0,0,1-.6.39,1.78,1.78,0,0,1-.738.136,1.569,1.569,0,0,1-.737-.155,2.332,2.332,0,0,1-.582-.39,2.147,2.147,0,0,1-.388-.6,2.248,2.248,0,0,1-.136-.72,2.371,2.371,0,0,1,.136-.739,2.161,2.161,0,0,1,.388-.6,2.215,2.215,0,0,1,.582-.408,1.794,1.794,0,0,1,.737-.136,1.949,1.949,0,0,1,.757.136,2.158,2.158,0,0,1,.6.389,1.788,1.788,0,0,1,.388.6,1.957,1.957,0,0,1,.155.759,1.86,1.86,0,0,1-.155.739Zm-17.427.33h-.7a2.368,2.368,0,0,1-.757-.117,1.776,1.776,0,0,1-.621-.35,1.373,1.373,0,0,1-.407-.525,1.506,1.506,0,0,1-.155-.72,1.7,1.7,0,0,1,.155-.72,1.957,1.957,0,0,1,.447-.544,2.715,2.715,0,0,1,.621-.351,2.249,2.249,0,0,1,.718-.116h.7Zm27.483,0h-2.465a2.463,2.463,0,0,0,.233-1.07,2.65,2.65,0,0,0-.213-1.031,2.7,2.7,0,0,0-.543-.836,2.488,2.488,0,0,0-.835-.545,2.562,2.562,0,0,0-1.029-.195,2.528,2.528,0,0,0-1.009.195,2.371,2.371,0,0,0-.8.567,2.224,2.224,0,0,0-.543.836,2.534,2.534,0,0,0-.214,1.012,2.409,2.409,0,0,0,.233,1.07H276.97a2.471,2.471,0,0,0,.233-1.07,2.646,2.646,0,0,0-.214-1.031,2.7,2.7,0,0,0-.543-.836,2.477,2.477,0,0,0-.834-.545,2.546,2.546,0,0,0-1.029-.195,2.454,2.454,0,0,0-1.009.195,2.663,2.663,0,0,0-.815.567,2.827,2.827,0,0,0-.543.836,2.93,2.93,0,0,0-.195,1.012,2.679,2.679,0,0,0,.059.564,5.006,5.006,0,0,0,.155.506h-2.271v-5.728h-.718v5.72h-2.271v-1.109a2.6,2.6,0,0,0-.116-.778,1.684,1.684,0,0,0-.33-.642,2.454,2.454,0,0,0-.641-.466,2.274,2.274,0,0,0-.873-.137h-3.183l1.358-2.587h-.776l-1.378,2.568a2.136,2.136,0,0,0,.1.408,1.808,1.808,0,0,0,.214.312h3.668a1.426,1.426,0,0,1,.582.117.935.935,0,0,1,.388.272.83.83,0,0,1,.214.408,2.173,2.173,0,0,1,.058.526v1.109h-6.638v-4.163h-1.125a4.013,4.013,0,0,0-1.225.195,2.882,2.882,0,0,0-.932.506,2.288,2.288,0,0,0-.582.778,2.051,2.051,0,0,0-.214.973,2.44,2.44,0,0,0,.233,1.09,3.035,3.035,0,0,0,.641.759,2.826,2.826,0,0,0,.951.427,4.23,4.23,0,0,0,1.126.137H272.7a2.551,2.551,0,0,0,.835.6,2.4,2.4,0,0,0,1.048.214,2.429,2.429,0,0,0,1.067-.214,2.21,2.21,0,0,0,.854-.6h3.163a2.48,2.48,0,0,0,.815.6,2.4,2.4,0,0,0,1.048.214,2.432,2.432,0,0,0,1.068-.214,2.218,2.218,0,0,0,.854-.6H287.1v-6.421h-.718v5.723Zm2.815.7h.718v-6.421H289.2Zm-30.84-6.421h-.738v.739h.738Zm1.261,0h-.738v.739h.738Zm-70.129,1.155h-.718v4.144h-2.853v-4.144h-1.125a4.048,4.048,0,0,0-1.225.175,3.078,3.078,0,0,0-.932.506,2.324,2.324,0,0,0-.8,1.751,2.381,2.381,0,0,0,.234,1.09,2.282,2.282,0,0,0,.659.759,2.747,2.747,0,0,0,.932.428,4.4,4.4,0,0,0,1.125.155h4.7v-4.863ZM185.2,195.83h-.7a2.385,2.385,0,0,1-.757-.117,2.124,2.124,0,0,1-.621-.331,1.623,1.623,0,0,1-.408-.545,1.463,1.463,0,0,1-.155-.72,1.687,1.687,0,0,1,.155-.7,1.927,1.927,0,0,1,1.068-.9,2.223,2.223,0,0,1,.718-.136h.7v3.446Zm13.895,0h-.718a2.385,2.385,0,0,1-.757-.117,1.748,1.748,0,0,1-.621-.331,1.427,1.427,0,0,1-.427-.526,1.71,1.71,0,0,1-.155-.72,1.448,1.448,0,0,1,.175-.7,1.723,1.723,0,0,1,.427-.545,2.5,2.5,0,0,1,.621-.369,2.4,2.4,0,0,1,.738-.117h.718v3.424Zm3.959,0-1.126-2.763a2.985,2.985,0,0,1,.854-.506,2.806,2.806,0,0,1,.912-.156,2.377,2.377,0,0,1,.951.195,2.868,2.868,0,0,1,.8.467l-1.106,2.763Z" transform="translate(-181.839 -131.839)" fill="#8c8c8e" fill-rule="evenodd"/>
    <path id="Path_195" data-name="Path 195" d="M258.719,159.932h1.239v1.243h-1.239Zm2.48,0h1.24v1.243H261.2Zm-24.463-14.139H235.5V144.55h1.24Zm29.683,8.649a5.218,5.218,0,0,0,1.628.75,8.015,8.015,0,0,0,1.963.234h.31l.439-.881v1.217a1.651,1.651,0,0,1-.568,1.4,2.46,2.46,0,0,1-1.55.414,4.227,4.227,0,0,1-1.033-.1,6.43,6.43,0,0,1-1.059-.363l-.388,1.191a9.4,9.4,0,0,0,1.266.389,5.389,5.389,0,0,0,1.111.129,3.506,3.506,0,0,0,2.635-.855,3.211,3.211,0,0,0,.8-2.3v-8.624h-1.964a6.593,6.593,0,0,0-2.092.311,5.036,5.036,0,0,0-1.6.88,4.132,4.132,0,0,0-1.008,4.921,3.592,3.592,0,0,0,1.111,1.3Zm0-4.376a2.727,2.727,0,0,1,.749-.958,3.552,3.552,0,0,1,2.3-.829h1.989l-.7.363v5.542h-1.266A4.1,4.1,0,0,1,268.2,154a3.614,3.614,0,0,1-1.083-.57,3.029,3.029,0,0,1-.723-.906,2.747,2.747,0,0,1-.258-1.243,2.416,2.416,0,0,1,.283-1.217Zm-27.229-4.273h-1.214V144.55h1.214Zm35.934,13.025a4.5,4.5,0,0,1-1.007-.129l.31-1.191a2.211,2.211,0,0,1,.336.078h.31a1.239,1.239,0,0,0,.568-.1.615.615,0,0,0,.362-.311,1.625,1.625,0,0,0,.181-.6,4.486,4.486,0,0,0,.052-.881v-8.649h1.239v8.651a6.546,6.546,0,0,1-.1,1.295,2.527,2.527,0,0,1-.413,1.01,1.888,1.888,0,0,1-.723.621,2.831,2.831,0,0,1-1.111.207Zm-39.293-.155h2.558v-.933a.58.58,0,0,1,.077.129,1.971,1.971,0,0,0,.749.622,2.745,2.745,0,0,0,1.111.207h22.552V147.035h-1.24v10.41H240.378a1.93,1.93,0,0,1-.594-.077.839.839,0,0,1-.335-.336,1.6,1.6,0,0,1-.207-.6,7.631,7.631,0,0,1-.052-.881v-8.52h-3.332a5.674,5.674,0,0,0-5.736,5.612c0,.063,0,.126,0,.189v.026a5.638,5.638,0,0,0,5.471,5.8c.079,0,.159,0,.238,0Zm-4.392-5.855a4.395,4.395,0,0,1,4.392-4.61h2.893l-.749.363v6.992a6.411,6.411,0,0,0,.1,1.295,3.533,3.533,0,0,0,.181.622h-2.4a4.454,4.454,0,0,1-4.418-4.635v-.026Zm39.153-9.637H271.6v.911h-.927a.364.364,0,0,0-.363.364v.364H271.9v.985h-2.617v-1.312a1.314,1.314,0,0,1,1.309-1.311Z" transform="translate(-170.182 -143.172)" fill="#8c8c8e" fill-rule="evenodd"/>
    <path id="Path_196" data-name="Path 196" d="M235.258,146.256h1.264v11.588h-1.032l-8.231-10.424.723,1.682v8.743h-1.264V146.257h1.212l7.845,9.984-.519-1.423v-8.562Zm-48.175,11.692-4.98-11.692h1.445l.723,1.733,3.406,8.252.335.8-.128-1.268,3.948-9.519h1.393l-4.98,11.691Zm22.09-11.692h1.316v11.588h-1.32V146.256Zm14.036,5.82a4.554,4.554,0,0,1-4.542,4.759,4.615,4.615,0,0,1-4.569-4.785v-.026a4.56,4.56,0,1,1,9.111.026Zm-4.542-6.027a5.881,5.881,0,0,0-5.909,5.852c0,.05,0,.1,0,.149v.026a5.809,5.809,0,0,0,5.638,5.973c.082,0,.164,0,.245,0a5.872,5.872,0,0,0,5.936-5.807c0-.065,0-.129,0-.194v-.026a5.83,5.83,0,0,0-5.681-5.974c-.076,0-.152,0-.227,0Zm-11.638,8.665v.026c0,1.992-1.677,3.285-3.974,3.285a6.773,6.773,0,0,1-4.722-1.863l.8-.957a5.557,5.557,0,0,0,3.974,1.629c1.574,0,2.581-.827,2.581-1.966v-.026c0-1.086-.568-1.707-3.019-2.2-2.658-.6-3.871-1.448-3.871-3.363v-.026c0-1.837,1.6-3.181,3.793-3.181a5.956,5.956,0,0,1,4.077,1.448l-.748,1.009a5.139,5.139,0,0,0-3.354-1.268c-1.5,0-2.477.828-2.477,1.862v.051c0,1.086.593,1.708,3.148,2.251,2.58.569,3.793,1.5,3.793,3.285Zm-10.708,3.13h-1.316V146.256h1.316Z" transform="translate(-181.776 -142.477)" fill="#8c8c8e" fill-rule="evenodd"/>
  </g>
</svg>
