<svg xmlns="http://www.w3.org/2000/svg" width="89.234" height="86.557" viewBox="0 0 89.234 86.557">
  <g id="about-hay2a" transform="translate(-701.065 -309.846)">
    <g id="Group_542" data-name="Group 542" transform="translate(774.633 348.976)">
      <path id="Path_256" data-name="Path 256" d="M799.554,364.352a.877.877,0,0,1-.649-.285,35.972,35.972,0,0,0-4.95-3.679,51.115,51.115,0,0,0-7.618-3.876l-.669-.271a.875.875,0,1,1,.649-1.625l.666.27a52.021,52.021,0,0,1,7.895,4.016,37.734,37.734,0,0,1,5.259,3.919.878.878,0,0,1-.584,1.532Z" transform="translate(-785.117 -354.553)" fill="#c48e61"/>
    </g>
    <g id="Group_543" data-name="Group 543" transform="translate(773.9 371.234)">
      <path id="Path_257" data-name="Path 257" d="M792.976,385.434a.864.864,0,0,1-.438-.118,54.083,54.083,0,0,0-7.7-3.64.876.876,0,0,1,.628-1.635,56.03,56.03,0,0,1,7.946,3.76.876.876,0,0,1-.439,1.633Z" transform="translate(-784.28 -379.983)" fill="#c48e61"/>
    </g>
    <g id="Group_544" data-name="Group 544" transform="translate(714.498 378.653)">
      <path id="Path_258" data-name="Path 258" d="M717.288,394.546a.875.875,0,0,1-.332-1.686,71.367,71.367,0,0,1,12.206-3.7c.011,0,1.877-.369,3.8-.693a.876.876,0,1,1,.291,1.727c-1.9.319-3.741.682-3.741.682a69.48,69.48,0,0,0-11.892,3.6A.886.886,0,0,1,717.288,394.546Z" transform="translate(-716.412 -388.459)" fill="#c48e61"/>
    </g>
    <g id="Group_545" data-name="Group 545" transform="translate(783.838 359.415)">
      <path id="Path_259" data-name="Path 259" d="M799.957,370.716a.867.867,0,0,1-.557-.2c-.614-.509-1.261-1.008-1.926-1.486h0s-.629-.418-1.438-.938a.876.876,0,1,1,.949-1.472c.837.541,1.485.971,1.485.971.724.52,1.4,1.045,2.047,1.577a.875.875,0,0,1-.559,1.55Z" transform="translate(-795.635 -366.479)" fill="#c48e61"/>
    </g>
    <g id="Group_546" data-name="Group 546" transform="translate(775.419 354.955)">
      <path id="Path_260" data-name="Path 260" d="M792.366,365.768a.868.868,0,0,1-.424-.109,54.459,54.459,0,0,0-5.388-2.593.875.875,0,1,1,.673-1.615,55.844,55.844,0,0,1,5.563,2.676.875.875,0,0,1-.424,1.641Z" transform="translate(-786.015 -361.384)" fill="#c48e61"/>
    </g>
    <g id="Group_547" data-name="Group 547" transform="translate(702.312 358.829)">
      <path id="Path_261" data-name="Path 261" d="M703.365,370.613a.876.876,0,0,1-.558-1.55,40.024,40.024,0,0,1,4.326-3.12.875.875,0,1,1,.927,1.485,38.2,38.2,0,0,0-4.137,2.984A.875.875,0,0,1,703.365,370.613Z" transform="translate(-702.489 -365.81)" fill="#c48e61"/>
    </g>
    <g id="Group_548" data-name="Group 548" transform="translate(709.424 354.308)">
      <path id="Path_262" data-name="Path 262" d="M711.491,365.28a.875.875,0,0,1-.407-1.651,65.687,65.687,0,0,1,6.387-2.923.875.875,0,1,1,.64,1.629,63.69,63.69,0,0,0-6.214,2.845A.866.866,0,0,1,711.491,365.28Z" transform="translate(-710.615 -360.645)" fill="#c48e61"/>
    </g>
    <g id="Group_549" data-name="Group 549" transform="translate(719.123 326.909)">
      <path id="Path_263" data-name="Path 263" d="M723.009,335.057a1.313,1.313,0,0,1-.395-2.565q.746-.235,1.508-.457l2.548-.692c2.2-.558,4.47-1.029,6.76-1.407,1.372-.226,2.787-.423,4.2-.587a1.313,1.313,0,0,1,.3,2.609c-1.374.158-2.747.35-4.08.57-2.215.364-4.409.82-6.518,1.354l-2.5.68c-.466.137-.951.284-1.43.434A1.315,1.315,0,0,1,723.009,335.057Z" transform="translate(-721.696 -329.34)" fill="#005f54"/>
    </g>
    <g id="Group_550" data-name="Group 550" transform="translate(711.362 331.958)">
      <path id="Path_264" data-name="Path 264" d="M714.144,344.417a1.313,1.313,0,0,1-.559-2.5c1.42-.666,2.927-1.3,4.479-1.882l.084-.031.135-.05a84,84,0,0,1,28.868-4.845q.734,0,1.463.011c1.651.026,3.295.094,4.888.2a1.313,1.313,0,0,1-.176,2.62c-1.549-.1-3.147-.171-4.751-.2q-.708-.011-1.424-.01a81.373,81.373,0,0,0-27.965,4.684l-.127.046c-1.56.585-3,1.191-4.357,1.827A1.306,1.306,0,0,1,714.144,344.417Z" transform="translate(-712.83 -335.109)" fill="#005f54"/>
    </g>
    <g id="Group_551" data-name="Group 551" transform="translate(728.437 365.775)">
      <path id="Path_265" data-name="Path 265" d="M774.575,379.974a1.347,1.347,0,0,1-.39-.059,84.01,84.01,0,0,0-24.6-3.544c-2.978,0-5.962.144-8.871.43q-.9.089-1.8.2c-1.7.2-3.388.456-5.027.753a1.313,1.313,0,0,1-.468-2.583c1.69-.306,3.435-.568,5.184-.777q.923-.109,1.855-.2c2.994-.293,6.065-.442,9.128-.442a86.687,86.687,0,0,1,25.381,3.661,1.313,1.313,0,0,1-.389,2.567Z" transform="translate(-732.338 -373.746)" fill="#005f54"/>
    </g>
    <g id="Group_552" data-name="Group 552" transform="translate(731.508 371.408)">
      <path id="Path_266" data-name="Path 266" d="M769.871,385.014a1.325,1.325,0,0,1-.291-.032c-2.206-.5-4.892-.976-4.918-.979a88.665,88.665,0,0,0-14.64-1.195c-1.8,0-3.616.053-5.393.157-.362.022-.724.045-1.085.071-2.081.147-4.165.369-6.2.659a1.313,1.313,0,1,1-.371-2.6c2.093-.3,4.24-.526,6.381-.677q.554-.039,1.117-.073c1.83-.108,3.7-.162,5.548-.162a91.349,91.349,0,0,1,15.084,1.232c.122.021,2.786.491,5.055,1.007a1.313,1.313,0,0,1-.29,2.593Z" transform="translate(-735.847 -380.182)" fill="#005f54"/>
    </g>
    <g id="Group_553" data-name="Group 553" transform="translate(734.728 377.05)">
      <path id="Path_267" data-name="Path 267" d="M766.007,390.578a1.361,1.361,0,0,1-.229-.019c-1.216-.214-2.455-.4-3.684-.564a91.414,91.414,0,0,0-13.435-.724c-2.574.051-5.16.21-7.681.476a1.313,1.313,0,1,1-.276-2.612c2.6-.273,5.256-.438,7.905-.49a93.95,93.95,0,0,1,13.825.747c1.268.164,2.547.36,3.8.58a1.313,1.313,0,0,1-.227,2.606Z" transform="translate(-739.526 -386.628)" fill="#005f54"/>
    </g>
    <g id="Group_554" data-name="Group 554" transform="translate(716.697 343.233)">
      <path id="Path_268" data-name="Path 268" d="M720.239,355.117a1.312,1.312,0,0,1-.467-2.539l.291-.111c1.7-.6,3.449-1.138,5.225-1.615h.006c.06-.015.12-.031.18-.047h0a87.531,87.531,0,0,1,22.433-2.811,88.81,88.81,0,0,1,20.305,2.279c1.857.436,3.686.94,5.439,1.494a1.313,1.313,0,1,1-.793,2.5c-1.689-.535-3.455-1.02-5.247-1.441a86.2,86.2,0,0,0-19.7-2.209,84.86,84.86,0,0,0-21.763,2.725h0l-.169.045c-1.715.46-3.4.98-5.013,1.547l-.259.1A1.309,1.309,0,0,1,720.239,355.117Z" transform="translate(-718.925 -347.991)" fill="#005f54"/>
    </g>
    <g id="Group_555" data-name="Group 555" transform="translate(722.456 354.499)">
      <path id="Path_269" data-name="Path 269" d="M782.865,370.726a1.309,1.309,0,0,1-.585-.138c-9.187-4.578-21.1-7.1-33.55-7.1a88.4,88.4,0,0,0-15.386,1.323l-.2.035c-1.219.22-2.44.468-3.618.737q-1.207.277-2.379.584a1.312,1.312,0,1,1-.669-2.538q1.213-.32,2.461-.6c1.219-.28,2.481-.537,3.749-.764l.116-.021a91.171,91.171,0,0,1,15.923-1.378c12.847,0,25.178,2.619,34.721,7.375a1.313,1.313,0,0,1-.587,2.488Z" transform="translate(-725.504 -360.863)" fill="#005f54"/>
    </g>
    <g id="Group_556" data-name="Group 556" transform="translate(725.376 360.141)">
      <path id="Path_270" data-name="Path 270" d="M780.356,375.9a1.306,1.306,0,0,1-.52-.108c-8.87-3.832-19.552-5.858-30.891-5.858a90.185,90.185,0,0,0-11.571.737,1.274,1.274,0,0,1-.253.06q-1.56.213-3.08.474c-1.2.208-2.408.447-3.6.712a1.313,1.313,0,0,1-.566-2.565c1.234-.272,2.486-.52,3.722-.733.87-.151,1.778-.294,2.706-.425a1.278,1.278,0,0,1,.267-.065,92.57,92.57,0,0,1,12.379-.822c11.694,0,22.737,2.1,31.933,6.073a1.313,1.313,0,0,1-.522,2.518Z" transform="translate(-728.84 -367.309)" fill="#005f54"/>
    </g>
    <g id="Group_557" data-name="Group 557" transform="translate(713.894 337.592)">
      <path id="Path_271" data-name="Path 271" d="M717.037,349.744a1.313,1.313,0,0,1-.46-2.543l3.9-1.457c.442-.148.843-.28,1.246-.407.435-.139.874-.273,1.316-.405a87.4,87.4,0,0,1,24.475-3.385,93.354,93.354,0,0,1,11,.645c1.468.175,2.922.386,4.322.626a1.313,1.313,0,1,1-.443,2.588c-1.358-.233-2.767-.437-4.191-.607a90.877,90.877,0,0,0-10.687-.626,84.731,84.731,0,0,0-23.726,3.277c-.426.126-.851.257-1.272.39q-.586.186-1.164.381l-3.853,1.441A1.305,1.305,0,0,1,717.037,349.744Z" transform="translate(-715.723 -341.546)" fill="#005f54"/>
    </g>
    <g id="Group_558" data-name="Group 558" transform="translate(719.636 348.858)">
      <path id="Path_272" data-name="Path 272" d="M774.912,361.186a1.31,1.31,0,0,1-.421-.069,82.578,82.578,0,0,0-26.182-4.074,84,84,0,0,0-24.327,3.473,1.313,1.313,0,1,1-.771-2.509,86.642,86.642,0,0,1,25.1-3.589,85.25,85.25,0,0,1,27.025,4.212,1.313,1.313,0,0,1-.422,2.557Z" transform="translate(-722.283 -354.418)" fill="#005f54"/>
    </g>
    <g id="Group_559" data-name="Group 559" transform="translate(751.025 310.052)">
      <path id="Path_273" data-name="Path 273" d="M759.763,311.882l-.064,0-.736-.051a.876.876,0,0,1-.817-.931.888.888,0,0,1,.931-.816l.747.053a.875.875,0,0,1-.062,1.748Z" transform="translate(-758.145 -310.081)" fill="#adadad"/>
    </g>
    <g id="Group_560" data-name="Group 560" transform="translate(737.211 309.846)">
      <path id="Path_274" data-name="Path 274" d="M743.237,311.9a.875.875,0,0,1-.071-1.748,94.724,94.724,0,0,1,13.942-.1.876.876,0,0,1,.818.93.888.888,0,0,1-.93.817,92.45,92.45,0,0,0-13.686.1Z" transform="translate(-742.362 -309.846)" fill="#adadad"/>
    </g>
    <g id="Group_561" data-name="Group 561" transform="translate(742.017 315.489)">
      <path id="Path_275" data-name="Path 275" d="M766.76,319.307a.831.831,0,0,1-.153-.014c-1.153-.2-2.206-.36-3.128-.467a87.633,87.633,0,0,0-13.451-.764c-.433.01-.865.018-1.3.021h0a.875.875,0,0,1-.005-1.751c.421,0,.845-.011,1.267-.021a90.334,90.334,0,0,1,13.706.778c.941.109,2.028.271,3.216.481a.875.875,0,0,1-.151,1.737Z" transform="translate(-747.853 -316.293)" fill="#adadad"/>
    </g>
    <g id="Group_562" data-name="Group 562" transform="translate(763.748 317.488)">
      <path id="Path_276" data-name="Path 276" d="M783.35,323.212a.868.868,0,0,1-.308-.057,70.149,70.149,0,0,0-9.2-2.74l-.476-.108a.875.875,0,1,1,.375-1.709l.5.111a72.087,72.087,0,0,1,9.42,2.809.875.875,0,0,1-.309,1.695Z" transform="translate(-772.681 -318.577)" fill="#adadad"/>
    </g>
    <g id="Group_563" data-name="Group 563" transform="translate(719.91 315.669)">
      <path id="Path_277" data-name="Path 277" d="M723.471,321.641a.875.875,0,0,1-.259-1.711,80.782,80.782,0,0,1,14.73-3.03c.042-.007,1.676-.241,3.975-.4a.889.889,0,0,1,.934.812.877.877,0,0,1-.812.935c-2.23.154-3.858.386-3.874.389A79.14,79.14,0,0,0,723.73,321.6.9.9,0,0,1,723.471,321.641Z" transform="translate(-722.596 -316.499)" fill="#adadad"/>
    </g>
    <g id="Group_564" data-name="Group 564" transform="translate(752.826 321.505)">
      <path id="Path_278" data-name="Path 278" d="M783.248,329.987a.872.872,0,0,1-.329-.065,73.51,73.51,0,0,0-17.782-4.589c-.006,0-1.834-.22-4.136-.418a.875.875,0,0,1-.8-.947.862.862,0,0,1,.947-.8c2.333.2,4.188.424,4.207.425a75.258,75.258,0,0,1,18.218,4.7.875.875,0,0,1-.329,1.687Z" transform="translate(-760.202 -323.166)" fill="#adadad"/>
    </g>
    <g id="Group_565" data-name="Group 565" transform="translate(732.614 321.121)">
      <path id="Path_279" data-name="Path 279" d="M737.984,325.285a.875.875,0,0,1-.116-1.743,93.686,93.686,0,0,1,14.977-.779.876.876,0,1,1-.05,1.751,91.168,91.168,0,0,0-14.693.763A.9.9,0,0,1,737.984,325.285Z" transform="translate(-737.11 -322.728)" fill="#adadad"/>
    </g>
    <g id="Group_566" data-name="Group 566" transform="translate(710.67 322.512)">
      <path id="Path_280" data-name="Path 280" d="M712.915,331.907a.876.876,0,0,1-.39-1.66,67.393,67.393,0,0,1,15.923-5.414s1.692-.368,2.42-.5a.875.875,0,1,1,.314,1.721c-.711.13-2.363.49-2.365.491a65.583,65.583,0,0,0-15.513,5.271A.859.859,0,0,1,712.915,331.907Z" transform="translate(-712.039 -324.317)" fill="#adadad"/>
    </g>
    <g id="Group_567" data-name="Group 567" transform="translate(760.959 328.171)">
      <path id="Path_281" data-name="Path 281" d="M793.806,341.523a.865.865,0,0,1-.491-.151,53.487,53.487,0,0,0-13.759-6.5,68.976,68.976,0,0,0-9.338-2.352.875.875,0,0,1,.3-1.723,70.65,70.65,0,0,1,9.576,2.41,55.254,55.254,0,0,1,14.2,6.719.875.875,0,0,1-.494,1.6Z" transform="translate(-769.495 -330.782)" fill="#adadad"/>
    </g>
    <g id="Group_568" data-name="Group 568" transform="translate(738.579 326.756)">
      <path id="Path_282" data-name="Path 282" d="M761.819,331.544a.841.841,0,0,1-.1-.005,90.558,90.558,0,0,0-10.025-.622c-.016,0-2.222,0-4.5.094l-2.344.117a.875.875,0,1,1-.087-1.749l2.353-.117c2.324-.092,4.563-.1,4.586-.1a92.8,92.8,0,0,1,10.227.634.875.875,0,0,1-.1,1.744Z" transform="translate(-743.925 -329.166)" fill="#adadad"/>
    </g>
    <g id="Group_569" data-name="Group 569" transform="translate(703.964 331.891)">
      <path id="Path_283" data-name="Path 283" d="M705.254,342.943a.875.875,0,0,1-.522-1.579,50.341,50.341,0,0,1,11.659-6.27.875.875,0,0,1,.635,1.631,48.632,48.632,0,0,0-11.253,6.047A.869.869,0,0,1,705.254,342.943Z" transform="translate(-704.378 -335.033)" fill="#adadad"/>
    </g>
    <g id="Group_570" data-name="Group 570" transform="translate(771.541 336.561)">
      <path id="Path_284" data-name="Path 284" d="M799.1,351.295a.871.871,0,0,1-.584-.223,47.677,47.677,0,0,0-16.335-9,.875.875,0,0,1,.564-1.656,49.387,49.387,0,0,1,16.939,9.351.875.875,0,0,1-.584,1.527Z" transform="translate(-781.585 -340.368)" fill="#adadad"/>
    </g>
    <g id="Group_571" data-name="Group 571" transform="translate(755.251 332.983)">
      <path id="Path_285" data-name="Path 285" d="M773.9,339.8a.883.883,0,0,1-.207-.025,81.336,81.336,0,0,0-8.256-1.543q-.84-.113-1.694-.211a.875.875,0,1,1,.2-1.738c.579.066,1.155.137,1.727.214a82.814,82.814,0,0,1,8.434,1.577.875.875,0,0,1-.2,1.725Z" transform="translate(-762.973 -336.281)" fill="#adadad"/>
    </g>
    <g id="Group_572" data-name="Group 572" transform="translate(783.259 347.68)">
      <path id="Path_286" data-name="Path 286" d="M801.138,358.851a.869.869,0,0,1-.594-.232,36.162,36.162,0,0,0-5.165-3.932.876.876,0,0,1,.938-1.479,37.958,37.958,0,0,1,5.414,4.126.875.875,0,0,1-.594,1.518Z" transform="translate(-794.972 -353.071)" fill="#adadad"/>
    </g>
    <g id="Group_573" data-name="Group 573" transform="translate(764.34 340.163)">
      <path id="Path_287" data-name="Path 287" d="M790.865,352.4a.862.862,0,0,1-.424-.11q-.955-.529-1.961-1.029a77.023,77.023,0,0,0-7.2-2.99,71.856,71.856,0,0,0-7.242-2.053.875.875,0,0,1,.389-1.707,73.677,73.677,0,0,1,7.427,2.106,77.022,77.022,0,0,1,7.4,3.076q1.043.517,2.033,1.067a.875.875,0,0,1-.426,1.64Z" transform="translate(-773.358 -344.484)" fill="#adadad"/>
    </g>
    <g id="Group_574" data-name="Group 574" transform="translate(701.065 348.366)">
      <path id="Path_288" data-name="Path 288" d="M701.94,358.948a.875.875,0,0,1-.593-1.519,36.987,36.987,0,0,1,4.352-3.423.875.875,0,1,1,.981,1.449,35.245,35.245,0,0,0-4.147,3.261A.869.869,0,0,1,701.94,358.948Z" transform="translate(-701.065 -353.856)" fill="#adadad"/>
    </g>
    <g id="Group_575" data-name="Group 575" transform="translate(782.548 364.145)">
      <path id="Path_289" data-name="Path 289" d="M798.4,375.924a.873.873,0,0,1-.526-.177c-.81-.61-1.674-1.207-2.568-1.776l-.744-.476a.875.875,0,1,1,.945-1.473l.741.474c.93.591,1.833,1.215,2.679,1.853a.875.875,0,0,1-.527,1.575Z" transform="translate(-794.16 -371.883)" fill="#adadad"/>
    </g>
    <g id="Group_576" data-name="Group 576" transform="translate(703.7 358.977)">
      <path id="Path_290" data-name="Path 290" d="M704.952,375.188a.875.875,0,0,1-.527-1.575,51.394,51.394,0,0,1,13.666-7.124s.47-.166,1.384-.466a.875.875,0,1,1,.545,1.663c-.882.29-1.336.451-1.342.453a49.71,49.71,0,0,0-13.2,6.872A.871.871,0,0,1,704.952,375.188Z" transform="translate(-704.076 -365.978)" fill="#adadad"/>
    </g>
    <g id="Group_577" data-name="Group 577" transform="translate(779.6 368.14)">
      <path id="Path_291" data-name="Path 291" d="M796.135,380.817a.874.874,0,0,1-.484-.147,45.725,45.725,0,0,0-4.383-2.568.875.875,0,1,1,.8-1.556,47.218,47.218,0,0,1,4.552,2.668.875.875,0,0,1-.487,1.6Z" transform="translate(-790.793 -376.448)" fill="#adadad"/>
    </g>
    <g id="Group_578" data-name="Group 578" transform="translate(712.495 363.757)">
      <path id="Path_292" data-name="Path 292" d="M715,376.339a.875.875,0,0,1-.358-1.674c1.334-.6,3.166-1.287,3.244-1.315,1.789-.688,3.677-1.32,5.606-1.875a.875.875,0,0,1,.484,1.682c-1.881.541-3.72,1.156-5.469,1.828-.025.01-1.865.7-3.151,1.278A.89.89,0,0,1,715,376.339Z" transform="translate(-714.123 -371.44)" fill="#adadad"/>
    </g>
    <g id="Group_579" data-name="Group 579" transform="translate(705.549 369.051)">
      <path id="Path_293" data-name="Path 293" d="M707.068,380.938a.876.876,0,0,1-.419-1.647c.888-.587,1.817-1.156,2.761-1.688a.875.875,0,0,1,.86,1.525c-.93.525-1.844,1.085-2.717,1.665A.874.874,0,0,1,707.068,380.938Z" transform="translate(-706.188 -377.488)" fill="#adadad"/>
    </g>
    <g id="Group_580" data-name="Group 580" transform="translate(707.901 368.63)">
      <path id="Path_294" data-name="Path 294" d="M709.752,385.054a.875.875,0,0,1-.439-1.633,60.507,60.507,0,0,1,13.465-5.6c.026-.007,1.966-.5,3.142-.787a.875.875,0,1,1,.413,1.7c-1.169.284-3.1.775-3.1.775a58.681,58.681,0,0,0-13.048,5.427A.868.868,0,0,1,709.752,385.054Z" transform="translate(-708.875 -377.008)" fill="#adadad"/>
    </g>
    <g id="Group_581" data-name="Group 581" transform="translate(710.833 375.84)">
      <path id="Path_295" data-name="Path 295" d="M713.1,390.15a.875.875,0,0,1-.389-1.66c1.088-.537,2.223-1.052,3.376-1.532.013-.005,2.936-1.162,4.222-1.656a.875.875,0,0,1,.628,1.634c-1.281.492-4.191,1.644-4.192,1.644-1.1.459-2.2.958-3.26,1.479A.871.871,0,0,1,713.1,390.15Z" transform="translate(-712.225 -385.246)" fill="#adadad"/>
    </g>
    <g id="Group_582" data-name="Group 582" transform="translate(765.108 379.793)">
      <path id="Path_296" data-name="Path 296" d="M785.118,394.708a.882.882,0,0,1-.331-.065c-1.042-.426-2.126-.834-3.22-1.212-.017-.006-3.784-1.205-5.1-1.544l-1.572-.4a.875.875,0,0,1,.431-1.7l1.581.4c1.361.35,5.057,1.527,5.213,1.576,1.145.4,2.258.816,3.33,1.253a.875.875,0,0,1-.331,1.686Z" transform="translate(-774.235 -389.761)" fill="#adadad"/>
    </g>
    <g id="Group_583" data-name="Group 583" transform="translate(761.059 384.577)">
      <path id="Path_297" data-name="Path 297" d="M779.839,399.319a.9.9,0,0,1-.268-.042,75.1,75.1,0,0,0-9.246-2.312.876.876,0,1,1,.32-1.722,76.972,76.972,0,0,1,9.462,2.367.875.875,0,0,1-.268,1.708Z" transform="translate(-769.609 -395.228)" fill="#adadad"/>
    </g>
    <g id="Group_584" data-name="Group 584" transform="translate(738.387 383.121)">
      <path id="Path_298" data-name="Path 298" d="M761,395.854a.894.894,0,0,1-.1-.005,92.721,92.721,0,0,0-14.391-.425l-1.87.133a.875.875,0,0,1-.124-1.746l1.889-.134a93.9,93.9,0,0,1,14.686.432.875.875,0,0,1-.094,1.745Z" transform="translate(-743.706 -393.564)" fill="#adadad"/>
    </g>
    <g id="Group_585" data-name="Group 585" transform="translate(719.209 383.977)">
      <path id="Path_299" data-name="Path 299" d="M722.67,399.233a.875.875,0,0,1-.268-1.708,79.118,79.118,0,0,1,13.211-2.974.875.875,0,1,1,.241,1.734,77.432,77.432,0,0,0-12.916,2.907A.9.9,0,0,1,722.67,399.233Z" transform="translate(-721.795 -394.541)" fill="#adadad"/>
    </g>
    <g id="Group_586" data-name="Group 586" transform="translate(746.251 388.774)">
      <path id="Path_300" data-name="Path 300" d="M771.239,403.8a.844.844,0,0,1-.192-.021,86.475,86.475,0,0,0-17.494-2.01.875.875,0,0,1,.013-1.75h.014a88.2,88.2,0,0,1,17.848,2.053.875.875,0,0,1-.19,1.729Z" transform="translate(-752.691 -400.022)" fill="#adadad"/>
    </g>
    <g id="Group_587" data-name="Group 587" transform="translate(725.695 388.942)">
      <path id="Path_301" data-name="Path 301" d="M730.085,403.828a.876.876,0,0,1-.144-1.74,86.608,86.608,0,0,1,13.414-1.872.876.876,0,0,1,.108,1.748,84.858,84.858,0,0,0-13.188,1.843A.824.824,0,0,1,730.085,403.828Z" transform="translate(-729.205 -400.215)" fill="#adadad"/>
    </g>
    <g id="Group_588" data-name="Group 588" transform="translate(737.897 394.398)">
      <path id="Path_302" data-name="Path 302" d="M744.021,408.452a.875.875,0,0,1-.064-1.748,94.889,94.889,0,0,1,13.949,0,.875.875,0,0,1,.809.937.865.865,0,0,1-.937.809,93.328,93.328,0,0,0-13.692,0Z" transform="translate(-743.146 -406.448)" fill="#adadad"/>
    </g>
    <g id="Group_589" data-name="Group 589" transform="translate(701.419 349.84)">
      <path id="Path_303" data-name="Path 303" d="M702.345,364.476a.872.872,0,0,1-.875-.872V363.6a.875.875,0,0,1,.291-.652,42.606,42.606,0,0,1,9.63-6.346,18.708,18.708,0,0,1,2.059-.987.875.875,0,1,1,.694,1.607,16.963,16.963,0,0,0-1.861.886c-.025.016-.057.034-.083.047a41.007,41.007,0,0,0-9.235,6.065A.874.874,0,0,1,702.345,364.476Z" transform="translate(-701.47 -355.54)" fill="#adadad"/>
    </g>
    <g id="Group_590" data-name="Group 590" transform="translate(701.436 341.247)">
      <path id="Path_304" data-name="Path 304" d="M702.364,351.963a.875.875,0,0,1-.584-1.527,37.1,37.1,0,0,1,6.4-4.594.875.875,0,0,1,.877,1.515,35.348,35.348,0,0,0-6.109,4.383A.871.871,0,0,1,702.364,351.963Z" transform="translate(-701.489 -345.723)" fill="#adadad"/>
    </g>
    <g id="Group_591" data-name="Group 591" transform="translate(721.857 373.57)">
      <path id="Path_305" data-name="Path 305" d="M725.694,385.676a.875.875,0,0,1-.233-1.719c1.452-.4,3.429-.873,5.426-1.288a.876.876,0,1,1,.355,1.715c-1.96.406-3.9.866-5.313,1.26A.908.908,0,0,1,725.694,385.676Z" transform="translate(-724.82 -382.651)" fill="#adadad"/>
    </g>
    <g id="Group_592" data-name="Group 592" transform="translate(769.383 375.354)">
      <path id="Path_306" data-name="Path 306" d="M789.4,390.089a.87.87,0,0,1-.386-.09,62.244,62.244,0,0,0-9.278-3.6.876.876,0,1,1,.516-1.673,64.018,64.018,0,0,1,9.536,3.7.875.875,0,0,1-.389,1.66Z" transform="translate(-779.12 -384.689)" fill="#adadad"/>
    </g>
    <g id="Group_593" data-name="Group 593" transform="translate(707.731 345.461)">
      <path id="Path_307" data-name="Path 307" d="M709.558,353.652a.875.875,0,0,1-.444-1.631c1.047-.613,1.6-.912,2.575-1.393a.875.875,0,1,1,.775,1.569c-.931.46-1.461.747-2.465,1.336A.879.879,0,0,1,709.558,353.652Z" transform="translate(-708.681 -350.537)" fill="#adadad"/>
    </g>
  </g>
</svg>
