<svg xmlns="http://www.w3.org/2000/svg" width="70.873" height="52.894" viewBox="0 0 70.873 52.894">
  <path id="about-note-quote-bottom" d="M2.381,44.746l.088.594.092-.021A15.9,15.9,0,1,0,18.1,26.095a15.8,15.8,0,0,0-2.3.23,12.656,12.656,0,0,1,.9-2.4,14.883,14.883,0,0,1,1.657-2.982,17.6,17.6,0,0,1,2.123-2.6A24.018,24.018,0,0,1,22.929,16.2a15.014,15.014,0,0,1,2.523-1.636,13.409,13.409,0,0,1,2.3-1.237l1.9-.784,1.675-.7L29.617,5l-2.109.509c-.675.17-1.5.367-2.434.6a19.166,19.166,0,0,0-3.116,1.1,22.106,22.106,0,0,0-3.632,1.65,33.178,33.178,0,0,0-3.855,2.445,27.681,27.681,0,0,0-3.71,3.335A24.767,24.767,0,0,0,7.55,18.75a28.7,28.7,0,0,0-2.48,4.589,39.135,39.135,0,0,0-1.653,4.72,42.646,42.646,0,0,0-1.357,8.61,44,44,0,0,0,.1,6.172q.074.956.223,1.9Zm38.864,0,.088.594.092-.021A16.279,16.279,0,1,0,54.67,26.325a12.656,12.656,0,0,1,.9-2.4,14.884,14.884,0,0,1,1.657-2.982,17.6,17.6,0,0,1,2.123-2.6A24.018,24.018,0,0,1,61.793,16.2a15.014,15.014,0,0,1,2.523-1.636,13.41,13.41,0,0,1,2.3-1.237l1.9-.784c1.063-.435,1.671-.689,1.671-.689l-1.71-6.85-2.109.509c-.675.17-1.5.367-2.434.6a19.166,19.166,0,0,0-3.116,1.1,22.106,22.106,0,0,0-3.632,1.65,33.181,33.181,0,0,0-3.855,2.445,27.682,27.682,0,0,0-3.71,3.335,24.768,24.768,0,0,0-3.212,4.105,28.7,28.7,0,0,0-2.48,4.589,39.135,39.135,0,0,0-1.653,4.72,42.646,42.646,0,0,0-1.357,8.61,44.007,44.007,0,0,0,.1,6.172q.079.952.226,1.9Z" transform="translate(-1.998 -5)" fill="#007066"/>
</svg>
