<svg xmlns="http://www.w3.org/2000/svg" xmlns:xlink="http://www.w3.org/1999/xlink" width="227.876" height="217.111" viewBox="0 0 227.876 217.111">
  <defs>
    <clipPath id="clip-path">
      <rect id="Rectangle_4" data-name="Rectangle 4" width="177.583" height="148.171" transform="translate(0)" fill="none"/>
    </clipPath>
  </defs>
  <g id="about-note-art" transform="translate(41.429 64.872) rotate(-30)" opacity="0.5">
    <g id="Group_124" data-name="Group 124" transform="translate(-47.838 0)" clip-path="url(#clip-path)">
      <g id="Group_55" data-name="Group 55" transform="translate(169.726 95.605)">
        <path id="Path_118" data-name="Path 118" d="M503.9,530.4a.692.692,0,0,0,.681-.575c.145-.842.248-1.694.347-2.519.04-.334.081-.668.123-1,.141-1.159.285-2.351.362-3.547.09-1.164.172-2.338.246-3.511.047-1.223.075-2.425.1-3.544l.01-.534c.009-.416.018-.831.012-1.247l-.034-1.761c-.009-.327-.016-.647-.024-.967-.02-.843-.039-1.715-.1-2.578q-.115-1.755-.251-3.511c-.034-.51-.088-1.06-.174-1.775L505,501.585a.692.692,0,1,0-1.375.163l.205,1.743c.084.692.135,1.219.168,1.711.091,1.172.175,2.337.251,3.5.055.833.075,1.69.094,2.518q.011.484.024.969l.033,1.75c0,.395,0,.795-.012,1.194l-.011.54c-.023,1.109-.051,2.3-.1,3.5-.074,1.15-.155,2.317-.245,3.484s-.217,2.338-.354,3.473c-.043.332-.084.67-.124,1.007-.1.808-.2,1.643-.337,2.451a.693.693,0,0,0,.565.8A.673.673,0,0,0,503.9,530.4Z" transform="translate(-503.21 -500.974)" fill="#ddb899"/>
      </g>
      <g id="Group_56" data-name="Group 56" transform="translate(14.915 10.312)">
        <path id="Path_119" data-name="Path 119" d="M789.337,291.695a1.374,1.374,0,0,0,.752-.223,96.145,96.145,0,0,1,47.245-15.36,1.385,1.385,0,0,0-.144-2.766,98.925,98.925,0,0,0-48.607,15.8,1.385,1.385,0,0,0,.755,2.546Z" transform="translate(-787.951 -273.344)" fill="#d3d3d3"/>
      </g>
      <g id="Group_57" data-name="Group 57" transform="translate(57.095 6.028)">
        <path id="Path_120" data-name="Path 120" d="M751.433,265.731a.692.692,0,0,0,.15-1.368,102.35,102.35,0,0,0-16.913-2.32,104.849,104.849,0,0,0-17.016.534.692.692,0,1,0,.156,1.376,103.511,103.511,0,0,1,16.79-.528,101.018,101.018,0,0,1,16.683,2.289A.69.69,0,0,0,751.433,265.731Z" transform="translate(-717.039 -261.912)" fill="#c48e61"/>
      </g>
      <g id="Group_58" data-name="Group 58" transform="translate(86.347 1.567)">
        <path id="Path_121" data-name="Path 121" d="M709.861,255.022a1.385,1.385,0,0,0,.359-2.721l-2.484-.67-.036-.009c-.782-.188-1.567-.365-2.352-.54l-2.7-.589c-.685-.135-1.346-.25-2.007-.365l-.577-.1a1.384,1.384,0,1,0-.48,2.727l.582.1c.64.111,1.281.223,1.918.348l2.654.579c.765.172,1.529.343,2.291.526l2.466.664A1.384,1.384,0,0,0,709.861,255.022Z" transform="translate(-698.443 -250.006)" fill="#adadad"/>
      </g>
      <g id="Group_59" data-name="Group 59" transform="translate(118.256 13.095)">
        <path id="Path_122" data-name="Path 122" d="M622.09,290.482a.692.692,0,0,0,.4-1.255l-.193-.138c-.99-.709-2.014-1.442-3.039-2.142-1.114-.728-2.232-1.446-3.335-2.144-.944-.615-1.943-1.187-2.908-1.74l-.511-.293c-.285-.16-.562-.318-.84-.476-.86-.49-1.75-1-2.665-1.45a.692.692,0,1,0-.615,1.24c.88.436,1.751.932,2.595,1.413.28.159.56.319.841.477l.507.291c.949.544,1.93,1.106,2.849,1.7,1.1.7,2.217,1.414,3.313,2.13,1,.684,2.019,1.412,3,2.116l.193.138A.686.686,0,0,0,622.09,290.482Z" transform="translate(-608.002 -280.771)" fill="#c48e61"/>
      </g>
      <g id="Group_60" data-name="Group 60" transform="translate(119.074 19.071)">
        <path id="Path_123" data-name="Path 123" d="M633.231,301.4a.693.693,0,0,0,.373-1.277l-2.669-1.7c-.687-.423-1.388-.824-2.066-1.211l-.7-.4a.692.692,0,0,0-.691,1.2l.707.4c.668.381,1.359.776,2.018,1.182l2.661,1.693A.69.69,0,0,0,633.231,301.4Z" transform="translate(-627.128 -296.72)" fill="#c48e61"/>
      </g>
      <g id="Group_61" data-name="Group 61" transform="translate(141.213 51.537)">
        <path id="Path_124" data-name="Path 124" d="M576.212,390.56a.692.692,0,0,0,.57-1.084l-2.024-2.95c-.571-.79-1.16-1.561-1.729-2.307l-.441-.579a.692.692,0,0,0-1.1.838l.443.581c.564.739,1.146,1.5,1.7,2.264l2.014,2.936A.692.692,0,0,0,576.212,390.56Z" transform="translate(-571.345 -383.367)" fill="#ddb899"/>
      </g>
      <g id="Group_62" data-name="Group 62" transform="translate(146.61 33.751)">
        <path id="Path_125" data-name="Path 125" d="M561.28,342.307a.692.692,0,0,0,.526-1.142c-.2-.236-.4-.473-.6-.71-.519-.617-1.056-1.255-1.616-1.863L557.3,336.12a.692.692,0,1,0-1.015.942l2.292,2.47c.537.584,1.065,1.21,1.574,1.815q.3.36.607.717A.691.691,0,0,0,561.28,342.307Z" transform="translate(-556.096 -335.899)" fill="#c48e61"/>
      </g>
      <g id="Group_63" data-name="Group 63" transform="translate(153.194 87.357)">
        <path id="Path_126" data-name="Path 126" d="M549.376,485.553a.72.72,0,0,0,.109-.008.692.692,0,0,0,.576-.792c-.145-.917-.346-1.837-.524-2.649l-.076-.349c-.164-.753-.328-1.506-.5-2.257a.692.692,0,1,0-1.349.314c.173.744.336,1.491.5,2.237l.076.35c.173.794.37,1.693.508,2.569A.693.693,0,0,0,549.376,485.553Z" transform="translate(-547.591 -478.963)" fill="#c48e61"/>
      </g>
      <g id="Group_64" data-name="Group 64" transform="translate(19.383 16.495)">
        <path id="Path_127" data-name="Path 127" d="M803.339,304.953a.69.69,0,0,0,.369-.107,91.051,91.051,0,0,1,39.042-13.619.692.692,0,1,0-.151-1.377,92.441,92.441,0,0,0-39.629,13.825.692.692,0,0,0,.37,1.278Z" transform="translate(-802.646 -289.847)" fill="#ddb899"/>
      </g>
      <g id="Group_65" data-name="Group 65" transform="translate(16.609 35.501)">
        <path id="Path_128" data-name="Path 128" d="M879.316,351.657a1.383,1.383,0,0,0,.869-.307,80.339,80.339,0,0,1,12.3-8.176,1.385,1.385,0,0,0-1.314-2.438,83.115,83.115,0,0,0-12.729,8.458,1.385,1.385,0,0,0,.871,2.462Z" transform="translate(-877.93 -340.571)" fill="#d3d3d3"/>
      </g>
      <g id="Group_66" data-name="Group 66" transform="translate(77.545 26.746)">
        <path id="Path_129" data-name="Path 129" d="M737.673,320.143a.692.692,0,0,0,.148-1.368l-2.291-.5-2.338-.41c-1.408-.263-2.849-.435-4.243-.6l-.436-.052a.692.692,0,1,0-.165,1.374l.437.052c1.371.163,2.789.332,4.16.588l2.316.406,2.262.5A.674.674,0,0,0,737.673,320.143Z" transform="translate(-727.739 -317.203)" fill="#c48e61"/>
      </g>
      <g id="Group_67" data-name="Group 67" transform="translate(66.245 35.795)">
        <path id="Path_130" data-name="Path 130" d="M740.465,347.633a1.385,1.385,0,0,0,.429-2.7,71.4,71.4,0,0,0-24.3-3.556,1.385,1.385,0,1,0,.067,2.768,68.651,68.651,0,0,1,23.377,3.42A1.384,1.384,0,0,0,740.465,347.633Z" transform="translate(-715.24 -341.354)" fill="#dcdcdc"/>
      </g>
      <g id="Group_68" data-name="Group 68" transform="translate(108.19 48.501)">
        <path id="Path_131" data-name="Path 131" d="M629.743,404.948a.923.923,0,0,0,.83-1.325,71.989,71.989,0,0,0-10.451-15.735,71.16,71.16,0,0,0-6.7-6.7,72.662,72.662,0,0,0-7.461-5.76.923.923,0,1,0-1.049,1.519,71.045,71.045,0,0,1,7.291,5.627,69.394,69.394,0,0,1,6.535,6.532,70.142,70.142,0,0,1,10.176,15.32A.922.922,0,0,0,629.743,404.948Z" transform="translate(-604.512 -375.264)" fill="#1b8c7f"/>
      </g>
      <g id="Group_69" data-name="Group 69" transform="translate(135.345 83.609)">
        <path id="Path_132" data-name="Path 132" d="M589.309,491.012c.034,0,.069,0,.1,0a1.384,1.384,0,0,0,1.278-1.483l-.053-.741c-.041-.58-.082-1.16-.133-1.74l0-.041-.293-2.45c-.066-.649-.178-1.3-.285-1.935l-.095-.562c-.048-.27-.089-.519-.131-.768-.094-.57-.19-1.159-.332-1.755l-.522-2.385c-.136-.58-.286-1.132-.431-1.667-.07-.258-.141-.517-.208-.775l-.325-1.2q-.008-.029-.017-.058l-.374-1.175c-.085-.26-.164-.51-.244-.761-.169-.532-.344-1.081-.536-1.626a1.385,1.385,0,0,0-2.611.924c.178.5.338,1.008.508,1.542q.122.386.247.771l.362,1.138.314,1.161c.067.256.139.522.212.788.145.535.283,1.041.4,1.553l.522,2.389c.124.525.21,1.042.3,1.589.044.263.086.526.134.787l.094.558c.1.615.2,1.2.263,1.776l.293,2.453c.049.555.089,1.111.128,1.667l.054.752A1.384,1.384,0,0,0,589.309,491.012Z" transform="translate(-584.017 -468.961)" fill="#adadad"/>
      </g>
      <g id="Group_70" data-name="Group 70" transform="translate(122.135 55.642)">
        <path id="Path_133" data-name="Path 133" d="M620.938,405.237a.692.692,0,0,0,.567-1.089,77.9,77.9,0,0,0-7.955-9.615.692.692,0,0,0-.992.966,76.427,76.427,0,0,1,7.812,9.444A.693.693,0,0,0,620.938,405.237Z" transform="translate(-612.362 -394.323)" fill="#c48e61"/>
      </g>
      <g id="Group_71" data-name="Group 71" transform="translate(100.624 38.049)">
        <path id="Path_134" data-name="Path 134" d="M663.71,359.388a1.385,1.385,0,0,0,.859-2.471,79.594,79.594,0,0,0-15.118-9.413,1.385,1.385,0,0,0-1.19,2.5,76.8,76.8,0,0,1,14.591,9.085A1.379,1.379,0,0,0,663.71,359.388Z" transform="translate(-647.472 -347.369)" fill="#ececec"/>
      </g>
      <g id="Group_72" data-name="Group 72" transform="translate(117.274 91.632)">
        <path id="Path_135" data-name="Path 135" d="M644.109,498.44a.7.7,0,0,0,.149-.016.693.693,0,0,0,.528-.825l-.371-1.69c-.023-.1-.044-.2-.065-.3-.04-.19-.079-.38-.128-.568l-.23-.843c-.06-.215-.115-.426-.17-.636-.09-.345-.184-.7-.3-1.057L643,490.852a.692.692,0,0,0-1.318.424l.529,1.647c.1.318.185.643.275.989.057.219.114.438.176.655l.226.829c.041.159.076.328.111.5.023.106.044.212.068.317l.37,1.687A.693.693,0,0,0,644.109,498.44Z" transform="translate(-641.645 -490.371)" fill="#c48e61"/>
      </g>
      <g id="Group_73" data-name="Group 73" transform="translate(110.145 87.949)">
        <path id="Path_136" data-name="Path 136" d="M655.956,505.268a1.385,1.385,0,0,0,1.381-1.311,49.7,49.7,0,0,0-.778-11.553,50.227,50.227,0,0,0-3.514-11.045,1.385,1.385,0,0,0-2.526,1.135,47.431,47.431,0,0,1,3.319,10.421,46.9,46.9,0,0,1,.735,10.894,1.384,1.384,0,0,0,1.308,1.456Z" transform="translate(-650.397 -480.542)" fill="#d3d3d3"/>
      </g>
      <g id="Group_74" data-name="Group 74" transform="translate(129.06 53.016)">
        <path id="Path_137" data-name="Path 137" d="M593.6,406.609a1.385,1.385,0,0,0,1.225-2.029,84.814,84.814,0,0,0-11.579-16.8,1.385,1.385,0,0,0-2.072,1.837,82.03,82.03,0,0,1,11.2,16.253A1.385,1.385,0,0,0,593.6,406.609Z" transform="translate(-580.827 -387.313)" fill="#d3d3d3"/>
      </g>
      <g id="Group_75" data-name="Group 75" transform="translate(50.146 84.222)">
        <path id="Path_138" data-name="Path 138" d="M789.051,480.1a.691.691,0,0,0,.528-.245,24.186,24.186,0,0,1,6.047-5.093,24.735,24.735,0,0,1,7.486-2.791.692.692,0,0,0-.268-1.358,26.131,26.131,0,0,0-7.917,2.955,25.574,25.574,0,0,0-6.4,5.393.692.692,0,0,0,.528,1.14Z" transform="translate(-788.359 -470.598)" fill="#e9ceb9"/>
      </g>
      <g id="Group_76" data-name="Group 76" transform="translate(0 8.435)">
        <path id="Path_139" data-name="Path 139" d="M837.976,293.854a.918.918,0,0,0,.635-.253c.607-.574,1.265-1.132,1.9-1.671l1.129-.953c.6-.505,1.22-1.027,1.84-1.516l2.965-2.261c.288-.217.576-.435.87-.643l1.325-.92c.941-.646,1.793-1.231,2.663-1.809l4.1-2.527,1.383-.773,2.831-1.549c.9-.456,1.844-.919,2.76-1.367l1.549-.748c.318-.148.649-.293.981-.437l.468-.2,2.959-1.266c.773-.312,1.591-.618,2.381-.914l.595-.223c1.647-.64,3.363-1.182,5.022-1.706l1.048-.332c.751-.228,1.542-.441,2.307-.646l1.062-.286c.909-.243,1.849-.494,2.774-.688a.923.923,0,1,0-.38-1.807c-.973.2-1.938.462-2.871.712l-1.065.286c-.779.21-1.584.426-2.376.667l-1.056.334c-1.687.533-3.432,1.084-5.126,1.742l-.583.218c-.8.3-1.63.61-2.443.939l-3.455,1.483c-.347.151-.694.3-1.036.462l-1.567.757c-.923.451-1.878.917-2.812,1.393l-4.281,2.36-1.412.857-2.758,1.711c-.906.6-1.765,1.19-2.716,1.844l-1.334.926c-.316.223-.621.453-.924.683l-.4.3L842.352,288c-.655.516-1.287,1.048-1.9,1.562l-1.133.956c-.657.555-1.335,1.13-1.98,1.74a.923.923,0,0,0,.635,1.593Z" transform="translate(-837.053 -268.336)" fill="#1b8c7f"/>
      </g>
      <g id="Group_77" data-name="Group 77" transform="translate(0.669 10.203)">
        <path id="Path_140" data-name="Path 140" d="M894.99,289.134a.687.687,0,0,0,.449-.166c.687-.587,1.425-1.151,2.138-1.7l.584-.447c.247-.186.5-.378.752-.57.66-.5,1.343-1.022,2.029-1.5l.334-.232c1.767-1.225,3.593-2.492,5.457-3.61a105.684,105.684,0,0,1,12.253-6.537.692.692,0,0,0-.577-1.258,106.833,106.833,0,0,0-12.4,6.616c-1.891,1.134-3.736,2.414-5.521,3.652l-.336.232c-.711.494-1.406,1.023-2.078,1.534l-.752.57-.586.449c-.728.557-1.481,1.132-2.2,1.744a.692.692,0,0,0,.45,1.219Z" transform="translate(-894.298 -273.055)" fill="#c48e61"/>
      </g>
      <g id="Group_78" data-name="Group 78" transform="translate(56.238 20.897)">
        <path id="Path_141" data-name="Path 141" d="M713.272,316.118a.923.923,0,0,0,.479-1.713,87.656,87.656,0,0,0-57.945-11.947.923.923,0,0,0,.259,1.828,85.808,85.808,0,0,1,56.731,11.7A.919.919,0,0,0,713.272,316.118Z" transform="translate(-655.011 -301.594)" fill="#005f54"/>
      </g>
      <g id="Group_79" data-name="Group 79" transform="translate(33.875 97.781)">
        <path id="Path_142" data-name="Path 142" d="M861.179,535.705a.923.923,0,0,0,.8-1.377,34.136,34.136,0,0,1-4.148-12.908,33.478,33.478,0,0,1,1.231-13.443.923.923,0,0,0-1.764-.544,35.333,35.333,0,0,0-1.3,14.19,35.985,35.985,0,0,0,4.375,13.612A.923.923,0,0,0,861.179,535.705Z" transform="translate(-855.782 -506.782)" fill="#1b8c7f"/>
      </g>
      <g id="Group_80" data-name="Group 80" transform="translate(29.407 87.034)">
        <path id="Path_143" data-name="Path 143" d="M866.6,491.75a1.384,1.384,0,0,0,1.339-1.039,37.86,37.86,0,0,1,4.335-10.52,1.385,1.385,0,1,0-2.383-1.411,40.582,40.582,0,0,0-4.633,11.238,1.386,1.386,0,0,0,1.341,1.731Z" transform="translate(-865.211 -478.101)" fill="#dcdcdc"/>
      </g>
      <g id="Group_81" data-name="Group 81" transform="translate(88.215 86.16)">
        <path id="Path_144" data-name="Path 144" d="M707.715,499.7a.923.923,0,0,0,.922-.905,30.343,30.343,0,0,0-2.509-12.506,29.486,29.486,0,0,0-7.318-10.28.923.923,0,0,0-1.236,1.371,27.65,27.65,0,0,1,6.859,9.641,28.475,28.475,0,0,1,2.358,11.737.923.923,0,0,0,.9.941Z" transform="translate(-697.27 -475.769)" fill="#7bbbb1"/>
      </g>
      <g id="Group_82" data-name="Group 82" transform="translate(96.78 87.09)">
        <path id="Path_145" data-name="Path 145" d="M694.86,486.13a.923.923,0,0,0,.839-1.307,35.654,35.654,0,0,0-3.63-6.193.923.923,0,1,0-1.491,1.088,33.781,33.781,0,0,1,3.442,5.872A.923.923,0,0,0,694.86,486.13Z" transform="translate(-690.4 -478.251)" fill="#005f54"/>
      </g>
      <g id="Group_83" data-name="Group 83" transform="translate(85.712 77.253)">
        <path id="Path_146" data-name="Path 146" d="M718.7,459a.923.923,0,0,0,.644-1.585,35.4,35.4,0,0,0-7.135-5.3.923.923,0,1,0-.916,1.6,33.556,33.556,0,0,1,6.764,5.016A.921.921,0,0,0,718.7,459Z" transform="translate(-710.829 -451.998)" fill="#7bbbb1"/>
      </g>
      <g id="Group_84" data-name="Group 84" transform="translate(43.789 77.983)">
        <path id="Path_147" data-name="Path 147" d="M826.121,460.508a.922.922,0,0,0,.648-.266,33.779,33.779,0,0,1,5.858-4.59.923.923,0,1,0-.976-1.568,35.626,35.626,0,0,0-6.178,4.843.923.923,0,0,0,.647,1.581Z" transform="translate(-825.198 -453.946)" fill="#005f54"/>
      </g>
      <g id="Group_85" data-name="Group 85" transform="translate(68.378 41.518)">
        <path id="Path_148" data-name="Path 148" d="M743.79,361.446a.923.923,0,0,0,.267-1.806,69.969,69.969,0,0,0-9.837-2.259,72.87,72.87,0,0,0-10.063-.753h0a.923.923,0,0,0,0,1.846,71.032,71.032,0,0,1,9.8.733,68.222,68.222,0,0,1,9.571,2.2A.924.924,0,0,0,743.79,361.446Z" transform="translate(-723.229 -356.628)" fill="#7bbbb1"/>
      </g>
      <g id="Group_86" data-name="Group 86" transform="translate(65.919 47.289)">
        <path id="Path_149" data-name="Path 149" d="M744.363,376.539a.231.231,0,0,0,.083-.446,61.374,61.374,0,0,0-25.119-3.976.231.231,0,0,0-.218.243.237.237,0,0,0,.243.218,60.893,60.893,0,0,1,24.929,3.946A.237.237,0,0,0,744.363,376.539Z" transform="translate(-719.109 -372.03)" fill="#adadad"/>
      </g>
      <g id="Group_87" data-name="Group 87" transform="translate(89.027 55.998)">
        <path id="Path_150" data-name="Path 150" d="M705.518,401.6a.231.231,0,0,0,.129-.423,57.286,57.286,0,0,0-11.393-5.891.231.231,0,0,0-.165.431,56.865,56.865,0,0,1,11.3,5.843A.228.228,0,0,0,705.518,401.6Z" transform="translate(-693.941 -395.273)" fill="#adadad"/>
      </g>
      <g id="Group_88" data-name="Group 88" transform="translate(75.141 16.187)">
        <path id="Path_151" data-name="Path 151" d="M682.885,306.581a.692.692,0,0,0,.409-1.251c-.718-.524-1.469-1.006-2.2-1.472l-.386-.248-.711-.454c-.618-.4-1.256-.8-1.9-1.19l-2.675-1.533c-.151-.084-.293-.164-.435-.245-.31-.176-.619-.352-.936-.514l-1.99-1.013c-.7-.356-1.428-.723-2.155-1.069l-2.831-1.262c-.16-.069-.312-.136-.464-.2-.324-.144-.649-.286-.979-.417l-2.169-.842c-.71-.274-1.444-.557-2.178-.817a92.529,92.529,0,0,0-24.271-5.025.692.692,0,1,0-.092,1.382,91.159,91.159,0,0,1,23.9,4.949c.713.252,1.438.532,2.139.8l2.161.839c.31.123.618.259.925.395q.234.1.468.2l2.807,1.251c.7.331,1.415.695,2.109,1.046l1.983,1.01c.3.153.591.32.884.486.145.083.292.166.438.247l2.657,1.522c.618.368,1.247.77,1.855,1.16q.355.228.712.455l.384.246c.709.455,1.443.926,2.127,1.425A.688.688,0,0,0,682.885,306.581Z" transform="translate(-636.277 -289.024)" fill="#ddb899"/>
      </g>
      <g id="Group_89" data-name="Group 89" transform="translate(124.743 41.814)">
        <path id="Path_152" data-name="Path 152" d="M595.792,381.13a.693.693,0,0,0,.6-1.043,87.375,87.375,0,0,0-18.932-22.506.692.692,0,0,0-.894,1.057,86.016,86.016,0,0,1,18.632,22.151A.692.692,0,0,0,595.792,381.13Z" transform="translate(-576.318 -357.418)" fill="#ddb899"/>
      </g>
      <g id="Group_90" data-name="Group 90" transform="translate(0.577 25.18)">
        <path id="Path_153" data-name="Path 153" d="M846.82,343.22a.692.692,0,0,0,.55-.271c1.1-1.441,2.341-2.837,3.536-4.186l.6-.679.685-.713c1.223-1.277,2.488-2.6,3.815-3.8,1.461-1.405,3.037-2.718,4.561-3.989l.281-.235.572-.442c1.47-1.138,2.99-2.315,4.553-3.354,1.579-1.12,3.249-2.137,4.865-3.122l.55-.335.557-.31c1.645-.919,3.347-1.868,5.07-2.678l.143-.07c.9-.439,1.822-.893,2.748-1.279l.736-.317c.726-.314,1.478-.639,2.22-.938l3-1.126c.518-.2,1.043-.371,1.488-.513l1.532-.493a.692.692,0,0,0-.425-1.318l-1.531.493c-.463.148-1.011.328-1.557.538l-3.008,1.13c-.774.311-1.533.64-2.267.957l-.727.314c-.958.4-1.9.862-2.818,1.31l-.133.065c-1.756.825-3.479,1.787-5.145,2.716l-.579.323-.573.349c-1.636,1-3.328,2.027-4.929,3.162-1.588,1.055-3.128,2.247-4.617,3.4l-.893.708c-1.543,1.286-3.138,2.615-4.619,4.04-1.349,1.217-2.631,2.556-3.871,3.851l-.7.732-.62.7c-1.212,1.368-2.465,2.781-3.6,4.262a.692.692,0,0,0,.549,1.114Z" transform="translate(-846.128 -313.024)" fill="#ddb899"/>
      </g>
      <g id="Group_91" data-name="Group 91" transform="translate(12.687 43.216)">
        <path id="Path_154" data-name="Path 154" d="M886.086,374.956a.69.69,0,0,0,.5-.208q.409-.418.813-.84c.838-.869,1.7-1.768,2.609-2.58l.495-.461c.431-.4.861-.8,1.3-1.2l2.788-2.345,2.891-2.2,2.992-2.056c.208-.138.429-.274.649-.409l.364-.225a.692.692,0,0,0-.737-1.172c-.116.073-.234.146-.352.218-.234.144-.468.288-.7.44l-3.03,2.083-2.945,2.24-2.83,2.381c-.461.411-.9.82-1.336,1.228l-.483.45c-.933.838-1.817,1.755-2.672,2.641q-.4.418-.807.833a.692.692,0,0,0,.5,1.177Z" transform="translate(-885.393 -361.159)" fill="#ddb899"/>
      </g>
      <g id="Group_92" data-name="Group 92" transform="translate(95.261 52.939)">
        <path id="Path_155" data-name="Path 155" d="M678.25,400.205a.692.692,0,0,0,.478-1.193c-.217-.206-.431-.417-.644-.626-.388-.381-.789-.775-1.208-1.148l-1.914-1.681-.386-.312c-1.19-.958-2.42-1.948-3.714-2.834l-1.024-.731c-.247-.166-.482-.316-.717-.465l-1.452-.929c-.318-.208-.706-.456-1.128-.686l-2.2-1.254-2.3-1.163a.692.692,0,0,0-.624,1.235l2.269,1.147,2.177,1.244c.391.212.75.442,1.05.639l1.463.936c.224.143.45.286.671.434l1.018.728c1.262.863,2.47,1.836,3.639,2.777l.364.293,1.887,1.659c.39.348.779.73,1.155,1.1.219.215.438.43.659.641A.689.689,0,0,0,678.25,400.205Z" transform="translate(-661.04 -387.107)" fill="#ddb899"/>
      </g>
      <g id="Group_93" data-name="Group 93" transform="translate(81.4 58.656)">
        <path id="Path_156" data-name="Path 156" d="M701.049,418.9a.692.692,0,0,0,.507-1.163l-1.259-1.356-1.352-1.317c-.082-.078-.157-.153-.233-.228-.151-.15-.3-.3-.465-.441l-1.437-1.261c-.221-.2-.45-.4-.7-.591l-1.439-1.141c-.239-.2-.5-.386-.759-.566l-.774-.55c-.666-.505-1.389-.964-2.089-1.407-.345-.218-.69-.437-1.03-.663l-.039-.024-1.613-.921c-.1-.057-.2-.112-.292-.168-.178-.1-.357-.208-.54-.3l-.837-.42c-.214-.1-.418-.209-.622-.315-.345-.178-.7-.363-1.074-.525l-1.687-.749c-.27-.129-.559-.238-.838-.344l-1.775-.685c-.2-.075-.394-.137-.589-.2-.106-.034-.211-.067-.316-.1-.255-.082-.5-.162-.74-.243-.346-.115-.691-.23-1.038-.337l-1.805-.494a.692.692,0,0,0-.365,1.336l1.785.488c.317.1.651.209.986.321.248.083.5.165.745.245.1.034.215.071.328.107.173.055.345.11.515.174l1.783.688c.264.1.513.193.746.3l1.711.759c.334.145.655.311.994.487.214.111.429.221.645.327l.821.411c.154.08.312.173.471.265.1.06.2.119.308.177l1.588.907c.342.226.689.446,1.035.665.706.447,1.374.869,2.01,1.353l.776.552c.265.185.494.345.7.52l1.47,1.166c.222.166.418.341.626.527l1.451,1.273c.14.121.269.25.4.378.082.082.165.164.249.244l1.322,1.286,1.235,1.331A.689.689,0,0,0,701.049,418.9Z" transform="translate(-675.333 -402.367)" fill="#ddb899"/>
      </g>
      <g id="Group_94" data-name="Group 94" transform="translate(19.435 84.979)">
        <path id="Path_157" data-name="Path 157" d="M894.991,488.633a.692.692,0,0,0,.682-.579l.107-.651c.047-.36.156-.851.282-1.42l.3-1.389c.053-.21.119-.448.186-.693q.073-.26.145-.53c.045-.16.09-.332.136-.506.07-.266.141-.538.225-.809l.444-1.353c.178-.61.408-1.2.629-1.763.117-.3.231-.591.337-.881.117-.335.262-.655.4-.965l1.1-2.366.243-.469c.145-.278.244-.469.29-.547a.692.692,0,0,0-1.014-.928c-.122.1-.152.159-.505.838l-.579,1.118c-.007.012-.012.025-.018.038l-.776,1.748c-.152.337-.309.685-.444,1.069-.1.272-.21.556-.322.843-.233.6-.473,1.211-.662,1.857l-.441,1.343c-.093.3-.169.592-.244.877-.044.167-.087.332-.133.493-.049.184-.1.356-.143.525-.071.256-.14.5-.2.748l-.3,1.4c-.134.6-.249,1.121-.3,1.519l-.1.626a.692.692,0,0,0,.683.805Z" transform="translate(-894.298 -472.618)" fill="#ddb899"/>
      </g>
      <g id="Group_95" data-name="Group 95" transform="translate(147.321 85.026)">
        <path id="Path_158" data-name="Path 158" d="M564.114,486.956l.028,0a.231.231,0,0,0,.2-.257,83.39,83.39,0,0,0-2.862-13.791.231.231,0,0,0-.443.132,82.879,82.879,0,0,1,2.846,13.714A.231.231,0,0,0,564.114,486.956Z" transform="translate(-561.029 -472.742)" fill="#adadad"/>
      </g>
      <g id="Group_96" data-name="Group 96" transform="translate(140.307 77.132)">
        <path id="Path_159" data-name="Path 159" d="M576.471,487.222a.231.231,0,0,0,.231-.228l.082-3.342c.006-.475-.007-.989-.021-1.533-.006-.253-.013-.514-.018-.782-.013-1.658-.159-3.515-.349-5.77l-.389-3.235c-.13-.861-.28-1.736-.425-2.583l-.126-.737a81.471,81.471,0,0,0-3.221-11.963q-.239-.634-.449-1.2c-.389-1.047-.724-1.951-1.029-2.617l-.608-1.416a.231.231,0,1,0-.424.182l.61,1.42c.3.655.632,1.552,1.018,2.591.141.38.29.781.448,1.2a80.925,80.925,0,0,1,3.2,11.884l.125.735c.144.845.294,1.718.422,2.567l.387,3.22c.189,2.237.334,4.085.347,5.73.005.272.012.534.018.788.014.54.027,1.049.021,1.513l-.069,2.857c-.009.315-.013.485-.013.489A.231.231,0,0,0,576.471,487.222Z" transform="translate(-569.708 -451.675)" fill="#adadad"/>
      </g>
      <g id="Group_97" data-name="Group 97" transform="translate(54.406 73.362)">
        <path id="Path_160" data-name="Path 160" d="M744.925,445.273a.229.229,0,0,0,.1-.021,35.4,35.4,0,0,1,13.34-3.153,34.5,34.5,0,0,1,13.434,2.173.231.231,0,1,0,.162-.433,34.84,34.84,0,0,0-13.613-2.2,35.863,35.863,0,0,0-13.515,3.194.231.231,0,0,0,.1.441Z" transform="translate(-744.694 -441.612)" fill="#d3d3d3"/>
      </g>
      <g id="Group_98" data-name="Group 98" transform="translate(59.826 76.852)">
        <path id="Path_161" data-name="Path 161" d="M768.5,454.4a.923.923,0,0,0,.315-1.791,29.647,29.647,0,0,0-4.659-1.2l-.585-.1a5.156,5.156,0,0,0-.675-.1c-.342-.037-.718-.083-1.092-.137-.028,0-.055-.007-.083-.008-.26-.014-.521-.034-.781-.054-.524-.04-1.064-.085-1.625-.076a28.858,28.858,0,0,0-4.826.255,31.411,31.411,0,0,0-4.761.98.923.923,0,1,0,.53,1.768,29.726,29.726,0,0,1,4.491-.92,27.185,27.185,0,0,1,4.557-.237c.509-.006.985.031,1.489.07.262.021.524.04.786.055q.577.083,1.157.143a3.944,3.944,0,0,1,.493.076l.6.105a27.8,27.8,0,0,1,4.357,1.117A.92.92,0,0,0,768.5,454.4Z" transform="translate(-749.067 -450.926)" fill="#7bbbb1"/>
      </g>
      <g id="Group_99" data-name="Group 99" transform="translate(36.204 66.635)">
        <path id="Path_162" data-name="Path 162" d="M787.425,439.83a.23.23,0,0,0,.181-.087,41.254,41.254,0,0,1,12.89-10.795,41.846,41.846,0,0,1,16.176-4.828.232.232,0,0,0,.211-.25.234.234,0,0,0-.25-.211,42.308,42.308,0,0,0-16.356,4.882,41.713,41.713,0,0,0-13.034,10.914.231.231,0,0,0,.181.374Z" transform="translate(-787.194 -423.659)" fill="#d3d3d3"/>
      </g>
      <g id="Group_100" data-name="Group 100" transform="translate(87.277 70.615)">
        <path id="Path_163" data-name="Path 163" d="M702.478,448.137a.231.231,0,0,0,.187-.366,43.833,43.833,0,0,0-7.15-7.714,44.63,44.63,0,0,0-8.9-5.75.231.231,0,1,0-.2.414,44.158,44.158,0,0,1,8.809,5.689,43.381,43.381,0,0,1,7.072,7.632A.23.23,0,0,0,702.478,448.137Z" transform="translate(-686.28 -434.283)" fill="#adadad"/>
      </g>
      <g id="Group_101" data-name="Group 101" transform="translate(161.57 53.847)">
        <path id="Path_164" data-name="Path 164" d="M505.285,456.538a.23.23,0,0,0,.229-.206A110.469,110.469,0,0,0,506.037,439a109.077,109.077,0,0,0-2.277-17.157,107.45,107.45,0,0,0-12.555-32.195.231.231,0,1,0-.4.233,106.982,106.982,0,0,1,12.5,32.057,108.559,108.559,0,0,1,2.267,17.084,110.036,110.036,0,0,1-.521,17.26.231.231,0,0,0,.2.255Z" transform="translate(-490.775 -389.532)" fill="#d3d3d3"/>
      </g>
      <g id="Group_102" data-name="Group 102" transform="translate(135.512 30.805)">
        <path id="Path_165" data-name="Path 165" d="M552.731,368.42a.22.22,0,0,0,.085-.017.231.231,0,0,0,.129-.3,102,102,0,0,0-28.626-40.01.231.231,0,0,0-.3.351,101.525,101.525,0,0,1,28.5,39.831A.231.231,0,0,0,552.731,368.42Z" transform="translate(-523.938 -328.038)" fill="#adadad"/>
      </g>
      <g id="Group_103" data-name="Group 103" transform="translate(154.28 62.346)">
        <path id="Path_166" data-name="Path 166" d="M526.7,466.675a1.385,1.385,0,0,0,1.38-1.29,98.858,98.858,0,0,0-10.933-52.425,1.384,1.384,0,1,0-2.456,1.278A96.1,96.1,0,0,1,525.318,465.2a1.384,1.384,0,0,0,1.286,1.476C526.636,466.674,526.669,466.675,526.7,466.675Z" transform="translate(-514.535 -412.214)" fill="#adadad"/>
      </g>
      <g id="Group_104" data-name="Group 104" transform="translate(137.959 39.695)">
        <path id="Path_167" data-name="Path 167" d="M557.263,382.636a1.386,1.386,0,0,0,1.264-1.948,98.077,98.077,0,0,0-19.2-28.506,1.384,1.384,0,1,0-1.988,1.927A95.32,95.32,0,0,1,556,381.814,1.386,1.386,0,0,0,557.263,382.636Z" transform="translate(-536.945 -351.761)" fill="#adadad"/>
      </g>
      <g id="Group_105" data-name="Group 105" transform="translate(43.352 26.893)">
        <path id="Path_168" data-name="Path 168" d="M810.877,323.09a1.386,1.386,0,0,0,.419-.066l1.374-.437,1.39-.383c.274-.072.563-.151.851-.229.665-.181,1.293-.351,1.933-.5l2.855-.625c.617-.136,1.237-.239,1.895-.348.314-.052.628-.1.941-.16a1.384,1.384,0,1,0-.484-2.726c-.3.054-.606.1-.91.154-.664.11-1.35.224-2.035.375l-2.868.628c-.706.161-1.391.348-2.052.527-.282.077-.564.153-.846.227l-1.43.394-.052.015-1.4.445a1.385,1.385,0,0,0,.419,2.7Z" transform="translate(-809.492 -317.597)" fill="#dcdcdc"/>
      </g>
      <g id="Group_106" data-name="Group 106" transform="translate(23.201 41.051)">
        <path id="Path_169" data-name="Path 169" d="M847.7,368.564a1.381,1.381,0,0,0,.855-.3,77.1,77.1,0,0,1,8.36-5.748,75.935,75.935,0,0,1,9.08-4.47,1.384,1.384,0,1,0-1.048-2.563,78.767,78.767,0,0,0-9.427,4.642,79.722,79.722,0,0,0-8.677,5.963,1.384,1.384,0,0,0,.857,2.473Z" transform="translate(-846.312 -355.383)" fill="#dcdcdc"/>
      </g>
      <g id="Group_107" data-name="Group 107" transform="translate(51.966 36.828)">
        <path id="Path_170" data-name="Path 170" d="M807.375,347.694a1.411,1.411,0,0,0,.3-.032l2.05-.447c.414-.088.841-.159,1.293-.234.24-.039.48-.079.72-.122a1.384,1.384,0,0,0-.485-2.726c-.229.04-.458.079-.687.117-.463.076-.942.156-1.424.259l-2.056.448a1.385,1.385,0,0,0,.293,2.738Z" transform="translate(-805.992 -344.112)" fill="#adadad"/>
      </g>
      <g id="Group_108" data-name="Group 108" transform="translate(14.589 44.08)">
        <path id="Path_171" data-name="Path 171" d="M819.335,390.636a.231.231,0,0,0,.187-.1c.2-.282.405-.566.606-.85.371-.526.756-1.07,1.153-1.587l1.87-2.359,1.981-2.257c.439-.483.908-.962,1.361-1.425.241-.247.482-.493.72-.742a66.091,66.091,0,0,1,31.062-17.4.231.231,0,0,0-.109-.449A66.56,66.56,0,0,0,826.884,381c-.241.251-.482.5-.721.743-.456.466-.928.948-1.375,1.441l-1.991,2.268-1.879,2.371c-.405.527-.793,1.075-1.167,1.6-.2.283-.4.566-.6.846a.231.231,0,0,0,.187.366Z" transform="translate(-819.104 -363.466)" fill="#adadad"/>
      </g>
      <g id="Group_109" data-name="Group 109" transform="translate(93.04 46.36)">
        <path id="Path_172" data-name="Path 172" d="M692.052,377.057a.692.692,0,0,0,.38-1.272,67.142,67.142,0,0,0-11.922-6.186.692.692,0,0,0-.511,1.287,65.747,65.747,0,0,1,11.675,6.059A.691.691,0,0,0,692.052,377.057Z" transform="translate(-679.562 -369.55)" fill="#c48e61"/>
      </g>
      <g id="Group_110" data-name="Group 110" transform="translate(30.351 50.605)">
        <path id="Path_173" data-name="Path 173" d="M837.789,391.937a1.379,1.379,0,0,0,.838-.283l1.624-1.236,1.684-1.155c.1-.067.206-.141.312-.215.167-.115.334-.232.506-.341l.868-.535c.209-.126.426-.261.644-.4.374-.233.727-.452,1.087-.656.265-.144.549-.3.834-.459.933-.516,1.815-1,2.734-1.43l.053-.026c.961-.5,1.948-.918,2.992-1.366l.706-.3a1.384,1.384,0,1,0-1.1-2.541l-.7.3c-1.034.444-2.1.9-3.144,1.437-1,.464-1.959.994-2.886,1.508q-.419.232-.839.462c-.43.243-.823.488-1.2.725-.207.129-.414.258-.624.384l-.894.551c-.219.139-.417.275-.614.412-.1.068-.195.135-.292.2l-1.722,1.18-.056.04-1.652,1.257a1.384,1.384,0,0,0,.84,2.486Z" transform="translate(-836.404 -380.88)" fill="#adadad"/>
      </g>
      <g id="Group_111" data-name="Group 111" transform="translate(59.373 51.633)">
        <path id="Path_174" data-name="Path 174" d="M753.1,384.934a.227.227,0,0,0,.039,0,57.072,57.072,0,0,1,9.547-.848,58.219,58.219,0,0,1,9.3.749.235.235,0,0,0,.265-.191.231.231,0,0,0-.191-.265,59.311,59.311,0,0,0-9.5-.754,56.4,56.4,0,0,0-9.5.854.231.231,0,0,0,.039.459Z" transform="translate(-752.868 -383.622)" fill="#adadad"/>
      </g>
      <g id="Group_112" data-name="Group 112" transform="translate(26.683 60.903)">
        <path id="Path_175" data-name="Path 175" d="M832.636,427.449a1.383,1.383,0,0,0,1.127-.579,49.449,49.449,0,0,1,8.679-9.186l.041-.035c.237-.213.508-.416.8-.631.136-.1.272-.2.407-.309.15-.111.322-.243.492-.376.258-.2.5-.387.747-.558.288-.191.6-.4.9-.617.584-.405,1.135-.788,1.71-1.119.216-.13.406-.248.6-.367.264-.164.528-.329.8-.486l1.4-.765c.086-.047.179-.1.272-.151.13-.073.26-.147.393-.214l2.186-1.065a1.385,1.385,0,1,0-1.216-2.488l-2.192,1.068c-.188.094-.359.189-.53.285l-.239.133-1.434.786c-.323.188-.611.367-.9.546-.179.112-.358.224-.539.333-.649.374-1.275.808-1.879,1.227-.292.2-.583.4-.879.6-.329.227-.613.447-.888.66-.156.121-.313.242-.472.36s-.27.206-.394.3c-.316.237-.642.481-.963.767a52.193,52.193,0,0,0-9.143,9.689,1.384,1.384,0,0,0,1.125,2.19Z" transform="translate(-831.252 -408.363)" fill="#ececec"/>
      </g>
      <g id="Group_113" data-name="Group 113" transform="translate(31.995 54.674)">
        <path id="Path_176" data-name="Path 176" d="M826.618,402.917a.231.231,0,0,0,.151-.056,56.731,56.731,0,0,1,18.675-10.672.231.231,0,1,0-.148-.437,57.182,57.182,0,0,0-18.827,10.76.231.231,0,0,0,.151.405Z" transform="translate(-826.387 -391.739)" fill="#adadad"/>
      </g>
      <g id="Group_114" data-name="Group 114" transform="translate(52.604 57.75)">
        <path id="Path_177" data-name="Path 177" d="M793.083,402.8a.238.238,0,0,0,.074-.012,51.994,51.994,0,0,1,10.66-2.383.231.231,0,0,0,.2-.256.235.235,0,0,0-.256-.2,52.475,52.475,0,0,0-10.755,2.4.231.231,0,0,0,.074.45Z" transform="translate(-792.852 -399.946)" fill="#adadad"/>
      </g>
      <g id="Group_115" data-name="Group 115" transform="translate(110.029 71.463)">
        <path id="Path_178" data-name="Path 178" d="M652.023,452.362a.231.231,0,0,0,.212-.322,53.138,53.138,0,0,0-4.281-8.129,57.3,57.3,0,0,0-5.575-7.289.231.231,0,1,0-.343.309,56.8,56.8,0,0,1,5.531,7.232,52.684,52.684,0,0,1,4.244,8.06A.231.231,0,0,0,652.023,452.362Z" transform="translate(-641.977 -436.546)" fill="#adadad"/>
      </g>
      <g id="Group_116" data-name="Group 116" transform="translate(123.478 72.931)">
        <path id="Path_179" data-name="Path 179" d="M600.952,512.353a1.384,1.384,0,0,0,1.175-.649c.067-.108.136-.215.205-.322.144-.223.287-.447.422-.676l.572-1c.133-.238.264-.465.394-.692.246-.43.5-.873.743-1.328.188-.377.363-.72.538-1.063.512-1,1.04-2.043,1.493-3.125a64.165,64.165,0,0,0,3.185-8.708l.609-2.218.011-.044c.117-.488.225-.978.333-1.468q.084-.385.171-.77l.084-.382c.057-.255.114-.511.165-.767l.2-1.156c.043-.264.087-.517.132-.77.087-.5.177-1.009.245-1.532a72.858,72.858,0,0,0,.66-9.236,66.865,66.865,0,0,0-9.99-35.327,1.385,1.385,0,0,0-2.355,1.457,64.076,64.076,0,0,1,9.576,33.853,70.16,70.16,0,0,1-.635,8.884c-.062.474-.143.935-.228,1.423-.046.263-.093.527-.136.791l-.191,1.11c-.04.2-.092.432-.144.665l-.086.389c-.056.25-.114.511-.172.772-.1.467-.206.933-.317,1.4l-.6,2.172a61.331,61.331,0,0,1-3.047,8.331l-.019.044c-.415.993-.9,1.947-1.414,2.957-.178.351-.357.7-.532,1.054-.207.389-.444.8-.682,1.215-.134.235-.269.47-.4.707l-.559.979c-.107.183-.23.372-.353.563-.075.117-.15.233-.224.351a1.385,1.385,0,0,0,1.172,2.12Z" transform="translate(-599.569 -440.464)" fill="#d3d3d3"/>
      </g>
      <g id="Group_117" data-name="Group 117" transform="translate(59.396 89.802)">
        <path id="Path_180" data-name="Path 180" d="M769.607,489.813a.692.692,0,0,0,.359-1.285c-.127-.076-.249-.16-.371-.244l-.145-.1a.622.622,0,0,0-.079-.046c-.173-.085-.345-.18-.51-.281-.048-.027-.073-.044-.1-.061a2.292,2.292,0,0,0-.228-.133l-.3-.139c-.083-.038-.162-.082-.241-.126-.1-.057-.209-.114-.316-.164-.02-.009-.04-.018-.061-.025-.143-.05-.29-.119-.447-.192a5.1,5.1,0,0,0-.738-.3c-.042-.014-.1-.041-.158-.067a2.465,2.465,0,0,0-.456-.165c-.142-.041-.314-.1-.481-.16a2.011,2.011,0,0,0-.4-.12l-.281-.073c-.045-.012-.1-.029-.15-.045a2.975,2.975,0,0,0-.512-.125c-.173-.033-.349-.075-.522-.124-.024-.007-.049-.012-.075-.017-.081-.013-.163-.025-.245-.036-.113-.016-.227-.031-.339-.055l-.308-.063a.7.7,0,0,0-.079-.011l-.311-.027c-.086-.006-.167-.02-.247-.033-.129-.02-.257-.04-.388-.048-.19,0-.348-.018-.506-.03a6.6,6.6,0,0,0-.8-.031,19.279,19.279,0,0,0-10.044,2.566.692.692,0,0,0,.7,1.2,17.909,17.909,0,0,1,9.334-2.379.428.428,0,0,0,.048,0,5.3,5.3,0,0,1,.65.027c.187.015.374.03.561.033.056,0,.142.019.228.032.116.018.232.036.35.045l.266.023.265.054c.138.029.281.049.424.07l.178.026c.206.057.414.105.621.145l.05.007a1.751,1.751,0,0,1,.285.075c.069.022.139.043.209.063l.307.079.037.009a.938.938,0,0,1,.146.038l.042.018c.209.078.424.149.641.211a1.371,1.371,0,0,1,.237.089,3.259,3.259,0,0,0,.316.126,4.032,4.032,0,0,1,.559.228c.169.079.343.16.535.23.07.034.139.072.207.11.108.059.217.118.328.169l.285.132c.017.008.044.028.073.047.051.032.1.064.154.094.166.1.355.205.548.3l.1.069c.143.1.288.2.436.286A.688.688,0,0,0,769.607,489.813Z" transform="translate(-749.785 -485.489)" fill="#adadad"/>
      </g>
      <g id="Group_118" data-name="Group 118" transform="translate(80.05 10.94)">
        <path id="Path_181" data-name="Path 181" d="M684.53,289.393a1.385,1.385,0,0,0,.679-2.592,98.653,98.653,0,0,0-35.788-11.77,1.385,1.385,0,1,0-.341,2.748,95.844,95.844,0,0,1,34.774,11.437A1.383,1.383,0,0,0,684.53,289.393Z" transform="translate(-647.865 -275.021)" fill="#d3d3d3"/>
      </g>
      <g id="Group_119" data-name="Group 119" transform="translate(104.645 95.119)">
        <path id="Path_182" data-name="Path 182" d="M669.98,529.655a1.385,1.385,0,0,0,1.282-.861,41.094,41.094,0,0,0,1-28.157,1.385,1.385,0,0,0-2.634.854,38.316,38.316,0,0,1-.93,26.256,1.385,1.385,0,0,0,1.281,1.908Z" transform="translate(-668.596 -499.679)" fill="#adadad"/>
      </g>
      <g id="Group_120" data-name="Group 120" transform="translate(119.043 73.579)">
        <path id="Path_183" data-name="Path 183" d="M629.125,456.951a1.386,1.386,0,0,0,1.293-1.877,61.51,61.51,0,0,0-6.265-12.264,1.384,1.384,0,0,0-2.3,1.537,58.748,58.748,0,0,1,5.98,11.712A1.385,1.385,0,0,0,629.125,456.951Z" transform="translate(-621.618 -442.193)" fill="#adadad"/>
      </g>
      <g id="Group_121" data-name="Group 121" transform="translate(23.55 87.387)">
        <path id="Path_184" data-name="Path 184" d="M883.062,503.366h.033a.923.923,0,0,0,.89-.955A44.561,44.561,0,0,1,886.5,485.6l.517-1.333c.037-.094.073-.192.109-.289.046-.124.092-.248.143-.371l.866-1.951.649-1.274a.923.923,0,1,0-1.644-.839l-.661,1.3c-.009.016-.016.032-.023.048l-.88,1.986c-.071.17-.124.315-.178.459-.033.088-.066.175-.1.263l-.526,1.357c-.006.014-.01.028-.015.042a46.43,46.43,0,0,0-2.616,17.475A.923.923,0,0,0,883.062,503.366Z" transform="translate(-882.106 -479.043)" fill="#badcd6"/>
      </g>
      <g id="Group_122" data-name="Group 122" transform="translate(72.634 83.712)">
        <path id="Path_185" data-name="Path 185" d="M732.288,489.374a1.385,1.385,0,0,0,1.356-1.672,10.439,10.439,0,0,0-.317-1.109c-.064-.194-.128-.388-.182-.586-.009-.035-.021-.07-.033-.1-.048-.133-.1-.266-.152-.4s-.1-.247-.142-.373c-.028-.077-.043-.121-.058-.166-.033-.1-.067-.2-.106-.292-.008-.021-.017-.04-.026-.06l-.16-.35a23.594,23.594,0,0,0-1.585-3.125c-.01-.019-.022-.037-.034-.055q-.2-.315-.386-.642c-.024-.043-.051-.084-.079-.124l-.091-.127c-.12-.167-.24-.333-.352-.5l-.022-.033c-.021-.03-.04-.06-.059-.091-.066-.1-.134-.209-.209-.306l-.274-.343c-.069-.084-.123-.161-.177-.237a5.932,5.932,0,0,0-.365-.471c-.141-.156-.262-.3-.383-.448a11,11,0,0,0-.734-.821,10.454,10.454,0,0,0-.753-.775c-.142-.136-.286-.272-.421-.416l-.03-.031c-.152-.151-.3-.276-.436-.387-.076-.063-.152-.125-.224-.192l-.32-.293a3.063,3.063,0,0,0-.325-.262c-.024-.017-.048-.034-.07-.052l-.032-.025q-.307-.234-.6-.485c-.03-.026-.06-.05-.092-.072-.106-.076-.213-.149-.321-.223s-.243-.166-.36-.254l-.34-.255-.064-.045c-.087-.058-.177-.112-.266-.165-.042-.025-.083-.049-.124-.075-.235-.147-.455-.291-.671-.441a1.407,1.407,0,0,0-.132-.081l-.052-.029c-.215-.116-.429-.23-.639-.355l-.354-.214a1.285,1.285,0,0,0-.123-.066l-.379-.179c-.124-.059-.249-.126-.375-.193s-.226-.12-.34-.177c-.035-.018-.071-.034-.108-.049q-.335-.134-.66-.285a5.6,5.6,0,0,0-.728-.3l-.168-.061-.04-.014c-.079-.027-.155-.061-.232-.093a4.833,4.833,0,0,0-.622-.227c-.2-.061-.43-.135-.656-.216a3.669,3.669,0,0,0-.562-.169l-.328-.086a9.3,9.3,0,0,0-1.031-.261c-.2-.042-.4-.083-.595-.138a1.384,1.384,0,0,0-.752,2.664c.272.077.528.131.777.183a6.734,6.734,0,0,1,.753.188c.032.011.065.021.1.03l.4.105.055.013a1.133,1.133,0,0,1,.165.045l.059.023c.289.1.579.2.861.283a2.506,2.506,0,0,1,.3.113c.135.057.271.113.408.161l.179.065a3.445,3.445,0,0,1,.4.159c.022.012.044.023.066.033.257.121.519.234.779.339l.236.124c.159.084.319.169.482.246l.32.151.3.182c.246.146.488.277.731.408q.35.241.71.465c.052.033.118.073.184.112.04.024.08.047.119.072l.307.23c.151.112.3.217.454.321.076.052.152.1.228.158q.322.273.655.529c.056.045.114.087.172.129.024.017.048.034.071.052l.318.292c.1.094.218.193.336.291.082.068.165.135.241.209.162.17.331.333.5.5a7.487,7.487,0,0,1,.585.6,1.475,1.475,0,0,0,.108.116,8.24,8.24,0,0,1,.582.652c.146.175.292.349.444.519.057.065.118.154.181.241.088.123.177.246.272.363l.248.311.047.077c.038.06.076.119.115.177.131.2.27.393.409.588l.046.064c.133.233.272.464.414.685a20.946,20.946,0,0,1,1.4,2.76c.009.023.018.045.028.068l.159.347c.016.043.031.087.046.131.024.071.049.142.075.212.044.128.107.289.17.449.036.091.072.182.106.274.063.223.135.442.206.662a8.126,8.126,0,0,1,.239.819A1.385,1.385,0,0,0,732.288,489.374Z" transform="translate(-712.383 -469.236)" fill="#ececec"/>
      </g>
      <g id="Group_123" data-name="Group 123" transform="translate(70.042 61.381)">
        <path id="Path_186" data-name="Path 186" d="M741.3,416.037a.923.923,0,0,0,.4-1.754,46.818,46.818,0,0,0-9.172-3.315,47.342,47.342,0,0,0-9.668-1.328.923.923,0,0,0-.061,1.845,44.641,44.641,0,0,1,18.1,4.46A.915.915,0,0,0,741.3,416.037Z" transform="translate(-721.904 -409.639)" fill="#7bbbb1"/>
      </g>
    </g>
  </g>
</svg>
