<svg xmlns="http://www.w3.org/2000/svg" width="96.647" height="63.526" viewBox="0 0 96.647 63.526">
  <g id="adsss" transform="translate(-14338.183 -3454.5)">
    <g id="Group_24974" data-name="Group 24974" transform="translate(14338.183 3454.5)">
      <g id="Group_24971" data-name="Group 24971" transform="translate(24.565 0)">
        <g id="Group_542" data-name="Group 542" transform="translate(38.959 20.722)">
          <path id="Path_256" data-name="Path 256" d="M792.762,359.742a.465.465,0,0,1-.344-.151,19.033,19.033,0,0,0-2.621-1.948,27.088,27.088,0,0,0-4.034-2.052l-.354-.144a.463.463,0,1,1,.344-.861l.353.143a27.555,27.555,0,0,1,4.181,2.127,19.978,19.978,0,0,1,2.785,2.076.465.465,0,0,1-.309.811Z" transform="translate(-785.117 -354.553)" fill="#c48e61"/>
        </g>
        <g id="Group_543" data-name="Group 543" transform="translate(38.57 32.509)">
          <path id="Path_257" data-name="Path 257" d="M788.885,382.87a.457.457,0,0,1-.232-.063,28.65,28.65,0,0,0-4.076-1.928.464.464,0,0,1,.332-.866A29.669,29.669,0,0,1,789.117,382a.464.464,0,0,1-.233.865Z" transform="translate(-784.28 -379.983)" fill="#c48e61"/>
        </g>
        <g id="Group_544" data-name="Group 544" transform="translate(7.113 36.438)">
          <path id="Path_258" data-name="Path 258" d="M716.876,391.682a.464.464,0,0,1-.176-.893,37.793,37.793,0,0,1,6.464-1.957c.006,0,.994-.2,2.013-.367a.464.464,0,1,1,.154.915c-1.006.169-1.981.361-1.981.361a36.785,36.785,0,0,0-6.3,1.907A.468.468,0,0,1,716.876,391.682Z" transform="translate(-716.412 -388.459)" fill="#c48e61"/>
        </g>
        <g id="Group_545" data-name="Group 545" transform="translate(43.833 26.25)">
          <path id="Path_259" data-name="Path 259" d="M797.923,368.723a.459.459,0,0,1-.295-.107c-.325-.269-.668-.534-1.02-.787h0s-.333-.221-.762-.5a.464.464,0,1,1,.5-.78c.443.286.786.514.786.514.383.275.743.553,1.084.835a.464.464,0,0,1-.3.821Z" transform="translate(-795.634 -366.479)" fill="#c48e61"/>
        </g>
        <g id="Group_546" data-name="Group 546" transform="translate(39.375 23.889)">
          <path id="Path_260" data-name="Path 260" d="M789.378,363.706a.46.46,0,0,1-.224-.058,28.824,28.824,0,0,0-2.853-1.373.463.463,0,0,1,.356-.855,29.549,29.549,0,0,1,2.946,1.417.464.464,0,0,1-.225.869Z" transform="translate(-786.016 -361.384)" fill="#c48e61"/>
        </g>
        <g id="Group_547" data-name="Group 547" transform="translate(0.66 25.94)">
          <path id="Path_261" data-name="Path 261" d="M702.953,368.354a.464.464,0,0,1-.3-.821,21.2,21.2,0,0,1,2.291-1.652.464.464,0,1,1,.491.787,20.221,20.221,0,0,0-2.191,1.58A.462.462,0,0,1,702.953,368.354Z" transform="translate(-702.489 -365.81)" fill="#c48e61"/>
        </g>
        <g id="Group_548" data-name="Group 548" transform="translate(4.426 23.546)">
          <path id="Path_262" data-name="Path 262" d="M711.079,363.1a.464.464,0,0,1-.216-.874,34.747,34.747,0,0,1,3.382-1.548.463.463,0,0,1,.339.863,33.74,33.74,0,0,0-3.291,1.507A.459.459,0,0,1,711.079,363.1Z" transform="translate(-710.615 -360.645)" fill="#c48e61"/>
        </g>
        <g id="Group_549" data-name="Group 549" transform="translate(9.563 9.036)">
          <path id="Path_263" data-name="Path 263" d="M722.391,332.368a.7.7,0,0,1-.209-1.359q.395-.124.8-.242l1.349-.367c1.167-.3,2.367-.545,3.58-.745.727-.12,1.476-.224,2.225-.311a.7.7,0,0,1,.16,1.382c-.728.084-1.455.185-2.16.3-1.173.193-2.335.434-3.452.717l-1.326.36c-.247.072-.5.15-.757.23A.7.7,0,0,1,722.391,332.368Z" transform="translate(-721.696 -329.34)" fill="#fff"/>
        </g>
        <g id="Group_550" data-name="Group 550" transform="translate(5.453 11.71)">
          <path id="Path_264" data-name="Path 264" d="M713.525,340.038a.7.7,0,0,1-.3-1.325c.752-.353,1.55-.688,2.372-1l.044-.016.072-.026A44.48,44.48,0,0,1,731,335.109q.389,0,.775.006c.874.014,1.745.05,2.588.106a.7.7,0,0,1-.093,1.388c-.82-.056-1.667-.09-2.516-.1q-.375-.005-.754-.005A43.091,43.091,0,0,0,716.2,338.98l-.067.025c-.826.31-1.589.631-2.307.967A.692.692,0,0,1,713.525,340.038Z" transform="translate(-712.83 -335.109)" fill="#fff"/>
        </g>
        <g id="Group_551" data-name="Group 551" transform="translate(14.495 29.619)">
          <path id="Path_265" data-name="Path 265" d="M754.7,377.044a.714.714,0,0,1-.207-.031,44.49,44.49,0,0,0-13.028-1.877c-1.577,0-3.157.077-4.7.228q-.479.047-.954.1c-.9.108-1.794.241-2.662.4a.7.7,0,0,1-.248-1.368c.9-.162,1.819-.3,2.745-.412q.489-.058.982-.107c1.586-.155,3.212-.234,4.834-.234a45.9,45.9,0,0,1,13.441,1.939.7.7,0,0,1-.206,1.359Z" transform="translate(-732.338 -373.746)" fill="#fff"/>
        </g>
        <g id="Group_552" data-name="Group 552" transform="translate(16.121 32.602)">
          <path id="Path_266" data-name="Path 266" d="M753.865,382.741a.7.7,0,0,1-.154-.017c-1.168-.266-2.591-.517-2.6-.519a46.954,46.954,0,0,0-7.753-.633c-.954,0-1.915.028-2.855.083-.192.012-.383.024-.575.038-1.1.078-2.206.2-3.282.349a.7.7,0,1,1-.2-1.377c1.108-.158,2.245-.279,3.379-.359q.294-.021.591-.038c.969-.057,1.957-.086,2.938-.086a48.371,48.371,0,0,1,7.988.653c.065.011,1.475.26,2.677.533a.7.7,0,0,1-.153,1.373Z" transform="translate(-735.847 -380.182)" fill="#fff"/>
        </g>
        <g id="Group_553" data-name="Group 553" transform="translate(17.827 35.589)">
          <path id="Path_267" data-name="Path 267" d="M753.549,388.72a.719.719,0,0,1-.121-.01c-.644-.113-1.3-.214-1.951-.3a48.4,48.4,0,0,0-7.115-.383c-1.363.027-2.732.111-4.068.252a.7.7,0,1,1-.146-1.383c1.375-.145,2.783-.232,4.186-.26a49.744,49.744,0,0,1,7.321.4c.672.087,1.349.191,2.014.307a.7.7,0,0,1-.12,1.38Z" transform="translate(-739.526 -386.628)" fill="#fff"/>
        </g>
        <g id="Group_554" data-name="Group 554" transform="translate(8.278 17.681)">
          <path id="Path_268" data-name="Path 268" d="M719.621,351.765a.7.7,0,0,1-.247-1.345l.154-.059c.9-.317,1.826-.6,2.767-.855h0l.095-.025h0a46.35,46.35,0,0,1,11.88-1.489,47.027,47.027,0,0,1,10.753,1.207c.983.231,1.952.5,2.88.791a.7.7,0,1,1-.42,1.326c-.895-.283-1.829-.54-2.779-.763a45.646,45.646,0,0,0-10.435-1.17,44.939,44.939,0,0,0-11.525,1.443h0l-.089.024c-.909.243-1.8.519-2.655.819l-.137.052A.694.694,0,0,1,719.621,351.765Z" transform="translate(-718.925 -347.991)" fill="#fff"/>
        </g>
        <g id="Group_555" data-name="Group 555" transform="translate(11.328 23.647)">
          <path id="Path_269" data-name="Path 269" d="M755.88,366.086a.692.692,0,0,1-.31-.073,40.7,40.7,0,0,0-17.767-3.76,46.805,46.805,0,0,0-8.148.7l-.1.019c-.646.116-1.292.248-1.916.39q-.639.147-1.26.309a.7.7,0,1,1-.354-1.344q.642-.17,1.3-.32c.646-.148,1.314-.284,1.985-.4l.061-.011a48.279,48.279,0,0,1,8.432-.73,42.1,42.1,0,0,1,18.387,3.906.7.7,0,0,1-.311,1.318Z" transform="translate(-725.504 -360.863)" fill="#fff"/>
        </g>
        <g id="Group_556" data-name="Group 556" transform="translate(12.874 26.635)">
          <path id="Path_270" data-name="Path 270" d="M756.121,371.859a.691.691,0,0,1-.275-.057,41.657,41.657,0,0,0-16.359-3.1,47.756,47.756,0,0,0-6.128.39.674.674,0,0,1-.134.032q-.826.113-1.631.251c-.633.11-1.275.237-1.909.377a.7.7,0,0,1-.3-1.358c.654-.144,1.316-.275,1.971-.388.461-.08.942-.156,1.433-.225a.672.672,0,0,1,.141-.034,49.012,49.012,0,0,1,6.555-.435,43.053,43.053,0,0,1,16.911,3.216.7.7,0,0,1-.276,1.334Z" transform="translate(-728.84 -367.309)" fill="#fff"/>
        </g>
        <g id="Group_557" data-name="Group 557" transform="translate(6.794 14.693)">
          <path id="Path_271" data-name="Path 271" d="M716.419,345.887a.7.7,0,0,1-.244-1.347l2.064-.772c.234-.078.446-.148.66-.215.23-.074.463-.145.7-.215a46.28,46.28,0,0,1,12.961-1.793,49.428,49.428,0,0,1,5.824.342c.777.093,1.547.2,2.289.331a.7.7,0,1,1-.234,1.371c-.719-.123-1.465-.231-2.219-.322a48.118,48.118,0,0,0-5.659-.331,44.871,44.871,0,0,0-12.564,1.735c-.225.067-.451.136-.673.207q-.31.1-.616.2l-2.04.763A.691.691,0,0,1,716.419,345.887Z" transform="translate(-715.723 -341.546)" fill="#fff"/>
        </g>
        <g id="Group_558" data-name="Group 558" transform="translate(9.835 20.66)">
          <path id="Path_272" data-name="Path 272" d="M750.153,358a.7.7,0,0,1-.223-.037,43.729,43.729,0,0,0-13.865-2.157,44.481,44.481,0,0,0-12.883,1.839.7.7,0,1,1-.408-1.329,45.881,45.881,0,0,1,13.291-1.9,45.144,45.144,0,0,1,14.311,2.23.7.7,0,0,1-.223,1.354Z" transform="translate(-722.283 -354.418)" fill="#fff"/>
        </g>
        <g id="Group_559" data-name="Group 559" transform="translate(26.457 0.109)">
          <path id="Path_273" data-name="Path 273" d="M759,311.035h-.034l-.39-.027a.464.464,0,0,1-.433-.493.47.47,0,0,1,.493-.432l.4.028a.463.463,0,0,1-.033.926Z" transform="translate(-758.145 -310.081)" fill="#adadad"/>
        </g>
        <g id="Group_560" data-name="Group 560" transform="translate(19.142 0)">
          <path id="Path_274" data-name="Path 274" d="M742.826,310.936a.464.464,0,0,1-.037-.926,50.17,50.17,0,0,1,7.383-.055.464.464,0,0,1,.433.492.47.47,0,0,1-.493.433,48.954,48.954,0,0,0-7.247.054Z" transform="translate(-742.363 -309.846)" fill="#adadad"/>
        </g>
        <g id="Group_561" data-name="Group 561" transform="translate(21.686 2.989)">
          <path id="Path_275" data-name="Path 275" d="M757.866,317.89a.436.436,0,0,1-.081-.007c-.61-.107-1.168-.19-1.656-.247a46.41,46.41,0,0,0-7.123-.4c-.229.005-.458.01-.686.011h0a.464.464,0,0,1,0-.927c.223,0,.447-.006.671-.011a47.835,47.835,0,0,1,7.258.412c.5.058,1.074.144,1.7.255a.463.463,0,0,1-.08.92Z" transform="translate(-747.853 -316.294)" fill="#adadad"/>
        </g>
        <g id="Group_562" data-name="Group 562" transform="translate(33.194 4.047)">
          <path id="Path_276" data-name="Path 276" d="M778.331,321.032a.459.459,0,0,1-.163-.03,37.148,37.148,0,0,0-4.87-1.451l-.252-.057a.463.463,0,1,1,.2-.905l.263.059a38.163,38.163,0,0,1,4.988,1.487.464.464,0,0,1-.164.9Z" transform="translate(-772.681 -318.577)" fill="#adadad"/>
        </g>
        <g id="Group_563" data-name="Group 563" transform="translate(9.98 3.084)">
          <path id="Path_277" data-name="Path 277" d="M723.06,319.222a.463.463,0,0,1-.137-.906,42.773,42.773,0,0,1,7.8-1.6c.022,0,.888-.127,2.105-.212a.471.471,0,0,1,.495.43.464.464,0,0,1-.43.5c-1.181.082-2.043.2-2.051.206A41.9,41.9,0,0,0,723.2,319.2.473.473,0,0,1,723.06,319.222Z" transform="translate(-722.596 -316.499)" fill="#adadad"/>
        </g>
        <g id="Group_564" data-name="Group 564" transform="translate(27.41 6.174)">
          <path id="Path_278" data-name="Path 278" d="M772.407,326.778a.461.461,0,0,1-.174-.034,38.928,38.928,0,0,0-9.417-2.43s-.971-.117-2.19-.221a.463.463,0,0,1-.422-.5.457.457,0,0,1,.5-.422c1.236.106,2.218.224,2.228.225a39.857,39.857,0,0,1,9.647,2.491.464.464,0,0,1-.174.893Z" transform="translate(-760.202 -323.166)" fill="#adadad"/>
        </g>
        <g id="Group_565" data-name="Group 565" transform="translate(16.707 5.971)">
          <path id="Path_279" data-name="Path 279" d="M737.573,324.082a.463.463,0,0,1-.061-.923,49.615,49.615,0,0,1,7.931-.413.464.464,0,1,1-.026.927,48.276,48.276,0,0,0-7.781.4A.487.487,0,0,1,737.573,324.082Z" transform="translate(-737.11 -322.728)" fill="#adadad"/>
        </g>
        <g id="Group_566" data-name="Group 566" transform="translate(5.086 6.708)">
          <path id="Path_280" data-name="Path 280" d="M712.5,328.337a.464.464,0,0,1-.207-.879,35.688,35.688,0,0,1,8.432-2.867s.9-.2,1.282-.265a.463.463,0,1,1,.166.911c-.376.069-1.251.26-1.252.26a34.729,34.729,0,0,0-8.215,2.791A.456.456,0,0,1,712.5,328.337Z" transform="translate(-712.039 -324.317)" fill="#adadad"/>
        </g>
        <g id="Group_567" data-name="Group 567" transform="translate(31.718 9.704)">
          <path id="Path_281" data-name="Path 281" d="M782.369,336.47a.458.458,0,0,1-.26-.08,28.331,28.331,0,0,0-7.286-3.443,36.531,36.531,0,0,0-4.945-1.245.463.463,0,0,1,.161-.913,37.42,37.42,0,0,1,5.071,1.277,29.262,29.262,0,0,1,7.52,3.558.463.463,0,0,1-.261.846Z" transform="translate(-769.495 -330.782)" fill="#adadad"/>
        </g>
        <g id="Group_568" data-name="Group 568" transform="translate(19.866 8.955)">
          <path id="Path_282" data-name="Path 282" d="M753.4,330.425a.443.443,0,0,1-.055,0,47.95,47.95,0,0,0-5.309-.33c-.008,0-1.177,0-2.384.05l-1.241.062a.464.464,0,0,1-.046-.926l1.246-.062c1.231-.049,2.416-.051,2.428-.051a49.15,49.15,0,0,1,5.416.336.463.463,0,0,1-.054.924Z" transform="translate(-743.925 -329.166)" fill="#adadad"/>
        </g>
        <g id="Group_569" data-name="Group 569" transform="translate(1.535 11.675)">
          <path id="Path_283" data-name="Path 283" d="M704.842,339.222a.464.464,0,0,1-.276-.836,26.663,26.663,0,0,1,6.174-3.321.463.463,0,0,1,.336.864,25.749,25.749,0,0,0-5.959,3.2A.461.461,0,0,1,704.842,339.222Z" transform="translate(-704.377 -335.033)" fill="#adadad"/>
        </g>
        <g id="Group_570" data-name="Group 570" transform="translate(37.321 14.148)">
          <path id="Path_284" data-name="Path 284" d="M790.859,346.154a.461.461,0,0,1-.309-.118,25.247,25.247,0,0,0-8.65-4.766.463.463,0,0,1,.3-.877,26.155,26.155,0,0,1,8.97,4.952.463.463,0,0,1-.309.809Z" transform="translate(-781.585 -340.368)" fill="#adadad"/>
        </g>
        <g id="Group_571" data-name="Group 571" transform="translate(28.695 12.253)">
          <path id="Path_285" data-name="Path 285" d="M768.762,338.147a.463.463,0,0,1-.109-.013,43.1,43.1,0,0,0-4.372-.817q-.445-.06-.9-.112a.463.463,0,1,1,.106-.921c.306.035.612.073.914.114a43.834,43.834,0,0,1,4.466.835.463.463,0,0,1-.109.914Z" transform="translate(-762.973 -336.281)" fill="#adadad"/>
        </g>
        <g id="Group_572" data-name="Group 572" transform="translate(43.526 20.036)">
          <path id="Path_286" data-name="Path 286" d="M798.237,356.132a.461.461,0,0,1-.315-.123,19.151,19.151,0,0,0-2.735-2.083.464.464,0,1,1,.5-.783,20.092,20.092,0,0,1,2.867,2.185.463.463,0,0,1-.314.8Z" transform="translate(-794.972 -353.071)" fill="#adadad"/>
        </g>
        <g id="Group_573" data-name="Group 573" transform="translate(33.508 16.055)">
          <path id="Path_287" data-name="Path 287" d="M782.629,348.674a.457.457,0,0,1-.224-.058q-.505-.28-1.038-.545a40.8,40.8,0,0,0-3.813-1.583,38.063,38.063,0,0,0-3.835-1.087.464.464,0,0,1,.206-.9,39.029,39.029,0,0,1,3.933,1.115,40.791,40.791,0,0,1,3.921,1.629q.552.274,1.077.565a.464.464,0,0,1-.226.868Z" transform="translate(-773.358 -344.484)" fill="#adadad"/>
        </g>
        <g id="Group_574" data-name="Group 574" transform="translate(0 20.399)">
          <path id="Path_288" data-name="Path 288" d="M701.529,356.553a.463.463,0,0,1-.314-.8,19.6,19.6,0,0,1,2.3-1.813.463.463,0,1,1,.52.768,18.657,18.657,0,0,0-2.2,1.727A.46.46,0,0,1,701.529,356.553Z" transform="translate(-701.065 -353.856)" fill="#adadad"/>
        </g>
        <g id="Group_575" data-name="Group 575" transform="translate(43.15 28.755)">
          <path id="Path_289" data-name="Path 289" d="M796.406,374.023a.462.462,0,0,1-.279-.094c-.429-.323-.887-.639-1.36-.94l-.394-.252a.464.464,0,1,1,.5-.78l.392.251c.492.313.971.643,1.419.981a.464.464,0,0,1-.279.834Z" transform="translate(-794.16 -371.883)" fill="#adadad"/>
        </g>
        <g id="Group_576" data-name="Group 576" transform="translate(1.395 26.018)">
          <path id="Path_290" data-name="Path 290" d="M704.54,370.855a.464.464,0,0,1-.279-.834,27.214,27.214,0,0,1,7.237-3.773s.249-.088.733-.247a.463.463,0,1,1,.289.881c-.467.153-.707.239-.711.24a26.321,26.321,0,0,0-6.991,3.639A.461.461,0,0,1,704.54,370.855Z" transform="translate(-704.076 -365.978)" fill="#adadad"/>
        </g>
        <g id="Group_577" data-name="Group 577" transform="translate(41.589 30.871)">
          <path id="Path_291" data-name="Path 291" d="M793.622,378.762a.462.462,0,0,1-.256-.078,24.224,24.224,0,0,0-2.321-1.36.464.464,0,1,1,.425-.824,25,25,0,0,1,2.411,1.413.464.464,0,0,1-.258.849Z" transform="translate(-790.793 -376.448)" fill="#adadad"/>
        </g>
        <g id="Group_578" data-name="Group 578" transform="translate(6.053 28.55)">
          <path id="Path_292" data-name="Path 292" d="M714.587,374.034a.464.464,0,0,1-.189-.887c.706-.316,1.677-.681,1.718-.7.947-.364,1.947-.7,2.969-.993a.464.464,0,0,1,.256.891c-1,.286-1.97.612-2.9.968-.013.005-.988.372-1.669.677A.472.472,0,0,1,714.587,374.034Z" transform="translate(-714.123 -371.44)" fill="#adadad"/>
        </g>
        <g id="Group_579" data-name="Group 579" transform="translate(2.374 31.353)">
          <path id="Path_293" data-name="Path 293" d="M706.654,379.315a.464.464,0,0,1-.222-.872c.471-.311.962-.612,1.462-.894a.464.464,0,0,1,.456.807c-.493.278-.977.574-1.439.882A.463.463,0,0,1,706.654,379.315Z" transform="translate(-706.188 -377.488)" fill="#adadad"/>
        </g>
        <g id="Group_580" data-name="Group 580" transform="translate(3.62 31.13)">
          <path id="Path_294" data-name="Path 294" d="M709.339,381.269a.464.464,0,0,1-.232-.865,32.047,32.047,0,0,1,7.131-2.966c.014,0,1.041-.266,1.664-.417a.463.463,0,1,1,.219.9c-.619.15-1.64.411-1.64.411a31.068,31.068,0,0,0-6.91,2.874A.46.46,0,0,1,709.339,381.269Z" transform="translate(-708.875 -377.008)" fill="#adadad"/>
        </g>
        <g id="Group_581" data-name="Group 581" transform="translate(5.173 34.949)">
          <path id="Path_295" data-name="Path 295" d="M712.689,387.843a.463.463,0,0,1-.206-.879c.576-.285,1.177-.557,1.788-.811.007,0,1.555-.616,2.236-.877a.463.463,0,1,1,.332.865c-.678.26-2.219.87-2.22.87-.585.243-1.168.508-1.726.783A.463.463,0,0,1,712.689,387.843Z" transform="translate(-712.225 -385.246)" fill="#adadad"/>
        </g>
        <g id="Group_582" data-name="Group 582" transform="translate(33.915 37.042)">
          <path id="Path_296" data-name="Path 296" d="M780,392.381a.468.468,0,0,1-.175-.034c-.552-.226-1.126-.442-1.705-.642-.009,0-2-.638-2.7-.818l-.832-.213a.464.464,0,0,1,.228-.9l.837.214c.721.185,2.678.809,2.761.835.606.21,1.2.432,1.763.664a.464.464,0,0,1-.175.893Z" transform="translate(-774.235 -389.761)" fill="#adadad"/>
        </g>
        <g id="Group_583" data-name="Group 583" transform="translate(31.77 39.576)">
          <path id="Path_297" data-name="Path 297" d="M775.026,397.394a.473.473,0,0,1-.142-.022,39.763,39.763,0,0,0-4.9-1.224.464.464,0,0,1,.169-.912,40.767,40.767,0,0,1,5.011,1.253.463.463,0,0,1-.142.9Z" transform="translate(-769.609 -395.228)" fill="#adadad"/>
        </g>
        <g id="Group_584" data-name="Group 584" transform="translate(19.764 38.805)">
          <path id="Path_298" data-name="Path 298" d="M752.864,394.777l-.051,0a49.094,49.094,0,0,0-7.621-.225l-.99.07a.464.464,0,0,1-.066-.925l1-.071a49.717,49.717,0,0,1,7.777.229.463.463,0,0,1-.05.924Z" transform="translate(-743.706 -393.564)" fill="#adadad"/>
        </g>
        <g id="Group_585" data-name="Group 585" transform="translate(9.608 39.257)">
          <path id="Path_299" data-name="Path 299" d="M722.258,397.026a.464.464,0,0,1-.142-.9,41.91,41.91,0,0,1,7-1.575.464.464,0,0,1,.127.918A41.015,41.015,0,0,0,722.4,397,.473.473,0,0,1,722.258,397.026Z" transform="translate(-721.795 -394.541)" fill="#adadad"/>
        </g>
        <g id="Group_586" data-name="Group 586" transform="translate(23.929 41.798)">
          <path id="Path_300" data-name="Path 300" d="M762.513,402.025a.449.449,0,0,1-.1-.011,45.794,45.794,0,0,0-9.264-1.065.464.464,0,0,1,.007-.927h.007a46.706,46.706,0,0,1,9.452,1.087.463.463,0,0,1-.1.915Z" transform="translate(-752.691 -400.022)" fill="#adadad"/>
        </g>
        <g id="Group_587" data-name="Group 587" transform="translate(13.043 41.887)">
          <path id="Path_301" data-name="Path 301" d="M729.671,402.128a.464.464,0,0,1-.076-.921,45.863,45.863,0,0,1,7.1-.991.464.464,0,1,1,.057.926,44.928,44.928,0,0,0-6.984.976A.438.438,0,0,1,729.671,402.128Z" transform="translate(-729.205 -400.215)" fill="#adadad"/>
        </g>
        <g id="Group_588" data-name="Group 588" transform="translate(19.505 44.776)">
          <path id="Path_302" data-name="Path 302" d="M743.609,407.509a.463.463,0,0,1-.034-.926,50.236,50.236,0,0,1,7.387,0,.463.463,0,0,1,.428.5.458.458,0,0,1-.5.428,49.413,49.413,0,0,0-7.25,0Z" transform="translate(-743.146 -406.448)" fill="#adadad"/>
        </g>
        <g id="Group_589" data-name="Group 589" transform="translate(0.188 21.18)">
          <path id="Path_303" data-name="Path 303" d="M701.933,360.272a.462.462,0,0,1-.463-.462v0a.463.463,0,0,1,.154-.345,22.557,22.557,0,0,1,5.1-3.36,9.872,9.872,0,0,1,1.09-.523.463.463,0,1,1,.368.851,8.995,8.995,0,0,0-.986.469l-.044.025a21.709,21.709,0,0,0-4.89,3.212A.463.463,0,0,1,701.933,360.272Z" transform="translate(-701.47 -355.54)" fill="#adadad"/>
        </g>
        <g id="Group_590" data-name="Group 590" transform="translate(0.197 16.629)">
          <path id="Path_304" data-name="Path 304" d="M701.953,349.027a.464.464,0,0,1-.309-.809,19.646,19.646,0,0,1,3.389-2.433.464.464,0,1,1,.464.8,18.719,18.719,0,0,0-3.235,2.321A.462.462,0,0,1,701.953,349.027Z" transform="translate(-701.489 -345.723)" fill="#adadad"/>
        </g>
        <g id="Group_591" data-name="Group 591" transform="translate(11.01 33.746)">
          <path id="Path_305" data-name="Path 305" d="M725.283,384.253a.464.464,0,0,1-.123-.91c.769-.214,1.816-.462,2.873-.682a.464.464,0,1,1,.188.908c-1.038.215-2.063.459-2.813.667A.484.484,0,0,1,725.283,384.253Z" transform="translate(-724.82 -382.651)" fill="#adadad"/>
        </g>
        <g id="Group_592" data-name="Group 592" transform="translate(36.179 34.691)">
          <path id="Path_306" data-name="Path 306" d="M784.564,387.549a.461.461,0,0,1-.2-.048,32.961,32.961,0,0,0-4.913-1.9.464.464,0,0,1,.273-.886,33.905,33.905,0,0,1,5.05,1.96.463.463,0,0,1-.206.879Z" transform="translate(-779.12 -384.689)" fill="#adadad"/>
        </g>
        <g id="Group_593" data-name="Group 593" transform="translate(3.53 18.861)">
          <path id="Path_307" data-name="Path 307" d="M709.145,352.186a.463.463,0,0,1-.235-.863c.554-.325.847-.483,1.364-.738a.463.463,0,1,1,.41.831c-.493.244-.774.4-1.305.707A.466.466,0,0,1,709.145,352.186Z" transform="translate(-708.681 -350.537)" fill="#adadad"/>
        </g>
      </g>
      <g id="Group_24972" data-name="Group 24972" transform="translate(0 49.107)">
        <g id="Group_595" data-name="Group 595" transform="translate(0 1.802)">
          <path id="Path_308" data-name="Path 308" d="M474.334,351.976l.029-.069a2.986,2.986,0,0,0,.144-.432c.034-.139.065-.289.094-.455s.045-.337.063-.519c.016-.2.022-.384.022-.55a2.049,2.049,0,0,0-.191-.913,1.74,1.74,0,0,0-.565-.648,2.153,2.153,0,0,0-.624-.311,3.156,3.156,0,0,0-1.221-.089,2.607,2.607,0,0,0-.413.078,2.875,2.875,0,0,0-.379.13c-.114.048-.261.119-.452.223l-.094.052.31.682.112-.074a2.406,2.406,0,0,1,.662-.317,2.162,2.162,0,0,1,1.2-.009,1.549,1.549,0,0,1,.422.193,1.021,1.021,0,0,1,.346.408,1.239,1.239,0,0,1,.094.491,7.62,7.62,0,0,1-.047.945,3.233,3.233,0,0,1-.088.471h-4.729l0-3.3h-.788l0,3.3h-2.231l0-3.64h-.785v.342h-.256a3.946,3.946,0,0,0-1.124.148,2.812,2.812,0,0,0-.873.415,1.88,1.88,0,0,0-.572.64,1.672,1.672,0,0,0-.2.8,1.712,1.712,0,0,0,.241.919,1.9,1.9,0,0,0,.63.626,2.726,2.726,0,0,0,.884.352,4.6,4.6,0,0,0,1.015.108h9.366Zm-9.586-3.3h.476v2.588h-.476a2.52,2.52,0,0,1-.706-.094,1.842,1.842,0,0,1-.564-.26,1.159,1.159,0,0,1-.361-.4,1.072,1.072,0,0,1-.133-.54.984.984,0,0,1,.141-.516,1.3,1.3,0,0,1,.388-.406,2.157,2.157,0,0,1,.572-.272,2.25,2.25,0,0,1,.662-.1" transform="translate(-462.198 -347.624)" fill="#fff"/>
        </g>
        <g id="Group_596" data-name="Group 596" transform="translate(12.526 2.143)">
          <path id="Path_309" data-name="Path 309" d="M490.354,348.361l0,4.143a2.321,2.321,0,0,1-.018.269.564.564,0,0,1-.059.216.309.309,0,0,1-.117.128.418.418,0,0,1-.226.047,1.067,1.067,0,0,1-.317-.074l-.1-.036-.3.658.115.042a1.658,1.658,0,0,0,.567.121,1.477,1.477,0,0,0,.615-.11.919.919,0,0,0,.392-.318,1.193,1.193,0,0,0,.185-.45,2.519,2.519,0,0,0,.045-.494l0-4.143Z" transform="translate(-489.223 -348.361)" fill="#fff"/>
        </g>
        <g id="Group_597" data-name="Group 597" transform="translate(15.462 0.23)">
          <path id="Path_310" data-name="Path 310" d="M503.825,344.946h.776v-.712H503.04l0,5.212h-1.625c.025-.123.05-.278.076-.469a5.989,5.989,0,0,0,.056-.844,2.044,2.044,0,0,0-.193-.914,1.714,1.714,0,0,0-.564-.648,2.13,2.13,0,0,0-.624-.31,2.408,2.408,0,0,0-.74-.114,4.62,4.62,0,0,0-.481.025,2.615,2.615,0,0,0-.41.078,2.925,2.925,0,0,0-.381.13,5.01,5.01,0,0,0-.452.222l-.1.052.317.682.11-.074a2.32,2.32,0,0,1,.659-.316,2.16,2.16,0,0,1,1.2-.009,1.547,1.547,0,0,1,.423.193,1.041,1.041,0,0,1,.347.408,1.272,1.272,0,0,1,.092.492,7.6,7.6,0,0,1-.047.945,3.663,3.663,0,0,1-.088.471h-4.276l0-5.212h-.786l0,5.924h8.268Z" transform="translate(-495.557 -344.234)" fill="#fff"/>
        </g>
        <g id="Group_598" data-name="Group 598" transform="translate(25.132 0.23)">
          <rect id="Rectangle_145" data-name="Rectangle 145" width="0.788" height="5.923" fill="#fff"/>
        </g>
        <g id="Group_599" data-name="Group 599" transform="translate(28.233 1.802)">
          <path id="Path_311" data-name="Path 311" d="M526.918,347.624h-.788v.342h-.254a3.909,3.909,0,0,0-1.121.148,2.743,2.743,0,0,0-.875.415,1.881,1.881,0,0,0-.573.64,1.671,1.671,0,0,0-.2.8,1.7,1.7,0,0,0,.24.919,1.9,1.9,0,0,0,.63.626,2.724,2.724,0,0,0,.884.352,4.6,4.6,0,0,0,1.014.108h1.042Zm-1.259,1.053h.473v2.588h-.473a2.526,2.526,0,0,1-.707-.094,1.831,1.831,0,0,1-.563-.26,1.175,1.175,0,0,1-.362-.4,1.083,1.083,0,0,1-.13-.54.977.977,0,0,1,.141-.516,1.3,1.3,0,0,1,.386-.406,2.172,2.172,0,0,1,.573-.272,2.245,2.245,0,0,1,.662-.1" transform="translate(-523.11 -347.624)" fill="#fff"/>
        </g>
        <g id="Group_600" data-name="Group 600" transform="translate(32.349 2.143)">
          <path id="Path_312" data-name="Path 312" d="M533.864,353a2.511,2.511,0,0,0,.045-.494l0-4.143h-.785l0,4.143a2.313,2.313,0,0,1-.018.269.564.564,0,0,1-.059.216.311.311,0,0,1-.117.128.42.42,0,0,1-.226.047,1.069,1.069,0,0,1-.317-.074l-.1-.037-.3.659.114.042a1.658,1.658,0,0,0,.567.121,1.483,1.483,0,0,0,.615-.11.919.919,0,0,0,.393-.318,1.173,1.173,0,0,0,.184-.449" transform="translate(-531.99 -348.361)" fill="#fff"/>
        </g>
        <g id="Group_601" data-name="Group 601" transform="translate(35.284 0.23)">
          <path id="Path_313" data-name="Path 313" d="M551.944,349.446h-1.858l0-5.212H549.3l0,5.212h-2.155l0-3.3h-.786l0,3.3h-2.177c.026-.123.05-.278.077-.469a5.994,5.994,0,0,0,.056-.844,2.045,2.045,0,0,0-.193-.914,1.718,1.718,0,0,0-.564-.648,2.14,2.14,0,0,0-.623-.31,2.424,2.424,0,0,0-.741-.114,4.617,4.617,0,0,0-.481.025,2.643,2.643,0,0,0-.411.078,2.951,2.951,0,0,0-.382.13c-.114.047-.26.119-.451.222l-.1.052.317.682.11-.074a2.343,2.343,0,0,1,.66-.316,2.161,2.161,0,0,1,1.2-.009,1.534,1.534,0,0,1,.422.193,1.039,1.039,0,0,1,.348.408,1.281,1.281,0,0,1,.092.492,7.624,7.624,0,0,1-.047.945,3.682,3.682,0,0,1-.088.471h-4.275l0-5.212h-.786l0,5.924h14.4l0-5.212h.776v-.712h-1.562Z" transform="translate(-538.323 -344.234)" fill="#fff"/>
        </g>
        <g id="Group_602" data-name="Group 602" transform="translate(52.23 1.802)">
          <path id="Path_314" data-name="Path 314" d="M583.854,348.9a2.5,2.5,0,0,0-.781-.449,2.86,2.86,0,0,0-.979-.161,2.59,2.59,0,0,0-.942.166,2.386,2.386,0,0,0-.756.46,2.233,2.233,0,0,0-.5.682,1.873,1.873,0,0,0-.188.833,1.911,1.911,0,0,0,.164.837h-1.176l0-3.64H577.9v.342h-.254a3.911,3.911,0,0,0-1.121.148,2.747,2.747,0,0,0-.876.415,1.881,1.881,0,0,0-.573.64,1.669,1.669,0,0,0-.2.8,1.7,1.7,0,0,0,.241.919,1.9,1.9,0,0,0,.629.626,2.735,2.735,0,0,0,.885.352,4.594,4.594,0,0,0,1.014.108h2.783a2.371,2.371,0,0,0,.7.408,2.676,2.676,0,0,0,.964.171,2.831,2.831,0,0,0,.966-.158,2.429,2.429,0,0,0,.779-.442,2.173,2.173,0,0,0,.527-.671,1.908,1.908,0,0,0,.193-.857,1.961,1.961,0,0,0-.189-.853,2.161,2.161,0,0,0-.519-.678m-.547.509a1.315,1.315,0,0,1,.343.449,1.341,1.341,0,0,1,.124.572,1.256,1.256,0,0,1-.125.565,1.373,1.373,0,0,1-.344.445,1.609,1.609,0,0,1-.529.3,2.048,2.048,0,0,1-.679.11,1.728,1.728,0,0,1-.644-.117,1.654,1.654,0,0,1-.509-.307,1.359,1.359,0,0,1-.332-.451,1.292,1.292,0,0,1-.121-.541,1.311,1.311,0,0,1,.119-.545,1.434,1.434,0,0,1,.334-.46,1.594,1.594,0,0,1,.5-.31,1.782,1.782,0,0,1,.65-.114,2.08,2.08,0,0,1,.679.107,1.68,1.68,0,0,1,.532.3m-5.875-.729h.473v2.588h-.473a2.525,2.525,0,0,1-.707-.094,1.829,1.829,0,0,1-.563-.26,1.17,1.17,0,0,1-.361-.4,1.081,1.081,0,0,1-.13-.54.977.977,0,0,1,.141-.516,1.292,1.292,0,0,1,.386-.406,2.18,2.18,0,0,1,.572-.272,2.256,2.256,0,0,1,.663-.1" transform="translate(-574.882 -347.624)" fill="#fff"/>
        </g>
        <g id="Group_603" data-name="Group 603" transform="translate(62.684 0.23)">
          <path id="Path_315" data-name="Path 315" d="M605.453,344.233l0,5.21h-2.3l1.115-2.343a.485.485,0,0,0-.075-.053,4.411,4.411,0,0,0-1.2-.665,3.573,3.573,0,0,0-2.446,0,.164.164,0,0,0-.039.014,3.93,3.93,0,0,0-1.211.69l-.007.011a.033.033,0,0,0-.014.007l1.067,2.343h-2.117v-5.21h-.789l0,5.925h8.8v-5.214h.779v-.711Zm-4.224,5.21-.993-2.11a2.73,2.73,0,0,1,.679-.329v0a2.445,2.445,0,0,1,1.3-.1,3.538,3.538,0,0,1,.461.132,4.267,4.267,0,0,1,.425.183c.085.043.157.085.21.118l-1,2.11Z" transform="translate(-597.436 -344.233)" fill="#fff"/>
        </g>
        <g id="Group_604" data-name="Group 604" transform="translate(72.892 0.23)">
          <rect id="Rectangle_146" data-name="Rectangle 146" width="0.786" height="5.923" fill="#fff"/>
        </g>
        <g id="Group_605" data-name="Group 605" transform="translate(80.68 0)">
          <path id="Path_316" data-name="Path 316" d="M638.219,344.724h-1.162v-.069c0-.1.027-.139.047-.157s.072-.05.26-.05h.6v-.711h-.658a1.052,1.052,0,0,0-.783.272h0a1.028,1.028,0,0,0-.263.747v.68h1.957Z" transform="translate(-636.262 -343.737)" fill="#fff"/>
        </g>
        <g id="Group_606" data-name="Group 606" transform="translate(75.992 0.228)">
          <path id="Path_317" data-name="Path 317" d="M644.614,344.941h.779v-.712h-1.567l0,5.212h-1.612c.016-.092.037-.2.057-.341a4.332,4.332,0,0,0,.042-.626,4.012,4.012,0,0,0-.1-.883,2.756,2.756,0,0,0-.336-.832,2.24,2.24,0,0,0-.42-.505,2.869,2.869,0,0,0-.592-.408,3.582,3.582,0,0,0-.738-.285,3.464,3.464,0,0,0-.864-.1,4.584,4.584,0,0,0-1.12.128,7.12,7.12,0,0,0-1.086.391l-.112.052.346.646.1-.045a7.107,7.107,0,0,1,.831-.325,2.835,2.835,0,0,1,.857-.128,3.114,3.114,0,0,1,1.358.265,1.713,1.713,0,0,1,.783.719,2.252,2.252,0,0,1,.244.646,3.921,3.921,0,0,1,.065.761,3.481,3.481,0,0,1-.04.508c-.023.155-.043.273-.064.37h-.756c.007-.04.015-.089.027-.153a3.266,3.266,0,0,0,.039-.507,2.371,2.371,0,0,0-.11-.748,1.618,1.618,0,0,0-.346-.6,1.644,1.644,0,0,0-.563-.388,1.925,1.925,0,0,0-.752-.137,1.946,1.946,0,0,0-.756.137,1.615,1.615,0,0,0-.568.388,1.632,1.632,0,0,0-.355.594,2.28,2.28,0,0,0-.116.75,2.643,2.643,0,0,0,.049.514c.011.059.02.108.026.146H635.21l0-3.3h-.786l0,3.3h-2.235l0-3.3H631.4l0,3.3h-1.445l0-3.64h-.785v.342h-.256a3.945,3.945,0,0,0-1.125.148,2.807,2.807,0,0,0-.873.415,1.884,1.884,0,0,0-.573.64,1.67,1.67,0,0,0-.2.8,1.7,1.7,0,0,0,.24.919,1.908,1.908,0,0,0,.63.626,2.722,2.722,0,0,0,.884.352,4.591,4.591,0,0,0,1.015.108h7.974l6.314,0h1.412Zm-4.664,3.842a2.57,2.57,0,0,1-.04.465c-.011.081-.022.146-.033.2h-1.845c-.011-.051-.022-.119-.038-.2a2.831,2.831,0,0,1-.036-.458,1.67,1.67,0,0,1,.065-.48,1.043,1.043,0,0,1,.191-.366.806.806,0,0,1,.307-.229,1.048,1.048,0,0,1,.445-.083.974.974,0,0,1,.424.083.871.871,0,0,1,.3.236.971.971,0,0,1,.191.366,1.575,1.575,0,0,1,.067.473M628.7,346.855h.476v2.588H628.7a2.529,2.529,0,0,1-.707-.094,1.837,1.837,0,0,1-.563-.26,1.174,1.174,0,0,1-.362-.4,1.072,1.072,0,0,1-.132-.539.985.985,0,0,1,.141-.516,1.322,1.322,0,0,1,.388-.406,2.177,2.177,0,0,1,.573-.272,2.242,2.242,0,0,1,.662-.1" transform="translate(-626.148 -344.229)" fill="#fff"/>
        </g>
        <g id="Group_607" data-name="Group 607" transform="translate(95.862 0.228)">
          <rect id="Rectangle_147" data-name="Rectangle 147" width="0.785" height="5.923" fill="#fff"/>
        </g>
        <g id="Group_608" data-name="Group 608" transform="translate(0.117 9.831)">
          <path id="Path_318" data-name="Path 318" d="M463.774,368.6a1.984,1.984,0,0,1-.385-.037,2.241,2.241,0,0,1-.356-.1,1.836,1.836,0,0,1-.312-.148,1.4,1.4,0,0,1-.247-.185c-.028-.028-.032-.054-.011-.078l.323-.375a.044.044,0,0,1,.073-.006,1.916,1.916,0,0,0,.19.135,1.56,1.56,0,0,0,.229.12,1.776,1.776,0,0,0,.257.086,1.166,1.166,0,0,0,.286.034.755.755,0,0,0,.492-.143.453.453,0,0,0,.174-.367.4.4,0,0,0-.14-.315,1.009,1.009,0,0,0-.5-.174l-.187-.026a1.467,1.467,0,0,1-.79-.32.878.878,0,0,1-.276-.689,1.113,1.113,0,0,1,.083-.437.944.944,0,0,1,.24-.338,1.072,1.072,0,0,1,.377-.216,1.524,1.524,0,0,1,.5-.076,2.043,2.043,0,0,1,.632.1,1.709,1.709,0,0,1,.513.257.051.051,0,0,1,.01.073l-.25.385a.049.049,0,0,1-.073.015,1.9,1.9,0,0,0-.421-.208,1.328,1.328,0,0,0-.426-.068.586.586,0,0,0-.413.133.444.444,0,0,0-.143.341.38.38,0,0,0,.146.3,1.025,1.025,0,0,0,.5.174l.187.026a1.44,1.44,0,0,1,.786.32.905.905,0,0,1,.27.7,1.138,1.138,0,0,1-.083.437.9.9,0,0,1-.252.349,1.228,1.228,0,0,1-.419.229,1.835,1.835,0,0,1-.578.083" transform="translate(-462.45 -364.947)" fill="#fff"/>
        </g>
        <g id="Group_609" data-name="Group 609" transform="translate(3.36 10.861)">
          <path id="Path_319" data-name="Path 319" d="M471.055,369.734a.046.046,0,0,1-.052-.052V369.5H471a.626.626,0,0,1-.265.21,1.069,1.069,0,0,1-.442.081,1.111,1.111,0,0,1-.325-.047.77.77,0,0,1-.268-.14.673.673,0,0,1-.182-.237.789.789,0,0,1-.068-.34.692.692,0,0,1,.268-.6,1.24,1.24,0,0,1,.736-.193h.509a.028.028,0,0,0,.032-.031v-.12a.388.388,0,0,0-.12-.317.7.7,0,0,0-.437-.1,1.029,1.029,0,0,0-.348.05.747.747,0,0,0-.223.122c-.032.024-.056.021-.073-.011l-.192-.343a.045.045,0,0,1,.01-.068,1.264,1.264,0,0,1,.364-.177,1.762,1.762,0,0,1,.525-.068,1.228,1.228,0,0,1,.809.208.842.842,0,0,1,.237.666v1.639a.046.046,0,0,1-.052.052Zm-.619-.416a.7.7,0,0,0,.413-.1.371.371,0,0,0,.143-.322V368.7a.028.028,0,0,0-.032-.032h-.416a.8.8,0,0,0-.411.081.281.281,0,0,0-.13.258q0,.311.432.312" transform="translate(-469.448 -367.169)" fill="#fff"/>
        </g>
        <g id="Group_610" data-name="Group 610" transform="translate(6.268 10.918)">
          <path id="Path_320" data-name="Path 320" d="M477.292,369.8a.046.046,0,0,1-.052-.052v-.182h-.006a.8.8,0,0,1-.257.21.84.84,0,0,1-.393.081.885.885,0,0,1-.362-.07.791.791,0,0,1-.271-.2.878.878,0,0,1-.172-.294,1.111,1.111,0,0,1-.06-.372v-1.581a.046.046,0,0,1,.052-.052h.479a.046.046,0,0,1,.052.052v1.446a.638.638,0,0,0,.115.4.415.415,0,0,0,.354.151.419.419,0,0,0,.346-.151.6.6,0,0,0,.122-.39v-1.451a.046.046,0,0,1,.052-.052h.479a.046.046,0,0,1,.052.052v2.4a.046.046,0,0,1-.052.052Z" transform="translate(-475.721 -367.293)" fill="#fff"/>
        </g>
        <g id="Group_611" data-name="Group 611" transform="translate(9.098 9.889)">
          <path id="Path_321" data-name="Path 321" d="M483.506,368.608a.046.046,0,0,1-.052-.052v-.188h-.006a.66.66,0,0,1-.249.214.911.911,0,0,1-.416.083.953.953,0,0,1-.546-.151.838.838,0,0,1-.323-.453,1.7,1.7,0,0,1-.068-.3,3.993,3.993,0,0,1,0-.817,1.718,1.718,0,0,1,.068-.3.836.836,0,0,1,.323-.452.953.953,0,0,1,.546-.151.9.9,0,0,1,.416.083.663.663,0,0,1,.249.213h.006v-1.217a.046.046,0,0,1,.052-.052h.478a.046.046,0,0,1,.052.052v3.433a.046.046,0,0,1-.052.052Zm-.573-.463a.443.443,0,0,0,.468-.323,1.154,1.154,0,0,0,.039-.192,2.828,2.828,0,0,0,0-.551,1.171,1.171,0,0,0-.039-.193.5.5,0,0,0-.931,0,1.252,1.252,0,0,0-.039.193,2.934,2.934,0,0,0,0,.551,1.234,1.234,0,0,0,.039.192.439.439,0,0,0,.463.323" transform="translate(-481.826 -365.071)" fill="#fff"/>
        </g>
        <g id="Group_612" data-name="Group 612" transform="translate(12.172 10.919)">
          <path id="Rectangle_148" data-name="Rectangle 148" d="M.112,0H.471A.112.112,0,0,1,.583.112V2.394a.113.113,0,0,1-.113.113H.112A.112.112,0,0,1,0,2.4V.112A.112.112,0,0,1,.112,0Z" fill="#fff"/>
        </g>
        <g id="Group_613" data-name="Group 613" transform="translate(14.856 9.831)">
          <path id="Path_322" data-name="Path 322" d="M494.343,367.746c-.018-.056-.032-.111-.045-.166a1.667,1.667,0,0,1-.028-.192c-.007-.073-.013-.159-.016-.258s-.005-.217-.005-.356,0-.257.005-.356.009-.185.016-.258a1.664,1.664,0,0,1,.028-.192c.013-.056.027-.111.045-.166a1.154,1.154,0,0,1,.463-.637,1.426,1.426,0,0,1,.8-.216,1.532,1.532,0,0,1,.452.063,1.429,1.429,0,0,1,.359.164,1.024,1.024,0,0,1,.26.239,1.2,1.2,0,0,1,.161.284.051.051,0,0,1-.02.072l-.437.193a.05.05,0,0,1-.068-.026.93.93,0,0,0-.286-.325.749.749,0,0,0-.427-.112.7.7,0,0,0-.432.122.685.685,0,0,0-.234.341,1.061,1.061,0,0,0-.029.109,1.4,1.4,0,0,0-.02.156c-.005.063-.009.138-.011.226s0,.2,0,.32,0,.232,0,.32.005.164.011.226a1.415,1.415,0,0,0,.02.156,1.057,1.057,0,0,0,.029.109.686.686,0,0,0,.234.341.7.7,0,0,0,.432.122.778.778,0,0,0,.416-.112.6.6,0,0,0,.255-.331,1.265,1.265,0,0,0,.041-.2,1.96,1.96,0,0,0,.016-.263.028.028,0,0,0-.032-.031h-.583a.046.046,0,0,1-.052-.052v-.416a.046.046,0,0,1,.052-.052h1.17a.046.046,0,0,1,.052.052v.307c0,.146-.007.289-.021.429a1.8,1.8,0,0,1-.062.346,1.178,1.178,0,0,1-.46.643,1.361,1.361,0,0,1-.788.226,1.421,1.421,0,0,1-.8-.216,1.154,1.154,0,0,1-.463-.637" transform="translate(-494.249 -364.947)" fill="#fff"/>
        </g>
        <g id="Group_614" data-name="Group 614" transform="translate(18.179 10.861)">
          <path id="Path_323" data-name="Path 323" d="M502.553,369.792a1.162,1.162,0,0,1-.671-.185.943.943,0,0,1-.374-.512,1.562,1.562,0,0,1-.065-.268,2.224,2.224,0,0,1-.024-.346,2.571,2.571,0,0,1,.021-.348,1.394,1.394,0,0,1,.062-.27.936.936,0,0,1,.377-.51,1.255,1.255,0,0,1,1.305,0,.948.948,0,0,1,.372.507c.014.045.027.09.037.135s.019.1.026.156.012.126.016.2,0,.162,0,.262c0,.035-.019.052-.057.052h-1.545a.028.028,0,0,0-.031.031.417.417,0,0,0,.011.1.49.49,0,0,0,.026.088.534.534,0,0,0,.561.38.816.816,0,0,0,.354-.068.739.739,0,0,0,.234-.172c.028-.028.054-.031.078-.01l.307.27a.048.048,0,0,1,.006.073,1.233,1.233,0,0,1-.421.307,1.449,1.449,0,0,1-.609.12m.5-1.592a.66.66,0,0,0-.031-.213.452.452,0,0,0-.182-.237.544.544,0,0,0-.306-.086.559.559,0,0,0-.313.086.452.452,0,0,0-.182.237.686.686,0,0,0-.031.213.028.028,0,0,0,.031.031h.983a.028.028,0,0,0,.031-.031" transform="translate(-501.419 -367.17)" fill="#fff"/>
        </g>
        <g id="Group_615" data-name="Group 615" transform="translate(21.129 10.861)">
          <path id="Path_324" data-name="Path 324" d="M509.369,369.734a.046.046,0,0,1-.052-.052v-1.446a.617.617,0,0,0-.12-.4.425.425,0,0,0-.354-.151.433.433,0,0,0-.354.151.6.6,0,0,0-.125.4v1.446a.046.046,0,0,1-.052.052h-.479a.046.046,0,0,1-.051-.052v-2.4a.046.046,0,0,1,.051-.052h.479a.046.046,0,0,1,.052.052v.182h.005a.68.68,0,0,1,.247-.206,1,1,0,0,1,.775-.015.81.81,0,0,1,.273.2.851.851,0,0,1,.174.294,1.109,1.109,0,0,1,.06.372v1.582a.046.046,0,0,1-.052.052Z" transform="translate(-507.783 -367.169)" fill="#fff"/>
        </g>
        <g id="Group_616" data-name="Group 616" transform="translate(23.948 10.861)">
          <path id="Path_325" data-name="Path 325" d="M515,369.792a1.16,1.16,0,0,1-.671-.185.945.945,0,0,1-.375-.512,1.586,1.586,0,0,1-.065-.268,2.29,2.29,0,0,1-.023-.346,2.548,2.548,0,0,1,.021-.348,1.417,1.417,0,0,1,.062-.27.933.933,0,0,1,.377-.51,1.256,1.256,0,0,1,1.306,0,.955.955,0,0,1,.372.507c.014.045.026.09.037.135a1.552,1.552,0,0,1,.026.156c.007.059.012.126.016.2s.005.162.005.262c0,.035-.019.052-.057.052h-1.545a.028.028,0,0,0-.031.031.452.452,0,0,0,.011.1.57.57,0,0,0,.026.088.536.536,0,0,0,.562.38.816.816,0,0,0,.354-.068.749.749,0,0,0,.234-.172c.028-.028.054-.031.078-.01l.307.27a.048.048,0,0,1,.006.073,1.229,1.229,0,0,1-.422.307,1.444,1.444,0,0,1-.609.12m.5-1.592a.676.676,0,0,0-.031-.213.456.456,0,0,0-.182-.237.547.547,0,0,0-.307-.086.556.556,0,0,0-.312.086.449.449,0,0,0-.182.237.67.67,0,0,0-.031.213.028.028,0,0,0,.031.031h.983a.028.028,0,0,0,.031-.031" transform="translate(-513.865 -367.17)" fill="#fff"/>
        </g>
        <g id="Group_617" data-name="Group 617" transform="translate(26.897 10.861)">
          <path id="Path_326" data-name="Path 326" d="M520.28,369.734a.046.046,0,0,1-.052-.052v-2.4a.046.046,0,0,1,.052-.052h.479a.046.046,0,0,1,.052.052v.213h.005a.651.651,0,0,1,.249-.234.826.826,0,0,1,.4-.089.777.777,0,0,1,.289.055.7.7,0,0,1,.236.154.051.051,0,0,1,.01.073l-.275.349a.046.046,0,0,1-.073.011.84.84,0,0,0-.177-.089.573.573,0,0,0-.192-.032.4.4,0,0,0-.361.167.831.831,0,0,0-.112.468v1.358a.046.046,0,0,1-.052.052Z" transform="translate(-520.228 -367.169)" fill="#fff"/>
        </g>
        <g id="Group_618" data-name="Group 618" transform="translate(28.993 10.861)">
          <path id="Path_327" data-name="Path 327" d="M526.357,369.734a.046.046,0,0,1-.052-.052V369.5H526.3a.623.623,0,0,1-.265.21,1.069,1.069,0,0,1-.442.081,1.113,1.113,0,0,1-.325-.047.768.768,0,0,1-.267-.14.669.669,0,0,1-.182-.237.789.789,0,0,1-.068-.34.693.693,0,0,1,.268-.6,1.239,1.239,0,0,1,.736-.193h.51a.028.028,0,0,0,.031-.031v-.12a.388.388,0,0,0-.12-.317.705.705,0,0,0-.437-.1,1.032,1.032,0,0,0-.349.05.755.755,0,0,0-.223.122c-.031.024-.056.021-.073-.011l-.192-.343a.045.045,0,0,1,.011-.068,1.254,1.254,0,0,1,.364-.177,1.761,1.761,0,0,1,.526-.068,1.228,1.228,0,0,1,.809.208.843.843,0,0,1,.237.666v1.639a.046.046,0,0,1-.052.052Zm-.619-.416a.7.7,0,0,0,.414-.1.372.372,0,0,0,.143-.322V368.7a.028.028,0,0,0-.031-.032h-.416a.8.8,0,0,0-.411.081.281.281,0,0,0-.13.258q0,.311.432.312" transform="translate(-524.75 -367.169)" fill="#fff"/>
        </g>
        <g id="Group_619" data-name="Group 619" transform="translate(31.922 9.889)">
          <path id="Path_328" data-name="Path 328" d="M531.754,368.639a.681.681,0,0,1-.528-.177.792.792,0,0,1-.158-.541v-2.8a.046.046,0,0,1,.052-.052h.479a.046.046,0,0,1,.052.052v2.767a.243.243,0,0,0,.052.179.234.234,0,0,0,.166.05h.115a.046.046,0,0,1,.052.052v.416a.046.046,0,0,1-.052.052Z" transform="translate(-531.068 -365.071)" fill="#fff"/>
        </g>
        <g id="Group_620" data-name="Group 620" transform="translate(34.592 9.889)">
          <path id="Path_329" data-name="Path 329" d="M538.044,365.123a.065.065,0,0,1,.068-.052h.478a.065.065,0,0,1,.068.052l1.2,3.433c.011.034,0,.052-.036.052h-.51a.066.066,0,0,1-.068-.052l-.234-.687h-1.332l-.234.687a.065.065,0,0,1-.068.052h-.5c-.035,0-.047-.018-.037-.052Zm.775,2.2-.468-1.373h-.015l-.474,1.373Z" transform="translate(-536.828 -365.071)" fill="#fff"/>
        </g>
        <g id="Group_621" data-name="Group 621" transform="translate(38.133 10.918)">
          <path id="Path_330" data-name="Path 330" d="M546.039,369.8a.046.046,0,0,1-.052-.052v-.182h-.005a.8.8,0,0,1-.257.21.841.841,0,0,1-.393.081.883.883,0,0,1-.361-.07.786.786,0,0,1-.271-.2.872.872,0,0,1-.172-.294,1.11,1.11,0,0,1-.06-.372v-1.581a.046.046,0,0,1,.052-.052H545a.046.046,0,0,1,.053.052v1.446a.641.641,0,0,0,.114.4.482.482,0,0,0,.7,0,.6.6,0,0,0,.122-.39v-1.451a.046.046,0,0,1,.052-.052h.478a.046.046,0,0,1,.052.052v2.4a.046.046,0,0,1-.052.052Z" transform="translate(-544.468 -367.293)" fill="#fff"/>
        </g>
        <g id="Group_622" data-name="Group 622" transform="translate(40.884 10.149)">
          <path id="Path_331" data-name="Path 331" d="M551.35,368.94a.682.682,0,0,1-.539-.182.82.82,0,0,1-.158-.551v-1.321a.027.027,0,0,0-.031-.031h-.166a.046.046,0,0,1-.052-.052v-.349a.046.046,0,0,1,.052-.052h.166a.028.028,0,0,0,.031-.031v-.687a.046.046,0,0,1,.052-.052h.479a.046.046,0,0,1,.052.052v.687a.028.028,0,0,0,.031.031h.333a.046.046,0,0,1,.051.052v.349a.046.046,0,0,1-.051.052h-.333a.027.027,0,0,0-.031.031v1.3a.238.238,0,0,0,.057.184.263.263,0,0,0,.177.05h.13a.046.046,0,0,1,.051.052v.416a.046.046,0,0,1-.051.052Z" transform="translate(-550.403 -365.632)" fill="#fff"/>
        </g>
        <g id="Group_623" data-name="Group 623" transform="translate(42.871 9.889)">
          <path id="Path_332" data-name="Path 332" d="M556.276,368.608a.046.046,0,0,1-.052-.052V367.11a.615.615,0,0,0-.12-.4.423.423,0,0,0-.354-.151.432.432,0,0,0-.353.151.6.6,0,0,0-.125.4v1.446a.046.046,0,0,1-.052.052h-.479a.046.046,0,0,1-.052-.052v-3.433a.046.046,0,0,1,.052-.052h.479a.046.046,0,0,1,.052.052v1.212h0a.681.681,0,0,1,.247-.206,1,1,0,0,1,.775-.015.807.807,0,0,1,.273.2.854.854,0,0,1,.174.294,1.108,1.108,0,0,1,.06.372v1.581a.046.046,0,0,1-.052.052Z" transform="translate(-554.69 -365.071)" fill="#fff"/>
        </g>
        <g id="Group_624" data-name="Group 624" transform="translate(45.69 10.861)">
          <path id="Path_333" data-name="Path 333" d="M561.891,369.791a1.156,1.156,0,0,1-.658-.182.93.93,0,0,1-.378-.51,1.876,1.876,0,0,1-.062-.273,2.879,2.879,0,0,1,0-.692,1.878,1.878,0,0,1,.063-.273.932.932,0,0,1,.378-.51,1.27,1.27,0,0,1,1.311,0,.932.932,0,0,1,.377.51,1.863,1.863,0,0,1,.063.273,2.9,2.9,0,0,1,0,.692,1.861,1.861,0,0,1-.063.273.931.931,0,0,1-.377.51,1.151,1.151,0,0,1-.653.182m0-.52a.485.485,0,0,0,.294-.086.507.507,0,0,0,.174-.242,1.03,1.03,0,0,0,.042-.2q.01-.1.01-.263a2.6,2.6,0,0,0-.01-.26,1.151,1.151,0,0,0-.042-.2.509.509,0,0,0-.174-.242.485.485,0,0,0-.294-.086.47.47,0,0,0-.473.328,1.123,1.123,0,0,0-.042.2,2.578,2.578,0,0,0-.01.26c0,.108,0,.2.01.263a1.007,1.007,0,0,0,.042.2.47.47,0,0,0,.473.328" transform="translate(-560.773 -367.169)" fill="#fff"/>
        </g>
        <g id="Group_625" data-name="Group 625" transform="translate(48.65 10.861)">
          <path id="Path_334" data-name="Path 334" d="M567.211,369.734a.046.046,0,0,1-.052-.052v-2.4a.046.046,0,0,1,.052-.052h.479a.046.046,0,0,1,.052.052v.213h.005a.65.65,0,0,1,.249-.234.825.825,0,0,1,.4-.089.776.776,0,0,1,.289.055.7.7,0,0,1,.236.154.051.051,0,0,1,.01.073l-.275.349a.046.046,0,0,1-.073.011.833.833,0,0,0-.177-.089.573.573,0,0,0-.192-.032.4.4,0,0,0-.362.167.832.832,0,0,0-.112.468v1.358a.046.046,0,0,1-.052.052Z" transform="translate(-567.159 -367.169)" fill="#fff"/>
        </g>
        <g id="Group_626" data-name="Group 626" transform="translate(50.954 10.919)">
          <rect id="Rectangle_149" data-name="Rectangle 149" width="0.583" height="2.507" rx="0.112" fill="#fff"/>
        </g>
        <g id="Group_627" data-name="Group 627" transform="translate(52.187 10.149)">
          <path id="Path_335" data-name="Path 335" d="M575.737,368.94a.682.682,0,0,1-.539-.182.819.819,0,0,1-.158-.551v-1.321a.028.028,0,0,0-.032-.031h-.167a.046.046,0,0,1-.052-.052v-.349a.046.046,0,0,1,.052-.052h.167a.028.028,0,0,0,.032-.031v-.687a.046.046,0,0,1,.051-.052h.479a.046.046,0,0,1,.052.052v.687a.028.028,0,0,0,.031.031h.333a.046.046,0,0,1,.052.052v.349a.046.046,0,0,1-.052.052h-.333a.028.028,0,0,0-.031.031v1.3a.236.236,0,0,0,.057.184.264.264,0,0,0,.177.05h.13a.046.046,0,0,1,.052.052v.416a.046.046,0,0,1-.052.052Z" transform="translate(-574.79 -365.632)" fill="#fff"/>
        </g>
        <g id="Group_628" data-name="Group 628" transform="translate(53.884 10.918)">
          <path id="Path_336" data-name="Path 336" d="M578.83,370.736a.046.046,0,0,1-.052-.052v-.416a.046.046,0,0,1,.052-.052h.093a.353.353,0,0,0,.234-.07.529.529,0,0,0,.14-.227l.073-.213-.915-2.362c-.01-.035,0-.052.042-.052h.515a.063.063,0,0,1,.063.052l.566,1.639h.01l.541-1.639a.063.063,0,0,1,.063-.052h.494c.038,0,.052.017.042.052l-.957,2.611a2.679,2.679,0,0,1-.166.372.967.967,0,0,1-.182.24.594.594,0,0,1-.218.13.89.89,0,0,1-.276.039Z" transform="translate(-578.452 -367.293)" fill="#fff"/>
        </g>
        <g id="Group_629" data-name="Group 629" transform="translate(57.997 10.861)">
          <path id="Path_337" data-name="Path 337" d="M588.442,369.791a1.156,1.156,0,0,1-.658-.182.928.928,0,0,1-.377-.51,1.861,1.861,0,0,1-.063-.273,2.887,2.887,0,0,1,0-.692,1.863,1.863,0,0,1,.063-.273.93.93,0,0,1,.377-.51,1.27,1.27,0,0,1,1.311,0,.932.932,0,0,1,.377.51,1.815,1.815,0,0,1,.062.273,2.9,2.9,0,0,1,0,.692,1.813,1.813,0,0,1-.062.273.931.931,0,0,1-.377.51,1.15,1.15,0,0,1-.653.182m0-.52a.485.485,0,0,0,.294-.086.507.507,0,0,0,.174-.242,1.025,1.025,0,0,0,.042-.2c.007-.068.01-.155.01-.263a2.558,2.558,0,0,0-.01-.26,1.144,1.144,0,0,0-.042-.2.509.509,0,0,0-.174-.242.485.485,0,0,0-.294-.086.47.47,0,0,0-.473.328,1.1,1.1,0,0,0-.042.2,2.6,2.6,0,0,0-.01.26q0,.161.01.263a.987.987,0,0,0,.042.2.47.47,0,0,0,.473.328" transform="translate(-587.324 -367.169)" fill="#fff"/>
        </g>
        <g id="Group_630" data-name="Group 630" transform="translate(60.785 9.889)">
          <path id="Path_338" data-name="Path 338" d="M593.641,368.608a.046.046,0,0,1-.052-.052v-1.972a.028.028,0,0,0-.031-.031h-.166a.046.046,0,0,1-.052-.052v-.349a.046.046,0,0,1,.052-.052h.166a.028.028,0,0,0,.031-.031v-.161a.844.844,0,0,1,.211-.64.878.878,0,0,1,.622-.2h.229a.046.046,0,0,1,.052.052v.416a.046.046,0,0,1-.052.052h-.161a.8.8,0,0,0-.161.013.178.178,0,0,0-.1.049.207.207,0,0,0-.047.094.728.728,0,0,0-.012.151v.171a.028.028,0,0,0,.031.031h.447a.046.046,0,0,1,.052.052v.349a.046.046,0,0,1-.052.052H594.2a.027.027,0,0,0-.031.031v1.972a.046.046,0,0,1-.052.052Z" transform="translate(-593.339 -365.071)" fill="#fff"/>
        </g>
        <g id="Group_631" data-name="Group 631" transform="translate(64.108 9.889)">
          <path id="Path_339" data-name="Path 339" d="M600.51,365.123a.046.046,0,0,1,.052-.052h2.216a.046.046,0,0,1,.052.052v.447a.046.046,0,0,1-.052.052h-1.623a.028.028,0,0,0-.032.031v.9a.028.028,0,0,0,.032.031h1.368a.046.046,0,0,1,.052.052v.447a.046.046,0,0,1-.052.052h-1.368a.028.028,0,0,0-.032.031v1.389a.046.046,0,0,1-.052.052h-.51a.046.046,0,0,1-.052-.052Z" transform="translate(-600.51 -365.071)" fill="#fff"/>
        </g>
        <g id="Group_632" data-name="Group 632" transform="translate(66.798 10.861)">
          <path id="Path_340" data-name="Path 340" d="M607.43,369.791a1.159,1.159,0,0,1-.658-.182.93.93,0,0,1-.377-.51,1.892,1.892,0,0,1-.063-.273,2.9,2.9,0,0,1,0-.692,1.894,1.894,0,0,1,.063-.273.931.931,0,0,1,.377-.51,1.27,1.27,0,0,1,1.311,0,.931.931,0,0,1,.377.51,1.822,1.822,0,0,1,.062.273,2.9,2.9,0,0,1,0,.692,1.82,1.82,0,0,1-.062.273.93.93,0,0,1-.377.51,1.148,1.148,0,0,1-.653.182m0-.52a.485.485,0,0,0,.294-.086.51.51,0,0,0,.174-.242,1.034,1.034,0,0,0,.042-.2c.006-.068.01-.155.01-.263s0-.194-.01-.26a1.156,1.156,0,0,0-.042-.2.512.512,0,0,0-.174-.242.485.485,0,0,0-.294-.086.47.47,0,0,0-.473.328,1.108,1.108,0,0,0-.042.2,2.559,2.559,0,0,0-.011.26q0,.161.011.263a1,1,0,0,0,.042.2.47.47,0,0,0,.473.328" transform="translate(-606.312 -367.169)" fill="#fff"/>
        </g>
        <g id="Group_633" data-name="Group 633" transform="translate(69.757 10.861)">
          <path id="Path_341" data-name="Path 341" d="M612.749,369.734a.046.046,0,0,1-.052-.052v-2.4a.046.046,0,0,1,.052-.052h.479a.046.046,0,0,1,.052.052v.213h.005a.652.652,0,0,1,.25-.234.824.824,0,0,1,.4-.089.776.776,0,0,1,.289.055.694.694,0,0,1,.236.154.051.051,0,0,1,.011.073l-.276.349a.046.046,0,0,1-.073.011.843.843,0,0,0-.177-.089.577.577,0,0,0-.193-.032.4.4,0,0,0-.362.167.833.833,0,0,0-.112.468v1.358a.046.046,0,0,1-.052.052Z" transform="translate(-612.697 -367.169)" fill="#fff"/>
        </g>
        <g id="Group_634" data-name="Group 634" transform="translate(71.926 10.861)">
          <path id="Path_342" data-name="Path 342" d="M618.51,369.792a1.161,1.161,0,0,1-.671-.185.944.944,0,0,1-.374-.512,1.556,1.556,0,0,1-.065-.268,2.232,2.232,0,0,1-.023-.346,2.476,2.476,0,0,1,.021-.348,1.4,1.4,0,0,1,.062-.27.936.936,0,0,1,.378-.51,1.254,1.254,0,0,1,1.305,0,.952.952,0,0,1,.372.507c.014.045.026.09.037.135s.018.1.025.156.012.126.016.2.005.162.005.262c0,.035-.019.052-.057.052H618a.028.028,0,0,0-.031.031.442.442,0,0,0,.011.1.577.577,0,0,0,.026.088.534.534,0,0,0,.561.38.817.817,0,0,0,.354-.068.745.745,0,0,0,.234-.172c.028-.028.054-.031.078-.01l.307.27a.049.049,0,0,1,.005.073,1.228,1.228,0,0,1-.422.307,1.444,1.444,0,0,1-.608.12m.5-1.592a.672.672,0,0,0-.031-.213.451.451,0,0,0-.182-.237.547.547,0,0,0-.307-.086.557.557,0,0,0-.312.086.45.45,0,0,0-.182.237.674.674,0,0,0-.031.213.028.028,0,0,0,.031.031h.983a.028.028,0,0,0,.031-.031" transform="translate(-617.376 -367.17)" fill="#fff"/>
        </g>
        <g id="Group_635" data-name="Group 635" transform="translate(74.875 10.919)">
          <rect id="Rectangle_150" data-name="Rectangle 150" width="0.583" height="2.507" rx="0.112" fill="#fff"/>
        </g>
        <g id="Group_636" data-name="Group 636" transform="translate(76.176 10.861)">
          <path id="Path_343" data-name="Path 343" d="M627.549,370.727a1.353,1.353,0,0,1-.515-.1,1,1,0,0,1-.4-.273.047.047,0,0,1,.006-.072l.307-.307a.051.051,0,0,1,.078,0,.771.771,0,0,0,.546.234.545.545,0,0,0,.426-.151.65.65,0,0,0,.135-.447v-.234h-.005a.609.609,0,0,1-.247.213.915.915,0,0,1-.4.078.9.9,0,0,1-.535-.156.871.871,0,0,1-.317-.452,1.641,1.641,0,0,1-.065-.289,2.854,2.854,0,0,1-.018-.351,2.8,2.8,0,0,1,.018-.349,1.651,1.651,0,0,1,.065-.286.875.875,0,0,1,.317-.458,1.021,1.021,0,0,1,.939-.076.632.632,0,0,1,.247.216h.005v-.187a.046.046,0,0,1,.052-.052h.478a.046.046,0,0,1,.052.052v2.3a1.045,1.045,0,0,1-1.17,1.15m.083-1.576a.46.46,0,0,0,.289-.083.5.5,0,0,0,.159-.239.913.913,0,0,0,.044-.185,1.67,1.67,0,0,0,.013-.226,1.281,1.281,0,0,0-.057-.411.5.5,0,0,0-.159-.234.46.46,0,0,0-.289-.083.424.424,0,0,0-.442.317,1.265,1.265,0,0,0-.058.411,1.766,1.766,0,0,0,.013.226.952.952,0,0,0,.045.185.425.425,0,0,0,.442.322" transform="translate(-626.545 -367.17)" fill="#fff"/>
        </g>
        <g id="Group_637" data-name="Group 637" transform="translate(79.214 10.861)">
          <path id="Path_344" data-name="Path 344" d="M634.686,369.734a.046.046,0,0,1-.052-.052v-1.446a.618.618,0,0,0-.119-.4.425.425,0,0,0-.354-.151.433.433,0,0,0-.354.151.6.6,0,0,0-.125.4v1.446a.046.046,0,0,1-.052.052h-.479a.046.046,0,0,1-.052-.052v-2.4a.046.046,0,0,1,.052-.052h.479a.046.046,0,0,1,.052.052v.182h.005a.68.68,0,0,1,.247-.206,1,1,0,0,1,.776-.015.81.81,0,0,1,.273.2.846.846,0,0,1,.174.294,1.105,1.105,0,0,1,.06.372v1.582a.046.046,0,0,1-.052.052Z" transform="translate(-633.099 -367.169)" fill="#fff"/>
        </g>
        <g id="Group_638" data-name="Group 638" transform="translate(83.177 9.889)">
          <path id="Path_345" data-name="Path 345" d="M642.711,368.608a.046.046,0,0,1-.052-.052v-2.9a.028.028,0,0,0-.031-.031H641.7a.046.046,0,0,1-.052-.052v-.447a.046.046,0,0,1,.052-.052h2.528a.046.046,0,0,1,.052.052v.447a.046.046,0,0,1-.052.052H643.3a.028.028,0,0,0-.031.031v2.9a.046.046,0,0,1-.052.052Z" transform="translate(-641.65 -365.071)" fill="#fff"/>
        </g>
        <g id="Group_639" data-name="Group 639" transform="translate(86.407 10.861)">
          <path id="Path_346" data-name="Path 346" d="M648.671,369.734a.046.046,0,0,1-.052-.052v-2.4a.046.046,0,0,1,.052-.052h.479a.046.046,0,0,1,.052.052v.213h0a.65.65,0,0,1,.249-.234.825.825,0,0,1,.4-.089.778.778,0,0,1,.289.055.7.7,0,0,1,.236.154.051.051,0,0,1,.01.073l-.275.349a.046.046,0,0,1-.073.011.836.836,0,0,0-.177-.089.573.573,0,0,0-.193-.032.4.4,0,0,0-.361.167.833.833,0,0,0-.112.468v1.358a.046.046,0,0,1-.052.052Z" transform="translate(-648.619 -367.169)" fill="#fff"/>
        </g>
        <g id="Group_640" data-name="Group 640" transform="translate(88.504 10.861)">
          <path id="Path_347" data-name="Path 347" d="M654.749,369.734a.046.046,0,0,1-.052-.052V369.5h-.005a.623.623,0,0,1-.265.21,1.068,1.068,0,0,1-.442.081,1.113,1.113,0,0,1-.325-.047.767.767,0,0,1-.267-.14.67.67,0,0,1-.182-.237.79.79,0,0,1-.068-.34.693.693,0,0,1,.268-.6,1.239,1.239,0,0,1,.736-.193h.51a.028.028,0,0,0,.031-.031v-.12a.388.388,0,0,0-.12-.317.706.706,0,0,0-.437-.1,1.031,1.031,0,0,0-.349.05.753.753,0,0,0-.223.122c-.031.024-.056.021-.073-.011l-.192-.343a.045.045,0,0,1,.011-.068,1.254,1.254,0,0,1,.364-.177,1.762,1.762,0,0,1,.526-.068,1.229,1.229,0,0,1,.809.208.844.844,0,0,1,.237.666v1.639a.046.046,0,0,1-.052.052Zm-.619-.416a.7.7,0,0,0,.414-.1.372.372,0,0,0,.143-.322V368.7a.028.028,0,0,0-.031-.032h-.416a.8.8,0,0,0-.411.081.28.28,0,0,0-.13.258q0,.311.432.312" transform="translate(-653.142 -367.169)" fill="#fff"/>
        </g>
        <g id="Group_641" data-name="Group 641" transform="translate(91.307 9.889)">
          <path id="Path_348" data-name="Path 348" d="M660.87,368.608a.046.046,0,0,1-.052-.052v-.188h-.005a.661.661,0,0,1-.25.214.91.91,0,0,1-.416.083.954.954,0,0,1-.546-.151.838.838,0,0,1-.323-.453,1.776,1.776,0,0,1-.068-.3,4.017,4.017,0,0,1,0-.817,1.8,1.8,0,0,1,.068-.3.836.836,0,0,1,.323-.452.954.954,0,0,1,.546-.151.9.9,0,0,1,.416.083.664.664,0,0,1,.25.213h.005v-1.217a.046.046,0,0,1,.052-.052h.479a.046.046,0,0,1,.052.052v3.433a.046.046,0,0,1-.052.052Zm-.572-.463a.443.443,0,0,0,.468-.323,1.237,1.237,0,0,0,.039-.192,2.913,2.913,0,0,0,0-.551,1.256,1.256,0,0,0-.039-.193.5.5,0,0,0-.931,0,1.22,1.22,0,0,0-.039.193,2.954,2.954,0,0,0,0,.551,1.2,1.2,0,0,0,.039.192.439.439,0,0,0,.463.323" transform="translate(-659.19 -365.071)" fill="#fff"/>
        </g>
        <g id="Group_642" data-name="Group 642" transform="translate(94.246 10.861)">
          <path id="Path_349" data-name="Path 349" d="M666.665,369.792a1.163,1.163,0,0,1-.671-.185.949.949,0,0,1-.374-.512,1.587,1.587,0,0,1-.065-.268,2.229,2.229,0,0,1-.023-.346,2.574,2.574,0,0,1,.02-.348,1.4,1.4,0,0,1,.063-.27.931.931,0,0,1,.377-.51,1.254,1.254,0,0,1,1.305,0,.953.953,0,0,1,.372.507c.014.045.026.09.037.135s.019.1.026.156.012.126.015.2.005.162.005.262c0,.035-.019.052-.057.052H666.15a.027.027,0,0,0-.031.031.475.475,0,0,0,.01.1.606.606,0,0,0,.026.088.535.535,0,0,0,.562.38.814.814,0,0,0,.354-.068.749.749,0,0,0,.234-.172c.028-.028.054-.031.078-.01l.307.27a.048.048,0,0,1,.005.073,1.227,1.227,0,0,1-.421.307,1.447,1.447,0,0,1-.609.12m.5-1.592a.67.67,0,0,0-.031-.213.452.452,0,0,0-.182-.237.546.546,0,0,0-.307-.086.555.555,0,0,0-.312.086.45.45,0,0,0-.182.237.669.669,0,0,0-.031.213.028.028,0,0,0,.031.031h.983a.028.028,0,0,0,.031-.031" transform="translate(-665.531 -367.17)" fill="#fff"/>
        </g>
        <g id="Group_643" data-name="Group 643" transform="translate(2.844 0.445)">
          <path id="Path_350" data-name="Path 350" d="M469.411,345.178a.542.542,0,1,1-.538-.482.512.512,0,0,1,.538.482" transform="translate(-468.334 -344.696)" fill="#fff"/>
        </g>
        <g id="Group_644" data-name="Group 644" transform="translate(29.656 0.445)">
          <path id="Path_351" data-name="Path 351" d="M527.256,345.178a.542.542,0,1,1-.539-.482.512.512,0,0,1,.539.482" transform="translate(-526.179 -344.696)" fill="#fff"/>
        </g>
        <g id="Group_645" data-name="Group 645" transform="translate(31.071 0.445)">
          <path id="Path_352" data-name="Path 352" d="M530.309,345.178a.542.542,0,1,1-.538-.482.512.512,0,0,1,.538.482" transform="translate(-529.232 -344.696)" fill="#fff"/>
        </g>
        <g id="Group_646" data-name="Group 646" transform="translate(53.669 0.445)">
          <path id="Path_353" data-name="Path 353" d="M579.064,345.178a.542.542,0,1,1-.538-.482.512.512,0,0,1,.538.482" transform="translate(-577.987 -344.696)" fill="#fff"/>
        </g>
        <g id="Group_647" data-name="Group 647" transform="translate(55.068 0.445)">
          <path id="Path_354" data-name="Path 354" d="M582.082,345.178a.542.542,0,1,1-.539-.482.512.512,0,0,1,.539.482" transform="translate(-581.005 -344.696)" fill="#fff"/>
        </g>
        <g id="Group_648" data-name="Group 648" transform="translate(77.433 0.445)">
          <path id="Path_355" data-name="Path 355" d="M630.333,345.178a.541.541,0,1,1-.538-.482.512.512,0,0,1,.538.482" transform="translate(-629.257 -344.696)" fill="#fff"/>
        </g>
        <g id="Group_649" data-name="Group 649" transform="translate(78.848 0.445)">
          <path id="Path_356" data-name="Path 356" d="M633.387,345.178a.542.542,0,1,1-.539-.482.512.512,0,0,1,.539.482" transform="translate(-632.31 -344.696)" fill="#fff"/>
        </g>
        <g id="Group_650" data-name="Group 650" transform="translate(18.693 0.702)">
          <path id="Path_357" data-name="Path 357" d="M503.6,345.733a.542.542,0,1,1-.539-.482.512.512,0,0,1,.539.482" transform="translate(-502.528 -345.251)" fill="#fff"/>
        </g>
        <g id="Group_651" data-name="Group 651" transform="translate(42.407 0.702)">
          <path id="Path_358" data-name="Path 358" d="M554.766,345.733a.542.542,0,1,1-.538-.482.512.512,0,0,1,.538.482" transform="translate(-553.689 -345.251)" fill="#fff"/>
        </g>
        <g id="Group_652" data-name="Group 652" transform="translate(43.805 0.702)">
          <path id="Path_359" data-name="Path 359" d="M557.784,345.733a.542.542,0,1,1-.538-.482.512.512,0,0,1,.538.482" transform="translate(-556.707 -345.251)" fill="#fff"/>
        </g>
        <g id="Group_653" data-name="Group 653" transform="translate(5.125 6.599)">
          <path id="Path_360" data-name="Path 360" d="M474.332,358.456a.541.541,0,1,1-.538-.482.512.512,0,0,1,.538.482" transform="translate(-473.256 -357.974)" fill="#fff"/>
        </g>
        <g id="Group_654" data-name="Group 654" transform="translate(6.529 6.599)">
          <path id="Path_361" data-name="Path 361" d="M477.361,358.456a.542.542,0,1,1-.539-.482.513.513,0,0,1,.539.482" transform="translate(-476.284 -357.974)" fill="#fff"/>
        </g>
        <g id="Group_655" data-name="Group 655" transform="translate(9.743 6.599)">
          <path id="Path_362" data-name="Path 362" d="M484.3,358.456a.541.541,0,1,1-.538-.482.512.512,0,0,1,.538.482" transform="translate(-483.219 -357.974)" fill="#fff"/>
        </g>
        <g id="Group_656" data-name="Group 656" transform="translate(38.536 6.599)">
          <path id="Path_363" data-name="Path 363" d="M546.415,358.456a.542.542,0,1,1-.538-.482.512.512,0,0,1,.538.482" transform="translate(-545.338 -357.974)" fill="#fff"/>
        </g>
        <g id="Group_657" data-name="Group 657" transform="translate(83.365 6.599)">
          <path id="Path_364" data-name="Path 364" d="M643.133,358.456a.542.542,0,1,1-.538-.482.512.512,0,0,1,.538.482" transform="translate(-642.056 -357.974)" fill="#fff"/>
        </g>
        <g id="Group_658" data-name="Group 658" transform="translate(84.747 6.599)">
          <path id="Path_365" data-name="Path 365" d="M646.115,358.456a.542.542,0,1,1-.538-.482.512.512,0,0,1,.538.482" transform="translate(-645.038 -357.974)" fill="#fff"/>
        </g>
        <g id="Group_659" data-name="Group 659" transform="translate(1.439 0.445)">
          <path id="Path_366" data-name="Path 366" d="M466.379,345.178a.542.542,0,1,1-.538-.482.512.512,0,0,1,.538.482" transform="translate(-465.303 -344.696)" fill="#fff"/>
        </g>
        <g id="Group_660" data-name="Group 660" transform="translate(74.881 9.885)">
          <path id="Path_367" data-name="Path 367" d="M624.322,365.348a.285.285,0,1,1-.286-.285.286.286,0,0,1,.286.285" transform="translate(-623.751 -365.063)" fill="#fff"/>
        </g>
        <g id="Group_661" data-name="Group 661" transform="translate(50.958 9.885)">
          <path id="Path_368" data-name="Path 368" d="M572.71,365.348a.285.285,0,1,1-.285-.285.286.286,0,0,1,.285.285" transform="translate(-572.139 -365.063)" fill="#fff"/>
        </g>
        <g id="Group_662" data-name="Group 662" transform="translate(12.175 9.885)">
          <path id="Path_369" data-name="Path 369" d="M489.037,365.348a.286.286,0,1,1-.286-.285.286.286,0,0,1,.286.285" transform="translate(-488.466 -365.063)" fill="#fff"/>
        </g>
      </g>
    </g>
  </g>
</svg>
