<svg id="arrowhead-right" xmlns="http://www.w3.org/2000/svg" width="24" height="24" viewBox="0 0 24 24">
  <rect id="Rectangle_11267" data-name="Rectangle 11267" width="24" height="24" transform="translate(0 24) rotate(-90)" fill="#007167" opacity="0"/>
  <path id="Path_6580" data-name="Path 6580" d="M18.78,11.37,14,5.37a1,1,0,1,0-1.56,1.26L16.71,12l-4.48,5.37a1,1,0,0,0,1.54,1.27l5-6a1,1,0,0,0,.01-1.27Z" fill="#007167"/>
  <path id="Path_6581" data-name="Path 6581" d="M7,5.37A1.022,1.022,0,1,0,5.39,6.63L9.71,12,5.23,17.36a1,1,0,0,0,1.54,1.28l5-6a1,1,0,0,0,0-1.27Z" fill="#007167"/>
</svg>
