<svg xmlns="http://www.w3.org/2000/svg" xmlns:xlink="http://www.w3.org/1999/xlink" width="560.935" height="528.961" viewBox="0 0 560.935 528.961">
  <defs>
    <clipPath id="clip-path">
      <rect id="Rectangle_4" data-name="Rectangle 4" width="441.749" height="368.585" transform="translate(0)" fill="none"/>
    </clipPath>
  </defs>
  <g id="art" transform="matrix(0.891, -0.454, 0.454, 0.891, 42.624, 178.832)" opacity="0.2">
    <g id="Group_124" data-name="Group 124" transform="translate(-47.838 0)" clip-path="url(#clip-path)">
      <g id="Group_55" data-name="Group 55" transform="translate(422.205 237.823)">
        <path id="Path_118" data-name="Path 118" d="M504.935,574.165a1.722,1.722,0,0,0,1.695-1.431c.361-2.094.616-4.215.863-6.266.1-.83.2-1.661.307-2.49.35-2.882.709-5.848.9-8.823.223-2.9.428-5.816.612-8.735.117-3.042.186-6.033.246-8.817l.026-1.329c.021-1.034.045-2.067.031-3.1l-.084-4.38c-.022-.813-.041-1.61-.059-2.4-.049-2.1-.1-4.266-.241-6.412q-.285-4.365-.625-8.733c-.085-1.269-.218-2.637-.433-4.416l-.511-4.334a1.722,1.722,0,1,0-3.42.4l.511,4.337c.208,1.722.336,3.033.418,4.257.227,2.916.434,5.813.624,8.711.138,2.073.186,4.2.234,6.264q.027,1.2.06,2.409l.083,4.353c.012.982-.009,1.977-.031,2.971l-.027,1.342c-.058,2.758-.128,5.73-.241,8.7-.184,2.861-.387,5.764-.609,8.667-.186,2.9-.54,5.817-.881,8.639-.106.826-.208,1.666-.308,2.5-.242,2.01-.492,4.086-.839,6.1a1.723,1.723,0,0,0,1.407,1.987A1.662,1.662,0,0,0,504.935,574.165Z" transform="translate(-503.21 -500.974)" fill="#ddb899"/>
      </g>
      <g id="Group_56" data-name="Group 56" transform="translate(37.102 25.651)">
        <path id="Path_119" data-name="Path 119" d="M791.4,318.992a3.419,3.419,0,0,0,1.871-.555,239.167,239.167,0,0,1,117.523-38.209,3.445,3.445,0,1,0-.359-6.88,246.082,246.082,0,0,0-120.914,39.311,3.445,3.445,0,0,0,1.878,6.333Z" transform="translate(-787.951 -273.344)" fill="#d3d3d3"/>
      </g>
      <g id="Group_57" data-name="Group 57" transform="translate(142.028 14.996)">
        <path id="Path_120" data-name="Path 120" d="M802.6,271.412a1.722,1.722,0,0,0,.372-3.4,254.582,254.582,0,0,0-42.073-5.772,260.807,260.807,0,0,0-42.328,1.329,1.722,1.722,0,1,0,.388,3.423,257.514,257.514,0,0,1,41.766-1.312,251.291,251.291,0,0,1,41.5,5.694A1.72,1.72,0,0,0,802.6,271.412Z" transform="translate(-717.039 -261.912)" fill="#c48e61"/>
      </g>
      <g id="Group_58" data-name="Group 58" transform="translate(214.793 3.898)">
        <path id="Path_121" data-name="Path 121" d="M726.845,262.483a3.444,3.444,0,0,0,.894-6.77l-6.179-1.666q-.045-.013-.089-.022c-1.945-.469-3.9-.907-5.85-1.344l-6.709-1.464c-1.7-.337-3.349-.623-4.993-.909l-1.435-.25a3.444,3.444,0,1,0-1.193,6.784l1.448.253c1.593.277,3.186.554,4.772.867l6.6,1.441c1.9.427,3.8.853,5.7,1.309l6.134,1.652A3.444,3.444,0,0,0,726.845,262.483Z" transform="translate(-698.443 -250.006)" fill="#adadad"/>
      </g>
      <g id="Group_59" data-name="Group 59" transform="translate(294.17 32.574)">
        <path id="Path_122" data-name="Path 122" d="M643.045,304.928a1.722,1.722,0,0,0,1-3.122l-.479-.344c-2.463-1.764-5.01-3.587-7.56-5.328-2.771-1.811-5.552-3.6-8.3-5.333-2.349-1.529-4.833-2.952-7.235-4.329l-1.271-.729c-.708-.4-1.4-.791-2.089-1.185-2.14-1.219-4.353-2.48-6.63-3.607a1.722,1.722,0,1,0-1.529,3.085c2.189,1.084,4.357,2.319,6.455,3.515.7.4,1.392.793,2.092,1.186l1.261.723c2.36,1.353,4.8,2.752,7.088,4.239,2.749,1.738,5.516,3.517,8.242,5.3,2.49,1.7,5.021,3.512,7.469,5.265l.479.343A1.707,1.707,0,0,0,643.045,304.928Z" transform="translate(-608.002 -280.771)" fill="#c48e61"/>
      </g>
      <g id="Group_60" data-name="Group 60" transform="translate(296.205 47.439)">
        <path id="Path_123" data-name="Path 123" d="M642.309,308.365a1.723,1.723,0,0,0,.927-3.176l-6.64-4.226c-1.709-1.053-3.453-2.049-5.14-3.012l-1.747-1a1.722,1.722,0,1,0-1.719,2.985l1.758,1.007c1.662.948,3.38,1.929,5.019,2.94l6.619,4.212A1.716,1.716,0,0,0,642.309,308.365Z" transform="translate(-627.128 -296.72)" fill="#c48e61"/>
      </g>
      <g id="Group_61" data-name="Group 61" transform="translate(351.277 128.202)">
        <path id="Path_124" data-name="Path 124" d="M583.453,401.259a1.722,1.722,0,0,0,1.418-2.7l-5.034-7.338c-1.421-1.966-2.885-3.884-4.3-5.74l-1.1-1.44a1.722,1.722,0,0,0-2.742,2.085l1.1,1.445c1.4,1.838,2.852,3.738,4.222,5.633l5.01,7.3A1.72,1.72,0,0,0,583.453,401.259Z" transform="translate(-571.345 -383.367)" fill="#ddb899"/>
      </g>
      <g id="Group_62" data-name="Group 62" transform="translate(364.702 83.958)">
        <path id="Path_125" data-name="Path 125" d="M568.993,351.84A1.723,1.723,0,0,0,570.3,349c-.5-.586-1-1.177-1.495-1.767-1.291-1.534-2.628-3.121-4.02-4.634l-5.705-6.15a1.722,1.722,0,1,0-2.525,2.343l5.7,6.143c1.337,1.453,2.648,3.011,3.916,4.516q.752.895,1.509,1.784A1.72,1.72,0,0,0,568.993,351.84Z" transform="translate(-556.096 -335.899)" fill="#c48e61"/>
      </g>
      <g id="Group_63" data-name="Group 63" transform="translate(381.081 217.306)">
        <path id="Path_126" data-name="Path 126" d="M552.032,495.356a1.787,1.787,0,0,0,.27-.021,1.723,1.723,0,0,0,1.433-1.969c-.361-2.281-.861-4.57-1.3-6.59l-.189-.869c-.408-1.873-.817-3.747-1.251-5.614a1.722,1.722,0,1,0-3.354.781c.431,1.851.835,3.709,1.241,5.565l.19.871c.431,1.974.921,4.211,1.265,6.391A1.723,1.723,0,0,0,552.032,495.356Z" transform="translate(-547.591 -478.963)" fill="#c48e61"/>
      </g>
      <g id="Group_64" data-name="Group 64" transform="translate(48.217 41.034)">
        <path id="Path_127" data-name="Path 127" d="M804.37,327.424a1.714,1.714,0,0,0,.917-.266,226.5,226.5,0,0,1,97.12-33.879,1.723,1.723,0,1,0-.377-3.424,229.947,229.947,0,0,0-98.58,34.391,1.722,1.722,0,0,0,.92,3.178Z" transform="translate(-802.646 -289.847)" fill="#ddb899"/>
      </g>
      <g id="Group_65" data-name="Group 65" transform="translate(41.317 88.312)">
        <path id="Path_128" data-name="Path 128" d="M881.377,368.149a3.439,3.439,0,0,0,2.161-.763,199.845,199.845,0,0,1,30.606-20.338,3.444,3.444,0,0,0-3.268-6.064,206.731,206.731,0,0,0-31.664,21.041,3.445,3.445,0,0,0,2.165,6.125Z" transform="translate(-877.93 -340.571)" fill="#d3d3d3"/>
      </g>
      <g id="Group_66" data-name="Group 66" transform="translate(192.9 66.532)">
        <path id="Path_129" data-name="Path 129" d="M752.451,324.517a1.722,1.722,0,0,0,.368-3.4l-5.7-1.254-5.816-1.02c-3.5-.655-7.088-1.082-10.554-1.494l-1.084-.129a1.722,1.722,0,0,0-.41,3.419l1.087.131c3.411.405,6.939.825,10.348,1.461l5.762,1.009,5.627,1.24A1.676,1.676,0,0,0,752.451,324.517Z" transform="translate(-727.739 -317.203)" fill="#c48e61"/>
      </g>
      <g id="Group_67" data-name="Group 67" transform="translate(164.79 89.043)">
        <path id="Path_130" data-name="Path 130" d="M777.988,356.973a3.445,3.445,0,0,0,1.067-6.72,177.6,177.6,0,0,0-60.454-8.846,3.444,3.444,0,1,0,.167,6.886A170.773,170.773,0,0,1,776.92,356.8,3.446,3.446,0,0,0,777.988,356.973Z" transform="translate(-715.24 -341.354)" fill="#dcdcdc"/>
      </g>
      <g id="Group_68" data-name="Group 68" transform="translate(269.13 120.65)">
        <path id="Path_131" data-name="Path 131" d="M667.278,449.105a2.3,2.3,0,0,0,2.066-3.3,179.064,179.064,0,0,0-26-39.142A176.991,176.991,0,0,0,626.672,390a180.775,180.775,0,0,0-18.56-14.329,2.3,2.3,0,1,0-2.609,3.78,176.734,176.734,0,0,1,18.137,14A172.631,172.631,0,0,1,639.9,409.7a174.475,174.475,0,0,1,25.313,38.109A2.294,2.294,0,0,0,667.278,449.105Z" transform="translate(-604.512 -375.264)" fill="#1b8c7f"/>
      </g>
      <g id="Group_69" data-name="Group 69" transform="translate(336.681 207.983)">
        <path id="Path_132" data-name="Path 132" d="M597.182,523.814c.086,0,.171,0,.259-.01a3.442,3.442,0,0,0,3.179-3.689l-.132-1.844c-.1-1.444-.2-2.887-.332-4.328l-.011-.1-.729-6.094c-.165-1.614-.442-3.241-.709-4.813l-.235-1.4c-.12-.672-.222-1.292-.325-1.912-.233-1.417-.473-2.884-.826-4.365l-1.3-5.934c-.338-1.443-.712-2.817-1.072-4.146-.175-.642-.349-1.285-.518-1.928l-.809-2.986c-.013-.049-.027-.1-.043-.146l-.931-2.924c-.211-.646-.409-1.27-.607-1.893-.42-1.323-.855-2.688-1.335-4.045a3.444,3.444,0,0,0-6.494,2.3c.444,1.252.842,2.506,1.265,3.836q.3.959.615,1.917l.9,2.83.782,2.888c.168.638.347,1.3.527,1.959.361,1.331.7,2.589,1,3.864l1.3,5.942c.309,1.307.521,2.591.745,3.952.108.653.215,1.308.333,1.958l.233,1.388c.26,1.53.506,2.973.653,4.417l.729,6.1c.123,1.381.22,2.765.318,4.147l.135,1.87A3.443,3.443,0,0,0,597.182,523.814Z" transform="translate(-584.017 -468.961)" fill="#adadad"/>
      </g>
      <g id="Group_70" data-name="Group 70" transform="translate(303.818 138.414)">
        <path id="Path_133" data-name="Path 133" d="M633.7,421.472a1.722,1.722,0,0,0,1.409-2.71,193.736,193.736,0,0,0-19.788-23.918,1.722,1.722,0,0,0-2.468,2.4,190.153,190.153,0,0,1,19.434,23.492A1.723,1.723,0,0,0,633.7,421.472Z" transform="translate(-612.362 -394.323)" fill="#c48e61"/>
      </g>
      <g id="Group_71" data-name="Group 71" transform="translate(250.308 94.649)">
        <path id="Path_134" data-name="Path 134" d="M687.865,377.267A3.445,3.445,0,0,0,690,371.12,197.991,197.991,0,0,0,652.4,347.7a3.444,3.444,0,0,0-2.959,6.221,191.038,191.038,0,0,1,36.3,22.6A3.429,3.429,0,0,0,687.865,377.267Z" transform="translate(-647.472 -347.369)" fill="#ececec"/>
      </g>
      <g id="Group_72" data-name="Group 72" transform="translate(291.726 227.94)">
        <path id="Path_135" data-name="Path 135" d="M647.774,510.443a1.723,1.723,0,0,0,1.684-2.092l-.924-4.2c-.057-.254-.109-.5-.16-.747-.1-.474-.2-.946-.319-1.414l-.572-2.1c-.15-.535-.286-1.059-.423-1.583-.225-.858-.457-1.748-.734-2.629l-1.32-4.109a1.722,1.722,0,1,0-3.278,1.054l1.316,4.1c.247.79.46,1.6.683,2.459.142.544.284,1.089.437,1.63l.561,2.062c.1.4.189.816.277,1.237.056.263.11.528.17.789l.921,4.2A1.723,1.723,0,0,0,647.774,510.443Z" transform="translate(-641.645 -490.371)" fill="#c48e61"/>
      </g>
      <g id="Group_73" data-name="Group 73" transform="translate(273.994 218.779)">
        <path id="Path_136" data-name="Path 136" d="M664.226,542.05a3.445,3.445,0,0,0,3.437-3.26,123.627,123.627,0,0,0-1.936-28.738,124.949,124.949,0,0,0-8.742-27.475A3.445,3.445,0,0,0,650.7,485.4a117.988,117.988,0,0,1,8.258,25.923,116.693,116.693,0,0,1,1.828,27.1,3.442,3.442,0,0,0,3.255,3.623C664.1,542.048,664.165,542.05,664.226,542.05Z" transform="translate(-650.397 -480.542)" fill="#d3d3d3"/>
      </g>
      <g id="Group_74" data-name="Group 74" transform="translate(321.046 131.88)">
        <path id="Path_137" data-name="Path 137" d="M612.606,435.315a3.445,3.445,0,0,0,3.046-5.046,210.979,210.979,0,0,0-28.8-41.8,3.444,3.444,0,0,0-5.154,4.57,204.053,204.053,0,0,1,27.862,40.43A3.444,3.444,0,0,0,612.606,435.315Z" transform="translate(-580.827 -387.313)" fill="#d3d3d3"/>
      </g>
      <g id="Group_75" data-name="Group 75" transform="translate(124.741 209.509)">
        <path id="Path_138" data-name="Path 138" d="M790.08,494.229a1.718,1.718,0,0,0,1.314-.609,60.16,60.16,0,0,1,15.041-12.669,61.53,61.53,0,0,1,18.622-6.943,1.722,1.722,0,0,0-.667-3.379,65.01,65.01,0,0,0-19.7,7.35,63.622,63.622,0,0,0-15.928,13.415,1.723,1.723,0,0,0,1.312,2.835Z" transform="translate(-788.359 -470.598)" fill="#e9ceb9"/>
      </g>
      <g id="Group_76" data-name="Group 76" transform="translate(0 20.983)">
        <path id="Path_139" data-name="Path 139" d="M839.349,331.814a2.284,2.284,0,0,0,1.579-.63c1.51-1.429,3.148-2.815,4.734-4.157l2.809-2.37c1.492-1.256,3.035-2.556,4.578-3.77l7.377-5.625c.717-.541,1.432-1.082,2.165-1.6l3.3-2.288c2.34-1.608,4.461-3.062,6.625-4.5l10.207-6.285,3.44-1.923,7.041-3.852c2.23-1.135,4.586-2.286,6.867-3.4l3.854-1.86c.79-.369,1.615-.728,2.439-1.087l1.164-.51,7.36-3.15c1.924-.776,3.957-1.537,5.924-2.273l1.479-.556c4.1-1.592,8.365-2.94,12.494-4.243l2.608-.827c1.869-.567,3.836-1.1,5.738-1.608l2.642-.71c2.262-.6,4.6-1.228,6.9-1.711a2.3,2.3,0,0,0-.944-4.5c-2.421.509-4.821,1.15-7.142,1.77l-2.649.712c-1.937.522-3.941,1.06-5.91,1.658l-2.627.831c-4.2,1.326-8.538,2.7-12.751,4.334l-1.449.543c-1.994.747-4.055,1.518-6.076,2.335l-8.594,3.689c-.863.375-1.726.75-2.578,1.15l-3.9,1.882c-2.3,1.121-4.672,2.282-7,3.465l-10.649,5.87-3.512,2.131-6.862,4.256c-2.253,1.494-4.39,2.959-6.756,4.586l-3.319,2.3c-.787.555-1.544,1.126-2.3,1.7l-1,.748-6.427,4.911c-1.628,1.283-3.2,2.606-4.721,3.887l-2.818,2.378c-1.634,1.381-3.322,2.81-4.925,4.329a2.3,2.3,0,0,0,1.579,3.963Z" transform="translate(-837.053 -268.336)" fill="#1b8c7f"/>
      </g>
      <g id="Group_77" data-name="Group 77" transform="translate(1.665 25.381)">
        <path id="Path_140" data-name="Path 140" d="M896.021,313.053a1.709,1.709,0,0,0,1.117-.413c1.71-1.461,3.545-2.863,5.319-4.22l1.452-1.113c.614-.462,1.243-.94,1.871-1.419,1.641-1.25,3.341-2.543,5.047-3.727l.832-.578c4.394-3.048,8.937-6.2,13.573-8.981a262.9,262.9,0,0,1,30.48-16.26,1.722,1.722,0,0,0-1.436-3.13,265.768,265.768,0,0,0-30.846,16.457c-4.7,2.82-9.293,6-13.733,9.084l-.834.578c-1.769,1.229-3.5,2.545-5.169,3.817q-.935.71-1.871,1.419l-1.458,1.117c-1.811,1.385-3.684,2.816-5.465,4.338a1.722,1.722,0,0,0,1.119,3.031Z" transform="translate(-894.298 -273.055)" fill="#c48e61"/>
      </g>
      <g id="Group_78" data-name="Group 78" transform="translate(139.895 51.982)">
        <path id="Path_141" data-name="Path 141" d="M799.938,337.725a2.3,2.3,0,0,0,1.191-4.261,218.051,218.051,0,0,0-144.143-29.719,2.3,2.3,0,0,0,.643,4.548,213.452,213.452,0,0,1,141.122,29.1A2.286,2.286,0,0,0,799.938,337.725Z" transform="translate(-655.011 -301.594)" fill="#005f54"/>
      </g>
      <g id="Group_79" data-name="Group 79" transform="translate(84.266 243.236)">
        <path id="Path_142" data-name="Path 142" d="M869.206,578.731a2.3,2.3,0,0,0,2-3.424A84.918,84.918,0,0,1,860.885,543.2a83.279,83.279,0,0,1,3.061-33.44,2.3,2.3,0,0,0-4.387-1.354,87.9,87.9,0,0,0-3.237,35.3A89.508,89.508,0,0,0,867.2,577.562,2.3,2.3,0,0,0,869.206,578.731Z" transform="translate(-855.782 -506.782)" fill="#1b8c7f"/>
      </g>
      <g id="Group_80" data-name="Group 80" transform="translate(73.153 216.503)">
        <path id="Path_143" data-name="Path 143" d="M868.658,512.053a3.445,3.445,0,0,0,3.331-2.584A94.165,94.165,0,0,1,882.773,483.3a3.444,3.444,0,1,0-5.927-3.509,100.952,100.952,0,0,0-11.524,27.955,3.448,3.448,0,0,0,3.337,4.306Z" transform="translate(-865.211 -478.101)" fill="#dcdcdc"/>
      </g>
      <g id="Group_81" data-name="Group 81" transform="translate(219.441 214.329)">
        <path id="Path_144" data-name="Path 144" d="M723.253,535.289a2.3,2.3,0,0,0,2.295-2.252,75.478,75.478,0,0,0-6.242-31.108,73.35,73.35,0,0,0-18.2-25.571,2.3,2.3,0,0,0-3.075,3.411,68.781,68.781,0,0,1,17.062,23.983,70.836,70.836,0,0,1,5.867,29.2,2.3,2.3,0,0,0,2.251,2.34Z" transform="translate(-697.27 -475.769)" fill="#7bbbb1"/>
      </g>
      <g id="Group_82" data-name="Group 82" transform="translate(240.746 216.643)">
        <path id="Path_145" data-name="Path 145" d="M701.495,497.849a2.3,2.3,0,0,0,2.087-3.25,88.713,88.713,0,0,0-9.03-15.406,2.3,2.3,0,1,0-3.71,2.708,84.008,84.008,0,0,1,8.562,14.606A2.3,2.3,0,0,0,701.495,497.849Z" transform="translate(-690.4 -478.251)" fill="#005f54"/>
      </g>
      <g id="Group_83" data-name="Group 83" transform="translate(213.214 192.173)">
        <path id="Path_146" data-name="Path 146" d="M730.412,469.418a2.3,2.3,0,0,0,1.6-3.942A88.069,88.069,0,0,0,714.265,452.3a2.3,2.3,0,1,0-2.28,3.987,83.483,83.483,0,0,1,16.825,12.479A2.29,2.29,0,0,0,730.412,469.418Z" transform="translate(-710.829 -451.998)" fill="#7bbbb1"/>
      </g>
      <g id="Group_84" data-name="Group 84" transform="translate(108.928 193.988)">
        <path id="Path_147" data-name="Path 147" d="M827.494,470.271a2.294,2.294,0,0,0,1.612-.661,84.028,84.028,0,0,1,14.573-11.419,2.3,2.3,0,0,0-2.427-3.9,88.635,88.635,0,0,0-15.368,12.047,2.3,2.3,0,0,0,1.611,3.933Z" transform="translate(-825.198 -453.946)" fill="#005f54"/>
      </g>
      <g id="Group_85" data-name="Group 85" transform="translate(170.095 103.279)">
        <path id="Path_148" data-name="Path 148" d="M774.374,368.614a2.3,2.3,0,0,0,.665-4.494,174.069,174.069,0,0,0-24.469-5.619,181.247,181.247,0,0,0-25.032-1.874h-.012a2.3,2.3,0,0,0-.011,4.592,176.672,176.672,0,0,1,24.383,1.823,169.687,169.687,0,0,1,23.809,5.471A2.3,2.3,0,0,0,774.374,368.614Z" transform="translate(-723.229 -356.628)" fill="#7bbbb1"/>
      </g>
      <g id="Group_86" data-name="Group 86" transform="translate(163.979 117.635)">
        <path id="Path_149" data-name="Path 149" d="M781.931,383.246a.574.574,0,0,0,.206-1.11,152.673,152.673,0,0,0-62.485-9.891.574.574,0,0,0-.542.6.59.59,0,0,0,.6.542,151.473,151.473,0,0,1,62.012,9.816A.589.589,0,0,0,781.931,383.246Z" transform="translate(-719.109 -372.03)" fill="#adadad"/>
      </g>
      <g id="Group_87" data-name="Group 87" transform="translate(221.461 139.3)">
        <path id="Path_150" data-name="Path 150" d="M722.739,411.018a.574.574,0,0,0,.321-1.051,142.515,142.515,0,0,0-28.34-14.654.574.574,0,0,0-.41,1.072,141.463,141.463,0,0,1,28.112,14.536A.566.566,0,0,0,722.739,411.018Z" transform="translate(-693.941 -395.273)" fill="#adadad"/>
      </g>
      <g id="Group_88" data-name="Group 88" transform="translate(186.918 40.266)">
        <path id="Path_151" data-name="Path 151" d="M752.218,332.7a1.722,1.722,0,0,0,1.017-3.113c-1.786-1.3-3.654-2.5-5.461-3.661l-.96-.617c-.6-.379-1.183-.755-1.768-1.13-1.537-.984-3.125-2-4.735-2.96l-6.654-3.812c-.375-.208-.728-.408-1.081-.61-.77-.438-1.541-.874-2.329-1.28l-4.949-2.519c-1.747-.885-3.552-1.8-5.361-2.659l-7.041-3.139c-.4-.172-.776-.338-1.155-.505-.806-.357-1.613-.712-2.435-1.036l-5.395-2.094c-1.766-.682-3.592-1.386-5.419-2.032a230.173,230.173,0,0,0-60.376-12.5,1.722,1.722,0,1,0-.229,3.437,226.764,226.764,0,0,1,59.465,12.312c1.774.627,3.576,1.323,5.32,2l5.376,2.087c.772.3,1.537.643,2.3.982q.581.257,1.164.51l6.983,3.113c1.732.824,3.519,1.728,5.247,2.6l4.934,2.513c.743.381,1.47.8,2.2,1.209q.542.309,1.091.615l6.609,3.786c1.536.914,3.1,1.916,4.615,2.886q.884.568,1.771,1.132l.955.613c1.764,1.133,3.589,2.3,5.291,3.545A1.712,1.712,0,0,0,752.218,332.7Z" transform="translate(-636.277 -289.024)" fill="#ddb899"/>
      </g>
      <g id="Group_89" data-name="Group 89" transform="translate(310.306 104.015)">
        <path id="Path_152" data-name="Path 152" d="M624.763,416.4a1.722,1.722,0,0,0,1.483-2.594,217.349,217.349,0,0,0-47.094-55.986,1.722,1.722,0,0,0-2.224,2.628,213.972,213.972,0,0,1,46.348,55.1A1.721,1.721,0,0,0,624.763,416.4Z" transform="translate(-576.318 -357.418)" fill="#ddb899"/>
      </g>
      <g id="Group_90" data-name="Group 90" transform="translate(1.436 62.637)">
        <path id="Path_153" data-name="Path 153" d="M847.85,388.138a1.72,1.72,0,0,0,1.368-.675c2.748-3.586,5.823-7.057,8.8-10.413l1.495-1.689,1.7-1.773c3.042-3.177,6.187-6.461,9.489-9.442,3.634-3.5,7.555-6.762,11.346-9.923l.7-.583,1.423-1.1c3.656-2.832,7.436-5.758,11.327-8.343,3.927-2.785,8.082-5.317,12.1-7.765l1.368-.833,1.385-.77c4.093-2.285,8.325-4.646,12.611-6.661l.356-.173c2.228-1.092,4.532-2.22,6.836-3.181l1.832-.79c1.807-.782,3.676-1.59,5.522-2.333l7.457-2.8c1.288-.494,2.594-.923,3.7-1.277l3.812-1.228a1.722,1.722,0,0,0-1.056-3.279l-3.808,1.227c-1.151.368-2.516.816-3.873,1.338l-7.483,2.81c-1.924.774-3.812,1.591-5.639,2.381l-1.807.78c-2.382.994-4.735,2.145-7.009,3.259l-.331.162c-4.368,2.053-8.655,4.445-12.8,6.757l-1.441.8-1.425.868c-4.071,2.478-8.278,5.042-12.26,7.867-3.95,2.624-7.781,5.591-11.485,8.459l-2.22,1.761c-3.838,3.2-7.805,6.506-11.489,10.049-3.354,3.028-6.544,6.359-9.628,9.579l-1.748,1.821-1.541,1.739c-3.014,3.4-6.131,6.918-8.954,10.6a1.722,1.722,0,0,0,1.366,2.77Z" transform="translate(-846.128 -313.024)" fill="#ddb899"/>
      </g>
      <g id="Group_91" data-name="Group 91" transform="translate(31.561 107.503)">
        <path id="Path_154" data-name="Path 154" d="M887.115,395.48a1.717,1.717,0,0,0,1.232-.518q1.016-1.04,2.023-2.09c2.084-2.161,4.239-4.4,6.49-6.417l1.23-1.146c1.071-1,2.141-2,3.231-2.973l6.934-5.834,7.193-5.472,7.442-5.113c.518-.344,1.067-.68,1.615-1.018.3-.186.6-.372.905-.56a1.723,1.723,0,0,0-1.833-2.917c-.29.183-.583.364-.875.543-.582.358-1.165.717-1.734,1.094l-7.538,5.181-7.325,5.572-7.04,5.923c-1.146,1.023-2.235,2.039-3.324,3.055l-1.2,1.119c-2.322,2.085-4.521,4.366-6.648,6.57q-1,1.039-2.008,2.072a1.722,1.722,0,0,0,1.231,2.927Z" transform="translate(-885.394 -361.159)" fill="#ddb899"/>
      </g>
      <g id="Group_92" data-name="Group 92" transform="translate(236.968 131.689)">
        <path id="Path_155" data-name="Path 155" d="M703.852,419.689a1.722,1.722,0,0,0,1.188-2.969c-.54-.514-1.072-1.036-1.6-1.558-.965-.947-1.962-1.927-3-2.855l-4.76-4.182-.961-.776c-2.959-2.383-6.02-4.847-9.239-7.049l-2.547-1.819c-.615-.414-1.2-.786-1.784-1.157l-3.613-2.311c-.791-.518-1.757-1.135-2.806-1.707l-5.464-3.119-5.722-2.894a1.722,1.722,0,0,0-1.553,3.073l5.645,2.853,5.416,3.094c.971.529,1.864,1.1,2.612,1.589l3.639,2.328c.558.355,1.119.71,1.668,1.079l2.533,1.812c3.138,2.146,6.145,4.567,9.052,6.909l.906.729,4.694,4.126c.971.866,1.938,1.815,2.874,2.733.544.535,1.089,1.069,1.64,1.595A1.714,1.714,0,0,0,703.852,419.689Z" transform="translate(-661.04 -387.107)" fill="#ddb899"/>
      </g>
      <g id="Group_93" data-name="Group 93" transform="translate(202.488 145.912)">
        <path id="Path_156" data-name="Path 156" d="M739.3,443.5a1.722,1.722,0,0,0,1.262-2.894l-3.133-3.374-3.364-3.275c-.205-.195-.392-.381-.579-.567-.376-.374-.756-.748-1.158-1.1l-3.575-3.137c-.55-.489-1.118-1-1.751-1.469l-3.58-2.839c-.594-.5-1.252-.961-1.888-1.407l-1.925-1.368c-1.655-1.257-3.456-2.4-5.2-3.5-.858-.543-1.716-1.087-2.561-1.648-.033-.021-.064-.041-.1-.061l-4.012-2.29c-.252-.141-.488-.279-.727-.418-.444-.258-.888-.516-1.343-.752l-2.082-1.045c-.532-.258-1.039-.521-1.546-.783-.858-.444-1.744-.9-2.671-1.3l-4.2-1.862c-.67-.322-1.39-.593-2.085-.855l-4.416-1.7c-.493-.186-.98-.342-1.466-.5-.263-.084-.525-.168-.786-.256-.635-.2-1.238-.4-1.841-.6-.859-.287-1.718-.572-2.583-.838l-4.491-1.229a1.722,1.722,0,0,0-.908,3.323l4.44,1.214c.787.242,1.621.52,2.452.8.617.206,1.234.411,1.853.609.251.086.534.176.816.266.43.138.859.274,1.282.433l4.435,1.711c.656.247,1.275.479,1.857.758l4.255,1.888c.831.362,1.628.774,2.472,1.211.533.276,1.066.551,1.605.813l2.042,1.023c.384.2.777.431,1.172.66.255.148.509.3.766.44L710,419.83c.851.563,1.713,1.109,2.575,1.655,1.756,1.112,3.417,2.162,5,3.365l1.93,1.374c.659.461,1.229.858,1.744,1.293l3.658,2.9c.552.413,1.04.849,1.558,1.311l3.609,3.167c.349.3.668.621.989.94.2.2.41.407.619.606l3.288,3.2,3.072,3.312A1.715,1.715,0,0,0,739.3,443.5Z" transform="translate(-675.333 -402.367)" fill="#ddb899"/>
      </g>
      <g id="Group_94" data-name="Group 94" transform="translate(48.347 211.392)">
        <path id="Path_157" data-name="Path 157" d="M896.022,512.457a1.721,1.721,0,0,0,1.7-1.441l.267-1.62c.117-.9.388-2.118.7-3.533l.748-3.454c.131-.523.3-1.116.463-1.724q.181-.647.361-1.318c.111-.4.224-.826.338-1.259.175-.663.351-1.339.559-2.012l1.1-3.367c.444-1.516,1.014-2.974,1.565-4.385.29-.74.575-1.47.838-2.191.292-.834.651-1.63,1-2.4l2.73-5.886.6-1.168c.36-.691.608-1.166.721-1.361a1.723,1.723,0,0,0-2.522-2.309c-.3.261-.378.4-1.256,2.085L904.5,477.9c-.017.031-.031.062-.046.094l-1.931,4.347c-.379.837-.769,1.7-1.1,2.658-.247.678-.523,1.382-.8,2.1-.579,1.48-1.177,3.012-1.646,4.62l-1.1,3.341c-.231.751-.421,1.472-.608,2.181-.109.415-.216.825-.33,1.228-.121.459-.24.886-.356,1.307-.177.636-.348,1.256-.5,1.861l-.755,3.488c-.333,1.5-.619,2.789-.746,3.78l-.257,1.557a1.722,1.722,0,0,0,1.7,2Z" transform="translate(-894.298 -472.618)" fill="#ddb899"/>
      </g>
      <g id="Group_95" data-name="Group 95" transform="translate(366.472 211.508)">
        <path id="Path_158" data-name="Path 158" d="M568.7,508.1c.022,0,.046,0,.069,0a.574.574,0,0,0,.5-.638,207.476,207.476,0,0,0-7.119-34.306.575.575,0,0,0-1.1.328,206.174,206.174,0,0,1,7.081,34.114A.574.574,0,0,0,568.7,508.1Z" transform="translate(-561.029 -472.742)" fill="#adadad"/>
      </g>
      <g id="Group_96" data-name="Group 96" transform="translate(349.024 191.872)">
        <path id="Path_159" data-name="Path 159" d="M586.533,540.1a.575.575,0,0,0,.574-.567l.2-8.312c.016-1.181-.017-2.459-.052-3.813-.015-.629-.033-1.28-.044-1.946-.033-4.124-.4-8.744-.869-14.354l-.968-8.048c-.323-2.141-.7-4.318-1.056-6.425l-.312-1.834A202.68,202.68,0,0,0,576,465.044q-.594-1.577-1.117-2.99c-.968-2.6-1.8-4.853-2.559-6.51l-1.513-3.521a.575.575,0,1,0-1.056.453l1.518,3.533c.745,1.63,1.573,3.861,2.532,6.445.351.945.721,1.943,1.115,2.985A201.259,201.259,0,0,1,582.879,495l.311,1.828c.359,2.1.731,4.275,1.05,6.386l.964,8.01c.469,5.565.831,10.163.862,14.253.013.677.029,1.328.046,1.961.034,1.342.066,2.609.051,3.764l-.171,7.108c-.021.783-.033,1.207-.033,1.216A.575.575,0,0,0,586.533,540.1Z" transform="translate(-569.708 -451.675)" fill="#adadad"/>
      </g>
      <g id="Group_97" data-name="Group 97" transform="translate(135.338 182.492)">
        <path id="Path_160" data-name="Path 160" d="M745.268,450.718a.57.57,0,0,0,.239-.052,88.048,88.048,0,0,1,33.183-7.844,85.826,85.826,0,0,1,33.417,5.406.575.575,0,1,0,.4-1.077,86.666,86.666,0,0,0-33.863-5.477,89.211,89.211,0,0,0-33.619,7.946.574.574,0,0,0,.239,1.1Z" transform="translate(-744.694 -441.612)" fill="#d3d3d3"/>
      </g>
      <g id="Group_98" data-name="Group 98" transform="translate(148.821 191.173)">
        <path id="Path_161" data-name="Path 161" d="M797.4,459.579a2.3,2.3,0,0,0,.785-4.456,73.747,73.747,0,0,0-11.591-2.982l-1.456-.255a12.841,12.841,0,0,0-1.68-.25c-.851-.091-1.785-.207-2.717-.34-.069-.01-.137-.017-.206-.02-.648-.034-1.3-.085-1.943-.135-1.3-.1-2.647-.212-4.041-.188a71.808,71.808,0,0,0-12.005.635,78.118,78.118,0,0,0-11.843,2.438,2.3,2.3,0,1,0,1.318,4.4,73.962,73.962,0,0,1,11.173-2.289,67.632,67.632,0,0,1,11.336-.59c1.266-.015,2.45.077,3.705.175.651.051,1.3.1,1.955.137q1.436.206,2.877.355a9.8,9.8,0,0,1,1.226.188l1.485.262a69.163,69.163,0,0,1,10.838,2.779A2.29,2.29,0,0,0,797.4,459.579Z" transform="translate(-749.067 -450.926)" fill="#7bbbb1"/>
      </g>
      <g id="Group_99" data-name="Group 99" transform="translate(90.059 165.758)">
        <path id="Path_162" data-name="Path 162" d="M787.769,463.886a.572.572,0,0,0,.449-.217,102.621,102.621,0,0,1,32.066-26.853,104.1,104.1,0,0,1,40.239-12.011.576.576,0,0,0,.525-.621.582.582,0,0,0-.621-.524A105.24,105.24,0,0,0,819.74,435.8a103.763,103.763,0,0,0-32.422,27.15.575.575,0,0,0,.45.931Z" transform="translate(-787.194 -423.659)" fill="#d3d3d3"/>
      </g>
      <g id="Group_100" data-name="Group 100" transform="translate(217.108 175.661)">
        <path id="Path_163" data-name="Path 163" d="M726.574,468.746a.574.574,0,0,0,.466-.91,109.055,109.055,0,0,0-17.787-19.19,111.026,111.026,0,0,0-22.145-14.3.574.574,0,1,0-.506,1.031,109.849,109.849,0,0,1,21.913,14.152,107.909,107.909,0,0,1,17.593,18.984A.572.572,0,0,0,726.574,468.746Z" transform="translate(-686.28 -434.283)" fill="#adadad"/>
      </g>
      <g id="Group_101" data-name="Group 101" transform="translate(401.917 133.948)">
        <path id="Path_164" data-name="Path 164" d="M526.869,556.213a.573.573,0,0,0,.569-.512,274.833,274.833,0,0,0,1.3-43.118,271.365,271.365,0,0,0-5.663-42.68,267.288,267.288,0,0,0-31.232-80.087.574.574,0,0,0-.991.581,266.126,266.126,0,0,1,31.1,79.745,270.032,270.032,0,0,1,5.639,42.5,273.746,273.746,0,0,1-1.295,42.935.575.575,0,0,0,.508.634A.512.512,0,0,0,526.869,556.213Z" transform="translate(-490.775 -389.532)" fill="#d3d3d3"/>
      </g>
      <g id="Group_102" data-name="Group 102" transform="translate(337.095 76.631)">
        <path id="Path_165" data-name="Path 165" d="M595.561,428.492a.549.549,0,0,0,.212-.041.573.573,0,0,0,.322-.746,253.731,253.731,0,0,0-71.209-99.529.575.575,0,0,0-.749.872,252.547,252.547,0,0,1,70.89,99.081A.574.574,0,0,0,595.561,428.492Z" transform="translate(-523.938 -328.038)" fill="#adadad"/>
      </g>
      <g id="Group_103" data-name="Group 103" transform="translate(383.783 155.09)">
        <path id="Path_166" data-name="Path 166" d="M544.8,547.689a3.445,3.445,0,0,0,3.433-3.208,245.919,245.919,0,0,0-27.2-130.412,3.444,3.444,0,1,0-6.11,3.178A239.047,239.047,0,0,1,541.358,544.01a3.444,3.444,0,0,0,3.2,3.672C544.638,547.687,544.719,547.689,544.8,547.689Z" transform="translate(-514.535 -412.214)" fill="#adadad"/>
      </g>
      <g id="Group_104" data-name="Group 104" transform="translate(343.183 98.743)">
        <path id="Path_167" data-name="Path 167" d="M587.488,428.565a3.447,3.447,0,0,0,3.145-4.845,243.97,243.97,0,0,0-47.772-70.912,3.444,3.444,0,1,0-4.946,4.794,237.115,237.115,0,0,1,46.424,68.917A3.447,3.447,0,0,0,587.488,428.565Z" transform="translate(-536.945 -351.761)" fill="#adadad"/>
      </g>
      <g id="Group_105" data-name="Group 105" transform="translate(107.842 66.899)">
        <path id="Path_168" data-name="Path 168" d="M812.937,331.26a3.448,3.448,0,0,0,1.044-.163l3.418-1.087,3.457-.952c.682-.18,1.4-.375,2.118-.57,1.654-.449,3.218-.873,4.808-1.238l7.1-1.555c1.533-.338,3.078-.594,4.714-.865.781-.13,1.562-.259,2.341-.4a3.444,3.444,0,0,0-1.205-6.781c-.753.133-1.508.258-2.263.384-1.651.273-3.357.556-5.063.932l-7.134,1.561c-1.756.4-3.46.865-5.105,1.311-.7.191-1.4.381-2.105.566l-3.557.98-.13.038-3.482,1.107a3.445,3.445,0,0,0,1.042,6.728Z" transform="translate(-809.492 -317.597)" fill="#dcdcdc"/>
      </g>
      <g id="Group_106" data-name="Group 106" transform="translate(57.713 102.118)">
        <path id="Path_169" data-name="Path 169" d="M849.758,388.172a3.435,3.435,0,0,0,2.127-.737,191.792,191.792,0,0,1,20.8-14.3,188.918,188.918,0,0,1,22.587-11.12,3.444,3.444,0,0,0-2.607-6.375,195.934,195.934,0,0,0-23.45,11.547,198.294,198.294,0,0,0-21.585,14.834,3.444,3.444,0,0,0,2.132,6.151Z" transform="translate(-846.312 -355.383)" fill="#dcdcdc"/>
      </g>
      <g id="Group_107" data-name="Group 107" transform="translate(129.268 91.613)">
        <path id="Path_170" data-name="Path 170" d="M809.433,353.024a3.509,3.509,0,0,0,.737-.079l5.1-1.112c1.029-.219,2.092-.4,3.217-.582.6-.1,1.194-.2,1.791-.3a3.444,3.444,0,0,0-1.207-6.781c-.569.1-1.139.2-1.709.29-1.151.19-2.342.388-3.542.643l-5.115,1.115a3.445,3.445,0,0,0,.73,6.81Z" transform="translate(-805.992 -344.112)" fill="#adadad"/>
      </g>
      <g id="Group_108" data-name="Group 108" transform="translate(36.292 109.653)">
        <path id="Path_171" data-name="Path 171" d="M819.678,431.053a.575.575,0,0,0,.466-.238c.508-.7,1.008-1.408,1.507-2.114.924-1.309,1.881-2.661,2.869-3.948l4.651-5.868,4.928-5.615c1.092-1.2,2.258-2.393,3.385-3.546.6-.613,1.2-1.227,1.792-1.846A164.4,164.4,0,0,1,916.545,364.6a.574.574,0,0,0-.271-1.116,165.566,165.566,0,0,0-77.817,43.592c-.6.625-1.2,1.237-1.794,1.847-1.134,1.159-2.308,2.358-3.42,3.584l-4.953,5.643-4.673,5.9c-1.009,1.312-1.972,2.673-2.9,3.99-.5.7-.994,1.407-1.5,2.1a.574.574,0,0,0,.464.911Z" transform="translate(-819.104 -363.466)" fill="#adadad"/>
      </g>
      <g id="Group_109" data-name="Group 109" transform="translate(231.444 115.324)">
        <path id="Path_172" data-name="Path 172" d="M710.632,388.225a1.723,1.723,0,0,0,.944-3.164,167.035,167.035,0,0,0-29.657-15.389,1.722,1.722,0,0,0-1.27,3.2,163.557,163.557,0,0,1,29.043,15.072A1.72,1.72,0,0,0,710.632,388.225Z" transform="translate(-679.562 -369.55)" fill="#c48e61"/>
      </g>
      <g id="Group_110" data-name="Group 110" transform="translate(75.5 125.884)">
        <path id="Path_173" data-name="Path 173" d="M839.85,408.385a3.429,3.429,0,0,0,2.084-.7l4.041-3.075,4.19-2.873c.246-.166.512-.35.776-.534.416-.287.831-.577,1.259-.848l2.159-1.33c.519-.313,1.061-.65,1.6-.985.93-.579,1.808-1.125,2.7-1.633.659-.359,1.366-.75,2.075-1.143,2.322-1.285,4.514-2.5,6.8-3.556.045-.021.089-.042.133-.065,2.391-1.232,4.845-2.285,7.444-3.4l1.757-.757a3.444,3.444,0,0,0-2.736-6.32l-1.735.746c-2.572,1.1-5.233,2.243-7.82,3.574-2.489,1.154-4.873,2.474-7.179,3.751q-1.043.577-2.086,1.148c-1.068.6-2.047,1.214-2.995,1.8-.516.322-1.031.642-1.551.956l-2.224,1.371c-.544.345-1.037.685-1.528,1.024-.242.168-.485.336-.727.5l-4.283,2.936c-.047.033-.094.065-.14.1l-4.109,3.128a3.444,3.444,0,0,0,2.089,6.184Z" transform="translate(-836.404 -380.88)" fill="#adadad"/>
      </g>
      <g id="Group_111" data-name="Group 111" transform="translate(147.694 128.44)">
        <path id="Path_174" data-name="Path 174" d="M753.442,386.887a.58.58,0,0,0,.1-.008,141.979,141.979,0,0,1,23.749-2.109,144.818,144.818,0,0,1,23.129,1.863.584.584,0,0,0,.659-.475.576.576,0,0,0-.475-.659,147.54,147.54,0,0,0-23.628-1.876,140.284,140.284,0,0,0-23.629,2.124.575.575,0,0,0,.1,1.141Z" transform="translate(-752.868 -383.622)" fill="#adadad"/>
      </g>
      <g id="Group_112" data-name="Group 112" transform="translate(66.376 151.501)">
        <path id="Path_175" data-name="Path 175" d="M834.694,455.84a3.44,3.44,0,0,0,2.8-1.439,123,123,0,0,1,21.589-22.85c.035-.028.068-.058.1-.087.591-.529,1.265-1.036,1.98-1.571.338-.254.677-.508,1.011-.768.374-.277.8-.6,1.225-.935.642-.5,1.247-.964,1.858-1.387.717-.474,1.483-1,2.249-1.535,1.452-1.008,2.824-1.959,4.253-2.784.537-.323,1.008-.618,1.481-.912.657-.409,1.314-.819,1.983-1.209l3.472-1.9c.215-.117.446-.247.677-.377.323-.183.646-.365.978-.531l5.438-2.648a3.445,3.445,0,0,0-3.024-6.19l-5.454,2.657c-.468.233-.893.471-1.317.709-.2.111-.4.223-.6.332l-3.567,1.956c-.8.468-1.519.913-2.233,1.358-.446.278-.892.556-1.342.829-1.615.931-3.171,2.01-4.675,3.053-.726.5-1.451,1.007-2.187,1.494-.819.565-1.526,1.112-2.209,1.641-.389.3-.778.6-1.173.895-.363.28-.672.512-.981.743-.786.589-1.6,1.2-2.4,1.909a129.836,129.836,0,0,0-22.743,24.1,3.444,3.444,0,0,0,2.8,5.448Z" transform="translate(-831.252 -408.363)" fill="#ececec"/>
      </g>
      <g id="Group_113" data-name="Group 113" transform="translate(79.591 136.006)">
        <path id="Path_176" data-name="Path 176" d="M826.961,419.544a.573.573,0,0,0,.375-.14,141.123,141.123,0,0,1,46.454-26.548.574.574,0,1,0-.369-1.087,142.242,142.242,0,0,0-46.835,26.766.574.574,0,0,0,.375,1.009Z" transform="translate(-826.387 -391.739)" fill="#adadad"/>
      </g>
      <g id="Group_114" data-name="Group 114" transform="translate(130.857 143.656)">
        <path id="Path_177" data-name="Path 177" d="M793.426,407.048a.6.6,0,0,0,.184-.03,129.336,129.336,0,0,1,26.517-5.929.575.575,0,0,0,.505-.636.585.585,0,0,0-.637-.505,130.541,130.541,0,0,0-26.753,5.981.574.574,0,0,0,.184,1.119Z" transform="translate(-792.852 -399.946)" fill="#adadad"/>
      </g>
      <g id="Group_115" data-name="Group 115" transform="translate(273.705 177.77)">
        <path id="Path_178" data-name="Path 178" d="M666.967,475.89a.573.573,0,0,0,.528-.8,132.181,132.181,0,0,0-10.649-20.221,142.547,142.547,0,0,0-13.869-18.133.574.574,0,1,0-.854.768,141.266,141.266,0,0,1,13.759,17.989,131.04,131.04,0,0,1,10.557,20.049A.574.574,0,0,0,666.967,475.89Z" transform="translate(-641.977 -436.546)" fill="#adadad"/>
      </g>
      <g id="Group_116" data-name="Group 116" transform="translate(307.16 181.422)">
        <path id="Path_179" data-name="Path 179" d="M603.01,619.293a3.444,3.444,0,0,0,2.922-1.615c.168-.269.339-.535.511-.8.358-.556.715-1.112,1.049-1.682l1.422-2.489c.331-.591.656-1.157.98-1.722.613-1.068,1.246-2.171,1.847-3.3.468-.938.9-1.792,1.338-2.645,1.272-2.5,2.588-5.081,3.714-7.773a159.618,159.618,0,0,0,7.922-21.661l1.515-5.518c.01-.036.019-.073.028-.109.291-1.214.559-2.433.829-3.651q.21-.958.426-1.915l.21-.949c.143-.636.284-1.271.411-1.909l.495-2.875c.107-.658.217-1.286.328-1.914.216-1.233.44-2.509.61-3.81a181.269,181.269,0,0,0,1.642-22.976A166.334,166.334,0,0,0,606.356,442.1a3.445,3.445,0,0,0-5.859,3.625,159.4,159.4,0,0,1,23.821,84.213,174.512,174.512,0,0,1-1.58,22.1c-.153,1.179-.354,2.326-.568,3.539-.116.655-.23,1.311-.338,1.967l-.474,2.76c-.1.5-.229,1.076-.359,1.654l-.214.966c-.14.621-.283,1.271-.427,1.921-.255,1.16-.512,2.321-.788,3.477l-1.484,5.4a152.6,152.6,0,0,1-7.581,20.725c-.017.035-.033.072-.049.108-1.032,2.471-2.239,4.844-3.519,7.356-.444.872-.888,1.745-1.324,2.621-.515.967-1.105,1.995-1.7,3.022-.335.585-.67,1.17-1,1.758l-1.391,2.436c-.266.455-.571.926-.877,1.4-.186.291-.373.581-.556.873a3.445,3.445,0,0,0,2.916,5.273Z" transform="translate(-599.569 -440.464)" fill="#d3d3d3"/>
      </g>
      <g id="Group_117" data-name="Group 117" transform="translate(147.752 223.389)">
        <path id="Path_180" data-name="Path 180" d="M799.092,496.245a1.722,1.722,0,0,0,.893-3.2c-.315-.19-.619-.4-.924-.608l-.361-.245a1.559,1.559,0,0,0-.2-.115c-.431-.212-.858-.447-1.27-.7-.118-.066-.182-.109-.247-.151a5.739,5.739,0,0,0-.568-.331l-.749-.347c-.206-.1-.4-.2-.6-.312-.26-.143-.52-.283-.786-.407-.05-.022-.1-.044-.151-.062-.355-.125-.722-.3-1.111-.477a12.665,12.665,0,0,0-1.837-.737c-.1-.034-.248-.1-.393-.167a6.121,6.121,0,0,0-1.134-.41c-.354-.1-.78-.241-1.2-.4a4.991,4.991,0,0,0-1-.3l-.7-.181c-.111-.03-.241-.072-.373-.113a7.4,7.4,0,0,0-1.274-.31c-.431-.083-.868-.187-1.3-.308-.061-.017-.122-.031-.185-.042-.2-.033-.406-.062-.61-.09-.282-.04-.565-.078-.844-.137l-.765-.156a1.7,1.7,0,0,0-.2-.028l-.774-.067c-.215-.016-.415-.049-.614-.081-.32-.05-.639-.1-.964-.118-.472-.01-.865-.044-1.258-.076a16.408,16.408,0,0,0-1.983-.078,47.957,47.957,0,0,0-24.987,6.384,1.722,1.722,0,0,0,1.733,2.977,44.55,44.55,0,0,1,23.22-5.917,1.027,1.027,0,0,0,.12,0,13.168,13.168,0,0,1,1.618.068c.465.037.93.074,1.4.083.14.01.352.047.567.08.289.046.578.089.871.112l.661.058.66.133c.344.071.7.123,1.054.174.148.02.3.042.443.065.513.141,1.031.262,1.543.36.041.008.083.013.125.018a4.4,4.4,0,0,1,.71.185c.172.054.347.108.521.156l.764.2c.031.008.061.015.091.021a2.349,2.349,0,0,1,.363.1c.034.016.069.031.1.044.519.195,1.055.372,1.594.524a3.415,3.415,0,0,1,.59.222,8.076,8.076,0,0,0,.787.313,10.045,10.045,0,0,1,1.392.567c.42.2.854.4,1.33.571.174.085.345.179.515.273.269.147.539.293.815.42l.709.328c.041.02.11.07.182.116.126.08.252.16.382.233.412.251.884.511,1.364.753l.252.172c.357.243.716.487,1.085.711A1.713,1.713,0,0,0,799.092,496.245Z" transform="translate(-749.785 -485.489)" fill="#adadad"/>
      </g>
      <g id="Group_118" data-name="Group 118" transform="translate(199.129 27.214)">
        <path id="Path_181" data-name="Path 181" d="M739.071,310.773a3.444,3.444,0,0,0,1.688-6.448,245.408,245.408,0,0,0-89.026-29.279,3.444,3.444,0,1,0-.848,6.836,238.419,238.419,0,0,1,86.5,28.45A3.44,3.44,0,0,0,739.071,310.773Z" transform="translate(-647.865 -275.021)" fill="#d3d3d3"/>
      </g>
      <g id="Group_119" data-name="Group 119" transform="translate(260.311 236.616)">
        <path id="Path_182" data-name="Path 182" d="M672.04,574.246a3.446,3.446,0,0,0,3.19-2.142,102.226,102.226,0,0,0,2.489-70.042,3.444,3.444,0,0,0-6.553,2.124,95.312,95.312,0,0,1-2.313,65.312,3.445,3.445,0,0,0,3.188,4.747Z" transform="translate(-668.596 -499.679)" fill="#adadad"/>
      </g>
      <g id="Group_120" data-name="Group 120" transform="translate(296.129 183.034)">
        <path id="Path_183" data-name="Path 183" d="M640.292,478.9a3.447,3.447,0,0,0,3.218-4.67,153,153,0,0,0-15.584-30.507,3.444,3.444,0,0,0-5.73,3.823,146.143,146.143,0,0,1,14.875,29.133A3.445,3.445,0,0,0,640.292,478.9Z" transform="translate(-621.618 -442.193)" fill="#adadad"/>
      </g>
      <g id="Group_121" data-name="Group 121" transform="translate(58.583 217.381)">
        <path id="Path_184" data-name="Path 184" d="M884.484,539.549l.081,0a2.3,2.3,0,0,0,2.215-2.375,110.85,110.85,0,0,1,6.259-41.806l1.286-3.316c.092-.235.182-.477.272-.72.115-.309.229-.618.355-.922l2.153-4.853,1.614-3.169a2.3,2.3,0,1,0-4.091-2.087l-1.645,3.229c-.021.04-.039.08-.058.12l-2.189,4.939c-.176.424-.309.783-.444,1.142-.082.218-.163.436-.248.654l-1.309,3.375c-.014.034-.026.07-.038.105a115.479,115.479,0,0,0-6.508,43.469A2.3,2.3,0,0,0,884.484,539.549Z" transform="translate(-882.107 -479.043)" fill="#badcd6"/>
      </g>
      <g id="Group_122" data-name="Group 122" transform="translate(180.682 208.24)">
        <path id="Path_185" data-name="Path 185" d="M761.9,519.329a3.443,3.443,0,0,0,3.373-4.158,25.907,25.907,0,0,0-.789-2.759c-.159-.483-.319-.966-.453-1.458-.023-.088-.051-.174-.082-.26-.12-.332-.249-.661-.379-.99-.121-.308-.244-.615-.352-.927-.07-.191-.107-.3-.144-.412-.083-.243-.168-.487-.263-.725-.021-.051-.042-.1-.064-.15l-.4-.87a58.685,58.685,0,0,0-3.944-7.775c-.026-.047-.055-.092-.084-.138q-.5-.783-.961-1.6c-.061-.106-.126-.21-.2-.309l-.227-.317c-.3-.415-.6-.829-.876-1.256-.018-.028-.036-.055-.054-.081-.051-.074-.1-.15-.146-.226-.164-.261-.333-.519-.52-.762l-.68-.854c-.171-.21-.3-.4-.439-.589a14.727,14.727,0,0,0-.908-1.173c-.351-.389-.652-.751-.954-1.115-.558-.669-1.134-1.362-1.826-2.043a25.907,25.907,0,0,0-1.873-1.929c-.354-.339-.71-.678-1.046-1.034l-.076-.077c-.378-.376-.754-.688-1.084-.963-.188-.156-.378-.311-.556-.478l-.8-.73a7.584,7.584,0,0,0-.809-.652c-.059-.043-.119-.084-.175-.13l-.079-.062q-.762-.583-1.494-1.207c-.074-.063-.149-.123-.228-.18-.263-.188-.53-.372-.8-.555-.3-.207-.6-.413-.9-.631l-.845-.635c-.052-.039-.105-.076-.159-.113-.217-.144-.44-.278-.663-.41-.1-.062-.207-.122-.308-.186-.585-.364-1.132-.723-1.67-1.1a3.48,3.48,0,0,0-.328-.2l-.131-.071c-.535-.288-1.066-.573-1.588-.883l-.88-.531a3.189,3.189,0,0,0-.3-.163l-.942-.446c-.308-.147-.621-.314-.933-.479-.281-.149-.563-.3-.847-.44-.088-.045-.177-.085-.268-.121q-.833-.333-1.642-.708a13.942,13.942,0,0,0-1.812-.756l-.417-.153-.1-.036c-.2-.066-.385-.151-.576-.232a12,12,0,0,0-1.547-.565c-.509-.151-1.071-.336-1.632-.537a9.119,9.119,0,0,0-1.4-.421l-.817-.214a23.1,23.1,0,0,0-2.566-.65c-.495-.1-.991-.206-1.479-.343A3.444,3.444,0,0,0,714.891,476c.676.191,1.314.326,1.934.455a16.8,16.8,0,0,1,1.874.467c.08.028.161.053.243.074l.993.262.137.033a2.81,2.81,0,0,1,.41.113c.049.02.1.038.147.056.719.259,1.44.5,2.142.7a6.306,6.306,0,0,1,.737.281c.337.143.673.282,1.016.4l.446.162a8.516,8.516,0,0,1,.983.394c.054.03.109.057.164.083.639.3,1.29.583,1.937.844.2.1.392.2.588.309.4.21.794.419,1.2.612l.8.377.753.454c.611.363,1.213.69,1.818,1.015q.871.6,1.767,1.157c.13.082.295.181.458.278.1.059.2.117.3.179l.763.572c.375.28.752.539,1.13.8.189.13.379.26.567.392q.8.678,1.63,1.315c.14.111.284.217.429.322.06.043.12.084.176.13l.79.726c.25.235.543.481.835.724.2.17.41.336.6.519.4.423.824.829,1.246,1.232a18.71,18.71,0,0,1,1.455,1.494,3.589,3.589,0,0,0,.267.288,20.528,20.528,0,0,1,1.447,1.623c.363.435.725.869,1.105,1.29.143.162.294.383.45.6.219.307.441.611.677.9l.618.774c.018.027.066.11.117.192.093.148.188.3.287.44.326.5.671.978,1.017,1.461l.115.16c.331.581.677,1.153,1.03,1.7a52.082,52.082,0,0,1,3.491,6.865c.022.057.046.113.071.169l.394.863c.041.108.076.217.114.326.06.177.121.353.186.528.109.32.266.719.422,1.117.089.227.179.453.264.682.156.554.335,1.1.514,1.647a20.283,20.283,0,0,1,.595,2.038A3.445,3.445,0,0,0,761.9,519.329Z" transform="translate(-712.383 -469.236)" fill="#ececec"/>
      </g>
      <g id="Group_123" data-name="Group 123" transform="translate(174.234 152.69)">
        <path id="Path_186" data-name="Path 186" d="M770.142,425.555a2.3,2.3,0,0,0,1-4.364,116.444,116.444,0,0,0-22.816-8.247,117.764,117.764,0,0,0-24.051-3.3,2.3,2.3,0,0,0-.153,4.59,111.05,111.05,0,0,1,45.023,11.1A2.276,2.276,0,0,0,770.142,425.555Z" transform="translate(-721.903 -409.639)" fill="#7bbbb1"/>
      </g>
    </g>
  </g>
</svg>
