<svg xmlns="http://www.w3.org/2000/svg" width="44.236" height="33.015" viewBox="0 0 44.236 33.015">
  <path id="bxs-quote-alt-right" d="M46,13.206l-.055-.37-.057.013A10.161,10.161,0,1,0,37.616,24.7a7.9,7.9,0,0,1-.56,1.5,9.29,9.29,0,0,1-1.034,1.861A10.988,10.988,0,0,1,34.7,29.69a14.991,14.991,0,0,1-1.526,1.332A9.371,9.371,0,0,1,31.6,32.043a8.369,8.369,0,0,1-1.433.772l-1.189.49-1.045.434L29,38.014l1.316-.318c.421-.106.935-.229,1.519-.377a11.962,11.962,0,0,0,1.945-.688,13.8,13.8,0,0,0,2.267-1.03,20.709,20.709,0,0,0,2.406-1.526,17.278,17.278,0,0,0,2.315-2.082,15.459,15.459,0,0,0,2-2.562,17.911,17.911,0,0,0,1.548-2.865,24.428,24.428,0,0,0,1.032-2.946,26.619,26.619,0,0,0,.847-5.374,27.468,27.468,0,0,0-.062-3.852q-.046-.6-.139-1.189Zm-24.257,0-.055-.37-.057.013a9.923,9.923,0,1,0-9.7,12,9.864,9.864,0,0,0,1.433-.143,7.9,7.9,0,0,1-.56,1.5,9.29,9.29,0,0,1-1.034,1.861,10.988,10.988,0,0,1-1.325,1.625,14.991,14.991,0,0,1-1.526,1.332,9.371,9.371,0,0,1-1.574,1.021,8.369,8.369,0,0,1-1.433.772l-1.189.49c-.664.271-1.043.43-1.043.43L4.741,38.01l1.316-.318c.421-.106.935-.229,1.519-.377a11.962,11.962,0,0,0,1.945-.688,13.8,13.8,0,0,0,2.267-1.03,20.71,20.71,0,0,0,2.406-1.526A17.278,17.278,0,0,0,16.51,31.99a15.459,15.459,0,0,0,2-2.562,17.911,17.911,0,0,0,1.548-2.865,24.427,24.427,0,0,0,1.032-2.946,26.619,26.619,0,0,0,.847-5.374,27.468,27.468,0,0,0-.062-3.852q-.049-.594-.141-1.184Z" transform="translate(-1.998 -5)" fill="#007066"/>
</svg>
