<svg xmlns="http://www.w3.org/2000/svg" width="84.493" height="87" viewBox="0 0 84.493 87">
  <g id="Commissions-icon22" transform="translate(-7.377 0)">
    <path id="Path_59377" data-name="Path 59377" d="M370.731,300.407a8.742,8.742,0,1,0-6.61,3.021A8.734,8.734,0,0,0,370.731,300.407Zm-12.8-5.722a6.188,6.188,0,0,1,1.51-4.052h0a6.192,6.192,0,1,1-1.51,4.052Z" transform="translate(-288.868 -237.354)" fill="#012d29"/>
    <path id="Path_59378" data-name="Path 59378" d="M337.437,244.534a16.606,16.606,0,0,0-27.175,17.946,1.275,1.275,0,1,0,2.362-.962,14.067,14.067,0,1,1,24.319,3.1l-6.935,9.563a15.161,15.161,0,0,0-2.561,5.732l-.519,2.4a1.3,1.3,0,0,1-2.543,0l-.519-2.4a15.161,15.161,0,0,0-2.561-5.732l-5.992-8.262a1.275,1.275,0,0,0-2.065,1.5l5.992,8.262a12.623,12.623,0,0,1,2.133,4.774l.519,2.4a3.851,3.851,0,0,0,7.529,0l.519-2.4a12.625,12.625,0,0,1,2.133-4.774L339,266.127a16.576,16.576,0,0,0-1.561-21.592Z" transform="translate(-250.403 -198.891)" fill="#007066"/>
    <path id="Path_59379" data-name="Path 59379" d="M51.734,52.057a7.254,7.254,0,0,0,6.586-10.3,1.275,1.275,0,0,0-2.315,1.07A4.7,4.7,0,1,1,51.734,40.1a4.783,4.783,0,0,1,.719.054,1.275,1.275,0,0,0,.386-2.521,7.334,7.334,0,0,0-1.1-.084,7.255,7.255,0,0,0,0,14.509Z" transform="translate(-30.798 -31.167)" fill="#012d29"/>
    <path id="Path_59380" data-name="Path 59380" d="M15.593,29.732a9.852,9.852,0,0,1,1.665,3.727l.416,1.924a3.338,3.338,0,0,0,6.526,0l.416-1.923a9.853,9.853,0,0,1,1.665-3.727l5.544-7.645A13.575,13.575,0,0,0,21.263.451,13.559,13.559,0,0,0,7.377,14.006a13.436,13.436,0,0,0,2.663,8.069ZM13.245,6.13A10.924,10.924,0,0,1,20.934,3c.089,0,.179,0,.268,0a11.008,11.008,0,0,1,8.565,17.577l-5.553,7.657a12.393,12.393,0,0,0-2.093,4.685l-.416,1.923a.787.787,0,0,1-1.539,0l-.416-1.923a12.39,12.39,0,0,0-2.093-4.685L12.1,20.565A11.008,11.008,0,0,1,13.245,6.13Z" transform="translate(0 -0.37)" fill="#007066"/>
    <path id="Path_59381" data-name="Path 59381" d="M394.31,44.116a1.275,1.275,0,1,0,1.883,1.72l.022-.024c.031-.033.061-.066.089-.1a6.143,6.143,0,0,0-9.264-8.068,1.275,1.275,0,0,0,1.919,1.681,3.592,3.592,0,0,1,5.417,4.718Z" transform="translate(-314.888 -29.508)" fill="#012d29"/>
    <path id="Path_59382" data-name="Path 59382" d="M356.8,6.865a1.275,1.275,0,0,0,1.78-.292,9.632,9.632,0,1,1,15.555,11.364l-1.318,1.818a1.275,1.275,0,1,0,2.065,1.5l1.31-1.806A12.183,12.183,0,1,0,356.507,5.085a1.424,1.424,0,0,0,.089,1.6,1.269,1.269,0,0,0,.2.182Z" transform="translate(-289.634 0)" fill="#007066"/>
    <path id="Path_59383" data-name="Path 59383" d="M76.774,100.77a1.274,1.274,0,0,0-2.226-.856,26.864,26.864,0,0,1-2.512,2.48,35.6,35.6,0,0,1-5.515,1.424,52.893,52.893,0,0,0,3.574-12.364,1.275,1.275,0,1,0-2.509-.459c-1.05,5.743-2.511,10.4-4.14,13.225q-1.6.139-3.221.142c-1.086,0-2.161-.051-3.223-.145-1.879-3.251-3.431-8.688-4.487-15.339,2.524.205,5.1.311,7.71.311,2.414,0,4.852-.091,7.245-.272a1.275,1.275,0,1,0-.191-2.544c-2.329.176-4.7.265-7.053.265-2.742,0-5.448-.121-8.088-.351a137.81,137.81,0,0,1-1.143-16.86H71.677a1.275,1.275,0,0,0,.33-2.506,140.975,140.975,0,0,0-1.077-16.637,76.6,76.6,0,0,1,12,2.345,56.247,56.247,0,0,1,1.693,8.823,1.275,1.275,0,0,0,1.266,1.135,1.294,1.294,0,0,0,.142-.008,1.275,1.275,0,0,0,1.127-1.408A59.184,59.184,0,0,0,85.8,53.522,42.433,42.433,0,0,1,94.92,57.76a36.037,36.037,0,0,1,1.319,6.607,1.275,1.275,0,0,0,2.537-.263A38.794,38.794,0,0,0,48.683,31.138a1.275,1.275,0,1,0,.759,2.435,35.948,35.948,0,0,1,4.489-1.086,58.83,58.83,0,0,0-4.047,15.187c-1.453.159-2.891.348-4.305.575a1.275,1.275,0,1,0,.4,2.519q1.747-.28,3.536-.489-.306,2.388-.53,4.938A1.275,1.275,0,0,0,50.147,56.6c.038,0,.075,0,.113,0a1.275,1.275,0,0,0,1.269-1.164c.164-1.868.366-3.68.6-5.424,2.655-.231,5.361-.352,8.1-.352s5.448.121,8.088.351a137.809,137.809,0,0,1,1.143,16.86H51c.017-2.031.072-4.061.168-6.05a1.275,1.275,0,0,0-2.548-.124c-.1,2.03-.154,4.1-.171,6.173H35.475c.008-.37.02-.75.035-1.146a1.275,1.275,0,1,0-2.549-.1c-.017.431-.029.844-.038,1.246H24.039a36.13,36.13,0,0,1,1.736-9.9,1.275,1.275,0,0,0-2.426-.786,38.777,38.777,0,0,0,53.587,46.943,1.273,1.273,0,0,0-.162-2.363ZM70.566,47.678a58.843,58.843,0,0,0-4.043-15.185,36.112,36.112,0,0,1,5.524,1.429,33.5,33.5,0,0,1,8.147,11.22,46.169,46.169,0,0,1,1.85,4.613,81.5,81.5,0,0,0-11.478-2.077Zm23.022,6.378a51.437,51.437,0,0,0-8.6-3.468A49.874,49.874,0,0,0,82.5,44.062a40.356,40.356,0,0,0-4.471-7.442A36.306,36.306,0,0,1,93.588,54.056ZM60.225,47.114c-2.6,0-5.181.105-7.716.309,1.072-6.7,2.65-12.141,4.5-15.339q1.6-.141,3.22-.143t3.222.144c1.879,3.251,3.431,8.689,4.488,15.341C65.411,47.221,62.833,47.114,60.225,47.114Zm-6.3,56.7a35.9,35.9,0,0,1-5.529-1.436c-4.323-3.724-7.755-9.265-10-15.827a81.559,81.559,0,0,0,11.481,2.076A58.848,58.848,0,0,0,53.929,103.812ZM49.52,86.019a76.584,76.584,0,0,1-12.006-2.346,58.143,58.143,0,0,1-2.041-14.246H48.444A141,141,0,0,0,49.52,86.019ZM24.04,69.427h8.882a61.042,61.042,0,0,0,1.731,13.355,42.456,42.456,0,0,1-9.115-4.235A36.054,36.054,0,0,1,24.04,69.427Zm2.834,12.826a51.47,51.47,0,0,0,8.59,3.461,44.448,44.448,0,0,0,6.925,13.939,36.437,36.437,0,0,1-15.515-17.4Z" transform="translate(-11.694 -24.396)" fill="#cca079"/>
  </g>
</svg>
