<svg xmlns="http://www.w3.org/2000/svg" width="94.499" height="94.61" viewBox="0 0 94.499 94.61">
  <g id="Commissions-icon55" transform="translate(-302.829 -331.014)">
    <circle id="Ellipse_188" data-name="Ellipse 188" cx="33.671" cy="33.671" r="33.671" transform="translate(316.573 358.282)" fill="#bbb" opacity="0.3"/>
    <path id="Path_51156" data-name="Path 51156" d="M317.27,372.114c-2.393-.714-3.774-1.552-3.774-2.45,0-1.82,5.662-3.4,13.934-4.176" transform="translate(10.959 39.418)" fill="none" stroke="#005f54" stroke-linecap="round" stroke-linejoin="round" stroke-width="3"/>
    <path id="Path_51157" data-name="Path 51157" d="M346.239,365.513c7.98.792,13.4,2.34,13.4,4.121,0,2.591-11.473,4.689-25.625,4.689a113.008,113.008,0,0,1-16.242-1.065" transform="translate(16.067 39.448)" fill="none" stroke="#005f54" stroke-linecap="round" stroke-linejoin="round" stroke-width="3"/>
    <path id="Path_51158" data-name="Path 51158" d="M366.319,385.809c-5.047.505-10.52.782-16.242.782-25.267,0-45.749-5.414-45.749-12.095,0-5.453,13.645-10.064,32.4-11.574" transform="translate(0 36.351)" fill="none" stroke="#adadad" stroke-linecap="round" stroke-linejoin="round" stroke-width="3"/>
    <path id="Path_51159" data-name="Path 51159" d="M331.669,362.957c18.277,1.585,31.476,6.134,31.476,11.5,0,4.319-8.556,8.11-21.428,10.248" transform="translate(32.683 36.393)" fill="none" stroke="#adadad" stroke-linecap="round" stroke-linejoin="round" stroke-width="3"/>
    <line id="Line_139" data-name="Line 139" x1="0.553" y1="33.171" transform="translate(359.217 373.896)" fill="none" stroke="#c48e61" stroke-linecap="round" stroke-linejoin="round" stroke-width="3"/>
    <line id="Line_140" data-name="Line 140" y1="33.171" x2="0.555" transform="translate(340.386 373.896)" fill="none" stroke="#c48e61" stroke-linecap="round" stroke-linejoin="round" stroke-width="3"/>
    <path id="Path_51160" data-name="Path 51160" d="M335.213,351.023l1.161,5.649a2.894,2.894,0,0,1-5.658,1.223l-1.388-6.125" transform="translate(29.886 22.126)" fill="none" stroke="#c48e61" stroke-linecap="round" stroke-linejoin="round" stroke-width="3"/>
    <line id="Line_141" data-name="Line 141" x2="2.285" y2="11.12" transform="translate(362.814 362.028)" fill="none" stroke="#c48e61" stroke-linecap="round" stroke-linejoin="round" stroke-width="3"/>
    <path id="Path_51161" data-name="Path 51161" d="M324.875,364.862l-1.388,6.125a2.894,2.894,0,0,1-5.658-1.223l4.975-24.2s1.355-5,8.066-5.5h6.283c6.712.5,8.066,5.5,8.066,5.5L346.745,353" transform="translate(16.068 9.034)" fill="none" stroke="#c48e61" stroke-linecap="round" stroke-linejoin="round" stroke-width="3"/>
    <path id="Path_51162" data-name="Path 51162" d="M334.694,338.683a6.168,6.168,0,1,1-6.169-6.169A6.169,6.169,0,0,1,334.694,338.683Z" transform="translate(21.552)" fill="none" stroke="#c48e61" stroke-linecap="round" stroke-linejoin="round" stroke-width="3"/>
    <line id="Line_142" data-name="Line 142" y1="4.351" transform="translate(350.078 344.852)" fill="none" stroke="#c48e61" stroke-linecap="round" stroke-linejoin="round" stroke-width="3"/>
  </g>
</svg>
