<svg xmlns="http://www.w3.org/2000/svg" width="89.998" height="98" viewBox="0 0 89.998 98">
  <g id="Commissions-icon44" transform="translate(-1)">
    <rect id="Rectangle_16058" data-name="Rectangle 16058" width="67" height="85" rx="8" transform="translate(11 13)" fill="#eaeaea"/>
    <path id="Path_59403" data-name="Path 59403" d="M68.5,75.92v8.807a1.763,1.763,0,0,1-1.758,1.758H6.273a1.763,1.763,0,0,1-1.758-1.758V5.273A1.763,1.763,0,0,1,6.273,3.516h45V15.469a5.289,5.289,0,0,0,5.273,5.273H68.5V35.7A22.736,22.736,0,0,1,72,38.707l.018.018V18.984h0a1.77,1.77,0,0,0-.51-1.248L54.279.51A1.8,1.8,0,0,0,53.031,0H6.273A5.289,5.289,0,0,0,1,5.273V84.727A5.289,5.289,0,0,0,6.273,90H66.742a5.289,5.289,0,0,0,5.273-5.273V79.436ZM54.789,5.994,66,17.227H56.547a1.763,1.763,0,0,1-1.758-1.758Z" fill="#cca079"/>
    <path id="Path_59404" data-name="Path 59404" d="M72.678,280.8H56.858a1.758,1.758,0,0,0,0,3.516h15.82a1.758,1.758,0,0,0,0-3.516Z" transform="translate(-44.59 -231.441)" fill="#91663f"/>
    <path id="Path_59405" data-name="Path 59405" d="M79.129,346H57.508c-1.318,0-2.408.791-2.408,1.758s1.072,1.758,2.408,1.758H79.129c1.318,0,2.408-.791,2.408-1.758S80.448,346,79.129,346Z" transform="translate(-44.59 -285.18)" fill="#91663f"/>
    <path id="Path_59406" data-name="Path 59406" d="M73.815,211.5H56.958a1.758,1.758,0,0,0,0,3.516H73.815a1.758,1.758,0,0,0,0-3.516Z" transform="translate(-44.673 -174.322)" fill="#91663f"/>
    <path id="Path_59407" data-name="Path 59407" d="M182.758,419.5a1.848,1.848,0,0,0-1.248.51,1.74,1.74,0,0,0-.51,1.248,1.848,1.848,0,0,0,.51,1.248,1.74,1.74,0,0,0,1.248.51,1.848,1.848,0,0,0,1.248-.51,1.74,1.74,0,0,0,.51-1.248,1.848,1.848,0,0,0-.51-1.248A1.77,1.77,0,0,0,182.758,419.5Z" transform="translate(-148.359 -345.76)" fill="#91663f"/>
    <path id="Path_59408" data-name="Path 59408" d="M71.846,419.5H56.958a1.758,1.758,0,0,0,0,3.516H71.864a1.758,1.758,0,1,0-.018-3.516Z" transform="translate(-44.673 -345.76)" fill="#91663f"/>
    <path id="Path_59409" data-name="Path 59409" d="M56.858,145.616a1.848,1.848,0,0,0,1.248-.51,1.74,1.74,0,0,0,.51-1.248,1.848,1.848,0,0,0-.51-1.248,1.74,1.74,0,0,0-1.248-.51,1.815,1.815,0,0,0-1.248.51,1.74,1.74,0,0,0-.51,1.248,1.848,1.848,0,0,0,.51,1.248A1.77,1.77,0,0,0,56.858,145.616Z" transform="translate(-44.59 -117.121)" fill="#91663f"/>
    <path id="Path_59410" data-name="Path 59410" d="M125.537,142.1H99.258a1.758,1.758,0,0,0,0,3.516h26.279a1.758,1.758,0,1,0,0-3.516Z" transform="translate(-79.537 -117.121)" fill="#91663f"/>
    <path id="Path_59411" data-name="Path 59411" d="M56.958,76.316H90.673a1.758,1.758,0,0,0,0-3.516H56.958a1.758,1.758,0,0,0,0,3.516Z" transform="translate(-44.673 -60.003)" fill="#91663f"/>
    <g id="Group_25694" data-name="Group 25694" transform="translate(32.711 31.623)">
      <path id="Path_59412" data-name="Path 59412" d="M238.469,222a15.469,15.469,0,1,0,15.469,15.469A15.492,15.492,0,0,0,238.469,222Zm0,27.422a11.953,11.953,0,1,1,11.953-11.953A11.966,11.966,0,0,1,238.469,249.422Z" transform="translate(-215.688 -214.6)" fill="#007066"/>
      <path id="Path_59413" data-name="Path 59413" d="M237.949,228.1l-13.324-13.324-.633-.633-.105-.105c.035-.07.07-.123.105-.193a22.781,22.781,0,0,0-3.164-26.7c0-.018-.018-.018-.035-.035l-.105-.105c0-.018-.018-.018-.018-.035a22.872,22.872,0,0,0-3.5-3.006v.018a22.823,22.823,0,0,0-28.775,2.232c-.105.105-.229.211-.334.334a22.763,22.763,0,0,0,27.352,35.877l5.273,5.273,8.807,8.807a5.96,5.96,0,0,0,8.455-8.4Zm-33.768-5.994a19.338,19.338,0,1,1,14.678-6.75A19.348,19.348,0,0,1,204.181,222.105Zm31.271,11.936a2.462,2.462,0,0,1-3.463,0L218.4,220.4a.536.536,0,0,1,.123-.088c.141-.105.281-.228.4-.334q.712-.606,1.371-1.266a11.973,11.973,0,0,0,1.652-1.617l13.482,13.482A2.446,2.446,0,0,1,235.453,234.041Z" transform="translate(-181.4 -179.9)" fill="#007066"/>
      <path id="Path_59414" data-name="Path 59414" d="M302.758,265a1.758,1.758,0,0,0,0,3.516,4.4,4.4,0,0,1,4.395,4.395,1.758,1.758,0,0,0,3.516,0A7.922,7.922,0,0,0,302.758,265Z" transform="translate(-279.977 -250.041)" fill="#007066"/>
    </g>
  </g>
</svg>
