<svg xmlns="http://www.w3.org/2000/svg" width="91.75" height="96.053" viewBox="0 0 91.75 96.053">
  <g id="Commissions-icon" transform="translate(3.26 -0.4)">
    <g id="Group_25014" data-name="Group 25014" transform="translate(1.57 1.59)">
      <path id="Path_53186" data-name="Path 53186" d="M20.895,19.534l50.264-1.3L84.13,6.077h3.892V10.13L76.509,21.642,64.835,25.7,44.891,30.4,33.055,33.154H20.895Z" transform="translate(-3.185 58.732)" fill="#bbb" opacity="0.3"/>
      <g id="Group_25016" data-name="Group 25016" transform="translate(-4.829 58.733)">
        <path id="Path_52860" data-name="Path 52860" d="M89.114,303.378a7.091,7.091,0,0,0-9.543.2l-8.739,8.471H58a6.084,6.084,0,0,0,1.326-3.978,6.632,6.632,0,0,0-6.782-6.165H37.676a9.452,9.452,0,0,0-3.707.751l-10.842,4.6H18.208v-1.125a1.305,1.305,0,0,0-1.337-1.271H11.32a1.272,1.272,0,1,0,0,2.542h4.214v27.337H2.685V307.4h2.4a1.272,1.272,0,1,0,0-2.542H1.348a1.305,1.305,0,0,0-1.337,1.271v29.878a1.305,1.305,0,0,0,1.337,1.271H16.871a1.305,1.305,0,0,0,1.337-1.271v-.39H32.535a21.776,21.776,0,0,0,4.985-.578l22.153-5.214a1.268,1.268,0,0,0,.977-1.539,1.343,1.343,0,0,0-1.619-.928l-22.153,5.214a18.961,18.961,0,0,1-4.342.5H18.208v-23.28h5.2a1.4,1.4,0,0,0,.545-.11l11.1-4.707a6.682,6.682,0,0,1,2.618-.531H52.543a4,4,0,0,1,4.109,3.693,3.676,3.676,0,0,1-1.131,2.758,7.493,7.493,0,0,1-2.88,1.151H42.476a1.273,1.273,0,1,0,0,2.542H71.392a1.373,1.373,0,0,0,.955-.381l9.132-8.852a4.317,4.317,0,0,1,5.808-.121,3.822,3.822,0,0,1,.2,5.586L78.6,319.873a18.221,18.221,0,0,1-8.877,4.966l-4.638,1.091a1.268,1.268,0,0,0-.977,1.539,1.327,1.327,0,0,0,1.3.966,1.405,1.405,0,0,0,.322-.038l4.639-1.091a20.917,20.917,0,0,0,10.191-5.7l8.887-9.05a6.279,6.279,0,0,0-.33-9.177Z" transform="translate(0.231 -301.388)" fill="#005f54"/>
        <path id="Path_52860_-_Outline" data-name="Path 52860 - Outline" d="M84.448,301.38a7.245,7.245,0,0,1,4.825,1.811,6.506,6.506,0,0,1,.341,9.5l-8.888,9.059a21.151,21.151,0,0,1-10.308,5.771l-4.639,1.092a1.657,1.657,0,0,1-.379.044,1.557,1.557,0,0,1-1.526-1.137,1.5,1.5,0,0,1,1.149-1.812l4.639-1.092a17.981,17.981,0,0,0,8.763-4.906l8.889-9.061a3.611,3.611,0,0,0-.19-5.274,4.07,4.07,0,0,0-5.48.114l-9.134,8.861a1.624,1.624,0,0,1-1.123.449H42.467a1.5,1.5,0,1,1,0-2.993H52.612a7.025,7.025,0,0,0,2.734-1.084,3.465,3.465,0,0,0,1.065-2.6,3.769,3.769,0,0,0-3.874-3.478H37.667a6.434,6.434,0,0,0-2.523.512l-11.1,4.711a1.633,1.633,0,0,1-.641.13H18.432v22.855H32.525a18.7,18.7,0,0,0,4.286-.5l22.156-5.219a1.657,1.657,0,0,1,.379-.044,1.557,1.557,0,0,1,1.526,1.137,1.5,1.5,0,0,1-1.149,1.812l-22.156,5.219a22.009,22.009,0,0,1-5.042.585H18.432v.166a1.538,1.538,0,0,1-1.573,1.5H1.334a1.538,1.538,0,0,1-1.573-1.5V306.106a1.538,1.538,0,0,1,1.573-1.5H5.067a1.5,1.5,0,1,1,0,2.993H2.907v26.915H15.286V307.6H11.307a1.5,1.5,0,1,1,0-2.993h5.552a1.538,1.538,0,0,1,1.573,1.5v.9h4.634l10.8-4.582a9.693,9.693,0,0,1,3.8-.771H52.536a6.868,6.868,0,0,1,7.019,6.389,6.266,6.266,0,0,1-1.109,3.764H70.728L79.4,303.4A7.2,7.2,0,0,1,84.448,301.38ZM65.4,328.212a1.159,1.159,0,0,0,.266-.031l4.639-1.092a20.675,20.675,0,0,0,10.076-5.641l8.888-9.059a6.072,6.072,0,0,0-.319-8.869,6.843,6.843,0,0,0-9.215.192l-8.81,8.546H57.52l.284-.359a5.855,5.855,0,0,0,1.279-3.841,6.4,6.4,0,0,0-6.548-5.953H37.667a9.2,9.2,0,0,0-3.611.732l-10.889,4.621H17.961v-1.351a1.077,1.077,0,0,0-1.1-1.048H11.307a1.049,1.049,0,1,0,0,2.1h4.45v27.813H2.435V307.154H5.067a1.049,1.049,0,1,0,0-2.1H1.334a1.077,1.077,0,0,0-1.1,1.048v29.908a1.077,1.077,0,0,0,1.1,1.048H16.859a1.077,1.077,0,0,0,1.1-1.048V335.4H32.525a21.516,21.516,0,0,0,4.929-.572l22.156-5.219a1.047,1.047,0,0,0,.8-1.269,1.09,1.09,0,0,0-1.068-.8,1.161,1.161,0,0,0-.266.031l-22.156,5.219a19.2,19.2,0,0,1-4.4.511H17.961V309.552H23.4a1.145,1.145,0,0,0,.449-.091l11.1-4.711a6.922,6.922,0,0,1,2.715-.551H52.536a4.234,4.234,0,0,1,4.346,3.915,3.9,3.9,0,0,1-1.2,2.924,7.5,7.5,0,0,1-3.049,1.22H42.467a1.049,1.049,0,1,0,0,2.1H71.388a1.137,1.137,0,0,0,.786-.314l9.134-8.861a4.559,4.559,0,0,1,6.138-.128,4.045,4.045,0,0,1,.213,5.908l-8.889,9.061a18.457,18.457,0,0,1-8.994,5.036l-4.639,1.092a1.047,1.047,0,0,0-.8,1.269A1.09,1.09,0,0,0,65.4,328.212Z" transform="translate(0.239 -301.38)" fill="#005f54"/>
      </g>
      <g id="Group_25017" data-name="Group 25017" transform="translate(28.562 -1.19)">
        <path id="Path_52861" data-name="Path 52861" d="M190.7,54.087a27.029,27.029,0,0,0,20.891-44.2,1.42,1.42,0,0,0-2.193,1.8,24.205,24.205,0,1,1-4.551-4.278,1.42,1.42,0,0,0,1.664-2.3A27.04,27.04,0,1,0,190.7,54.087Z" transform="translate(-163.41 0.25)" fill="#adadad"/>
        <path id="Path_52861_-_Outline" data-name="Path 52861 - Outline" d="M190.7,54.338A27.294,27.294,0,1,1,206.661,4.913,1.67,1.67,0,1,1,204.7,7.62a24,24,0,1,0,4.5,4.234,1.67,1.67,0,0,1,2.579-2.123A27.28,27.28,0,0,1,190.7,54.338Zm0-54.087a26.823,26.823,0,1,0,20.7,9.8,1.169,1.169,0,0,0-1.806,1.486A24.456,24.456,0,1,1,205,7.214a1.161,1.161,0,0,0,.684.222,1.174,1.174,0,0,0,.949-.484,1.169,1.169,0,0,0-.263-1.633A26.575,26.575,0,0,0,190.7.251Z" transform="translate(-163.41 0.25)" fill="#adadad"/>
      </g>
      <g id="Group_25018" data-name="Group 25018" transform="translate(37.824 8.074)">
        <path id="Path_52862" data-name="Path 52862" d="M224.724,37.206l-4.081,2.512q-.327-.146-.659-.274l-1.11-4.661a1.226,1.226,0,0,0-1.192-.942h-4.74a1.226,1.226,0,0,0-1.192.942l-1.11,4.661q-.332.128-.659.274L205.9,37.206a1.226,1.226,0,0,0-1.509.177l-3.351,3.352a1.226,1.226,0,0,0-.177,1.509l2.511,4.081q-.146.327-.274.66l-4.661,1.11a1.226,1.226,0,0,0-.942,1.192v4.74a1.225,1.225,0,0,0,.942,1.192l4.661,1.11q.127.332.274.659l-2.511,4.081a1.226,1.226,0,0,0,.177,1.509l3.351,3.351a1.226,1.226,0,0,0,1.509.177l4.081-2.512q.326.146.659.274l1.11,4.661a1.226,1.226,0,0,0,1.192.942h4.74a1.226,1.226,0,0,0,1.192-.942l1.11-4.661q.333-.128.659-.274l4.081,2.512a1.226,1.226,0,0,0,1.509-.177l3.352-3.351a1.226,1.226,0,0,0,.177-1.509l-2.512-4.081q.146-.327.274-.659l4.661-1.11a1.225,1.225,0,0,0,.942-1.192v-4.74a1.226,1.226,0,0,0-.942-1.192l-4.661-1.11q-.128-.333-.274-.66l2.511-4.081a1.225,1.225,0,0,0-.177-1.509l-3.352-3.352A1.225,1.225,0,0,0,224.724,37.206Zm.042,9.605a10.579,10.579,0,0,1,.659,1.586,1.226,1.226,0,0,0,.883.817l4.368,1.04v2.8l-4.368,1.04a1.225,1.225,0,0,0-.883.817,10.574,10.574,0,0,1-.659,1.586,1.226,1.226,0,0,0,.046,1.2l2.354,3.826-1.983,1.982-3.826-2.354a1.225,1.225,0,0,0-1.2-.046,10.579,10.579,0,0,1-1.586.659,1.226,1.226,0,0,0-.816.883l-1.04,4.368h-2.8l-1.04-4.368a1.225,1.225,0,0,0-.816-.883,10.581,10.581,0,0,1-1.586-.659,1.224,1.224,0,0,0-1.2.046l-3.826,2.354-1.982-1.982,2.354-3.826a1.225,1.225,0,0,0,.046-1.2,10.571,10.571,0,0,1-.659-1.586,1.225,1.225,0,0,0-.883-.817l-4.368-1.04v-2.8l4.368-1.04a1.226,1.226,0,0,0,.883-.817,10.578,10.578,0,0,1,.659-1.586,1.225,1.225,0,0,0-.047-1.2l-2.354-3.826,1.982-1.983,3.826,2.354a1.226,1.226,0,0,0,1.2.046,10.612,10.612,0,0,1,1.586-.659,1.226,1.226,0,0,0,.817-.883l1.04-4.368h2.8l1.04,4.368a1.225,1.225,0,0,0,.817.883,10.612,10.612,0,0,1,1.586.659,1.226,1.226,0,0,0,1.2-.046l3.826-2.354,1.983,1.983-2.355,3.826a1.225,1.225,0,0,0-.047,1.2Z" transform="translate(-197.281 -33.625)" fill="#c48e61"/>
        <path id="Path_52862_-_Outline" data-name="Path 52862 - Outline" d="M212.908,33.591h4.74a1.437,1.437,0,0,1,1.4,1.108l1.083,4.55c.154.061.308.125.459.191l3.984-2.452a1.44,1.44,0,0,1,.755-.214h0a1.431,1.431,0,0,1,1.019.422l3.352,3.352a1.437,1.437,0,0,1,.208,1.775l-2.452,3.984c.066.152.13.306.191.459l4.55,1.083a1.437,1.437,0,0,1,1.108,1.4v4.74a1.437,1.437,0,0,1-1.108,1.4l-4.55,1.083c-.061.154-.124.308-.191.459l2.452,3.984A1.437,1.437,0,0,1,229.7,62.7l-3.352,3.351a1.441,1.441,0,0,1-1.775.208L220.592,63.8c-.151.066-.3.13-.459.191l-1.083,4.55a1.437,1.437,0,0,1-1.4,1.108h-4.74a1.437,1.437,0,0,1-1.4-1.108l-1.083-4.55c-.154-.061-.308-.125-.459-.191l-3.984,2.452a1.442,1.442,0,0,1-1.775-.208L200.852,62.7a1.437,1.437,0,0,1-.208-1.775l2.452-3.984c-.067-.152-.13-.306-.191-.459l-4.55-1.083a1.437,1.437,0,0,1-1.108-1.4v-4.74a1.437,1.437,0,0,1,1.108-1.4l4.55-1.083c.06-.154.124-.307.191-.459l-2.452-3.984a1.437,1.437,0,0,1,.208-1.775L204.2,37.2a1.442,1.442,0,0,1,1.775-.208l3.984,2.452c.151-.066.3-.13.459-.191l1.083-4.55A1.437,1.437,0,0,1,212.908,33.591Zm7.717,6.336-.1-.047c-.212-.1-.431-.186-.648-.27l-.106-.041L218.629,34.8a1.006,1.006,0,0,0-.982-.776h-4.74a1.006,1.006,0,0,0-.982.776L210.79,39.57l-.106.041c-.218.084-.436.174-.649.27l-.1.047-4.178-2.571a1.01,1.01,0,0,0-1.243.146l-3.351,3.352a1.006,1.006,0,0,0-.146,1.243l2.571,4.178-.047.1c-.1.214-.186.432-.269.649l-.041.106-4.772,1.136a1.006,1.006,0,0,0-.776.982v4.74a1.006,1.006,0,0,0,.776.982l4.772,1.136.041.106c.083.216.173.434.269.649l.047.1-2.571,4.178a1.006,1.006,0,0,0,.146,1.243l3.351,3.351a1.01,1.01,0,0,0,1.243.146l4.178-2.571.1.047c.212.095.43.186.648.27l.106.041,1.136,4.771a1.006,1.006,0,0,0,.982.776h4.74a1.006,1.006,0,0,0,.982-.776l1.136-4.772.106-.041c.219-.084.438-.175.648-.269l.1-.047,4.178,2.571a1.009,1.009,0,0,0,1.243-.146L229.4,62.39a1.006,1.006,0,0,0,.146-1.243l-2.571-4.178.047-.1c.095-.212.186-.43.269-.648l.041-.106,4.771-1.136a1.006,1.006,0,0,0,.776-.982v-4.74a1.006,1.006,0,0,0-.776-.982l-4.771-1.136-.041-.106c-.083-.217-.174-.435-.269-.649l-.047-.1,2.571-4.178a1.006,1.006,0,0,0-.146-1.243L226.045,37.5a1,1,0,0,0-.714-.3h0a1.008,1.008,0,0,0-.529.15Zm-6.919-3.885h3.145l1.08,4.534a1.015,1.015,0,0,0,.672.727,10.828,10.828,0,0,1,1.618.672,1.01,1.01,0,0,0,.99-.038l3.971-2.444,2.224,2.224-2.444,3.971a1.015,1.015,0,0,0-.039.99A10.792,10.792,0,0,1,225.6,48.3a1.015,1.015,0,0,0,.727.673l4.534,1.08v3.145l-4.534,1.079a1.015,1.015,0,0,0-.727.673,10.791,10.791,0,0,1-.672,1.618,1.015,1.015,0,0,0,.038.99l2.444,3.971-2.224,2.224-3.971-2.444a1.009,1.009,0,0,0-.99-.038,10.8,10.8,0,0,1-1.618.672,1.015,1.015,0,0,0-.672.727L216.85,67.2H213.7l-1.08-4.534a1.015,1.015,0,0,0-.672-.727,10.8,10.8,0,0,1-1.618-.672,1.008,1.008,0,0,0-.99.038l-3.972,2.444-2.224-2.224,2.444-3.971a1.015,1.015,0,0,0,.038-.99,10.784,10.784,0,0,1-.672-1.618,1.015,1.015,0,0,0-.727-.673L199.7,53.194V50.049l4.534-1.08a1.015,1.015,0,0,0,.727-.673,10.794,10.794,0,0,1,.672-1.618,1.015,1.015,0,0,0-.038-.99l-2.443-3.972,2.224-2.224,3.971,2.444a1.009,1.009,0,0,0,.99.038,10.829,10.829,0,0,1,1.618-.672,1.015,1.015,0,0,0,.673-.727Zm2.8.432h-2.462l-1,4.2a1.45,1.45,0,0,1-.961,1.038,10.393,10.393,0,0,0-1.553.645,1.442,1.442,0,0,1-1.414-.055l-3.681-2.265L203.7,41.781l2.265,3.681a1.449,1.449,0,0,1,.055,1.414,10.364,10.364,0,0,0-.645,1.553,1.45,1.45,0,0,1-1.038.961l-4.2,1v2.462l4.2,1a1.45,1.45,0,0,1,1.038.961,10.351,10.351,0,0,0,.645,1.553,1.45,1.45,0,0,1-.055,1.414L203.7,61.462l1.741,1.741,3.681-2.265a1.44,1.44,0,0,1,1.414-.054,10.361,10.361,0,0,0,1.553.645,1.449,1.449,0,0,1,.96,1.038l1,4.2h2.462l1-4.2a1.45,1.45,0,0,1,.96-1.038,10.366,10.366,0,0,0,1.553-.645,1.441,1.441,0,0,1,1.414.054l3.681,2.265,1.741-1.741-2.265-3.681a1.45,1.45,0,0,1-.055-1.414,10.361,10.361,0,0,0,.645-1.553,1.449,1.449,0,0,1,1.038-.961l4.2-1V50.391l-4.2-1a1.45,1.45,0,0,1-1.038-.96,10.369,10.369,0,0,0-.645-1.553,1.449,1.449,0,0,1,.055-1.414l2.265-3.681-1.741-1.741-3.681,2.265a1.442,1.442,0,0,1-1.414.055,10.4,10.4,0,0,0-1.553-.645,1.449,1.449,0,0,1-.96-1.038Z" transform="translate(-197.247 -33.591)" fill="#c48e61"/>
      </g>
      <g id="Group_25019" data-name="Group 25019" transform="translate(48.694 18.943)">
        <path id="Path_52863" data-name="Path 52863" d="M276.922,106.355a6.911,6.911,0,1,0,6.911,6.911A6.919,6.919,0,0,0,276.922,106.355Zm0,10.982a4.071,4.071,0,1,1,4.071-4.071A4.076,4.076,0,0,1,276.922,117.337Z" transform="translate(-269.762 -106.105)" fill="#c48e61"/>
        <path id="Path_52863_-_Outline" data-name="Path 52863 - Outline" d="M276.923,106.1a7.161,7.161,0,1,1-7.161,7.161A7.112,7.112,0,0,1,276.923,106.1Zm0,13.821a6.66,6.66,0,1,0-6.66-6.66A6.668,6.668,0,0,0,276.923,119.926Zm0-10.982a4.322,4.322,0,1,1-4.321,4.322A4.326,4.326,0,0,1,276.923,108.944Zm0,8.142a3.821,3.821,0,1,0-3.821-3.821A3.8,3.8,0,0,0,276.923,117.087Z" transform="translate(-269.762 -106.105)" fill="#c48e61"/>
      </g>
    </g>
  </g>
</svg>
