<svg xmlns="http://www.w3.org/2000/svg" width="94.769" height="79.578" viewBox="0 0 94.769 79.578">
  <g id="Commissions-icon3" transform="translate(1.5 -7.303)">
    <circle id="Ellipse_219" data-name="Ellipse 219" cx="31.572" cy="31.572" r="31.572" transform="translate(9 23.736)" fill="#bbb" opacity="0.3"/>
    <path id="Path_51124" data-name="Path 51124" d="M229.733,170.618s7.7-.12,8.382-3.5-.413-7.142,2.387-9.7,5.115-2.781,7.867-1.879a6.353,6.353,0,0,1,4.328,6.958l-.9,3.793,3.309,3.354,8.194.555,6.089,2.932-2.706-7.291-4.361-5.865,2.7-4.359s1.5-2.256,5.186-1.43,5.2.468,5.2.468" transform="translate(-227.058 -109.82)" fill="none" stroke="#c48e61" stroke-linecap="round" stroke-linejoin="round" stroke-width="3"/>
    <path id="Path_51125" data-name="Path 51125" d="M241.284,173.411s3.281-.619,3.839-3.219,2.415-4.29,4.334-3.445,4.086,1.836,4.086,1.836a8.834,8.834,0,0,1,1.8,2.937c.681,1.83,1.8,4.611,1.8,4.611" transform="translate(-217.575 -99.538)" fill="none" stroke="#c48e61" stroke-linecap="round" stroke-linejoin="round" stroke-width="3"/>
    <path id="Path_51126" data-name="Path 51126" d="M254.819,179.141s.92-4.643,3.886-4.891,4.516-3.591,3.649-5.51-2.974-5.882-2.974-5.882" transform="translate(-206.463 -102.55)" fill="none" stroke="#c48e61" stroke-linecap="round" stroke-linejoin="round" stroke-width="3"/>
    <path id="Path_51129" data-name="Path 51129" d="M304.2,172.54a37.967,37.967,0,1,1-37.967-37.967" transform="translate(-228.264 -125.77)" fill="none" stroke="#005f54" stroke-linecap="round" stroke-linejoin="round" stroke-width="3"/>
    <g id="Group_25026" data-name="Group 25026" transform="translate(43.1 -86.549)">
      <g id="Group_25027" data-name="Group 25027" transform="translate(7.314 98.223)">
        <g id="Group_25026-2" data-name="Group 25026" transform="translate(0 0)">
          <path id="Path_53178" data-name="Path 53178" d="M106.941,137.937c-.985-2.053-4.507-4.9-7.91-7.655-1.9-1.534-3.692-2.985-4.835-4.128a1.045,1.045,0,0,0-1.093-.245c-.7.255-1.139.452-1.482.6a3.457,3.457,0,0,1-1.4.385,1.045,1.045,0,0,0-.765.458c-1.478,2.209-3.008,2.021-4.03,1.679-.326-.109-.385-.249-.416-.383-.219-.918.882-3.054,2.31-4.482,3.4-3.4,5.149-4.25,8.849-2.6,4.2,1.877,8.4,3.347,8.445,3.361a1.046,1.046,0,0,0,.688-1.975c-.042-.015-4.164-1.455-8.278-3.3-4.793-2.143-7.423-.732-11.179,3.027-1.43,1.43-3.372,4.323-2.87,6.445a2.585,2.585,0,0,0,1.8,1.883,5.23,5.23,0,0,0,6.139-2.1,5.277,5.277,0,0,0,1.57-.5c.2-.088.426-.19.732-.314,1.2,1.123,2.809,2.429,4.509,3.8,3.073,2.485,6.558,5.3,7.341,6.934a1.225,1.225,0,0,1-.312,1.57,1.152,1.152,0,0,1-1.288.253,1.045,1.045,0,0,0-1.633.972,1.263,1.263,0,0,1-.8,1.177,1.6,1.6,0,0,1-1.628.038,1.045,1.045,0,0,0-1.754.667,1.986,1.986,0,0,1-1.233,1.6,1.1,1.1,0,0,1-1.2-.186,1.057,1.057,0,0,0-.955-.243,1.044,1.044,0,0,0-.734.658c-.04.1-.13.355-1.108.355a6.019,6.019,0,0,1-2.561-.876c-.734-.483-5.335-3.915-9.308-7.243-.558-.47-1.524-1.478-2.377-2.368-.757-.79-1.449-1.507-1.8-1.808a1.046,1.046,0,1,0-1.35,1.6c.324.274.951.936,1.643,1.658.932.974,1.9,1.982,2.544,2.525,3.892,3.259,8.571,6.777,9.5,7.389a8.019,8.019,0,0,0,3.71,1.217,3.6,3.6,0,0,0,2.373-.7,3.253,3.253,0,0,0,2.377-.025,4.117,4.117,0,0,0,2.176-2.009,4.042,4.042,0,0,0,2.623-.378,3.546,3.546,0,0,0,1.745-1.823,3.418,3.418,0,0,0,2.4-.859A3.323,3.323,0,0,0,106.941,137.937Z" transform="translate(-74.642 -118.658)" fill="#c48e61"/>
        </g>
      </g>
      <g id="Group_25029" data-name="Group 25029" transform="translate(10.452 100.184)">
        <g id="Group_25028" data-name="Group 25028" transform="translate(0 0)">
          <path id="Path_53179" data-name="Path 53179" d="M117.118,138.663h-9.407a1.045,1.045,0,0,0,0,2.09h9.407a1.045,1.045,0,1,0,0-2.09Z" transform="translate(-106.666 -138.663)" fill="#c48e61"/>
        </g>
      </g>
      <g id="Group_25031" data-name="Group 25031" transform="translate(37.706 114.814)">
        <g id="Group_25030" data-name="Group 25030" transform="translate(0 0)">
          <path id="Path_53180" data-name="Path 53180" d="M389.78,288.441a1.043,1.043,0,0,0-1.451-.284l-3.056,2.053a1.045,1.045,0,0,0,1.167,1.735l3.056-2.053A1.046,1.046,0,0,0,389.78,288.441Z" transform="translate(-384.811 -287.977)" fill="#c48e61"/>
        </g>
      </g>
      <g id="Group_25033" data-name="Group 25033" transform="translate(28.222 113.77)">
        <g id="Group_25032" data-name="Group 25032">
          <path id="Path_53181" data-name="Path 53181" d="M295.98,283.813c-.748-.59-4.1-4.016-6.165-6.173a1.045,1.045,0,1,0-1.509,1.447c.537.56,5.276,5.5,6.378,6.369a1.041,1.041,0,0,0,.646.224,1.056,1.056,0,0,0,.823-.4A1.044,1.044,0,0,0,295.98,283.813Z" transform="translate(-288.016 -277.317)" fill="#c48e61"/>
        </g>
      </g>
      <g id="Group_25035" data-name="Group 25035" transform="translate(25.085 116.907)">
        <g id="Group_25034" data-name="Group 25034" transform="translate(0 0)">
          <path id="Path_53182" data-name="Path 53182" d="M262.93,314.792c-1.252-1-4.4-4.344-5.109-5.117a1.046,1.046,0,1,0-1.541,1.415c.038.04,3.792,4.093,5.343,5.335a1.046,1.046,0,0,0,1.307-1.633Z" transform="translate(-256.005 -309.337)" fill="#c48e61"/>
        </g>
      </g>
      <g id="Group_25037" data-name="Group 25037" transform="translate(20.905 118.995)">
        <g id="Group_25036" data-name="Group 25036" transform="translate(0 0)">
          <path id="Path_53183" data-name="Path 53183" d="M220.288,336.116c-1.491-1.256-4.54-4.5-5.136-5.14a1.046,1.046,0,0,0-1.528,1.428c.857.918,3.775,4.011,5.316,5.312a1.046,1.046,0,1,0,1.348-1.6Z" transform="translate(-213.343 -330.644)" fill="#c48e61"/>
        </g>
      </g>
      <g id="Group_25039" data-name="Group 25039" transform="translate(0 96.003)">
        <g id="Group_25038" data-name="Group 25038" transform="translate(0 0)">
          <path id="Path_53184" data-name="Path 53184" d="M12.216,98.38C10.425,96.682,3.261,96.132,1.108,96A1.044,1.044,0,0,0,0,97.048v18.813a1.046,1.046,0,0,0,1.045,1.045H7.316a1.044,1.044,0,0,0,.993-.721c.153-.468,3.754-11.522,4.229-16.957A1.04,1.04,0,0,0,12.216,98.38ZM6.553,114.816H2.09V98.168c3.359.265,6.984.842,8.3,1.482C9.837,104.228,7.331,112.362,6.553,114.816Z" transform="translate(0 -96.004)" fill="#bbb"/>
        </g>
      </g>
      <g id="Group_25041" data-name="Group 25041" transform="translate(35.574 98.093)">
        <g id="Group_25040" data-name="Group 25040">
          <path id="Path_53185" data-name="Path 53185" d="M376.6,117.33c-8.207,0-12.76,2.1-12.95,2.189a1.04,1.04,0,0,0-.558.65,1.054,1.054,0,0,0,.115.849c1.292,2.08,5.337,13.631,6.114,16.449a1.045,1.045,0,0,0,1.008.767H376.6a1.046,1.046,0,0,0,1.045-1.045V118.375A1.044,1.044,0,0,0,376.6,117.33Zm-1.045,18.813h-4.444c-.991-3.228-3.917-11.643-5.55-15.122a34.041,34.041,0,0,1,9.994-1.589Z" transform="translate(-363.046 -117.33)" fill="#bbb"/>
        </g>
      </g>
    </g>
  </g>
</svg>
