<svg xmlns="http://www.w3.org/2000/svg" width="78.647" height="89.994" viewBox="0 0 78.647 89.994">
  <g id="Commissions-icon4" transform="translate(-156.569 -128.773)">
    <rect id="Rectangle_11829" data-name="Rectangle 11829" width="69.845" height="24" transform="translate(163.872 193.773)" fill="#bbb" opacity="0.3"/>
    <line id="Line_349" data-name="Line 349" x2="10" y2="9" transform="translate(208.893 175.773)" fill="none" stroke="#b9b2aa" stroke-linecap="round" stroke-linejoin="round" stroke-width="3"/>
    <path id="Path_52998" data-name="Path 52998" d="M187.849,130.273H170.07v11.347l5.674,5.674h18.912l5.674-5.674V130.273h-6.207" transform="translate(10.694)" fill="none" stroke="#195448" stroke-linecap="round" stroke-linejoin="round" stroke-width="3"/>
    <line id="Line_350" data-name="Line 350" x1="4.418" transform="translate(178.683 217.267)" fill="none" stroke="#cb9358" stroke-linecap="round" stroke-linejoin="round" stroke-width="3"/>
    <path id="Path_52999" data-name="Path 52999" d="M172.476,191.423H158.069v-32.15h75.647v32.15H189.79" transform="translate(0 25.844)" fill="none" stroke="#cb9358" stroke-linecap="round" stroke-linejoin="round" stroke-width="3"/>
    <path id="Path_53000" data-name="Path 53000" d="M174.842,166.428a15.437,15.437,0,0,0,6.1,1.212c6.738,0,10.3-5.882,11.347-9.456.556-1.891-3.226-3.582-3.782-1.891-.62,1.891-2.973,3.782-4.728,3.782a4.728,4.728,0,0,1-2.837-8.51c3.364-2.432,5.674-3.985,5.674-8.053v-4.24" transform="translate(14.947 8.02)" fill="none" stroke="#195448" stroke-linecap="round" stroke-linejoin="round" stroke-width="3"/>
    <path id="Path_53001" data-name="Path 53001" d="M178.634,139.273v3.782c0,3.391-7.565,4.611-7.565,13.238a10.382,10.382,0,0,0,2.591,6.867" transform="translate(11.585 8.02)" fill="none" stroke="#195448" stroke-linecap="round" stroke-linejoin="round" stroke-width="3"/>
    <line id="Line_351" data-name="Line 351" y2="21" transform="translate(167.893 190.773)" fill="none" stroke="#195448" stroke-linecap="round" stroke-linejoin="round" stroke-width="3"/>
    <line id="Line_352" data-name="Line 352" y2="21" transform="translate(178.893 190.773)" fill="none" stroke="#195448" stroke-linecap="round" stroke-linejoin="round" stroke-width="3"/>
    <line id="Line_353" data-name="Line 353" y2="21" transform="translate(189.893 190.773)" fill="none" stroke="#195448" stroke-linecap="round" stroke-linejoin="round" stroke-width="3"/>
    <line id="Line_354" data-name="Line 354" y2="21" transform="translate(201.893 190.773)" fill="none" stroke="#195448" stroke-linecap="round" stroke-linejoin="round" stroke-width="3"/>
    <line id="Line_355" data-name="Line 355" y2="21" transform="translate(212.893 190.773)" fill="none" stroke="#195448" stroke-linecap="round" stroke-linejoin="round" stroke-width="3"/>
    <line id="Line_356" data-name="Line 356" y2="21" transform="translate(223.893 190.773)" fill="none" stroke="#195448" stroke-linecap="round" stroke-linejoin="round" stroke-width="3"/>
    <path id="Path_53002" data-name="Path 53002" d="M165.069,169.078l18.912-18.912a7.5,7.5,0,0,1,5.674-1.891" transform="translate(6.238 16.038)" fill="none" stroke="#b9b2aa" stroke-linecap="round" stroke-linejoin="round" stroke-width="3"/>
  </g>
</svg>
