<svg xmlns="http://www.w3.org/2000/svg" width="83.664" height="78.176" viewBox="0 0 83.664 78.176">
  <g id="dimond" transform="translate(0 -16.793)">
    <path id="Path_52784" data-name="Path 52784" d="M115.469,171.941H75.309a2.178,2.178,0,0,0-1.826.992l-9.131,14.058a2.178,2.178,0,0,0,.2,2.635L93.747,222.4a2.178,2.178,0,0,0,3.252,0l29.2-32.778a2.178,2.178,0,0,0,.2-2.632l-9.1-14.056A2.178,2.178,0,0,0,115.469,171.941Z" transform="translate(-53.542 -129.796)" fill="#009789"/>
    <path id="Path_52785" data-name="Path 52785" d="M117.3,172.935a2.178,2.178,0,0,0-1.828-.994H75.317a2.178,2.178,0,0,0-1.826.992L64.36,186.991a2.174,2.174,0,0,0-.336,1.43h62.717a2.173,2.173,0,0,0-.334-1.43Z" transform="translate(-53.55 -129.796)" fill="#7bf3e9"/>
    <path id="Path_52786" data-name="Path 52786" d="M212.332,272.793l-10.6,34.4-10.6-34.4Z" transform="translate(-159.904 -214.168)" fill="#7bf3e9"/>
    <path id="Path_52787" data-name="Path 52787" d="M191.137,188.945l10.6-16.378,10.6,16.378Z" transform="translate(-159.904 -130.319)" fill="#009789"/>
    <g id="Group_24829" data-name="Group 24829" transform="translate(9.61 42.248)">
      <path id="Path_52788" data-name="Path 52788" d="M58.813,188.945l10.6-16.378,10.6,16.378Z" transform="translate(-58.813 -172.567)" fill="#26c4b6"/>
      <path id="Path_52789" data-name="Path 52789" d="M319.146,188.945l10.6-16.378,10.6,16.378Z" transform="translate(-276.606 -172.567)" fill="#26c4b6"/>
    </g>
    <path id="Path_52790" data-name="Path 52790" d="M110.314,163.681a3.8,3.8,0,0,0-3.2-1.74H66.954a3.8,3.8,0,0,0-3.2,1.736l-9.131,14.058a3.82,3.82,0,0,0,.351,4.612l29.195,32.776a3.815,3.815,0,0,0,2.846,1.277h0a3.816,3.816,0,0,0,2.846-1.276l29.2-32.778a3.821,3.821,0,0,0,.353-4.607ZM95.4,181.689,87.018,208.9l-8.384-27.214Zm-15.978-3.268,7.594-11.736,7.594,11.736Zm10.531-13.212H105.27l-7.655,11.837Zm-13.514,11.8-7.636-11.8H84.081Zm7.468,32.9L58.768,181.689H75.214Zm14.912-28.226H115.27L90.126,209.916Zm17.143-3.268H100.618l7.668-11.858Zm-50.18-11.866,7.675,11.866H58.078Z" transform="translate(-45.188 -121.43)" fill="#004741"/>
    <path id="Path_52791" data-name="Path 52791" d="M4.957,262.793H1.634a1.634,1.634,0,1,0,0,3.268H4.957a1.634,1.634,0,1,0,0-3.268Z" transform="translate(0 -205.802)" fill="#cca079"/>
    <path id="Path_52792" data-name="Path 52792" d="M476.624,262.793H473.3a1.634,1.634,0,1,0,0,3.268h3.323a1.634,1.634,0,1,0,0-3.268Z" transform="translate(-394.593 -205.802)" fill="#cca079"/>
    <path id="Path_52793" data-name="Path 52793" d="M388.491,97.593a1.629,1.629,0,0,0,1.155-.479l5.428-5.428a1.634,1.634,0,1,0-2.311-2.311L387.336,94.8a1.634,1.634,0,0,0,1.156,2.79Z" transform="translate(-323.642 -60.322)" fill="#cca079"/>
    <path id="Path_52794" data-name="Path 52794" d="M78.265,96.936a1.634,1.634,0,0,0,2.311-2.311L75.148,89.2a1.634,1.634,0,0,0-2.311,2.311Z" transform="translate(-60.534 -60.172)" fill="#cca079"/>
    <path id="Path_52795" data-name="Path 52795" d="M247.888,30.71a1.634,1.634,0,0,0,1.634-1.634V18.427a1.634,1.634,0,1,0-3.268,0V29.076A1.634,1.634,0,0,0,247.888,30.71Z" transform="translate(-206.014)" fill="#cca079"/>
    <path id="Path_52796" data-name="Path 52796" d="M247.884,119.058a1.635,1.635,0,1,0-1.155-.479A1.639,1.639,0,0,0,247.884,119.058Z" transform="translate(-206.011 -82.82)" fill="#cca079"/>
  </g>
</svg>
