<svg xmlns="http://www.w3.org/2000/svg" width="536" height="385" viewBox="0 0 536 385">
  <g id="dimond" transform="translate(-1106 -1954)">
    <g id="Rectangle_11839" data-name="Rectangle 11839" transform="translate(1106 1954)" fill="rgba(255,255,255,0.5)" stroke="#fff" stroke-width="5">
      <rect width="536" height="385" stroke="none"/>
      <rect x="2.5" y="2.5" width="531" height="380" fill="none"/>
    </g>
    <g id="Group_25104" data-name="Group 25104" transform="translate(1309.377 2069.576)">
      <circle id="Ellipse_221" data-name="Ellipse 221" cx="65.5" cy="65.5" r="65.5" transform="translate(-0.377 -9.576)" fill="#bbb" opacity="0.25"/>
      <path id="Path_52784" data-name="Path 52784" d="M143.454,171.941h-62a3.362,3.362,0,0,0-2.819,1.531l-14.1,21.7a3.362,3.362,0,0,0,.309,4.067l45.069,50.6a3.362,3.362,0,0,0,5.021,0l45.074-50.6a3.362,3.362,0,0,0,.312-4.064l-14.051-21.7A3.362,3.362,0,0,0,143.454,171.941Z" transform="translate(-47.856 -116.011)" fill="#009789"/>
      <path id="Path_52785" data-name="Path 52785" d="M146.283,173.475a3.362,3.362,0,0,0-2.822-1.534h-62a3.362,3.362,0,0,0-2.819,1.531l-14.1,21.7a3.356,3.356,0,0,0-.519,2.208H160.85a3.355,3.355,0,0,0-.516-2.207Z" transform="translate(-47.863 -116.011)" fill="#7bf3e9"/>
      <path id="Path_52786" data-name="Path 52786" d="M223.857,272.793,207.5,325.9l-16.36-53.1Z" transform="translate(-142.921 -191.422)" fill="#7bf3e9"/>
      <path id="Path_52787" data-name="Path 52787" d="M191.137,197.85l16.36-25.283,16.36,25.283Z" transform="translate(-142.921 -116.479)" fill="#009789"/>
      <g id="Group_24829" data-name="Group 24829" transform="translate(14.836 56.088)">
        <path id="Path_52788" data-name="Path 52788" d="M58.813,197.85l16.36-25.283,16.36,25.283Z" transform="translate(-58.813 -172.567)" fill="#26c4b6"/>
        <path id="Path_52789" data-name="Path 52789" d="M319.146,197.85l16.36-25.283,16.36,25.283Z" transform="translate(-253.475 -172.567)" fill="#26c4b6"/>
      </g>
      <path id="Path_52790" data-name="Path 52790" d="M140.926,164.627a5.863,5.863,0,0,0-4.939-2.686h-62a5.864,5.864,0,0,0-4.935,2.679l-14.1,21.7a5.9,5.9,0,0,0,.541,7.119l45.069,50.6a5.89,5.89,0,0,0,4.394,1.971h0a5.891,5.891,0,0,0,4.394-1.97l45.074-50.6a5.9,5.9,0,0,0,.545-7.112Zm-23.019,27.8-12.943,42.012L92.021,192.427Zm-24.666-5.045,11.723-18.117,11.723,18.117Zm16.258-20.4H133.14L121.323,185.26ZM88.637,185.21,76.849,166.986h23.58ZM100.166,236,61.353,192.427H86.742Zm23.02-43.574h25.391L109.762,236Zm26.464-5.045H125.959L137.8,169.077ZM72.185,169.064l11.849,18.318H60.288Z" transform="translate(-40.388 -108.533)" fill="#004741"/>
      <path id="Path_52791" data-name="Path 52791" d="M7.652,262.793H2.523a2.523,2.523,0,1,0,0,5.045H7.652a2.523,2.523,0,1,0,0-5.045Z" transform="translate(0 -183.945)" fill="#cca079"/>
      <path id="Path_52792" data-name="Path 52792" d="M479.319,262.793H474.19a2.523,2.523,0,1,0,0,5.045h5.129a2.523,2.523,0,1,0,0-5.045Z" transform="translate(-352.685 -183.945)" fill="#cca079"/>
      <path id="Path_52793" data-name="Path 52793" d="M389.38,102.322a2.515,2.515,0,0,0,1.784-.739l8.379-8.379a2.523,2.523,0,0,0-3.568-3.567L387.6,98.015a2.523,2.523,0,0,0,1.784,4.306Z" transform="translate(-289.269 -53.915)" fill="#cca079"/>
      <path id="Path_52794" data-name="Path 52794" d="M81.476,101.4a2.523,2.523,0,0,0,3.567-3.567l-8.379-8.379A2.523,2.523,0,0,0,73.1,93.024Z" transform="translate(-54.105 -53.782)" fill="#cca079"/>
      <path id="Path_52795" data-name="Path 52795" d="M248.777,38.277a2.523,2.523,0,0,0,2.523-2.523V19.316a2.523,2.523,0,1,0-5.045,0V35.755A2.523,2.523,0,0,0,248.777,38.277Z" transform="translate(-184.135 0)" fill="#cca079"/>
      <path id="Path_52796" data-name="Path 52796" d="M248.773,120.835a2.523,2.523,0,1,0-1.783-.739A2.53,2.53,0,0,0,248.773,120.835Z" transform="translate(-184.132 -74.024)" fill="#cca079"/>
    </g>
  </g>
</svg>
