<svg xmlns="http://www.w3.org/2000/svg" width="75.627" height="75.627" viewBox="0 0 75.627 75.627">
  <g id="edarat-icon3" transform="translate(0)">
    <path id="Path_53268" data-name="Path 53268" d="M66.764,17.725H62.333V9.893H57.9V0H39.73L36.776,4.431H17.725v9.893H13.294v7.832H8.863v5.976L0,41.426v34.2H75.627v-34.2L66.764,28.132ZM21.126,7.832H39.147L42.1,3.4H54.5V9.893H44.161l-2.954,4.431H21.125Zm-4.431,9.893H43.578l2.954-4.431h12.4v4.431H48.592l-2.954,4.431H16.694Zm-4.431,7.832H48.009l2.954-4.431h12.4V40.912H46.7l-1.477,4.431H30.4l-1.477-4.431H12.263Zm-3.4,9.534v4.791H5.325ZM72.227,72.227H3.4V44.313H25.729l1.477,4.431H48.421L49.9,44.313H72.227ZM70.3,39.881H66.764V35.09Zm0,0" fill="#005f54"/>
    <path id="Path_53269" data-name="Path 53269" d="M180,360h22.452v4.431H180Zm0,0" transform="translate(-153.412 -305.794)" fill="#c48e61"/>
  </g>
</svg>
