<svg xmlns="http://www.w3.org/2000/svg" width="107.226" height="65.132" viewBox="0 0 107.226 65.132">
  <g id="edarat-icon1" transform="translate(-12419.106 -8375.127)">
    <g id="Group_25176" data-name="Group 25176" transform="translate(12419.106 8375.127)">
      <g id="Group_25165" data-name="Group 25165" transform="translate(14.652 28.973)">
        <g id="Group_25164" data-name="Group 25164" transform="translate(0 0)">
          <path id="Path_57496" data-name="Path 57496" d="M304.76,266.646a2.2,2.2,0,1,1-2.517,2.179,1.144,1.144,0,1,0-2.289,0,4.553,4.553,0,0,0,3.662,4.339v.6a1.144,1.144,0,1,0,2.288,0v-.6a4.553,4.553,0,0,0,3.662-4.339,4.651,4.651,0,0,0-4.806-4.468,2.2,2.2,0,1,1,2.517-2.179,1.144,1.144,0,1,0,2.288,0,4.553,4.553,0,0,0-3.662-4.339v-.494a1.144,1.144,0,1,0-2.288,0v.494a4.553,4.553,0,0,0-3.662,4.339A4.651,4.651,0,0,0,304.76,266.646Z" transform="translate(-299.954 -256.201)" fill="#005f54"/>
        </g>
      </g>
      <g id="Group_25167" data-name="Group 25167" transform="translate(4.577 24.921)">
        <g id="Group_25166" data-name="Group 25166">
          <path id="Path_57497" data-name="Path 57497" d="M386.272,226.288a14.909,14.909,0,0,1,6.09-5.39,1.144,1.144,0,1,1,.992,2.063,12.6,12.6,0,0,0-5.674,17.255,1.144,1.144,0,1,1-2.02,1.075,14.893,14.893,0,0,1,.613-15Z" transform="translate(-383.924 -220.785)" fill="#cca079"/>
        </g>
      </g>
      <g id="Group_25169" data-name="Group 25169" transform="translate(16.521 23.573)">
        <g id="Group_25168" data-name="Group 25168">
          <path id="Path_57498" data-name="Path 57498" d="M348.139,209h.077a1.144,1.144,0,1,1,0,2.289h-.072a1.144,1.144,0,0,1-.005-2.289Z" transform="translate(-347 -209.001)" fill="#cca079"/>
        </g>
      </g>
      <g id="Group_25171" data-name="Group 25171" transform="translate(24.25 30.863)">
        <g id="Group_25170" data-name="Group 25170">
          <path id="Path_57499" data-name="Path 57499" d="M212.651,291.648a12.6,12.6,0,0,0,5.674-17.255,1.144,1.144,0,1,1,2.02-1.075,14.882,14.882,0,0,1-6.7,20.393,1.144,1.144,0,1,1-.992-2.063Z" transform="translate(-212.002 -272.711)" fill="#cca079"/>
        </g>
      </g>
      <g id="Group_25173" data-name="Group 25173" transform="translate(20.025 51.035)">
        <g id="Group_25172" data-name="Group 25172" transform="translate(0)">
          <path id="Path_57500" data-name="Path 57500" d="M317.522,449h.066a1.144,1.144,0,0,1,.01,2.289h-.077a1.144,1.144,0,1,1,0-2.289Z" transform="translate(-316.378 -448.999)" fill="#cca079"/>
        </g>
      </g>
      <g id="Group_25175" data-name="Group 25175" transform="translate(0 0)">
        <g id="Group_25174" data-name="Group 25174">
          <path id="Path_57501" data-name="Path 57501" d="M14.257,22.7a5.253,5.253,0,0,1,.508-.935H11.786a5.264,5.264,0,0,1,0-10.528H20.95A5.26,5.26,0,0,1,25.289,3H53.324a5.264,5.264,0,0,1,0,10.528H44.16a5.249,5.249,0,0,1,0,5.95h2.984a5.261,5.261,0,0,1,3.271,9.383,5.254,5.254,0,0,1,0,8.239,5.254,5.254,0,0,1,0,8.239,5.261,5.261,0,0,1-3.271,9.383H33.659A19.449,19.449,0,1,1,14.257,22.7Zm-2.471-9.174a2.975,2.975,0,0,0,0,5.95H39.821a2.975,2.975,0,0,0,0-5.95Zm41.537-2.289a2.975,2.975,0,0,0,0-5.95H25.289a2.975,2.975,0,0,0,0,5.95ZM47.145,21.766H19.11a2.973,2.973,0,0,0-1.3.3c.541-.045,1.088-.07,1.641-.07a19.392,19.392,0,0,1,13.766,5.721H47.145a2.975,2.975,0,0,0,0-5.95Zm0,8.239H35.174a19.4,19.4,0,0,1,2.941,5.95h9.03a2.975,2.975,0,0,0,0-5.95Zm0,8.239h-8.5a19.469,19.469,0,0,1,.071,5.95h8.434a2.975,2.975,0,0,0,0-5.95Zm0,14.189a2.975,2.975,0,0,0,0-5.95h-8.9a19.376,19.376,0,0,1-2.745,5.95ZM19.453,58.613A17.164,17.164,0,1,0,2.289,41.448,17.184,17.184,0,0,0,19.453,58.613Z" transform="translate(0 -3)" fill="#005f54"/>
        </g>
      </g>
    </g>
    <g id="icon" transform="translate(10432.994 -638.655)">
      <g id="XMLID_2719_" transform="translate(2044.7 9018.414)">
        <g id="XMLID_328_" transform="translate(0 0)">
          <path id="XMLID_332_" d="M110.056,103.77l-1.778-3.74a20.3,20.3,0,0,0,1.6-3.875l3.905-1.389a1.28,1.28,0,0,0,.851-1.206V87.08a1.28,1.28,0,0,0-.851-1.206l-3.905-1.387a20.3,20.3,0,0,0-1.6-3.875l1.778-3.74a1.28,1.28,0,0,0-.251-1.455l-4.582-4.583a1.279,1.279,0,0,0-1.455-.251l-3.74,1.778a20.3,20.3,0,0,0-3.875-1.6l-1.389-3.905A1.28,1.28,0,0,0,93.559,66H87.078a1.28,1.28,0,0,0-1.206.851l-1.387,3.905a20.3,20.3,0,0,0-3.875,1.6l-3.74-1.778a1.28,1.28,0,0,0-1.455.251l-4.583,4.582a1.28,1.28,0,0,0-.251,1.455l1.778,3.74a20.294,20.294,0,0,0-1.6,3.875l-3.905,1.389A1.28,1.28,0,0,0,66,87.082v6.481a1.28,1.28,0,0,0,.851,1.206l3.905,1.387a20.3,20.3,0,0,0,1.6,3.875l-1.778,3.74a1.28,1.28,0,0,0,.251,1.455l4.582,4.583a1.28,1.28,0,0,0,1.455.251l3.74-1.778a20.3,20.3,0,0,0,3.875,1.6l1.389,3.905a1.28,1.28,0,0,0,1.206.851H93.56a1.28,1.28,0,0,0,1.206-.851l1.387-3.905a20.3,20.3,0,0,0,3.875-1.6l3.74,1.778a1.28,1.28,0,0,0,1.455-.251l4.583-4.582a1.28,1.28,0,0,0,.251-1.455Zm-2.467-8.922a17.746,17.746,0,0,1-1.856,4.486,1.28,1.28,0,0,0-.052,1.2l1.675,3.523-3.305,3.3-3.523-1.675a1.281,1.281,0,0,0-1.2.052,17.741,17.741,0,0,1-4.486,1.856,1.28,1.28,0,0,0-.883.81l-1.307,3.679H87.983l-1.309-3.68a1.28,1.28,0,0,0-.883-.81,17.742,17.742,0,0,1-4.485-1.856,1.28,1.28,0,0,0-1.2-.052l-3.523,1.675-3.3-3.305,1.675-3.523a1.28,1.28,0,0,0-.052-1.2,17.737,17.737,0,0,1-1.856-4.485,1.28,1.28,0,0,0-.81-.883L68.56,92.658V87.985l3.679-1.308a1.28,1.28,0,0,0,.81-.883A17.745,17.745,0,0,1,74.9,81.308a1.28,1.28,0,0,0,.052-1.2l-1.675-3.523,3.305-3.3,3.523,1.675a1.28,1.28,0,0,0,1.2-.052,17.741,17.741,0,0,1,4.486-1.856,1.28,1.28,0,0,0,.883-.81l1.307-3.679h4.674l1.309,3.679a1.279,1.279,0,0,0,.883.81,17.745,17.745,0,0,1,4.486,1.856,1.28,1.28,0,0,0,1.2.052l3.523-1.675,3.3,3.305-1.675,3.523a1.28,1.28,0,0,0,.052,1.2,17.739,17.739,0,0,1,1.856,4.485,1.28,1.28,0,0,0,.81.883l3.679,1.307v4.674L108.4,93.966a1.28,1.28,0,0,0-.81.883Z" transform="translate(-66 -66.002)" fill="#005f54"/>
          <path id="XMLID_459_" d="M169.864,160.611a1.28,1.28,0,0,0-1.165,2.279,11,11,0,0,1,3.741,16.482,6.588,6.588,0,0,0-4.362-3.77,5.244,5.244,0,0,0,.893-2.932v-.688a5.276,5.276,0,1,0-10.552,0v.688a5.245,5.245,0,0,0,.893,2.932,6.588,6.588,0,0,0-4.362,3.77,11,11,0,0,1,3.716-16.469,1.28,1.28,0,0,0-1.172-2.276,13.567,13.567,0,1,0,12.37-.016Zm-8.885,11.37a2.716,2.716,0,1,1,5.432,0v.688a2.716,2.716,0,0,1-5.432,0Zm-3.963,9.458a4,4,0,0,1,3.967-3.494h5.424a4,4,0,0,1,3.967,3.494,10.976,10.976,0,0,1-13.358,0Z" transform="translate(-139.359 -148.379)" fill="#cca079"/>
          <path id="XMLID_461_" d="M247.41,152.56a1.28,1.28,0,1,0-.9-.375A1.29,1.29,0,0,0,247.41,152.56Z" transform="translate(-223.074 -139.249)" fill="#cca079"/>
        </g>
      </g>
    </g>
    <path id="Path_57502" data-name="Path 57502" d="M12496.824,8440.259h-64.216a1.1,1.1,0,0,1-1.1-1.1v-5.931a1.1,1.1,0,0,1,2.2,0v4.831h62.017v-10.294a1.1,1.1,0,0,1,2.2,0v11.394A1.1,1.1,0,0,1,12496.824,8440.259Z" transform="translate(5.863)" fill="#005f54"/>
  </g>
</svg>
