<svg xmlns="http://www.w3.org/2000/svg" width="75.373" height="77.225" viewBox="0 0 75.373 77.225">
  <g id="edarat-icon" transform="translate(-2029 -9018.414)">
    <path id="Path_53187" data-name="Path 53187" d="M64.676,283.287v-4.922a1.781,1.781,0,0,0-1.779-1.779H39.162v-4.475h-2.2l-.012,4.475H12.476a1.781,1.781,0,0,0-1.779,1.779v4.922a11.8,11.8,0,1,0,2.208,0v-4.492H62.468v4.492a11.8,11.8,0,1,0,2.208,0ZM11.8,304.621a9.546,9.546,0,0,1-5.769-1.933,5.817,5.817,0,0,1,2.857-4.482,5.609,5.609,0,0,0,5.822,0,5.819,5.819,0,0,1,2.859,4.481A9.547,9.547,0,0,1,11.8,304.621ZM8.391,293.4a3.41,3.41,0,1,1,3.41,3.41A3.414,3.414,0,0,1,8.391,293.4Zm13,1.63a9.533,9.533,0,0,1-1.956,5.794,8.056,8.056,0,0,0-3.058-4.174,5.618,5.618,0,1,0-9.159,0,8.052,8.052,0,0,0-3.057,4.176,9.59,9.59,0,1,1,17.23-5.793Zm42.178,9.588a9.539,9.539,0,0,1-5.765-1.932,5.817,5.817,0,0,1,2.855-4.482,5.609,5.609,0,0,0,5.822,0,5.818,5.818,0,0,1,2.857,4.482A9.546,9.546,0,0,1,63.572,304.621ZM60.162,293.4a3.41,3.41,0,1,1,3.41,3.41A3.414,3.414,0,0,1,60.162,293.4Zm11.047,7.423a8.051,8.051,0,0,0-3.057-4.176,5.618,5.618,0,1,0-9.159,0,8.053,8.053,0,0,0-3.055,4.174,9.591,9.591,0,1,1,15.27,0Z" transform="translate(2029 8788.802)" fill="#c48e61"/>
    <path id="Path_53188" data-name="Path 53188" d="M189.054,317.506V322a11.694,11.694,0,0,0-5.9,2.246,1.1,1.1,0,1,0,1.311,1.777,9.589,9.589,0,0,1,13.325,13.52,8.052,8.052,0,0,0-3.055-4.176,5.618,5.618,0,1,0-9.159,0,8.052,8.052,0,0,0-3.058,4.178,9.6,9.6,0,0,1-.971-10.037,1.1,1.1,0,0,0-1.98-.978A11.8,11.8,0,1,0,191.262,322v-4.5Zm1.1,11.2a3.41,3.41,0,1,1-3.41,3.41A3.414,3.414,0,0,1,190.158,328.709Zm0,14.632a9.543,9.543,0,0,1-5.769-1.934,5.817,5.817,0,0,1,2.857-4.485,5.609,5.609,0,0,0,5.822,0,5.818,5.818,0,0,1,2.855,4.485A9.536,9.536,0,0,1,190.158,343.341Z" transform="translate(1876.899 8750.09)" fill="#adadad"/>
    <g id="XMLID_2719_" transform="translate(2044.7 9018.414)">
      <g id="XMLID_328_" transform="translate(0 0)">
        <path id="XMLID_332_" d="M105.83,100.147l-1.607-3.381a18.348,18.348,0,0,0,1.45-3.5l3.531-1.256a1.157,1.157,0,0,0,.769-1.09V85.058a1.157,1.157,0,0,0-.77-1.09l-3.53-1.254a18.356,18.356,0,0,0-1.449-3.5l1.607-3.381a1.157,1.157,0,0,0-.227-1.315l-4.143-4.143a1.157,1.157,0,0,0-1.315-.227l-3.381,1.607a18.351,18.351,0,0,0-3.5-1.449l-1.256-3.531A1.157,1.157,0,0,0,90.915,66H85.056a1.157,1.157,0,0,0-1.09.77L82.711,70.3a18.353,18.353,0,0,0-3.5,1.449l-3.381-1.607a1.157,1.157,0,0,0-1.315.227l-4.143,4.143a1.157,1.157,0,0,0-.227,1.315L71.75,79.21a18.348,18.348,0,0,0-1.45,3.5l-3.531,1.256A1.157,1.157,0,0,0,66,85.059v5.859a1.157,1.157,0,0,0,.77,1.09l3.53,1.254a18.355,18.355,0,0,0,1.449,3.5l-1.607,3.381a1.157,1.157,0,0,0,.227,1.315l4.143,4.143a1.157,1.157,0,0,0,1.315.227l3.381-1.607a18.354,18.354,0,0,0,3.5,1.449l1.256,3.531a1.157,1.157,0,0,0,1.09.769h5.859a1.157,1.157,0,0,0,1.09-.77l1.254-3.53a18.352,18.352,0,0,0,3.5-1.449l3.381,1.607a1.157,1.157,0,0,0,1.315-.227l4.143-4.143a1.157,1.157,0,0,0,.227-1.315Zm-2.23-8.066a16.043,16.043,0,0,1-1.678,4.055,1.157,1.157,0,0,0-.047,1.082l1.514,3.185-2.988,2.988-3.185-1.514a1.158,1.158,0,0,0-1.082.047,16.038,16.038,0,0,1-4.055,1.678,1.157,1.157,0,0,0-.8.732L90.1,107.66H85.874l-1.183-3.327a1.157,1.157,0,0,0-.8-.732,16.04,16.04,0,0,1-4.055-1.678,1.157,1.157,0,0,0-1.082-.047l-3.185,1.514L72.583,100.4,74.1,97.218a1.157,1.157,0,0,0-.047-1.082,16.036,16.036,0,0,1-1.678-4.055,1.157,1.157,0,0,0-.732-.8L68.314,90.1V85.876l3.327-1.183a1.157,1.157,0,0,0,.732-.8,16.043,16.043,0,0,1,1.678-4.055,1.157,1.157,0,0,0,.047-1.082l-1.514-3.185,2.988-2.988L78.756,74.1a1.157,1.157,0,0,0,1.082-.047,16.039,16.039,0,0,1,4.055-1.678,1.157,1.157,0,0,0,.8-.732l1.182-3.326H90.1l1.183,3.327a1.157,1.157,0,0,0,.8.732,16.043,16.043,0,0,1,4.055,1.678,1.157,1.157,0,0,0,1.082.047l3.185-1.514,2.988,2.988-1.514,3.185a1.157,1.157,0,0,0,.047,1.082,16.037,16.037,0,0,1,1.678,4.055,1.157,1.157,0,0,0,.732.8l3.326,1.182V90.1l-3.327,1.183a1.157,1.157,0,0,0-.732.8Z" transform="translate(-66 -66.002)" fill="#005f54"/>
        <path id="XMLID_459_" d="M167.971,160.6a1.157,1.157,0,0,0-1.054,2.061,9.944,9.944,0,0,1,3.382,14.9,5.956,5.956,0,0,0-3.943-3.408,4.741,4.741,0,0,0,.807-2.651v-.622a4.77,4.77,0,1,0-9.54,0v.622a4.742,4.742,0,0,0,.807,2.651,5.956,5.956,0,0,0-3.943,3.408,9.944,9.944,0,0,1,3.359-14.889,1.157,1.157,0,1,0-1.059-2.058,12.266,12.266,0,1,0,11.184-.015Zm-8.033,10.279a2.456,2.456,0,1,1,4.911,0v.622a2.456,2.456,0,0,1-4.911,0Zm-3.583,8.551a3.621,3.621,0,0,1,3.586-3.159h4.9a3.621,3.621,0,0,1,3.586,3.159,9.923,9.923,0,0,1-12.076,0Z" transform="translate(-140.392 -149.539)" fill="#005f54"/>
        <path id="XMLID_461_" d="M247.287,152.314a1.158,1.158,0,1,0-.818-.339A1.166,1.166,0,0,0,247.287,152.314Z" transform="translate(-225.286 -140.28)" fill="#005f54"/>
      </g>
    </g>
  </g>
</svg>
