<svg xmlns="http://www.w3.org/2000/svg" width="75.059" height="80.936" viewBox="0 0 75.059 80.936">
  <g id="edarat-icon4" transform="translate(-0.274 0)">
    <path id="Path_53270" data-name="Path 53270" d="M74.145,31.084l-6.962-.671a29.674,29.674,0,0,0-3.535-8.4l4.438-5.358A1.322,1.322,0,0,0,68,14.879L60.471,7.348a1.322,1.322,0,0,0-1.779-.083L53.331,11.7a30.522,30.522,0,0,0-8.394-3.536L44.266,1.2A1.323,1.323,0,0,0,42.949,0H32.657a1.322,1.322,0,0,0-1.316,1.2l-.672,6.972A30.5,30.5,0,0,0,22.275,11.7L16.913,7.264a1.323,1.323,0,0,0-1.779.083L7.6,14.878a1.323,1.323,0,0,0-.083,1.779l4.437,5.357a29.662,29.662,0,0,0-3.538,8.4l-6.959.672A1.316,1.316,0,0,0,.274,32.4V43.078a1.315,1.315,0,0,0,1.188,1.316l6.967.672a30.5,30.5,0,0,0,3.534,8.394L7.521,58.82a1.323,1.323,0,0,0,.142,1.835l5.712,5.052a1.322,1.322,0,0,0,1.961-.234l8.21-11.78A1.323,1.323,0,0,0,23.4,52,20.17,20.17,0,1,1,51.92,52a1.323,1.323,0,0,0-.138,1.709l8.5,11.779a1.322,1.322,0,0,0,1.948.217l5.714-5.05a1.323,1.323,0,0,0,.142-1.835l-4.44-5.362a30.5,30.5,0,0,0,3.536-8.394l6.963-.672a1.315,1.315,0,0,0,1.188-1.316V32.4a1.316,1.316,0,0,0-1.188-1.316ZM72.687,41.876l-6.708.647a1.317,1.317,0,0,0-1.161,1.031,27.893,27.893,0,0,1-3.912,9.286A1.323,1.323,0,0,0,61,54.408l4.237,5.114-3.66,3.236-7-9.705a22.815,22.815,0,1,0-33.812.014l-6.743,9.676-3.641-3.22,4.236-5.114a1.324,1.324,0,0,0,.088-1.569,27.92,27.92,0,0,1-3.915-9.285,1.313,1.313,0,0,0-1.156-1.031l-6.708-.647V33.6l6.708-.648a1.317,1.317,0,0,0,1.162-1.037A27.077,27.077,0,0,1,14.7,22.646a1.323,1.323,0,0,0-.085-1.574L10.326,15.9l5.828-5.828,5.174,4.284a1.321,1.321,0,0,0,1.568.088,27.905,27.905,0,0,1,9.285-3.914,1.322,1.322,0,0,0,1.031-1.164l.647-6.716h7.89L42.4,9.363a1.323,1.323,0,0,0,1.03,1.164,27.9,27.9,0,0,1,9.285,3.915,1.321,1.321,0,0,0,1.568-.088l5.173-4.284L65.28,15.9,61,21.071a1.323,1.323,0,0,0-.084,1.574,27.083,27.083,0,0,1,3.909,9.273,1.312,1.312,0,0,0,1.157,1.037l6.709.647Zm0,0" transform="translate(0 0)" fill="#005f54"/>
    <path id="Path_53271" data-name="Path 53271" d="M176.475,169.5V149.422A11.032,11.032,0,0,0,182,140.076a9.712,9.712,0,0,0-7.872-10.026,1.322,1.322,0,0,0-1.615,1.392l.437,5.613a3.8,3.8,0,0,1-3.527,0l.47-5.644a1.323,1.323,0,0,0-1.686-1.38,10.686,10.686,0,0,0-.971,19.906v20.005a10.941,10.941,0,0,0-5.476,9.309,9.86,9.86,0,0,0,7.776,10.1,1.325,1.325,0,0,0,1.643-1.385l-.435-5.612a3.8,3.8,0,0,1,3.527,0l-.47,5.644a1.323,1.323,0,0,0,1.686,1.38,10.649,10.649,0,0,0,.992-19.869Zm.141,16.508.352-4.229a1.323,1.323,0,0,0-.516-1.162l-.05-.038a6.445,6.445,0,0,0-7.86.052,1.323,1.323,0,0,0-.5,1.141l.338,4.351a7.237,7.237,0,0,1-3.97-6.887,8.3,8.3,0,0,1,4.714-7.3,1.315,1.315,0,0,0,.754-1.2V149a1.316,1.316,0,0,0-.933-1.266,7.58,7.58,0,0,1-5.409-7.584,7.669,7.669,0,0,1,3.532-6.76l-.351,4.229a1.321,1.321,0,0,0,.518,1.162l.049.037a6.441,6.441,0,0,0,7.853-.045l.036-.028a1.324,1.324,0,0,0,.472-1.119l-.342-4.4a7.086,7.086,0,0,1,4.05,6.846,8.462,8.462,0,0,1-4.767,7.353,1.322,1.322,0,0,0-.755,1.195v21.817a1.323,1.323,0,0,0,.94,1.266,7.58,7.58,0,0,1,5.414,7.572,7.731,7.731,0,0,1-3.569,6.734Zm0,0" transform="translate(-134.06 -108.49)" fill="#c48e61"/>
  </g>
</svg>
