<svg xmlns="http://www.w3.org/2000/svg" width="75.764" height="75.764" viewBox="0 0 75.764 75.764">
  <g id="edarat-icon2" transform="translate(-0.002)">
    <g id="Group_25108" data-name="Group 25108" transform="translate(1.482 1.48)">
      <ellipse id="Ellipse_224" data-name="Ellipse 224" cx="4" cy="4.5" rx="4" ry="4.5" transform="translate(32.402 64.401)" fill="#c48e61"/>
    </g>
    <path id="Path_53262" data-name="Path 53262" d="M113.713,30H57.482A1.48,1.48,0,0,0,56,31.479V64.034a1.48,1.48,0,0,0,1.48,1.48h56.231a1.48,1.48,0,0,0,1.48-1.48V31.479A1.48,1.48,0,0,0,113.713,30Zm-1.48,32.555H58.962v-29.6h53.271Z" transform="translate(-47.713 -25.56)" fill="#005f54"/>
    <path id="Path_53263" data-name="Path 53263" d="M74.286,41.433H71.918V4.439A4.444,4.444,0,0,0,67.479,0H8.289A4.444,4.444,0,0,0,3.85,4.439V41.433H1.482A1.48,1.48,0,0,0,0,42.913v2.96a4.444,4.444,0,0,0,4.439,4.439H26.194v8.1H17.572a5.919,5.919,0,1,0,0,2.96h10.1a1.48,1.48,0,0,0,1.48-1.48V50.312H36.4v13.8a5.919,5.919,0,1,0,2.96,0v-13.8h7.251v9.578a1.48,1.48,0,0,0,1.48,1.48H58.2a5.919,5.919,0,1,0,0-2.96H49.574v-8.1H71.326a4.444,4.444,0,0,0,4.439-4.439v-2.96A1.48,1.48,0,0,0,74.286,41.433ZM6.809,4.439a1.481,1.481,0,0,1,1.48-1.48h59.19a1.481,1.481,0,0,1,1.48,1.48V41.433H6.809Zm5.031,58.41a2.96,2.96,0,1,1,2.96-2.96A2.963,2.963,0,0,1,11.84,62.849Zm29,7a2.96,2.96,0,1,1-2.96-2.96A2.963,2.963,0,0,1,40.843,69.845ZM63.928,56.93a2.96,2.96,0,1,1-2.96,2.96A2.963,2.963,0,0,1,63.928,56.93Zm8.878-11.057a1.482,1.482,0,0,1-1.48,1.48H4.441a1.482,1.482,0,0,1-1.48-1.48v-1.48H72.806Z" fill="#005f54"/>
    <path id="Path_53264" data-name="Path 53264" d="M95.981,147.285a1.48,1.48,0,0,0,1.48-1.48v-.07a1.48,1.48,0,0,0-2.96,0v.07A1.48,1.48,0,0,0,95.981,147.285Z" transform="translate(-80.515 -122.909)" fill="#c48e61"/>
    <path id="Path_53265" data-name="Path 53265" d="M95.981,182.905a1.48,1.48,0,0,0,1.48-1.48v-6.132a1.48,1.48,0,1,0-2.96,0v6.132A1.48,1.48,0,0,0,95.981,182.905Z" transform="translate(-80.515 -148.094)" fill="#c48e61"/>
    <path id="Path_53266" data-name="Path 53266" d="M402.484,75.589a1.48,1.48,0,0,0,1.48-1.48V67.978a1.48,1.48,0,1,0-2.96,0V74.11A1.48,1.48,0,0,0,402.484,75.589Z" transform="translate(-341.663 -56.658)" fill="#c48e61"/>
    <path id="Path_53267" data-name="Path 53267" d="M402.484,140.05a1.48,1.48,0,0,0,1.48-1.48v-.07a1.48,1.48,0,1,0-2.96,0v.07A1.48,1.48,0,0,0,402.484,140.05Z" transform="translate(-341.663 -116.744)" fill="#c48e61"/>
  </g>
</svg>
