<svg id="email" xmlns="http://www.w3.org/2000/svg" width="18" height="18" viewBox="0 0 18 18">
  <rect id="Rectangle_16180" data-name="Rectangle 16180" width="18" height="18" fill="#cca079" opacity="0"/>
  <path id="Path_65868" data-name="Path 65868" d="M13.9,4H4.1A2,2,0,0,0,2,5.875v6.25A2,2,0,0,0,4.1,14h9.8A2,2,0,0,0,16,12.125V5.875A2,2,0,0,0,13.9,4Zm-.469,1.25L9,8.219,4.569,5.25Zm.469,7.5H4.1a.666.666,0,0,1-.7-.625V6.031L8.58,9.5a.768.768,0,0,0,.84,0L14.6,6.031v6.094A.666.666,0,0,1,13.9,12.75Z" transform="translate(0)" fill="#cca079"/>
</svg>
