<svg xmlns="http://www.w3.org/2000/svg" width="173.888" height="150" viewBox="0 0 173.888 150">
  <g id="eye-earth" transform="translate(0 -33.891)">
    <path id="Path_58286" data-name="Path 58286" d="M175.443,134.013a41.192,41.192,0,1,0,41.43,41.192A41.358,41.358,0,0,0,175.443,134.013Zm34.335,36.632c-4.079,1.087-11.3,2.3-14.852-1.407-.876-.917-1.628-1.868-2.356-2.788-2.048-2.589-4.37-5.524-8.882-6.2-3.993-.6-6.917,1.208-9.053,2.523-.94.579-2.108,1.3-2.534,1.191-9.02-2.325-8.368-9.524-6.695-17.992a35.026,35.026,0,0,0,.64-3.92,34.7,34.7,0,0,1,43.732,28.591ZM158.66,145.086c-.722,3.664-1.617,8.544-.66,13.225,1.272,6.215,5.558,10.431,12.4,12.193,3.238.834,5.776-.731,7.815-1.988,1.824-1.124,3.015-1.8,4.467-1.585,1.771.264,2.675,1.323,4.55,3.694.786.993,1.676,2.118,2.772,3.266,3.347,3.5,7.953,4.581,12.373,4.581a34.877,34.877,0,0,0,7.625-.923,34.025,34.025,0,0,1-3.086,12.035c-2.264-1.7-5.019-3.728-6.475-4.618-4.884-2.985-9.5-3.836-13.706-2.527-6.595,2.049-10.25,8.836-12.425,13.762-2.45,5.55-6.989,8.588-11.53,11.045l-.016.009a34.674,34.674,0,0,1-7.156-3.831l.653-.369c4.027-2.272,8.591-4.848,8.527-9.89-.033-2.57-1.711-4.608-3.488-6.764-1.51-1.834-3.222-3.911-3.9-6.313a33.814,33.814,0,0,1-1.127-8.662,20.323,20.323,0,0,0-8.818-16.489A34.841,34.841,0,0,1,158.66,145.086ZM140.805,175.2a34.069,34.069,0,0,1,3.187-14.425,13.605,13.605,0,0,1,5.491,10.729,40.486,40.486,0,0,0,1.377,10.4c1.059,3.767,3.347,6.543,5.185,8.774a16,16,0,0,1,1.945,2.654c-.142,1.059-3.1,2.731-5.083,3.847-.9.508-1.815,1.024-2.711,1.579A34.206,34.206,0,0,1,140.805,175.2Zm34.637,34.438q-1.76,0-3.476-.172a26.8,26.8,0,0,0,8.561-10.556c1.642-3.718,4.282-8.8,8.232-10.031,2.252-.7,4.985-.082,8.123,1.835,1.26.77,4.124,2.884,6.567,4.729a34.677,34.677,0,0,1-28.007,14.2Z" transform="translate(-88.499 -66.314)" fill="#007066"/>
    <path id="Path_58287" data-name="Path 58287" d="M173.263,144.5a170.678,170.678,0,0,0-25.008-26.83,129.2,129.2,0,0,0-27.283-18.521C109.445,93.471,98,90.6,86.944,90.6s-22.5,2.877-34.027,8.55a129.2,129.2,0,0,0-27.283,18.521A170.7,170.7,0,0,0,.625,144.5a3.361,3.361,0,0,0,0,3.9,170.691,170.691,0,0,0,25.008,26.83A129.2,129.2,0,0,0,52.916,193.75c11.527,5.674,22.975,8.55,34.027,8.55s22.5-2.877,34.027-8.55a129.2,129.2,0,0,0,27.283-18.521,170.688,170.688,0,0,0,25.008-26.83A3.36,3.36,0,0,0,173.263,144.5Zm-29.475,25.646c-13.357,11.59-34.061,25.405-56.844,25.405-22.736,0-43.4-13.762-56.73-25.307A172.4,172.4,0,0,1,7.637,146.447,171.973,171.973,0,0,1,30.1,122.754c13.357-11.59,34.061-25.405,56.844-25.405,22.736,0,43.4,13.762,56.73,25.306a172.378,172.378,0,0,1,22.577,23.794A172.016,172.016,0,0,1,143.788,170.141Z" transform="translate(0 -37.557)" fill="#cca079"/>
    <path id="Path_58288" data-name="Path 58288" d="M249.4,45.816a3.387,3.387,0,0,0,3.4-3.377V37.268a3.4,3.4,0,0,0-6.793,0V42.44A3.386,3.386,0,0,0,249.4,45.816Z" transform="translate(-162.452)" fill="#012d29"/>
    <path id="Path_58289" data-name="Path 58289" d="M98.949,91.874a3.387,3.387,0,0,0,4.8-4.776l-3.678-3.657a3.411,3.411,0,0,0-4.8,0,3.363,3.363,0,0,0,0,4.776Z" transform="translate(-62.258 -32.164)" fill="#012d29"/>
    <path id="Path_58290" data-name="Path 58290" d="M390.289,92.862a3.4,3.4,0,0,0,2.4-.989l3.678-3.657a3.364,3.364,0,0,0,0-4.776,3.411,3.411,0,0,0-4.8,0L387.888,87.1a3.377,3.377,0,0,0,2.4,5.765Z" transform="translate(-255.495 -32.163)" fill="#012d29"/>
    <path id="Path_58291" data-name="Path 58291" d="M249.4,442.794a3.387,3.387,0,0,0-3.4,3.377v5.171a3.4,3.4,0,0,0,6.793,0v-5.171A3.387,3.387,0,0,0,249.4,442.794Z" transform="translate(-162.452 -270.828)" fill="#012d29"/>
    <path id="Path_58292" data-name="Path 58292" d="M392.69,399.708a3.411,3.411,0,0,0-4.8,0,3.364,3.364,0,0,0,0,4.776l3.678,3.657a3.41,3.41,0,0,0,4.8,0,3.363,3.363,0,0,0,0-4.775Z" transform="translate(-255.494 -241.636)" fill="#012d29"/>
    <path id="Path_58293" data-name="Path 58293" d="M98.95,399.707l-3.678,3.657a3.363,3.363,0,0,0,0,4.775,3.41,3.41,0,0,0,4.8,0l3.678-3.657a3.363,3.363,0,0,0,0-4.776A3.411,3.411,0,0,0,98.95,399.707Z" transform="translate(-62.258 -241.635)" fill="#012d29"/>
  </g>
</svg>
