<svg xmlns="http://www.w3.org/2000/svg" width="16.665" height="16.119" viewBox="0 0 16.665 16.119">
  <path id="XMLID_707_" d="M1.1,3.338h0l2-2c.267-.249.608-.036,1,0,.338.036.751-.249,1,0h0l2,2a1.5,1.5,0,0,1,0,2c-.036.036.036-.018,0,0l-1,1c.071.338,1.238,1.238,3,3,1.744,1.744,2.68,1.929,3,2h0c.018-.036-.036-.964,0-1a1.525,1.525,0,0,1,2,0l3,2h0a1.5,1.5,0,0,1,0,2l-2,2h0c-.32.32-.448,1-1,1a9.727,9.727,0,0,1-3-1,19.27,19.27,0,0,1-6-4,12.793,12.793,0,0,1-3-5C1.784,6.448.179,4.263,1.1,3.338Zm5,8c3.292,3.292,7.377,4.3,8,4l2-2h0l-3-2v1h0c-.214.267-.644.982-1,1-.338.018-1.17-.17-4-3-.694-.694-3.071-2.612-3-4,.018-.356-.249-.786,0-1,.018-.018-.018,0,0,0l1-1-2-2h0l-2,2C1.784,4.961,2.812,8.046,6.1,11.338Z" transform="translate(-0.82 -1.219)" fill="#fff"/>
</svg>
