<svg xmlns="http://www.w3.org/2000/svg" width="261.342" height="76.226" viewBox="0 0 261.342 76.226">
  <g id="footer-logo" transform="translate(-462.432 -309.621)">
    <g id="Group_594" data-name="Group 594" transform="translate(645.37 309.846)">
      <g id="Group_542" data-name="Group 542" transform="translate(64.454 34.283)">
        <path id="Path_256" data-name="Path 256" d="M797.842,363.27c-.225,0-.86.153-1,0-1.3-1.162-2.426-3.023-4-4a26.728,26.728,0,0,0-7-3h0c-.393-.157-1.157-.606-1-1s.607-1.158,1-1l1,1a25.519,25.519,0,0,1,7,3c1.672,1.038,2.616,2.76,4,4,.163.145,1-.218,1,0A1.224,1.224,0,0,1,797.842,363.27Z" transform="translate(-785.117 -354.553)" fill="#c48e61"/>
      </g>
      <g id="Group_543" data-name="Group 543" transform="translate(63.812 53.784)">
        <path id="Path_257" data-name="Path 257" d="M791.647,385.2c-.13,0,.12-.929,0-1a50.635,50.635,0,0,0-7-3c-.4-.153-.153-.605,0-1s.6-.151,1,0a49.182,49.182,0,0,1,7,3c.367.212.212.633,0,1C792.505,384.445,791.912,385.2,791.647,385.2Z" transform="translate(-784.28 -379.983)" fill="#c48e61"/>
      </g>
      <g id="Group_544" data-name="Group 544" transform="translate(11.769 60.283)">
        <path id="Path_258" data-name="Path 258" d="M716.823,394.176c-.3,0,.122-.7,0-1-.16-.393-.392-.84,0-1a66.1,66.1,0,0,1,11-3,10.752,10.752,0,0,1,3-1c.425-.068.93.583,1,1s-.582.929-1,1a8.962,8.962,0,0,1-3,0c-3.711.785-6.8,2.691-10,4A8.7,8.7,0,0,1,716.823,394.176Z" transform="translate(-716.412 -388.459)" fill="#c48e61"/>
      </g>
      <g id="Group_545" data-name="Group 545" transform="translate(72.519 43.429)">
        <path id="Path_259" data-name="Path 259" d="M799.295,370.051c-.172,0,.143.119,0,0-.538-.445-1.417-.581-2-1h0a3.084,3.084,0,0,0-1-1c-.356-.23-1.229-.643-1-1s1.643-.229,2,0c.733.474,1,0,1,0,.634.456,1.436,1.534,2,2a.671.671,0,0,1,0,1C800.142,370.234,799.516,370.051,799.295,370.051Z" transform="translate(-795.635 -366.479)" fill="#c48e61"/>
      </g>
      <g id="Group_546" data-name="Group 546" transform="translate(65.143 39.521)">
        <path id="Path_260" data-name="Path 260" d="M792.052,364.863a5.126,5.126,0,0,1-1,0,52.881,52.881,0,0,0-5-2c-.391-.163-.163-.61,0-1s.611-.163,1,0a50.805,50.805,0,0,1,5,2c.37.206.206.63,0,1C791.912,365.116,792.321,364.863,792.052,364.863Z" transform="translate(-786.016 -361.384)" fill="#c48e61"/>
      </g>
      <g id="Group_547" data-name="Group 547" transform="translate(1.092 42.916)">
        <path id="Path_261" data-name="Path 261" d="M703.576,369.895c-.221,0-.848.183-1,0a.67.67,0,0,1,0-1,40.179,40.179,0,0,1,4-3c.359-.224.776-.36,1,0s.359.775,0,1a41.926,41.926,0,0,0-4,3C703.433,370.013,703.749,369.895,703.576,369.895Z" transform="translate(-702.489 -365.81)" fill="#c48e61"/>
      </g>
      <g id="Group_548" data-name="Group 548" transform="translate(7.323 38.955)">
        <path id="Path_262" data-name="Path 262" d="M711.471,364.69c-.276,0-.863.261-1,0-.2-.375.625-.8,1-1,1.85-.968,3.138-2.268,5-3,.39-.153.846-.4,1,0s.394.845,0,1c-1.811.712-4.2,2.057-6,3C711.358,364.75,711.591,364.69,711.471,364.69Z" transform="translate(-710.615 -360.645)" fill="#c48e61"/>
      </g>
      <g id="Group_549" data-name="Group 549" transform="translate(15.82 14.949)">
        <path id="Path_263" data-name="Path 263" d="M723.055,334.391c-.488,0-.845-.509-1-1-.191-.606-.606-.809,0-1,.436-.137,1.555-.87,2-1h2c1.93-.489,3.994-1.669,6-2,1.2-.2,2.76.144,4,0,.629-.071.927.369,1,1s-.37.926-1,1c-1.2.139-2.833.808-4,1-1.941.319-3.152.532-5,1l-3,1c-.408.12-.581-.132-1,0C722.94,334.427,723.17,334.391,723.055,334.391Z" transform="translate(-721.696 -329.34)" fill="#fff"/>
      </g>
      <g id="Group_550" data-name="Group 550" transform="translate(9.021 19.373)">
        <path id="Path_264" data-name="Path 264" d="M713.987,343.736c-.432,0-.8-.584-1-1-.271-.575.425-1.73,1-2a31.316,31.316,0,0,1,3-1h1c7.482-2.776,15.94-5,25-5,.429,0,.574-.006,1,0,1.446.023,2.6.906,4,1,.634.044,2.043.367,2,1s-1.378,1.035-2,1c-1.357-.092-2.6.021-4,0-.413-.006-.582,0-1,0-8.791,0-17.763,1.315-25,4h0c-1.366.512-2.811.443-4,1C713.829,342.811,714.151,343.736,713.987,343.736Z" transform="translate(-712.83 -335.109)" fill="#fff"/>
      </g>
      <g id="Group_551" data-name="Group 551" transform="translate(23.981 49.001)">
        <path id="Path_265" data-name="Path 265" d="M769.536,378.745a9.673,9.673,0,0,1-1,0,69.9,69.9,0,0,0-21-3c-2.609,0-5.452.75-8,1-.528.052-.477-.062-1,0-1.487.178-3.564.74-5,1-.627.112-.887-.376-1-1s.376-1.887,1-2c1.481-.268,2.467.183,4,0,.539-.064,1.456-.946,2-1,2.623-.257,5.316,0,8,0a74.374,74.374,0,0,1,22,3,2.024,2.024,0,0,1,1,2C770.383,379.238,770.026,378.745,769.536,378.745Z" transform="translate(-732.338 -373.746)" fill="#fff"/>
      </g>
      <g id="Group_552" data-name="Group 552" transform="translate(26.672 53.936)">
        <path id="Path_266" data-name="Path 266" d="M765.354,384.246c-.084,0,.085.019,0,0-1.932-.44-3.977-1-4-1a79.833,79.833,0,0,0-13-1c-1.578,0-3.443-.09-5,0-.318.019-.683-.023-1,0-1.823.129-3.22.745-5,1-.637.082-.91-.372-1-1s-.63-.91,0-1c1.833-.261,4.124-.867,6-1,.324-.023.672.019,1,0,1.6-.094,3.377,0,5,0a77.476,77.476,0,0,1,13,1c.107.018,3.012.548,5,1,.62.14.14.38,0,1A1.128,1.128,0,0,1,765.354,384.246Z" transform="translate(-735.847 -380.182)" fill="#fff"/>
      </g>
      <g id="Group_553" data-name="Group 553" transform="translate(29.493 58.879)">
        <path id="Path_267" data-name="Path 267" d="M763.212,389.749c-.067,0-.933.012-1,0-1.065-.188-1.923.14-3,0a83.245,83.245,0,0,0-12-1c-2.255.044-3.791.767-6,1-.63.059-1.933-.368-2-1s.369-1.933,1-2c2.275-.239,4.679.046,7,0a80.812,80.812,0,0,1,12,1c1.111.143,2.9-.193,4,0,.625.11,1.11.374,1,1A1.069,1.069,0,0,1,763.212,389.749Z" transform="translate(-739.526 -386.628)" fill="#fff"/>
      </g>
      <g id="Group_554" data-name="Group 554" transform="translate(13.696 29.251)">
        <path id="Path_268" data-name="Path 268" d="M720.409,353.74c-.464,0-.825.459-1,0-.226-.594-.594-1.774,0-2h1c1.491-.525,2.443-.582,4-1h0a74.058,74.058,0,0,1,38-1c1.626.382,2.464,1.515,4,2,.6.192,1.192.394,1,1s-.39,1.193-1,1c-1.48-.469-3.429-1.63-5-2-5.46-1.284-11.006-1-17-1a73.959,73.959,0,0,0-19,2h0c-1.5.4-3.588.5-5,1h0C720.274,353.791,720.545,353.74,720.409,353.74Z" transform="translate(-718.925 -347.991)" fill="#fff"/>
      </g>
      <g id="Group_555" data-name="Group 555" transform="translate(18.741 39.122)">
        <path id="Path_269" data-name="Path 269" d="M775.943,369.741a4.077,4.077,0,0,1-1,0,65.65,65.65,0,0,0-29-7c-4.607,0-9.662,1.231-14,2h0c-1.068.192-1.968-.235-3,0-.7.162-1.316.821-2,1-.617.166-.839-.386-1-1s-.615-.838,0-1c.709-.187,2.271-.834,3-1,1.068-.245,1.89-.8,3-1h0a80.464,80.464,0,0,1,14-1,67.829,67.829,0,0,1,30,7c.568.284,1.283.432,1,1C776.741,369.145,776.365,369.741,775.943,369.741Z" transform="translate(-725.504 -360.863)" fill="#fff"/>
      </g>
      <g id="Group_556" data-name="Group 556" transform="translate(21.299 44.065)">
        <path id="Path_270" data-name="Path 270" d="M773.721,375.244c-.152,0,.149-.936,0-1-7.771-3.357-17.065-5-27-5a76.762,76.762,0,0,0-10,1c-.071.025-.923-.01-1,0-.911.124-1.113-.153-2,0-1.047.183-1.952.768-3,1-.619.136-1.862-.38-2-1s.379-.863,1-1c1.081-.238,1.917-.813,3-1,.762-.133,2.187.114,3,0,.074-.027-.081.011,0,0a83.319,83.319,0,0,1,11-1c10.246,0,19.943,1.519,28,5,.584.252.252,1.417,0,2C774.533,374.679,774.166,375.244,773.721,375.244Z" transform="translate(-728.84 -367.309)" fill="#fff"/>
      </g>
      <g id="Group_557" data-name="Group 557" transform="translate(11.24 24.309)">
        <path id="Path_271" data-name="Path 271" d="M716.662,348.237c-.466,0-.827.462-1,0a2.026,2.026,0,0,1,1-2l3-1c.387-.13.646.111,1,0,.381-.122.613-.884,1-1a80.585,80.585,0,0,1,22-3,88.018,88.018,0,0,1,10,1c1.286.153,1.773-.21,3,0,.626.107,1.107,1.374,1,2s-.371,1.11-1,1c-1.189-.2-2.752-.85-4-1-3.057-.363-5.845,0-9,0-7.256,0-14.657.121-21,2-.373.11-.631.883-1,1-.342.109-.663-.113-1,0l-3,1A6.7,6.7,0,0,1,716.662,348.237Z" transform="translate(-715.723 -341.546)" fill="#fff"/>
      </g>
      <g id="Group_558" data-name="Group 558" transform="translate(16.271 34.18)">
        <path id="Path_272" data-name="Path 272" d="M768.191,360.238c-.122,0,.122.041,0,0a72.738,72.738,0,0,0-23-4c-7.463,0-14.52,2.009-21,4a1.581,1.581,0,0,1-1-3,77.677,77.677,0,0,1,46,1c.6.2.2.4,0,1C769.029,359.718,768.671,360.238,768.191,360.238Z" transform="translate(-722.283 -354.418)" fill="#fff"/>
      </g>
      <g id="Group_559" data-name="Group 559" transform="translate(43.771 0.181)">
        <path id="Path_273" data-name="Path 273" d="M759.553,311.9c-.018,0,.018,0,0,0h-1c-.423-.028-.028-.577,0-1s-.419-1.018,0-1h1c.423.031,1.031.577,1,1A1.322,1.322,0,0,1,759.553,311.9Z" transform="translate(-758.145 -310.081)" fill="#adadad"/>
      </g>
      <g id="Group_560" data-name="Group 560" transform="translate(31.668)">
        <path id="Path_274" data-name="Path 274" d="M742.874,311.846a1.338,1.338,0,0,1-1-1c-.035-.423.578-.965,1-1a80.348,80.348,0,0,1,12,0c.422.028,1.027.577,1,1s-.584,1.018-1,1a81.378,81.378,0,0,0-12,0C742.852,311.847,742.9,311.846,742.874,311.846Z" transform="translate(-742.363 -309.846)" fill="#adadad"/>
      </g>
      <g id="Group_561" data-name="Group 561" transform="translate(35.878 4.945)">
        <path id="Path_275" data-name="Path 275" d="M764.154,319.349c-.044,0,.045.008,0,0-1.01-.177-2.192-.906-3-1a67.038,67.038,0,0,0-11-1c-.38.008-1.623,1-2,1h0c-.422,0,0-.578,0-1s-.423-1,0-1c.369,0,1.63.008,2,0a79.056,79.056,0,0,1,12,1c.824.1.959-.184,2,0,.417.073,1.074.583,1,1C765.089,318.72,764.52,319.349,764.154,319.349Z" transform="translate(-747.853 -316.294)" fill="#adadad"/>
      </g>
      <g id="Group_562" data-name="Group 562" transform="translate(54.917 6.696)">
        <path id="Path_276" data-name="Path 276" d="M781.942,322.882c-.09,0,.089.034,0,0-2.527-.953-5.181-2.36-8-3h-1c-.413-.09-.09-.586,0-1s.584-.091,1,0h0a59.213,59.213,0,0,1,8,2c.4.149,1.15.6,1,1C782.826,322.189,782.252,322.882,781.942,322.882Z" transform="translate(-772.681 -318.577)" fill="#adadad"/>
      </g>
      <g id="Group_563" data-name="Group 563" transform="translate(16.511 5.102)">
        <path id="Path_277" data-name="Path 277" d="M723.265,321.4c-.327,0-.9-.672-1-1-.125-.406.6-.875,1-1a71.88,71.88,0,0,1,13-3,17.026,17.026,0,0,0,3,0c.413-.021.97.578,1,1s-.578.97-1,1a17.335,17.335,0,0,1-3,0,73.259,73.259,0,0,0-13,3C723.189,321.42,723.339,321.4,723.265,321.4Z" transform="translate(-722.596 -316.499)" fill="#adadad"/>
      </g>
      <g id="Group_564" data-name="Group 564" transform="translate(45.348 10.215)">
        <path id="Path_278" data-name="Path 278" d="M780.033,328.952c-.1,0,.094.038,0,0a67.9,67.9,0,0,0-16-4,13.047,13.047,0,0,1-3,0c-.422-.036-1.037-.578-1-1s.57-1.046,1-1a15.286,15.286,0,0,1,4,1,66.236,66.236,0,0,1,16,4c.393.159.159.607,0,1C780.912,329.249,780.336,328.952,780.033,328.952Z" transform="translate(-760.202 -323.166)" fill="#adadad"/>
      </g>
      <g id="Group_565" data-name="Group 565" transform="translate(27.64 9.879)">
        <path id="Path_279" data-name="Path 279" d="M737.649,324.85c-.378,0-.948-.615-1-1-.057-.419.58.057,1,0a80.582,80.582,0,0,1,13-1,1.227,1.227,0,0,1,1,1c-.012.423-.565,0-1,0a81.466,81.466,0,0,0-13,1C737.614,324.854,737.683,324.85,737.649,324.85Z" transform="translate(-737.11 -322.728)" fill="#adadad"/>
      </g>
      <g id="Group_566" data-name="Group 566" transform="translate(8.415 11.097)">
        <path id="Path_280" data-name="Path 280" d="M712.8,331.22c-.281,0-.867-.73-1-1-.189-.379.62-.811,1-1,4.116-2.048,8.858-2.9,14-4a8.806,8.806,0,0,1,2-1c.418-.081.924.584,1,1s-.584.925-1,1a11.135,11.135,0,0,1-2,0,61.1,61.1,0,0,0-14,5C712.694,331.275,712.917,331.22,712.8,331.22Z" transform="translate(-712.039 -324.317)" fill="#adadad"/>
      </g>
      <g id="Group_567" data-name="Group 567" transform="translate(52.475 16.055)">
        <path id="Path_281" data-name="Path 281" d="M791.2,339.728a3.7,3.7,0,0,1-1,0c-3.367-2.292-7.368-3.513-12-5a57.1,57.1,0,0,0-8-2c-.417-.073-1.074-.583-1-1s.584-1.075,1-1a61.4,61.4,0,0,1,9,2,45.422,45.422,0,0,1,12,6c.35.238.238.65,0,1C791.051,339.945,791.446,339.728,791.2,339.728Z" transform="translate(-769.495 -330.782)" fill="#adadad"/>
      </g>
      <g id="Group_568" data-name="Group 568" transform="translate(32.866 14.816)">
        <path id="Path_282" data-name="Path 282" d="M759.238,331.351c-.03,0,.031,0,0,0a83.214,83.214,0,0,0-9-1,28.673,28.673,0,0,0-3,0l-3,1c-.423.018.021-.578,0-1s-.423-.979,0-1h2c2.036-.081,3.98,0,4,0,3.023.021,6.076-.347,9,0,.42.051,1.051.579,1,1C760.192,330.739,759.621,331.351,759.238,331.351Z" transform="translate(-743.925 -329.166)" fill="#adadad"/>
      </g>
      <g id="Group_569" data-name="Group 569" transform="translate(2.54 19.314)">
        <path id="Path_283" data-name="Path 283" d="M705.017,341.719c-.235,0,.151.2,0,0-.252-.341-.341-.748,0-1a43.381,43.381,0,0,1,10-6c.393-.155.846.6,1,1s-.605.847-1,1a35.753,35.753,0,0,0-9,5C705.879,341.821,705.175,341.719,705.017,341.719Z" transform="translate(-704.378 -335.033)" fill="#adadad"/>
      </g>
      <g id="Group_570" data-name="Group 570" transform="translate(61.745 23.406)">
        <path id="Path_284" data-name="Path 284" d="M797.019,349.962c-.182,0-.854.131-1,0a40.3,40.3,0,0,0-14-8c-.4-.137-.137-.6,0-1s.6-1.139,1-1c6,2.04,10.29,5.68,14,9a.67.67,0,0,1,0,1C796.867,350.132,797.229,349.962,797.019,349.962Z" transform="translate(-781.585 -340.368)" fill="#adadad"/>
      </g>
      <g id="Group_571" data-name="Group 571" transform="translate(47.473 20.272)">
        <path id="Path_285" data-name="Path 285" d="M772.679,339.009c-.06,0,.061.015,0,0-2.326-.564-5.525-.666-8-1-.491-.066-.5.057-1,0-.42-.048-1.048-.58-1-1s.575-1.054,1-1c.507.057,1.5-.067,2,0,2.527.34,4.624,1.423,7,2,.412.1,1.1.589,1,1C773.594,339.36,773.024,339.009,772.679,339.009Z" transform="translate(-762.973 -336.281)" fill="#adadad"/>
      </g>
      <g id="Group_572" data-name="Group 572" transform="translate(72.011 33.147)">
        <path id="Path_286" data-name="Path 286" d="M800.14,357.924c-.187,0,.147.137,0,0-1.319-1.218-3.316-1.933-5-3-.357-.227-.227-.642,0-1s.641-1.227,1-1a37.836,37.836,0,0,1,5,4,.669.669,0,0,1,0,1C800.989,358.088,800.346,357.924,800.14,357.924Z" transform="translate(-794.972 -353.071)" fill="#adadad"/>
      </g>
      <g id="Group_573" data-name="Group 573" transform="translate(55.436 26.562)">
        <path id="Path_287" data-name="Path 287" d="M789.1,350.922a5.067,5.067,0,0,1-1,0c-.557-.309-.413-.709-1-1a29.214,29.214,0,0,0-7-2,56.656,56.656,0,0,0-6-2c-.413-.094-1.094-.587-1-1s.592-.1,1,0c2.246.514,4.928.29,7,1,.155.054,3.179,1.6,6,3,.609.3,1.422.679,2,1,.37.206.206.63,0,1C788.961,351.175,789.37,350.922,789.1,350.922Z" transform="translate(-773.358 -344.484)" fill="#adadad"/>
      </g>
      <g id="Group_574" data-name="Group 574" transform="translate(0 33.749)">
        <path id="Path_288" data-name="Path 288" d="M702.244,358.107c-.206,0-.849.164-1,0a.669.669,0,0,1,0-1,34.926,34.926,0,0,1,4-3c.352-.238.762-.35,1,0s.35.763,0,1a36.68,36.68,0,0,0-4,3C702.1,358.243,702.431,358.107,702.244,358.107Z" transform="translate(-701.065 -353.856)" fill="#adadad"/>
      </g>
      <g id="Group_575" data-name="Group 575" transform="translate(71.388 47.573)">
        <path id="Path_289" data-name="Path 289" d="M797.951,375.311c-.16,0-.861.1-1,0-.709-.534-1.217-1.5-2-2h0c-.357-.229-1.228-.643-1-1s.641-.229,1,0h1c.814.518,1.258,1.441,2,2,.339.255,1.255.662,1,1C798.8,375.511,798.184,375.311,797.951,375.311Z" transform="translate(-794.16 -371.883)" fill="#adadad"/>
      </g>
      <g id="Group_576" data-name="Group 576" transform="translate(2.309 43.045)">
        <path id="Path_290" data-name="Path 290" d="M704.946,373.934c-.233,0-.849.2-1,0-.255-.338-.339-.745,0-1a46.378,46.378,0,0,1,12-7,4.687,4.687,0,0,0,2,0c.4-.133.868.6,1,1s-.6.868-1,1c-.773.254-.995,0-1,0a46.582,46.582,0,0,0-12,6C704.808,374.038,705.107,373.934,704.946,373.934Z" transform="translate(-704.076 -365.979)" fill="#adadad"/>
      </g>
      <g id="Group_577" data-name="Group 577" transform="translate(68.806 51.073)">
        <path id="Path_291" data-name="Path 291" d="M795.166,380.375c-.146,0,.13.087,0,0a42.458,42.458,0,0,0-4-2c-.377-.194-.194-1.624,0-2s.624-.2,1,0a40.591,40.591,0,0,1,4,2c.353.235.235,1.648,0,2C796.018,380.6,795.414,380.375,795.166,380.375Z" transform="translate(-790.793 -376.448)" fill="#adadad"/>
      </g>
      <g id="Group_578" data-name="Group 578" transform="translate(10.013 47.233)">
        <path id="Path_292" data-name="Path 292" d="M715.289,376.208c-.294,0-.872-.715-1-1-.173-.386-.387-.827,0-1a24.694,24.694,0,0,1,3-1c1.567-.6,3.31-1.514,5-2,.408-.116.883.593,1,1s-.593.883-1,1a40.589,40.589,0,0,0-4,1,25.427,25.427,0,0,0-3,1C715.187,375.252,715.393,376.208,715.289,376.208Z" transform="translate(-714.123 -371.44)" fill="#adadad"/>
      </g>
      <g id="Group_579" data-name="Group 579" transform="translate(3.928 51.871)">
        <path id="Path_293" data-name="Path 293" d="M707.439,380.618a1.225,1.225,0,0,1-1-1c0-.293-.241-.871,0-1,.778-.515,2.173-.534,3-1,.37-.21.793-.37,1,0s-.631.792-1,1c-.815.46-1.235,1.492-2,2C707.313,380.7,707.591,380.618,707.439,380.618Z" transform="translate(-706.188 -377.489)" fill="#adadad"/>
      </g>
      <g id="Group_580" data-name="Group 580" transform="translate(5.989 51.502)">
        <path id="Path_294" data-name="Path 294" d="M710.065,384.505c-.265,0-.858-.754-1-1-.212-.367-.367-.788,0-1a54.855,54.855,0,0,1,12-5,11.573,11.573,0,0,0,3,0c.416-.1.9-.411,1,0s-.589.9-1,1c-1.024.248-3,1-3,1-4.244,1.226-7.666,2.073-11,4C709.945,383.575,710.2,384.505,710.065,384.505Z" transform="translate(-708.875 -377.008)" fill="#adadad"/>
      </g>
      <g id="Group_581" data-name="Group 581" transform="translate(8.558 57.819)">
        <path id="Path_295" data-name="Path 295" d="M712.847,389.426c-.284,0-.867.271-1,0-.188-.38.62-.813,1-1,.953-.471,1.99-1.58,3-2,.011,0,1.873-.568,3-1,.4-.15.849-.395,1,0s.395.849,0,1c-1.123.431-4,2-4,2-.967.4-2.076.544-3,1C712.738,389.48,712.96,389.426,712.847,389.426Z" transform="translate(-712.225 -385.246)" fill="#adadad"/>
      </g>
      <g id="Group_582" data-name="Group 582" transform="translate(56.109 61.282)">
        <path id="Path_296" data-name="Path 296" d="M783.305,394.479c-.1,0,.1.038,0,0-.912-.373-2.042-1.669-3-2-.015-.005-2.847-.7-4-1h-1c-.41-.105-1.1-.59-1-1s.59-1.1,1-1l1,1c1.192.307,4.863.957,5,1,1,.347,2.061.617,3,1,.393.16.16.607,0,1C784.184,393.776,783.606,394.479,783.305,394.479Z" transform="translate(-774.235 -389.761)" fill="#adadad"/>
      </g>
      <g id="Group_583" data-name="Group 583" transform="translate(52.562 65.474)">
        <path id="Path_297" data-name="Path 297" d="M778.227,398.754c-.078,0,.078.025,0,0a64.169,64.169,0,0,0-8-2c-.416-.077-1.077-.584-1-1s.577-1.081,1-1c2.869.531,6.368,2.156,9,3,.4.13.13.6,0,1C779.122,399.079,778.551,398.754,778.227,398.754Z" transform="translate(-769.609 -395.228)" fill="#adadad"/>
      </g>
      <g id="Group_584" data-name="Group 584" transform="translate(32.699 64.198)">
        <path id="Path_298" data-name="Path 298" d="M759.187,395.366c-.028,0,.028,0,0,0a86.449,86.449,0,0,0-13,0h-2c-.432.029.029-.578,0-1s-.422-.97,0-1h2c4.3-.211,8.807.541,13,1,.422.047.046.579,0,1C759.144,395.759,759.573,395.366,759.187,395.366Z" transform="translate(-743.706 -393.564)" fill="#adadad"/>
      </g>
      <g id="Group_585" data-name="Group 585" transform="translate(15.896 64.948)">
        <path id="Path_299" data-name="Path 299" d="M722.078,398.594c-.324,0,.1.325,0,0-.13-.4-.4-.87,0-1a74.626,74.626,0,0,1,12-3c.419-.062.942.58,1,1s-.58-.058-1,0a64.381,64.381,0,0,0-11,3C723,398.618,722.155,398.594,722.078,398.594Z" transform="translate(-721.795 -394.541)" fill="#adadad"/>
      </g>
      <g id="Group_586" data-name="Group 586" transform="translate(39.588 69.15)">
        <path id="Path_300" data-name="Path 300" d="M769.282,402.872c-.055,0-.944.013-1,0-4.869-1.088-9.7-.919-15-1a1.228,1.228,0,0,1-1-1,1.245,1.245,0,0,1,1-1h0a80.857,80.857,0,0,1,16,2c.413.092.094.587,0,1C769.2,403.229,769.633,402.872,769.282,402.872Z" transform="translate(-752.691 -400.022)" fill="#adadad"/>
      </g>
      <g id="Group_587" data-name="Group 587" transform="translate(21.579 69.298)">
        <path id="Path_301" data-name="Path 301" d="M729.806,402.917c-.424,0-1,.424-1,0,0-.383.633-.943,1-1a79.1,79.1,0,0,1,12-2c.426-.02.973.578,1,1s-.577.973-1,1c-3.974.247-8.308.176-12,1C729.75,402.93,729.862,402.917,729.806,402.917Z" transform="translate(-729.205 -400.215)" fill="#adadad"/>
      </g>
      <g id="Group_588" data-name="Group 588" transform="translate(32.269 74.078)">
        <path id="Path_302" data-name="Path 302" d="M744.056,408.37a1.322,1.322,0,0,1-1-1c-.031-.423.577-.969,1-1a80.165,80.165,0,0,1,12,0c.422.031,1.031.577,1,1s-.567,1.036-1,1a81.843,81.843,0,0,0-12,0C744.036,408.372,744.075,408.37,744.056,408.37Z" transform="translate(-743.146 -406.448)" fill="#adadad"/>
      </g>
      <g id="Group_589" data-name="Group 589" transform="translate(0.31 35.04)">
        <path id="Path_303" data-name="Path 303" d="M702.339,363.5a1.225,1.225,0,0,1-1-1h0c0-.218-.163.145,0,0a42.624,42.624,0,0,1,9-6,16.824,16.824,0,0,1,2-1c.39-.167.832.61,1,1s-.611.832-1,1c-1.238.534-1,0-1,0-.022.014.023-.011,0,0a44.64,44.64,0,0,0-9,6C702.2,363.64,702.55,363.5,702.339,363.5Z" transform="translate(-701.47 -355.54)" fill="#adadad"/>
      </g>
      <g id="Group_590" data-name="Group 590" transform="translate(0.325 27.512)">
        <path id="Path_304" data-name="Path 304" d="M702.343,351.211c-.21,0-.849.169-1,0a.67.67,0,0,1,0-1,36.036,36.036,0,0,1,6-4c.367-.213.788-.367,1,0s.366.788,0,1a37.709,37.709,0,0,0-6,4C702.2,351.342,702.526,351.211,702.343,351.211Z" transform="translate(-701.489 -345.723)" fill="#adadad"/>
      </g>
      <g id="Group_591" data-name="Group 591" transform="translate(18.216 55.83)">
        <path id="Path_305" data-name="Path 305" d="M725.783,384.821c-.335,0-.906.339-1,0-.113-.409.592-.886,1-1,1.272-.354,2.251-.637,4-1,.412-.085.913-.416,1,0s.415.913,0,1c-1.717.356-3.759.655-5,1C725.715,384.84,725.851,384.821,725.783,384.821Z" transform="translate(-724.82 -382.651)" fill="#adadad"/>
      </g>
      <g id="Group_592" data-name="Group 592" transform="translate(59.855 57.393)">
        <path id="Path_306" data-name="Path 306" d="M788.444,389.3a6.22,6.22,0,0,1-1,0,53.231,53.231,0,0,0-8-3c-.4-.125-.124-.6,0-1s.593-1.127,1-1c3.208.989,5.586,2.808,8,4,.38.187.188.62,0,1C788.31,389.568,788.727,389.3,788.444,389.3Z" transform="translate(-779.12 -384.689)" fill="#adadad"/>
      </g>
      <g id="Group_593" data-name="Group 593" transform="translate(5.84 31.203)">
        <path id="Path_307" data-name="Path 307" d="M709.02,353.333c-.264,0,.143.244,0,0-.213-.365-.366-.786,0-1,.917-.537,1.146-1.578,2-2,.378-.189.814.62,1,1s.38.813,0,1c-.816.4-1.12.484-2,1A4.737,4.737,0,0,1,709.02,353.333Z" transform="translate(-708.681 -350.537)" fill="#adadad"/>
      </g>
    </g>
    <g id="Group_663" data-name="Group 663" transform="translate(462.198 335.835)">
      <g id="Group_595" data-name="Group 595" transform="translate(0 2.981)">
        <path id="Path_308" data-name="Path 308" d="M482.549,354.654h0c.1-.228-.063-.755,0-1s-.048.275,0,0-.031-.7,0-1c.026-.337,0-.725,0-1a6.321,6.321,0,0,0,0-2,2.864,2.864,0,0,0-1-1c-.291-.215-.606.127-1,0a5.032,5.032,0,0,0-2,0,9.879,9.879,0,0,0-1,0c-.209.056.208-.088,0,0-.189.079-.683-.171-1,0h0v1c.383-.253,1.66.1,2,0a3.615,3.615,0,0,1,2,0c.278.085-.182-.126,0,0a4.5,4.5,0,0,1,1,1,3.233,3.233,0,0,1,0,1,6.261,6.261,0,0,1,0,1c-.041.326.056.8,0,1h-8v-5h-1v5h-4v-6h-1v1h-1a8.172,8.172,0,0,0-2,0c-.557.163-.6-.293-1,0s-.785,1.6-1,2,0,.525,0,1c0,.584-.264.577,0,1a2.923,2.923,0,0,0,1,1,8.852,8.852,0,0,0,2,1c.528.12.413,0,1,0h16Zm-16-5h1v4h-1a3.232,3.232,0,0,1-1,0c-.361-.1-.732-.811-1-1-.252-.175-.857.263-1,0s0-.665,0-1c0-.307-.156-.74,0-1a4.982,4.982,0,0,1,1-1c.267-.183.636.115,1,0a3,3,0,0,1,1,0" transform="translate(-462.198 -347.624)" fill="#fff"/>
      </g>
      <g id="Group_596" data-name="Group 596" transform="translate(20.724 3.546)">
        <path id="Path_309" data-name="Path 309" d="M490.85,348.826v6c0,.142.018.844,0,1-.011.134.054-.1,0,0-.04.085.087-.055,0,0s.169,0,0,0a4.085,4.085,0,0,1-1,0h0l-1,1h1c.363.134.729,1,1,1,.408,0,.733-.877,1-1s-.155.226,0,0-.053-.729,0-1,1-.713,1-1v-6Z" transform="translate(-489.223 -348.361)" fill="#fff"/>
      </g>
      <g id="Group_597" data-name="Group 597" transform="translate(25.581 0.381)">
        <path id="Path_310" data-name="Path 310" d="M509.327,345.864h1v-2h-2v9h-3c.041-.2-.044-.685,0-1a5.307,5.307,0,0,0,0-1,6.32,6.32,0,0,0,0-2,2.832,2.832,0,0,0-1-1c-.289-.216-.606.127-1,0s-.573,0-1,0c-.279,0-.752-.026-1,0a9.9,9.9,0,0,0-1,0c-.215.057.2-.085,0,0s-.683-.171-1,0h0v1c.377-.252.654.1,1,0a3.616,3.616,0,0,1,2,0c.279.085.817-.126,1,0a4.569,4.569,0,0,1,1,1,3.306,3.306,0,0,1,0,1,6.257,6.257,0,0,1,0,1c-.038.3.056.788,0,1h-7v-9h-2v10h14Z" transform="translate(-495.557 -344.234)" fill="#fff"/>
      </g>
      <g id="Group_598" data-name="Group 598" transform="translate(41.579 0.381)">
        <rect id="Rectangle_145" data-name="Rectangle 145" width="2" height="10" transform="translate(-0.228 -0.37)" fill="#fff"/>
      </g>
      <g id="Group_599" data-name="Group 599" transform="translate(46.709 2.981)">
        <path id="Path_311" data-name="Path 311" d="M529.751,347.654h-2v1h0a8.17,8.17,0,0,0-2,0c-.561.159-.6-.293-1,0s-.784,1.6-1,2-1,.525-1,1c0,.584.735.577,1,1a2.917,2.917,0,0,0,1,1c.423.268.455.882,1,1a11.163,11.163,0,0,0,2,0h2Zm-2,2h0v4h0a12.892,12.892,0,0,1-2,0c-.36-.1-.733-.811-1-1s.146.263,0,0,0-.661,0-1c0-.311-.156-.744,0-1a4.964,4.964,0,0,1,1-1c.268-.183-.364.115,0,0a11.932,11.932,0,0,1,2,0" transform="translate(-523.11 -347.624)" fill="#fff"/>
      </g>
      <g id="Group_600" data-name="Group 600" transform="translate(53.519 3.546)">
        <path id="Path_312" data-name="Path 312" d="M534.822,355.826a6.492,6.492,0,0,0,0-1v-6h-1v6c0,.141.018.845,0,1-.011.134.054-.1,0,0-.04.085.087-.055,0,0a6.468,6.468,0,0,1-1,0c-.116,0,.23.081,0,0h0l-1,1h0c.363.134.729,1,1,1,.408,0,.733-.877,1-1s.845.226,1,0-.051-.729,0-1" transform="translate(-531.99 -348.361)" fill="#fff"/>
      </g>
      <g id="Group_601" data-name="Group 601" transform="translate(58.375 0.381)">
        <path id="Path_313" data-name="Path 313" d="M561.3,352.864h-4v-9h-1v9h-3v-5h-2v5h-3c.042-.2-.044-.685,0-1a5.3,5.3,0,0,0,0-1,6.319,6.319,0,0,0,0-2,2.838,2.838,0,0,0-1-1c-.29-.216-.607.127-1,0a10.622,10.622,0,0,0-2,0c-.279,0,.248-.026,0,0a9.9,9.9,0,0,0-1,0c-.215.057-.8-.085-1,0s.317-.171,0,0h-1l1,2v-1c.38-.252.654.1,1,0a3.617,3.617,0,0,1,2,0c.279.085.818-.126,1,0,.278.208-.1.759,0,1s1,.7,1,1a6.257,6.257,0,0,1,0,1c-.038.3-.945.788-1,1h-7v-9h-1v10h24v-8h1v-2h-2Z" transform="translate(-538.323 -344.234)" fill="#fff"/>
      </g>
      <g id="Group_602" data-name="Group 602" transform="translate(86.41 2.981)">
        <path id="Path_314" data-name="Path 314" d="M589.823,349.654c-.355-.309-.5-.814-1-1a7.487,7.487,0,0,0-2,0,7.33,7.33,0,0,0-2,0c-.479.186-.65.679-1,1s-.8.577-1,1a6.451,6.451,0,0,0,0,2c0,.547-.182.626,0,1h-2v-6h-1v1h0a8.17,8.17,0,0,0-2,0c-.561.159-1.6-.293-2,0s-.785,1.6-1,2,0,.525,0,1c0,.584-.265.577,0,1a2.929,2.929,0,0,0,1,1,8.884,8.884,0,0,0,2,1,11.163,11.163,0,0,0,2,0h4c.316.275.551.825,1,1a7.212,7.212,0,0,0,2,0,7.65,7.65,0,0,0,2,0c.482-.166.628-.686,1-1a3.629,3.629,0,0,0,1-1c.212-.426,0-.484,0-1a6.453,6.453,0,0,0,0-2,3.639,3.639,0,0,0-1-1m-1,1a4.981,4.981,0,0,1,1,1c.137.294,0,.666,0,1s.14.715,0,1-.765-.2-1,0-.659.882-1,1a2.819,2.819,0,0,1-1,0c-.388,0-.67.13-1,0s-.762-.788-1-1,.133.291,0,0-1-.693-1-1,.87-.715,1-1-.23-.788,0-1,.673-.87,1-1,.612,0,1,0a2.84,2.84,0,0,1,1,0c.345.127.755.788,1,1m-10-1h1v4h-1a3.232,3.232,0,0,1-1,0c-.36-.1-.733-.811-1-1s.145.263,0,0-1-.661-1-1c0-.311.844-.744,1-1s-.267-.818,0-1,.637.115,1,0a3,3,0,0,1,1,0" transform="translate(-574.882 -347.624)" fill="#fff"/>
      </g>
      <g id="Group_603" data-name="Group 603" transform="translate(103.705 0.38)">
        <path id="Path_315" data-name="Path 315" d="M611.082,343.864v9h-4l2-4c-.042-.036.041.023,0,0a6.868,6.868,0,0,0-2-1,5.775,5.775,0,0,0-4,0c-.024.005-.976-.012-1,0a7.611,7.611,0,0,0-2,1h0l2,4h-3v-9h-2v10h15v-8h1v-2Zm-7,9-2-4c.331-.225.587.137,1,0h0a3.546,3.546,0,0,1,2,0c.284.066.769-.088,1,0s.775-.113,1,0c.141.071-.088-.054,0,0l-2,4Z" transform="translate(-597.436 -344.233)" fill="#fff"/>
      </g>
      <g id="Group_604" data-name="Group 604" transform="translate(120.595 0.381)">
        <rect id="Rectangle_146" data-name="Rectangle 146" width="2" height="10" transform="translate(-0.244 -0.37)" fill="#fff"/>
      </g>
      <g id="Group_605" data-name="Group 605" transform="translate(133.478)">
        <path id="Path_316" data-name="Path 316" d="M639.135,345.748h-2c0-.167.967-.97,1-1s-.311,0,0,0h1v-1h-1c-.568,0-.708-.3-1,0h0a4.694,4.694,0,0,0-1,2v1h3Z" transform="translate(-636.262 -343.737)" fill="#fff"/>
      </g>
      <g id="Group_606" data-name="Group 606" transform="translate(125.723 0.377)">
        <path id="Path_317" data-name="Path 317" d="M656.776,345.863h1v-2h-2v9h-3c.026-.152-.034-.774,0-1a7.022,7.022,0,0,0,0-1,3.1,3.1,0,0,0,0-1c-.107-.479-.736-.566-1-1-.175-.293.287-.739,0-1s-.644-.814-1-1-.54.127-1,0-1.5-1-2-1c-.672,0-1.443.859-2,1s-1.339-.293-2,0h0l1,1h0c.464-.215.551.143,1,0a9.422,9.422,0,0,1,2,0c.895,0,1.4-.29,2,0a1.839,1.839,0,0,1,1,1c.2.356.93.646,1,1a18.476,18.476,0,0,1,0,2c0,.26.044-.3,0,0-.038.256.034.84,0,1h-2c.011-.067-.019.105,0,0,.041-.263,1-.706,1-1,0-.46-.878-.628-1-1s.256-.722,0-1-.633-.845-1-1-.536,0-1,0a8.753,8.753,0,0,0-2,0c-.371.155-.747.728-1,1s.13.622,0,1,0,.544,0,1a5.973,5.973,0,0,0,0,1c.018.1-.011-.064,0,0h-4v-5h-1v5h-4v-5h-1v5h-2v-6h-2v1h0a8.171,8.171,0,0,0-2,0c-.557.163-.6-.293-1,0s-.784,1.6-1,2-1,.525-1,1c0,.584.735.577,1,1a2.929,2.929,0,0,0,1,1c.423.268.454.882,1,1a11.162,11.162,0,0,0,2,0h26Zm-8,6a7.506,7.506,0,0,1,0,1c-.018.134.018-.081,0,0h-3c-.018-.085.026.138,0,0a9.047,9.047,0,0,1,0-1,4.728,4.728,0,0,1,0-1c.071-.231-.141.169,0,0a6.625,6.625,0,0,1,1-1,3.593,3.593,0,0,1,1,0c.274,0-.193-.093,0,0a7,7,0,0,1,1,1c.145.171-.066-.232,0,0a4.535,4.535,0,0,1,0,1m-18-3h0v4h0a12.892,12.892,0,0,1-2,0c-.36-.1-.733-.811-1-1s.146.263,0,0,0-.665,0-1c0-.307-.156-.74,0-1a5.044,5.044,0,0,1,1-1c.268-.183-.364.115,0,0a11.932,11.932,0,0,1,2,0" transform="translate(-626.148 -344.229)" fill="#fff"/>
      </g>
      <g id="Group_607" data-name="Group 607" transform="translate(158.596 0.378)">
        <rect id="Rectangle_147" data-name="Rectangle 147" width="2" height="10" transform="translate(-0.245 -0.367)" fill="#fff"/>
      </g>
      <g id="Group_608" data-name="Group 608" transform="translate(0.193 16.265)">
        <path id="Path_318" data-name="Path 318" d="M464.607,370.693a8.207,8.207,0,0,1-1,0c-.207-.04.186.069,0,0s-.842.094-1,0,.114.109,0,0a4.154,4.154,0,0,1,0-1h0a3.9,3.9,0,0,1,1,0c.092.075-.118-.074,0,0s-.135-.057,0,0,.851-.038,1,0-.166,0,0,0c.35,0,.808.158,1,0s0,.247,0,0c0-.212.155-.865,0-1s-.6.058-1,0h0c-.568-.081-.7-.728-1-1s-1-.512-1-1a3.636,3.636,0,0,1,0-1c.092-.218.827.156,1,0s-.244-.916,0-1a4,4,0,0,1,1,0,3.145,3.145,0,0,1,1,0c.33.106.765.822,1,1,.04.035.028-.046,0,0v1a4.448,4.448,0,0,1-1,0c-.241-.154.224-.926,0-1a4.447,4.447,0,0,0-1,0c-.3,0-.842-.146-1,0s0,.771,0,1c0,.2-.161-.134,0,0s.6.943,1,1h0c.567.081,1.7-.273,2,0s0,.5,0,1a3.638,3.638,0,0,1,0,1c-.091.224.187.84,0,1s-.725-.092-1,0a3.654,3.654,0,0,1-1,0" transform="translate(-462.45 -364.947)" fill="#fff"/>
      </g>
      <g id="Group_609" data-name="Group 609" transform="translate(5.56 17.968)">
        <path id="Path_319" data-name="Path 319" d="M472.239,371.211c-.058,0,0,.057,0,0h0c-.1.143-.805-.089-1,0s.292,0,0,0a6.5,6.5,0,0,1-1,0c-.169-.051.127.1,0,0s-.926.158-1,0a4.487,4.487,0,0,1,0-1c0-.453.7-.788,1-1s.483,0,1,0h1c.034,0,0,.035,0,0v-1c0-.241.132.109,0,0s-.65,0-1,0a6.107,6.107,0,0,0-1,0c-.15.054.1-.081,0,0-.052.04.029.052,0,0l-1-1c-.028-.046-.04.028,0,0,.167-.121.765.074,1,0a4.465,4.465,0,0,1,1,0c.632,0,.739-.229,1,0s1,.5,1,1v3c0,.057.058,0,0,0Zm-1,0c.3,0,.842-.885,1-1s0,.241,0,0v-1c0-.034.034,0,0,0h-1c-.309,0-.857.911-1,1s0-.2,0,0a1.257,1.257,0,0,0,1,1" transform="translate(-469.448 -367.169)" fill="#fff"/>
      </g>
      <g id="Group_610" data-name="Group 610" transform="translate(10.37 18.064)">
        <path id="Path_320" data-name="Path 320" d="M478.7,371.24c-.057,0,0,.057,0,0h0c-.114.143-.831-.089-1,0a3.745,3.745,0,0,1-1,0c-.224,0,.175.077,0,0s-.877.137-1,0,.066-.814,0-1,0,.224,0,0v-3c0-.058-.058,0,0,0h1c.058,0,0-.058,0,0v3c0,.269-.127-.167,0,0s.736,0,1,0c.247,0-.135.166,0,0s1,.264,1,0v-3c0-.058-.057,0,0,0h0c.057,0,0-.058,0,0v4c0,.057.057,0,0,0Z" transform="translate(-475.721 -367.293)" fill="#fff"/>
      </g>
      <g id="Group_611" data-name="Group 611" transform="translate(15.051 16.36)">
        <path id="Path_321" data-name="Path 321" d="M484.125,370.722c-.057,0,0,.057,0,0h0c-.1.144.177-.092,0,0a3.646,3.646,0,0,1-1,0c-.356,0-.754.166-1,0s.109-.667,0-1c-.052-.16.023.169,0,0s0-.719,0-1-.023-.831,0-1-.052.161,0,0c.109-.333-.247-.834,0-1s.644,0,1,0a3.618,3.618,0,0,1,1,0c.177.092-.1-.143,0,0h0v-2c0-.058-.057,0,0,0h1c.058,0,0-.058,0,0v6c0,.057.058,0,0,0Zm0-1c.4,0-.115.356,0,0,.029-.1-.014.115,0,0s0-.811,0-1,.015.114,0,0,.029-.9,0-1c-.115-.356.4,0,0,0s-.885-.356-1,0c-.028.1.015.885,0,1s0-.189,0,0-.015.885,0,1-.028-.1,0,0c.115.356.6,0,1,0" transform="translate(-481.826 -365.071)" fill="#fff"/>
      </g>
      <g id="Group_612" data-name="Group 612" transform="translate(20.137 18.064)">
        <path id="Rectangle_148" data-name="Rectangle 148" d="M.112,0H.888A.112.112,0,0,1,1,.112V3.887A.113.113,0,0,1,.887,4H.112A.112.112,0,0,1,0,3.888V.112A.112.112,0,0,1,.112,0Z" transform="translate(0.213 -0.053)" fill="#fff"/>
      </g>
      <g id="Group_613" data-name="Group 613" transform="translate(24.578 16.265)">
        <path id="Path_322" data-name="Path 322" d="M494.022,369.693c-.029-.092.021.092,0,0s.012-.88,0-1,.005.163,0,0,0-.77,0-1-.005.163,0,0-.012-.88,0-1-.02.092,0,0-.029.092,0,0c.149-.465.638-.762,1-1s.478-1,1-1a4.835,4.835,0,0,1,1,0c.224.069.827.888,1,1s-.115-.152,0,0,.937-.161,1,0a10.345,10.345,0,0,1-1,1h0c-.051.017.023.046,0,0a5.793,5.793,0,0,0-1-1c-.184-.123-.712,0-1,0s.178-.135,0,0a4.649,4.649,0,0,0-1,1c-.017.051.015-.068,0,0s.008-.1,0,0,0,.854,0,1,0-.206,0,0,0,.854,0,1-.009-.1,0,0-.014-.069,0,0-.017.949,0,1c.081.241.822-.135,1,0s-.3,0,0,0c.258,0,.8.123,1,0s.919.241,1,0c.028-.091-.018-.877,0-1s0,.167,0,0c0-.034.034,0,0,0h-1c-.057,0,0,.057,0,0v-1c0-.057-.057,0,0,0h2c.058,0,0-.057,0,0v1c0,.241.022-.232,0,0s.046.851,0,1c-.143.459-.636.75-1,1s-1.5,0-2,0c-.522,0-.639.238-1,0s-.851-.535-1-1" transform="translate(-494.249 -364.947)" fill="#fff"/>
      </g>
      <g id="Group_614" data-name="Group 614" transform="translate(30.076 17.969)">
        <path id="Path_323" data-name="Path 323" d="M503.694,371.212c-.442,0-1.7.2-2,0s.113-.639,0-1c-.046-.132.026.163,0,0s0-.782,0-1-.023.166,0,0-.046-.869,0-1c.115-.362-.3-.8,0-1a6.687,6.687,0,0,1,2,0c.43,0,.7-.2,1,0s-.113.644,0,1c.023.074-.017-.074,0,0s-.012.9,0,1-.005-.123,0,0,0-.166,0,0c0,.058.063,0,0,0h-2c-.034,0,0-.034,0,0,0,.064-.013.949,0,1s-.018-.045,0,0c.143.419.524,0,1,0,.235,0-.155.074,0,0s.9.115,1,0c.046-.046-.04-.035,0,0h0a4.54,4.54,0,0,1,0,1c-.178.206.285-.133,0,0s-.616,0-1,0m0-2a9.459,9.459,0,0,0,0-1c-.058-.166.144.094,0,0s.195,0,0,0a3.545,3.545,0,0,0-1,0c-.143.094.057-.166,0,0a9.877,9.877,0,0,0,0,1c0,.034-.034,0,0,0h1c.035,0,0,.034,0,0" transform="translate(-501.419 -367.17)" fill="#fff"/>
      </g>
      <g id="Group_615" data-name="Group 615" transform="translate(34.956 17.968)">
        <path id="Path_324" data-name="Path 324" d="M510.178,371.211c-.057,0,0,.057,0,0v-2c0-.27.132-.834,0-1s-.742,0-1,0,.137-.166,0,0,0,.73,0,1v2a5.872,5.872,0,0,1-1,0h0c-.057,0,0,.057,0,0v-4c0-.058-.057,0,0,0h0a5.8,5.8,0,0,1,1,0h0c.092-.132-.18.1,0,0a3.534,3.534,0,0,1,1,0c.224,0-.176-.077,0,0s.873-.138,1,0-.066.814,0,1,0-.224,0,0v3c0,.057.057,0,0,0Z" transform="translate(-507.783 -367.169)" fill="#fff"/>
      </g>
      <g id="Group_616" data-name="Group 616" transform="translate(39.62 17.969)">
        <path id="Path_325" data-name="Path 325" d="M515.6,371.212c-.442,0-.7.2-1,0s-.886-.639-1-1c-.046-.132.026.163,0,0s0-.782,0-1-.023.166,0,0-.045-.869,0-1c.115-.362.7-.8,1-1s.587,0,1,0c.43,0,.7-.2,1,0s.885.644,1,1c.023.074-.017-.074,0,0s-.012.9,0,1-.006-.123,0,0,0-.166,0,0c0,.058.063,0,0,0h-3c-.034,0,0-.034,0,0,0,.064-.012.949,0,1s-.018-.045,0,0c.143.419.524,0,1,0a4.48,4.48,0,0,0,1,0c.155-.075-.1.115,0,0,.046-.046-.04-.035,0,0h1a4.494,4.494,0,0,1,0,1c-.178.206-.713-.133-1,0s-.615,0-1,0m1-2a9.668,9.668,0,0,0,0-1c-.058-.166.143.094,0,0a3.546,3.546,0,0,0-1,0c-.2,0,.143-.094,0,0s-.943-.166-1,0a9.668,9.668,0,0,0,0,1c0,.034-.034,0,0,0h2c.034,0,0,.034,0,0" transform="translate(-513.865 -367.17)" fill="#fff"/>
      </g>
      <g id="Group_617" data-name="Group 617" transform="translate(44.499 17.968)">
        <path id="Path_326" data-name="Path 326" d="M520.08,371.211c-.057,0,0,.057,0,0v-4c0-.058-.057,0,0,0h1c.057,0,0-.058,0,0h0c.1-.16.822.1,1,0s-.265,0,0,0a5.513,5.513,0,0,1,1,0c.151.061-.109-.109,0,0,.04.04.029-.04,0,0v1c-.034.046.045.035,0,0-.1-.064-.9.035-1,0s.114,0,0,0c-.275,0-.877-.184-1,0s0,.668,0,1v2c0,.057.057,0,0,0Z" transform="translate(-520.228 -367.169)" fill="#fff"/>
      </g>
      <g id="Group_618" data-name="Group 618" transform="translate(47.967 17.968)">
        <path id="Path_327" data-name="Path 327" d="M527.134,371.211c-.057,0,0,.057,0,0h0c-.1.143.195-.089,0,0a3.744,3.744,0,0,1-1,0,6.5,6.5,0,0,1-1,0c-.169-.051.126.1,0,0s.074.158,0,0a4.489,4.489,0,0,1,0-1c0-.453-.3-.788,0-1s.483,0,1,0h1c.034,0,0,.035,0,0v-1c0-.241.132.109,0,0s-.65,0-1,0c-.235,0,.15-.054,0,0s-.9-.081-1,0c-.052.04.029.052,0,0v-1c-.028-.046-.04.028,0,0,.166-.121-.235.074,0,0a4.464,4.464,0,0,1,1,0c.631,0,1.739-.229,2,0s0,.5,0,1v3c0,.057.058,0,0,0Zm-1,0c.3,0,.842-.885,1-1s0,.241,0,0v-1c0-.034.034,0,0,0h-1c-.31,0,.143.911,0,1s0-.2,0,0c0,.344-.476,1,0,1" transform="translate(-524.75 -367.169)" fill="#fff"/>
      </g>
      <g id="Group_619" data-name="Group 619" transform="translate(52.812 16.36)">
        <path id="Path_328" data-name="Path 328" d="M532.607,370.722c-.407,0-.825.195-1,0s-1-.6-1-1v-5a5.792,5.792,0,0,1,1,0h0c.057,0,0-.058,0,0v5c0,.143.943-.054,1,0s-.126,0,0,0h0c.057,0,0-.057,0,0v1c0,.057.057,0,0,0Z" transform="translate(-531.068 -365.071)" fill="#fff"/>
      </g>
      <g id="Group_620" data-name="Group 620" transform="translate(57.229 16.36)">
        <path id="Path_329" data-name="Path 329" d="M538.95,364.722c.017-.058-.058,0,0,0h1c.057,0-.017-.058,0,0l2,6c.018.057.057,0,0,0h-1c-.057,0,.018.057,0,0l-1-1h-2v1c-.017.057.058,0,0,0h-1c-.057,0-.017.057,0,0Zm1,4-1-2h0v2Z" transform="translate(-536.828 -365.071)" fill="#fff"/>
      </g>
      <g id="Group_621" data-name="Group 621" transform="translate(63.088 18.064)">
        <path id="Path_330" data-name="Path 330" d="M546.731,371.24c-.058,0,0,.057,0,0h0c-.114.143.169-.089,0,0a3.745,3.745,0,0,1-1,0c-.224,0,.175.077,0,0s-.877.137-1,0,.066-.814,0-1,0,.224,0,0v-3c0-.058-.057,0,0,0h1c.057,0,0-.058,0,0v3c0,.269-.126-.167,0,0s-.264,0,0,0c.246,0,.865.166,1,0s0,.264,0,0v-3c0-.058-.058,0,0,0h1c.058,0,0-.058,0,0v4c0,.057.058,0,0,0Z" transform="translate(-544.468 -367.293)" fill="#fff"/>
      </g>
      <g id="Group_622" data-name="Group 622" transform="translate(67.639 16.79)">
        <path id="Path_331" data-name="Path 331" d="M552.115,370.853c-.419,0-.825.2-1,0s0-.593,0-1v-2c0-.035.034,0,0,0h-1c-.057,0,0,.057,0,0v-1c0-.058-.057,0,0,0h1c.034,0,0,.034,0,0v-1c0-.057-.057,0,0,0h1c.057,0,0-.057,0,0v1c0,.034-.035,0,0,0h0c.057,0,0-.058,0,0v1c0,.057.057,0,0,0h0c-.035,0,0-.035,0,0v2c0,.149-.063-.054,0,0s-.133,0,0,0h0c.057,0,0-.057,0,0v1c0,.057.057,0,0,0Z" transform="translate(-550.403 -365.632)" fill="#fff"/>
      </g>
      <g id="Group_623" data-name="Group 623" transform="translate(70.926 16.36)">
        <path id="Path_332" data-name="Path 332" d="M557.115,370.722c-.057,0,0,.057,0,0v-2c0-.27.133-.834,0-1s-.742,0-1,0,.137-.166,0,0,0,.73,0,1v2a5.872,5.872,0,0,1-1,0h0c-.057,0,0,.057,0,0v-6c0-.058-.057,0,0,0h0a5.792,5.792,0,0,1,1,0v2h0c.092-.132-.18.1,0,0a3.532,3.532,0,0,1,1,0c.223,0-.175-.077,0,0s.873-.138,1,0-.067.814,0,1,0-.224,0,0v3c0,.057.057,0,0,0Z" transform="translate(-554.69 -365.071)" fill="#fff"/>
      </g>
      <g id="Group_624" data-name="Group 624" transform="translate(75.591 17.968)">
        <path id="Path_333" data-name="Path 333" d="M562.533,371.211c-.425,0-.7.2-1,0s-.885-.638-1-1c-.046-.149.023.152,0,0s0-.77,0-1-.022.152,0,0-.046-.851,0-1c.115-.362.7-.8,1-1s.575,0,1,0,.7-.2,1,0,.885.638,1,1c.046.149-.023.848,0,1s0-.229,0,0,.023.847,0,1,.046-.149,0,0c-.115.362-.7.8-1,1s-.581,0-1,0m0-1a3.543,3.543,0,0,0,1,0c.129-.1-.063.173,0,0,.035-.109-.012.112,0,0s0-.822,0-1,.012.109,0,0,.035-.885,0-1c-.063-.172.129.1,0,0a3.543,3.543,0,0,0-1,0c-.195,0,.133-.094,0,0s-.937-.172-1,0c-.035.115.012.891,0,1s0-.177,0,0-.011.888,0,1-.035-.109,0,0c.063.173.868-.1,1,0s-.195,0,0,0" transform="translate(-560.773 -367.169)" fill="#fff"/>
      </g>
      <g id="Group_625" data-name="Group 625" transform="translate(80.488 17.968)">
        <path id="Path_334" data-name="Path 334" d="M567.022,371.211c-.057,0,0,.057,0,0v-4c0-.058-.057,0,0,0h1c.057,0,0-.058,0,0h0c.1-.16.822.1,1,0s-.265,0,0,0a5.513,5.513,0,0,1,1,0c.151.061-.109-.109,0,0,.04.04.029-.04,0,0v1a4.155,4.155,0,0,1-1,0c-.1-.064.1.035,0,0s.114,0,0,0c-.275,0-.877-.184-1,0s0,.668,0,1v2c0,.057.057,0,0,0Z" transform="translate(-567.159 -367.169)" fill="#fff"/>
      </g>
      <g id="Group_626" data-name="Group 626" transform="translate(84.3 18.064)">
        <rect id="Rectangle_149" data-name="Rectangle 149" width="1" height="4" rx="0.112" transform="translate(0.051 -0.053)" fill="#fff"/>
      </g>
      <g id="Group_627" data-name="Group 627" transform="translate(86.339 16.79)">
        <path id="Path_335" data-name="Path 335" d="M576.8,370.853c-.419,0-.825.2-1,0s-1-.593-1-1v-2c0-.035.034,0,0,0h0c-.057,0,0,.057,0,0v-1c0-.058-.057,0,0,0h0c.034,0,0,.034,0,0v-1c0-.057-.057,0,0,0h1c.057,0,0-.057,0,0v1c0,.034-.034,0,0,0h1c.057,0,0-.058,0,0v1c0,.057.057,0,0,0h-1c-.034,0,0-.035,0,0v2c0,.149-.063-.054,0,0a6.033,6.033,0,0,0,1,0h0c.057,0,0-.057,0,0v1c0,.057.057,0,0,0Z" transform="translate(-574.79 -365.632)" fill="#fff"/>
      </g>
      <g id="Group_628" data-name="Group 628" transform="translate(89.148 18.064)">
        <path id="Path_336" data-name="Path 336" d="M578.655,373.24c-.058,0,0,.057,0,0v-1c0-.057-.058,0,0,0h1c.166,0-.092.077,0,0s-.063-.827,0-1h0l-1-4c-.017-.058-.063,0,0,0h1c.051,0-.018-.058,0,0l1,3h0l1-3c.018-.058-.051,0,0,0h1c.063,0,.017-.058,0,0l-2,4c-.092.247.092.837,0,1s.109-.1,0,0a11.832,11.832,0,0,1-1,1c-.132.043.172,0,0,0Z" transform="translate(-578.452 -367.293)" fill="#fff"/>
      </g>
      <g id="Group_629" data-name="Group 629" transform="translate(95.951 17.968)">
        <path id="Path_337" data-name="Path 337" d="M588.724,371.211c-.425,0-.7.2-1,0s.115-.638,0-1c-.046-.149.023.152,0,0s0-.77,0-1-.023.152,0,0-.046-.851,0-1c.115-.362-.3-.8,0-1s.575,0,1,0,1.7-.2,2,0-.115.638,0,1c.046.149-.022.848,0,1s0-.229,0,0,.024.847,0,1,.046-.149,0,0c-.115.362.3.8,0,1s-1.581,0-2,0m0-1a3.543,3.543,0,0,0,1,0c.129-.1-.063.173,0,0,.034-.109-.012.112,0,0s0-.822,0-1,.012.109,0,0,.034-.885,0-1c-.063-.172.129.1,0,0a3.543,3.543,0,0,0-1,0c-.195,0,.132-.094,0,0s.063-.172,0,0c-.034.115.012.891,0,1s0-.177,0,0-.011.888,0,1-.034-.109,0,0c.063.173-.132-.1,0,0s-.195,0,0,0" transform="translate(-587.324 -367.169)" fill="#fff"/>
      </g>
      <g id="Group_630" data-name="Group 630" transform="translate(100.563 16.36)">
        <path id="Path_338" data-name="Path 338" d="M594.126,370.722c-.058,0,0,.057,0,0v-3c0-.034.034,0,0,0h-1c-.057,0,0,.057,0,0v-1c0-.057-.057,0,0,0h1c.034,0,0,.034,0,0h0c0-.487-.232-.781,0-1s.547-1,1-1h0c.057,0,0-.058,0,0v1c0,.058.057,0,0,0h0c-.109,0,.069-.015,0,0s.038-.04,0,0,.015-.064,0,0,0,.9,0,1h0c0,.034-.035,0,0,0h0c.057,0,0-.057,0,0v1c0,.057.057,0,0,0h0c-.035,0,0-.034,0,0v3c0,.057.057,0,0,0Z" transform="translate(-593.339 -365.071)" fill="#fff"/>
      </g>
      <g id="Group_631" data-name="Group 631" transform="translate(106.062 16.36)">
        <path id="Path_339" data-name="Path 339" d="M600.8,364.722c0-.058-.057,0,0,0h3a5.792,5.792,0,0,1,1,0v1a5.8,5.8,0,0,1-1,0h-2c-.034,0,0-.034,0,0v2c0,.034-.034,0,0,0h2c.057,0,0-.057,0,0v1c0,.058.057,0,0,0h-2c-.034,0,0-.034,0,0v2c0,.057.058,0,0,0h-1c-.057,0,0,.057,0,0Z" transform="translate(-600.51 -365.071)" fill="#fff"/>
      </g>
      <g id="Group_632" data-name="Group 632" transform="translate(110.512 17.968)">
        <path id="Path_340" data-name="Path 340" d="M608.151,371.211c-.425,0-.7.2-1,0s-.886-.638-1-1c-.046-.149.023.152,0,0s0-.77,0-1-.023.152,0,0-.046-.851,0-1c.114-.362.7-.8,1-1s.575,0,1,0,.7-.2,1,0,.885.638,1,1c.046.149-.022.848,0,1s0-.229,0,0,.023.847,0,1,.046-.149,0,0c-.115.362-.7.8-1,1s-.581,0-1,0m0-1c.195,0-.129.094,0,0s.936.173,1,0c.035-.109-.012.112,0,0s0-.822,0-1,.011.109,0,0,.035-.885,0-1c-.064-.172-.871.1-1,0s.195,0,0,0,.132-.094,0,0-.937-.172-1,0c-.035.115.012.891,0,1s0-.177,0,0-.011.888,0,1-.035-.109,0,0c.063.173.868-.1,1,0s-.195,0,0,0" transform="translate(-606.312 -367.169)" fill="#fff"/>
      </g>
      <g id="Group_633" data-name="Group 633" transform="translate(115.408 17.968)">
        <path id="Path_341" data-name="Path 341" d="M612.64,371.211c-.057,0,0,.057,0,0v-4c0-.058-.057,0,0,0h1c.057,0,0-.058,0,0h0c.1-.16-.178.1,0,0a3.427,3.427,0,0,1,1,0,5.513,5.513,0,0,1,1,0c.152.061-.109-.109,0,0,.041.04.028-.04,0,0v1a4.155,4.155,0,0,1-1,0c-.1-.064.1.035,0,0s.114,0,0,0c-.275,0-.877-.184-1,0s0,.668,0,1v2c0,.057.057,0,0,0Z" transform="translate(-612.697 -367.169)" fill="#fff"/>
      </g>
      <g id="Group_634" data-name="Group 634" transform="translate(118.996 17.969)">
        <path id="Path_342" data-name="Path 342" d="M619.731,371.212c-.442,0-1.7.2-2,0s.113-.639,0-1c-.046-.132.026.163,0,0s0-.782,0-1-.024.166,0,0-.045-.869,0-1c.116-.362-.3-.8,0-1s.587,0,1,0c.43,0,1.7-.2,2,0s-.114.644,0,1c.023.074-.018-.074,0,0s-.012.9,0,1-.006-.123,0,0,0-.166,0,0c0,.058.064,0,0,0h-2c-.035,0,0-.034,0,0,0,.064-.012.949,0,1s-.018-.045,0,0c.143.419.524,0,1,0,.235,0-.155.074,0,0s.9.115,1,0c.046-.046-.04-.035,0,0h0a4.542,4.542,0,0,1,0,1c-.178.206.287-.133,0,0s-.616,0-1,0m0-2a9.668,9.668,0,0,0,0-1c-.058-.166.144.094,0,0a3.546,3.546,0,0,0-1,0c-.2,0,.144-.094,0,0s.057-.166,0,0a9.651,9.651,0,0,0,0,1c0,.034-.035,0,0,0h1c.034,0,0,.034,0,0" transform="translate(-617.376 -367.17)" fill="#fff"/>
      </g>
      <g id="Group_635" data-name="Group 635" transform="translate(123.876 18.064)">
        <rect id="Rectangle_150" data-name="Rectangle 150" height="4" transform="translate(0.475 -0.053)" fill="#fff"/>
      </g>
      <g id="Group_636" data-name="Group 636" transform="translate(126.027 17.969)">
        <path id="Path_343" data-name="Path 343" d="M627.869,373.212a3,3,0,0,1-1,0c-.275-.112.16-.811,0-1-.034-.04-.041.04,0,0h0c.04-.04-.046-.04,0,0,.27.258.667,0,1,0s.851.166,1,0,0-.673,0-1h0c-.1.149.175-.086,0,0a3.877,3.877,0,0,1-1,0c-.35,0-.759.173-1,0s.109-.673,0-1c-.051-.16.021.158,0,0s0-.771,0-1-.02-.845,0-1-.051.16,0,0c.109-.333-.242-.827,0-1s.65,0,1,0a3.779,3.779,0,0,1,1,0c.175.09-.1-.149,0,0h0c0-.058-.058,0,0,0h1c.057,0,0-.058,0,0v4c0,.6.324.665,0,1a3.84,3.84,0,0,1-2,1m0-3a3.655,3.655,0,0,0,1,0c.117-.092-.057.172,0,0,.035-.1-.014-.894,0-1s0,.143,0,0a5.292,5.292,0,0,0,0-1c-.057-.166.117.092,0,0a3.655,3.655,0,0,0-1,0c-.373,0,.114-.35,0,0a5.231,5.231,0,0,0,0,1c0,.143-.014-.106,0,0s-.034.9,0,1c.114.356-.373,0,0,0" transform="translate(-626.545 -367.17)" fill="#fff"/>
      </g>
      <g id="Group_637" data-name="Group 637" transform="translate(131.053 17.968)">
        <path id="Path_344" data-name="Path 344" d="M635.4,371.211c-.057,0,0,.057,0,0v-2c0-.27.132-.834,0-1s-.742,0-1,0,.137-.166,0,0,0,.73,0,1v2c0,.057.057,0,0,0h-1c-.057,0,0,.057,0,0v-4c0-.058-.057,0,0,0h1c.057,0,0-.058,0,0h0c.092-.132-.18.1,0,0a3.534,3.534,0,0,1,1,0c.224,0-.176-.077,0,0s.873-.138,1,0-.066.814,0,1,0-.224,0,0v3c0,.057.057,0,0,0Z" transform="translate(-633.099 -367.169)" fill="#fff"/>
      </g>
      <g id="Group_638" data-name="Group 638" transform="translate(137.61 16.36)">
        <path id="Path_345" data-name="Path 345" d="M643.391,370.722c-.057,0,0,.057,0,0v-5c0-.034.034,0,0,0h-2c-.058,0,0,.057,0,0v-1c0-.058-.058,0,0,0h5c.057,0,0-.058,0,0v1c0,.057.057,0,0,0h-2c-.034,0,0-.034,0,0v5c0,.057.057,0,0,0Z" transform="translate(-641.65 -365.071)" fill="#fff"/>
      </g>
      <g id="Group_639" data-name="Group 639" transform="translate(142.954 17.968)">
        <path id="Path_346" data-name="Path 346" d="M649.016,371.211c-.057,0,0,.057,0,0v-4c0-.058-.057,0,0,0h0a5.8,5.8,0,0,1,1,0h0c.1-.16-.178.1,0,0a3.427,3.427,0,0,1,1,0c.166,0-.153-.061,0,0s.891-.109,1,0c.041.04.029-.04,0,0l-1,1c-.035.046.045.035,0,0-.1-.064.1.035,0,0a9.662,9.662,0,0,0-1,0c-.275,0,.123-.184,0,0s0,.668,0,1v2a5.872,5.872,0,0,1-1,0Z" transform="translate(-648.619 -367.169)" fill="#fff"/>
      </g>
      <g id="Group_640" data-name="Group 640" transform="translate(146.423 17.968)">
        <path id="Path_347" data-name="Path 347" d="M656.07,371.211c-.057,0,0,.057,0,0h0c-.1.143-.805-.089-1,0a3.744,3.744,0,0,1-1,0c-.189,0,.169.051,0,0s-.874.1-1,0,.074.158,0,0a4.481,4.481,0,0,1,0-1c0-.453.7-.788,1-1s.483,0,1,0h1c.034,0,0,.035,0,0v-1c0-.241-.868.109-1,0s.35,0,0,0a6.108,6.108,0,0,0-1,0c-.149.054.1-.081,0,0-.051.04.029.052,0,0l-1-1c-.028-.046-.04.028,0,0,.166-.121.765.074,1,0a4.464,4.464,0,0,1,1,0c.631,0,.739-.229,1,0s1,.5,1,1v3a5.872,5.872,0,0,1-1,0Zm-1,0c.3,0-.158-.885,0-1s1,.241,1,0v-1c0-.034.034,0,0,0h-1c-.31,0-.857.911-1,1s0-.2,0,0a1.256,1.256,0,0,0,1,1" transform="translate(-653.142 -367.169)" fill="#fff"/>
      </g>
      <g id="Group_641" data-name="Group 641" transform="translate(151.06 16.36)">
        <path id="Path_348" data-name="Path 348" d="M661.48,370.722c-.057,0,0,.057,0,0h0c-.1.144.178-.092,0,0a3.646,3.646,0,0,1-1,0c-.356,0-.753.166-1,0s.109-.667,0-1c-.051-.16.023.169,0,0s0-.719,0-1-.022-.831,0-1-.051.161,0,0c.109-.333-.247-.834,0-1s.644,0,1,0a3.617,3.617,0,0,1,1,0c.178.092-.1-.143,0,0h0v-2c0-.058-.057,0,0,0h1c.057,0,0-.058,0,0v6c0,.057.057,0,0,0Zm0-1c.4,0-.115.356,0,0,.028-.1-.015.115,0,0s0-.811,0-1,.015.114,0,0,.028-.9,0-1c-.115-.356.4,0,0,0s-.885-.356-1,0c-.029.1.015.885,0,1s0-.189,0,0-.015.885,0,1-.029-.1,0,0c.115.356.6,0,1,0" transform="translate(-659.19 -365.071)" fill="#fff"/>
      </g>
      <g id="Group_642" data-name="Group 642" transform="translate(155.923 17.969)">
        <path id="Path_349" data-name="Path 349" d="M666.959,371.212c-.442,0-.7.2-1,0s.115-.639,0-1c-.046-.132.026.163,0,0s0-.782,0-1-.023.166,0,0-.046-.869,0-1c.114-.362-.3-.8,0-1s.587,0,1,0c.43,0,.7-.2,1,0s.886.644,1,1c.024.074-.017-.074,0,0s-.012.9,0,1-.005-.123,0,0,0-.166,0,0c0,.058.063,0,0,0h-2c-.034,0,0-.034,0,0,0,.064-.011.949,0,1s-.018-.045,0,0c.143.419.524,0,1,0,.235,0-.155.074,0,0s.9.115,1,0c.046-.046-.04-.035,0,0h0a4.494,4.494,0,0,1,0,1c-.178.206-.713-.133-1,0s-.616,0-1,0m1-2a9.668,9.668,0,0,0,0-1c-.058-.166.143.094,0,0a3.546,3.546,0,0,0-1,0c-.2,0,.143-.094,0,0s.057-.166,0,0a9.668,9.668,0,0,0,0,1c0,.034-.034,0,0,0h1c.034,0,0,.034,0,0" transform="translate(-665.531 -367.17)" fill="#fff"/>
      </g>
      <g id="Group_643" data-name="Group 643" transform="translate(4.705 0.735)">
        <path id="Path_350" data-name="Path 350" d="M469.979,345.972c0,.44-.508,0-1,0s-1,.44-1,0a1,1,0,0,1,2,0" transform="translate(-468.334 -344.696)" fill="#fff"/>
      </g>
      <g id="Group_644" data-name="Group 644" transform="translate(49.063 0.735)">
        <path id="Path_351" data-name="Path 351" d="M527.467,345.972c0,.44.492,0,0,0s-1,.44-1,0a1.135,1.135,0,0,1,1-1c.492,0,0,.56,0,1" transform="translate(-526.179 -344.696)" fill="#fff"/>
      </g>
      <g id="Group_645" data-name="Group 645" transform="translate(51.404 0.735)">
        <path id="Path_352" data-name="Path 352" d="M531.179,345.972c0,.44-.508,0-1,0s-1,.44-1,0a1,1,0,0,1,2,0" transform="translate(-529.232 -344.696)" fill="#fff"/>
      </g>
      <g id="Group_646" data-name="Group 646" transform="translate(88.791 0.735)">
        <path id="Path_353" data-name="Path 353" d="M579.547,345.972c0,.44-.508,0-1,0s-1,.44-1,0a1,1,0,0,1,2,0" transform="translate(-577.987 -344.696)" fill="#fff"/>
      </g>
      <g id="Group_647" data-name="Group 647" transform="translate(91.105 0.735)">
        <path id="Path_354" data-name="Path 354" d="M583.25,345.972c0,.44-.508,0-1,0s-1,.44-1,0a1,1,0,0,1,2,0" transform="translate(-581.005 -344.696)" fill="#fff"/>
      </g>
      <g id="Group_648" data-name="Group 648" transform="translate(128.107 0.735)">
        <path id="Path_355" data-name="Path 355" d="M631.5,345.972c0,.44-.508,0-1,0s-1,.44-1,0a1,1,0,0,1,2,0" transform="translate(-629.257 -344.696)" fill="#fff"/>
      </g>
      <g id="Group_649" data-name="Group 649" transform="translate(130.448 0.735)">
        <path id="Path_356" data-name="Path 356" d="M634.213,345.972c0,.44-.508,0-1,0s-1,.44-1,0a1,1,0,0,1,2,0" transform="translate(-632.31 -344.696)" fill="#fff"/>
      </g>
      <g id="Group_650" data-name="Group 650" transform="translate(30.926 1.161)">
        <path id="Path_357" data-name="Path 357" d="M503.952,346.1a1.134,1.134,0,0,1-1,1c-.492,0,0-.56,0-1s-.492-1,0-1a1.134,1.134,0,0,1,1,1" transform="translate(-502.528 -345.251)" fill="#fff"/>
      </g>
      <g id="Group_651" data-name="Group 651" transform="translate(70.159 1.161)">
        <path id="Path_358" data-name="Path 358" d="M555.881,346.1a1,1,0,1,1-1-1,1.135,1.135,0,0,1,1,1" transform="translate(-553.689 -345.251)" fill="#fff"/>
      </g>
      <g id="Group_652" data-name="Group 652" transform="translate(72.473 1.161)">
        <path id="Path_359" data-name="Path 359" d="M558.585,346.1a1,1,0,1,1-1-1,1.135,1.135,0,0,1,1,1" transform="translate(-556.707 -345.251)" fill="#fff"/>
      </g>
      <g id="Group_653" data-name="Group 653" transform="translate(8.48 10.917)">
        <path id="Path_360" data-name="Path 360" d="M475.127,359.067a1,1,0,1,1-1-1,1.135,1.135,0,0,1,1,1" transform="translate(-473.256 -357.974)" fill="#fff"/>
      </g>
      <g id="Group_654" data-name="Group 654" transform="translate(10.802 10.917)">
        <path id="Path_361" data-name="Path 361" d="M477.833,359.067a1,1,0,1,1-1-1,1.134,1.134,0,0,1,1,1" transform="translate(-476.284 -357.974)" fill="#fff"/>
      </g>
      <g id="Group_655" data-name="Group 655" transform="translate(16.12 10.917)">
        <path id="Path_362" data-name="Path 362" d="M485.45,359.067a1,1,0,1,1-1-1,1.135,1.135,0,0,1,1,1" transform="translate(-483.219 -357.974)" fill="#fff"/>
      </g>
      <g id="Group_656" data-name="Group 656" transform="translate(63.755 10.917)">
        <path id="Path_363" data-name="Path 363" d="M546.934,359.067a1,1,0,1,1-1-1,1.135,1.135,0,0,1,1,1" transform="translate(-545.338 -357.974)" fill="#fff"/>
      </g>
      <g id="Group_657" data-name="Group 657" transform="translate(137.921 10.917)">
        <path id="Path_364" data-name="Path 364" d="M643.485,359.067a1.135,1.135,0,0,1-1,1c-.492,0,0-.56,0-1s-.492-1,0-1a1.135,1.135,0,0,1,1,1" transform="translate(-642.056 -357.974)" fill="#fff"/>
      </g>
      <g id="Group_658" data-name="Group 658" transform="translate(140.208 10.917)">
        <path id="Path_365" data-name="Path 365" d="M647.181,359.067a1,1,0,1,1-1-1,1.135,1.135,0,0,1,1,1" transform="translate(-645.038 -357.974)" fill="#fff"/>
      </g>
      <g id="Group_659" data-name="Group 659" transform="translate(2.381 0.735)">
        <path id="Path_366" data-name="Path 366" d="M467.273,345.972c0,.44-.508,0-1,0s-1,.44-1,0a1,1,0,0,1,2,0" transform="translate(-465.303 -344.696)" fill="#fff"/>
      </g>
      <g id="Group_660" data-name="Group 660" transform="translate(123.884 16.354)">
        <path id="Path_367" data-name="Path 367" d="M624.217,365.721c0,.261.261,0,0,0s0,.261,0,0-.261-1,0-1,0,.739,0,1" transform="translate(-623.751 -365.063)" fill="#fff"/>
      </g>
      <g id="Group_661" data-name="Group 661" transform="translate(84.307 16.354)">
        <path id="Path_368" data-name="Path 368" d="M573.183,365.721c0,.261-.739,0-1,0s0,.261,0,0-.261-1,0-1a1.877,1.877,0,0,1,1,1" transform="translate(-572.139 -365.063)" fill="#fff"/>
      </g>
      <g id="Group_662" data-name="Group 662" transform="translate(20.143 16.354)">
        <path id="Path_369" data-name="Path 369" d="M489.674,365.721c0,.261-.739,0-1,0s0,.261,0,0-.261-1,0-1a1.877,1.877,0,0,1,1,1" transform="translate(-488.466 -365.063)" fill="#fff"/>
      </g>
    </g>
  </g>
</svg>
