<svg xmlns="http://www.w3.org/2000/svg" xmlns:xlink="http://www.w3.org/1999/xlink" width="130" height="56" viewBox="0 0 130 56">
  <defs>
    <filter id="Ellipse_173" x="0" y="0" width="56" height="56" filterUnits="userSpaceOnUse">
      <feOffset dy="3" input="SourceAlpha"/>
      <feGaussianBlur stdDeviation="3" result="blur"/>
      <feFlood flood-opacity="0.161"/>
      <feComposite operator="in" in2="blur"/>
      <feComposite in="SourceGraphic"/>
    </filter>
    <clipPath id="clip-path">
      <rect width="19" height="15.033" fill="none"/>
    </clipPath>
  </defs>
  <g id="footer-gaft" transform="translate(-1699.98 -866.568)">
    <g id="Group_23107" data-name="Group 23107">
      <text id="_gaft_sa" data-name="@gaft_sa" transform="translate(1756.98 897.568)" fill="#d5d5d5" font-size="18" font-family="SegoeUI, Segoe UI"><tspan x="0" y="0">@gaft_sa</tspan></text>
      <g id="SM" transform="translate(1708.98 872.568)">
        <g transform="matrix(1, 0, 0, 1, -9, -6)" filter="url(#Ellipse_173)">
          <circle id="Ellipse_173-2" data-name="Ellipse 173" cx="19" cy="19" r="19" transform="translate(9 6)" fill="#fff"/>
        </g>
        <g id="Group_24660" data-name="Group 24660" transform="translate(-1709.145 -892.517)">
          <g id="Twitter" transform="translate(1718.645 904)" clip-path="url(#clip-path)">
            <path id="Path_2" data-name="Path 2" d="M43.869,17.033A10.716,10.716,0,0,0,54.681,6.222V5.707A8.37,8.37,0,0,0,56.534,3.75a8.548,8.548,0,0,1-2.162.618,4.006,4.006,0,0,0,1.647-2.059,9.444,9.444,0,0,1-2.368.927A3.677,3.677,0,0,0,50.871,2a3.869,3.869,0,0,0-3.81,3.81,2.007,2.007,0,0,0,.1.824,10.646,10.646,0,0,1-7.826-4.016,3.943,3.943,0,0,0-.515,1.956,4.091,4.091,0,0,0,1.647,3.192,3.471,3.471,0,0,1-1.75-.515h0a3.763,3.763,0,0,0,3.089,3.707,3.174,3.174,0,0,1-1.03.1,1.752,1.752,0,0,1-.721-.1,3.9,3.9,0,0,0,3.6,2.677,7.774,7.774,0,0,1-4.737,1.647,2.851,2.851,0,0,1-.927-.1,9.719,9.719,0,0,0,5.869,1.853" transform="translate(-38 -2)" fill="#007066" fill-rule="evenodd"/>
          </g>
        </g>
      </g>
    </g>
  </g>
</svg>
