<svg xmlns="http://www.w3.org/2000/svg" width="212.212" height="61.576" viewBox="0 0 212.212 61.576">
  <g id="Home" transform="translate(-462.198 -309.846)">
    <g id="Group_594" data-name="Group 594" transform="translate(610.93 309.846)">
      <g id="Group_542" data-name="Group 542" transform="translate(52.335 27.837)">
        <path id="Path_256" data-name="Path 256" d="M795.387,361.524a.624.624,0,0,1-.461-.2A25.579,25.579,0,0,0,791.4,358.7a36.363,36.363,0,0,0-5.42-2.757l-.476-.193a.623.623,0,1,1,.462-1.156l.474.192a37.013,37.013,0,0,1,5.616,2.857,26.827,26.827,0,0,1,3.741,2.788.625.625,0,0,1-.415,1.09Z" transform="translate(-785.117 -354.553)" fill="#c48e61"/>
      </g>
      <g id="Group_543" data-name="Group 543" transform="translate(51.814 43.671)">
        <path id="Path_257" data-name="Path 257" d="M790.466,383.861a.614.614,0,0,1-.311-.084,38.481,38.481,0,0,0-5.475-2.59.623.623,0,0,1,.446-1.163,39.86,39.86,0,0,1,5.652,2.675.623.623,0,0,1-.313,1.162Z" transform="translate(-784.28 -379.983)" fill="#c48e61"/>
      </g>
      <g id="Group_544" data-name="Group 544" transform="translate(9.556 48.949)">
        <path id="Path_258" data-name="Path 258" d="M717.035,392.789a.623.623,0,0,1-.236-1.2,50.771,50.771,0,0,1,8.683-2.629c.008,0,1.336-.263,2.7-.493a.623.623,0,1,1,.207,1.229c-1.351.227-2.661.485-2.661.485a49.42,49.42,0,0,0-8.46,2.562A.631.631,0,0,1,717.035,392.789Z" transform="translate(-716.412 -388.459)" fill="#c48e61"/>
      </g>
      <g id="Group_545" data-name="Group 545" transform="translate(58.884 35.263)">
        <path id="Path_259" data-name="Path 259" d="M798.71,369.493a.616.616,0,0,1-.4-.143c-.437-.362-.9-.717-1.37-1.057h0s-.448-.3-1.023-.667a.623.623,0,0,1,.675-1.047c.6.385,1.056.691,1.056.691.515.37,1,.743,1.456,1.122a.623.623,0,0,1-.4,1.1Z" transform="translate(-795.635 -366.479)" fill="#c48e61"/>
      </g>
      <g id="Group_546" data-name="Group 546" transform="translate(52.895 32.091)">
        <path id="Path_260" data-name="Path 260" d="M790.533,364.5a.618.618,0,0,1-.3-.078,38.73,38.73,0,0,0-3.833-1.844.622.622,0,0,1,.479-1.149,39.732,39.732,0,0,1,3.958,1.9.623.623,0,0,1-.3,1.167Z" transform="translate(-786.016 -361.384)" fill="#c48e61"/>
      </g>
      <g id="Group_547" data-name="Group 547" transform="translate(0.887 34.847)">
        <path id="Path_261" data-name="Path 261" d="M703.112,369.227a.623.623,0,0,1-.4-1.1,28.475,28.475,0,0,1,3.078-2.22.623.623,0,0,1,.659,1.057,27.178,27.178,0,0,0-2.943,2.123A.622.622,0,0,1,703.112,369.227Z" transform="translate(-702.489 -365.81)" fill="#c48e61"/>
      </g>
      <g id="Group_548" data-name="Group 548" transform="translate(5.946 31.631)">
        <path id="Path_262" data-name="Path 262" d="M711.238,363.942a.623.623,0,0,1-.29-1.174,46.717,46.717,0,0,1,4.543-2.08.622.622,0,1,1,.455,1.159,45.3,45.3,0,0,0-4.421,2.024A.617.617,0,0,1,711.238,363.942Z" transform="translate(-710.615 -360.645)" fill="#c48e61"/>
      </g>
      <g id="Group_549" data-name="Group 549" transform="translate(12.846 12.139)">
        <path id="Path_263" data-name="Path 263" d="M722.63,333.407a.934.934,0,0,1-.281-1.825q.53-.167,1.073-.325l1.813-.493c1.567-.4,3.18-.732,4.809-1,.976-.161,1.983-.3,2.989-.418a.934.934,0,0,1,.215,1.856c-.978.113-1.955.249-2.9.405-1.576.259-3.136.583-4.637.963l-1.781.484c-.331.1-.677.2-1.017.309A.936.936,0,0,1,722.63,333.407Z" transform="translate(-721.696 -329.34)" fill="#005f54"/>
      </g>
      <g id="Group_550" data-name="Group 550" transform="translate(7.325 15.73)">
        <path id="Path_264" data-name="Path 264" d="M713.765,341.731a.934.934,0,0,1-.4-1.78c1.01-.474,2.082-.925,3.186-1.339l.06-.022.1-.035a59.755,59.755,0,0,1,20.536-3.446q.522,0,1.041.007c1.174.019,2.344.067,3.477.143a.934.934,0,0,1-.125,1.864c-1.1-.075-2.239-.121-3.38-.139q-.5-.008-1.013-.007a57.888,57.888,0,0,0-19.894,3.332l-.09.033c-1.11.416-2.134.847-3.1,1.3A.929.929,0,0,1,713.765,341.731Z" transform="translate(-712.83 -335.109)" fill="#005f54"/>
      </g>
      <g id="Group_551" data-name="Group 551" transform="translate(19.472 39.788)">
        <path id="Path_265" data-name="Path 265" d="M762.385,378.177a.958.958,0,0,1-.278-.042,59.765,59.765,0,0,0-17.5-2.521c-2.118,0-4.242.1-6.311.306q-.644.063-1.281.139c-1.207.144-2.41.324-3.576.535a.934.934,0,1,1-.333-1.837c1.2-.218,2.443-.4,3.688-.553q.657-.077,1.319-.143c2.13-.209,4.314-.314,6.494-.314a61.666,61.666,0,0,1,18.056,2.6.934.934,0,0,1-.277,1.826Z" transform="translate(-732.338 -373.746)" fill="#005f54"/>
      </g>
      <g id="Group_552" data-name="Group 552" transform="translate(21.657 43.795)">
        <path id="Path_266" data-name="Path 266" d="M760.051,383.62a.945.945,0,0,1-.207-.023c-1.569-.357-3.48-.694-3.5-.7a63.075,63.075,0,0,0-10.415-.85c-1.281,0-2.572.038-3.836.111-.258.016-.515.032-.772.05-1.48.1-2.963.262-4.408.469a.934.934,0,1,1-.264-1.85c1.489-.212,3.016-.374,4.539-.482q.394-.028.795-.052c1.3-.077,2.629-.115,3.947-.115a64.981,64.981,0,0,1,10.731.877c.087.015,1.982.349,3.6.716a.934.934,0,0,1-.206,1.845Z" transform="translate(-735.847 -380.182)" fill="#005f54"/>
      </g>
      <g id="Group_553" data-name="Group 553" transform="translate(23.948 47.809)">
        <path id="Path_267" data-name="Path 267" d="M758.364,389.438a.964.964,0,0,1-.163-.014c-.865-.153-1.747-.287-2.621-.4a65.041,65.041,0,0,0-9.558-.515c-1.831.036-3.671.149-5.464.339a.934.934,0,1,1-.2-1.858c1.847-.194,3.739-.311,5.624-.349a66.827,66.827,0,0,1,9.835.531c.9.116,1.812.256,2.7.413a.934.934,0,0,1-.161,1.854Z" transform="translate(-739.526 -386.628)" fill="#005f54"/>
      </g>
      <g id="Group_554" data-name="Group 554" transform="translate(11.121 23.751)">
        <path id="Path_268" data-name="Path 268" d="M719.86,353.061a.934.934,0,0,1-.332-1.806l.207-.079c1.211-.426,2.453-.809,3.717-1.149h0l.128-.034h0a62.266,62.266,0,0,1,15.959-2,63.176,63.176,0,0,1,14.445,1.621c1.321.31,2.622.669,3.869,1.063a.934.934,0,1,1-.564,1.781c-1.2-.38-2.458-.725-3.733-1.025a61.319,61.319,0,0,0-14.017-1.572,60.368,60.368,0,0,0-15.482,1.938h0l-.12.032c-1.22.327-2.42.7-3.566,1.1l-.184.07A.931.931,0,0,1,719.86,353.061Z" transform="translate(-718.925 -347.991)" fill="#005f54"/>
      </g>
      <g id="Group_555" data-name="Group 555" transform="translate(15.217 31.766)">
        <path id="Path_269" data-name="Path 269" d="M766.31,367.88a.931.931,0,0,1-.416-.1c-6.535-3.256-15.011-5.05-23.867-5.05a62.882,62.882,0,0,0-10.946.941l-.139.025c-.867.156-1.736.333-2.574.524q-.858.2-1.692.415a.934.934,0,1,1-.476-1.806q.863-.228,1.751-.43c.867-.2,1.765-.382,2.667-.544l.082-.015a64.862,64.862,0,0,1,11.327-.98c9.139,0,17.911,1.863,24.7,5.246a.934.934,0,0,1-.417,1.77Z" transform="translate(-725.504 -360.863)" fill="#005f54"/>
      </g>
      <g id="Group_556" data-name="Group 556" transform="translate(17.294 35.78)">
        <path id="Path_270" data-name="Path 270" d="M765.488,373.421a.928.928,0,0,1-.37-.077,55.959,55.959,0,0,0-21.976-4.167,64.152,64.152,0,0,0-8.231.524.9.9,0,0,1-.18.043q-1.11.151-2.191.337c-.851.148-1.713.318-2.564.506a.934.934,0,0,1-.4-1.824c.878-.194,1.768-.37,2.648-.522.619-.108,1.265-.209,1.925-.3a.909.909,0,0,1,.19-.046,65.859,65.859,0,0,1,8.806-.585,57.837,57.837,0,0,1,22.717,4.321.934.934,0,0,1-.371,1.791Z" transform="translate(-728.84 -367.309)" fill="#005f54"/>
      </g>
      <g id="Group_557" data-name="Group 557" transform="translate(9.127 19.738)">
        <path id="Path_271" data-name="Path 271" d="M716.658,347.378a.934.934,0,0,1-.328-1.809l2.772-1.037c.314-.105.6-.2.887-.29.31-.1.622-.194.937-.288a62.173,62.173,0,0,1,17.411-2.408,66.413,66.413,0,0,1,7.824.459c1.044.125,2.078.275,3.075.445a.934.934,0,1,1-.315,1.841c-.966-.166-1.968-.311-2.981-.432a64.65,64.65,0,0,0-7.6-.445,60.278,60.278,0,0,0-16.878,2.331c-.3.09-.605.183-.9.278q-.417.133-.828.271l-2.741,1.025A.928.928,0,0,1,716.658,347.378Z" transform="translate(-715.723 -341.546)" fill="#005f54"/>
      </g>
      <g id="Group_558" data-name="Group 558" transform="translate(13.211 27.753)">
        <path id="Path_272" data-name="Path 272" d="M759.723,359.233a.93.93,0,0,1-.3-.049,58.746,58.746,0,0,0-18.625-2.9,59.758,59.758,0,0,0-17.306,2.471.934.934,0,1,1-.549-1.785,61.637,61.637,0,0,1,17.855-2.554,60.648,60.648,0,0,1,19.225,3,.934.934,0,0,1-.3,1.819Z" transform="translate(-722.283 -354.418)" fill="#005f54"/>
      </g>
      <g id="Group_559" data-name="Group 559" transform="translate(35.541 0.147)">
        <path id="Path_273" data-name="Path 273" d="M759.3,311.362l-.045,0-.524-.036a.623.623,0,0,1-.581-.663.632.632,0,0,1,.663-.58l.532.037a.623.623,0,0,1-.044,1.243Z" transform="translate(-758.145 -310.081)" fill="#adadad"/>
      </g>
      <g id="Group_560" data-name="Group 560" transform="translate(25.714)">
        <path id="Path_274" data-name="Path 274" d="M742.985,311.31a.623.623,0,0,1-.05-1.243,67.382,67.382,0,0,1,9.918-.074.623.623,0,0,1,.582.661.632.632,0,0,1-.662.582,65.765,65.765,0,0,0-9.736.073Z" transform="translate(-742.363 -309.846)" fill="#adadad"/>
      </g>
      <g id="Group_561" data-name="Group 561" transform="translate(29.133 4.015)">
        <path id="Path_275" data-name="Path 275" d="M761.3,318.438a.592.592,0,0,1-.109-.01c-.82-.144-1.569-.256-2.225-.332a62.34,62.34,0,0,0-9.569-.544c-.308.007-.615.013-.922.015h0a.623.623,0,0,1,0-1.245c.3,0,.6-.008.9-.015a64.255,64.255,0,0,1,9.75.554c.669.078,1.443.193,2.288.342a.622.622,0,0,1-.108,1.235Z" transform="translate(-747.853 -316.294)" fill="#adadad"/>
      </g>
      <g id="Group_562" data-name="Group 562" transform="translate(44.592 5.437)">
        <path id="Path_276" data-name="Path 276" d="M780.271,321.875a.617.617,0,0,1-.219-.04,49.9,49.9,0,0,0-6.543-1.95l-.339-.077a.622.622,0,1,1,.267-1.216l.353.079a51.277,51.277,0,0,1,6.7,2,.623.623,0,0,1-.22,1.205Z" transform="translate(-772.681 -318.577)" fill="#adadad"/>
      </g>
      <g id="Group_563" data-name="Group 563" transform="translate(13.406 4.143)">
        <path id="Path_277" data-name="Path 277" d="M723.219,320.157a.623.623,0,0,1-.184-1.217,57.461,57.461,0,0,1,10.479-2.156c.03,0,1.192-.171,2.828-.285a.633.633,0,0,1,.664.578.624.624,0,0,1-.578.665c-1.586.11-2.745.275-2.756.276a56.3,56.3,0,0,0-10.269,2.11A.637.637,0,0,1,723.219,320.157Z" transform="translate(-722.596 -316.499)" fill="#adadad"/>
      </g>
      <g id="Group_564" data-name="Group 564" transform="translate(36.822 8.294)">
        <path id="Path_278" data-name="Path 278" d="M776.6,328.018a.619.619,0,0,1-.234-.046,52.294,52.294,0,0,0-12.65-3.265s-1.3-.157-2.942-.3a.622.622,0,0,1-.567-.674.613.613,0,0,1,.674-.567c1.66.143,2.979.3,2.993.3a53.538,53.538,0,0,1,12.96,3.346.623.623,0,0,1-.234,1.2Z" transform="translate(-760.202 -323.166)" fill="#adadad"/>
      </g>
      <g id="Group_565" data-name="Group 565" transform="translate(22.443 8.021)">
        <path id="Path_279" data-name="Path 279" d="M737.732,324.547a.623.623,0,0,1-.082-1.24,66.644,66.644,0,0,1,10.654-.554.623.623,0,1,1-.036,1.245,64.852,64.852,0,0,0-10.453.543A.645.645,0,0,1,737.732,324.547Z" transform="translate(-737.11 -322.728)" fill="#adadad"/>
      </g>
      <g id="Group_566" data-name="Group 566" transform="translate(6.833 9.011)">
        <path id="Path_280" data-name="Path 280" d="M712.662,329.717a.623.623,0,0,1-.278-1.181,47.94,47.94,0,0,1,11.327-3.852s1.2-.262,1.722-.356a.622.622,0,1,1,.224,1.224c-.506.093-1.681.349-1.682.349a46.655,46.655,0,0,0-11.036,3.75A.611.611,0,0,1,712.662,329.717Z" transform="translate(-712.039 -324.317)" fill="#adadad"/>
      </g>
      <g id="Group_567" data-name="Group 567" transform="translate(42.608 13.036)">
        <path id="Path_281" data-name="Path 281" d="M786.79,338.423a.615.615,0,0,1-.349-.108,38.052,38.052,0,0,0-9.788-4.624,49.06,49.06,0,0,0-6.643-1.673.623.623,0,0,1,.217-1.226,50.246,50.246,0,0,1,6.812,1.715,39.3,39.3,0,0,1,10.1,4.78.622.622,0,0,1-.351,1.137Z" transform="translate(-769.495 -330.782)" fill="#adadad"/>
      </g>
      <g id="Group_568" data-name="Group 568" transform="translate(26.687 12.03)">
        <path id="Path_282" data-name="Path 282" d="M756.654,330.858a.6.6,0,0,1-.074,0,64.418,64.418,0,0,0-7.132-.443c-.011,0-1.581,0-3.2.067l-1.667.083a.623.623,0,0,1-.062-1.244l1.674-.083c1.653-.065,3.246-.068,3.262-.068a66.022,66.022,0,0,1,7.275.451.623.623,0,0,1-.073,1.241Z" transform="translate(-743.925 -329.166)" fill="#adadad"/>
      </g>
      <g id="Group_569" data-name="Group 569" transform="translate(2.062 15.683)">
        <path id="Path_283" data-name="Path 283" d="M705,340.66a.623.623,0,0,1-.371-1.123,35.812,35.812,0,0,1,8.294-4.461.622.622,0,0,1,.452,1.16,34.6,34.6,0,0,0-8.005,4.3A.618.618,0,0,1,705,340.66Z" transform="translate(-704.378 -335.033)" fill="#adadad"/>
      </g>
      <g id="Group_570" data-name="Group 570" transform="translate(50.136 19.005)">
        <path id="Path_284" data-name="Path 284" d="M794.043,348.141a.62.62,0,0,1-.415-.159,33.917,33.917,0,0,0-11.621-6.4.622.622,0,0,1,.4-1.178,35.137,35.137,0,0,1,12.05,6.652.623.623,0,0,1-.415,1.087Z" transform="translate(-781.585 -340.368)" fill="#adadad"/>
      </g>
      <g id="Group_571" data-name="Group 571" transform="translate(38.547 16.46)">
        <path id="Path_285" data-name="Path 285" d="M770.75,338.788a.627.627,0,0,1-.147-.017,57.867,57.867,0,0,0-5.874-1.1q-.6-.08-1.2-.15a.622.622,0,1,1,.143-1.237c.412.047.822.1,1.229.153a58.911,58.911,0,0,1,6,1.122.622.622,0,0,1-.146,1.227Z" transform="translate(-762.973 -336.281)" fill="#adadad"/>
      </g>
      <g id="Group_572" data-name="Group 572" transform="translate(58.472 26.915)">
        <path id="Path_286" data-name="Path 286" d="M799.359,357.183a.618.618,0,0,1-.423-.165,25.736,25.736,0,0,0-3.674-2.8.623.623,0,0,1,.667-1.052,27,27,0,0,1,3.852,2.935.622.622,0,0,1-.422,1.08Z" transform="translate(-794.972 -353.071)" fill="#adadad"/>
      </g>
      <g id="Group_573" data-name="Group 573" transform="translate(45.013 21.568)">
        <path id="Path_287" data-name="Path 287" d="M785.812,350.113a.614.614,0,0,1-.3-.078q-.679-.376-1.395-.732a54.808,54.808,0,0,0-5.123-2.127,51.125,51.125,0,0,0-5.152-1.46.623.623,0,0,1,.277-1.214A52.413,52.413,0,0,1,779.4,346a54.792,54.792,0,0,1,5.267,2.188q.742.368,1.446.759a.623.623,0,0,1-.3,1.167Z" transform="translate(-773.358 -344.484)" fill="#adadad"/>
      </g>
      <g id="Group_574" data-name="Group 574" transform="translate(0 27.403)">
        <path id="Path_288" data-name="Path 288" d="M701.688,357.479a.622.622,0,0,1-.422-1.08,26.307,26.307,0,0,1,3.1-2.435.623.623,0,1,1,.7,1.031,25.077,25.077,0,0,0-2.95,2.32A.618.618,0,0,1,701.688,357.479Z" transform="translate(-701.065 -353.856)" fill="#adadad"/>
      </g>
      <g id="Group_575" data-name="Group 575" transform="translate(57.966 38.628)">
        <path id="Path_289" data-name="Path 289" d="M797.177,374.758a.621.621,0,0,1-.374-.126c-.576-.434-1.191-.859-1.827-1.263l-.529-.339a.623.623,0,1,1,.672-1.048l.527.337c.661.42,1.3.864,1.906,1.318a.623.623,0,0,1-.375,1.12Z" transform="translate(-794.16 -371.883)" fill="#adadad"/>
      </g>
      <g id="Group_576" data-name="Group 576" transform="translate(1.875 34.951)">
        <path id="Path_290" data-name="Path 290" d="M704.7,372.53a.623.623,0,0,1-.375-1.12,36.56,36.56,0,0,1,9.722-5.068s.334-.118.984-.332a.623.623,0,1,1,.388,1.183c-.628.206-.95.321-.955.322a35.362,35.362,0,0,0-9.391,4.889A.62.62,0,0,1,704.7,372.53Z" transform="translate(-704.076 -365.979)" fill="#adadad"/>
      </g>
      <g id="Group_577" data-name="Group 577" transform="translate(55.869 41.47)">
        <path id="Path_291" data-name="Path 291" d="M794.593,379.556a.622.622,0,0,1-.344-.1,32.526,32.526,0,0,0-3.118-1.827.623.623,0,0,1,.57-1.107,33.592,33.592,0,0,1,3.238,1.9.623.623,0,0,1-.346,1.141Z" transform="translate(-790.793 -376.448)" fill="#adadad"/>
      </g>
      <g id="Group_578" data-name="Group 578" transform="translate(8.131 38.352)">
        <path id="Path_292" data-name="Path 292" d="M714.747,374.925a.623.623,0,0,1-.255-1.191c.949-.425,2.252-.915,2.308-.936,1.273-.489,2.616-.939,3.988-1.334a.623.623,0,0,1,.344,1.2c-1.338.385-2.646.823-3.89,1.3-.017.007-1.327.5-2.242.909A.633.633,0,0,1,714.747,374.925Z" transform="translate(-714.123 -371.44)" fill="#adadad"/>
      </g>
      <g id="Group_579" data-name="Group 579" transform="translate(3.19 42.118)">
        <path id="Path_293" data-name="Path 293" d="M706.814,379.943a.623.623,0,0,1-.3-1.172c.632-.418,1.293-.823,1.964-1.2a.623.623,0,0,1,.612,1.085c-.662.374-1.312.771-1.933,1.184A.622.622,0,0,1,706.814,379.943Z" transform="translate(-706.188 -377.489)" fill="#adadad"/>
      </g>
      <g id="Group_580" data-name="Group 580" transform="translate(4.863 41.819)">
        <path id="Path_294" data-name="Path 294" d="M709.5,382.732a.623.623,0,0,1-.312-1.162,43.042,43.042,0,0,1,9.579-3.984c.019-.005,1.4-.357,2.235-.56a.622.622,0,1,1,.294,1.21c-.832.2-2.2.552-2.2.552a41.742,41.742,0,0,0-9.283,3.861A.618.618,0,0,1,709.5,382.732Z" transform="translate(-708.875 -377.008)" fill="#adadad"/>
      </g>
      <g id="Group_581" data-name="Group 581" transform="translate(6.949 46.948)">
        <path id="Path_295" data-name="Path 295" d="M712.849,388.735a.622.622,0,0,1-.276-1.181c.774-.382,1.582-.748,2.4-1.09.009,0,2.088-.827,3-1.178a.623.623,0,0,1,.446,1.163c-.912.35-2.981,1.169-2.982,1.169-.785.327-1.568.682-2.319,1.052A.62.62,0,0,1,712.849,388.735Z" transform="translate(-712.225 -385.246)" fill="#adadad"/>
      </g>
      <g id="Group_582" data-name="Group 582" transform="translate(45.559 49.76)">
        <path id="Path_296" data-name="Path 296" d="M781.977,393.28a.63.63,0,0,1-.235-.046c-.741-.3-1.512-.593-2.291-.862-.012,0-2.692-.857-3.628-1.1l-1.118-.286a.623.623,0,0,1,.306-1.207l1.124.288c.968.249,3.6,1.087,3.709,1.121.814.282,1.606.58,2.369.892a.623.623,0,0,1-.235,1.2Z" transform="translate(-774.235 -389.761)" fill="#adadad"/>
      </g>
      <g id="Group_583" data-name="Group 583" transform="translate(42.679 53.164)">
        <path id="Path_297" data-name="Path 297" d="M776.887,398.138a.635.635,0,0,1-.19-.03,53.416,53.416,0,0,0-6.578-1.644.623.623,0,0,1,.227-1.225,54.769,54.769,0,0,1,6.732,1.684.623.623,0,0,1-.191,1.215Z" transform="translate(-769.609 -395.228)" fill="#adadad"/>
      </g>
      <g id="Group_584" data-name="Group 584" transform="translate(26.551 52.128)">
        <path id="Path_298" data-name="Path 298" d="M756.009,395.193a.636.636,0,0,1-.068,0,65.961,65.961,0,0,0-10.238-.3l-1.33.095a.623.623,0,0,1-.088-1.242l1.344-.1a66.8,66.8,0,0,1,10.448.308.623.623,0,0,1-.067,1.242Z" transform="translate(-743.706 -393.564)" fill="#adadad"/>
      </g>
      <g id="Group_585" data-name="Group 585" transform="translate(12.907 52.736)">
        <path id="Path_299" data-name="Path 299" d="M722.418,397.879a.623.623,0,0,1-.19-1.215,56.29,56.29,0,0,1,9.4-2.116.623.623,0,1,1,.171,1.233,55.089,55.089,0,0,0-9.189,2.068A.636.636,0,0,1,722.418,397.879Z" transform="translate(-721.795 -394.541)" fill="#adadad"/>
      </g>
      <g id="Group_586" data-name="Group 586" transform="translate(32.145 56.149)">
        <path id="Path_300" data-name="Path 300" d="M765.886,402.712a.6.6,0,0,1-.136-.015,61.515,61.515,0,0,0-12.445-1.43.623.623,0,0,1,.009-1.245h.01a62.746,62.746,0,0,1,12.7,1.461.622.622,0,0,1-.135,1.23Z" transform="translate(-752.691 -400.022)" fill="#adadad"/>
      </g>
      <g id="Group_587" data-name="Group 587" transform="translate(17.521 56.269)">
        <path id="Path_301" data-name="Path 301" d="M729.831,402.785a.623.623,0,0,1-.1-1.238,61.611,61.611,0,0,1,9.543-1.332.623.623,0,1,1,.077,1.243,60.367,60.367,0,0,0-9.382,1.311A.59.59,0,0,1,729.831,402.785Z" transform="translate(-729.205 -400.215)" fill="#adadad"/>
      </g>
      <g id="Group_588" data-name="Group 588" transform="translate(26.202 60.15)">
        <path id="Path_302" data-name="Path 302" d="M743.769,407.874a.623.623,0,0,1-.045-1.243,67.5,67.5,0,0,1,9.923,0,.622.622,0,0,1,.575.666.615.615,0,0,1-.667.575,66.379,66.379,0,0,0-9.74,0Z" transform="translate(-743.146 -406.448)" fill="#adadad"/>
      </g>
      <g id="Group_589" data-name="Group 589" transform="translate(0.252 28.452)">
        <path id="Path_303" data-name="Path 303" d="M702.093,361.9a.62.62,0,0,1-.623-.62v-.006a.622.622,0,0,1,.207-.464,30.307,30.307,0,0,1,6.85-4.514,13.3,13.3,0,0,1,1.464-.7.623.623,0,1,1,.494,1.143,12.068,12.068,0,0,0-1.324.63c-.018.011-.04.024-.059.034a29.169,29.169,0,0,0-6.57,4.314A.622.622,0,0,1,702.093,361.9Z" transform="translate(-701.47 -355.54)" fill="#adadad"/>
      </g>
      <g id="Group_590" data-name="Group 590" transform="translate(0.264 22.339)">
        <path id="Path_304" data-name="Path 304" d="M702.112,350.162a.623.623,0,0,1-.415-1.087,26.4,26.4,0,0,1,4.552-3.268.623.623,0,0,1,.624,1.078A25.143,25.143,0,0,0,702.527,350,.62.62,0,0,1,702.112,350.162Z" transform="translate(-701.489 -345.723)" fill="#adadad"/>
      </g>
      <g id="Group_591" data-name="Group 591" transform="translate(14.791 45.333)">
        <path id="Path_305" data-name="Path 305" d="M725.442,384.8a.623.623,0,0,1-.166-1.223c1.033-.287,2.44-.621,3.86-.916a.623.623,0,1,1,.253,1.22c-1.394.289-2.771.616-3.779.9A.645.645,0,0,1,725.442,384.8Z" transform="translate(-724.82 -382.651)" fill="#adadad"/>
      </g>
      <g id="Group_592" data-name="Group 592" transform="translate(48.601 46.602)">
        <path id="Path_306" data-name="Path 306" d="M786.434,388.531a.618.618,0,0,1-.275-.064,44.293,44.293,0,0,0-6.6-2.559.623.623,0,1,1,.367-1.191,45.539,45.539,0,0,1,6.784,2.633.622.622,0,0,1-.276,1.181Z" transform="translate(-779.12 -384.69)" fill="#adadad"/>
      </g>
      <g id="Group_593" data-name="Group 593" transform="translate(4.742 25.337)">
        <path id="Path_307" data-name="Path 307" d="M709.3,352.753a.623.623,0,0,1-.316-1.16c.745-.436,1.138-.649,1.832-.991a.623.623,0,0,1,.551,1.116c-.663.328-1.039.531-1.753.95A.626.626,0,0,1,709.3,352.753Z" transform="translate(-708.681 -350.537)" fill="#adadad"/>
      </g>
    </g>
    <g id="Group_663" data-name="Group 663" transform="translate(462.198 330.948)">
      <g id="Group_595" data-name="Group 595" transform="translate(0 2.42)">
        <path id="Path_308" data-name="Path 308" d="M478.5,353.47l.039-.093a4.032,4.032,0,0,0,.193-.58c.046-.187.088-.389.127-.611s.06-.453.085-.7c.021-.273.03-.516.03-.738a2.752,2.752,0,0,0-.257-1.227,2.339,2.339,0,0,0-.759-.871,2.9,2.9,0,0,0-.839-.417,4.24,4.24,0,0,0-1.64-.12,3.522,3.522,0,0,0-.555.105,3.873,3.873,0,0,0-.509.174c-.154.064-.35.16-.607.3l-.126.07.416.916.151-.1a3.232,3.232,0,0,1,.889-.425,2.9,2.9,0,0,1,1.611-.012,2.084,2.084,0,0,1,.567.259,1.373,1.373,0,0,1,.465.549,1.663,1.663,0,0,1,.126.66,10.236,10.236,0,0,1-.063,1.27,4.325,4.325,0,0,1-.118.633h-6.353l0-4.431h-1.058l0,4.431h-3l0-4.89H466.26v.459h-.344a5.3,5.3,0,0,0-1.511.2,3.775,3.775,0,0,0-1.173.558,2.524,2.524,0,0,0-.768.859,2.246,2.246,0,0,0-.266,1.078,2.3,2.3,0,0,0,.323,1.234,2.559,2.559,0,0,0,.847.841,3.658,3.658,0,0,0,1.188.473,6.175,6.175,0,0,0,1.363.145H478.5Zm-12.878-4.432h.639v3.476h-.639a3.39,3.39,0,0,1-.949-.126,2.476,2.476,0,0,1-.758-.349,1.554,1.554,0,0,1-.484-.537,1.441,1.441,0,0,1-.178-.725,1.323,1.323,0,0,1,.19-.693,1.755,1.755,0,0,1,.522-.545,2.9,2.9,0,0,1,.768-.365,3.019,3.019,0,0,1,.889-.136" transform="translate(-462.198 -347.624)" fill="#074045"/>
      </g>
      <g id="Group_596" data-name="Group 596" transform="translate(16.827 2.879)">
        <path id="Path_309" data-name="Path 309" d="M490.743,348.361l0,5.565a3.107,3.107,0,0,1-.024.362.757.757,0,0,1-.079.29.415.415,0,0,1-.157.172.562.562,0,0,1-.3.063,1.433,1.433,0,0,1-.426-.1l-.133-.049-.4.884.154.057a2.229,2.229,0,0,0,.762.163,1.983,1.983,0,0,0,.826-.148,1.233,1.233,0,0,0,.527-.427,1.6,1.6,0,0,0,.248-.6,3.379,3.379,0,0,0,.06-.663l0-5.565Z" transform="translate(-489.223 -348.361)" fill="#074045"/>
      </g>
      <g id="Group_597" data-name="Group 597" transform="translate(20.771 0.309)">
        <path id="Path_310" data-name="Path 310" d="M506.665,345.19h1.043v-.956h-2.1l0,7h-2.183c.033-.165.067-.374.1-.63a8.044,8.044,0,0,0,.075-1.134,2.746,2.746,0,0,0-.259-1.227,2.3,2.3,0,0,0-.757-.871,2.864,2.864,0,0,0-.839-.417,3.235,3.235,0,0,0-.994-.153,6.207,6.207,0,0,0-.646.034,3.524,3.524,0,0,0-.551.1,3.939,3.939,0,0,0-.512.175,6.741,6.741,0,0,0-.607.3l-.129.07.425.916.148-.1a3.117,3.117,0,0,1,.886-.425,2.9,2.9,0,0,1,1.61-.012,2.076,2.076,0,0,1,.568.259,1.4,1.4,0,0,1,.466.549,1.709,1.709,0,0,1,.124.661,10.218,10.218,0,0,1-.063,1.27,4.931,4.931,0,0,1-.118.633h-5.744l0-7h-1.055l0,7.958h11.107Z" transform="translate(-495.557 -344.234)" fill="#074045"/>
      </g>
      <g id="Group_598" data-name="Group 598" transform="translate(33.761 0.31)">
        <rect id="Rectangle_145" data-name="Rectangle 145" width="1.058" height="7.957" fill="#074045"/>
      </g>
      <g id="Group_599" data-name="Group 599" transform="translate(37.927 2.42)">
        <path id="Path_311" data-name="Path 311" d="M528.226,347.624h-1.058v.459h-.341a5.256,5.256,0,0,0-1.506.2,3.686,3.686,0,0,0-1.176.558,2.526,2.526,0,0,0-.77.859,2.245,2.245,0,0,0-.264,1.078,2.289,2.289,0,0,0,.323,1.234,2.554,2.554,0,0,0,.847.841,3.654,3.654,0,0,0,1.187.473,6.173,6.173,0,0,0,1.362.145h1.4Zm-1.691,1.414h.636v3.476h-.636a3.4,3.4,0,0,1-.95-.126,2.462,2.462,0,0,1-.756-.349,1.576,1.576,0,0,1-.486-.537,1.456,1.456,0,0,1-.174-.725,1.313,1.313,0,0,1,.189-.693,1.737,1.737,0,0,1,.519-.545,2.915,2.915,0,0,1,.77-.365,3.01,3.01,0,0,1,.889-.136" transform="translate(-523.11 -347.624)" fill="#074045"/>
      </g>
      <g id="Group_600" data-name="Group 600" transform="translate(43.456 2.879)">
        <path id="Path_312" data-name="Path 312" d="M534.507,354.589a3.384,3.384,0,0,0,.06-.663l0-5.565h-1.055l0,5.565a3.083,3.083,0,0,1-.024.361.756.756,0,0,1-.079.29.415.415,0,0,1-.157.172.565.565,0,0,1-.3.063,1.433,1.433,0,0,1-.426-.1l-.133-.049-.4.885.154.057a2.229,2.229,0,0,0,.762.163,1.994,1.994,0,0,0,.826-.148,1.235,1.235,0,0,0,.527-.428,1.577,1.577,0,0,0,.248-.6" transform="translate(-531.99 -348.361)" fill="#074045"/>
      </g>
      <g id="Group_601" data-name="Group 601" transform="translate(47.4 0.309)">
        <path id="Path_313" data-name="Path 313" d="M556.621,351.235h-2.5l0-7h-1.055l0,7h-2.895l0-4.431h-1.056l0,4.431H546.2c.034-.165.067-.374.1-.63a8.049,8.049,0,0,0,.075-1.134,2.745,2.745,0,0,0-.259-1.227,2.309,2.309,0,0,0-.757-.871,2.879,2.879,0,0,0-.837-.417,3.255,3.255,0,0,0-.995-.153,6.207,6.207,0,0,0-.646.034,3.56,3.56,0,0,0-.552.1,3.968,3.968,0,0,0-.512.175c-.154.064-.349.16-.607.3l-.129.07.425.916.148-.1a3.144,3.144,0,0,1,.887-.425,2.9,2.9,0,0,1,1.609-.012,2.063,2.063,0,0,1,.567.259,1.4,1.4,0,0,1,.467.549,1.72,1.72,0,0,1,.124.661,10.217,10.217,0,0,1-.063,1.27,4.942,4.942,0,0,1-.118.633h-5.743l0-7h-1.055l0,7.958h19.351l0-7h1.043v-.956h-2.1Z" transform="translate(-538.323 -344.234)" fill="#074045"/>
      </g>
      <g id="Group_602" data-name="Group 602" transform="translate(70.163 2.42)">
        <path id="Path_314" data-name="Path 314" d="M586.935,349.334a3.356,3.356,0,0,0-1.049-.6,3.843,3.843,0,0,0-1.314-.217,3.481,3.481,0,0,0-1.266.223,3.206,3.206,0,0,0-1.016.618,3,3,0,0,0-.676.916,2.52,2.52,0,0,0-.253,1.119,2.567,2.567,0,0,0,.22,1.125H580l0-4.89H578.94v.459H578.6a5.256,5.256,0,0,0-1.506.2,3.686,3.686,0,0,0-1.176.558,2.527,2.527,0,0,0-.77.859,2.244,2.244,0,0,0-.265,1.078,2.289,2.289,0,0,0,.323,1.234,2.562,2.562,0,0,0,.846.841,3.673,3.673,0,0,0,1.189.473,6.173,6.173,0,0,0,1.362.145h3.739a3.184,3.184,0,0,0,.938.549,3.6,3.6,0,0,0,1.3.23,3.8,3.8,0,0,0,1.3-.212,3.261,3.261,0,0,0,1.047-.593,2.913,2.913,0,0,0,.708-.9,2.564,2.564,0,0,0,.26-1.152,2.633,2.633,0,0,0-.253-1.146,2.9,2.9,0,0,0-.7-.91m-.735.684a1.762,1.762,0,0,1,.461.6,1.8,1.8,0,0,1,.166.769,1.686,1.686,0,0,1-.169.76,1.844,1.844,0,0,1-.462.6,2.156,2.156,0,0,1-.711.4,2.749,2.749,0,0,1-.912.148,2.321,2.321,0,0,1-.865-.157,2.223,2.223,0,0,1-.684-.413,1.826,1.826,0,0,1-.446-.606,1.736,1.736,0,0,1-.163-.727,1.761,1.761,0,0,1,.159-.732,1.928,1.928,0,0,1,.449-.618,2.146,2.146,0,0,1,.676-.416,2.4,2.4,0,0,1,.874-.154,2.792,2.792,0,0,1,.912.144,2.254,2.254,0,0,1,.714.4m-7.893-.98h.636v3.476h-.636a3.4,3.4,0,0,1-.95-.126,2.463,2.463,0,0,1-.757-.349,1.57,1.57,0,0,1-.486-.537,1.455,1.455,0,0,1-.174-.725,1.313,1.313,0,0,1,.189-.693,1.736,1.736,0,0,1,.519-.545,2.924,2.924,0,0,1,.768-.365,3.025,3.025,0,0,1,.89-.136" transform="translate(-574.882 -347.624)" fill="#074045"/>
      </g>
      <g id="Group_603" data-name="Group 603" transform="translate(84.207 0.309)">
        <path id="Path_315" data-name="Path 315" d="M608.205,344.233l0,7h-3.095l1.5-3.147a.649.649,0,0,0-.1-.072,5.924,5.924,0,0,0-1.612-.893,4.8,4.8,0,0,0-3.286,0,.222.222,0,0,0-.053.019,5.281,5.281,0,0,0-1.626.926l-.01.014a.043.043,0,0,0-.019.009l1.434,3.147H598.5v-7h-1.06l.005,7.959h11.825v-7h1.046v-.955Zm-5.675,7L601.2,348.4a3.673,3.673,0,0,1,.912-.441v0a3.285,3.285,0,0,1,1.742-.135,4.73,4.73,0,0,1,.619.177,5.7,5.7,0,0,1,.571.245c.115.057.211.115.283.158l-1.348,2.835Z" transform="translate(-597.436 -344.233)" fill="#074045"/>
      </g>
      <g id="Group_604" data-name="Group 604" transform="translate(97.921 0.31)">
        <rect id="Rectangle_146" data-name="Rectangle 146" width="1.056" height="7.957" fill="#074045"/>
      </g>
      <g id="Group_605" data-name="Group 605" transform="translate(108.382)">
        <path id="Path_316" data-name="Path 316" d="M638.891,345.063h-1.562v-.093c0-.136.036-.187.063-.211s.1-.067.35-.067h.811v-.955h-.884a1.413,1.413,0,0,0-1.052.365h0a1.382,1.382,0,0,0-.353,1v.913h2.629Z" transform="translate(-636.262 -343.737)" fill="#074045"/>
      </g>
      <g id="Group_606" data-name="Group 606" transform="translate(102.084 0.306)">
        <path id="Path_317" data-name="Path 317" d="M650.955,345.185H652v-.956h-2.1l0,7h-2.166c.021-.123.049-.274.077-.458a5.833,5.833,0,0,0,.057-.841,5.392,5.392,0,0,0-.13-1.186,3.7,3.7,0,0,0-.451-1.118,3.01,3.01,0,0,0-.564-.679,3.849,3.849,0,0,0-.8-.549,4.807,4.807,0,0,0-.992-.382,4.654,4.654,0,0,0-1.161-.139,6.16,6.16,0,0,0-1.5.172,9.564,9.564,0,0,0-1.459.525l-.151.07.464.868.129-.06a9.528,9.528,0,0,1,1.116-.436,3.81,3.81,0,0,1,1.152-.172,4.18,4.18,0,0,1,1.824.356,2.3,2.3,0,0,1,1.052.966,3.019,3.019,0,0,1,.328.868,5.263,5.263,0,0,1,.088,1.022,4.668,4.668,0,0,1-.054.682c-.031.208-.058.367-.085.5h-1.016c.009-.054.021-.12.036-.205a4.4,4.4,0,0,0,.052-.681,3.184,3.184,0,0,0-.148-1,2.177,2.177,0,0,0-.465-.8,2.208,2.208,0,0,0-.757-.522,2.586,2.586,0,0,0-1.01-.184,2.613,2.613,0,0,0-1.016.184,2.171,2.171,0,0,0-.763.522,2.194,2.194,0,0,0-.476.8,3.063,3.063,0,0,0-.156,1.007,3.552,3.552,0,0,0,.066.691q.023.119.036.2h-2.734l0-4.431h-1.055l0,4.431h-3l0-4.431h-1.055l0,4.431h-1.941l0-4.89h-1.055v.459h-.344a5.293,5.293,0,0,0-1.51.2,3.769,3.769,0,0,0-1.173.558,2.533,2.533,0,0,0-.77.859,2.244,2.244,0,0,0-.264,1.078,2.289,2.289,0,0,0,.323,1.234,2.565,2.565,0,0,0,.847.841,3.653,3.653,0,0,0,1.188.473,6.168,6.168,0,0,0,1.363.145H640.58l8.481,0h1.9Zm-6.265,5.161a3.434,3.434,0,0,1-.054.625c-.015.109-.03.2-.045.262h-2.479c-.015-.069-.03-.159-.051-.272a3.8,3.8,0,0,1-.048-.615,2.237,2.237,0,0,1,.087-.644,1.4,1.4,0,0,1,.257-.491,1.084,1.084,0,0,1,.413-.308,1.407,1.407,0,0,1,.6-.111,1.308,1.308,0,0,1,.57.111,1.168,1.168,0,0,1,.407.317,1.3,1.3,0,0,1,.256.492,2.114,2.114,0,0,1,.09.635m-15.117-2.59h.639v3.476h-.639a3.4,3.4,0,0,1-.95-.126,2.468,2.468,0,0,1-.757-.349,1.578,1.578,0,0,1-.486-.537,1.441,1.441,0,0,1-.177-.725,1.323,1.323,0,0,1,.19-.693,1.773,1.773,0,0,1,.521-.545,2.92,2.92,0,0,1,.77-.365,3.012,3.012,0,0,1,.889-.136" transform="translate(-626.148 -344.229)" fill="#074045"/>
      </g>
      <g id="Group_607" data-name="Group 607" transform="translate(128.777 0.307)">
        <rect id="Rectangle_147" data-name="Rectangle 147" width="1.055" height="7.957" fill="#074045"/>
      </g>
      <g id="Group_608" data-name="Group 608" transform="translate(0.157 13.206)">
        <path id="Path_318" data-name="Path 318" d="M464.229,369.852a2.67,2.67,0,0,1-.517-.049,3.02,3.02,0,0,1-.479-.133,2.474,2.474,0,0,1-.419-.2,1.9,1.9,0,0,1-.332-.248c-.037-.037-.042-.072-.014-.1l.433-.5c.032-.037.065-.04.1-.007a2.567,2.567,0,0,0,.255.182,2.076,2.076,0,0,0,.308.161,2.394,2.394,0,0,0,.346.115,1.569,1.569,0,0,0,.384.045,1.014,1.014,0,0,0,.661-.192.608.608,0,0,0,.234-.492A.535.535,0,0,0,465,368a1.356,1.356,0,0,0-.678-.234l-.252-.035a1.97,1.97,0,0,1-1.062-.43,1.179,1.179,0,0,1-.37-.926,1.5,1.5,0,0,1,.111-.587,1.269,1.269,0,0,1,.322-.455,1.442,1.442,0,0,1,.506-.29,2.05,2.05,0,0,1,.667-.1,2.745,2.745,0,0,1,.849.13,2.3,2.3,0,0,1,.689.346.068.068,0,0,1,.014.1l-.336.517a.065.065,0,0,1-.1.021,2.556,2.556,0,0,0-.566-.279,1.784,1.784,0,0,0-.573-.091.788.788,0,0,0-.555.178.6.6,0,0,0-.192.458.511.511,0,0,0,.2.408,1.377,1.377,0,0,0,.677.234l.252.035a1.934,1.934,0,0,1,1.055.43,1.217,1.217,0,0,1,.363.946,1.529,1.529,0,0,1-.112.587,1.21,1.21,0,0,1-.339.468,1.646,1.646,0,0,1-.562.308,2.465,2.465,0,0,1-.776.111" transform="translate(-462.45 -364.947)" fill="#074045"/>
      </g>
      <g id="Group_609" data-name="Group 609" transform="translate(4.514 14.59)">
        <path id="Path_319" data-name="Path 319" d="M471.607,370.614a.062.062,0,0,1-.07-.07V370.3h-.007a.839.839,0,0,1-.356.283,1.435,1.435,0,0,1-.594.108,1.5,1.5,0,0,1-.437-.063,1.035,1.035,0,0,1-.36-.189.9.9,0,0,1-.244-.318,1.062,1.062,0,0,1-.091-.457.93.93,0,0,1,.36-.811,1.665,1.665,0,0,1,.989-.259h.684a.037.037,0,0,0,.042-.042v-.161a.522.522,0,0,0-.161-.426.946.946,0,0,0-.587-.133,1.384,1.384,0,0,0-.468.067,1.006,1.006,0,0,0-.3.164c-.042.032-.075.028-.1-.014l-.258-.461a.06.06,0,0,1,.014-.091,1.7,1.7,0,0,1,.489-.238,2.368,2.368,0,0,1,.705-.091,1.649,1.649,0,0,1,1.087.28,1.132,1.132,0,0,1,.318.894v2.2a.062.062,0,0,1-.07.07Zm-.831-.559a.934.934,0,0,0,.555-.14.5.5,0,0,0,.192-.433v-.258a.038.038,0,0,0-.042-.042h-.559a1.08,1.08,0,0,0-.552.108.377.377,0,0,0-.175.346q0,.418.58.419" transform="translate(-469.448 -367.169)" fill="#074045"/>
      </g>
      <g id="Group_610" data-name="Group 610" transform="translate(8.42 14.667)">
        <path id="Path_320" data-name="Path 320" d="M477.831,370.661a.062.062,0,0,1-.07-.07v-.245h-.007a1.073,1.073,0,0,1-.346.283,1.128,1.128,0,0,1-.527.108,1.188,1.188,0,0,1-.486-.094,1.063,1.063,0,0,1-.364-.262,1.179,1.179,0,0,1-.23-.395,1.49,1.49,0,0,1-.08-.5v-2.124a.061.061,0,0,1,.07-.07h.643a.061.061,0,0,1,.07.07v1.943a.856.856,0,0,0,.154.531.557.557,0,0,0,.475.2.563.563,0,0,0,.465-.2.808.808,0,0,0,.164-.524v-1.95a.061.061,0,0,1,.07-.07h.643a.062.062,0,0,1,.07.07v3.228a.062.062,0,0,1-.07.07Z" transform="translate(-475.721 -367.293)" fill="#074045"/>
      </g>
      <g id="Group_611" data-name="Group 611" transform="translate(12.221 13.284)">
        <path id="Path_321" data-name="Path 321" d="M484.083,369.823a.062.062,0,0,1-.07-.07V369.5h-.008a.886.886,0,0,1-.335.287,1.225,1.225,0,0,1-.559.111,1.28,1.28,0,0,1-.733-.2,1.125,1.125,0,0,1-.433-.608,2.287,2.287,0,0,1-.091-.4,5.379,5.379,0,0,1,0-1.1,2.312,2.312,0,0,1,.091-.4,1.124,1.124,0,0,1,.433-.608,1.28,1.28,0,0,1,.733-.2,1.217,1.217,0,0,1,.559.112.89.89,0,0,1,.335.286h.008v-1.635a.061.061,0,0,1,.07-.07h.643a.061.061,0,0,1,.07.07v4.612a.062.062,0,0,1-.07.07Zm-.769-.622a.6.6,0,0,0,.629-.433,1.538,1.538,0,0,0,.052-.258,3.795,3.795,0,0,0,0-.74,1.558,1.558,0,0,0-.052-.259.668.668,0,0,0-1.251,0,1.692,1.692,0,0,0-.052.259,3.94,3.94,0,0,0,0,.74,1.67,1.67,0,0,0,.052.258.59.59,0,0,0,.622.433" transform="translate(-481.826 -365.071)" fill="#074045"/>
      </g>
      <g id="Group_612" data-name="Group 612" transform="translate(16.351 14.667)">
        <path id="Rectangle_148" data-name="Rectangle 148" d="M.112,0H.671A.112.112,0,0,1,.783.112V3.255a.113.113,0,0,1-.113.113H.112A.112.112,0,0,1,0,3.256V.112A.112.112,0,0,1,.112,0Z" fill="#074045"/>
      </g>
      <g id="Group_613" data-name="Group 613" transform="translate(19.957 13.206)">
        <path id="Path_322" data-name="Path 322" d="M494.375,368.707c-.024-.075-.043-.149-.06-.224a2.235,2.235,0,0,1-.038-.258c-.009-.1-.017-.214-.021-.346s-.007-.292-.007-.479,0-.346.007-.478.012-.248.021-.346a2.235,2.235,0,0,1,.038-.258c.017-.075.036-.149.06-.224a1.55,1.55,0,0,1,.622-.856,1.915,1.915,0,0,1,1.076-.29,2.056,2.056,0,0,1,.608.084,1.92,1.92,0,0,1,.483.22,1.374,1.374,0,0,1,.349.321,1.6,1.6,0,0,1,.216.381.069.069,0,0,1-.027.1l-.587.259a.067.067,0,0,1-.091-.035,1.249,1.249,0,0,0-.384-.437,1.008,1.008,0,0,0-.573-.15.937.937,0,0,0-.58.164.92.92,0,0,0-.314.458,1.426,1.426,0,0,0-.039.146,1.854,1.854,0,0,0-.027.21c-.008.084-.012.186-.014.3s0,.262,0,.43,0,.311,0,.43.007.22.014.3a1.874,1.874,0,0,0,.027.21,1.423,1.423,0,0,0,.039.146.923.923,0,0,0,.314.458.937.937,0,0,0,.58.164,1.043,1.043,0,0,0,.559-.15.8.8,0,0,0,.343-.444,1.707,1.707,0,0,0,.055-.262,2.616,2.616,0,0,0,.021-.353.037.037,0,0,0-.042-.042h-.783a.062.062,0,0,1-.07-.07v-.559a.062.062,0,0,1,.07-.07h1.572a.062.062,0,0,1,.07.07v.412c0,.2-.01.388-.028.577a2.422,2.422,0,0,1-.084.465,1.582,1.582,0,0,1-.618.864,1.829,1.829,0,0,1-1.059.3,1.91,1.91,0,0,1-1.076-.29,1.55,1.55,0,0,1-.622-.856" transform="translate(-494.249 -364.947)" fill="#074045"/>
      </g>
      <g id="Group_614" data-name="Group 614" transform="translate(24.421 14.591)">
        <path id="Path_323" data-name="Path 323" d="M502.943,370.692a1.561,1.561,0,0,1-.9-.248,1.269,1.269,0,0,1-.5-.688,2.1,2.1,0,0,1-.088-.36,2.983,2.983,0,0,1-.032-.465,3.445,3.445,0,0,1,.029-.468,1.877,1.877,0,0,1,.083-.363,1.257,1.257,0,0,1,.507-.685,1.686,1.686,0,0,1,1.753,0,1.273,1.273,0,0,1,.5.682c.019.06.036.121.05.181s.025.13.035.21.017.169.021.269.006.218.006.352c0,.047-.025.07-.076.07h-2.076a.037.037,0,0,0-.042.042.567.567,0,0,0,.015.139.68.68,0,0,0,.035.119.718.718,0,0,0,.754.511,1.1,1.1,0,0,0,.475-.091.994.994,0,0,0,.314-.231c.037-.037.072-.042.1-.014l.413.363a.065.065,0,0,1,.007.1,1.657,1.657,0,0,1-.566.412,1.946,1.946,0,0,1-.818.161m.671-2.138a.883.883,0,0,0-.042-.286.6.6,0,0,0-.245-.318.73.73,0,0,0-.412-.115.751.751,0,0,0-.42.115.606.606,0,0,0-.244.318.917.917,0,0,0-.042.286.038.038,0,0,0,.042.042h1.321a.037.037,0,0,0,.042-.042" transform="translate(-501.419 -367.17)" fill="#074045"/>
      </g>
      <g id="Group_615" data-name="Group 615" transform="translate(28.384 14.59)">
        <path id="Path_324" data-name="Path 324" d="M509.914,370.614a.062.062,0,0,1-.07-.07V368.6a.829.829,0,0,0-.161-.531.57.57,0,0,0-.475-.2.582.582,0,0,0-.475.2.8.8,0,0,0-.168.531v1.943a.062.062,0,0,1-.07.07h-.643a.062.062,0,0,1-.069-.07v-3.228a.061.061,0,0,1,.069-.07h.643a.061.061,0,0,1,.07.07v.245h.007a.913.913,0,0,1,.332-.276,1.348,1.348,0,0,1,1.042-.021,1.089,1.089,0,0,1,.367.262,1.142,1.142,0,0,1,.234.395,1.487,1.487,0,0,1,.08.5v2.124a.062.062,0,0,1-.07.07Z" transform="translate(-507.783 -367.169)" fill="#074045"/>
      </g>
      <g id="Group_616" data-name="Group 616" transform="translate(32.171 14.591)">
        <path id="Path_325" data-name="Path 325" d="M515.388,370.692a1.559,1.559,0,0,1-.9-.248,1.271,1.271,0,0,1-.5-.688,2.1,2.1,0,0,1-.088-.36,3.075,3.075,0,0,1-.031-.465,3.463,3.463,0,0,1,.028-.468,1.926,1.926,0,0,1,.083-.363,1.254,1.254,0,0,1,.507-.685,1.687,1.687,0,0,1,1.754,0,1.283,1.283,0,0,1,.5.682c.019.06.036.121.049.181a2.019,2.019,0,0,1,.035.21c.009.079.016.169.021.269s.007.218.007.352c0,.047-.026.07-.077.07H514.7a.037.037,0,0,0-.042.042.6.6,0,0,0,.014.139.737.737,0,0,0,.035.119.719.719,0,0,0,.755.511,1.1,1.1,0,0,0,.475-.091,1.009,1.009,0,0,0,.314-.231c.037-.037.072-.042.1-.014l.412.363a.065.065,0,0,1,.008.1,1.647,1.647,0,0,1-.567.412,1.939,1.939,0,0,1-.818.161m.671-2.138a.9.9,0,0,0-.042-.286.611.611,0,0,0-.245-.318.735.735,0,0,0-.413-.115.747.747,0,0,0-.419.115.6.6,0,0,0-.244.318.9.9,0,0,0-.042.286.037.037,0,0,0,.042.042h1.321a.037.037,0,0,0,.042-.042" transform="translate(-513.865 -367.17)" fill="#074045"/>
      </g>
      <g id="Group_617" data-name="Group 617" transform="translate(36.133 14.59)">
        <path id="Path_326" data-name="Path 326" d="M520.3,370.614a.062.062,0,0,1-.07-.07v-3.228a.062.062,0,0,1,.07-.07h.643a.062.062,0,0,1,.07.07v.286h.007a.873.873,0,0,1,.335-.314,1.11,1.11,0,0,1,.539-.119,1.043,1.043,0,0,1,.388.073.936.936,0,0,1,.318.206.069.069,0,0,1,.014.1l-.37.468a.062.062,0,0,1-.1.014,1.132,1.132,0,0,0-.238-.119.77.77,0,0,0-.258-.042.542.542,0,0,0-.486.224,1.119,1.119,0,0,0-.15.628v1.824a.062.062,0,0,1-.07.07Z" transform="translate(-520.228 -367.169)" fill="#074045"/>
      </g>
      <g id="Group_618" data-name="Group 618" transform="translate(38.948 14.59)">
        <path id="Path_327" data-name="Path 327" d="M526.909,370.614a.062.062,0,0,1-.07-.07V370.3h-.007a.835.835,0,0,1-.356.283,1.434,1.434,0,0,1-.594.108,1.5,1.5,0,0,1-.437-.063,1.032,1.032,0,0,1-.359-.189.9.9,0,0,1-.245-.318,1.061,1.061,0,0,1-.091-.457.931.931,0,0,1,.36-.811,1.665,1.665,0,0,1,.989-.259h.685a.037.037,0,0,0,.042-.042v-.161a.521.521,0,0,0-.161-.426.948.948,0,0,0-.587-.133,1.386,1.386,0,0,0-.468.067,1.015,1.015,0,0,0-.3.164c-.042.032-.075.028-.1-.014l-.258-.461a.06.06,0,0,1,.014-.091,1.686,1.686,0,0,1,.489-.238,2.37,2.37,0,0,1,.706-.091,1.65,1.65,0,0,1,1.087.28,1.134,1.134,0,0,1,.318.894v2.2a.062.062,0,0,1-.07.07Zm-.831-.559a.937.937,0,0,0,.556-.14.5.5,0,0,0,.192-.433v-.258a.037.037,0,0,0-.042-.042h-.559a1.082,1.082,0,0,0-.552.108.377.377,0,0,0-.175.346q0,.418.58.419" transform="translate(-524.75 -367.169)" fill="#074045"/>
      </g>
      <g id="Group_619" data-name="Group 619" transform="translate(42.882 13.284)">
        <path id="Path_328" data-name="Path 328" d="M531.99,369.864a.914.914,0,0,1-.709-.237,1.064,1.064,0,0,1-.213-.727v-3.76a.062.062,0,0,1,.07-.07h.643a.062.062,0,0,1,.07.07v3.717a.327.327,0,0,0,.07.241.315.315,0,0,0,.224.067h.154a.062.062,0,0,1,.07.07v.559a.061.061,0,0,1-.07.07Z" transform="translate(-531.068 -365.071)" fill="#074045"/>
      </g>
      <g id="Group_620" data-name="Group 620" transform="translate(46.469 13.284)">
        <path id="Path_329" data-name="Path 329" d="M538.461,365.141a.087.087,0,0,1,.091-.07h.643a.087.087,0,0,1,.091.07l1.607,4.612c.014.046,0,.07-.049.07h-.685a.088.088,0,0,1-.091-.07l-.314-.923h-1.789l-.314.923a.088.088,0,0,1-.091.07h-.677c-.047,0-.063-.024-.049-.07ZM539.5,368.1l-.629-1.845h-.021l-.636,1.845Z" transform="translate(-536.828 -365.071)" fill="#074045"/>
      </g>
      <g id="Group_621" data-name="Group 621" transform="translate(51.226 14.667)">
        <path id="Path_330" data-name="Path 330" d="M546.578,370.661a.062.062,0,0,1-.07-.07v-.245H546.5a1.073,1.073,0,0,1-.346.283,1.13,1.13,0,0,1-.527.108,1.188,1.188,0,0,1-.486-.094,1.057,1.057,0,0,1-.364-.262,1.172,1.172,0,0,1-.23-.395,1.491,1.491,0,0,1-.08-.5v-2.124a.061.061,0,0,1,.07-.07h.643a.062.062,0,0,1,.07.07v1.943a.86.86,0,0,0,.153.531.647.647,0,0,0,.94,0,.807.807,0,0,0,.164-.524v-1.95a.061.061,0,0,1,.07-.07h.643a.062.062,0,0,1,.07.07v3.228a.062.062,0,0,1-.07.07Z" transform="translate(-544.468 -367.293)" fill="#074045"/>
      </g>
      <g id="Group_622" data-name="Group 622" transform="translate(54.921 13.633)">
        <path id="Path_331" data-name="Path 331" d="M551.675,370.076a.917.917,0,0,1-.724-.245,1.1,1.1,0,0,1-.213-.74v-1.775a.037.037,0,0,0-.042-.042h-.224a.062.062,0,0,1-.07-.07v-.468a.062.062,0,0,1,.07-.07h.224a.037.037,0,0,0,.042-.042V365.7a.061.061,0,0,1,.07-.07h.643a.062.062,0,0,1,.07.07v.923a.037.037,0,0,0,.042.042h.448a.061.061,0,0,1,.069.07v.468a.061.061,0,0,1-.069.07h-.448a.037.037,0,0,0-.042.042v1.747a.319.319,0,0,0,.077.248.353.353,0,0,0,.238.067h.175a.062.062,0,0,1,.069.07v.559a.061.061,0,0,1-.069.07Z" transform="translate(-550.403 -365.632)" fill="#074045"/>
      </g>
      <g id="Group_623" data-name="Group 623" transform="translate(57.591 13.284)">
        <path id="Path_332" data-name="Path 332" d="M556.821,369.823a.062.062,0,0,1-.07-.07V367.81a.826.826,0,0,0-.161-.531.569.569,0,0,0-.475-.2.581.581,0,0,0-.474.2.8.8,0,0,0-.168.531v1.943a.062.062,0,0,1-.07.07h-.643a.062.062,0,0,1-.07-.07v-4.612a.062.062,0,0,1,.07-.07h.643a.062.062,0,0,1,.07.07v1.628h.007a.913.913,0,0,1,.332-.276,1.347,1.347,0,0,1,1.041-.021,1.086,1.086,0,0,1,.367.262,1.151,1.151,0,0,1,.234.395,1.487,1.487,0,0,1,.08.5v2.124a.062.062,0,0,1-.07.07Z" transform="translate(-554.69 -365.071)" fill="#074045"/>
      </g>
      <g id="Group_624" data-name="Group 624" transform="translate(61.378 14.59)">
        <path id="Path_333" data-name="Path 333" d="M562.275,370.691a1.553,1.553,0,0,1-.884-.245,1.249,1.249,0,0,1-.507-.685,2.512,2.512,0,0,1-.084-.366,3.87,3.87,0,0,1,0-.93,2.519,2.519,0,0,1,.084-.367,1.251,1.251,0,0,1,.507-.685,1.706,1.706,0,0,1,1.761,0,1.253,1.253,0,0,1,.506.685,2.535,2.535,0,0,1,.084.367,3.87,3.87,0,0,1,0,.93,2.528,2.528,0,0,1-.084.366,1.251,1.251,0,0,1-.506.685,1.545,1.545,0,0,1-.877.245m0-.7a.652.652,0,0,0,.395-.115.682.682,0,0,0,.234-.325,1.387,1.387,0,0,0,.056-.269c.009-.091.014-.209.014-.353a3.5,3.5,0,0,0-.014-.349,1.55,1.55,0,0,0-.056-.273.685.685,0,0,0-.234-.325.652.652,0,0,0-.395-.115.632.632,0,0,0-.636.44,1.5,1.5,0,0,0-.056.273,3.493,3.493,0,0,0-.014.349q0,.217.014.353a1.343,1.343,0,0,0,.056.269.631.631,0,0,0,.636.44" transform="translate(-560.773 -367.169)" fill="#074045"/>
      </g>
      <g id="Group_625" data-name="Group 625" transform="translate(65.354 14.59)">
        <path id="Path_334" data-name="Path 334" d="M567.229,370.614a.062.062,0,0,1-.07-.07v-3.228a.061.061,0,0,1,.07-.07h.643a.062.062,0,0,1,.07.07v.286h.007a.873.873,0,0,1,.335-.314,1.11,1.11,0,0,1,.539-.119,1.042,1.042,0,0,1,.388.073.937.937,0,0,1,.318.206.069.069,0,0,1,.014.1l-.37.468a.062.062,0,0,1-.1.014,1.132,1.132,0,0,0-.238-.119.77.77,0,0,0-.258-.042.542.542,0,0,0-.486.224,1.118,1.118,0,0,0-.15.628v1.824a.062.062,0,0,1-.07.07Z" transform="translate(-567.159 -367.169)" fill="#074045"/>
      </g>
      <g id="Group_626" data-name="Group 626" transform="translate(68.45 14.667)">
        <rect id="Rectangle_149" data-name="Rectangle 149" width="0.783" height="3.368" rx="0.112" fill="#074045"/>
      </g>
      <g id="Group_627" data-name="Group 627" transform="translate(70.106 13.633)">
        <path id="Path_335" data-name="Path 335" d="M576.061,370.076a.917.917,0,0,1-.724-.245,1.1,1.1,0,0,1-.212-.74v-1.775a.037.037,0,0,0-.042-.042h-.224a.061.061,0,0,1-.07-.07v-.468a.061.061,0,0,1,.07-.07h.224a.037.037,0,0,0,.042-.042V365.7a.061.061,0,0,1,.069-.07h.643a.061.061,0,0,1,.07.07v.923a.037.037,0,0,0,.042.042h.448a.062.062,0,0,1,.07.07v.468a.062.062,0,0,1-.07.07h-.448a.037.037,0,0,0-.042.042v1.747a.319.319,0,0,0,.077.248.355.355,0,0,0,.238.067h.175a.062.062,0,0,1,.07.07v.559a.062.062,0,0,1-.07.07Z" transform="translate(-574.79 -365.632)" fill="#074045"/>
      </g>
      <g id="Group_628" data-name="Group 628" transform="translate(72.386 14.667)">
        <path id="Path_336" data-name="Path 336" d="M578.96,371.919a.061.061,0,0,1-.07-.07v-.559a.062.062,0,0,1,.07-.07h.126a.474.474,0,0,0,.314-.094.71.71,0,0,0,.189-.3l.1-.286-1.23-3.172c-.014-.047.005-.07.056-.07h.692a.084.084,0,0,1,.084.07l.761,2.2h.014l.727-2.2a.084.084,0,0,1,.084-.07h.664c.051,0,.07.023.056.07l-1.286,3.508a3.579,3.579,0,0,1-.224.5,1.306,1.306,0,0,1-.245.322.8.8,0,0,1-.293.174,1.2,1.2,0,0,1-.37.052Z" transform="translate(-578.452 -367.293)" fill="#074045"/>
      </g>
      <g id="Group_629" data-name="Group 629" transform="translate(77.91 14.59)">
        <path id="Path_337" data-name="Path 337" d="M588.826,370.691a1.553,1.553,0,0,1-.884-.245,1.249,1.249,0,0,1-.507-.685,2.5,2.5,0,0,1-.084-.366,3.87,3.87,0,0,1,0-.93,2.511,2.511,0,0,1,.084-.367,1.251,1.251,0,0,1,.507-.685,1.706,1.706,0,0,1,1.761,0,1.252,1.252,0,0,1,.506.685,2.425,2.425,0,0,1,.083.367,3.87,3.87,0,0,1,0,.93,2.418,2.418,0,0,1-.083.366,1.25,1.25,0,0,1-.506.685,1.545,1.545,0,0,1-.877.245m0-.7a.652.652,0,0,0,.395-.115.681.681,0,0,0,.234-.325,1.387,1.387,0,0,0,.056-.269q.014-.136.014-.353a3.49,3.49,0,0,0-.014-.349,1.55,1.55,0,0,0-.056-.273.684.684,0,0,0-.234-.325.652.652,0,0,0-.395-.115.631.631,0,0,0-.636.44,1.5,1.5,0,0,0-.056.273c-.009.088-.014.205-.014.349s0,.262.014.353a1.343,1.343,0,0,0,.056.269.631.631,0,0,0,.636.44" transform="translate(-587.324 -367.169)" fill="#074045"/>
      </g>
      <g id="Group_630" data-name="Group 630" transform="translate(81.656 13.284)">
        <path id="Path_338" data-name="Path 338" d="M593.744,369.823a.062.062,0,0,1-.07-.07V367.1a.037.037,0,0,0-.042-.042h-.224a.061.061,0,0,1-.07-.07v-.468a.061.061,0,0,1,.07-.07h.224a.038.038,0,0,0,.042-.042V366.2a1.134,1.134,0,0,1,.283-.859,1.18,1.18,0,0,1,.835-.265h.308a.062.062,0,0,1,.07.07v.558a.062.062,0,0,1-.07.07h-.217a1.084,1.084,0,0,0-.217.017.24.24,0,0,0-.13.066.277.277,0,0,0-.063.126.981.981,0,0,0-.017.2v.23a.037.037,0,0,0,.042.042h.6a.062.062,0,0,1,.07.07v.468a.062.062,0,0,1-.07.07h-.6a.037.037,0,0,0-.042.042v2.649a.062.062,0,0,1-.07.07Z" transform="translate(-593.339 -365.071)" fill="#074045"/>
      </g>
      <g id="Group_631" data-name="Group 631" transform="translate(86.121 13.284)">
        <path id="Path_339" data-name="Path 339" d="M600.51,365.141a.061.061,0,0,1,.07-.07h2.977a.062.062,0,0,1,.07.07v.6a.062.062,0,0,1-.07.07h-2.18a.038.038,0,0,0-.042.042v1.209a.037.037,0,0,0,.042.042h1.837a.062.062,0,0,1,.07.07v.6a.062.062,0,0,1-.07.07h-1.837a.037.037,0,0,0-.042.042v1.866a.062.062,0,0,1-.07.07h-.685a.062.062,0,0,1-.07-.07Z" transform="translate(-600.51 -365.071)" fill="#074045"/>
      </g>
      <g id="Group_632" data-name="Group 632" transform="translate(89.733 14.59)">
        <path id="Path_340" data-name="Path 340" d="M607.814,370.691a1.557,1.557,0,0,1-.884-.245,1.247,1.247,0,0,1-.506-.685,2.5,2.5,0,0,1-.084-.366,3.87,3.87,0,0,1,0-.93,2.511,2.511,0,0,1,.084-.367,1.249,1.249,0,0,1,.506-.685,1.706,1.706,0,0,1,1.761,0,1.251,1.251,0,0,1,.507.685,2.439,2.439,0,0,1,.083.367,3.878,3.878,0,0,1,0,.93,2.432,2.432,0,0,1-.083.366,1.249,1.249,0,0,1-.507.685,1.543,1.543,0,0,1-.877.245m0-.7a.651.651,0,0,0,.395-.115.684.684,0,0,0,.234-.325,1.387,1.387,0,0,0,.056-.269c.009-.091.014-.209.014-.353s0-.261-.014-.349a1.551,1.551,0,0,0-.056-.273.687.687,0,0,0-.234-.325.651.651,0,0,0-.395-.115.632.632,0,0,0-.636.44,1.5,1.5,0,0,0-.056.273,3.464,3.464,0,0,0-.014.349c0,.144.005.262.014.353a1.343,1.343,0,0,0,.056.269.631.631,0,0,0,.636.44" transform="translate(-606.312 -367.169)" fill="#074045"/>
      </g>
      <g id="Group_633" data-name="Group 633" transform="translate(93.709 14.59)">
        <path id="Path_341" data-name="Path 341" d="M612.767,370.614a.062.062,0,0,1-.07-.07v-3.228a.061.061,0,0,1,.07-.07h.643a.062.062,0,0,1,.07.07v.286h.007a.874.874,0,0,1,.336-.314,1.107,1.107,0,0,1,.538-.119,1.041,1.041,0,0,1,.388.073.931.931,0,0,1,.318.206.069.069,0,0,1,.014.1l-.37.468a.062.062,0,0,1-.1.014,1.141,1.141,0,0,0-.237-.119.777.777,0,0,0-.259-.042.542.542,0,0,0-.486.224,1.118,1.118,0,0,0-.15.628v1.824a.062.062,0,0,1-.07.07Z" transform="translate(-612.697 -367.169)" fill="#074045"/>
      </g>
      <g id="Group_634" data-name="Group 634" transform="translate(96.622 14.591)">
        <path id="Path_342" data-name="Path 342" d="M618.9,370.692a1.559,1.559,0,0,1-.9-.248,1.269,1.269,0,0,1-.5-.688,2.1,2.1,0,0,1-.088-.36,2.983,2.983,0,0,1-.032-.465,3.349,3.349,0,0,1,.029-.468,1.886,1.886,0,0,1,.083-.363,1.259,1.259,0,0,1,.508-.685,1.685,1.685,0,0,1,1.753,0,1.28,1.28,0,0,1,.5.682c.019.06.036.121.05.181s.025.13.034.21.016.169.021.269.007.218.007.352c0,.047-.025.07-.077.07h-2.075a.037.037,0,0,0-.042.042.6.6,0,0,0,.014.139.812.812,0,0,0,.036.119.718.718,0,0,0,.754.511,1.1,1.1,0,0,0,.475-.091,1,1,0,0,0,.314-.231c.037-.037.072-.042.1-.014l.413.363a.065.065,0,0,1,.007.1,1.648,1.648,0,0,1-.567.412,1.939,1.939,0,0,1-.817.161m.671-2.138a.9.9,0,0,0-.042-.286.605.605,0,0,0-.245-.318.734.734,0,0,0-.413-.115.748.748,0,0,0-.419.115.6.6,0,0,0-.244.318.9.9,0,0,0-.042.286.037.037,0,0,0,.042.042h1.321a.037.037,0,0,0,.042-.042" transform="translate(-617.376 -367.17)" fill="#074045"/>
      </g>
      <g id="Group_635" data-name="Group 635" transform="translate(100.585 14.667)">
        <rect id="Rectangle_150" data-name="Rectangle 150" width="0.783" height="3.368" rx="0.112" fill="#074045"/>
      </g>
      <g id="Group_636" data-name="Group 636" transform="translate(102.331 14.591)">
        <path id="Path_343" data-name="Path 343" d="M627.894,371.949a1.819,1.819,0,0,1-.692-.136,1.343,1.343,0,0,1-.531-.367.064.064,0,0,1,.007-.1l.412-.413a.068.068,0,0,1,.1,0,1.036,1.036,0,0,0,.734.314.732.732,0,0,0,.573-.2.873.873,0,0,0,.182-.6v-.315h-.007a.817.817,0,0,1-.332.286,1.229,1.229,0,0,1-.542.1,1.2,1.2,0,0,1-.719-.21,1.171,1.171,0,0,1-.427-.608,2.218,2.218,0,0,1-.088-.388,3.847,3.847,0,0,1-.024-.471,3.77,3.77,0,0,1,.024-.468,2.232,2.232,0,0,1,.088-.384,1.177,1.177,0,0,1,.427-.615,1.372,1.372,0,0,1,1.261-.1.85.85,0,0,1,.332.29h.007v-.252a.062.062,0,0,1,.07-.07h.643a.061.061,0,0,1,.07.07V370.4a1.4,1.4,0,0,1-1.572,1.544m.112-2.117a.618.618,0,0,0,.388-.111.662.662,0,0,0,.213-.321,1.227,1.227,0,0,0,.059-.248,2.266,2.266,0,0,0,.017-.3,1.723,1.723,0,0,0-.077-.552.661.661,0,0,0-.213-.314.618.618,0,0,0-.388-.112.57.57,0,0,0-.594.426,1.7,1.7,0,0,0-.077.552,2.372,2.372,0,0,0,.017.3,1.266,1.266,0,0,0,.06.248.571.571,0,0,0,.594.433" transform="translate(-626.545 -367.17)" fill="#074045"/>
      </g>
      <g id="Group_637" data-name="Group 637" transform="translate(106.412 14.59)">
        <path id="Path_344" data-name="Path 344" d="M635.23,370.614a.062.062,0,0,1-.07-.07V368.6a.83.83,0,0,0-.161-.531.571.571,0,0,0-.475-.2.581.581,0,0,0-.475.2.8.8,0,0,0-.168.531v1.943a.062.062,0,0,1-.07.07h-.643a.062.062,0,0,1-.07-.07v-3.228a.062.062,0,0,1,.07-.07h.643a.062.062,0,0,1,.07.07v.245h.007a.914.914,0,0,1,.332-.276,1.348,1.348,0,0,1,1.042-.021,1.09,1.09,0,0,1,.367.262,1.143,1.143,0,0,1,.234.395,1.487,1.487,0,0,1,.08.5v2.124a.062.062,0,0,1-.07.07Z" transform="translate(-633.099 -367.169)" fill="#074045"/>
      </g>
      <g id="Group_638" data-name="Group 638" transform="translate(111.737 13.284)">
        <path id="Path_345" data-name="Path 345" d="M643.076,369.823a.062.062,0,0,1-.07-.07v-3.9a.037.037,0,0,0-.042-.042H641.72a.062.062,0,0,1-.07-.07v-.6a.062.062,0,0,1,.07-.07h3.4a.062.062,0,0,1,.07.07v.6a.062.062,0,0,1-.07.07h-1.244a.037.037,0,0,0-.042.042v3.9a.062.062,0,0,1-.07.07Z" transform="translate(-641.65 -365.071)" fill="#074045"/>
      </g>
      <g id="Group_639" data-name="Group 639" transform="translate(116.076 14.59)">
        <path id="Path_346" data-name="Path 346" d="M648.689,370.614a.062.062,0,0,1-.07-.07v-3.228a.062.062,0,0,1,.07-.07h.643a.062.062,0,0,1,.07.07v.286h.007a.873.873,0,0,1,.335-.314,1.11,1.11,0,0,1,.539-.119,1.043,1.043,0,0,1,.388.073.937.937,0,0,1,.318.206.068.068,0,0,1,.014.1l-.37.468a.062.062,0,0,1-.1.014,1.133,1.133,0,0,0-.238-.119.771.771,0,0,0-.258-.042.542.542,0,0,0-.486.224,1.118,1.118,0,0,0-.15.628v1.824a.062.062,0,0,1-.07.07Z" transform="translate(-648.619 -367.169)" fill="#074045"/>
      </g>
      <g id="Group_640" data-name="Group 640" transform="translate(118.892 14.59)">
        <path id="Path_347" data-name="Path 347" d="M655.3,370.614a.062.062,0,0,1-.07-.07V370.3h-.007a.836.836,0,0,1-.356.283,1.434,1.434,0,0,1-.594.108,1.5,1.5,0,0,1-.437-.063,1.031,1.031,0,0,1-.359-.189.9.9,0,0,1-.245-.318,1.06,1.06,0,0,1-.091-.457.931.931,0,0,1,.36-.811,1.665,1.665,0,0,1,.989-.259h.685a.037.037,0,0,0,.042-.042v-.161a.522.522,0,0,0-.161-.426.948.948,0,0,0-.587-.133,1.387,1.387,0,0,0-.468.067,1.014,1.014,0,0,0-.3.164c-.042.032-.075.028-.1-.014l-.258-.461a.06.06,0,0,1,.014-.091,1.684,1.684,0,0,1,.489-.238,2.37,2.37,0,0,1,.706-.091,1.65,1.65,0,0,1,1.087.28,1.133,1.133,0,0,1,.318.894v2.2a.062.062,0,0,1-.07.07Zm-.831-.559a.936.936,0,0,0,.556-.14.5.5,0,0,0,.192-.433v-.258a.037.037,0,0,0-.042-.042h-.559a1.082,1.082,0,0,0-.552.108.376.376,0,0,0-.174.346q0,.418.58.419" transform="translate(-653.142 -367.169)" fill="#074045"/>
      </g>
      <g id="Group_641" data-name="Group 641" transform="translate(122.658 13.284)">
        <path id="Path_348" data-name="Path 348" d="M661.447,369.823a.062.062,0,0,1-.07-.07V369.5h-.007a.888.888,0,0,1-.336.287,1.223,1.223,0,0,1-.559.111,1.281,1.281,0,0,1-.733-.2,1.126,1.126,0,0,1-.433-.608,2.352,2.352,0,0,1-.091-.4,5.385,5.385,0,0,1,0-1.1,2.378,2.378,0,0,1,.091-.4,1.124,1.124,0,0,1,.433-.608,1.281,1.281,0,0,1,.733-.2,1.215,1.215,0,0,1,.559.112.893.893,0,0,1,.336.286h.007v-1.635a.062.062,0,0,1,.07-.07h.643a.062.062,0,0,1,.07.07v4.612a.062.062,0,0,1-.07.07Zm-.768-.622a.6.6,0,0,0,.629-.433,1.681,1.681,0,0,0,.052-.258,3.933,3.933,0,0,0,0-.74,1.7,1.7,0,0,0-.052-.259.668.668,0,0,0-1.251,0,1.639,1.639,0,0,0-.052.259,3.933,3.933,0,0,0,0,.74,1.618,1.618,0,0,0,.052.258.59.59,0,0,0,.622.433" transform="translate(-659.19 -365.071)" fill="#074045"/>
      </g>
      <g id="Group_642" data-name="Group 642" transform="translate(126.606 14.591)">
        <path id="Path_349" data-name="Path 349" d="M667.054,370.692a1.561,1.561,0,0,1-.9-.248,1.273,1.273,0,0,1-.5-.688,2.1,2.1,0,0,1-.087-.36,3,3,0,0,1-.031-.465,3.461,3.461,0,0,1,.027-.468,1.878,1.878,0,0,1,.084-.363,1.251,1.251,0,0,1,.507-.685,1.686,1.686,0,0,1,1.753,0,1.28,1.28,0,0,1,.5.682c.019.06.035.121.049.181s.026.13.035.21.016.169.021.269.007.218.007.352c0,.047-.026.07-.077.07h-2.075a.037.037,0,0,0-.042.042.642.642,0,0,0,.014.139.8.8,0,0,0,.035.119.719.719,0,0,0,.755.511,1.1,1.1,0,0,0,.475-.091,1.008,1.008,0,0,0,.314-.231c.037-.037.072-.042.1-.014l.412.363a.065.065,0,0,1,.007.1,1.645,1.645,0,0,1-.566.412,1.943,1.943,0,0,1-.818.161m.671-2.138a.9.9,0,0,0-.042-.286.608.608,0,0,0-.245-.318.734.734,0,0,0-.412-.115.745.745,0,0,0-.419.115.6.6,0,0,0-.245.318.9.9,0,0,0-.042.286.037.037,0,0,0,.042.042h1.321a.037.037,0,0,0,.042-.042" transform="translate(-665.531 -367.17)" fill="#074045"/>
      </g>
      <g id="Group_643" data-name="Group 643" transform="translate(3.821 0.597)">
        <path id="Path_350" data-name="Path 350" d="M469.78,345.343a.728.728,0,1,1-.723-.647.688.688,0,0,1,.723.647" transform="translate(-468.334 -344.696)" fill="#074045"/>
      </g>
      <g id="Group_644" data-name="Group 644" transform="translate(39.838 0.597)">
        <path id="Path_351" data-name="Path 351" d="M527.625,345.343a.728.728,0,1,1-.724-.647.688.688,0,0,1,.724.647" transform="translate(-526.179 -344.696)" fill="#074045"/>
      </g>
      <g id="Group_645" data-name="Group 645" transform="translate(41.739 0.597)">
        <path id="Path_352" data-name="Path 352" d="M530.678,345.343a.728.728,0,1,1-.723-.647.688.688,0,0,1,.723.647" transform="translate(-529.232 -344.696)" fill="#074045"/>
      </g>
      <g id="Group_646" data-name="Group 646" transform="translate(72.097 0.597)">
        <path id="Path_353" data-name="Path 353" d="M579.433,345.343a.728.728,0,1,1-.723-.647.688.688,0,0,1,.723.647" transform="translate(-577.987 -344.696)" fill="#074045"/>
      </g>
      <g id="Group_647" data-name="Group 647" transform="translate(73.976 0.597)">
        <path id="Path_354" data-name="Path 354" d="M582.451,345.343a.728.728,0,1,1-.724-.647.688.688,0,0,1,.724.647" transform="translate(-581.005 -344.696)" fill="#074045"/>
      </g>
      <g id="Group_648" data-name="Group 648" transform="translate(104.02 0.597)">
        <path id="Path_355" data-name="Path 355" d="M630.7,345.343a.727.727,0,1,1-.723-.647.688.688,0,0,1,.723.647" transform="translate(-629.257 -344.696)" fill="#074045"/>
      </g>
      <g id="Group_649" data-name="Group 649" transform="translate(105.921 0.597)">
        <path id="Path_356" data-name="Path 356" d="M633.756,345.343a.728.728,0,1,1-.724-.647.688.688,0,0,1,.724.647" transform="translate(-632.31 -344.696)" fill="#074045"/>
      </g>
      <g id="Group_650" data-name="Group 650" transform="translate(25.112 0.943)">
        <path id="Path_357" data-name="Path 357" d="M503.974,345.9a.728.728,0,1,1-.724-.647.688.688,0,0,1,.724.647" transform="translate(-502.528 -345.251)" fill="#074045"/>
      </g>
      <g id="Group_651" data-name="Group 651" transform="translate(56.967 0.943)">
        <path id="Path_358" data-name="Path 358" d="M555.135,345.9a.728.728,0,1,1-.723-.647.688.688,0,0,1,.723.647" transform="translate(-553.689 -345.251)" fill="#074045"/>
      </g>
      <g id="Group_652" data-name="Group 652" transform="translate(58.846 0.943)">
        <path id="Path_359" data-name="Path 359" d="M558.153,345.9a.728.728,0,1,1-.723-.647.688.688,0,0,1,.723.647" transform="translate(-556.707 -345.251)" fill="#074045"/>
      </g>
      <g id="Group_653" data-name="Group 653" transform="translate(6.885 8.865)">
        <path id="Path_360" data-name="Path 360" d="M474.7,358.621a.727.727,0,1,1-.723-.647.688.688,0,0,1,.723.647" transform="translate(-473.256 -357.974)" fill="#074045"/>
      </g>
      <g id="Group_654" data-name="Group 654" transform="translate(8.771 8.865)">
        <path id="Path_361" data-name="Path 361" d="M477.731,358.621a.728.728,0,1,1-.724-.647.689.689,0,0,1,.724.647" transform="translate(-476.284 -357.974)" fill="#074045"/>
      </g>
      <g id="Group_655" data-name="Group 655" transform="translate(13.089 8.865)">
        <path id="Path_362" data-name="Path 362" d="M484.665,358.621a.727.727,0,1,1-.723-.647.688.688,0,0,1,.723.647" transform="translate(-483.219 -357.974)" fill="#074045"/>
      </g>
      <g id="Group_656" data-name="Group 656" transform="translate(51.768 8.865)">
        <path id="Path_363" data-name="Path 363" d="M546.784,358.621a.728.728,0,1,1-.723-.647.688.688,0,0,1,.723.647" transform="translate(-545.338 -357.974)" fill="#074045"/>
      </g>
      <g id="Group_657" data-name="Group 657" transform="translate(111.989 8.865)">
        <path id="Path_364" data-name="Path 364" d="M643.5,358.621a.728.728,0,1,1-.723-.647.688.688,0,0,1,.723.647" transform="translate(-642.056 -357.974)" fill="#074045"/>
      </g>
      <g id="Group_658" data-name="Group 658" transform="translate(113.846 8.865)">
        <path id="Path_365" data-name="Path 365" d="M646.484,358.621a.728.728,0,1,1-.723-.647.688.688,0,0,1,.723.647" transform="translate(-645.038 -357.974)" fill="#074045"/>
      </g>
      <g id="Group_659" data-name="Group 659" transform="translate(1.933 0.597)">
        <path id="Path_366" data-name="Path 366" d="M466.749,345.343a.727.727,0,1,1-.723-.647.688.688,0,0,1,.723.647" transform="translate(-465.303 -344.696)" fill="#074045"/>
      </g>
      <g id="Group_660" data-name="Group 660" transform="translate(100.592 13.279)">
        <path id="Path_367" data-name="Path 367" d="M624.517,365.447a.383.383,0,1,1-.383-.384.384.384,0,0,1,.383.384" transform="translate(-623.751 -365.063)" fill="#074045"/>
      </g>
      <g id="Group_661" data-name="Group 661" transform="translate(68.455 13.279)">
        <path id="Path_368" data-name="Path 368" d="M572.906,365.447a.384.384,0,1,1-.383-.384.384.384,0,0,1,.383.384" transform="translate(-572.139 -365.063)" fill="#074045"/>
      </g>
      <g id="Group_662" data-name="Group 662" transform="translate(16.356 13.279)">
        <path id="Path_369" data-name="Path 369" d="M489.233,365.447a.384.384,0,1,1-.384-.384.384.384,0,0,1,.384.384" transform="translate(-488.466 -365.063)" fill="#074045"/>
      </g>
    </g>
  </g>
</svg>
