<svg xmlns="http://www.w3.org/2000/svg" width="80.991" height="77.169" viewBox="0 0 80.991 77.169">
  <g id="icon2" transform="translate(-300.167 -130.667)">
    <circle id="Ellipse_188" data-name="Ellipse 188" cx="27.5" cy="27.5" r="27.5" transform="translate(313.667 152.837)" fill="#bbb" opacity="0.3"/>
    <path id="Path_51139" data-name="Path 51139" d="M312.194,142.431l28.2-10.263,8.468,23.262" transform="translate(6.846)" fill="none" stroke="#adadad" stroke-linecap="round" stroke-linejoin="round" stroke-width="3"/>
    <path id="Path_51140" data-name="Path 51140" d="M327.309,134.22l2.258,6.2-9.306,3.387-2.256-6.2" transform="translate(10.625 1.335)" fill="none" stroke="#adadad" stroke-linecap="round" stroke-linejoin="round" stroke-width="3"/>
    <path id="Path_51141" data-name="Path 51141" d="M317.667,157.432l35.387-12.879,10.724,29.465" transform="translate(10.405 8.055)" fill="none" stroke="#c48e61" stroke-linecap="round" stroke-linejoin="round" stroke-width="3"/>
    <line id="Line_123" data-name="Line 123" x1="3.101" y2="1.129" transform="translate(364.862 179.069)" fill="none" stroke="#c48e61" stroke-linecap="round" stroke-linejoin="round" stroke-width="3"/>
    <line id="Line_124" data-name="Line 124" x1="3.101" y2="1.129" transform="translate(357.608 181.68)" fill="none" stroke="#c48e61" stroke-linecap="round" stroke-linejoin="round" stroke-width="3"/>
    <path id="Path_51142" data-name="Path 51142" d="M335.869,147.289l2.258,6.2-10.856,3.951-2.258-6.2" transform="translate(15.183 9.834)" fill="none" stroke="#c48e61" stroke-linecap="round" stroke-linejoin="round" stroke-width="3"/>
    <circle id="Ellipse_168" data-name="Ellipse 168" cx="9.902" cy="9.902" r="9.902" transform="translate(328.073 185.154)" fill="none" stroke="#005f54" stroke-linecap="round" stroke-linejoin="round" stroke-width="3"/>
    <line id="Line_125" data-name="Line 125" y1="11.609" x2="31.893" transform="translate(347.342 180.234)" fill="none" stroke="#005f54" stroke-linecap="round" stroke-linejoin="round" stroke-width="3"/>
    <path id="Path_51143" data-name="Path 51143" d="M322.8,151.238,317.718,137.5a4.949,4.949,0,0,0-4.641-3.228H301.667" transform="translate(0 1.37)" fill="none" stroke="#005f54" stroke-linecap="round" stroke-linejoin="round" stroke-width="3"/>
    <line id="Line_126" data-name="Line 126" x1="9.97" y1="26.845" transform="translate(325.098 158.743)" fill="none" stroke="#005f54" stroke-linecap="round" stroke-linejoin="round" stroke-width="3"/>
  </g>
</svg>
