<svg xmlns="http://www.w3.org/2000/svg" width="73.716" height="75.775" viewBox="0 0 73.716 75.775">
  <g id="icon3" transform="translate(1.5 1.5)">
    <circle id="Ellipse_188" data-name="Ellipse 188" cx="27.5" cy="27.5" r="27.5" transform="translate(8 19.275)" fill="#bbb" opacity="0.3"/>
    <path id="Path_51124" data-name="Path 51124" d="M229.733,168.121s6.546-.1,7.122-2.977-.351-6.068,2.028-8.241,4.346-2.363,6.684-1.6a5.4,5.4,0,0,1,3.678,5.912l-.766,3.223,2.811,2.85,6.963.472,5.174,2.491-2.3-6.2-3.706-4.984,2.3-3.7s1.275-1.917,4.407-1.215a11.28,11.28,0,0,0,4.42.4" transform="translate(-227.46 -116.461)" fill="none" stroke="#c48e61" stroke-linecap="round" stroke-linejoin="round" stroke-width="3"/>
    <path id="Path_51125" data-name="Path 51125" d="M241.284,172.376s2.788-.526,3.262-2.736,2.052-3.645,3.683-2.927,3.472,1.56,3.472,1.56a7.506,7.506,0,0,1,1.526,2.5c.579,1.555,1.526,3.918,1.526,3.918" transform="translate(-221.139 -109.607)" fill="none" stroke="#c48e61" stroke-linecap="round" stroke-linejoin="round" stroke-width="3"/>
    <path id="Path_51126" data-name="Path 51126" d="M254.819,176.694s.781-3.945,3.3-4.156a3.646,3.646,0,0,0,3.1-4.682c-.737-1.631-2.527-5-2.527-5" transform="translate(-213.732 -111.614)" fill="none" stroke="#c48e61" stroke-linecap="round" stroke-linejoin="round" stroke-width="3"/>
    <circle id="Ellipse_167" data-name="Ellipse 167" cx="4.879" cy="4.879" r="4.879" transform="translate(47.132 14.371) rotate(-22.5)" fill="none" stroke="#c48e61" stroke-linecap="round" stroke-linejoin="round" stroke-width="3"/>
    <path id="Path_51127" data-name="Path 51127" d="M275.129,148.366c-1.4,1.736-3.054,3.624-4.93,5.9-4.688,5.694-7.233,13.551-7.233,13.551" transform="translate(-209.273 -119.545)" fill="none" stroke="#adadad" stroke-linecap="round" stroke-linejoin="round" stroke-width="3"/>
    <path id="Path_51128" data-name="Path 51128" d="M268.986,178.01s-2.547-7.858-7.235-13.551c-6-7.284-9.789-10.585-9.789-17.7a17.024,17.024,0,1,1,34.049,0,16.409,16.409,0,0,1-.306,3.26" transform="translate(-215.295 -129.739)" fill="none" stroke="#adadad" stroke-linecap="round" stroke-linejoin="round" stroke-width="3"/>
    <path id="Path_51129" data-name="Path 51129" d="M292.784,166.833a32.26,32.26,0,1,1-32.26-32.26" transform="translate(-228.264 -127.094)" fill="none" stroke="#005f54" stroke-linecap="round" stroke-linejoin="round" stroke-width="3"/>
  </g>
</svg>
