<svg id="linkedin2" xmlns="http://www.w3.org/2000/svg" width="15.745" height="15.715" viewBox="0 0 15.745 15.715">
  <path id="Path_259" data-name="Path 259" d="M6.311.643H3.05v-10.5H6.316V.643ZM4.681-11.291A1.892,1.892,0,0,1,2.79-13.181a1.892,1.892,0,0,1,1.891-1.891,1.9,1.9,0,0,1,1.891,1.891A1.888,1.888,0,0,1,4.681-11.291ZM18.534.643H15.273V-4.464c0-1.218-.025-2.785-1.694-2.785-1.7,0-1.959,1.326-1.959,2.7v5.2H8.359v-10.5h3.128v1.434h.044a3.434,3.434,0,0,1,3.089-1.694c3.3,0,3.914,2.176,3.914,5Z" transform="translate(-2.79 15.072)" fill="#cca079"/>
</svg>
