<svg id="linkedin1" xmlns="http://www.w3.org/2000/svg" width="18.342" height="18.308" viewBox="0 0 18.342 18.308">
  <path id="Path_259" data-name="Path 259" d="M6.892,3.236h-3.8V-9H6.9V3.236Zm-1.9-13.9a2.2,2.2,0,0,1-2.2-2.2,2.2,2.2,0,0,1,2.2-2.2,2.207,2.207,0,0,1,2.2,2.2A2.2,2.2,0,0,1,4.993-10.667Zm16.139,13.9h-3.8v-5.95c0-1.419-.029-3.244-1.974-3.244-1.98,0-2.283,1.545-2.283,3.141V3.236h-3.8V-9h3.644v1.671h.052a4,4,0,0,1,3.6-1.974c3.845,0,4.56,2.534,4.56,5.83Z" transform="translate(-2.79 15.072)" fill="#007066"/>
</svg>
