<svg xmlns="http://www.w3.org/2000/svg" xmlns:xlink="http://www.w3.org/1999/xlink" width="444" height="444" viewBox="0 0 444 444">
  <defs>
    <linearGradient id="linear-gradient" x1="0.516" x2="0.5" y2="1" gradientUnits="objectBoundingBox">
      <stop offset="0" stop-color="#007066"/>
      <stop offset="1" stop-color="#023e39"/>
    </linearGradient>
    <filter id="Ellipse_247" x="0" y="0" width="444" height="444" filterUnits="userSpaceOnUse">
      <feOffset dy="16" input="SourceAlpha"/>
      <feGaussianBlur stdDeviation="18" result="blur"/>
      <feFlood flood-color="#012d29" flood-opacity="0.161"/>
      <feComposite operator="in" in2="blur"/>
      <feComposite in="SourceGraphic"/>
    </filter>
  </defs>
  <g id="logo-aboutt" transform="translate(-86 -549)">
    <g transform="matrix(1, 0, 0, 1, 86, 549)" filter="url(#Ellipse_247)">
      <circle id="Ellipse_247-2" data-name="Ellipse 247" cx="168" cy="168" r="168" transform="translate(54 38)" fill="url(#linear-gradient)"/>
    </g>
    <g id="logo-H" transform="translate(192.615 642.385)">
      <g id="Group_594" data-name="Group 594">
        <g id="Group_542" data-name="Group 542" transform="translate(190.254 102.002)">
          <path id="Path_256" data-name="Path 256" d="M822.451,380.1a2.259,2.259,0,0,1-1.677-.744,93.055,93.055,0,0,0-12.8-9.589,131.789,131.789,0,0,0-19.7-10.1l-1.729-.707a2.288,2.288,0,0,1-1.263-2.966,2.257,2.257,0,0,1,2.943-1.271l1.723.7a134.154,134.154,0,0,1,20.417,10.468,97.612,97.612,0,0,1,13.6,10.217,2.293,2.293,0,0,1-1.51,3.993Z" transform="translate(-785.118 -354.553)" fill="#c48e61"/>
        </g>
        <g id="Group_543" data-name="Group 543" transform="translate(188.358 160.021)">
          <path id="Path_257" data-name="Path 257" d="M806.768,394.193a2.217,2.217,0,0,1-1.131-.308,139.416,139.416,0,0,0-19.9-9.489,2.286,2.286,0,0,1-1.3-2.948,2.26,2.26,0,0,1,2.924-1.314,144.4,144.4,0,0,1,20.548,9.8,2.292,2.292,0,0,1,.824,3.119A2.258,2.258,0,0,1,806.768,394.193Z" transform="translate(-784.28 -379.983)" fill="#c48e61"/>
        </g>
        <g id="Group_544" data-name="Group 544" transform="translate(34.738 179.36)">
          <path id="Path_258" data-name="Path 258" d="M718.677,404.325a2.284,2.284,0,0,1-.858-4.394,183.509,183.509,0,0,1,31.565-9.635c.03-.007,4.855-.963,9.828-1.807a2.282,2.282,0,0,1,.752,4.5c-4.912.83-9.674,1.777-9.674,1.777a178.615,178.615,0,0,0-30.754,9.389A2.28,2.28,0,0,1,718.677,404.325Z" transform="translate(-716.412 -388.459)" fill="#c48e61"/>
        </g>
        <g id="Group_545" data-name="Group 545" transform="translate(214.06 129.213)">
          <path id="Path_259" data-name="Path 259" d="M806.813,377.524a2.232,2.232,0,0,1-1.44-.525c-1.589-1.326-3.262-2.629-4.982-3.874h0s-1.628-1.088-3.719-2.446a2.3,2.3,0,0,1-.677-3.155,2.259,2.259,0,0,1,3.13-.682c2.164,1.41,3.839,2.53,3.839,2.53,1.872,1.355,3.631,2.724,5.294,4.111a2.3,2.3,0,0,1,.3,3.215A2.258,2.258,0,0,1,806.813,377.524Z" transform="translate(-795.635 -366.479)" fill="#c48e61"/>
        </g>
        <g id="Group_546" data-name="Group 546" transform="translate(192.287 117.587)">
          <path id="Path_260" data-name="Path 260" d="M802.439,372.812a2.234,2.234,0,0,1-1.1-.285,140.26,140.26,0,0,0-13.934-6.758,2.284,2.284,0,0,1-1.218-2.982,2.258,2.258,0,0,1,2.959-1.228,144,144,0,0,1,14.387,6.975,2.292,2.292,0,0,1,.883,3.1A2.255,2.255,0,0,1,802.439,372.812Z" transform="translate(-786.016 -361.384)" fill="#c48e61"/>
        </g>
        <g id="Group_547" data-name="Group 547" transform="translate(3.223 127.686)">
          <path id="Path_261" data-name="Path 261" d="M704.754,378.331a2.252,2.252,0,0,1-1.745-.828,2.294,2.294,0,0,1,.3-3.213,103.583,103.583,0,0,1,11.189-8.134,2.253,2.253,0,0,1,3.119.728,2.3,2.3,0,0,1-.722,3.144,98.787,98.787,0,0,0-10.7,7.778A2.25,2.25,0,0,1,704.754,378.331Z" transform="translate(-702.49 -365.81)" fill="#c48e61"/>
        </g>
        <g id="Group_548" data-name="Group 548" transform="translate(21.617 115.901)">
          <path id="Path_262" data-name="Path 262" d="M712.881,372.726a2.263,2.263,0,0,1-2.008-1.223,2.294,2.294,0,0,1,.955-3.08,169.175,169.175,0,0,1,16.517-7.62,2.26,2.26,0,0,1,2.934,1.289A2.287,2.287,0,0,1,730,365.048a164.042,164.042,0,0,0-16.071,7.417A2.227,2.227,0,0,1,712.881,372.726Z" transform="translate(-710.615 -360.645)" fill="#c48e61"/>
        </g>
        <g id="Group_549" data-name="Group 549" transform="translate(46.698 44.478)">
          <path id="Path_263" data-name="Path 263" d="M725.091,344.243a3.426,3.426,0,0,1-1.021-6.687q1.928-.613,3.9-1.191l6.589-1.8c5.7-1.456,11.56-2.683,17.481-3.667,3.549-.589,7.207-1.1,10.867-1.531a3.423,3.423,0,0,1,.783,6.8c-3.554.413-7.105.913-10.55,1.485-5.729.949-11.4,2.138-16.857,3.53l-6.474,1.773c-1.2.356-2.461.739-3.7,1.132A3.375,3.375,0,0,1,725.091,344.243Z" transform="translate(-721.696 -329.34)" fill="#fff"/>
        </g>
        <g id="Group_550" data-name="Group 550" transform="translate(26.629 57.64)">
          <path id="Path_264" data-name="Path 264" d="M716.228,359.373a3.393,3.393,0,0,1-3.074-1.967,3.432,3.432,0,0,1,1.628-4.554c3.671-1.736,7.569-3.388,11.583-4.905l.217-.08.349-.13c22.085-8.259,47.912-12.628,74.656-12.628q1.9,0,3.784.027c4.269.069,8.52.244,12.64.523a3.423,3.423,0,0,1-.455,6.831c-4.006-.274-8.139-.445-12.286-.509q-1.83-.028-3.683-.027c-25.949,0-50.957,4.223-72.32,12.211l-.328.121c-4.034,1.524-7.759,3.105-11.268,4.762A3.355,3.355,0,0,1,716.228,359.373Z" transform="translate(-712.83 -335.109)" fill="#fff"/>
        </g>
        <g id="Group_551" data-name="Group 551" transform="translate(70.786 145.792)">
          <path id="Path_265" data-name="Path 265" d="M841.567,389.981a3.458,3.458,0,0,1-1.01-.153c-19.285-6.044-41.285-9.238-63.621-9.238-7.7,0-15.419.376-22.941,1.12q-2.339.233-4.658.509c-4.389.53-8.762,1.189-13,1.963a3.421,3.421,0,0,1-1.211-6.733c4.371-.8,8.882-1.481,13.407-2.026q2.387-.284,4.8-.525c7.744-.764,15.684-1.152,23.606-1.152,23.011,0,45.707,3.3,65.638,9.544a3.426,3.426,0,0,1-1.007,6.692Z" transform="translate(-732.338 -373.746)" fill="#fff"/>
        </g>
        <g id="Group_552" data-name="Group 552" transform="translate(78.729 160.476)">
          <path id="Path_266" data-name="Path 266" d="M823.837,392.779a3.4,3.4,0,0,1-.753-.085c-5.7-1.31-12.651-2.544-12.719-2.553a227.543,227.543,0,0,0-37.862-3.114c-4.658,0-9.351.139-13.945.408-.937.057-1.872.116-2.807.185-5.381.383-10.772.96-16.026,1.718a3.423,3.423,0,0,1-.96-6.779c5.412-.778,10.965-1.371,16.5-1.766q1.433-.1,2.888-.189c4.733-.281,9.558-.422,14.348-.422a234.405,234.405,0,0,1,39.01,3.213c.317.055,7.2,1.28,13.074,2.624a3.425,3.425,0,0,1-.749,6.76Z" transform="translate(-735.847 -380.182)" fill="#fff"/>
        </g>
        <g id="Group_553" data-name="Group 553" transform="translate(87.056 175.183)">
          <path id="Path_267" data-name="Path 267" d="M808.009,396.925a3.494,3.494,0,0,1-.593-.05c-3.144-.559-6.349-1.052-9.527-1.469a234.556,234.556,0,0,0-34.745-1.887c-6.657.132-13.344.547-19.865,1.241a3.423,3.423,0,0,1-.713-6.808c6.716-.712,13.592-1.141,20.444-1.278a241.024,241.024,0,0,1,35.752,1.946c3.28.427,6.587.938,9.833,1.513a3.424,3.424,0,0,1-.586,6.792Z" transform="translate(-739.526 -386.628)" fill="#fff"/>
        </g>
        <g id="Group_554" data-name="Group 554" transform="translate(40.426 87.031)">
          <path id="Path_268" data-name="Path 268" d="M722.323,366.567a3.4,3.4,0,0,1-3.174-2.2,3.43,3.43,0,0,1,1.965-4.417l.754-.29c4.4-1.56,8.918-2.966,13.513-4.209l.011,0,0,0c.156-.039.31-.082.464-.123l.009,0a224.676,224.676,0,0,1,58.014-7.328,227.933,227.933,0,0,1,52.511,5.941c4.8,1.136,9.532,2.45,14.066,3.895a3.429,3.429,0,0,1,2.211,4.3,3.384,3.384,0,0,1-4.262,2.229c-4.369-1.394-8.934-2.658-13.57-3.757a221.217,221.217,0,0,0-50.956-5.759,217.821,217.821,0,0,0-56.28,7.1h0l-.437.116c-4.436,1.2-8.8,2.555-12.963,4.031l-.67.258A3.359,3.359,0,0,1,722.323,366.567Z" transform="translate(-718.925 -347.991)" fill="#fff"/>
        </g>
        <g id="Group_555" data-name="Group 555" transform="translate(55.318 116.399)">
          <path id="Path_269" data-name="Path 269" d="M873.846,386.574a3.363,3.363,0,0,1-1.512-.36c-23.758-11.932-54.569-18.506-86.763-18.506a226.838,226.838,0,0,0-39.79,3.45l-.507.091c-3.153.573-6.311,1.221-9.357,1.921q-3.12.722-6.152,1.522a3.377,3.377,0,0,1-4.147-2.437,3.421,3.421,0,0,1,2.417-4.18q3.137-.835,6.365-1.574c3.153-.73,6.417-1.4,9.695-1.992l.3-.055a233.979,233.979,0,0,1,41.178-3.591c33.224,0,65.112,6.826,89.792,19.224a3.436,3.436,0,0,1,1.526,4.588A3.394,3.394,0,0,1,873.846,386.574Z" transform="translate(-725.504 -360.863)" fill="#fff"/>
        </g>
        <g id="Group_556" data-name="Group 556" transform="translate(62.869 131.106)">
          <path id="Path_270" data-name="Path 270" d="M862.067,389.7a3.354,3.354,0,0,1-1.345-.281c-22.939-9.989-50.563-15.27-79.889-15.27a231.416,231.416,0,0,0-29.924,1.921,3.258,3.258,0,0,1-.654.158q-4.034.554-7.966,1.236c-3.092.543-6.227,1.166-9.321,1.855a3.422,3.422,0,0,1-1.462-6.685c3.192-.709,6.428-1.355,9.625-1.912,2.25-.395,4.6-.766,7-1.106a3.287,3.287,0,0,1,.69-.169,237.553,237.553,0,0,1,32.013-2.142c30.243,0,58.8,5.476,82.582,15.832a3.43,3.43,0,0,1,1.77,4.5A3.4,3.4,0,0,1,862.067,389.7Z" transform="translate(-728.84 -367.309)" fill="#fff"/>
        </g>
        <g id="Group_557" data-name="Group 557" transform="translate(33.178 72.326)">
          <path id="Path_271" data-name="Path 271" d="M719.121,362.915a3.426,3.426,0,0,1-1.191-6.628l10.078-3.8c1.143-.386,2.179-.73,3.223-1.061,1.125-.363,2.261-.712,3.4-1.056a224.341,224.341,0,0,1,63.295-8.825,239.537,239.537,0,0,1,28.443,1.682c3.8.456,7.556,1.006,11.177,1.631a3.422,3.422,0,0,1-1.145,6.747c-3.51-.607-7.155-1.139-10.838-1.583a233.194,233.194,0,0,0-27.637-1.631,217.517,217.517,0,0,0-61.358,8.542c-1.1.329-2.2.671-3.289,1.018q-1.515.486-3.011.992L720.31,362.7A3.352,3.352,0,0,1,719.121,362.915Z" transform="translate(-715.723 -341.546)" fill="#fff"/>
        </g>
        <g id="Group_558" data-name="Group 558" transform="translate(48.027 101.694)">
          <path id="Path_272" data-name="Path 272" d="M858.386,372.061a3.361,3.361,0,0,1-1.089-.18c-20.324-6.947-43.738-10.618-67.709-10.618-22.029,0-43.784,3.13-62.912,9.053a3.419,3.419,0,0,1-1.994-6.541c19.768-6.121,42.21-9.357,64.907-9.357,24.7,0,48.869,3.8,69.888,10.979a3.426,3.426,0,0,1-1.091,6.664Z" transform="translate(-722.283 -354.418)" fill="#fff"/>
        </g>
        <g id="Group_559" data-name="Group 559" transform="translate(129.201 0.537)">
          <path id="Path_273" data-name="Path 273" d="M762.331,314.776c-.054,0-.111,0-.165-.007l-1.9-.132a2.278,2.278,0,0,1-2.112-2.428,2.3,2.3,0,0,1,2.409-2.127l1.933.137a2.282,2.282,0,0,1-.161,4.556Z" transform="translate(-758.145 -310.081)" fill="#adadad"/>
        </g>
        <g id="Group_560" data-name="Group 560" transform="translate(93.478)">
          <path id="Path_274" data-name="Path 274" d="M744.625,315.213a2.283,2.283,0,0,1-.183-4.556,243.047,243.047,0,0,1,36.056-.271,2.278,2.278,0,0,1,2.114,2.423,2.3,2.3,0,0,1-2.406,2.131,237.184,237.184,0,0,0-35.392.267C744.749,315.21,744.688,315.213,744.625,315.213Z" transform="translate(-742.363 -309.846)" fill="#adadad"/>
        </g>
        <g id="Group_561" data-name="Group 561" transform="translate(105.905 14.711)">
          <path id="Path_275" data-name="Path 275" d="M796.75,324.15a2.138,2.138,0,0,1-.4-.036c-2.981-.527-5.7-.938-8.09-1.218a224.851,224.851,0,0,0-34.786-1.992c-1.12.025-2.236.048-3.35.055h-.011a2.282,2.282,0,0,1-.014-4.563c1.089-.007,2.184-.03,3.278-.055a231.777,231.777,0,0,1,35.445,2.028c2.433.285,5.244.707,8.316,1.255a2.282,2.282,0,0,1-.391,4.527Z" transform="translate(-747.853 -316.294)" fill="#adadad"/>
        </g>
        <g id="Group_562" data-name="Group 562" transform="translate(162.103 19.922)">
          <path id="Path_276" data-name="Path 276" d="M800.274,330.66a2.229,2.229,0,0,1-.8-.148,180.3,180.3,0,0,0-23.785-7.143l-1.231-.281a2.28,2.28,0,0,1,.969-4.456l1.283.29a185.29,185.29,0,0,1,24.36,7.322,2.284,2.284,0,0,1-.8,4.417Z" transform="translate(-772.681 -318.577)" fill="#adadad"/>
        </g>
        <g id="Group_563" data-name="Group 563" transform="translate(48.735 15.18)">
          <path id="Path_277" data-name="Path 277" d="M724.86,329.9a2.283,2.283,0,0,1-.67-4.46,207.46,207.46,0,0,1,38.093-7.9c.108-.018,4.334-.627,10.281-1.043a2.306,2.306,0,0,1,2.415,2.117,2.28,2.28,0,0,1-2.1,2.437c-5.767.4-9.978,1.006-10.018,1.013a203.244,203.244,0,0,0-37.33,7.732A2.3,2.3,0,0,1,724.86,329.9Z" transform="translate(-722.596 -316.499)" fill="#adadad"/>
        </g>
        <g id="Group_564" data-name="Group 564" transform="translate(133.858 30.392)">
          <path id="Path_278" data-name="Path 278" d="M819.8,340.946a2.24,2.24,0,0,1-.851-.169,188.9,188.9,0,0,0-45.986-11.962c-.016,0-4.742-.575-10.7-1.091a2.275,2.275,0,0,1-2.06-2.469,2.234,2.234,0,0,1,2.449-2.076c6.035.523,10.831,1.1,10.881,1.109a193.4,193.4,0,0,1,47.113,12.261,2.284,2.284,0,0,1-.851,4.4Z" transform="translate(-760.202 -323.166)" fill="#adadad"/>
        </g>
        <g id="Group_565" data-name="Group 565" transform="translate(81.588 29.392)">
          <path id="Path_279" data-name="Path 279" d="M739.372,329.395a2.283,2.283,0,0,1-.3-4.543,240.394,240.394,0,0,1,38.731-2.03,2.283,2.283,0,0,1-.129,4.563,233.911,233.911,0,0,0-38,1.99A2.343,2.343,0,0,1,739.372,329.395Z" transform="translate(-737.11 -322.728)" fill="#adadad"/>
        </g>
        <g id="Group_566" data-name="Group 566" transform="translate(24.838 33.017)">
          <path id="Path_280" data-name="Path 280" d="M714.305,344.1a2.259,2.259,0,0,1-2.028-1.266,2.289,2.289,0,0,1,1.019-3.06,173.349,173.349,0,0,1,41.178-14.114s4.375-.961,6.259-1.305a2.251,2.251,0,0,1,2.632,1.832,2.279,2.279,0,0,1-1.82,2.654c-1.838.34-6.111,1.278-6.116,1.28a168.7,168.7,0,0,0-40.119,13.739A2.207,2.207,0,0,1,714.305,344.1Z" transform="translate(-712.039 -324.317)" fill="#adadad"/>
        </g>
        <g id="Group_567" data-name="Group 567" transform="translate(154.893 47.768)">
          <path id="Path_281" data-name="Path 281" d="M832.366,358.781a2.224,2.224,0,0,1-1.27-.395,137.854,137.854,0,0,0-35.583-16.945,177.2,177.2,0,0,0-24.149-6.131,2.28,2.28,0,0,1,.787-4.492,181.455,181.455,0,0,1,24.765,6.283,142.384,142.384,0,0,1,36.726,17.513,2.291,2.291,0,0,1,.6,3.169A2.256,2.256,0,0,1,832.366,358.781Z" transform="translate(-769.495 -330.782)" fill="#adadad"/>
        </g>
        <g id="Group_568" data-name="Group 568" transform="translate(97.013 44.08)">
          <path id="Path_282" data-name="Path 282" d="M790.2,335.365a2.169,2.169,0,0,1-.269-.014,232.374,232.374,0,0,0-25.926-1.622c-.041,0-5.747.009-11.641.244l-6.062.306a2.282,2.282,0,0,1-.226-4.559l6.084-.306c6.01-.24,11.8-.249,11.859-.249a238.114,238.114,0,0,1,26.447,1.652,2.283,2.283,0,0,1-.265,4.547Z" transform="translate(-743.925 -329.166)" fill="#adadad"/>
        </g>
        <g id="Group_569" data-name="Group 569" transform="translate(7.497 57.466)">
          <path id="Path_283" data-name="Path 283" d="M706.645,355.652a2.263,2.263,0,0,1-1.822-.924,2.293,2.293,0,0,1,.473-3.192,129.855,129.855,0,0,1,30.152-16.345,2.254,2.254,0,0,1,2.929,1.3,2.283,2.283,0,0,1-1.286,2.952,125.448,125.448,0,0,0-29.1,15.763A2.236,2.236,0,0,1,706.645,355.652Z" transform="translate(-704.378 -335.033)" fill="#adadad"/>
        </g>
        <g id="Group_570" data-name="Group 570" transform="translate(182.258 69.639)">
          <path id="Path_284" data-name="Path 284" d="M826.874,368.851a2.244,2.244,0,0,1-1.51-.582c-10.5-9.471-25.109-17.584-42.245-23.459a2.281,2.281,0,0,1-1.412-2.893,2.247,2.247,0,0,1,2.87-1.424c17.705,6.069,32.855,14.5,43.806,24.376a2.3,2.3,0,0,1,.177,3.222A2.245,2.245,0,0,1,826.874,368.851Z" transform="translate(-781.585 -340.368)" fill="#adadad"/>
        </g>
        <g id="Group_571" data-name="Group 571" transform="translate(140.13 60.313)">
          <path id="Path_285" data-name="Path 285" d="M791.244,345.467a2.268,2.268,0,0,1-.534-.064,208.884,208.884,0,0,0-21.352-4.023q-2.173-.294-4.38-.55a2.276,2.276,0,0,1-1.99-2.526A2.248,2.248,0,0,1,765.5,336.3c1.5.171,2.988.358,4.466.559a212.633,212.633,0,0,1,21.812,4.111,2.282,2.282,0,0,1-.53,4.5Z" transform="translate(-762.974 -336.281)" fill="#adadad"/>
        </g>
        <g id="Group_572" data-name="Group 572" transform="translate(212.561 98.622)">
          <path id="Path_286" data-name="Path 286" d="M810.918,368.138a2.238,2.238,0,0,1-1.537-.6,93.631,93.631,0,0,0-13.357-10.251,2.3,2.3,0,0,1-.7-3.151,2.255,2.255,0,0,1,3.126-.705,98.246,98.246,0,0,1,14,10.755,2.293,2.293,0,0,1,.127,3.224A2.252,2.252,0,0,1,810.918,368.138Z" transform="translate(-794.973 -353.071)" fill="#adadad"/>
        </g>
        <g id="Group_573" data-name="Group 573" transform="translate(163.635 79.029)">
          <path id="Path_287" data-name="Path 287" d="M818.634,365.109a2.217,2.217,0,0,1-1.1-.287q-2.468-1.379-5.07-2.683a198.346,198.346,0,0,0-18.622-7.794,184.755,184.755,0,0,0-18.728-5.35,2.282,2.282,0,0,1-1.7-2.733,2.258,2.258,0,0,1,2.709-1.716,189.323,189.323,0,0,1,19.206,5.489,198.252,198.252,0,0,1,19.147,8.017q2.7,1.348,5.258,2.781a2.287,2.287,0,0,1,.878,3.1A2.253,2.253,0,0,1,818.634,365.109Z" transform="translate(-773.358 -344.484)" fill="#adadad"/>
        </g>
        <g id="Group_574" data-name="Group 574" transform="translate(0 100.412)">
          <path id="Path_288" data-name="Path 288" d="M703.328,367.13a2.245,2.245,0,0,1-1.664-.735,2.293,2.293,0,0,1,.131-3.224,95.745,95.745,0,0,1,11.254-8.923,2.253,2.253,0,0,1,3.144.611,2.29,2.29,0,0,1-.607,3.167,91.274,91.274,0,0,0-10.725,8.5A2.236,2.236,0,0,1,703.328,367.13Z" transform="translate(-701.065 -353.856)" fill="#adadad"/>
        </g>
        <g id="Group_575" data-name="Group 575" transform="translate(210.722 141.542)">
          <path id="Path_289" data-name="Path 289" d="M805.127,382.417a2.246,2.246,0,0,1-1.36-.461c-2.094-1.59-4.33-3.146-6.641-4.629l-1.924-1.241a2.3,2.3,0,0,1-.684-3.153,2.252,2.252,0,0,1,3.128-.687l1.915,1.237c2.4,1.54,4.74,3.167,6.929,4.83a2.292,2.292,0,0,1,.448,3.194A2.257,2.257,0,0,1,805.127,382.417Z" transform="translate(-794.16 -371.883)" fill="#adadad"/>
        </g>
        <g id="Group_576" data-name="Group 576" transform="translate(6.814 128.07)">
          <path id="Path_290" data-name="Path 290" d="M706.342,389.984a2.256,2.256,0,0,1-1.811-.91,2.292,2.292,0,0,1,.448-3.194c9.708-7.374,21.6-13.621,35.343-18.569.007,0,1.215-.433,3.579-1.216a2.257,2.257,0,0,1,2.857,1.458,2.284,2.284,0,0,1-1.446,2.877c-2.282.755-3.454,1.175-3.47,1.18-13.307,4.793-24.795,10.821-34.139,17.915A2.242,2.242,0,0,1,706.342,389.984Z" transform="translate(-704.076 -365.979)" fill="#adadad"/>
        </g>
        <g id="Group_577" data-name="Group 577" transform="translate(203.1 151.956)">
          <path id="Path_291" data-name="Path 291" d="M804.608,387.838a2.247,2.247,0,0,1-1.252-.383,118.035,118.035,0,0,0-11.335-6.694,2.291,2.291,0,0,1-.976-3.073,2.251,2.251,0,0,1,3.049-.983,121.87,121.87,0,0,1,11.773,6.954,2.291,2.291,0,0,1,.627,3.164A2.251,2.251,0,0,1,804.608,387.838Z" transform="translate(-790.793 -376.448)" fill="#adadad"/>
        </g>
        <g id="Group_578" data-name="Group 578" transform="translate(29.557 140.532)">
          <path id="Path_292" data-name="Path 292" d="M716.391,384.209a2.264,2.264,0,0,1-2.069-1.351,2.288,2.288,0,0,1,1.143-3.014c3.45-1.556,8.187-3.354,8.388-3.429,4.627-1.793,9.509-3.441,14.5-4.887a2.28,2.28,0,0,1,1.252,4.385c-4.864,1.41-9.62,3.014-14.142,4.766-.064.025-4.824,1.832-8.149,3.331A2.287,2.287,0,0,1,716.391,384.209Z" transform="translate(-714.124 -371.44)" fill="#adadad"/>
        </g>
        <g id="Group_579" data-name="Group 579" transform="translate(11.595 154.331)">
          <path id="Path_293" data-name="Path 293" d="M708.463,386.481a2.287,2.287,0,0,1-1.084-4.294c2.3-1.531,4.7-3.014,7.139-4.4a2.245,2.245,0,0,1,3.083.867,2.289,2.289,0,0,1-.858,3.108c-2.406,1.369-4.769,2.827-7.026,4.34A2.248,2.248,0,0,1,708.463,386.481Z" transform="translate(-706.188 -377.489)" fill="#adadad"/>
        </g>
        <g id="Group_580" data-name="Group 580" transform="translate(17.678 153.234)">
          <path id="Path_294" data-name="Path 294" d="M711.143,397.983a2.256,2.256,0,0,1-1.963-1.141,2.288,2.288,0,0,1,.828-3.117,155.8,155.8,0,0,1,34.822-14.6c.068-.018,5.084-1.307,8.126-2.051a2.254,2.254,0,0,1,2.734,1.677,2.285,2.285,0,0,1-1.666,2.756c-3.024.739-8.008,2.021-8.008,2.021a151.1,151.1,0,0,0-33.745,14.148A2.233,2.233,0,0,1,711.143,397.983Z" transform="translate(-708.876 -377.008)" fill="#adadad"/>
        </g>
        <g id="Group_581" data-name="Group 581" transform="translate(25.261 172.029)">
          <path id="Path_295" data-name="Path 295" d="M714.493,398.03a2.258,2.258,0,0,1-2.032-1.271,2.288,2.288,0,0,1,1.028-3.055c2.814-1.4,5.749-2.743,8.731-3.993.034-.014,7.592-3.03,10.919-4.317a2.263,2.263,0,0,1,2.925,1.312,2.287,2.287,0,0,1-1.3,2.948c-3.314,1.282-10.838,4.285-10.84,4.285-2.854,1.2-5.7,2.5-8.429,3.856A2.24,2.24,0,0,1,714.493,398.03Z" transform="translate(-712.225 -385.246)" fill="#adadad"/>
        </g>
        <g id="Group_582" data-name="Group 582" transform="translate(165.621 182.331)">
          <path id="Path_296" data-name="Path 296" d="M802.38,402.656a2.268,2.268,0,0,1-.856-.169c-2.694-1.111-5.5-2.174-8.327-3.16-.043-.016-9.785-3.142-13.19-4.025l-4.065-1.047a2.286,2.286,0,0,1-1.637-2.774,2.262,2.262,0,0,1,2.75-1.649l4.088,1.054c3.52.913,13.076,3.981,13.482,4.109,2.961,1.034,5.84,2.127,8.61,3.267a2.284,2.284,0,0,1-.855,4.394Z" transform="translate(-774.235 -389.761)" fill="#adadad"/>
        </g>
        <g id="Group_583" data-name="Group 583" transform="translate(155.15 194.803)">
          <path id="Path_297" data-name="Path 297" d="M796.065,405.893a2.3,2.3,0,0,1-.693-.11,192.961,192.961,0,0,0-23.912-6.026,2.282,2.282,0,0,1-1.813-2.66,2.248,2.248,0,0,1,2.64-1.828,197.816,197.816,0,0,1,24.471,6.169,2.284,2.284,0,0,1-.693,4.454Z" transform="translate(-769.609 -395.228)" fill="#adadad"/>
        </g>
        <g id="Group_584" data-name="Group 584" transform="translate(96.519 191.008)">
          <path id="Path_298" data-name="Path 298" d="M788.431,399.532a2.327,2.327,0,0,1-.249-.014,237.908,237.908,0,0,0-37.217-1.109l-4.835.347a2.282,2.282,0,0,1-.321-4.552l4.885-.349a240.916,240.916,0,0,1,37.98,1.127,2.282,2.282,0,0,1-.242,4.549Z" transform="translate(-743.706 -393.564)" fill="#adadad"/>
        </g>
        <g id="Group_585" data-name="Group 585" transform="translate(46.922 193.237)">
          <path id="Path_299" data-name="Path 299" d="M724.059,406.772a2.284,2.284,0,0,1-.693-4.454,203.267,203.267,0,0,1,34.166-7.753,2.281,2.281,0,0,1,.622,4.52,198.935,198.935,0,0,0-33.4,7.577A2.3,2.3,0,0,1,724.059,406.772Z" transform="translate(-721.795 -394.541)" fill="#adadad"/>
        </g>
        <g id="Group_586" data-name="Group 586" transform="translate(116.856 205.742)">
          <path id="Path_300" data-name="Path 300" d="M800.658,409.881a2.161,2.161,0,0,1-.5-.055,221.961,221.961,0,0,0-45.241-5.241,2.282,2.282,0,0,1,.034-4.563h.036a226.385,226.385,0,0,1,46.158,5.352,2.282,2.282,0,0,1-.491,4.506Z" transform="translate(-752.691 -400.022)" fill="#adadad"/>
        </g>
        <g id="Group_587" data-name="Group 587" transform="translate(63.695 206.182)">
          <path id="Path_301" data-name="Path 301" d="M731.48,409.633a2.284,2.284,0,0,1-.371-4.536,222.312,222.312,0,0,1,34.691-4.88,2.282,2.282,0,0,1,.278,4.556,217.827,217.827,0,0,0-34.1,4.8A2.119,2.119,0,0,1,731.48,409.633Z" transform="translate(-729.205 -400.215)" fill="#adadad"/>
        </g>
        <g id="Group_588" data-name="Group 588" transform="translate(95.251 220.403)">
          <path id="Path_302" data-name="Path 302" d="M745.409,411.673a2.282,2.282,0,0,1-.165-4.556,243.48,243.48,0,0,1,36.074,0,2.274,2.274,0,0,1,2.092,2.441,2.242,2.242,0,0,1-2.424,2.108,239.514,239.514,0,0,0-35.408,0C745.518,411.671,745.464,411.673,745.409,411.673Z" transform="translate(-743.146 -406.448)" fill="#adadad"/>
        </g>
        <g id="Group_589" data-name="Group 589" transform="translate(0.916 104.254)">
          <path id="Path_303" data-name="Path 303" d="M703.734,378.835a2.264,2.264,0,0,1-2.264-2.272v-.021a2.288,2.288,0,0,1,.754-1.7,110.1,110.1,0,0,1,24.9-16.541,48.18,48.18,0,0,1,5.324-2.574,2.257,2.257,0,0,1,2.977,1.189,2.292,2.292,0,0,1-1.182,3,43.719,43.719,0,0,0-4.812,2.309c-.066.041-.147.089-.215.123a105.97,105.97,0,0,0-23.883,15.809A2.252,2.252,0,0,1,703.734,378.835Z" transform="translate(-701.47 -355.54)" fill="#adadad"/>
        </g>
        <g id="Group_590" data-name="Group 590" transform="translate(0.96 81.855)">
          <path id="Path_304" data-name="Path 304" d="M703.752,361.989a2.245,2.245,0,0,1-1.686-.76,2.3,2.3,0,0,1,.177-3.222,95.985,95.985,0,0,1,16.549-11.976,2.25,2.25,0,0,1,3.092.83,2.294,2.294,0,0,1-.824,3.119,91.46,91.46,0,0,0-15.8,11.426A2.243,2.243,0,0,1,703.752,361.989Z" transform="translate(-701.49 -345.723)" fill="#adadad"/>
        </g>
        <g id="Group_591" data-name="Group 591" transform="translate(53.769 166.11)">
          <path id="Path_305" data-name="Path 305" d="M727.082,390.536a2.284,2.284,0,0,1-.6-4.481c3.755-1.052,8.868-2.275,14.031-3.356a2.282,2.282,0,0,1,.919,4.47c-5.068,1.059-10.075,2.259-13.74,3.285A2.331,2.331,0,0,1,727.082,390.536Z" transform="translate(-724.82 -382.651)" fill="#adadad"/>
        </g>
        <g id="Group_592" data-name="Group 592" transform="translate(176.678 170.76)">
          <path id="Path_306" data-name="Path 306" d="M805.708,398.766a2.233,2.233,0,0,1-1-.235,160.242,160.242,0,0,0-23.993-9.375,2.289,2.289,0,0,1-1.5-2.854,2.255,2.255,0,0,1,2.831-1.508,164.767,164.767,0,0,1,24.661,9.647,2.283,2.283,0,0,1,1.028,3.053A2.259,2.259,0,0,1,805.708,398.766Z" transform="translate(-779.12 -384.69)" fill="#adadad"/>
        </g>
        <g id="Group_593" data-name="Group 593" transform="translate(17.239 92.839)">
          <path id="Path_307" data-name="Path 307" d="M710.949,358.657a2.261,2.261,0,0,1-1.958-1.127,2.3,2.3,0,0,1,.81-3.123c2.707-1.6,4.137-2.377,6.659-3.632a2.253,2.253,0,0,1,3.031,1.036,2.289,2.289,0,0,1-1.028,3.055c-2.408,1.2-3.778,1.946-6.374,3.482A2.26,2.26,0,0,1,710.949,358.657Z" transform="translate(-708.681 -350.537)" fill="#adadad"/>
        </g>
      </g>
    </g>
  </g>
</svg>
