<svg xmlns="http://www.w3.org/2000/svg" width="43.825" height="42.51" viewBox="0 0 43.825 42.51">
  <g id="Group_24666" data-name="Group 24666" transform="translate(0 0)">
    <g id="Group_542" data-name="Group 542" transform="translate(36.131 19.218)">
      <path id="Path_256" data-name="Path 256" d="M792.207,359.366a.431.431,0,0,1-.318-.14,17.662,17.662,0,0,0-2.431-1.807,25.106,25.106,0,0,0-3.742-1.9l-.328-.133a.43.43,0,1,1,.319-.8l.327.132a25.544,25.544,0,0,1,3.877,1.972,18.52,18.52,0,0,1,2.583,1.925.431.431,0,0,1-.287.752Z" transform="translate(-785.117 -354.553)" fill="#c48e61"/>
    </g>
    <g id="Group_543" data-name="Group 543" transform="translate(35.771 30.149)">
      <path id="Path_257" data-name="Path 257" d="M788.551,382.66a.424.424,0,0,1-.215-.058,26.566,26.566,0,0,0-3.78-1.788.43.43,0,0,1,.308-.8,27.527,27.527,0,0,1,3.9,1.847.43.43,0,0,1-.216.8Z" transform="translate(-784.28 -379.983)" fill="#c48e61"/>
    </g>
    <g id="Group_544" data-name="Group 544" transform="translate(6.597 33.793)">
      <path id="Path_258" data-name="Path 258" d="M716.843,391.448a.43.43,0,0,1-.163-.828,35.05,35.05,0,0,1,5.994-1.815c.006,0,.922-.181,1.866-.34a.43.43,0,1,1,.143.848c-.933.156-1.837.335-1.837.335a34.125,34.125,0,0,0-5.841,1.769A.435.435,0,0,1,716.843,391.448Z" transform="translate(-716.412 -388.459)" fill="#c48e61"/>
    </g>
    <g id="Group_545" data-name="Group 545" transform="translate(40.652 24.345)">
      <path id="Path_259" data-name="Path 259" d="M797.757,368.56a.426.426,0,0,1-.273-.1c-.3-.25-.619-.5-.946-.73h0s-.309-.205-.706-.461a.43.43,0,0,1,.466-.723c.411.266.729.477.729.477.355.255.69.513,1.005.775a.43.43,0,0,1-.275.761Z" transform="translate(-795.635 -366.479)" fill="#c48e61"/>
    </g>
    <g id="Group_546" data-name="Group 546" transform="translate(36.517 22.154)">
      <path id="Path_260" data-name="Path 260" d="M789.134,363.537a.426.426,0,0,1-.208-.054,26.741,26.741,0,0,0-2.646-1.273.43.43,0,0,1,.331-.793,27.423,27.423,0,0,1,2.732,1.314.43.43,0,0,1-.208.806Z" transform="translate(-786.016 -361.384)" fill="#c48e61"/>
    </g>
    <g id="Group_547" data-name="Group 547" transform="translate(0.612 24.057)">
      <path id="Path_261" data-name="Path 261" d="M702.919,368.169a.43.43,0,0,1-.274-.761,19.658,19.658,0,0,1,2.125-1.532.43.43,0,1,1,.455.729,18.769,18.769,0,0,0-2.032,1.465A.43.43,0,0,1,702.919,368.169Z" transform="translate(-702.489 -365.81)" fill="#c48e61"/>
    </g>
    <g id="Group_548" data-name="Group 548" transform="translate(4.105 21.837)">
      <path id="Path_262" data-name="Path 262" d="M711.045,362.921a.43.43,0,0,1-.2-.811,32.252,32.252,0,0,1,3.137-1.436.43.43,0,0,1,.314.8,31.267,31.267,0,0,0-3.052,1.4A.425.425,0,0,1,711.045,362.921Z" transform="translate(-710.615 -360.645)" fill="#c48e61"/>
    </g>
    <g id="Group_549" data-name="Group 549" transform="translate(8.868 8.38)">
      <path id="Path_263" data-name="Path 263" d="M722.341,332.148a.645.645,0,0,1-.194-1.26q.366-.115.741-.224l1.251-.34c1.082-.274,2.2-.506,3.32-.691.674-.111,1.369-.208,2.064-.288a.645.645,0,0,1,.149,1.281c-.675.078-1.349.172-2,.28-1.088.179-2.165.4-3.2.665l-1.229.334c-.229.067-.467.139-.7.213A.647.647,0,0,1,722.341,332.148Z" transform="translate(-721.696 -329.34)" fill="#fff"/>
    </g>
    <g id="Group_550" data-name="Group 550" transform="translate(5.057 10.86)">
      <path id="Path_264" data-name="Path 264" d="M713.475,339.681a.645.645,0,0,1-.275-1.229c.7-.327,1.437-.638,2.2-.924l.041-.015.066-.025a41.254,41.254,0,0,1,14.178-2.379q.36,0,.719.005c.811.013,1.618.046,2.4.1a.645.645,0,0,1-.086,1.287c-.761-.052-1.546-.084-2.333-.1q-.348-.005-.7-.005a39.964,39.964,0,0,0-13.734,2.3l-.062.023c-.766.287-1.474.585-2.14.9A.641.641,0,0,1,713.475,339.681Z" transform="translate(-712.83 -335.109)" fill="#fff"/>
    </g>
    <g id="Group_551" data-name="Group 551" transform="translate(13.443 27.468)">
      <path id="Path_265" data-name="Path 265" d="M753.081,376.8a.66.66,0,0,1-.192-.029,41.26,41.26,0,0,0-12.082-1.741c-1.462,0-2.928.071-4.357.211q-.444.044-.885.1c-.833.1-1.664.224-2.469.37a.645.645,0,0,1-.23-1.269c.83-.15,1.687-.279,2.546-.382q.453-.053.911-.1c1.471-.144,2.978-.217,4.483-.217a42.574,42.574,0,0,1,12.465,1.8.645.645,0,0,1-.191,1.261Z" transform="translate(-732.338 -373.746)" fill="#fff"/>
    </g>
    <g id="Group_552" data-name="Group 552" transform="translate(14.951 30.235)">
      <path id="Path_266" data-name="Path 266" d="M752.557,382.555a.65.65,0,0,1-.143-.016c-1.083-.247-2.4-.479-2.416-.481a43.547,43.547,0,0,0-7.19-.587c-.885,0-1.776.026-2.648.077-.178.011-.355.022-.533.035-1.022.072-2.046.181-3.043.324a.645.645,0,1,1-.182-1.277c1.028-.147,2.082-.258,3.134-.333q.272-.019.548-.036c.9-.053,1.815-.08,2.725-.08a44.853,44.853,0,0,1,7.408.605c.06.01,1.368.241,2.483.494a.645.645,0,0,1-.142,1.274Z" transform="translate(-735.847 -380.182)" fill="#fff"/>
    </g>
    <g id="Group_553" data-name="Group 553" transform="translate(16.533 33.006)">
      <path id="Path_267" data-name="Path 267" d="M752.531,388.568a.669.669,0,0,1-.113-.009c-.6-.105-1.206-.2-1.809-.277a44.9,44.9,0,0,0-6.6-.355c-1.264.025-2.534.1-3.772.234a.645.645,0,1,1-.135-1.283c1.275-.134,2.581-.215,3.882-.241a46.135,46.135,0,0,1,6.79.367c.623.08,1.251.177,1.867.285a.645.645,0,0,1-.111,1.28Z" transform="translate(-739.526 -386.628)" fill="#fff"/>
    </g>
    <g id="Group_554" data-name="Group 554" transform="translate(7.677 16.397)">
      <path id="Path_268" data-name="Path 268" d="M719.57,351.491a.645.645,0,0,1-.229-1.247l.143-.055c.836-.294,1.694-.559,2.566-.793h0l.088-.023h0a42.988,42.988,0,0,1,11.017-1.381,43.614,43.614,0,0,1,9.972,1.119c.912.214,1.81.462,2.671.734a.645.645,0,1,1-.389,1.229c-.83-.263-1.7-.5-2.577-.708a42.331,42.331,0,0,0-9.677-1.085,41.677,41.677,0,0,0-10.688,1.338h0l-.083.022c-.843.226-1.67.481-2.462.76l-.127.049A.643.643,0,0,1,719.57,351.491Z" transform="translate(-718.925 -347.991)" fill="#fff"/>
    </g>
    <g id="Group_555" data-name="Group 555" transform="translate(10.505 21.93)">
      <path id="Path_269" data-name="Path 269" d="M753.675,365.707a.644.644,0,0,1-.287-.068,37.74,37.74,0,0,0-16.477-3.487,43.411,43.411,0,0,0-7.557.65l-.1.017c-.6.108-1.2.23-1.777.362q-.593.136-1.168.287a.645.645,0,1,1-.328-1.247q.6-.157,1.209-.3c.6-.138,1.219-.264,1.841-.375l.057-.01a44.779,44.779,0,0,1,7.82-.677,39.041,39.041,0,0,1,17.052,3.622.645.645,0,0,1-.288,1.222Z" transform="translate(-725.504 -360.863)" fill="#fff"/>
    </g>
    <g id="Group_556" data-name="Group 556" transform="translate(11.939 24.701)">
      <path id="Path_270" data-name="Path 270" d="M754.141,371.529a.641.641,0,0,1-.255-.053,38.632,38.632,0,0,0-15.172-2.877,44.292,44.292,0,0,0-5.683.362.623.623,0,0,1-.124.03q-.766.1-1.513.233c-.587.1-1.183.22-1.77.349a.645.645,0,1,1-.278-1.26c.606-.134,1.221-.255,1.828-.36.427-.074.873-.144,1.329-.208a.625.625,0,0,1,.131-.032,45.459,45.459,0,0,1,6.08-.4,39.928,39.928,0,0,1,15.683,2.983.645.645,0,0,1-.256,1.237Z" transform="translate(-728.84 -367.309)" fill="#fff"/>
    </g>
    <g id="Group_557" data-name="Group 557" transform="translate(6.301 13.627)">
      <path id="Path_271" data-name="Path 271" d="M716.368,345.572a.645.645,0,0,1-.226-1.249l1.914-.716c.217-.073.414-.138.612-.2.214-.068.429-.134.646-.2a42.922,42.922,0,0,1,12.02-1.663,45.848,45.848,0,0,1,5.4.317c.721.086,1.435.19,2.123.307a.645.645,0,1,1-.218,1.271c-.667-.114-1.359-.215-2.058-.3a44.639,44.639,0,0,0-5.249-.307,41.612,41.612,0,0,0-11.652,1.609c-.209.062-.418.126-.625.192q-.288.092-.572.187l-1.892.708A.64.64,0,0,1,716.368,345.572Z" transform="translate(-715.723 -341.546)" fill="#fff"/>
    </g>
    <g id="Group_558" data-name="Group 558" transform="translate(9.121 19.16)">
      <path id="Path_272" data-name="Path 272" d="M748.13,357.742a.644.644,0,0,1-.207-.034,40.557,40.557,0,0,0-12.858-2,41.255,41.255,0,0,0-11.948,1.706.645.645,0,0,1-.379-1.232,42.554,42.554,0,0,1,12.326-1.763,41.868,41.868,0,0,1,13.272,2.069.645.645,0,0,1-.207,1.256Z" transform="translate(-722.283 -354.418)" fill="#fff"/>
    </g>
    <g id="Group_559" data-name="Group 559" transform="translate(24.536 0.101)">
      <path id="Path_273" data-name="Path 273" d="M758.94,310.966h-.031l-.362-.025a.43.43,0,0,1-.4-.457.436.436,0,0,1,.457-.4l.367.026a.43.43,0,0,1-.031.858Z" transform="translate(-758.145 -310.081)" fill="#adadad"/>
    </g>
    <g id="Group_560" data-name="Group 560" transform="translate(17.752)">
      <path id="Path_274" data-name="Path 274" d="M742.792,310.857a.43.43,0,0,1-.035-.858,46.516,46.516,0,0,1,6.847-.051.43.43,0,0,1,.4.457.436.436,0,0,1-.457.4,45.41,45.41,0,0,0-6.721.05Z" transform="translate(-742.363 -309.846)" fill="#adadad"/>
    </g>
    <g id="Group_561" data-name="Group 561" transform="translate(20.112 2.772)">
      <path id="Path_275" data-name="Path 275" d="M757.139,317.774a.41.41,0,0,1-.075-.007c-.566-.1-1.083-.177-1.536-.23a43.038,43.038,0,0,0-6.606-.375c-.213,0-.425.009-.636.01h0a.43.43,0,0,1,0-.86c.207,0,.415-.006.622-.01a44.363,44.363,0,0,1,6.731.382c.462.054,1,.133,1.579.236a.43.43,0,0,1-.074.853Z" transform="translate(-747.853 -316.294)" fill="#adadad"/>
    </g>
    <g id="Group_562" data-name="Group 562" transform="translate(30.785 3.753)">
      <path id="Path_276" data-name="Path 276" d="M777.921,320.854a.426.426,0,0,1-.151-.028,34.442,34.442,0,0,0-4.517-1.346l-.234-.053a.43.43,0,1,1,.184-.839l.244.055a35.393,35.393,0,0,1,4.626,1.379.43.43,0,0,1-.152.832Z" transform="translate(-772.681 -318.577)" fill="#adadad"/>
    </g>
    <g id="Group_563" data-name="Group 563" transform="translate(9.255 2.86)">
      <path id="Path_277" data-name="Path 277" d="M723.026,319.024a.43.43,0,0,1-.127-.84,39.673,39.673,0,0,1,7.234-1.488c.021,0,.823-.118,1.952-.2a.437.437,0,0,1,.459.4.431.431,0,0,1-.4.459c-1.1.076-1.895.19-1.9.191A38.865,38.865,0,0,0,723.153,319,.442.442,0,0,1,723.026,319.024Z" transform="translate(-722.596 -316.499)" fill="#adadad"/>
    </g>
    <g id="Group_564" data-name="Group 564" transform="translate(25.421 5.726)">
      <path id="Path_278" data-name="Path 278" d="M771.521,326.516a.427.427,0,0,1-.162-.032,36.1,36.1,0,0,0-8.733-2.254s-.9-.108-2.031-.205a.429.429,0,0,1-.391-.465.423.423,0,0,1,.465-.391c1.146.1,2.057.208,2.066.209a36.959,36.959,0,0,1,8.947,2.31.43.43,0,0,1-.162.828Z" transform="translate(-760.202 -323.166)" fill="#adadad"/>
    </g>
    <g id="Group_565" data-name="Group 565" transform="translate(15.494 5.538)">
      <path id="Path_279" data-name="Path 279" d="M737.539,323.984a.43.43,0,0,1-.057-.856,46.006,46.006,0,0,1,7.355-.383.43.43,0,1,1-.025.86,44.772,44.772,0,0,0-7.216.375A.443.443,0,0,1,737.539,323.984Z" transform="translate(-737.11 -322.728)" fill="#adadad"/>
    </g>
    <g id="Group_566" data-name="Group 566" transform="translate(4.717 6.221)">
      <path id="Path_280" data-name="Path 280" d="M712.469,328.045a.43.43,0,0,1-.192-.815,33.1,33.1,0,0,1,7.82-2.659s.831-.181,1.189-.246a.43.43,0,1,1,.154.845c-.349.064-1.161.241-1.161.241A32.21,32.21,0,0,0,712.66,328,.422.422,0,0,1,712.469,328.045Z" transform="translate(-712.039 -324.317)" fill="#adadad"/>
    </g>
    <g id="Group_567" data-name="Group 567" transform="translate(29.415 9)">
      <path id="Path_281" data-name="Path 281" d="M781.435,336.057a.425.425,0,0,1-.241-.074,26.269,26.269,0,0,0-6.757-3.193,33.877,33.877,0,0,0-4.586-1.155.43.43,0,0,1,.15-.846,34.682,34.682,0,0,1,4.7,1.184,27.135,27.135,0,0,1,6.974,3.3.43.43,0,0,1-.242.785Z" transform="translate(-769.495 -330.782)" fill="#adadad"/>
    </g>
    <g id="Group_568" data-name="Group 568" transform="translate(18.424 8.305)">
      <path id="Path_282" data-name="Path 282" d="M752.713,330.334a.415.415,0,0,1-.051,0,44.47,44.47,0,0,0-4.924-.306c-.008,0-1.091,0-2.211.046l-1.151.058a.43.43,0,0,1-.043-.859l1.156-.058c1.141-.045,2.241-.047,2.252-.047a45.578,45.578,0,0,1,5.023.311.43.43,0,0,1-.05.857Z" transform="translate(-743.925 -329.166)" fill="#adadad"/>
    </g>
    <g id="Group_569" data-name="Group 569" transform="translate(1.424 10.827)">
      <path id="Path_283" data-name="Path 283" d="M704.808,338.918a.43.43,0,0,1-.256-.775,24.718,24.718,0,0,1,5.726-3.08.43.43,0,0,1,.312.8,23.887,23.887,0,0,0-5.527,2.97A.426.426,0,0,1,704.808,338.918Z" transform="translate(-704.378 -335.033)" fill="#adadad"/>
    </g>
    <g id="Group_570" data-name="Group 570" transform="translate(34.612 13.12)">
      <path id="Path_284" data-name="Path 284" d="M790.186,345.734a.428.428,0,0,1-.287-.11,23.416,23.416,0,0,0-8.022-4.42.43.43,0,1,1,.277-.813,24.257,24.257,0,0,1,8.319,4.593.43.43,0,0,1-.287.75Z" transform="translate(-781.585 -340.368)" fill="#adadad"/>
    </g>
    <g id="Group_571" data-name="Group 571" transform="translate(26.612 11.364)">
      <path id="Path_285" data-name="Path 285" d="M768.342,338.012a.432.432,0,0,1-.1-.012,39.949,39.949,0,0,0-4.055-.758q-.413-.055-.832-.1a.43.43,0,1,1,.1-.854c.284.032.567.067.848.105a40.653,40.653,0,0,1,4.142.775.43.43,0,0,1-.1.847Z" transform="translate(-762.973 -336.281)" fill="#adadad"/>
    </g>
    <g id="Group_572" data-name="Group 572" transform="translate(40.367 18.581)">
      <path id="Path_286" data-name="Path 286" d="M798,355.91a.427.427,0,0,1-.292-.114,17.76,17.76,0,0,0-2.537-1.931.43.43,0,0,1,.461-.726,18.632,18.632,0,0,1,2.659,2.026.43.43,0,0,1-.291.745Z" transform="translate(-794.972 -353.071)" fill="#adadad"/>
    </g>
    <g id="Group_573" data-name="Group 573" transform="translate(31.076 14.89)">
      <path id="Path_287" data-name="Path 287" d="M781.956,348.37a.423.423,0,0,1-.208-.054q-.469-.26-.963-.505a37.826,37.826,0,0,0-3.536-1.468,35.276,35.276,0,0,0-3.557-1.008.43.43,0,0,1,.191-.838,36.187,36.187,0,0,1,3.647,1.034,37.828,37.828,0,0,1,3.636,1.511q.512.254,1,.524a.43.43,0,0,1-.209.806Z" transform="translate(-773.358 -344.484)" fill="#adadad"/>
    </g>
    <g id="Group_574" data-name="Group 574" transform="translate(0 18.918)">
      <path id="Path_288" data-name="Path 288" d="M701.495,356.357a.43.43,0,0,1-.291-.746,18.169,18.169,0,0,1,2.137-1.681.43.43,0,1,1,.482.712,17.331,17.331,0,0,0-2.037,1.6A.426.426,0,0,1,701.495,356.357Z" transform="translate(-701.065 -353.856)" fill="#adadad"/>
    </g>
    <g id="Group_575" data-name="Group 575" transform="translate(40.018 26.668)">
      <path id="Path_289" data-name="Path 289" d="M796.243,373.868a.429.429,0,0,1-.258-.087c-.4-.3-.822-.593-1.261-.872l-.365-.234a.43.43,0,1,1,.464-.723l.364.233c.456.29.9.6,1.316.91a.43.43,0,0,1-.259.773Z" transform="translate(-794.16 -371.883)" fill="#adadad"/>
    </g>
    <g id="Group_576" data-name="Group 576" transform="translate(1.294 24.129)">
      <path id="Path_290" data-name="Path 290" d="M704.506,370.5a.43.43,0,0,1-.259-.773,25.239,25.239,0,0,1,6.712-3.5s.231-.082.68-.229a.43.43,0,1,1,.268.817c-.433.142-.656.221-.659.222a24.412,24.412,0,0,0-6.483,3.375A.428.428,0,0,1,704.506,370.5Z" transform="translate(-704.076 -365.979)" fill="#adadad"/>
    </g>
    <g id="Group_577" data-name="Group 577" transform="translate(38.57 28.63)">
      <path id="Path_291" data-name="Path 291" d="M793.416,378.594a.429.429,0,0,1-.238-.072,22.45,22.45,0,0,0-2.153-1.261.43.43,0,0,1,.394-.764,23.191,23.191,0,0,1,2.236,1.31.43.43,0,0,1-.239.788Z" transform="translate(-790.793 -376.448)" fill="#adadad"/>
    </g>
    <g id="Group_578" data-name="Group 578" transform="translate(5.613 26.477)">
      <path id="Path_292" data-name="Path 292" d="M714.554,373.846a.43.43,0,0,1-.176-.822c.655-.293,1.555-.632,1.593-.646.879-.338,1.806-.648,2.753-.921a.43.43,0,0,1,.238.826c-.924.266-1.827.568-2.686.9-.012,0-.916.345-1.548.628A.437.437,0,0,1,714.554,373.846Z" transform="translate(-714.123 -371.44)" fill="#adadad"/>
    </g>
    <g id="Group_579" data-name="Group 579" transform="translate(2.202 29.077)">
      <path id="Path_293" data-name="Path 293" d="M706.62,379.183a.43.43,0,0,1-.206-.809c.436-.288.892-.568,1.356-.829a.43.43,0,0,1,.423.749c-.457.258-.906.533-1.334.818A.429.429,0,0,1,706.62,379.183Z" transform="translate(-706.188 -377.488)" fill="#adadad"/>
    </g>
    <g id="Group_580" data-name="Group 580" transform="translate(3.357 28.87)">
      <path id="Path_294" data-name="Path 294" d="M709.306,380.96a.43.43,0,0,1-.215-.8,29.718,29.718,0,0,1,6.613-2.751c.013,0,.965-.246,1.543-.386a.43.43,0,1,1,.2.835c-.574.139-1.521.381-1.521.381a28.816,28.816,0,0,0-6.408,2.666A.426.426,0,0,1,709.306,380.96Z" transform="translate(-708.875 -377.008)" fill="#adadad"/>
    </g>
    <g id="Group_581" data-name="Group 581" transform="translate(4.797 32.412)">
      <path id="Path_295" data-name="Path 295" d="M712.656,387.654a.43.43,0,0,1-.191-.815c.534-.264,1.092-.517,1.658-.752.007,0,1.442-.571,2.074-.813a.43.43,0,0,1,.308.8c-.629.242-2.058.807-2.059.807-.542.226-1.083.471-1.6.726A.428.428,0,0,1,712.656,387.654Z" transform="translate(-712.225 -385.246)" fill="#adadad"/>
    </g>
    <g id="Group_582" data-name="Group 582" transform="translate(31.453 34.353)">
      <path id="Path_296" data-name="Path 296" d="M779.58,392.191a.434.434,0,0,1-.162-.032c-.511-.209-1.044-.41-1.581-.6-.008,0-1.858-.592-2.5-.758l-.772-.2a.43.43,0,0,1,.211-.833l.776.2c.668.172,2.483.75,2.56.774.562.195,1.109.4,1.635.616a.43.43,0,0,1-.163.828Z" transform="translate(-774.235 -389.761)" fill="#adadad"/>
    </g>
    <g id="Group_583" data-name="Group 583" transform="translate(29.464 36.702)">
      <path id="Path_297" data-name="Path 297" d="M774.633,397.237a.439.439,0,0,1-.132-.021,36.886,36.886,0,0,0-4.541-1.135.43.43,0,1,1,.157-.846,37.791,37.791,0,0,1,4.647,1.162.43.43,0,0,1-.131.839Z" transform="translate(-769.609 -395.228)" fill="#adadad"/>
    </g>
    <g id="Group_584" data-name="Group 584" transform="translate(18.33 35.987)">
      <path id="Path_298" data-name="Path 298" d="M752.2,394.689l-.047,0a45.534,45.534,0,0,0-7.068-.209l-.918.065a.43.43,0,0,1-.061-.858l.928-.066a46.113,46.113,0,0,1,7.213.212.43.43,0,0,1-.046.857Z" transform="translate(-743.706 -393.564)" fill="#adadad"/>
    </g>
    <g id="Group_585" data-name="Group 585" transform="translate(8.911 36.407)">
      <path id="Path_299" data-name="Path 299" d="M722.225,396.846a.43.43,0,0,1-.132-.839,38.866,38.866,0,0,1,6.488-1.461.43.43,0,1,1,.118.852,38.035,38.035,0,0,0-6.343,1.428A.44.44,0,0,1,722.225,396.846Z" transform="translate(-721.795 -394.541)" fill="#adadad"/>
    </g>
    <g id="Group_586" data-name="Group 586" transform="translate(22.192 38.763)">
      <path id="Path_300" data-name="Path 300" d="M761.8,401.879a.413.413,0,0,1-.094-.01,42.47,42.47,0,0,0-8.592-.987.43.43,0,0,1,.007-.86h.007a43.324,43.324,0,0,1,8.766,1.008.43.43,0,0,1-.093.849Z" transform="translate(-752.691 -400.022)" fill="#adadad"/>
    </g>
    <g id="Group_587" data-name="Group 587" transform="translate(12.096 38.846)">
      <path id="Path_301" data-name="Path 301" d="M729.637,401.989a.43.43,0,0,1-.071-.855,42.53,42.53,0,0,1,6.588-.919.43.43,0,1,1,.053.858,41.681,41.681,0,0,0-6.477.905A.4.4,0,0,1,729.637,401.989Z" transform="translate(-729.205 -400.215)" fill="#adadad"/>
    </g>
    <g id="Group_588" data-name="Group 588" transform="translate(18.089 41.526)">
      <path id="Path_302" data-name="Path 302" d="M743.576,407.432a.43.43,0,0,1-.031-.858,46.6,46.6,0,0,1,6.851,0,.43.43,0,0,1,.4.46.425.425,0,0,1-.46.4,45.842,45.842,0,0,0-6.724,0Z" transform="translate(-743.146 -406.448)" fill="#adadad"/>
    </g>
    <g id="Group_589" data-name="Group 589" transform="translate(0.174 19.642)">
      <path id="Path_303" data-name="Path 303" d="M701.9,359.929a.428.428,0,0,1-.43-.428v0a.429.429,0,0,1,.143-.32,20.925,20.925,0,0,1,4.729-3.117,9.178,9.178,0,0,1,1.011-.485.43.43,0,1,1,.341.789,8.357,8.357,0,0,0-.914.435l-.041.023A20.132,20.132,0,0,0,702.2,359.8.429.429,0,0,1,701.9,359.929Z" transform="translate(-701.47 -355.54)" fill="#adadad"/>
    </g>
    <g id="Group_590" data-name="Group 590" transform="translate(0.182 15.422)">
      <path id="Path_304" data-name="Path 304" d="M701.919,348.787a.43.43,0,0,1-.287-.75,18.225,18.225,0,0,1,3.143-2.256.43.43,0,0,1,.431.744,17.359,17.359,0,0,0-3,2.153A.428.428,0,0,1,701.919,348.787Z" transform="translate(-701.489 -345.723)" fill="#adadad"/>
    </g>
    <g id="Group_591" data-name="Group 591" transform="translate(10.211 31.296)">
      <path id="Path_305" data-name="Path 305" d="M725.249,384.137a.43.43,0,0,1-.114-.844c.713-.2,1.684-.429,2.665-.632a.43.43,0,1,1,.175.842c-.963.2-1.913.426-2.609.619A.442.442,0,0,1,725.249,384.137Z" transform="translate(-724.82 -382.651)" fill="#adadad"/>
    </g>
    <g id="Group_592" data-name="Group 592" transform="translate(33.553 32.172)">
      <path id="Path_306" data-name="Path 306" d="M784.169,387.342a.428.428,0,0,1-.19-.044,30.57,30.57,0,0,0-4.556-1.766.43.43,0,1,1,.254-.822,31.431,31.431,0,0,1,4.683,1.817.43.43,0,0,1-.191.815Z" transform="translate(-779.12 -384.69)" fill="#adadad"/>
    </g>
    <g id="Group_593" data-name="Group 593" transform="translate(3.274 17.492)">
      <path id="Path_307" data-name="Path 307" d="M709.112,352.067a.43.43,0,0,1-.218-.8c.514-.3.786-.448,1.265-.684a.43.43,0,0,1,.38.771c-.457.226-.717.367-1.21.656A.432.432,0,0,1,709.112,352.067Z" transform="translate(-708.681 -350.537)" fill="#adadad"/>
    </g>
  </g>
</svg>
