<svg xmlns="http://www.w3.org/2000/svg" width="101.951" height="98.893" viewBox="0 0 101.951 98.893">
  <g id="logo-icon" transform="translate(-701.065 -309.846)">
    <g id="Group_542" data-name="Group 542">
      <path id="Path_256" data-name="Path 256" d="M801.611,365.749a1,1,0,0,1-.741-.326,41.086,41.086,0,0,0-5.655-4.2,58.4,58.4,0,0,0-8.7-4.428l-.764-.31a1,1,0,1,1,.742-1.857l.761.308a59.449,59.449,0,0,1,9.02,4.588A43.1,43.1,0,0,1,802.278,364a1,1,0,0,1-.667,1.75Z" fill="#c48e61"/>
    </g>
    <g id="Group_543" data-name="Group 543">
      <path id="Path_257" data-name="Path 257" d="M794.215,386.211a.986.986,0,0,1-.5-.135,61.8,61.8,0,0,0-8.793-4.159,1,1,0,0,1,.717-1.868,64.024,64.024,0,0,1,9.078,4.3,1,1,0,0,1-.5,1.866Z" fill="#c48e61"/>
    </g>
    <g id="Group_544" data-name="Group 544">
      <path id="Path_258" data-name="Path 258" d="M717.413,395.413a1,1,0,0,1-.379-1.926,81.544,81.544,0,0,1,13.945-4.223c.013,0,2.145-.422,4.342-.792a1,1,0,1,1,.332,1.973c-2.17.364-4.274.779-4.274.779a79.374,79.374,0,0,0-13.587,4.115A1.014,1.014,0,0,1,717.413,395.413Z" fill="#c48e61"/>
    </g>
    <g id="Group_545" data-name="Group 545">
      <path id="Path_259" data-name="Path 259" d="M800.573,371.32a.99.99,0,0,1-.636-.23c-.7-.581-1.441-1.152-2.2-1.7h0s-.719-.477-1.643-1.072a1,1,0,0,1,1.084-1.682c.956.618,1.7,1.109,1.7,1.109.827.594,1.6,1.194,2.339,1.8a1,1,0,0,1-.639,1.771Z" fill="#c48e61"/>
    </g>
    <g id="Group_546" data-name="Group 546">
      <path id="Path_260" data-name="Path 260" d="M793.271,366.393a.993.993,0,0,1-.484-.125,62.2,62.2,0,0,0-6.156-2.962,1,1,0,0,1,.769-1.845,63.8,63.8,0,0,1,6.356,3.057,1,1,0,0,1-.485,1.875Z" fill="#c48e61"/>
    </g>
    <g id="Group_547" data-name="Group 547">
      <path id="Path_261" data-name="Path 261" d="M703.49,371.3a1,1,0,0,1-.638-1.771,45.731,45.731,0,0,1,4.943-3.565,1,1,0,0,1,1.059,1.7,43.655,43.655,0,0,0-4.727,3.409A1,1,0,0,1,703.49,371.3Z" fill="#c48e61"/>
    </g>
    <g id="Group_548" data-name="Group 548">
      <path id="Path_262" data-name="Path 262" d="M711.616,365.94a1,1,0,0,1-.465-1.886,75.036,75.036,0,0,1,7.3-3.34,1,1,0,1,1,.731,1.861,72.751,72.751,0,0,0-7.1,3.251A.99.99,0,0,1,711.616,365.94Z" fill="#c48e61"/>
    </g>
    <g id="Group_549" data-name="Group 549">
      <path id="Path_263" data-name="Path 263" d="M723.2,335.872a1.5,1.5,0,0,1-.451-2.931q.852-.269,1.723-.522l2.911-.791c2.517-.638,5.107-1.176,7.723-1.607,1.568-.258,3.184-.483,4.8-.671a1.5,1.5,0,0,1,.346,2.981c-1.57.181-3.139.4-4.661.651-2.531.416-5.037.937-7.447,1.547l-2.86.777c-.532.156-1.087.324-1.634.5A1.5,1.5,0,0,1,723.2,335.872Z" fill="#005f54"/>
    </g>
    <g id="Group_550" data-name="Group 550">
      <path id="Path_264" data-name="Path 264" d="M714.331,345.744a1.5,1.5,0,0,1-.639-2.858c1.622-.761,3.344-1.485,5.117-2.15l.1-.035.154-.057a95.969,95.969,0,0,1,32.982-5.535q.838,0,1.672.012c1.886.03,3.764.107,5.584.229a1.5,1.5,0,0,1-.2,2.994c-1.77-.12-3.6-.2-5.428-.223q-.809-.012-1.627-.012a92.97,92.97,0,0,0-31.95,5.352l-.145.053c-1.782.668-3.428,1.361-4.978,2.087A1.492,1.492,0,0,1,714.331,345.744Z" fill="#005f54"/>
    </g>
    <g id="Group_551" data-name="Group 551">
      <path id="Path_265" data-name="Path 265" d="M780.594,380.862a1.537,1.537,0,0,1-.446-.067,95.984,95.984,0,0,0-28.107-4.049c-3.4,0-6.812.165-10.135.491q-1.034.1-2.058.223c-1.939.232-3.871.521-5.743.86a1.5,1.5,0,0,1-.535-2.951c1.931-.35,3.924-.649,5.923-.888q1.055-.124,2.119-.23c3.421-.335,6.929-.505,10.429-.505a99.039,99.039,0,0,1,29,4.183,1.5,1.5,0,0,1-.445,2.933Z" fill="#005f54"/>
    </g>
    <g id="Group_552" data-name="Group 552">
      <path id="Path_266" data-name="Path 266" d="M774.72,385.7a1.515,1.515,0,0,1-.333-.037c-2.52-.574-5.589-1.115-5.619-1.119a101.3,101.3,0,0,0-16.727-1.365c-2.058,0-4.131.061-6.161.179-.414.025-.827.051-1.24.081-2.377.168-4.759.421-7.08.753a1.5,1.5,0,1,1-.424-2.971c2.391-.341,4.844-.6,7.29-.774q.633-.045,1.276-.083c2.091-.123,4.223-.185,6.339-.185a104.361,104.361,0,0,1,17.234,1.408c.14.024,3.183.561,5.776,1.15a1.5,1.5,0,0,1-.331,2.963Z" fill="#005f54"/>
    </g>
    <g id="Group_553" data-name="Group 553">
      <path id="Path_267" data-name="Path 267" d="M769.781,391.141a1.552,1.552,0,0,1-.262-.022c-1.389-.245-2.8-.461-4.209-.644a104.445,104.445,0,0,0-15.35-.827c-2.941.058-5.9.24-8.776.544a1.5,1.5,0,1,1-.315-2.984c2.967-.312,6.005-.5,9.032-.56a107.331,107.331,0,0,1,15.795.853c1.449.187,2.91.411,4.344.663a1.5,1.5,0,0,1-.259,2.977Z" fill="#005f54"/>
    </g>
    <g id="Group_554" data-name="Group 554">
      <path id="Path_268" data-name="Path 268" d="M720.426,356.133a1.5,1.5,0,0,1-.534-2.9l.333-.127c1.944-.684,3.94-1.3,5.97-1.845h.007c.069-.017.137-.036.2-.054h0a100,100,0,0,1,25.63-3.212,101.464,101.464,0,0,1,23.2,2.6c2.121.5,4.211,1.074,6.214,1.707a1.5,1.5,0,1,1-.906,2.86c-1.93-.611-3.947-1.165-5.995-1.647a98.479,98.479,0,0,0-22.512-2.524,96.952,96.952,0,0,0-24.864,3.113h0l-.193.051c-1.96.525-3.886,1.12-5.727,1.767l-.3.113A1.5,1.5,0,0,1,720.426,356.133Z" fill="#005f54"/>
    </g>
    <g id="Group_555" data-name="Group 555">
      <path id="Path_269" data-name="Path 269" d="M791.04,372.132a1.5,1.5,0,0,1-.668-.158c-10.5-5.23-24.108-8.111-38.331-8.111a100.989,100.989,0,0,0-17.579,1.512l-.224.04c-1.393.251-2.788.535-4.134.842q-1.379.316-2.718.667a1.5,1.5,0,0,1-.764-2.9q1.386-.366,2.812-.69c1.393-.32,2.835-.613,4.283-.873l.132-.024a104.168,104.168,0,0,1,18.192-1.574c14.678,0,28.766,2.992,39.669,8.426a1.5,1.5,0,0,1-.67,2.843Z" fill="#005f54"/>
    </g>
    <g id="Group_556" data-name="Group 556">
      <path id="Path_270" data-name="Path 270" d="M787.7,377.125A1.492,1.492,0,0,1,787.1,377c-10.134-4.378-22.338-6.693-35.294-6.693a103.029,103.029,0,0,0-13.22.842,1.451,1.451,0,0,1-.289.069q-1.782.243-3.519.542c-1.366.238-2.751.511-4.118.813a1.5,1.5,0,1,1-.646-2.93c1.41-.311,2.84-.594,4.252-.838.994-.173,2.032-.336,3.092-.485a1.461,1.461,0,0,1,.3-.074,105.764,105.764,0,0,1,14.143-.939c13.361,0,25.977,2.4,36.484,6.939a1.5,1.5,0,0,1-.6,2.877Z" fill="#005f54"/>
    </g>
    <g id="Group_557" data-name="Group 557">
      <path id="Path_271" data-name="Path 271" d="M717.224,350.912a1.5,1.5,0,0,1-.526-2.9l4.452-1.665c.505-.169.963-.32,1.424-.465.5-.159,1-.312,1.5-.463a99.849,99.849,0,0,1,27.963-3.868,106.663,106.663,0,0,1,12.566.737c1.677.2,3.338.441,4.938.715a1.5,1.5,0,1,1-.506,2.957c-1.551-.266-3.161-.5-4.788-.694a103.839,103.839,0,0,0-12.21-.715,96.809,96.809,0,0,0-27.107,3.744c-.486.144-.972.294-1.453.446q-.669.213-1.33.435l-4.4,1.646A1.491,1.491,0,0,1,717.224,350.912Z" fill="#005f54"/>
    </g>
    <g id="Group_558" data-name="Group 558">
      <path id="Path_272" data-name="Path 272" d="M782.412,362.151a1.5,1.5,0,0,1-.481-.079,94.348,94.348,0,0,0-29.913-4.654,95.973,95.973,0,0,0-27.794,3.968,1.5,1.5,0,1,1-.881-2.867,98.99,98.99,0,0,1,28.675-4.1,97.4,97.4,0,0,1,30.876,4.812,1.5,1.5,0,0,1-.482,2.921Z" fill="#005f54"/>
    </g>
    <g id="Group_559" data-name="Group 559">
      <path id="Path_273" data-name="Path 273" d="M759.994,312.139c-.024,0-.049,0-.073,0l-.841-.058a1,1,0,0,1-.933-1.064,1.015,1.015,0,0,1,1.064-.932l.854.06a1,1,0,0,1-.071,2Z" fill="#adadad"/>
    </g>
    <g id="Group_560" data-name="Group 560">
      <path id="Path_274" data-name="Path 274" d="M743.362,312.2a1,1,0,0,1-.081-2,108.219,108.219,0,0,1,15.929-.119,1,1,0,0,1,.934,1.062,1.014,1.014,0,0,1-1.063.934,105.618,105.618,0,0,0-15.636.117C743.417,312.2,743.39,312.2,743.362,312.2Z" fill="#adadad"/>
    </g>
    <g id="Group_561" data-name="Group 561">
      <path id="Path_275" data-name="Path 275" d="M769.455,319.737a.95.95,0,0,1-.175-.016c-1.317-.231-2.52-.411-3.574-.534a100.121,100.121,0,0,0-15.368-.873c-.495.011-.988.021-1.48.024h0a1,1,0,0,1-.006-2c.481,0,.965-.013,1.448-.024a103.2,103.2,0,0,1,15.659.889c1.075.125,2.317.31,3.674.55a1,1,0,0,1-.173,1.984Z" fill="#adadad"/>
    </g>
    <g id="Group_562" data-name="Group 562">
      <path id="Path_276" data-name="Path 276" d="M784.871,323.873a.992.992,0,0,1-.352-.065,80.134,80.134,0,0,0-10.508-3.131l-.544-.123a1,1,0,1,1,.428-1.953l.567.127a82.357,82.357,0,0,1,10.762,3.209,1,1,0,0,1-.353,1.936Z" fill="#adadad"/>
    </g>
    <g id="Group_563" data-name="Group 563">
      <path id="Path_277" data-name="Path 277" d="M723.6,322.374a1,1,0,0,1-.3-1.955,92.289,92.289,0,0,1,16.829-3.462c.048-.008,1.915-.275,4.542-.457a1.016,1.016,0,0,1,1.067.928,1,1,0,0,1-.928,1.068c-2.548.176-4.408.441-4.426.444a90.419,90.419,0,0,0-16.492,3.389A1.023,1.023,0,0,1,723.6,322.374Z" fill="#adadad"/>
    </g>
    <g id="Group_564" data-name="Group 564">
      <path id="Path_278" data-name="Path 278" d="M786.533,330.959a1,1,0,0,1-.376-.074,83.986,83.986,0,0,0-20.316-5.243c-.007,0-2.1-.252-4.725-.478a1,1,0,0,1-.91-1.082.985.985,0,0,1,1.082-.91c2.666.229,4.785.484,4.807.486a85.986,85.986,0,0,1,20.814,5.374,1,1,0,0,1-.376,1.927Z" fill="#adadad"/>
    </g>
    <g id="Group_565" data-name="Group 565">
      <path id="Path_279" data-name="Path 279" d="M738.109,325.65a1,1,0,0,1-.132-1.991,107.034,107.034,0,0,1,17.111-.89,1,1,0,1,1-.057,2,104.164,104.164,0,0,0-16.787.872A1.03,1.03,0,0,1,738.109,325.65Z" fill="#adadad"/>
    </g>
    <g id="Group_566" data-name="Group 566">
      <path id="Path_280" data-name="Path 280" d="M713.04,332.989a1,1,0,0,1-.446-1.9,77,77,0,0,1,18.192-6.186s1.933-.421,2.765-.572a1,1,0,1,1,.359,1.966c-.812.149-2.7.56-2.7.561a74.928,74.928,0,0,0-17.724,6.022A.981.981,0,0,1,713.04,332.989Z" fill="#adadad"/>
    </g>
    <g id="Group_567" data-name="Group 567">
      <path id="Path_281" data-name="Path 281" d="M797.271,343.054a.988.988,0,0,1-.561-.173,61.114,61.114,0,0,0-15.72-7.427,78.791,78.791,0,0,0-10.669-2.687,1,1,0,0,1,.348-1.969,80.7,80.7,0,0,1,10.941,2.754,63.122,63.122,0,0,1,16.225,7.676,1,1,0,0,1-.564,1.826Z" fill="#adadad"/>
    </g>
    <g id="Group_568" data-name="Group 568">
      <path id="Path_282" data-name="Path 282" d="M764.369,331.883a.963.963,0,0,1-.119-.006,103.459,103.459,0,0,0-11.454-.711c-.018,0-2.539,0-5.143.107l-2.678.134a1,1,0,0,1-.1-2l2.688-.134c2.655-.1,5.213-.109,5.239-.109a106.02,106.02,0,0,1,11.684.724,1,1,0,0,1-.117,1.993Z" fill="#adadad"/>
    </g>
    <g id="Group_569" data-name="Group 569">
      <path id="Path_283" data-name="Path 283" d="M705.379,344.07a1,1,0,0,1-.6-1.8A57.515,57.515,0,0,1,718.1,335.1a1,1,0,0,1,.726,1.863,55.563,55.563,0,0,0-12.857,6.909A.993.993,0,0,1,705.379,344.07Z" fill="#adadad"/>
    </g>
    <g id="Group_570" data-name="Group 570">
      <path id="Path_284" data-name="Path 284" d="M801.593,352.852a1,1,0,0,1-.667-.255c-4.64-4.151-11.093-7.707-18.663-10.282a1,1,0,1,1,.644-1.892c7.822,2.66,14.515,6.354,19.353,10.684a1,1,0,0,1-.667,1.745Z" fill="#adadad"/>
    </g>
    <g id="Group_571" data-name="Group 571">
      <path id="Path_285" data-name="Path 285" d="M775.463,340.307a1.007,1.007,0,0,1-.236-.028,92.926,92.926,0,0,0-9.433-1.763q-.96-.129-1.935-.241a1,1,0,1,1,.229-1.986c.661.075,1.32.157,1.973.245a94.611,94.611,0,0,1,9.636,1.8,1,1,0,0,1-.234,1.971Z" fill="#adadad"/>
    </g>
    <g id="Group_572" data-name="Group 572">
      <path id="Path_286" data-name="Path 286" d="M802.017,359.675a.993.993,0,0,1-.679-.265,41.327,41.327,0,0,0-5.9-4.493,1,1,0,0,1,1.072-1.69,43.361,43.361,0,0,1,6.186,4.714,1,1,0,0,1-.678,1.734Z" fill="#adadad"/>
    </g>
    <g id="Group_573" data-name="Group 573">
      <path id="Path_287" data-name="Path 287" d="M793.36,353.524a.985.985,0,0,1-.484-.126q-1.09-.6-2.24-1.176a88.025,88.025,0,0,0-8.227-3.416,82.114,82.114,0,0,0-8.274-2.345,1,1,0,0,1,.445-1.95,84.177,84.177,0,0,1,8.485,2.406,87.993,87.993,0,0,1,8.459,3.514q1.191.591,2.323,1.219a1,1,0,0,1-.487,1.874Z" fill="#adadad"/>
    </g>
    <g id="Group_574" data-name="Group 574">
      <path id="Path_288" data-name="Path 288" d="M702.065,359.674a1,1,0,0,1-.677-1.735,42.257,42.257,0,0,1,4.972-3.911,1,1,0,1,1,1.121,1.656,40.279,40.279,0,0,0-4.738,3.726A.992.992,0,0,1,702.065,359.674Z" fill="#adadad"/>
    </g>
    <g id="Group_575" data-name="Group 575">
      <path id="Path_289" data-name="Path 289" d="M799.005,376.5a1,1,0,0,1-.6-.2c-.925-.7-1.913-1.379-2.934-2.029l-.85-.544a1,1,0,1,1,1.08-1.683l.846.542c1.062.675,2.094,1.388,3.061,2.117a1,1,0,0,1-.6,1.8Z" fill="#adadad"/>
    </g>
    <g id="Group_576" data-name="Group 576">
      <path id="Path_290" data-name="Path 290" d="M705.077,376.5a1,1,0,0,1-.6-1.8,58.716,58.716,0,0,1,15.614-8.139s.537-.19,1.581-.533a1,1,0,1,1,.623,1.9c-1.008.331-1.526.515-1.533.517a56.792,56.792,0,0,0-15.082,7.852A1,1,0,0,1,705.077,376.5Z" fill="#adadad"/>
    </g>
    <g id="Group_577" data-name="Group 577">
      <path id="Path_291" data-name="Path 291" d="M796.9,381.44a1,1,0,0,1-.553-.168,52.24,52.24,0,0,0-5.008-2.934,1,1,0,1,1,.916-1.778,53.934,53.934,0,0,1,5.2,3.048,1,1,0,0,1-.556,1.832Z" fill="#adadad"/>
    </g>
    <g id="Group_578" data-name="Group 578">
      <path id="Path_292" data-name="Path 292" d="M715.125,377.037a1,1,0,0,1-.409-1.913c1.524-.682,3.617-1.47,3.706-1.5,2.044-.786,4.2-1.508,6.405-2.142a1,1,0,0,1,.553,1.922c-2.149.618-4.25,1.321-6.248,2.089-.028.011-2.131.8-3.6,1.46A1.018,1.018,0,0,1,715.125,377.037Z" fill="#adadad"/>
    </g>
    <g id="Group_579" data-name="Group 579">
      <path id="Path_293" data-name="Path 293" d="M707.193,381.43a1,1,0,0,1-.479-1.882c1.015-.671,2.076-1.321,3.154-1.929a1,1,0,0,1,.983,1.742c-1.063.6-2.107,1.239-3.1,1.9A1,1,0,0,1,707.193,381.43Z" fill="#adadad"/>
    </g>
    <g id="Group_580" data-name="Group 580">
      <path id="Path_294" data-name="Path 294" d="M709.877,386.2a1,1,0,0,1-.5-1.866,69.132,69.132,0,0,1,15.384-6.4c.03-.008,2.246-.573,3.59-.9a1,1,0,1,1,.472,1.943c-1.336.324-3.538.886-3.538.886a67.043,67.043,0,0,0-14.908,6.2A.992.992,0,0,1,709.877,386.2Z" fill="#adadad"/>
    </g>
    <g id="Group_581" data-name="Group 581">
      <path id="Path_295" data-name="Path 295" d="M713.227,390.849a1,1,0,0,1-.444-1.9c1.243-.614,2.54-1.2,3.857-1.75.015-.006,3.354-1.328,4.824-1.892a1,1,0,0,1,.717,1.867c-1.464.562-4.788,1.878-4.789,1.878-1.261.525-2.519,1.1-3.724,1.69A1,1,0,0,1,713.227,390.849Z" fill="#adadad"/>
    </g>
    <g id="Group_582" data-name="Group 582">
      <path id="Path_296" data-name="Path 296" d="M786.669,395.413a1.009,1.009,0,0,1-.378-.074c-1.19-.487-2.429-.953-3.679-1.385-.019-.007-4.323-1.377-5.827-1.764l-1.8-.459a1,1,0,0,1,.492-1.939l1.806.462c1.555.4,5.777,1.745,5.956,1.8,1.308.453,2.58.932,3.8,1.432a1,1,0,0,1-.378,1.926Z" fill="#adadad"/>
    </g>
    <g id="Group_583" data-name="Group 583">
      <path id="Path_297" data-name="Path 297" d="M781.3,399.9a1.023,1.023,0,0,1-.306-.048,85.8,85.8,0,0,0-10.564-2.641,1,1,0,1,1,.365-1.967,87.955,87.955,0,0,1,10.811,2.7,1,1,0,0,1-.306,1.952Z" fill="#adadad"/>
    </g>
    <g id="Group_584" data-name="Group 584">
      <path id="Path_298" data-name="Path 298" d="M763.465,396.18a1.029,1.029,0,0,1-.11-.006,105.93,105.93,0,0,0-16.442-.486l-2.136.152a1,1,0,0,1-.142-1.995l2.158-.153a107.28,107.28,0,0,1,16.779.494,1,1,0,0,1-.107,1.994Z" fill="#adadad"/>
    </g>
    <g id="Group_585" data-name="Group 585">
      <path id="Path_299" data-name="Path 299" d="M722.795,399.9a1,1,0,0,1-.306-1.952,90.4,90.4,0,0,1,15.094-3.4,1,1,0,1,1,.275,1.981,88.475,88.475,0,0,0-14.757,3.321A1.023,1.023,0,0,1,722.795,399.9Z" fill="#adadad"/>
    </g>
    <g id="Group_586" data-name="Group 586">
      <path id="Path_300" data-name="Path 300" d="M773.882,404.343a.967.967,0,0,1-.219-.024,98.8,98.8,0,0,0-19.987-2.3,1,1,0,0,1,.015-2h.016a100.772,100.772,0,0,1,20.392,2.346,1,1,0,0,1-.217,1.975Z" fill="#adadad"/>
    </g>
    <g id="Group_587" data-name="Group 587">
      <path id="Path_301" data-name="Path 301" d="M730.21,404.343a1,1,0,0,1-.164-1.988,98.945,98.945,0,0,1,15.326-2.139,1,1,0,1,1,.123,2,96.953,96.953,0,0,0-15.067,2.106A.945.945,0,0,1,730.21,404.343Z" fill="#adadad"/>
    </g>
    <g id="Group_588" data-name="Group 588">
      <path id="Path_302" data-name="Path 302" d="M744.146,408.738a1,1,0,0,1-.073-2,108.413,108.413,0,0,1,15.937,0,1,1,0,0,1,.924,1.07.988.988,0,0,1-1.071.924,106.63,106.63,0,0,0-15.643,0Z" fill="#adadad"/>
    </g>
    <g id="Group_589" data-name="Group 589">
      <path id="Path_303" data-name="Path 303" d="M702.47,365.75a1,1,0,0,1-1-1v-.009A1,1,0,0,1,701.8,364a48.674,48.674,0,0,1,11-7.25,21.362,21.362,0,0,1,2.352-1.128,1,1,0,1,1,.793,1.836,19.371,19.371,0,0,0-2.126,1.012c-.029.018-.065.039-.095.054a46.846,46.846,0,0,0-10.551,6.929A1,1,0,0,1,702.47,365.75Z" fill="#adadad"/>
    </g>
    <g id="Group_590" data-name="Group 590">
      <path id="Path_304" data-name="Path 304" d="M702.489,352.852a1,1,0,0,1-.667-1.745,42.391,42.391,0,0,1,7.311-5.249,1,1,0,0,1,1,1.731,40.392,40.392,0,0,0-6.979,5.008A1,1,0,0,1,702.489,352.852Z" fill="#adadad"/>
    </g>
    <g id="Group_591" data-name="Group 591">
      <path id="Path_305" data-name="Path 305" d="M725.819,386.107a1,1,0,0,1-.266-1.964c1.659-.461,3.918-1,6.2-1.471a1,1,0,1,1,.406,1.959c-2.239.464-4.451.99-6.07,1.44A1.037,1.037,0,0,1,725.819,386.107Z" fill="#adadad"/>
    </g>
    <g id="Group_592" data-name="Group 592">
      <path id="Path_306" data-name="Path 306" d="M790.866,390.859a.993.993,0,0,1-.441-.1,71.125,71.125,0,0,0-10.6-4.109,1,1,0,0,1,.59-1.912,73.139,73.139,0,0,1,10.9,4.228,1,1,0,0,1-.444,1.9Z" fill="#adadad"/>
    </g>
    <g id="Group_593" data-name="Group 593">
      <path id="Path_307" data-name="Path 307" d="M709.683,354.1a1,1,0,0,1-.507-1.863c1.2-.7,1.828-1.042,2.942-1.592a1,1,0,0,1,.885,1.793c-1.064.526-1.669.853-2.816,1.526A1,1,0,0,1,709.683,354.1Z" fill="#adadad"/>
    </g>
  </g>
</svg>
