<svg xmlns="http://www.w3.org/2000/svg" xmlns:xlink="http://www.w3.org/1999/xlink" width="66" height="66" viewBox="0 0 66 66">
  <defs>
    <filter id="Rectangle_11810" x="0" y="0" width="66" height="66" filterUnits="userSpaceOnUse">
      <feOffset dy="3" input="SourceAlpha"/>
      <feGaussianBlur stdDeviation="3" result="blur"/>
      <feFlood flood-opacity="0.161"/>
      <feComposite operator="in" in2="blur"/>
      <feComposite in="SourceGraphic"/>
    </filter>
  </defs>
  <g id="media-hover" transform="translate(27 24)">
    <g id="expand" transform="translate(-18 -18)">
      <g transform="matrix(1, 0, 0, 1, -9, -6)" filter="url(#Rectangle_11810)">
        <rect id="Rectangle_11810-2" data-name="Rectangle 11810" width="48" height="48" rx="24" transform="translate(57 54) rotate(180)" fill="#fff" opacity="0.88"/>
      </g>
      <path id="Path_52858" data-name="Path 52858" d="M22.335,5.333A1.333,1.333,0,0,0,21,4H14.335a1.333,1.333,0,1,0,0,2.667h3.427l-4.373,4.387a1.339,1.339,0,1,0,1.893,1.893L19.669,8.56V12a1.333,1.333,0,1,0,2.667,0Z" transform="translate(12.331 9.333)" fill="#cca079"/>
      <path id="Path_52859" data-name="Path 52859" d="M12.947,13.389a1.333,1.333,0,0,0-1.893,0L6.667,17.762V14.335a1.333,1.333,0,1,0-2.667,0V21a1.333,1.333,0,0,0,1.333,1.333H12a1.333,1.333,0,1,0,0-2.667H8.56l4.387-4.387a1.333,1.333,0,0,0,0-1.893Z" transform="translate(9.333 12.331)" fill="#cca079"/>
    </g>
  </g>
</svg>
