<svg xmlns="http://www.w3.org/2000/svg" width="48.002" height="48" viewBox="0 0 48.002 48">
  <g id="mission_2_" data-name="mission(2)" transform="translate(0)">
    <path id="Path_59475" data-name="Path 59475" d="M31.827,35h-10a1,1,0,0,1,0-2h8.308l-9.25-16.82-3.812,7.888a1,1,0,0,1-1.8-.872l4.656-9.632A1,1,0,0,1,20.8,13a1.053,1.053,0,0,1,.9.518l11,20A1,1,0,0,1,31.827,35Z" transform="translate(15.172 13)" fill="#a47e5c"/>
    <path id="Path_59474" data-name="Path 59474" d="M37,41.481H1A1,1,0,0,1,.122,40l18-33a1.041,1.041,0,0,1,1.756,0l18,33A1,1,0,0,1,37,41.481Zm-34.316-2h32.63L19,9.569Z" transform="translate(0 6.519)" fill="#cca079"/>
    <path id="Path_59476" data-name="Path 59476" d="M10,15a1,1,0,0,1-1-1V1a1,1,0,0,1,1-1H22a1,1,0,0,1,.708,1.708L19.414,5l3.292,3.292A1,1,0,0,1,22,10H11v4a1,1,0,0,1-1,1Zm1-7h8.586L17.294,5.708a1,1,0,0,1,0-1.414L19.586,2H11Z" transform="translate(9)" fill="#007066"/>
    <path id="Path_59477" data-name="Path 59477" d="M16.179,17.989c-.024,0-.046,0-.072,0a1,1,0,0,1-.728-.4l-2.2-2.932-2.2,2.932a1,1,0,0,1-.728.4.967.967,0,0,1-.778-.29l-3.36-3.36a1,1,0,0,1,1.414-1.414l2.544,2.544,2.308-3.078a1.036,1.036,0,0,1,1.6,0l2.308,3.078,2.544-2.544a1,1,0,0,1,1.414,1.414l-3.36,3.36a1,1,0,0,1-.706.292Z" transform="translate(5.821 12.011)" fill="#007066"/>
  </g>
</svg>
