<svg xmlns="http://www.w3.org/2000/svg" width="150.005" height="150" viewBox="0 0 150.005 150">
  <g id="mission-flag" transform="translate(0)">
    <path id="Path_59011" data-name="Path 59011" d="M115.624,115.774H3.124A3.128,3.128,0,0,1,.38,111.149L56.63,8.024a3.254,3.254,0,0,1,5.487,0l56.25,103.125a3.128,3.128,0,0,1-2.744,4.625ZM8.387,109.524H110.355L59.374,16.049Z" transform="translate(0 34.226)" fill="#cca079"/>
    <path id="Path_59012" data-name="Path 59012" d="M67.219,81.75H35.969a3.125,3.125,0,1,1,0-6.25H61.932L33.026,22.937,21.113,47.587a3.125,3.125,0,0,1-5.625-2.725l14.55-30.1A3.134,3.134,0,0,1,32.769,13a3.29,3.29,0,0,1,2.819,1.619l34.375,62.5a3.128,3.128,0,0,1-2.744,4.631Z" transform="translate(79.655 68.25)" fill="#cca079"/>
    <path id="Path_59013" data-name="Path 59013" d="M12.125,46.875A3.126,3.126,0,0,1,9,43.75V3.125A3.126,3.126,0,0,1,12.125,0h37.5a3.128,3.128,0,0,1,2.213,5.337L41.544,15.625,51.831,25.912a3.129,3.129,0,0,1-2.206,5.338H15.25v12.5a3.126,3.126,0,0,1-3.125,3.125ZM15.25,25H42.081l-7.162-7.162a3.127,3.127,0,0,1,0-4.419L42.081,6.25H15.25Z" transform="translate(47.249)" fill="#007066"/>
    <path id="Path_59014" data-name="Path 59014" d="M38.191,30.692c-.075,0-.144,0-.225-.006a3.109,3.109,0,0,1-2.275-1.244L28.816,20.28l-6.875,9.162a3.141,3.141,0,0,1-2.275,1.244,3.021,3.021,0,0,1-2.431-.906l-10.5-10.5a3.125,3.125,0,0,1,4.419-4.419l7.95,7.95,7.212-9.619a3.236,3.236,0,0,1,5,0l7.213,9.619,7.95-7.95A3.125,3.125,0,0,1,50.9,19.28L40.4,29.78a3.117,3.117,0,0,1-2.206.913Z" transform="translate(30.558 63.058)" fill="#007066"/>
  </g>
</svg>
