<svg xmlns="http://www.w3.org/2000/svg" width="339.939" height="332.412" viewBox="0 0 339.939 332.412">
  <g id="news-art" transform="translate(26.613 -13.207) rotate(15)" opacity="0.25">
    <g id="Group_24679" data-name="Group 24679" transform="translate(0 0)">
      <g id="Group_55" data-name="Group 55" transform="translate(337.861 187.194)">
        <path id="Path_118" data-name="Path 118" d="M504.591,559.544a1.378,1.378,0,0,0,1.356-1.145c.289-1.676.493-3.373.691-5.014q.12-1,.245-1.993c.28-2.306.568-4.68.72-7.061.178-2.317.342-4.654.49-6.99.093-2.435.149-4.827.2-7.055l.021-1.064c.017-.827.036-1.654.025-2.482l-.067-3.5c-.018-.65-.033-1.288-.047-1.924-.039-1.678-.078-3.414-.192-5.131q-.228-3.493-.5-6.988c-.068-1.015-.175-2.11-.347-3.534l-.409-3.468a1.378,1.378,0,1,0-2.737.324l.409,3.471c.166,1.378.269,2.427.335,3.406.182,2.333.348,4.652.5,6.971.11,1.659.149,3.364.187,5.012q.021.963.048,1.928l.066,3.483c.01.786-.008,1.582-.025,2.377l-.022,1.074c-.046,2.207-.1,4.585-.192,6.965-.147,2.289-.31,4.612-.488,6.935-.149,2.32-.432,4.655-.7,6.913-.085.661-.166,1.333-.247,2-.194,1.608-.394,3.27-.671,4.878a1.378,1.378,0,0,0,1.126,1.59A1.318,1.318,0,0,0,504.591,559.544Z" transform="translate(-503.21 -500.974)" fill="#ddb899"/>
      </g>
      <g id="Group_56" data-name="Group 56" transform="translate(29.69 17.408)">
        <path id="Path_119" data-name="Path 119" d="M790.71,309.873a2.736,2.736,0,0,0,1.5-.445,191.389,191.389,0,0,1,94.046-30.576,2.756,2.756,0,1,0-.287-5.505A196.922,196.922,0,0,0,789.207,304.8a2.757,2.757,0,0,0,1.5,5.068Z" transform="translate(-787.951 -273.345)" fill="#d3d3d3"/>
      </g>
      <g id="Group_57" data-name="Group 57" transform="translate(113.655 8.881)">
        <path id="Path_120" data-name="Path 120" d="M785.5,269.514a1.378,1.378,0,0,0,.3-2.723,203.72,203.72,0,0,0-33.668-4.619,208.706,208.706,0,0,0-33.872,1.064,1.378,1.378,0,1,0,.31,2.739,206.071,206.071,0,0,1,33.422-1.05,201.089,201.089,0,0,1,33.21,4.557A1.378,1.378,0,0,0,785.5,269.514Z" transform="translate(-717.039 -261.913)" fill="#c48e61"/>
      </g>
      <g id="Group_58" data-name="Group 58" transform="translate(171.884 0)">
        <path id="Path_121" data-name="Path 121" d="M721.171,259.99a2.756,2.756,0,0,0,.715-5.417l-4.945-1.333-.072-.018c-1.557-.375-3.119-.726-4.681-1.076l-5.369-1.172c-1.364-.269-2.68-.5-4-.727l-1.148-.2a2.756,2.756,0,1,0-.955,5.429l1.159.2c1.275.222,2.549.443,3.819.694l5.283,1.153c1.522.342,3.044.682,4.561,1.047l4.909,1.322A2.752,2.752,0,0,0,721.171,259.99Z" transform="translate(-698.443 -250.006)" fill="#adadad"/>
      </g>
      <g id="Group_59" data-name="Group 59" transform="translate(235.404 22.948)">
        <path id="Path_122" data-name="Path 122" d="M636.045,300.1a1.378,1.378,0,0,0,.8-2.5l-.383-.275c-1.971-1.411-4.009-2.87-6.05-4.263-2.218-1.449-4.443-2.879-6.639-4.268-1.88-1.223-3.867-2.362-5.79-3.464l-1.017-.583c-.567-.318-1.12-.633-1.672-.948-1.713-.976-3.483-1.985-5.306-2.887a1.378,1.378,0,1,0-1.224,2.469c1.751.867,3.486,1.856,5.165,2.813.557.317,1.114.635,1.674.949l1.009.579c1.889,1.083,3.842,2.2,5.672,3.392,2.2,1.391,4.414,2.814,6.6,4.24,1.993,1.361,4.018,2.81,5.977,4.213l.383.274A1.366,1.366,0,0,0,636.045,300.1Z" transform="translate(-608.002 -280.771)" fill="#c48e61"/>
      </g>
      <g id="Group_60" data-name="Group 60" transform="translate(237.032 34.843)">
        <path id="Path_123" data-name="Path 123" d="M639.277,306.038a1.379,1.379,0,0,0,.742-2.541l-5.314-3.382c-1.368-.843-2.763-1.639-4.113-2.41l-1.4-.8a1.378,1.378,0,0,0-1.375,2.388l1.407.806c1.33.759,2.705,1.544,4.017,2.353l5.3,3.371A1.374,1.374,0,0,0,639.277,306.038Z" transform="translate(-627.128 -296.72)" fill="#c48e61"/>
      </g>
      <g id="Group_61" data-name="Group 61" transform="translate(281.103 99.472)">
        <path id="Path_124" data-name="Path 124" d="M581.035,397.685a1.378,1.378,0,0,0,1.134-2.157l-4.029-5.872c-1.137-1.573-2.309-3.108-3.442-4.593l-.878-1.152a1.378,1.378,0,0,0-2.194,1.669l.882,1.156c1.123,1.471,2.282,2.991,3.379,4.507l4.009,5.844A1.377,1.377,0,0,0,581.035,397.685Z" transform="translate(-571.345 -383.367)" fill="#ddb899"/>
      </g>
      <g id="Group_62" data-name="Group 62" transform="translate(291.845 64.067)">
        <path id="Path_125" data-name="Path 125" d="M566.416,348.656a1.379,1.379,0,0,0,1.047-2.273q-.6-.7-1.2-1.414c-1.033-1.228-2.1-2.5-3.217-3.709l-4.566-4.921a1.378,1.378,0,1,0-2.021,1.875l4.562,4.916c1.07,1.163,2.119,2.409,3.133,3.614q.6.716,1.208,1.428A1.377,1.377,0,0,0,566.416,348.656Z" transform="translate(-556.096 -335.899)" fill="#c48e61"/>
      </g>
      <g id="Group_63" data-name="Group 63" transform="translate(304.953 170.776)">
        <path id="Path_126" data-name="Path 126" d="M551.145,492.081a1.432,1.432,0,0,0,.216-.016,1.379,1.379,0,0,0,1.146-1.576c-.289-1.825-.689-3.657-1.044-5.273l-.151-.7c-.327-1.5-.653-3-1-4.492a1.378,1.378,0,1,0-2.684.625c.345,1.481.668,2.968.993,4.454l.152.7c.345,1.58.737,3.37,1.012,5.115A1.379,1.379,0,0,0,551.145,492.081Z" transform="translate(-547.591 -478.963)" fill="#c48e61"/>
      </g>
      <g id="Group_64" data-name="Group 64" transform="translate(38.585 29.717)">
        <path id="Path_127" data-name="Path 127" d="M804.025,319.918a1.372,1.372,0,0,0,.734-.213,181.248,181.248,0,0,1,77.718-27.111,1.378,1.378,0,0,0-.3-2.74,184.011,184.011,0,0,0-78.887,27.52,1.378,1.378,0,0,0,.736,2.543Z" transform="translate(-802.646 -289.847)" fill="#ddb899"/>
      </g>
      <g id="Group_65" data-name="Group 65" transform="translate(33.063 67.551)">
        <path id="Path_128" data-name="Path 128" d="M880.688,362.64a2.752,2.752,0,0,0,1.729-.611,159.931,159.931,0,0,1,24.492-16.275,2.756,2.756,0,0,0-2.615-4.853,165.424,165.424,0,0,0-25.338,16.838,2.756,2.756,0,0,0,1.733,4.9Z" transform="translate(-877.93 -340.571)" fill="#d3d3d3"/>
      </g>
      <g id="Group_66" data-name="Group 66" transform="translate(154.364 50.121)">
        <path id="Path_129" data-name="Path 129" d="M747.514,323.056a1.378,1.378,0,0,0,.295-2.724l-4.56-1-4.654-.816c-2.8-.524-5.672-.866-8.446-1.2l-.868-.1a1.378,1.378,0,0,0-.328,2.736l.87.1c2.729.324,5.552.66,8.281,1.17l4.611.808,4.5.992A1.34,1.34,0,0,0,747.514,323.056Z" transform="translate(-727.739 -317.203)" fill="#c48e61"/>
      </g>
      <g id="Group_67" data-name="Group 67" transform="translate(131.87 68.136)">
        <path id="Path_130" data-name="Path 130" d="M765.453,353.853a2.757,2.757,0,0,0,.854-5.377A142.119,142.119,0,0,0,717.93,341.4a2.756,2.756,0,1,0,.134,5.511,136.654,136.654,0,0,1,46.535,6.808A2.759,2.759,0,0,0,765.453,353.853Z" transform="translate(-715.24 -341.355)" fill="#dcdcdc"/>
      </g>
      <g id="Group_68" data-name="Group 68" transform="translate(215.366 93.429)">
        <path id="Path_131" data-name="Path 131" d="M654.739,434.354a1.838,1.838,0,0,0,1.653-2.637,143.291,143.291,0,0,0-20.8-31.323,141.633,141.633,0,0,0-13.343-13.337,144.655,144.655,0,0,0-14.852-11.467,1.838,1.838,0,0,0-2.088,3.025,141.416,141.416,0,0,1,14.513,11.2,138.141,138.141,0,0,1,13.009,13,139.62,139.62,0,0,1,20.256,30.5A1.836,1.836,0,0,0,654.739,434.354Z" transform="translate(-604.512 -375.264)" fill="#1b8c7f"/>
      </g>
      <g id="Group_69" data-name="Group 69" transform="translate(269.422 163.315)">
        <path id="Path_132" data-name="Path 132" d="M594.552,512.856c.069,0,.137,0,.207-.008A2.755,2.755,0,0,0,597.3,509.9l-.106-1.475c-.081-1.155-.163-2.31-.266-3.463l-.009-.081L596.34,500c-.132-1.292-.354-2.593-.568-3.852l-.188-1.12c-.1-.538-.178-1.034-.26-1.53-.186-1.134-.379-2.308-.661-3.493l-1.038-4.748c-.271-1.155-.57-2.254-.858-3.318-.14-.514-.28-1.029-.415-1.543l-.648-2.39c-.01-.039-.022-.078-.034-.116l-.745-2.34c-.169-.517-.327-1.016-.486-1.515-.336-1.059-.684-2.151-1.068-3.237a2.756,2.756,0,1,0-5.2,1.839c.355,1,.674,2.006,1.012,3.069q.243.767.492,1.534l.721,2.264.626,2.311c.134.51.278,1.039.421,1.568.289,1.065.563,2.072.8,3.092l1.04,4.755c.248,1.046.417,2.074.6,3.163.086.523.172,1.046.266,1.567l.186,1.111c.208,1.224.4,2.379.523,3.535l.583,4.883c.1,1.105.176,2.212.254,3.318l.108,1.5A2.755,2.755,0,0,0,594.552,512.856Z" transform="translate(-584.017 -468.961)" fill="#adadad"/>
      </g>
      <g id="Group_70" data-name="Group 70" transform="translate(243.124 107.644)">
        <path id="Path_133" data-name="Path 133" d="M629.435,416.048a1.378,1.378,0,0,0,1.128-2.168,155.028,155.028,0,0,0-15.835-19.14,1.378,1.378,0,1,0-1.975,1.922,152.173,152.173,0,0,1,15.552,18.8A1.378,1.378,0,0,0,629.435,416.048Z" transform="translate(-612.362 -394.323)" fill="#c48e61"/>
      </g>
      <g id="Group_71" data-name="Group 71" transform="translate(200.304 72.622)">
        <path id="Path_134" data-name="Path 134" d="M679.8,371.294a2.756,2.756,0,0,0,1.711-4.919,158.436,158.436,0,0,0-30.094-18.738,2.756,2.756,0,0,0-2.368,4.978A152.872,152.872,0,0,1,678.089,370.7,2.745,2.745,0,0,0,679.8,371.294Z" transform="translate(-647.472 -347.369)" fill="#ececec"/>
      </g>
      <g id="Group_72" data-name="Group 72" transform="translate(233.448 179.285)">
        <path id="Path_135" data-name="Path 135" d="M646.549,506.433a1.379,1.379,0,0,0,1.348-1.674l-.739-3.364c-.045-.2-.087-.4-.128-.6-.079-.379-.158-.757-.255-1.132l-.458-1.679c-.12-.428-.229-.847-.339-1.266-.18-.687-.366-1.4-.587-2.1l-1.056-3.288a1.378,1.378,0,0,0-2.623.844l1.053,3.278c.2.632.368,1.281.547,1.968.113.436.227.871.35,1.3l.449,1.65c.081.316.151.653.222.99.045.21.088.422.136.632l.737,3.357A1.378,1.378,0,0,0,646.549,506.433Z" transform="translate(-641.645 -490.371)" fill="#c48e61"/>
      </g>
      <g id="Group_73" data-name="Group 73" transform="translate(219.258 171.954)">
        <path id="Path_136" data-name="Path 136" d="M661.464,529.762a2.757,2.757,0,0,0,2.75-2.609,98.924,98.924,0,0,0-1.549-23,99.984,99.984,0,0,0-7-21.987,2.757,2.757,0,0,0-5.03,2.259,94.406,94.406,0,0,1,6.608,20.745,93.364,93.364,0,0,1,1.463,21.686,2.755,2.755,0,0,0,2.6,2.9C661.365,529.761,661.414,529.762,661.464,529.762Z" transform="translate(-650.397 -480.542)" fill="#d3d3d3"/>
      </g>
      <g id="Group_74" data-name="Group 74" transform="translate(256.911 102.415)">
        <path id="Path_137" data-name="Path 137" d="M606.258,425.725a2.757,2.757,0,0,0,2.438-4.038,168.839,168.839,0,0,0-23.05-33.446,2.756,2.756,0,0,0-4.125,3.657,163.283,163.283,0,0,1,22.3,32.354A2.756,2.756,0,0,0,606.258,425.725Z" transform="translate(-580.827 -387.313)" fill="#d3d3d3"/>
      </g>
      <g id="Group_75" data-name="Group 75" transform="translate(99.822 164.537)">
        <path id="Path_138" data-name="Path 138" d="M789.736,489.508a1.375,1.375,0,0,0,1.052-.487,48.142,48.142,0,0,1,12.036-10.138,49.239,49.239,0,0,1,14.9-5.556,1.378,1.378,0,0,0-.534-2.7,52.024,52.024,0,0,0-15.761,5.881,50.914,50.914,0,0,0-12.746,10.735,1.379,1.379,0,0,0,1.05,2.269Z" transform="translate(-788.359 -470.598)" fill="#e9ceb9"/>
      </g>
      <g id="Group_76" data-name="Group 76" transform="translate(0 13.673)">
        <path id="Path_139" data-name="Path 139" d="M838.891,319.133a1.828,1.828,0,0,0,1.264-.5c1.208-1.143,2.519-2.253,3.788-3.327l2.248-1.9c1.194-1.005,2.429-2.045,3.663-3.017l5.9-4.5c.574-.433,1.146-.866,1.733-1.279l2.638-1.831c1.873-1.287,3.57-2.45,5.3-3.6l8.167-5.029,2.753-1.539,5.634-3.083c1.784-.909,3.67-1.83,5.495-2.721l3.084-1.489c.633-.3,1.293-.583,1.952-.87l.932-.408,5.89-2.521c1.54-.621,3.166-1.23,4.74-1.819l1.184-.445c3.279-1.274,6.694-2.353,10-3.4l2.087-.662c1.5-.453,3.069-.877,4.592-1.287l2.114-.568c1.81-.483,3.682-.983,5.523-1.369a1.838,1.838,0,0,0-.756-3.6c-1.937.407-3.858.92-5.715,1.416l-2.12.57c-1.55.418-3.154.848-4.73,1.327l-2.1.665c-3.359,1.061-6.832,2.159-10.2,3.468l-1.16.435c-1.6.6-3.245,1.215-4.862,1.868l-6.877,2.952c-.691.3-1.381.6-2.063.92l-3.119,1.506c-1.838.9-3.738,1.826-5.6,2.772l-8.522,4.7-2.81,1.705-5.491,3.406c-1.8,1.2-3.513,2.368-5.406,3.67l-2.656,1.843c-.63.445-1.235.9-1.839,1.359l-.8.6-5.143,3.93c-1.3,1.026-2.561,2.086-3.778,3.11l-2.255,1.9c-1.307,1.105-2.658,2.249-3.941,3.464a1.838,1.838,0,0,0,1.264,3.172Z" transform="translate(-837.053 -268.336)" fill="#1b8c7f"/>
      </g>
      <g id="Group_77" data-name="Group 77" transform="translate(1.332 17.192)">
        <path id="Path_140" data-name="Path 140" d="M895.676,305.062a1.367,1.367,0,0,0,.894-.33c1.368-1.169,2.837-2.291,4.257-3.377l1.162-.891c.492-.37.994-.752,1.5-1.135,1.313-1,2.673-2.035,4.039-2.983l.666-.462c3.516-2.439,7.152-4.961,10.862-7.187a210.375,210.375,0,0,1,24.391-13.012,1.378,1.378,0,0,0-1.149-2.5,212.692,212.692,0,0,0-24.684,13.169c-3.763,2.257-7.436,4.805-10.989,7.269l-.668.462c-1.416.984-2.8,2.036-4.137,3.054q-.748.568-1.5,1.135l-1.167.894c-1.449,1.108-2.948,2.253-4.373,3.471a1.378,1.378,0,0,0,.9,2.426Z" transform="translate(-894.298 -273.055)" fill="#c48e61"/>
      </g>
      <g id="Group_78" data-name="Group 78" transform="translate(111.948 38.479)">
        <path id="Path_141" data-name="Path 141" d="M770.986,330.507a1.837,1.837,0,0,0,.953-3.409,174.49,174.49,0,0,0-115.348-23.782,1.838,1.838,0,0,0,.515,3.639,170.809,170.809,0,0,1,112.93,23.287A1.83,1.83,0,0,0,770.986,330.507Z" transform="translate(-655.011 -301.594)" fill="#005f54"/>
      </g>
      <g id="Group_79" data-name="Group 79" transform="translate(67.433 191.526)">
        <path id="Path_142" data-name="Path 142" d="M866.524,564.358a1.838,1.838,0,0,0,1.6-2.74,67.947,67.947,0,0,1-8.257-25.7,66.646,66.646,0,0,1,2.449-26.759,1.837,1.837,0,1,0-3.511-1.084,70.333,70.333,0,0,0-2.591,28.247,71.626,71.626,0,0,0,8.708,27.1A1.837,1.837,0,0,0,866.524,564.358Z" transform="translate(-855.782 -506.782)" fill="#1b8c7f"/>
      </g>
      <g id="Group_80" data-name="Group 80" transform="translate(58.539 170.133)">
        <path id="Path_143" data-name="Path 143" d="M867.969,505.271a2.756,2.756,0,0,0,2.666-2.068,75.36,75.36,0,0,1,8.629-20.941,2.756,2.756,0,1,0-4.743-2.808,80.78,80.78,0,0,0-9.222,22.371,2.76,2.76,0,0,0,2.67,3.446Z" transform="translate(-865.211 -478.101)" fill="#dcdcdc"/>
      </g>
      <g id="Group_81" data-name="Group 81" transform="translate(175.603 168.393)">
        <path id="Path_144" data-name="Path 144" d="M718.063,523.4a1.838,1.838,0,0,0,1.836-1.8,60.4,60.4,0,0,0-5-24.894,58.7,58.7,0,0,0-14.566-20.463,1.838,1.838,0,0,0-2.461,2.73,55.04,55.04,0,0,1,13.653,19.192,56.686,56.686,0,0,1,4.695,23.364,1.838,1.838,0,0,0,1.8,1.873Z" transform="translate(-697.27 -475.769)" fill="#7bbbb1"/>
      </g>
      <g id="Group_82" data-name="Group 82" transform="translate(192.652 170.245)">
        <path id="Path_145" data-name="Path 145" d="M699.279,493.934a1.838,1.838,0,0,0,1.67-2.6,70.984,70.984,0,0,0-7.226-12.328,1.838,1.838,0,1,0-2.969,2.167,67.223,67.223,0,0,1,6.852,11.688A1.838,1.838,0,0,0,699.279,493.934Z" transform="translate(-690.4 -478.252)" fill="#005f54"/>
      </g>
      <g id="Group_83" data-name="Group 83" transform="translate(170.621 150.664)">
        <path id="Path_146" data-name="Path 146" d="M726.5,465.938a1.837,1.837,0,0,0,1.281-3.154,70.473,70.473,0,0,0-14.2-10.542,1.838,1.838,0,1,0-1.824,3.19,66.809,66.809,0,0,1,13.464,9.986A1.832,1.832,0,0,0,726.5,465.938Z" transform="translate(-710.829 -451.999)" fill="#7bbbb1"/>
      </g>
      <g id="Group_84" data-name="Group 84" transform="translate(87.167 152.116)">
        <path id="Path_147" data-name="Path 147" d="M827.035,467.01a1.835,1.835,0,0,0,1.29-.529,67.234,67.234,0,0,1,11.662-9.138,1.838,1.838,0,0,0-1.942-3.121,70.931,70.931,0,0,0-12.3,9.641,1.838,1.838,0,0,0,1.289,3.147Z" transform="translate(-825.198 -453.946)" fill="#005f54"/>
      </g>
      <g id="Group_85" data-name="Group 85" transform="translate(136.116 79.528)">
        <path id="Path_148" data-name="Path 148" d="M764.157,366.219a1.837,1.837,0,0,0,.532-3.6,139.292,139.292,0,0,0-19.581-4.5,145.043,145.043,0,0,0-20.031-1.5h-.01a1.837,1.837,0,0,0-.009,3.675,141.376,141.376,0,0,1,19.512,1.459,135.779,135.779,0,0,1,19.053,4.378A1.84,1.84,0,0,0,764.157,366.219Z" transform="translate(-723.229 -356.628)" fill="#7bbbb1"/>
      </g>
      <g id="Group_86" data-name="Group 86" transform="translate(131.221 91.016)">
        <path id="Path_149" data-name="Path 149" d="M769.381,381.005a.459.459,0,0,0,.165-.888,122.173,122.173,0,0,0-50-7.915.46.46,0,0,0-.434.484.472.472,0,0,0,.483.434,121.213,121.213,0,0,1,49.624,7.855A.469.469,0,0,0,769.381,381.005Z" transform="translate(-719.109 -372.03)" fill="#adadad"/>
      </g>
      <g id="Group_87" data-name="Group 87" transform="translate(177.22 108.353)">
        <path id="Path_150" data-name="Path 150" d="M716.986,407.873a.46.46,0,0,0,.257-.841A114.042,114.042,0,0,0,694.564,395.3a.459.459,0,0,0-.328.858,113.194,113.194,0,0,1,22.5,11.632A.453.453,0,0,0,716.986,407.873Z" transform="translate(-693.941 -395.273)" fill="#adadad"/>
      </g>
      <g id="Group_88" data-name="Group 88" transform="translate(149.577 29.103)">
        <path id="Path_151" data-name="Path 151" d="M729.057,323.973a1.378,1.378,0,0,0,.814-2.491c-1.429-1.043-2.924-2-4.37-2.93l-.768-.494c-.478-.3-.947-.6-1.415-.9-1.23-.788-2.5-1.6-3.789-2.369l-5.325-3.051c-.3-.166-.583-.327-.865-.488-.616-.351-1.233-.7-1.864-1.024l-3.961-2.016c-1.4-.708-2.843-1.44-4.29-2.128l-5.634-2.512c-.319-.137-.621-.271-.924-.4-.645-.286-1.291-.57-1.948-.829l-4.317-1.676c-1.413-.546-2.875-1.109-4.337-1.626a184.186,184.186,0,0,0-48.315-10,1.378,1.378,0,1,0-.183,2.75,181.463,181.463,0,0,1,47.586,9.852c1.42.5,2.862,1.058,4.257,1.6l4.3,1.67c.618.244,1.23.515,1.842.785q.465.206.932.408l5.588,2.491c1.386.659,2.816,1.383,4.2,2.083l3.948,2.011c.594.305,1.176.636,1.76.967q.434.247.873.492l5.288,3.03c1.229.732,2.482,1.534,3.693,2.309q.707.454,1.417.906l.764.491c1.412.906,2.872,1.843,4.234,2.837A1.37,1.37,0,0,0,729.057,323.973Z" transform="translate(-636.277 -289.024)" fill="#ddb899"/>
      </g>
      <g id="Group_89" data-name="Group 89" transform="translate(248.316 80.117)">
        <path id="Path_152" data-name="Path 152" d="M615.085,404.621a1.378,1.378,0,0,0,1.187-2.076,173.932,173.932,0,0,0-37.686-44.8,1.378,1.378,0,0,0-1.78,2.1A171.226,171.226,0,0,1,613.9,403.94,1.377,1.377,0,0,0,615.085,404.621Z" transform="translate(-576.318 -357.418)" fill="#ddb899"/>
      </g>
      <g id="Group_90" data-name="Group 90" transform="translate(1.149 47.005)">
        <path id="Path_153" data-name="Path 153" d="M847.506,373.133a1.377,1.377,0,0,0,1.095-.54c2.2-2.869,4.66-5.647,7.039-8.333l1.2-1.352,1.363-1.419c2.435-2.543,4.951-5.171,7.593-7.556,2.908-2.8,6.045-5.411,9.08-7.941l.56-.467,1.139-.879c2.926-2.266,5.951-4.608,9.064-6.676,3.142-2.229,6.468-4.255,9.684-6.214l1.095-.667,1.108-.616c3.275-1.829,6.662-3.718,10.092-5.33L907.9,325c1.783-.873,3.627-1.777,5.47-2.546l1.466-.632c1.446-.626,2.942-1.273,4.419-1.867l5.967-2.241c1.031-.4,2.076-.738,2.963-1.022l3.051-.982a1.378,1.378,0,0,0-.845-2.624l-3.048.982c-.921.295-2.013.653-3.1,1.07l-5.988,2.249c-1.539.619-3.051,1.273-4.513,1.9l-1.446.624c-1.906.8-3.789,1.716-5.609,2.608l-.265.13c-3.5,1.643-6.925,3.557-10.242,5.407l-1.153.643-1.14.694c-3.257,1.983-6.624,4.034-9.811,6.3-3.161,2.1-6.227,4.474-9.191,6.769l-1.777,1.409c-3.071,2.559-6.246,5.206-9.194,8.041-2.684,2.423-5.237,5.088-7.705,7.665l-1.4,1.457-1.233,1.392c-2.412,2.722-4.906,5.536-7.165,8.484a1.378,1.378,0,0,0,1.094,2.217Z" transform="translate(-846.128 -313.024)" fill="#ddb899"/>
      </g>
      <g id="Group_91" data-name="Group 91" transform="translate(25.256 82.908)">
        <path id="Path_154" data-name="Path 154" d="M886.771,388.624a1.374,1.374,0,0,0,.986-.415q.813-.832,1.619-1.672c1.668-1.729,3.392-3.518,5.194-5.135l.985-.917c.857-.8,1.713-1.6,2.586-2.379l5.549-4.669,5.756-4.379,5.955-4.092c.415-.275.854-.544,1.292-.815.242-.149.484-.3.724-.448a1.378,1.378,0,0,0-1.467-2.334c-.232.146-.467.291-.7.435-.466.286-.932.574-1.387.876l-6.032,4.146-5.862,4.459-5.634,4.74c-.917.819-1.789,1.632-2.66,2.445l-.962.9c-1.858,1.669-3.618,3.494-5.32,5.258q-.8.831-1.607,1.658a1.378,1.378,0,0,0,.985,2.342Z" transform="translate(-885.394 -361.159)" fill="#ddb899"/>
      </g>
      <g id="Group_92" data-name="Group 92" transform="translate(189.629 102.262)">
        <path id="Path_155" data-name="Path 155" d="M695.3,413.18a1.378,1.378,0,0,0,.951-2.376c-.432-.411-.858-.829-1.283-1.247-.772-.758-1.57-1.542-2.4-2.285l-3.809-3.347-.769-.621c-2.368-1.907-4.817-3.879-7.393-5.641l-2.038-1.455c-.492-.331-.959-.629-1.428-.926l-2.891-1.849c-.633-.415-1.406-.908-2.245-1.366l-4.372-2.5-4.579-2.316a1.378,1.378,0,0,0-1.243,2.459L666.313,392l4.334,2.476c.777.423,1.492.88,2.09,1.272l2.912,1.862c.447.284.9.568,1.335.864l2.027,1.45c2.511,1.717,4.917,3.655,7.243,5.529l.725.583,3.756,3.3c.777.693,1.551,1.452,2.3,2.187.436.428.871.856,1.313,1.276A1.371,1.371,0,0,0,695.3,413.18Z" transform="translate(-661.04 -387.107)" fill="#ddb899"/>
      </g>
      <g id="Group_93" data-name="Group 93" transform="translate(162.037 113.644)">
        <path id="Path_156" data-name="Path 156" d="M726.524,435.285a1.378,1.378,0,0,0,1.01-2.316l-2.507-2.7-2.692-2.621c-.164-.156-.313-.305-.463-.453-.3-.3-.6-.6-.926-.878l-2.861-2.511c-.44-.392-.9-.8-1.4-1.176l-2.865-2.272c-.475-.4-1-.769-1.511-1.126l-1.54-1.095c-1.325-1.006-2.766-1.918-4.158-2.8-.687-.435-1.373-.87-2.05-1.319-.026-.017-.052-.033-.078-.048l-3.21-1.833c-.2-.113-.391-.223-.582-.334-.355-.207-.711-.413-1.075-.6l-1.666-.836c-.426-.207-.832-.417-1.237-.627-.686-.355-1.4-.722-2.137-1.044l-3.359-1.49c-.536-.257-1.112-.474-1.669-.684l-3.534-1.363c-.395-.148-.784-.274-1.173-.4-.21-.067-.42-.134-.629-.205-.508-.163-.991-.323-1.473-.484-.688-.23-1.375-.458-2.067-.671l-3.594-.984a1.378,1.378,0,0,0-.727,2.659l3.553.971c.63.194,1.3.416,1.962.638.494.165.988.329,1.483.487.2.069.427.141.653.213.344.11.687.219,1.026.347l3.549,1.369c.525.2,1.02.383,1.486.606l3.4,1.511c.665.289,1.3.619,1.978.969.427.221.853.441,1.284.65l1.634.819c.307.159.622.345.938.528.2.119.407.237.613.352l3.16,1.805c.681.451,1.371.888,2.061,1.325,1.405.89,2.734,1.73,4,2.693l1.545,1.1c.527.369.983.687,1.4,1.035L715,424.814c.442.33.832.68,1.247,1.049l2.888,2.534c.279.242.535.5.791.752.163.163.328.326.5.485l2.632,2.56,2.458,2.65A1.373,1.373,0,0,0,726.524,435.285Z" transform="translate(-675.333 -402.367)" fill="#ddb899"/>
      </g>
      <g id="Group_94" data-name="Group 94" transform="translate(38.689 166.043)">
        <path id="Path_157" data-name="Path 157" d="M895.677,504.5a1.378,1.378,0,0,0,1.358-1.153l.214-1.3c.093-.717.31-1.695.562-2.827l.6-2.764c.105-.418.237-.893.371-1.379q.144-.518.289-1.055c.089-.318.179-.661.27-1.008.14-.53.281-1.071.448-1.61l.883-2.694c.355-1.214.812-2.38,1.252-3.509.232-.592.46-1.176.671-1.754.233-.668.521-1.3.8-1.921l2.185-4.71.483-.935c.288-.553.486-.933.577-1.089a1.378,1.378,0,0,0-2.018-1.848c-.244.209-.3.316-1.005,1.669l-1.152,2.225c-.013.025-.025.049-.037.075l-1.546,3.479c-.3.67-.615,1.363-.883,2.127-.2.542-.418,1.106-.641,1.677-.463,1.185-.942,2.41-1.317,3.7l-.878,2.673c-.185.6-.337,1.178-.486,1.745-.087.332-.173.66-.264.982-.1.367-.192.709-.285,1.046-.142.509-.278,1-.4,1.49l-.6,2.791c-.266,1.2-.5,2.232-.6,3.025l-.206,1.246a1.378,1.378,0,0,0,1.36,1.6Z" transform="translate(-894.298 -472.618)" fill="#ddb899"/>
      </g>
      <g id="Group_95" data-name="Group 95" transform="translate(293.262 166.136)">
        <path id="Path_158" data-name="Path 158" d="M567.17,501.036l.055,0a.459.459,0,0,0,.4-.511,166.023,166.023,0,0,0-5.7-27.452.46.46,0,0,0-.882.263,164.991,164.991,0,0,1,5.667,27.3A.459.459,0,0,0,567.17,501.036Z" transform="translate(-561.029 -472.742)" fill="#adadad"/>
      </g>
      <g id="Group_96" data-name="Group 96" transform="translate(279.3 150.423)">
        <path id="Path_159" data-name="Path 159" d="M583.172,522.437a.46.46,0,0,0,.459-.453l.163-6.652c.013-.945-.013-1.968-.042-3.052-.012-.5-.026-1.024-.035-1.557-.026-3.3-.317-7-.7-11.487l-.775-6.44c-.259-1.713-.556-3.456-.845-5.141l-.25-1.468a162.192,162.192,0,0,0-6.411-23.813c-.317-.841-.613-1.638-.894-2.393-.774-2.084-1.442-3.884-2.048-5.209l-1.211-2.818a.46.46,0,1,0-.845.363l1.215,2.828c.6,1.3,1.259,3.089,2.026,5.157.281.756.577,1.555.892,2.388a161.055,161.055,0,0,1,6.369,23.657l.249,1.463c.287,1.682.585,3.421.84,5.11l.771,6.41c.375,4.454.665,8.132.69,11.405.01.542.023,1.063.037,1.569.028,1.074.053,2.088.041,3.012L582.738,521c-.017.626-.026.966-.026.973A.46.46,0,0,0,583.172,522.437Z" transform="translate(-569.708 -451.675)" fill="#adadad"/>
      </g>
      <g id="Group_97" data-name="Group 97" transform="translate(108.302 142.917)">
        <path id="Path_160" data-name="Path 160" d="M745.154,448.9a.458.458,0,0,0,.191-.042A70.457,70.457,0,0,1,771.9,442.58a68.678,68.678,0,0,1,26.742,4.326.46.46,0,0,0,.323-.862,69.354,69.354,0,0,0-27.1-4.383,71.389,71.389,0,0,0-26.9,6.359.46.46,0,0,0,.191.878Z" transform="translate(-744.694 -441.612)" fill="#d3d3d3"/>
      </g>
      <g id="Group_98" data-name="Group 98" transform="translate(119.091 149.864)">
        <path id="Path_161" data-name="Path 161" d="M787.746,457.85a1.838,1.838,0,0,0,.628-3.565A59.008,59.008,0,0,0,779.1,451.9l-1.165-.2a10.256,10.256,0,0,0-1.344-.2c-.681-.073-1.428-.166-2.174-.272-.055-.008-.11-.013-.165-.016-.518-.028-1.037-.068-1.555-.108-1.043-.081-2.118-.169-3.234-.151a57.464,57.464,0,0,0-9.607.508,62.49,62.49,0,0,0-9.477,1.951,1.837,1.837,0,1,0,1.055,3.519,59.2,59.2,0,0,1,8.941-1.832,54.113,54.113,0,0,1,9.071-.472c1.013-.012,1.96.062,2.965.14.521.041,1.043.081,1.564.11q1.149.164,2.3.284a7.856,7.856,0,0,1,.981.151l1.188.21a55.341,55.341,0,0,1,8.673,2.223A1.83,1.83,0,0,0,787.746,457.85Z" transform="translate(-749.067 -450.926)" fill="#7bbbb1"/>
      </g>
      <g id="Group_99" data-name="Group 99" transform="translate(72.068 129.526)">
        <path id="Path_162" data-name="Path 162" d="M787.654,455.85a.457.457,0,0,0,.359-.174,82.122,82.122,0,0,1,25.66-21.488,83.3,83.3,0,0,1,32.2-9.611.46.46,0,1,0-.077-.916,84.214,84.214,0,0,0-32.559,9.718A83.035,83.035,0,0,0,787.293,455.1a.46.46,0,0,0,.36.745Z" transform="translate(-787.194 -423.659)" fill="#d3d3d3"/>
      </g>
      <g id="Group_100" data-name="Group 100" transform="translate(173.737 137.45)">
        <path id="Path_163" data-name="Path 163" d="M718.524,461.861a.459.459,0,0,0,.373-.728,87.267,87.267,0,0,0-14.234-15.356,88.847,88.847,0,0,0-17.721-11.447.459.459,0,1,0-.4.825,87.911,87.911,0,0,1,17.535,11.325,86.348,86.348,0,0,1,14.079,15.191A.458.458,0,0,0,718.524,461.861Z" transform="translate(-686.281 -434.283)" fill="#adadad"/>
      </g>
      <g id="Group_101" data-name="Group 101" transform="translate(321.626 104.071)">
        <path id="Path_164" data-name="Path 164" d="M519.659,522.915a.458.458,0,0,0,.456-.409,219.931,219.931,0,0,0,1.041-34.5,217.135,217.135,0,0,0-4.532-34.153,213.89,213.89,0,0,0-24.992-64.088.46.46,0,0,0-.793.465,212.961,212.961,0,0,1,24.886,63.814,216.123,216.123,0,0,1,4.513,34.009,219.064,219.064,0,0,1-1.036,34.358.459.459,0,0,0,.407.507A.379.379,0,0,0,519.659,522.915Z" transform="translate(-490.775 -389.532)" fill="#d3d3d3"/>
      </g>
      <g id="Group_102" data-name="Group 102" transform="translate(269.754 58.203)">
        <path id="Path_165" data-name="Path 165" d="M581.253,408.424a.439.439,0,0,0,.17-.033.459.459,0,0,0,.257-.6A203.043,203.043,0,0,0,524.7,328.149a.46.46,0,0,0-.6.7,202.094,202.094,0,0,1,56.728,79.288A.459.459,0,0,0,581.253,408.424Z" transform="translate(-523.938 -328.038)" fill="#adadad"/>
      </g>
      <g id="Group_103" data-name="Group 103" transform="translate(307.115 120.989)">
        <path id="Path_166" data-name="Path 166" d="M538.752,520.626a2.757,2.757,0,0,0,2.747-2.567A196.79,196.79,0,0,0,519.736,413.7a2.756,2.756,0,1,0-4.889,2.543A191.293,191.293,0,0,1,536,517.681a2.756,2.756,0,0,0,2.561,2.938C538.625,520.623,538.689,520.626,538.752,520.626Z" transform="translate(-514.535 -412.214)" fill="#adadad"/>
      </g>
      <g id="Group_104" data-name="Group 104" transform="translate(274.625 75.898)">
        <path id="Path_167" data-name="Path 167" d="M577.391,413.222a2.759,2.759,0,0,0,2.517-3.877A195.235,195.235,0,0,0,541.68,352.6a2.756,2.756,0,1,0-3.958,3.836,189.747,189.747,0,0,1,37.15,55.149A2.759,2.759,0,0,0,577.391,413.222Z" transform="translate(-536.945 -351.761)" fill="#adadad"/>
      </g>
      <g id="Group_105" data-name="Group 105" transform="translate(86.298 50.416)">
        <path id="Path_168" data-name="Path 168" d="M812.249,328.53a2.758,2.758,0,0,0,.835-.131l2.735-.87,2.767-.762c.546-.144,1.121-.3,1.695-.456,1.324-.36,2.575-.7,3.847-.991l5.684-1.244c1.227-.271,2.463-.475,3.772-.692.625-.1,1.25-.207,1.874-.318a2.756,2.756,0,0,0-.964-5.426c-.6.107-1.207.207-1.811.307-1.321.219-2.687.445-4.052.746l-5.709,1.249c-1.405.321-2.769.692-4.085,1.049-.562.153-1.123.305-1.685.453l-2.846.784-.1.031-2.787.886a2.757,2.757,0,0,0,.834,5.384Z" transform="translate(-809.492 -317.597)" fill="#dcdcdc"/>
      </g>
      <g id="Group_106" data-name="Group 106" transform="translate(46.184 78.599)">
        <path id="Path_169" data-name="Path 169" d="M849.07,381.622a2.748,2.748,0,0,0,1.7-.59,153.48,153.48,0,0,1,16.642-11.443,151.171,151.171,0,0,1,18.075-8.9,2.756,2.756,0,0,0-2.086-5.1,156.8,156.8,0,0,0-18.766,9.24A158.674,158.674,0,0,0,847.364,376.7a2.756,2.756,0,0,0,1.706,4.922Z" transform="translate(-846.312 -355.383)" fill="#dcdcdc"/>
      </g>
      <g id="Group_107" data-name="Group 107" transform="translate(103.445 70.192)">
        <path id="Path_170" data-name="Path 170" d="M808.746,351.243a2.8,2.8,0,0,0,.59-.063l4.08-.89c.823-.175,1.674-.316,2.574-.465.478-.078.956-.158,1.433-.243a2.756,2.756,0,1,0-.966-5.426c-.455.081-.911.157-1.368.232-.921.152-1.874.31-2.834.515l-4.093.892a2.756,2.756,0,0,0,.584,5.449Z" transform="translate(-805.992 -344.112)" fill="#adadad"/>
      </g>
      <g id="Group_108" data-name="Group 108" transform="translate(29.042 84.629)">
        <path id="Path_171" data-name="Path 171" d="M819.563,417.551a.46.46,0,0,0,.373-.19c.406-.561.806-1.126,1.206-1.692.739-1.047,1.505-2.13,2.3-3.16l3.722-4.7,3.943-4.493c.874-.961,1.807-1.915,2.708-2.837.48-.491.96-.982,1.434-1.477a131.561,131.561,0,0,1,61.833-34.635.459.459,0,1,0-.217-.893,132.491,132.491,0,0,0-62.272,34.884c-.48.5-.958.99-1.436,1.478-.908.928-1.847,1.887-2.737,2.868l-3.964,4.516-3.74,4.72c-.807,1.049-1.578,2.139-2.323,3.193-.4.563-.8,1.126-1.2,1.684a.46.46,0,0,0,.371.729Z" transform="translate(-819.105 -363.466)" fill="#adadad"/>
      </g>
      <g id="Group_109" data-name="Group 109" transform="translate(185.208 89.166)">
        <path id="Path_172" data-name="Path 172" d="M704.425,384.495a1.378,1.378,0,0,0,.756-2.532,133.669,133.669,0,0,0-23.733-12.315,1.378,1.378,0,0,0-1.017,2.561,130.88,130.88,0,0,1,23.241,12.061A1.376,1.376,0,0,0,704.425,384.495Z" transform="translate(-679.562 -369.55)" fill="#c48e61"/>
      </g>
      <g id="Group_110" data-name="Group 110" transform="translate(60.418 97.617)">
        <path id="Path_173" data-name="Path 173" d="M839.162,402.89a2.744,2.744,0,0,0,1.668-.563l3.234-2.461,3.353-2.3c.2-.133.41-.28.621-.427.333-.23.665-.462,1.008-.679l1.728-1.064c.415-.251.849-.52,1.281-.788.744-.463,1.447-.9,2.164-1.307.527-.287,1.093-.6,1.66-.914,1.858-1.028,3.612-2,5.442-2.846.036-.016.072-.034.107-.052,1.913-.986,3.877-1.828,5.957-2.719l1.406-.606a2.756,2.756,0,0,0-2.189-5.058l-1.389.6c-2.058.883-4.187,1.795-6.258,2.86-1.992.923-3.9,1.98-5.745,3q-.835.462-1.669.919c-.855.484-1.638.972-2.4,1.443-.412.257-.825.514-1.241.765l-1.78,1.1c-.436.276-.83.548-1.222.82-.194.134-.388.269-.582.4l-3.427,2.35c-.038.026-.075.052-.112.08l-3.288,2.5a2.756,2.756,0,0,0,1.672,4.949Z" transform="translate(-836.404 -380.88)" fill="#adadad"/>
      </g>
      <g id="Group_111" data-name="Group 111" transform="translate(118.189 99.662)">
        <path id="Path_174" data-name="Path 174" d="M753.328,386.235a.46.46,0,0,0,.078-.007,113.634,113.634,0,0,1,19-1.688,115.894,115.894,0,0,1,18.508,1.491.467.467,0,0,0,.527-.38.461.461,0,0,0-.38-.527,118.079,118.079,0,0,0-18.908-1.5,112.257,112.257,0,0,0-18.908,1.7.46.46,0,0,0,.078.913Z" transform="translate(-752.868 -383.622)" fill="#adadad"/>
      </g>
      <g id="Group_112" data-name="Group 112" transform="translate(53.116 118.117)">
        <path id="Path_175" data-name="Path 175" d="M834.006,446.355a2.753,2.753,0,0,0,2.243-1.152,98.427,98.427,0,0,1,17.276-18.285c.028-.022.054-.046.081-.069.473-.424,1.012-.829,1.584-1.257.271-.2.542-.406.809-.615.3-.221.64-.484.98-.748.514-.4,1-.771,1.487-1.11.573-.38,1.187-.8,1.8-1.229,1.162-.806,2.26-1.568,3.4-2.228.43-.259.807-.495,1.185-.729.526-.327,1.052-.656,1.587-.967l2.778-1.524c.172-.093.357-.2.542-.3.259-.146.517-.292.782-.425L874.9,413.6a2.756,2.756,0,0,0-2.42-4.953l-4.364,2.127c-.374.186-.715.377-1.054.568-.159.089-.317.178-.477.265l-2.854,1.566c-.643.374-1.216.731-1.787,1.087-.357.222-.714.445-1.074.663-1.293.745-2.537,1.608-3.741,2.443-.581.4-1.161.806-1.75,1.2-.656.452-1.221.89-1.768,1.314-.311.24-.623.481-.939.716-.29.224-.538.409-.785.594-.629.471-1.278.958-1.917,1.528A103.9,103.9,0,0,0,831.767,442a2.756,2.756,0,0,0,2.239,4.36Z" transform="translate(-831.252 -408.363)" fill="#ececec"/>
      </g>
      <g id="Group_113" data-name="Group 113" transform="translate(63.691 105.717)">
        <path id="Path_176" data-name="Path 176" d="M826.846,413.989a.459.459,0,0,0,.3-.112,112.93,112.93,0,0,1,37.174-21.244.459.459,0,1,0-.3-.87,113.828,113.828,0,0,0-37.479,21.419.459.459,0,0,0,.3.807Z" transform="translate(-826.387 -391.739)" fill="#adadad"/>
      </g>
      <g id="Group_114" data-name="Group 114" transform="translate(104.716 111.839)">
        <path id="Path_177" data-name="Path 177" d="M793.312,405.63a.482.482,0,0,0,.147-.024,103.488,103.488,0,0,1,21.22-4.745.46.46,0,0,0,.4-.509.468.468,0,0,0-.509-.4,104.455,104.455,0,0,0-21.408,4.786.46.46,0,0,0,.147.9Z" transform="translate(-792.852 -399.947)" fill="#adadad"/>
      </g>
      <g id="Group_115" data-name="Group 115" transform="translate(219.027 139.138)">
        <path id="Path_178" data-name="Path 178" d="M661.975,468.031a.459.459,0,0,0,.423-.641,105.777,105.777,0,0,0-8.522-16.181,114.069,114.069,0,0,0-11.1-14.51.46.46,0,0,0-.683.615,113.04,113.04,0,0,1,11.01,14.4,104.855,104.855,0,0,1,8.448,16.044A.459.459,0,0,0,661.975,468.031Z" transform="translate(-641.977 -436.546)" fill="#adadad"/>
      </g>
      <g id="Group_116" data-name="Group 116" transform="translate(245.799 142.06)">
        <path id="Path_179" data-name="Path 179" d="M602.323,583.568a2.756,2.756,0,0,0,2.338-1.293c.134-.216.272-.428.409-.641.286-.444.572-.89.839-1.346l1.138-1.991c.265-.473.525-.926.784-1.378.491-.855,1-1.737,1.478-2.643.374-.75.723-1.434,1.07-2.117,1.018-2,2.071-4.066,2.972-6.22a127.721,127.721,0,0,0,6.339-17.334l1.212-4.416c.008-.029.015-.058.022-.087.233-.971.448-1.947.663-2.922q.168-.766.341-1.533l.168-.759c.114-.509.228-1.017.329-1.528l.4-2.3c.086-.527.174-1.029.263-1.532.173-.987.352-2.008.488-3.049a145.045,145.045,0,0,0,1.314-18.386A133.1,133.1,0,0,0,605,441.77a2.757,2.757,0,0,0-4.689,2.9,127.552,127.552,0,0,1,19.063,67.389,139.607,139.607,0,0,1-1.264,17.684c-.122.944-.283,1.861-.454,2.832-.093.524-.184,1.049-.27,1.575l-.38,2.209c-.079.4-.184.861-.287,1.323l-.172.773c-.112.5-.227,1.017-.342,1.537-.2.929-.409,1.857-.63,2.782l-1.187,4.325a122.133,122.133,0,0,1-6.066,16.585c-.013.028-.026.057-.039.086-.826,1.977-1.792,3.876-2.816,5.887-.355.7-.711,1.4-1.059,2.1-.412.773-.885,1.6-1.358,2.418-.268.468-.536.936-.8,1.407l-1.113,1.949c-.213.364-.457.741-.7,1.12-.149.233-.3.465-.445.7a2.757,2.757,0,0,0,2.333,4.22Z" transform="translate(-599.569 -440.464)" fill="#d3d3d3"/>
      </g>
      <g id="Group_117" data-name="Group 117" transform="translate(118.236 175.643)">
        <path id="Path_180" data-name="Path 180" d="M789.242,494.1a1.378,1.378,0,0,0,.715-2.558c-.252-.152-.5-.319-.739-.486l-.289-.2a1.227,1.227,0,0,0-.157-.092c-.345-.17-.686-.358-1.016-.559-.095-.053-.146-.087-.2-.121a4.538,4.538,0,0,0-.454-.265l-.6-.277c-.165-.076-.322-.163-.48-.25-.208-.114-.416-.227-.629-.326-.04-.018-.08-.035-.121-.049-.284-.1-.578-.237-.889-.382a10.118,10.118,0,0,0-1.47-.59c-.084-.028-.2-.082-.314-.134a4.91,4.91,0,0,0-.908-.328c-.284-.082-.624-.193-.957-.318a3.992,3.992,0,0,0-.8-.239l-.559-.145c-.089-.024-.193-.057-.3-.09a5.936,5.936,0,0,0-1.02-.248c-.345-.066-.694-.149-1.039-.246-.048-.013-.1-.025-.148-.034-.162-.026-.325-.049-.488-.072-.226-.032-.452-.063-.675-.11l-.612-.125a1.362,1.362,0,0,0-.157-.022l-.619-.054c-.172-.013-.332-.039-.492-.065-.256-.04-.512-.079-.771-.095-.378-.008-.692-.035-1.007-.06a13.164,13.164,0,0,0-1.587-.063,38.377,38.377,0,0,0-19.995,5.109,1.378,1.378,0,0,0,1.387,2.382,35.65,35.65,0,0,1,18.582-4.735.828.828,0,0,0,.1,0,10.542,10.542,0,0,1,1.295.054c.372.03.744.059,1.117.066.112.008.282.037.453.064.231.036.463.072.7.089l.529.046.528.107c.275.057.559.1.844.139q.178.025.354.052c.41.113.825.21,1.235.288.033.006.066.01.1.014a3.515,3.515,0,0,1,.568.148c.138.043.277.087.417.125l.612.157.073.017a1.89,1.89,0,0,1,.29.076c.027.013.055.025.083.035.416.156.844.3,1.276.419a2.727,2.727,0,0,1,.472.178,6.442,6.442,0,0,0,.63.251,8.037,8.037,0,0,1,1.114.453c.336.157.683.318,1.064.457.139.068.276.143.412.219.216.118.431.234.652.336l.568.263c.033.016.088.056.146.093.1.064.2.128.306.187.33.2.707.409,1.091.6l.2.137c.286.195.573.39.868.569A1.371,1.371,0,0,0,789.242,494.1Z" transform="translate(-749.785 -485.489)" fill="#adadad"/>
      </g>
      <g id="Group_118" data-name="Group 118" transform="translate(159.349 18.658)">
        <path id="Path_181" data-name="Path 181" d="M720.851,303.631a2.756,2.756,0,0,0,1.351-5.16,196.381,196.381,0,0,0-71.241-23.43,2.756,2.756,0,1,0-.679,5.47A190.791,190.791,0,0,1,719.5,303.278,2.752,2.752,0,0,0,720.851,303.631Z" transform="translate(-647.865 -275.021)" fill="#d3d3d3"/>
      </g>
      <g id="Group_119" data-name="Group 119" transform="translate(208.309 186.228)">
        <path id="Path_182" data-name="Path 182" d="M671.352,559.35a2.758,2.758,0,0,0,2.553-1.714,81.806,81.806,0,0,0,1.991-56.05,2.756,2.756,0,0,0-5.244,1.7,76.271,76.271,0,0,1-1.851,52.265,2.757,2.757,0,0,0,2.551,3.8Z" transform="translate(-668.596 -499.679)" fill="#adadad"/>
      </g>
      <g id="Group_120" data-name="Group 120" transform="translate(236.971 143.35)">
        <path id="Path_183" data-name="Path 183" d="M636.562,471.571a2.759,2.759,0,0,0,2.575-3.737,122.442,122.442,0,0,0-12.471-24.413,2.756,2.756,0,0,0-4.585,3.059,116.95,116.95,0,0,1,11.9,23.314A2.757,2.757,0,0,0,636.562,471.571Z" transform="translate(-621.618 -442.193)" fill="#adadad"/>
      </g>
      <g id="Group_121" data-name="Group 121" transform="translate(46.88 170.836)">
        <path id="Path_184" data-name="Path 184" d="M884.009,527.462l.065,0a1.837,1.837,0,0,0,1.772-1.9,88.707,88.707,0,0,1,5.009-33.454l1.029-2.654c.074-.188.145-.382.218-.576.092-.248.183-.495.284-.738l1.723-3.884,1.292-2.536a1.838,1.838,0,0,0-3.274-1.67l-1.316,2.584c-.017.032-.031.064-.046.1l-1.751,3.952c-.141.339-.248.627-.355.914-.066.175-.131.349-.2.524l-1.047,2.7c-.011.028-.021.056-.031.084a92.4,92.4,0,0,0-5.208,34.785A1.837,1.837,0,0,0,884.009,527.462Z" transform="translate(-882.107 -479.043)" fill="#badcd6"/>
      </g>
      <g id="Group_122" data-name="Group 122" transform="translate(144.587 163.521)">
        <path id="Path_185" data-name="Path 185" d="M752.006,509.322a2.755,2.755,0,0,0,2.7-3.327,20.692,20.692,0,0,0-.632-2.208c-.127-.386-.255-.773-.362-1.167-.019-.07-.041-.14-.066-.208-.1-.266-.2-.529-.3-.792-.1-.246-.2-.492-.282-.742-.056-.153-.086-.241-.116-.33-.066-.195-.134-.389-.21-.58-.016-.041-.034-.08-.051-.12l-.318-.7a46.941,46.941,0,0,0-3.156-6.221c-.021-.037-.044-.074-.067-.11q-.4-.627-.769-1.278c-.049-.085-.1-.168-.157-.248l-.181-.254c-.24-.332-.477-.663-.7-1-.014-.022-.029-.044-.043-.065-.041-.059-.079-.12-.117-.181-.131-.209-.266-.415-.416-.61l-.544-.683c-.136-.168-.244-.32-.351-.471a11.789,11.789,0,0,0-.726-.938c-.281-.311-.522-.6-.763-.892-.447-.536-.908-1.09-1.461-1.635a20.737,20.737,0,0,0-1.5-1.543c-.283-.272-.568-.542-.837-.827l-.06-.062c-.3-.3-.6-.55-.867-.771-.151-.125-.3-.249-.445-.383l-.637-.584a6.039,6.039,0,0,0-.647-.521c-.047-.034-.1-.067-.14-.1l-.063-.05q-.61-.467-1.2-.966c-.059-.051-.119-.1-.183-.144-.21-.151-.424-.3-.639-.445-.241-.166-.483-.33-.718-.5l-.676-.508c-.042-.031-.084-.061-.127-.09-.174-.115-.352-.222-.53-.328-.083-.049-.165-.1-.247-.149-.468-.292-.905-.579-1.337-.877a2.783,2.783,0,0,0-.263-.162l-.1-.057c-.428-.23-.853-.459-1.271-.706l-.7-.425a2.521,2.521,0,0,0-.244-.131l-.754-.357c-.247-.118-.5-.251-.747-.383-.225-.119-.451-.239-.678-.352-.07-.036-.142-.068-.215-.1q-.667-.266-1.314-.567a11.17,11.17,0,0,0-1.45-.6l-.334-.122-.08-.028c-.157-.053-.308-.121-.461-.186a9.6,9.6,0,0,0-1.238-.452c-.407-.121-.857-.269-1.306-.43a7.3,7.3,0,0,0-1.12-.337l-.653-.171a18.5,18.5,0,0,0-2.053-.52c-.4-.084-.793-.165-1.184-.275a2.756,2.756,0,0,0-1.5,5.3c.541.153,1.052.261,1.548.364a13.452,13.452,0,0,1,1.5.374c.064.022.129.043.195.059l.794.21.11.026a2.247,2.247,0,0,1,.328.09l.118.045c.575.207,1.152.4,1.714.562a5.053,5.053,0,0,1,.59.225c.269.114.538.226.813.321l.357.13a6.792,6.792,0,0,1,.787.315c.043.024.087.046.131.066.512.24,1.032.466,1.55.675.157.081.314.163.471.247.317.168.635.336.96.49l.637.3.6.363c.489.291.97.552,1.454.812q.7.48,1.414.926c.1.066.236.145.366.222.079.047.159.093.236.143l.611.458c.3.224.6.431.9.638.151.1.3.208.453.314q.64.543,1.3,1.052c.112.089.228.174.343.257.048.034.1.067.141.1l.632.581c.2.188.434.385.668.58.163.136.328.269.48.415.322.339.659.663,1,.986a14.956,14.956,0,0,1,1.164,1.2,2.834,2.834,0,0,0,.214.23,16.421,16.421,0,0,1,1.158,1.3c.29.348.58.7.885,1.032.114.13.235.307.36.48.175.245.353.489.542.723l.495.619c.014.022.053.088.094.154.075.119.151.236.23.352.261.4.537.782.814,1.17l.092.128c.265.465.542.923.824,1.364a41.682,41.682,0,0,1,2.793,5.493c.018.045.036.09.057.135l.316.691c.033.087.061.174.091.261.048.142.1.283.149.422.087.256.213.575.338.894.072.181.143.362.211.546.125.443.268.88.411,1.318a16.212,16.212,0,0,1,.476,1.631A2.756,2.756,0,0,0,752.006,509.322Z" transform="translate(-712.383 -469.236)" fill="#ececec"/>
      </g>
      <g id="Group_123" data-name="Group 123" transform="translate(139.428 119.068)">
        <path id="Path_186" data-name="Path 186" d="M760.506,422.376a1.838,1.838,0,0,0,.8-3.492,93.177,93.177,0,0,0-18.258-6.6A94.229,94.229,0,0,0,723.8,409.64a1.837,1.837,0,0,0-.122,3.673,88.863,88.863,0,0,1,36.029,8.879A1.822,1.822,0,0,0,760.506,422.376Z" transform="translate(-721.904 -409.639)" fill="#7bbbb1"/>
      </g>
    </g>
  </g>
</svg>
