<svg xmlns="http://www.w3.org/2000/svg" width="18" height="18" viewBox="0 0 18 18">
  <g id="phone-outline" transform="translate(12)">
    <g id="phone-outline-2" data-name="phone-outline" transform="translate(-12)">
      <g id="phone">
        <rect id="Rectangle_15913" data-name="Rectangle 15913" width="18" height="18" fill="#cca079" opacity="0"/>
        <path id="phoneee" d="M5.48,17A11.565,11.565,0,0,0,17.03,5.45,3.45,3.45,0,0,0,13.58,2,2.955,2.955,0,0,0,13,2.052a2.842,2.842,0,0,0-.54.135.75.75,0,0,0-.488.562l-1.028,4.5a.75.75,0,0,0,.2.69c.1.105.1.112,1.028.593A7.433,7.433,0,0,1,8.518,12.2c-.488-.93-.495-.937-.6-1.035a.75.75,0,0,0-.69-.195L2.728,12a.75.75,0,0,0-.54.488,3.255,3.255,0,0,0-.143.547A3.577,3.577,0,0,0,2,13.6,3.45,3.45,0,0,0,5.48,17Zm8.1-13.5a1.958,1.958,0,0,1,1.95,1.95A10.057,10.057,0,0,1,5.48,15.5a1.958,1.958,0,0,1-1.95-1.95V13.3l3.48-.8.218.412c.338.653.585,1.125,1.215.87a8.888,8.888,0,0,0,5.385-5.408c.27-.585-.24-.855-.885-1.193l-.413-.2.8-3.48Z" transform="translate(-0.53 -0.5)" fill="#cca079"/>
      </g>
    </g>
  </g>
</svg>
