<svg xmlns="http://www.w3.org/2000/svg" xmlns:xlink="http://www.w3.org/1999/xlink" width="50.526" height="48" viewBox="0 0 50.526 48">
  <defs>
    <clipPath id="clip-path">
      <rect id="Rectangle_16087" data-name="Rectangle 16087" width="50.526" height="48" transform="translate(968 208)" stroke="#007066" stroke-width="1"/>
    </clipPath>
  </defs>
  <g id="Picture2" transform="translate(-968 -208)" clip-path="url(#clip-path)">
    <path id="Path_59516" data-name="Path 59516" d="M981,262v10.526" transform="translate(-7.526 -31.263)" fill="none" stroke="#007066" stroke-miterlimit="8" stroke-width="1" fill-rule="evenodd"/>
    <path id="Path_59517" data-name="Path 59517" d="M1002.684,227,993,232.895" transform="translate(-14.474 -11)" fill="none" stroke="#007066" stroke-miterlimit="8" stroke-width="1" fill-rule="evenodd"/>
    <path id="Path_59518" data-name="Path 59518" d="M1050.105,232.895,1040,227" transform="translate(-41.684 -11)" fill="none" stroke="#007066" stroke-miterlimit="8" stroke-width="1" fill-rule="evenodd"/>
    <path id="Path_59519" data-name="Path 59519" d="M1075,272.526V262" transform="translate(-61.947 -31.263)" fill="none" stroke="#007066" stroke-miterlimit="8" stroke-width="1" fill-rule="evenodd"/>
    <path id="Path_59520" data-name="Path 59520" d="M1025.309,211.265a4.483,4.483,0,1,1-6.312-.595A4.483,4.483,0,0,1,1025.309,211.265Z" transform="translate(-28.584 -0.95)" fill="none" stroke="#cca079" stroke-linejoin="round" stroke-miterlimit="10" stroke-width="1" fill-rule="evenodd"/>
    <path id="Path_59521" data-name="Path 59521" d="M1070.031,237.327a4.483,4.483,0,1,1-5.141,3.71A4.484,4.484,0,0,1,1070.031,237.327Z" transform="translate(-56.06 -16.945)" fill="none" stroke="#cca079" stroke-linejoin="round" stroke-miterlimit="10" stroke-width="1" fill-rule="evenodd"/>
    <path id="Path_59522" data-name="Path 59522" d="M975.425,237.4a4.483,4.483,0,1,1-5.389,3.339A4.483,4.483,0,0,1,975.425,237.4Z" transform="translate(-1.109 -16.949)" fill="none" stroke="#cca079" stroke-linejoin="round" stroke-miterlimit="10" stroke-width="1" fill-rule="evenodd"/>
    <path id="Path_59523" data-name="Path 59523" d="M978.842,294.632A4.426,4.426,0,1,1,974.421,290,4.53,4.53,0,0,1,978.842,294.632Z" transform="translate(-1.158 -47.474)" fill="none" stroke="#cca079" stroke-linejoin="round" stroke-miterlimit="10" stroke-width="1" fill-rule="evenodd"/>
    <path id="Path_59524" data-name="Path 59524" d="M1073.842,294.632a4.426,4.426,0,1,1-4.421-4.632A4.53,4.53,0,0,1,1073.842,294.632Z" transform="translate(-56.158 -47.474)" fill="none" stroke="#cca079" stroke-linejoin="round" stroke-miterlimit="10" stroke-width="1" fill-rule="evenodd"/>
    <path id="Path_59525" data-name="Path 59525" d="M996.789,257.105,993,255" transform="translate(-14.474 -27.211)" fill="none" stroke="#007066" stroke-linejoin="round" stroke-miterlimit="10" stroke-width="1" fill-rule="evenodd"/>
    <path id="Path_59526" data-name="Path 59526" d="M1058.21,255l-4.21,2.105" transform="translate(-49.789 -27.211)" fill="none" stroke="#007066" stroke-linejoin="round" stroke-miterlimit="10" stroke-width="1" fill-rule="evenodd"/>
    <path id="Path_59527" data-name="Path 59527" d="M1056,291l3.368,2.105" transform="translate(-50.947 -48.053)" fill="none" stroke="#007066" stroke-linejoin="round" stroke-miterlimit="10" stroke-width="1" fill-rule="evenodd"/>
    <path id="Path_59528" data-name="Path 59528" d="M993,292.684,995.947,291" transform="translate(-14.474 -48.053)" fill="none" stroke="#007066" stroke-linejoin="round" stroke-miterlimit="10" stroke-width="1" fill-rule="evenodd"/>
    <path id="Path_59529" data-name="Path 59529" d="M1032.554,265l-2.017-1.323s2.109-7.374,2.636-9.517-1.411-7.786-1.411-7.786l-.627-.272a5.615,5.615,0,0,0,.75-1.84c.093-.567-.493-.5-.493-.5l-2.754.725a3.2,3.2,0,0,0-.274.416l-.375-.163L1027,245l.531-4s5.794,2.105,7.28,5.5C1036.381,250.059,1036.533,252.709,1032.554,265Z" transform="translate(-34.158 -19.105)" fill="none" stroke="#007066" stroke-linejoin="round" stroke-miterlimit="10" stroke-width="1" fill-rule="evenodd"/>
    <path id="Path_59530" data-name="Path 59530" d="M1021.644,258.562c-.526,2.173-2.674,9.65-2.674,9.65l2.051,1.341s-.345,1.119-.808,1.341h-9.886c-3.175-2.46-2.425-6.649.093-8.822a18.739,18.739,0,0,0,4.105-5.944c-.779.322-3.048-.575-3.048-.575l-.838.1-1.057.832-1.865-.927-.716-1.088.867-3.2,7.512-2,1.006-.268.383.165c-.421.732-.914,2.158,1.545,2.135a1.682,1.682,0,0,0,1.259-.916l.64.276C1020.217,250.671,1022.175,256.389,1021.644,258.562Z" transform="translate(-22.579 -23.737)" fill="none" stroke="#007066" stroke-linejoin="round" stroke-miterlimit="10" stroke-width="1" fill-rule="evenodd"/>
    <path id="Path_59531" data-name="Path 59531" d="M1033.2,247.523a5.834,5.834,0,0,1-.813,1.908,1.81,1.81,0,0,1-1.356.936c-2.64.024-2.109-1.434-1.659-2.182a3.586,3.586,0,0,1,.295-.431l3.006-.752C1032.662,247,1033.3,246.935,1033.2,247.523Z" transform="translate(-35.315 -22.579)" fill="none" stroke="#007066" stroke-linejoin="round" stroke-miterlimit="10" stroke-width="1" fill-rule="evenodd"/>
    <path id="Path_59532" data-name="Path 59532" d="M1015.107,256s-2.749,1.128-1.962,2.105" transform="translate(-26.055 -27.789)" fill="none" stroke="#007066" stroke-linejoin="round" stroke-miterlimit="10" stroke-width="1" fill-rule="evenodd"/>
    <path id="Path_59533" data-name="Path 59533" d="M1022.34,307.316s2.139-2.037-.733-3.645c0,0-2.109-1.091-2.08-2.67H1008.58c.029,1.579-2.08,2.67-2.08,2.67-2.872,1.609-.733,3.645-.733,3.645Z" transform="translate(-21.422 -53.842)" fill="none" stroke="#007066" stroke-miterlimit="8" stroke-width="1" fill-rule="evenodd"/>
    <path id="Path_59534" data-name="Path 59534" d="M1023.842,316l-.615,1.684h-15.613L1007,316Z" transform="translate(-22.579 -62.526)" fill="none" stroke="#007066" stroke-linejoin="round" stroke-miterlimit="10" stroke-width="1" fill-rule="evenodd"/>
  </g>
</svg>
