<svg xmlns="http://www.w3.org/2000/svg" width="536" height="385" viewBox="0 0 536 385">
  <g id="plant" transform="translate(-278 -1533)">
    <g id="Rectangle_11838" data-name="Rectangle 11838" transform="translate(278 1533)" fill="#fff" stroke="#e2e2e2" stroke-width="5">
      <rect width="536" height="385" stroke="none"/>
      <rect x="2.5" y="2.5" width="531" height="380" fill="none"/>
    </g>
    <g id="Group_25102" data-name="Group 25102" transform="translate(487 1657)">
      <circle id="Ellipse_220" data-name="Ellipse 220" cx="72.5" cy="72.5" r="72.5" transform="translate(-13 -42)" fill="#bbb" opacity="0.25"/>
      <path id="Path_52781" data-name="Path 52781" d="M152.623,3.456A3.459,3.459,0,0,0,149.162,0a44.242,44.242,0,0,0-40.718,27.047A44.244,44.244,0,0,0,67.723,0a3.456,3.456,0,0,0-3.456,3.456A44.237,44.237,0,0,0,104.989,47.5V70.092a3.456,3.456,0,1,0,6.912,0V47.5A44.237,44.237,0,0,0,152.623,3.456ZM71.355,7.088a37.33,37.33,0,0,1,33.459,33.458A37.335,37.335,0,0,1,71.355,7.088Zm40.722,33.459A37.331,37.331,0,0,1,145.535,7.088,37.335,37.335,0,0,1,112.076,40.546Z" transform="translate(-49.459 0)" fill="#007066"/>
      <path id="Path_52782" data-name="Path 52782" d="M37.367,193.145a11.3,11.3,0,0,0-15.646-.333V178.926a18.282,18.282,0,0,0-18.26-18.26h0A3.456,3.456,0,0,0,0,164.122v44.424a3.456,3.456,0,0,0,1.012,2.444l21.2,21.2v5.972a3.456,3.456,0,0,0,3.456,3.456H51.582a3.456,3.456,0,0,0,3.456-3.456v-19.78a18.145,18.145,0,0,0-5.349-12.915Zm10.759,41.561h-19v-3.948a3.456,3.456,0,0,0-1.012-2.444l-21.2-21.2V168.123a11.388,11.388,0,0,1,7.9,10.8v22.216a3.456,3.456,0,0,0,1.012,2.444l14.808,14.808a3.456,3.456,0,0,0,4.888-4.888l-9.255-9.255a4.4,4.4,0,0,1,6.218-6.218L44.8,210.355a11.277,11.277,0,0,1,3.325,8.027v16.323Z" transform="translate(0 -123.646)" fill="#cca079"/>
      <path id="Path_52783" data-name="Path 52783" d="M324.716,160.667h0a18.282,18.282,0,0,0-18.26,18.26v13.886a11.3,11.3,0,0,0-15.646.333l-12.322,12.322a18.145,18.145,0,0,0-5.349,12.915v19.779a3.456,3.456,0,0,0,3.456,3.456H302.5a3.456,3.456,0,0,0,3.456-3.456V232.19l21.2-21.2a3.456,3.456,0,0,0,1.012-2.444V164.123A3.456,3.456,0,0,0,324.716,160.667Zm-3.456,46.448-21.2,21.2a3.456,3.456,0,0,0-1.012,2.444v3.948h-19V218.383a11.276,11.276,0,0,1,3.325-8.027l12.322-12.322a4.4,4.4,0,1,1,6.218,6.218l-9.255,9.255a3.456,3.456,0,0,0,4.888,4.888l14.808-14.808a3.456,3.456,0,0,0,1.012-2.444V178.927a11.388,11.388,0,0,1,7.9-10.8v38.992Z" transform="translate(-210.2 -123.647)" fill="#cca079"/>
      <line id="Line_270" data-name="Line 270" x1="88.976" transform="translate(12.84 137.636)" fill="none" stroke="#007066" stroke-linecap="round" stroke-width="4"/>
    </g>
  </g>
</svg>
