<svg id="plant" xmlns="http://www.w3.org/2000/svg" width="70.272" height="83.985" viewBox="0 0 70.272 83.985">
  <path id="Path_52781" data-name="Path 52781" d="M116.9,2.059A2.061,2.061,0,0,0,114.836,0,26.353,26.353,0,0,0,90.582,16.111,26.355,26.355,0,0,0,66.326,0a2.059,2.059,0,0,0-2.059,2.059A26.35,26.35,0,0,0,88.524,28.294V41.751a2.059,2.059,0,1,0,4.117,0V28.294A26.35,26.35,0,0,0,116.9,2.059ZM68.489,4.222a22.236,22.236,0,0,1,19.93,19.93,22.239,22.239,0,0,1-19.93-19.93Zm24.257,19.93a22.237,22.237,0,0,1,19.93-19.93A22.239,22.239,0,0,1,92.745,24.152Z" transform="translate(-55.446)" fill="#007066"/>
  <path id="Path_52782" data-name="Path 52782" d="M22.258,180.013a6.732,6.732,0,0,0-9.32-.2v-8.271A10.89,10.89,0,0,0,2.061,160.666h0A2.059,2.059,0,0,0,0,162.725v26.462a2.059,2.059,0,0,0,.6,1.456L13.231,203.27v3.558a2.059,2.059,0,0,0,2.059,2.059H30.726a2.059,2.059,0,0,0,2.059-2.059V195.046a10.808,10.808,0,0,0-3.186-7.693Zm6.409,24.756H17.348v-2.352a2.059,2.059,0,0,0-.6-1.456L4.117,188.334V165.108a6.783,6.783,0,0,1,4.7,6.435v13.233a2.059,2.059,0,0,0,.6,1.456l8.821,8.821a2.059,2.059,0,1,0,2.911-2.911l-5.513-5.513a2.619,2.619,0,1,1,3.7-3.7l7.34,7.34a6.717,6.717,0,0,1,1.98,4.781v9.723Z" transform="translate(0 -138.615)" fill="#cca079"/>
  <path id="Path_52783" data-name="Path 52783" d="M303.86,160.667h0a10.89,10.89,0,0,0-10.877,10.877v8.271a6.732,6.732,0,0,0-9.32.2l-7.34,7.34a10.808,10.808,0,0,0-3.186,7.693v11.782a2.059,2.059,0,0,0,2.059,2.059h15.436a2.059,2.059,0,0,0,2.059-2.059v-3.558l12.628-12.628a2.059,2.059,0,0,0,.6-1.456V162.726A2.059,2.059,0,0,0,303.86,160.667ZM301.8,188.335l-12.628,12.628a2.059,2.059,0,0,0-.6,1.456v2.352H277.251v-9.723a6.717,6.717,0,0,1,1.98-4.781l7.34-7.34a2.619,2.619,0,1,1,3.7,3.7l-5.513,5.513a2.059,2.059,0,0,0,2.911,2.911l8.821-8.821a2.059,2.059,0,0,0,.6-1.456V171.544a6.783,6.783,0,0,1,4.7-6.435v23.226Z" transform="translate(-235.647 -138.616)" fill="#cca079"/>
  <line id="Line_270" data-name="Line 270" x1="53" transform="translate(7.648 81.985)" fill="none" stroke="#007066" stroke-linecap="round" stroke-width="4"/>
</svg>
