<svg xmlns="http://www.w3.org/2000/svg" width="54" height="54" viewBox="0 0 54 54">
  <g id="servey-img" transform="translate(-6594 1392)">
    <circle id="Ellipse_236" data-name="Ellipse 236" cx="27" cy="27" r="27" transform="translate(6594 -1392)" fill="#bbb" opacity="0.3"/>
    <g id="diagram_1_" data-name="diagram (1)" transform="translate(6596 -1390)">
      <path id="Path_57560" data-name="Path 57560" d="M50.476,485.051H1.523a1.523,1.523,0,0,1,0-3.047H50.476a1.523,1.523,0,0,1,0,3.047Z" transform="translate(0 -433.051)" fill="#cca079"/>
      <path id="Path_57561" data-name="Path 57561" d="M38.617,377.238H32.523A1.523,1.523,0,0,1,31,375.715V364.543A2.542,2.542,0,0,1,33.539,362H37.6a2.542,2.542,0,0,1,2.539,2.539v11.172A1.523,1.523,0,0,1,38.617,377.238Zm-4.57-3.047h3.047v-9.141H34.047Zm3.555-9.141h0Z" transform="translate(-27.852 -325.238)" fill="#cca079"/>
      <path id="Path_57562" data-name="Path 57562" d="M158.617,344.895h-6.094A1.523,1.523,0,0,1,151,343.371V328.543A2.542,2.542,0,0,1,153.539,326H157.6a2.542,2.542,0,0,1,2.539,2.539v14.828A1.523,1.523,0,0,1,158.617,344.895Zm-4.57-3.047h3.047v-12.8h-3.047Zm3.555-12.8h0Z" transform="translate(-135.664 -292.895)" fill="#cca079"/>
      <path id="Path_57563" data-name="Path 57563" d="M278.617,295.48h-6.094A1.523,1.523,0,0,1,271,293.957V273.543A2.542,2.542,0,0,1,273.539,271H277.6a2.542,2.542,0,0,1,2.539,2.539v20.414A1.523,1.523,0,0,1,278.617,295.48Zm-4.57-3.047h3.047V274.051h-3.047Zm3.555-18.383h0Z" transform="translate(-243.477 -243.48)" fill="#cca079"/>
      <path id="Path_57564" data-name="Path 57564" d="M398.617,205.637h-6.094A1.523,1.523,0,0,1,391,204.113v-30.57A2.542,2.542,0,0,1,393.539,171H397.6a2.542,2.542,0,0,1,2.539,2.539v30.57A1.523,1.523,0,0,1,398.617,205.637Zm-4.57-3.047h3.047V174.051h-3.047Zm3.555-28.539h0Z" transform="translate(-351.289 -153.637)" fill="#cca079"/>
      <path id="Path_57565" data-name="Path 57565" d="M1.523,32.737a1.523,1.523,0,0,1,0-3.047c8.958,0,18.712-3.262,27.464-9.186,8.052-5.449,14.468-12.593,17.6-19.6a1.523,1.523,0,1,1,2.781,1.244C46.012,9.66,39.2,17.27,30.7,23.028c-9.251,6.261-19.611,9.709-29.172,9.709Z" transform="translate(0 -0.003)" fill="#007066"/>
      <path id="Path_57566" data-name="Path 57566" d="M379.092,12.359a1.524,1.524,0,0,1-1.471-1.13l-2.1-7.839-7.839,2.1a1.523,1.523,0,1,1-.789-2.943L376.2.053A1.523,1.523,0,0,1,378.07,1.13l2.495,9.31a1.525,1.525,0,0,1-1.472,1.918Z" transform="translate(-328.616 -0.001)" fill="#007066"/>
    </g>
  </g>
</svg>
