<svg xmlns="http://www.w3.org/2000/svg" width="75.963" height="75.97" viewBox="0 0 75.963 75.97">
  <g id="Serv2" transform="translate(0.128 0.15)">
    <g id="Group_25092" data-name="Group 25092" transform="translate(19.513 10.76)">
      <path id="Path_53214" data-name="Path 53214" d="M86.445,53.4V8.727A1.236,1.236,0,0,1,87.69,7.5h33.484a1.236,1.236,0,0,1,1.245,1.227V39.346l-8.574,2.484c0,.677-3.092,4.084-3.78,4.084l-1.284,8.71H87.69A1.236,1.236,0,0,1,86.445,53.4Z" transform="translate(-86.445 -7.5)" fill="#bbb" opacity="0.3"/>
      <path id="Path_53227" data-name="Path 53227" d="M422.592,424.094l7.5,6.676a3.062,3.062,0,0,1,.1,4.357,3.109,3.109,0,0,1-4.381-.109l-7.494-6.712Z" transform="translate(-375.991 -372.176)" fill="#c48e61"/>
    </g>
    <g id="Group_25093" data-name="Group 25093" transform="translate(0.022)">
      <g id="Group_25094" data-name="Group 25094" transform="translate(16.473 6.752)">
        <path id="Path_53234" data-name="Path 53234" d="M248.012,61.134h11.7a1.849,1.849,0,0,0,1.847-1.847V47.535a1.849,1.849,0,0,0-1.847-1.847h-11.7a1.849,1.849,0,0,0-1.847,1.847v2.78a1.108,1.108,0,1,0,2.217,0V47.9h10.962V58.917H248.382V55.649a1.108,1.108,0,1,0-2.217,0v3.637A1.849,1.849,0,0,0,248.012,61.134Z" transform="translate(-226.26 -45.688)" fill="#c48e61"/>
        <path id="Path_53235" data-name="Path 53235" d="M112.591,125.292h15.1a1.108,1.108,0,0,0,0-2.217h-15.1a1.108,1.108,0,0,0,0,2.217Z" transform="translate(-111.483 -111.637)" fill="#c48e61"/>
        <path id="Path_53236" data-name="Path 53236" d="M189.313,187.587a1.108,1.108,0,0,0-1.108-1.108H172.966a1.108,1.108,0,0,0,0,2.217H188.2A1.108,1.108,0,0,0,189.313,187.587Z" transform="translate(-162.935 -165.671)" fill="#c48e61"/>
        <path id="Path_53237" data-name="Path 53237" d="M112.591,92.659h15.1a1.108,1.108,0,0,0,0-2.217h-15.1a1.108,1.108,0,0,0,0,2.217Z" transform="translate(-111.483 -83.828)" fill="#c48e61"/>
        <path id="Path_53238" data-name="Path 53238" d="M112.591,60.026h15.1a1.108,1.108,0,0,0,0-2.217h-15.1a1.108,1.108,0,0,0,0,2.217Z" transform="translate(-111.483 -56.018)" fill="#c48e61"/>
        <path id="Path_53239" data-name="Path 53239" d="M112.591,271.678H135.33a1.108,1.108,0,0,0,0-2.217H112.591a1.108,1.108,0,0,0,0,2.217Z" transform="translate(-111.483 -236.389)" fill="#b9b2aa"/>
        <path id="Path_53240" data-name="Path 53240" d="M112.591,229.721h17.983a1.108,1.108,0,0,0,0-2.217H112.591a1.108,1.108,0,0,0,0,2.217Z" transform="translate(-111.483 -200.633)" fill="#b9b2aa"/>
        <path id="Path_53241" data-name="Path 53241" d="M277.144,227.5H266.78a1.108,1.108,0,0,0,0,2.217h10.365a1.108,1.108,0,0,0,0-2.217Z" transform="translate(-242.883 -200.633)" fill="#b9b2aa"/>
      </g>
      <path id="Path_53242" data-name="Path 53242" d="M74.4,68.565l-.041-.039-6.821-6.069A14.462,14.462,0,0,0,69.311,56a1.109,1.109,0,0,0-2.216-.079,12.272,12.272,0,1,1-.7-4.579,1.108,1.108,0,1,0,2.089-.743A14.51,14.51,0,0,0,56.6,41.074V1.847A1.849,1.849,0,0,0,54.753,0H13.538A1.849,1.849,0,0,0,11.69,1.847V5.857H7.7A1.849,1.849,0,0,0,5.856,7.7v4.009H1.869A1.849,1.849,0,0,0,.022,13.561v55.3A1.849,1.849,0,0,0,1.869,70.7h35.3a1.849,1.849,0,0,0,1.847-1.847V64.848h4.812a14.434,14.434,0,0,0,17.884,3.406l6.873,6.156A4.125,4.125,0,1,0,74.4,68.565ZM13.907,2.217H54.384V40.976A14.486,14.486,0,0,0,42.833,47.4a19.921,19.921,0,0,0-1.219,2.217q-.223.506-.409,1.034a14.511,14.511,0,0,0-.817,4.818c0,.439.021.872.059,1.3H13.907ZM8.073,62.631V47.479a1.108,1.108,0,0,0-2.217,0V63A1.849,1.849,0,0,0,7.7,64.848H36.8v3.64H2.239V13.93H5.856V42.794a1.108,1.108,0,1,0,2.217,0V8.074h3.617V57.883A1.108,1.108,0,0,0,12.8,58.991H40.82a14.437,14.437,0,0,0,1.456,3.64H8.073ZM72.943,72.925a2.013,2.013,0,0,1-2.861-.147L63.635,67a14.685,14.685,0,0,0,2.676-2.669l6.549,5.828a1.963,1.963,0,0,1,.082,2.763Z" transform="translate(-0.022)" fill="#005f54" stroke="#005f54" stroke-width="0.3"/>
      <path id="Path_53243" data-name="Path 53243" d="M316.541,311.233a9.474,9.474,0,1,0,9.448,9.474A9.5,9.5,0,0,0,316.541,311.233Zm0,16.731a7.257,7.257,0,1,1,7.231-7.257A7.253,7.253,0,0,1,316.541,327.964Z" transform="translate(-261.708 -265.234)" fill="#b9b2aa"/>
    </g>
  </g>
</svg>
