<svg id="Serv3" xmlns="http://www.w3.org/2000/svg" width="80.623" height="80.623" viewBox="0 0 80.623 80.623">
  <path id="Path_53244" data-name="Path 53244" d="M44.13,184H17.42A7.394,7.394,0,0,0,10,191.368V210.28a7.394,7.394,0,0,0,7.42,7.368h8.035l-.111.01,2.473-.807,2.963.8H44.13a7.394,7.394,0,0,0,7.42-7.368V191.368A7.394,7.394,0,0,0,44.13,184Z" transform="translate(-8.425 -144.004)" fill="#bbb" opacity="0.3"/>
  <path id="Path_53245" data-name="Path 53245" d="M28.029,227.224a1.574,1.574,0,0,1-1.114-.461L20.448,220.3H11.023A11.035,11.035,0,0,1,0,209.273v-24.25A11.035,11.035,0,0,1,11.023,174h15.9a1.575,1.575,0,1,1,0,3.149h-15.9a7.882,7.882,0,0,0-7.873,7.873v24.25a7.882,7.882,0,0,0,7.873,7.873H21.255a1.575,1.575,0,0,1,1.444.946l3.758,3.758,0-3.131a1.575,1.575,0,0,1,1.575-1.574h17a7.882,7.882,0,0,0,7.873-7.873V198.407a1.575,1.575,0,0,1,3.149,0v10.865A11.035,11.035,0,0,1,45.036,220.3H29.608l0,5.355a1.575,1.575,0,0,1-1.574,1.574Z" transform="translate(0 -146.601)" fill="#005f54"/>
  <path id="Path_53246" data-name="Path 53246" d="M226.866,10h-3.287C213.87,10,206,18.276,206,28.485h0c0,10.209,7.87,18.485,17.579,18.485h3.287a16.78,16.78,0,0,0,5.17-.813l5.4,5.67V43.26a18.789,18.789,0,0,0,7.014-14.775h0C244.444,18.276,236.574,10,226.866,10Z" transform="translate(-165.396 -2.028)" fill="#bbb" opacity="0.3"/>
  <path id="Path_53247" data-name="Path 53247" d="M235.682,51.374a1.575,1.575,0,0,1-1.113-.461l-5.887-5.884a22.93,22.93,0,0,1-5.809.745h-3.985a22.887,22.887,0,0,1,0-45.774h3.985A22.913,22.913,0,0,1,245.76,22.887a22.641,22.641,0,0,1-2.487,10.385,23.106,23.106,0,0,1-6.016,7.417V49.8a1.575,1.575,0,0,1-1.574,1.575Zm-6.542-9.687a1.575,1.575,0,0,1,1.113.461L234.107,46V39.921a1.575,1.575,0,0,1,.627-1.258A19.738,19.738,0,0,0,222.873,3.149h-3.985a19.738,19.738,0,0,0,0,39.476h3.985a19.743,19.743,0,0,0,5.805-.868A1.573,1.573,0,0,1,229.14,41.687Z" transform="translate(-165.136)" fill="#005f54"/>
  <g id="Group_25097" data-name="Group 25097">
    <path id="Path_53248" data-name="Path 53248" d="M321.129,88.441a1.575,1.575,0,0,1-1.575-1.575V83.083a2.98,2.98,0,0,1,2.348-2.921,3.518,3.518,0,1,0-4.29-3.432,1.575,1.575,0,0,1-3.149,0,6.69,6.69,0,0,1,2.118-4.874A6.615,6.615,0,0,1,321.6,70.08a6.668,6.668,0,0,1,1.106,13.13v3.657A1.574,1.574,0,0,1,321.129,88.441Z" transform="translate(-264.945 -59.031)" fill="#c48e61"/>
    <path id="Path_53249" data-name="Path 53249" d="M348.375,209.479a1.573,1.573,0,1,1,1.113-.46A1.585,1.585,0,0,1,348.375,209.479Z" transform="translate(-292.19 -173.84)" fill="#c48e61"/>
  </g>
  <g id="Group_25096" data-name="Group 25096">
    <path id="Path_53250" data-name="Path 53250" d="M88.8,313.149H55.575a1.575,1.575,0,1,1,0-3.149H88.8a1.575,1.575,0,1,1,0,3.149Z" transform="translate(-45.497 -261.185)" fill="#c48e61"/>
    <path id="Path_53251" data-name="Path 53251" d="M266.575,369.149a1.576,1.576,0,1,1,1.113-.461A1.587,1.587,0,0,1,266.575,369.149Z" transform="translate(-223.271 -308.367)" fill="#c48e61"/>
    <path id="Path_53252" data-name="Path 53252" d="M82.607,369.149H55.575a1.575,1.575,0,0,1,0-3.149H82.607a1.575,1.575,0,0,1,0,3.149Z" transform="translate(-45.497 -308.367)" fill="#c48e61"/>
    <path id="Path_53253" data-name="Path 53253" d="M78.565,257.149H55.575a1.575,1.575,0,1,1,0-3.149h22.99a1.575,1.575,0,1,1,0,3.149Z" transform="translate(-45.497 -214.003)" fill="#c48e61"/>
  </g>
</svg>
