<svg xmlns="http://www.w3.org/2000/svg" width="347.879" height="340.176" viewBox="0 0 347.879 340.176">
  <g id="sharekna-art" transform="matrix(-0.966, 0.259, -0.259, -0.966, 396.174, 268.366)" opacity="0.25">
    <g id="Group_24679" data-name="Group 24679" transform="translate(0 0)">
      <g id="Group_55" data-name="Group 55" transform="translate(345.753 40.321)">
        <path id="Path_118" data-name="Path 118" d="M1.413,0A1.41,1.41,0,0,1,2.8,1.172c.3,1.715.5,3.452.707,5.131q.122,1.02.251,2.04c.286,2.36.581,4.789.737,7.225.182,2.371.35,4.762.5,7.153.1,2.491.153,4.94.2,7.22l.021,1.089c.018.847.037,1.693.025,2.54l-.069,3.587c-.018.666-.034,1.318-.048,1.969-.04,1.717-.08,3.494-.2,5.251Q4.7,47.95,4.418,51.527c-.069,1.039-.179,2.159-.355,3.617l-.418,3.549a1.41,1.41,0,1,1-2.8-.331l.418-3.552c.17-1.41.276-2.484.343-3.486.186-2.388.356-4.761.511-7.134.113-1.7.153-3.443.192-5.129q.022-.986.049-1.973l.068-3.565c.01-.8-.008-1.619-.025-2.433l-.022-1.1c-.047-2.259-.1-4.692-.2-7.128-.15-2.343-.317-4.72-.5-7.1C1.529,13.392,1.239,11,.96,8.692.873,8.016.79,7.328.707,6.641.509,5,.3,3.294.02,1.649A1.411,1.411,0,0,1,1.172.021,1.354,1.354,0,0,1,1.413,0Z" transform="translate(0 0)" fill="#ddb899"/>
      </g>
      <g id="Group_56" data-name="Group 56" transform="translate(30.384 236.629)">
        <path id="Path_119" data-name="Path 119" d="M2.824,0A2.8,2.8,0,0,1,4.356.455,195.859,195.859,0,0,0,100.6,31.745a2.821,2.821,0,1,1-.294,5.634A201.521,201.521,0,0,1,1.286,5.187,2.821,2.821,0,0,1,2.824,0Z" transform="translate(0)" fill="#d3d3d3"/>
      </g>
      <g id="Group_57" data-name="Group 57" transform="translate(116.31 274.958)">
        <path id="Path_120" data-name="Path 120" d="M70.065,0a1.41,1.41,0,0,1,.3,2.787A208.479,208.479,0,0,1,35.915,7.513,213.578,213.578,0,0,1,1.252,6.425a1.41,1.41,0,1,1,.318-2.8A210.884,210.884,0,0,0,35.772,4.7,205.788,205.788,0,0,0,69.758.034,1.408,1.408,0,0,1,70.065,0Z" transform="translate(0 0)" fill="#c48e61"/>
      </g>
      <g id="Group_58" data-name="Group 58" transform="translate(175.899 281.608)">
        <path id="Path_121" data-name="Path 121" d="M23.26,0a2.821,2.821,0,0,1,.732,5.544l-5.06,1.364-.073.018c-1.593.384-3.191.743-4.791,1.1l-5.494,1.2c-1.4.276-2.743.51-4.089.744l-1.175.2A2.82,2.82,0,1,1,2.333,4.62l1.186-.207c1.3-.227,2.609-.453,3.908-.71l5.407-1.18c1.558-.35,3.115-.7,4.668-1.072L22.525.1A2.818,2.818,0,0,1,23.26,0Z" transform="translate(0 0)" fill="#adadad"/>
      </g>
      <g id="Group_59" data-name="Group 59" transform="translate(240.903 248.559)">
        <path id="Path_122" data-name="Path 122" d="M28.7,0a1.41,1.41,0,0,1,.823,2.556l-.392.282c-2.017,1.444-4.1,2.937-6.191,4.363-2.269,1.483-4.546,2.946-6.794,4.368-1.924,1.252-3.958,2.417-5.925,3.545l-1.041.6c-.58.326-1.146.648-1.711.97-1.753,1-3.565,2.031-5.429,2.954A1.41,1.41,0,1,1,.784,17.108c1.792-.888,3.568-1.9,5.286-2.878.57-.324,1.14-.65,1.713-.971l1.033-.592c1.933-1.108,3.932-2.253,5.8-3.472,2.251-1.424,4.517-2.88,6.75-4.339C23.41,3.464,25.482,1.98,27.486.545l.392-.281A1.4,1.4,0,0,1,28.7,0Z" transform="translate(0)" fill="#c48e61"/>
      </g>
      <g id="Group_60" data-name="Group 60" transform="translate(242.569 246.632)">
        <path id="Path_123" data-name="Path 123" d="M12.433,0a1.411,1.411,0,0,1,.76,2.6L7.754,6.061c-1.4.863-2.828,1.678-4.21,2.466l-1.43.819A1.41,1.41,0,1,1,.707,6.9l1.44-.824C3.507,5.3,4.915,4.5,6.257,3.671L11.677.221A1.405,1.405,0,0,1,12.433,0Z" transform="translate(0 0)" fill="#c48e61"/>
      </g>
      <g id="Group_61" data-name="Group 61" transform="translate(287.669 175.377)">
        <path id="Path_124" data-name="Path 124" d="M9.916,0a1.41,1.41,0,0,1,1.161,2.207L6.954,8.217c-1.163,1.61-2.362,3.181-3.523,4.7l-.9,1.179A1.411,1.411,0,0,1,.288,12.389l.9-1.183C2.339,9.7,3.526,8.145,4.648,6.593L8.751.613A1.409,1.409,0,0,1,9.916,0Z" transform="translate(0)" fill="#ddb899"/>
      </g>
      <g id="Group_62" data-name="Group 62" transform="translate(298.662 213.208)">
        <path id="Path_125" data-name="Path 125" d="M10.561,0a1.411,1.411,0,0,1,1.072,2.326c-.41.48-.817.964-1.224,1.447C9.352,5.03,8.257,6.329,7.117,7.568L2.444,12.6A1.41,1.41,0,1,1,.377,10.686L5.045,5.655c1.095-1.19,2.169-2.466,3.207-3.7Q8.868,1.224,9.487.5A1.409,1.409,0,0,1,10.561,0Z" transform="translate(0 0)" fill="#c48e61"/>
      </g>
      <g id="Group_63" data-name="Group 63" transform="translate(312.076 103.636)">
        <path id="Path_126" data-name="Path 126" d="M3.637,0a1.464,1.464,0,0,1,.221.017A1.411,1.411,0,0,1,5.031,1.63c-.3,1.868-.705,3.742-1.068,5.4l-.155.711c-.334,1.534-.669,3.068-1.024,4.6A1.41,1.41,0,1,1,.037,11.7C.39,10.18.721,8.658,1.053,7.138l.156-.714c.353-1.617.754-3.449,1.036-5.234A1.411,1.411,0,0,1,3.637,0Z" transform="translate(0 0)" fill="#c48e61"/>
      </g>
      <g id="Group_64" data-name="Group 64" transform="translate(39.486 230.641)">
        <path id="Path_127" data-name="Path 127" d="M1.412,0a1.4,1.4,0,0,1,.751.218A189.193,189.193,0,0,0,40.376,18.679,189.97,189.97,0,0,0,81.7,27.962a1.411,1.411,0,0,1-.308,2.8,192.908,192.908,0,0,1-41.941-9.424A192.1,192.1,0,0,1,.658,2.6,1.41,1.41,0,0,1,1.412,0Z" transform="translate(0)" fill="#ddb899"/>
      </g>
      <g id="Group_65" data-name="Group 65" transform="translate(33.835 200.112)">
        <path id="Path_128" data-name="Path 128" d="M2.822,0A2.816,2.816,0,0,1,4.592.625,163.663,163.663,0,0,0,29.656,17.281a2.821,2.821,0,0,1-2.676,4.966A169.287,169.287,0,0,1,1.049,5.016,2.821,2.821,0,0,1,2.822,0Z" transform="translate(0)" fill="#d3d3d3"/>
      </g>
      <g id="Group_66" data-name="Group 66" transform="translate(157.97 234.543)">
        <path id="Path_129" data-name="Path 129" d="M20.237,0a1.41,1.41,0,0,1,.3,2.788L15.872,3.814l-4.763.835c-2.869.537-5.8.886-8.643,1.224l-.888.105a1.41,1.41,0,0,1-.336-2.8l.89-.107c2.793-.332,5.682-.676,8.474-1.2l4.719-.827L19.933.033A1.371,1.371,0,0,1,20.237,0Z" transform="translate(0)" fill="#c48e61"/>
      </g>
      <g id="Group_67" data-name="Group 67" transform="translate(134.95 209.308)">
        <path id="Path_130" data-name="Path 130" d="M51.386,0a2.821,2.821,0,0,1,.874,5.5A151.013,151.013,0,0,1,27.818,11.27,151.816,151.816,0,0,1,2.753,12.747a2.82,2.82,0,1,1,.137-5.639A145.336,145.336,0,0,0,27,5.688,145.269,145.269,0,0,0,50.511.14,2.823,2.823,0,0,1,51.386,0Z" transform="translate(0 0)" fill="#dcdcdc"/>
      </g>
      <g id="Group_68" data-name="Group 68" transform="translate(220.396 135.745)">
        <path id="Path_131" data-name="Path 131" d="M51.4,0a1.88,1.88,0,0,1,1.691,2.7A146.637,146.637,0,0,1,31.8,34.753,144.945,144.945,0,0,1,18.148,48.4a148.036,148.036,0,0,1-15.2,11.734,1.881,1.881,0,0,1-2.137-3.1A144.723,144.723,0,0,0,15.665,45.578,141.353,141.353,0,0,0,28.978,32.271,142.88,142.88,0,0,0,49.707,1.063,1.879,1.879,0,0,1,51.4,0Z" transform="translate(0)" fill="#1b8c7f"/>
      </g>
      <g id="Group_69" data-name="Group 69" transform="translate(275.715 79.774)">
        <path id="Path_132" data-name="Path 132" d="M10.782,0c.07,0,.14,0,.212.008A2.819,2.819,0,0,1,13.6,3.03l-.108,1.51c-.083,1.182-.167,2.364-.272,3.544l-.009.083-.6,4.991c-.135,1.322-.362,2.654-.581,3.942l-.192,1.146c-.1.55-.182,1.058-.266,1.566-.191,1.16-.388,2.362-.676,3.575L9.833,28.244c-.277,1.182-.583,2.307-.878,3.4-.144.526-.286,1.053-.424,1.579l-.663,2.446c-.011.04-.022.079-.035.119L7.07,38.178c-.172.529-.335,1.04-.5,1.55-.344,1.083-.7,2.2-1.093,3.313A2.821,2.821,0,1,1,.162,41.159c.363-1.025.689-2.053,1.036-3.141q.248-.785.5-1.57l.737-2.317.64-2.365c.137-.522.284-1.063.431-1.6.3-1.09.576-2.12.821-3.165L5.4,22.13c.253-1.07.427-2.122.61-3.236.088-.535.176-1.071.272-1.6l.191-1.137c.213-1.253.414-2.435.535-3.617l.6-5c.1-1.131.18-2.264.26-3.4l.111-1.531A2.82,2.82,0,0,1,10.782,0Z" transform="translate(0 0)" fill="#adadad"/>
      </g>
      <g id="Group_70" data-name="Group 70" transform="translate(248.803 159.434)">
        <path id="Path_133" data-name="Path 133" d="M17.472,0a1.41,1.41,0,0,1,1.154,2.219A158.652,158.652,0,0,1,2.421,21.806,1.41,1.41,0,1,1,.4,19.839,155.722,155.722,0,0,0,16.315.6,1.411,1.411,0,0,1,17.472,0Z" transform="translate(0 0)" fill="#c48e61"/>
      </g>
      <g id="Group_71" data-name="Group 71" transform="translate(204.983 193.023)">
        <path id="Path_134" data-name="Path 134" d="M33.079,0A2.821,2.821,0,0,1,34.83,5.034,162.135,162.135,0,0,1,4.033,24.21a2.821,2.821,0,0,1-2.424-5.094A156.444,156.444,0,0,0,31.332.608,2.809,2.809,0,0,1,33.079,0Z" transform="translate(0 0)" fill="#ececec"/>
      </g>
      <g id="Group_72" data-name="Group 72" transform="translate(238.901 91.915)">
        <path id="Path_135" data-name="Path 135" d="M5.019,0A1.411,1.411,0,0,1,6.4,1.713L5.642,5.155c-.047.208-.089.41-.131.612-.081.388-.162.775-.261,1.158L4.781,8.644c-.123.438-.234.867-.346,1.3-.184.7-.374,1.431-.6,2.153L2.753,15.458a1.41,1.41,0,1,1-2.685-.863L1.146,11.24c.2-.647.376-1.311.559-2.014.116-.446.233-.892.358-1.335L2.523,6.2c.083-.324.155-.668.227-1.013.046-.215.09-.432.139-.647l.754-3.436A1.411,1.411,0,0,1,5.019,0Z" transform="translate(0 0)" fill="#c48e61"/>
      </g>
      <g id="Group_73" data-name="Group 73" transform="translate(224.38 65.485)">
        <path id="Path_136" data-name="Path 136" d="M11.325,0a2.821,2.821,0,0,1,2.814,2.67A101.241,101.241,0,0,1,12.554,26.2,102.322,102.322,0,0,1,5.395,48.7,2.821,2.821,0,0,1,.248,46.393,96.612,96.612,0,0,0,7.01,25.164a95.544,95.544,0,0,0,1.5-22.192A2.819,2.819,0,0,1,11.172,0C11.223,0,11.274,0,11.325,0Z" transform="translate(0 0)" fill="#d3d3d3"/>
      </g>
      <g id="Group_74" data-name="Group 74" transform="translate(262.912 147.708)">
        <path id="Path_137" data-name="Path 137" d="M26.025,0a2.821,2.821,0,0,1,2.495,4.133A172.781,172.781,0,0,1,4.931,38.36,2.821,2.821,0,0,1,.71,34.618,167.1,167.1,0,0,0,23.526,1.508,2.821,2.821,0,0,1,26.025,0Z" transform="translate(0 0)" fill="#d3d3d3"/>
      </g>
      <g id="Group_75" data-name="Group 75" transform="translate(102.154 104.093)">
        <path id="Path_138" data-name="Path 138" d="M1.409,0A1.407,1.407,0,0,1,2.486.5,49.267,49.267,0,0,0,14.8,10.873a50.387,50.387,0,0,0,15.25,5.686,1.41,1.41,0,0,1-.547,2.767,53.238,53.238,0,0,1-16.129-6.019A52.1,52.1,0,0,1,.335,2.322,1.411,1.411,0,0,1,1.409,0Z" transform="translate(0)" fill="#e9ceb9"/>
      </g>
      <g id="Group_76" data-name="Group 76" transform="translate(0 225.85)">
        <path id="Path_139" data-name="Path 139" d="M1.88,0A1.871,1.871,0,0,1,3.173.516C4.41,1.686,5.751,2.821,7.05,3.92l2.3,1.941C10.573,6.89,11.836,7.954,13.1,8.949l6.041,4.607c.587.443,1.173.886,1.773,1.309l2.7,1.874c1.917,1.317,3.653,2.507,5.426,3.684L37.4,25.57l2.817,1.575L45.98,30.3c1.826.93,3.756,1.872,5.623,2.785l3.156,1.524c.647.3,1.323.6,2,.89l.953.418,6.028,2.58c1.575.636,3.24,1.259,4.851,1.862l1.211.455c3.356,1.3,6.851,2.407,10.231,3.475l2.136.677c1.53.464,3.141.9,4.7,1.317l2.163.582c1.853.495,3.768,1.006,5.652,1.4a1.881,1.881,0,0,1-.773,3.681c-1.982-.417-3.948-.942-5.848-1.45l-2.169-.583c-1.586-.427-3.227-.868-4.84-1.358L78.9,47.873c-3.437-1.086-6.992-2.209-10.442-3.549l-1.187-.445c-1.633-.611-3.32-1.243-4.976-1.912l-7.038-3.021c-.707-.307-1.414-.614-2.111-.942l-3.192-1.541c-1.881-.918-3.826-1.869-5.729-2.837L35.5,28.818l-2.876-1.745-5.619-3.485c-1.845-1.224-3.6-2.424-5.533-3.756l-2.718-1.886c-.644-.455-1.264-.922-1.882-1.391l-.817-.613-5.263-4.022C9.461,10.87,8.173,9.786,6.928,8.738L4.621,6.79C3.282,5.659,1.9,4.489.587,3.246A1.88,1.88,0,0,1,1.88,0Z" transform="translate(0)" fill="#1b8c7f"/>
      </g>
      <g id="Group_77" data-name="Group 77" transform="translate(1.363 241.477)">
        <path id="Path_140" data-name="Path 140" d="M1.411,0a1.4,1.4,0,0,1,.915.338c1.4,1.2,2.9,2.345,4.356,3.455l1.189.911c.5.379,1.017.769,1.532,1.162,1.344,1.024,2.736,2.082,4.133,3.052l.682.473c3.6,2.5,7.319,5.077,11.115,7.354A215.293,215.293,0,0,0,50.295,30.063a1.41,1.41,0,0,1-1.176,2.563A217.656,217.656,0,0,1,23.857,19.149c-3.851-2.31-7.61-4.917-11.246-7.439l-.683-.473C10.48,10.23,9.064,9.153,7.7,8.111q-.766-.582-1.532-1.162L4.969,6.035C3.486,4.9,1.952,3.729.494,2.482A1.41,1.41,0,0,1,1.411,0Z" transform="translate(0)" fill="#c48e61"/>
      </g>
      <g id="Group_78" data-name="Group 78" transform="translate(114.563 222.86)">
        <path id="Path_141" data-name="Path 141" d="M118.684,0a1.88,1.88,0,0,1,.975,3.489A178.208,178.208,0,0,1,62.722,25.924a179.242,179.242,0,0,1-61.105,1.9A1.881,1.881,0,0,1,2.144,24.1a175.555,175.555,0,0,0,59.83-1.863A174.469,174.469,0,0,0,117.712.272,1.873,1.873,0,0,1,118.684,0Z" transform="translate(0 0)" fill="#005f54"/>
      </g>
      <g id="Group_79" data-name="Group 79" transform="translate(69.008 36.905)">
        <path id="Path_142" data-name="Path 142" d="M10.993,0a1.881,1.881,0,0,1,1.636,2.8,69.536,69.536,0,0,0-8.45,26.3A68.2,68.2,0,0,0,6.685,56.485a1.88,1.88,0,0,1-3.593,1.109A71.978,71.978,0,0,1,.441,28.687,73.3,73.3,0,0,1,9.353.957,1.88,1.88,0,0,1,10.993,0Z" transform="translate(0 0)" fill="#1b8c7f"/>
      </g>
      <g id="Group_80" data-name="Group 80" transform="translate(59.907 89.914)">
        <path id="Path_143" data-name="Path 143" d="M2.823,0A2.821,2.821,0,0,1,5.551,2.116,90.879,90.879,0,0,0,9.159,13.169a90.184,90.184,0,0,0,5.223,10.377A2.82,2.82,0,1,1,9.528,26.42,96.228,96.228,0,0,1,3.949,15.333,96.631,96.631,0,0,1,.09,3.526,2.824,2.824,0,0,1,2.823,0Z" transform="translate(0 0)" fill="#dcdcdc"/>
      </g>
      <g id="Group_81" data-name="Group 81" transform="translate(179.705 70.756)">
        <path id="Path_144" data-name="Path 144" d="M21.278,0a1.881,1.881,0,0,1,1.879,1.844A61.811,61.811,0,0,1,18.046,27.32,60.069,60.069,0,0,1,3.139,48.26,1.881,1.881,0,0,1,.621,45.467a56.327,56.327,0,0,0,13.972-19.64A58.009,58.009,0,0,0,19.4,1.918,1.881,1.881,0,0,1,21.241,0Z" transform="translate(0 0)" fill="#7bbbb1"/>
      </g>
      <g id="Group_82" data-name="Group 82" transform="translate(197.152 101.554)">
        <path id="Path_145" data-name="Path 145" d="M9.086,0a1.881,1.881,0,0,1,1.709,2.662A72.641,72.641,0,0,1,3.4,15.278,1.881,1.881,0,1,1,.362,13.06,68.787,68.787,0,0,0,7.374,1.1,1.881,1.881,0,0,1,9.086,0Z" transform="translate(0)" fill="#005f54"/>
      </g>
      <g id="Group_83" data-name="Group 83" transform="translate(174.606 123.377)">
        <path id="Path_146" data-name="Path 146" d="M16.037,0a1.88,1.88,0,0,1,1.311,3.228A72.12,72.12,0,0,1,2.814,14.017,1.88,1.88,0,1,1,.947,10.752,68.373,68.373,0,0,0,14.726.533,1.875,1.875,0,0,1,16.037,0Z" transform="translate(0 0)" fill="#7bbbb1"/>
      </g>
      <g id="Group_84" data-name="Group 84" transform="translate(89.203 122.787)">
        <path id="Path_147" data-name="Path 147" d="M1.88,0A1.878,1.878,0,0,1,3.2.541,68.8,68.8,0,0,0,15.134,9.892a1.881,1.881,0,0,1-1.988,3.194A72.587,72.587,0,0,1,.561,3.22,1.881,1.881,0,0,1,1.88,0Z" transform="translate(0)" fill="#005f54"/>
      </g>
      <g id="Group_85" data-name="Group 85" transform="translate(139.295 200.624)">
        <path id="Path_148" data-name="Path 148" d="M41.883,0a1.88,1.88,0,0,1,.544,3.68,142.544,142.544,0,0,1-20.038,4.6A148.428,148.428,0,0,1,1.89,9.815H1.88a1.88,1.88,0,0,1-.009-3.761A144.677,144.677,0,0,0,21.839,4.562,138.954,138.954,0,0,0,41.337.081,1.883,1.883,0,0,1,41.883,0Z" transform="translate(0)" fill="#7bbbb1"/>
      </g>
      <g id="Group_86" data-name="Group 86" transform="translate(134.286 189.498)">
        <path id="Path_149" data-name="Path 149" d="M51.446,0a.47.47,0,0,1,.169.909,125.026,125.026,0,0,1-51.17,8.1A.47.47,0,0,1,0,8.514.483.483,0,0,1,.5,8.07,124.043,124.043,0,0,0,51.278.031.481.481,0,0,1,51.446,0Z" transform="translate(0 0)" fill="#adadad"/>
      </g>
      <g id="Group_87" data-name="Group 87" transform="translate(181.36 168.048)">
        <path id="Path_150" data-name="Path 150" d="M23.584,0a.47.47,0,0,1,.263.861,116.71,116.71,0,0,1-23.208,12A.47.47,0,0,1,.3,11.984,115.838,115.838,0,0,0,23.324.08.464.464,0,0,1,23.584,0Z" transform="translate(0 0)" fill="#adadad"/>
      </g>
      <g id="Group_88" data-name="Group 88" transform="translate(153.071 226.278)">
        <path id="Path_151" data-name="Path 151" d="M94.946,0a1.41,1.41,0,0,1,.833,2.549c-1.462,1.068-2.992,2.049-4.472,3l-.786.505c-.489.311-.969.618-1.448.925C87.814,7.784,86.514,8.617,85.2,9.4l-5.449,3.122c-.307.17-.6.334-.885.5-.631.359-1.262.716-1.908,1.048L72.9,16.135c-1.43.724-2.909,1.473-4.391,2.178l-5.766,2.571c-.327.14-.636.277-.946.414-.66.292-1.321.583-1.994.849l-4.418,1.715c-1.446.559-2.942,1.135-4.438,1.664A188.489,188.489,0,0,1,1.5,35.761a1.41,1.41,0,1,1-.188-2.814,185.7,185.7,0,0,0,48.7-10.083c1.453-.514,2.929-1.083,4.356-1.634l4.4-1.709c.632-.25,1.259-.527,1.885-.8q.476-.211.953-.418L67.33,15.75c1.418-.675,2.881-1.415,4.3-2.131l4.04-2.058c.608-.312,1.2-.651,1.8-.99q.444-.253.893-.5l5.412-3.1C85.03,6.218,86.312,5.4,87.552,4.6q.724-.465,1.45-.927l.782-.5c1.445-.927,2.939-1.886,4.333-2.9A1.4,1.4,0,0,1,94.946,0Z" transform="translate(0 0)" fill="#ddb899"/>
      </g>
      <g id="Group_89" data-name="Group 89" transform="translate(254.116 161.532)">
        <path id="Path_152" data-name="Path 152" d="M39.673,0a1.41,1.41,0,0,1,1.214,2.124A178,178,0,0,1,2.321,47.972,1.41,1.41,0,0,1,.5,45.82,175.226,175.226,0,0,0,38.455.7,1.409,1.409,0,0,1,39.673,0Z" transform="translate(0 0)" fill="#ddb899"/>
      </g>
      <g id="Group_90" data-name="Group 90" transform="translate(1.176 182.21)">
        <path id="Path_153" data-name="Path 153" d="M1.41,0A1.409,1.409,0,0,1,2.53.553C4.78,3.489,7.3,6.332,9.734,9.08l1.224,1.383,1.4,1.452c2.492,2.6,5.067,5.291,7.771,7.732,2.976,2.862,6.187,5.538,9.292,8.126l.573.478,1.166.9c2.994,2.319,6.09,4.716,9.276,6.832,3.216,2.281,6.619,4.354,9.91,6.359l1.121.682,1.134.631c3.352,1.872,6.818,3.805,10.328,5.455l.292.142c1.824.894,3.711,1.818,5.6,2.605l1.5.647c1.48.64,3.01,1.3,4.522,1.911l6.106,2.293c1.055.4,2.124.756,3.032,1.046l3.122,1.005a1.411,1.411,0,0,1-.865,2.685l-3.119-1c-.943-.3-2.06-.668-3.172-1.1l-6.128-2.3c-1.575-.634-3.122-1.3-4.618-1.95l-1.48-.639c-1.951-.814-3.878-1.756-5.74-2.669l-.271-.133c-3.577-1.682-7.087-3.64-10.482-5.533l-1.18-.658-1.167-.711c-3.333-2.03-6.779-4.129-10.04-6.442-3.235-2.149-6.372-4.578-9.406-6.927L27.609,29.94c-3.142-2.619-6.392-5.328-9.408-8.229-2.747-2.48-5.359-5.207-7.885-7.845L8.885,12.375,7.623,10.95C5.154,8.164,2.6,5.285.291,2.269A1.411,1.411,0,0,1,1.41,0Z" transform="translate(0 0)" fill="#ddb899"/>
      </g>
      <g id="Group_91" data-name="Group 91" transform="translate(25.846 178.875)">
        <path id="Path_154" data-name="Path 154" d="M1.41,0A1.406,1.406,0,0,1,2.419.424q.832.852,1.657,1.711c1.707,1.769,3.472,3.6,5.315,5.255l1.008.938c.877.817,1.753,1.637,2.646,2.434l5.678,4.778,5.89,4.481,6.094,4.188c.424.282.874.557,1.322.834.248.153.5.3.741.459a1.411,1.411,0,1,1-1.5,2.388c-.237-.15-.478-.3-.717-.445-.477-.293-.954-.587-1.42-.9l-6.173-4.242-6-4.563L11.2,12.893c-.939-.838-1.83-1.67-2.722-2.5L7.49,9.474c-1.9-1.708-3.7-3.575-5.444-5.381Q1.226,3.243.4,2.4A1.41,1.41,0,0,1,1.41,0Z" transform="translate(0)" fill="#ddb899"/>
      </g>
      <g id="Group_92" data-name="Group 92" transform="translate(194.058 160.493)">
        <path id="Path_155" data-name="Path 155" d="M35.06,0a1.41,1.41,0,0,1,.973,2.431c-.442.421-.878.849-1.313,1.276-.79.776-1.607,1.578-2.46,2.338l-3.9,3.425-.787.636c-2.423,1.952-4.929,3.969-7.566,5.773l-2.085,1.489c-.5.339-.982.643-1.461.947L13.5,20.208c-.648.424-1.439.93-2.3,1.4L6.732,24.159,2.046,26.53A1.41,1.41,0,0,1,.774,24.013L5.4,21.676l4.436-2.534c.8-.433,1.527-.9,2.139-1.3l2.98-1.906c.457-.291.916-.582,1.366-.884l2.075-1.484c2.57-1.757,5.032-3.74,7.412-5.658l.742-.6,3.844-3.379c.8-.709,1.587-1.486,2.353-2.238.446-.438.892-.876,1.343-1.306A1.4,1.4,0,0,1,35.06,0Z" transform="translate(0 0)" fill="#ddb899"/>
      </g>
      <g id="Group_93" data-name="Group 93" transform="translate(165.822 141.84)">
        <path id="Path_156" data-name="Path 156" d="M52.386,0a1.411,1.411,0,0,1,1.033,2.37L50.854,5.133,48.1,7.816c-.168.159-.321.312-.474.464-.308.306-.619.613-.948.9l-2.928,2.569c-.45.4-.916.817-1.434,1.2l-2.932,2.325c-.486.41-1.025.787-1.546,1.153l-1.576,1.121c-1.356,1.03-2.83,1.963-4.255,2.865-.7.445-1.405.89-2.1,1.35-.027.018-.053.034-.08.05l-3.285,1.875c-.206.115-.4.228-.6.342-.363.211-.727.423-1.1.616l-1.705.856c-.436.211-.851.427-1.266.641-.7.363-1.428.739-2.187,1.069l-3.438,1.525c-.549.263-1.138.485-1.708.7l-3.617,1.4c-.4.152-.8.28-1.2.407-.215.069-.43.137-.643.21-.52.166-1.014.33-1.508.5-.7.235-1.407.469-2.115.686L1.782,33.638a1.41,1.41,0,0,1-.743-2.721l3.636-.994c.645-.2,1.327-.426,2.008-.653.505-.169,1.011-.337,1.517-.5.205-.07.437-.144.669-.218.352-.113.7-.224,1.05-.355l3.632-1.4c.537-.2,1.044-.392,1.521-.621l3.484-1.546c.681-.3,1.334-.634,2.024-.992.437-.226.873-.451,1.314-.666l1.672-.838c.314-.163.637-.353.96-.54.209-.121.417-.243.627-.36l3.234-1.847c.7-.461,1.4-.908,2.109-1.356,1.438-.911,2.8-1.771,4.094-2.756l1.581-1.125c.54-.378,1.006-.7,1.428-1.059l3-2.376c.452-.338.852-.7,1.276-1.073l2.956-2.594c.285-.247.547-.508.81-.769.167-.167.336-.334.507-.5l2.693-2.62L51.353.451A1.4,1.4,0,0,1,52.386,0Z" transform="translate(0 0)" fill="#ddb899"/>
      </g>
      <g id="Group_94" data-name="Group 94" transform="translate(39.592 89.278)">
        <path id="Path_157" data-name="Path 157" d="M1.412,0A1.41,1.41,0,0,1,2.8,1.18L3.02,2.507c.1.734.318,1.734.575,2.893l.612,2.829c.108.428.242.914.379,1.411q.148.53.3,1.079c.091.325.183.676.276,1.031.143.543.288,1.1.458,1.647l.9,2.757c.363,1.242.83,2.436,1.282,3.591.237.606.471,1.2.686,1.795.239.683.534,1.335.818,1.966l2.236,4.82.495.956c.295.566.5.955.591,1.114a1.411,1.411,0,0,1-2.065,1.891c-.25-.214-.31-.324-1.029-1.708L8.354,28.3c-.014-.025-.025-.05-.037-.077l-1.582-3.56c-.31-.685-.63-1.395-.9-2.177-.2-.555-.428-1.132-.656-1.717-.474-1.212-.964-2.466-1.348-3.784l-.9-2.736c-.189-.615-.345-1.205-.5-1.786-.089-.34-.177-.676-.27-1.005-.1-.376-.2-.726-.292-1.07-.145-.521-.285-1.028-.409-1.524L.841,6.011C.569,4.786.335,3.727.23,2.916L.019,1.64A1.41,1.41,0,0,1,1.412,0Z" transform="translate(0)" fill="#ddb899"/>
      </g>
      <g id="Group_95" data-name="Group 95" transform="translate(300.112 92.854)">
        <path id="Path_158" data-name="Path 158" d="M6.285,0l.056,0a.47.47,0,0,1,.411.523A169.9,169.9,0,0,1,.922,28.62a.471.471,0,0,1-.9-.269A168.846,168.846,0,0,0,5.818.415.47.47,0,0,1,6.285,0Z" transform="translate(0 0)" fill="#adadad"/>
      </g>
      <g id="Group_96" data-name="Group 96" transform="translate(285.824 65.475)">
        <path id="Path_159" data-name="Path 159" d="M13.778,0a.471.471,0,0,1,.47.464l.167,6.807c.013.967-.014,2.014-.043,3.123-.012.515-.027,1.048-.036,1.594-.027,3.377-.324,7.161-.711,11.755l-.793,6.59c-.265,1.753-.569,3.536-.865,5.262l-.256,1.5A165.981,165.981,0,0,1,5.152,61.466q-.487,1.292-.914,2.449c-.792,2.133-1.475,3.975-2.1,5.331L.9,72.13a.471.471,0,1,1-.865-.371l1.243-2.894c.61-1.335,1.288-3.162,2.074-5.277.288-.774.591-1.592.913-2.444a164.809,164.809,0,0,0,6.518-24.21l.255-1.5c.294-1.721.6-3.5.859-5.229l.789-6.56c.384-4.558.681-8.322.706-11.672.011-.554.024-1.088.037-1.606.028-1.1.054-2.136.042-3.082l-.14-5.821c-.018-.641-.027-.988-.027-1A.471.471,0,0,1,13.778,0Z" transform="translate(0 0)" fill="#adadad"/>
      </g>
      <g id="Group_97" data-name="Group 97" transform="translate(110.832 138.114)">
        <path id="Path_160" data-name="Path 160" d="M.471,0a.468.468,0,0,1,.2.043A72.1,72.1,0,0,0,27.841,6.466,70.282,70.282,0,0,0,55.207,2.039a.471.471,0,1,1,.331.882A70.974,70.974,0,0,1,27.806,7.406,73.055,73.055,0,0,1,.275.9a.47.47,0,0,1,.2-.9Z" transform="translate(0)" fill="#d3d3d3"/>
      </g>
      <g id="Group_98" data-name="Group 98" transform="translate(121.873 131.375)">
        <path id="Path_161" data-name="Path 161" d="M39.583,0a1.881,1.881,0,0,1,.643,3.649A60.386,60.386,0,0,1,30.733,6.09L29.541,6.3a10.5,10.5,0,0,1-1.376.2c-.7.075-1.462.169-2.225.279-.056.008-.112.014-.169.017-.53.028-1.062.069-1.591.111-1.067.082-2.168.173-3.31.154a58.8,58.8,0,0,1-9.831-.52,63.952,63.952,0,0,1-9.7-2A1.88,1.88,0,1,1,2.42.947a60.57,60.57,0,0,0,9.15,1.875,55.378,55.378,0,0,0,9.283.483c1.037.012,2.006-.063,3.034-.143.533-.042,1.067-.082,1.6-.112q1.176-.168,2.356-.291a8.032,8.032,0,0,0,1-.154l1.216-.214A56.633,56.633,0,0,0,38.94.114,1.873,1.873,0,0,1,39.583,0Z" transform="translate(0 0)" fill="#7bbbb1"/>
      </g>
      <g id="Group_99" data-name="Group 99" transform="translate(73.751 126.332)">
        <path id="Path_162" data-name="Path 162" d="M.471,0A.468.468,0,0,1,.839.178,84.04,84.04,0,0,0,27.1,22.168,85.246,85.246,0,0,0,60.051,32a.47.47,0,1,1-.079.937A86.183,86.183,0,0,1,26.653,23,84.975,84.975,0,0,1,.1.763.471.471,0,0,1,.471,0Z" transform="translate(0)" fill="#d3d3d3"/>
      </g>
      <g id="Group_100" data-name="Group 100" transform="translate(177.795 122.942)">
        <path id="Path_163" data-name="Path 163" d="M33,0a.47.47,0,0,1,.382.745A89.3,89.3,0,0,1,18.813,16.46,90.921,90.921,0,0,1,.678,28.174a.47.47,0,1,1-.414-.844A89.963,89.963,0,0,0,18.208,15.741,88.366,88.366,0,0,0,32.616.195.468.468,0,0,1,33,0Z" transform="translate(0 0)" fill="#adadad"/>
      </g>
      <g id="Group_101" data-name="Group 101" transform="translate(329.139 48.825)">
        <path id="Path_164" data-name="Path 164" d="M29.558,0a.469.469,0,0,1,.466.419A225.063,225.063,0,0,1,31.09,35.73a222.209,222.209,0,0,1-4.638,34.951A218.887,218.887,0,0,1,.876,136.266a.47.47,0,0,1-.811-.475,217.938,217.938,0,0,0,25.468-65.3,221.169,221.169,0,0,0,4.618-34.8A224.181,224.181,0,0,0,29.09.522.47.47,0,0,1,29.506,0,.4.4,0,0,1,29.558,0Z" transform="translate(0 0)" fill="#d3d3d3"/>
      </g>
      <g id="Group_102" data-name="Group 102" transform="translate(276.054 149.999)">
        <path id="Path_165" data-name="Path 165" d="M58.654,0a.449.449,0,0,1,.174.034.47.47,0,0,1,.263.611,211.436,211.436,0,0,1-24.155,44.3A209.639,209.639,0,0,1,.777,82.15a.471.471,0,0,1-.613-.714A208.7,208.7,0,0,0,34.171,44.4,210.5,210.5,0,0,0,58.217.3.47.47,0,0,1,58.654,0Z" transform="translate(0 0)" fill="#adadad"/>
      </g>
      <g id="Group_103" data-name="Group 103" transform="translate(314.288 57.067)">
        <path id="Path_166" data-name="Path 166" d="M24.783,0a2.821,2.821,0,0,1,2.811,2.627,201.388,201.388,0,0,1-22.272,106.8,2.82,2.82,0,1,1-5-2.6A195.761,195.761,0,0,0,21.966,3.014,2.82,2.82,0,0,1,24.587.007C24.653,0,24.718,0,24.783,0Z" transform="translate(0 0)" fill="#adadad"/>
      </g>
      <g id="Group_104" data-name="Group 104" transform="translate(281.04 151.258)">
        <path id="Path_167" data-name="Path 167" d="M41.391,0a2.823,2.823,0,0,1,2.575,3.968A199.8,199.8,0,0,1,4.845,62.039,2.82,2.82,0,1,1,.8,58.113,194.18,194.18,0,0,0,38.812,1.675,2.823,2.823,0,0,1,41.391,0Z" transform="translate(0 0)" fill="#adadad"/>
      </g>
      <g id="Group_105" data-name="Group 105" transform="translate(88.314 229.044)">
        <path id="Path_168" data-name="Path 168" d="M2.821,0a2.824,2.824,0,0,1,.855.134l2.8.89L9.306,1.8c.559.147,1.147.307,1.734.466,1.355.368,2.635.715,3.937,1.014l5.817,1.273c1.256.277,2.52.486,3.86.708.64.106,1.279.212,1.917.326a2.82,2.82,0,0,1-.987,5.553c-.617-.109-1.235-.211-1.853-.314-1.352-.224-2.749-.456-4.146-.763L13.743,8.787C12.3,8.458,10.91,8.079,9.562,7.713,8.988,7.557,8.413,7.4,7.838,7.25l-2.913-.8-.106-.031L1.967,5.51A2.821,2.821,0,0,1,2.821,0Z" transform="translate(0 0)" fill="#dcdcdc"/>
      </g>
      <g id="Group_106" data-name="Group 106" transform="translate(47.262 184.538)">
        <path id="Path_169" data-name="Path 169" d="M2.822,0A2.812,2.812,0,0,1,4.564.6,157.063,157.063,0,0,0,21.6,12.314a154.7,154.7,0,0,0,18.5,9.106,2.82,2.82,0,0,1-2.135,5.221,160.458,160.458,0,0,1-19.2-9.456A162.381,162.381,0,0,1,1.077,5.037,2.82,2.82,0,0,1,2.822,0Z" transform="translate(0 0)" fill="#dcdcdc"/>
      </g>
      <g id="Group_107" data-name="Group 107" transform="translate(105.861 212.695)">
        <path id="Path_170" data-name="Path 170" d="M2.818,0a2.87,2.87,0,0,1,.6.065L7.6.976c.843.179,1.713.324,2.634.476.489.08.978.162,1.466.249a2.82,2.82,0,1,1-.988,5.553c-.466-.082-.933-.16-1.4-.237-.943-.156-1.918-.318-2.9-.527L2.22,5.577A2.821,2.821,0,0,1,2.818,0Z" transform="translate(0)" fill="#adadad"/>
      </g>
      <g id="Group_108" data-name="Group 108" transform="translate(29.721 149.872)">
        <path id="Path_171" data-name="Path 171" d="M.469,0A.471.471,0,0,1,.851.195c.416.574.825,1.153,1.234,1.731C2.842,3,3.626,4.105,4.435,5.159L8.244,9.964l4.036,4.6c.894.984,1.849,1.959,2.772,2.9.491.5.982,1,1.468,1.511a135,135,0,0,0,18.813,15.6A134.19,134.19,0,0,0,79.8,54.421a.47.47,0,1,1-.222.914A135.1,135.1,0,0,1,34.8,35.356a135.829,135.829,0,0,1-18.952-15.72c-.491-.512-.981-1.013-1.469-1.513-.929-.95-1.89-1.931-2.8-2.935L7.521,10.567,3.694,5.737C2.868,4.663,2.079,3.548,1.316,2.469.91,1.893.5,1.317.089.746A.47.47,0,0,1,.469,0Z" transform="translate(0 0)" fill="#adadad"/>
      </g>
      <g id="Group_109" data-name="Group 109" transform="translate(189.534 185.283)">
        <path id="Path_172" data-name="Path 172" d="M25.444,0a1.411,1.411,0,0,1,.773,2.591A136.791,136.791,0,0,1,1.93,15.194,1.41,1.41,0,0,1,.89,12.572,133.94,133.94,0,0,0,24.674.23,1.408,1.408,0,0,1,25.444,0Z" transform="translate(0 0)" fill="#c48e61"/>
      </g>
      <g id="Group_110" data-name="Group 110" transform="translate(61.829 169.403)">
        <path id="Path_173" data-name="Path 173" d="M2.822,0A2.809,2.809,0,0,1,4.529.576L7.838,3.094l3.431,2.353c.2.136.419.286.636.437.341.235.681.472,1.031.695L14.7,7.668c.425.256.869.532,1.311.807.762.474,1.481.921,2.214,1.337.54.294,1.119.614,1.7.936,1.9,1.052,3.7,2.046,5.569,2.912.037.017.073.034.109.053,1.958,1.009,3.968,1.871,6.1,2.782l1.439.62a2.82,2.82,0,0,1-2.24,5.176l-1.421-.611c-2.106-.9-4.285-1.837-6.4-2.927-2.038-.945-3.991-2.026-5.879-3.072q-.854-.473-1.708-.94c-.875-.5-1.676-.995-2.453-1.476-.422-.263-.844-.526-1.27-.783L9.945,11.36c-.446-.282-.85-.561-1.251-.839-.2-.137-.4-.275-.6-.409l-3.507-2.4c-.039-.027-.077-.053-.114-.082L1.112,5.065A2.82,2.82,0,0,1,2.822,0Z" transform="translate(0 0)" fill="#adadad"/>
      </g>
      <g id="Group_111" data-name="Group 111" transform="translate(120.95 187.161)">
        <path id="Path_174" data-name="Path 174" d="M.47,0A.471.471,0,0,1,.55.007,116.28,116.28,0,0,0,20,1.734,118.6,118.6,0,0,0,38.939.208a.478.478,0,0,1,.54.389.472.472,0,0,1-.389.54A120.835,120.835,0,0,1,19.741,2.674,114.879,114.879,0,0,1,.391.934.471.471,0,0,1,.47,0Z" transform="translate(0)" fill="#adadad"/>
      </g>
      <g id="Group_112" data-name="Group 112" transform="translate(54.357 132.07)">
        <path id="Path_175" data-name="Path 175" d="M2.819,0a2.817,2.817,0,0,1,2.3,1.179,100.728,100.728,0,0,0,17.68,18.713c.028.023.056.047.082.071.484.434,1.036.848,1.621,1.286.277.208.554.416.828.629.306.227.655.5,1,.766.526.406,1.021.789,1.521,1.136.587.389,1.214.823,1.842,1.257,1.189.825,2.313,1.6,3.483,2.28.44.265.826.506,1.213.747.538.335,1.076.671,1.624.99l2.843,1.559c.176.1.366.2.555.308.265.15.529.3.8.435l4.453,2.169a2.821,2.821,0,0,1-2.476,5.069l-4.466-2.176c-.383-.191-.731-.385-1.079-.581-.163-.091-.324-.182-.488-.272l-2.921-1.6c-.658-.383-1.244-.748-1.829-1.112-.366-.227-.731-.456-1.1-.679-1.323-.763-2.6-1.646-3.828-2.5-.595-.411-1.188-.824-1.791-1.224-.671-.463-1.25-.911-1.809-1.344-.318-.246-.637-.492-.961-.733-.3-.229-.55-.419-.8-.608-.643-.482-1.308-.981-1.962-1.563A106.329,106.329,0,0,1,.527,4.462,2.82,2.82,0,0,1,2.819,0Z" transform="translate(0 0)" fill="#ececec"/>
      </g>
      <g id="Group_113" data-name="Group 113" transform="translate(65.179 160.869)">
        <path id="Path_176" data-name="Path 176" d="M.47,0A.469.469,0,0,1,.777.114,115.568,115.568,0,0,0,38.819,21.855a.47.47,0,1,1-.3.89A116.486,116.486,0,0,1,.163.826.469.469,0,0,1,.114.163.465.465,0,0,1,.47,0Z" transform="translate(0 0)" fill="#adadad"/>
      </g>
      <g id="Group_114" data-name="Group 114" transform="translate(107.162 171.558)">
        <path id="Path_177" data-name="Path 177" d="M.47,0a.492.492,0,0,1,.15.024A105.906,105.906,0,0,0,22.336,4.88a.471.471,0,0,1,.414.521.479.479,0,0,1-.521.414A106.9,106.9,0,0,1,.32.916.47.47,0,0,1,.47,0Z" transform="translate(0)" fill="#adadad"/>
      </g>
      <g id="Group_115" data-name="Group 115" transform="translate(224.144 117.218)">
        <path id="Path_178" data-name="Path 178" d="M20.465,0A.469.469,0,0,1,20.9.656a108.249,108.249,0,0,1-8.721,16.559A116.734,116.734,0,0,1,.82,32.064a.47.47,0,1,1-.7-.629A115.679,115.679,0,0,0,11.388,16.7,107.3,107.3,0,0,0,20.033.285.47.47,0,0,1,20.465,0Z" transform="translate(0)" fill="#adadad"/>
      </g>
      <g id="Group_116" data-name="Group 116" transform="translate(251.54 0)">
        <path id="Path_179" data-name="Path 179" d="M2.818,0A2.82,2.82,0,0,1,5.211,1.323c.137.221.278.438.418.656.293.455.586.911.859,1.378L7.653,5.4c.271.484.537.947.8,1.41.5.875,1.021,1.778,1.513,2.7.383.768.74,1.467,1.1,2.166,1.042,2.046,2.119,4.161,3.042,6.365a130.714,130.714,0,0,1,6.487,17.739l1.24,4.519c.008.03.015.06.023.089.238.994.458,1.992.679,2.99q.172.784.349,1.569l.172.777c.117.521.233,1.041.337,1.563L23.8,49.64c.088.539.178,1.053.269,1.568.177,1.01.36,2.055.5,3.12a148.432,148.432,0,0,1,1.344,18.816A136.213,136.213,0,0,1,5.559,145.11a2.821,2.821,0,0,1-4.8-2.969A130.532,130.532,0,0,0,20.268,73.178a142.894,142.894,0,0,0-1.294-18.1c-.125-.966-.29-1.9-.465-2.9-.095-.537-.189-1.073-.276-1.611l-.388-2.26c-.081-.407-.188-.881-.294-1.354l-.176-.792c-.114-.508-.232-1.041-.35-1.573-.209-.95-.419-1.9-.645-2.847L15.166,37.32A124.98,124.98,0,0,0,8.958,20.348c-.014-.029-.027-.059-.04-.088-.845-2.024-1.833-3.967-2.882-6.024-.363-.714-.727-1.429-1.084-2.146-.422-.792-.905-1.633-1.389-2.475-.274-.479-.549-.958-.82-1.44L1.6,6.18c-.218-.372-.468-.759-.718-1.146C.734,4.8.581,4.558.431,4.318A2.821,2.821,0,0,1,2.818,0Z" transform="translate(0 0)" fill="#d3d3d3"/>
      </g>
      <g id="Group_117" data-name="Group 117" transform="translate(120.997 103.27)">
        <path id="Path_180" data-name="Path 180" d="M40.379,0a1.411,1.411,0,0,1,.731,2.617c-.258.156-.507.327-.756.5l-.3.2a1.256,1.256,0,0,1-.161.094c-.353.174-.7.366-1.04.572-.1.054-.149.089-.2.124a4.66,4.66,0,0,1-.465.271l-.613.284c-.169.078-.33.167-.492.256-.213.117-.426.232-.644.334-.041.018-.082.036-.124.05-.291.1-.592.243-.91.391a10.362,10.362,0,0,1-1.5.6c-.085.028-.2.084-.321.137a5.021,5.021,0,0,1-.929.336c-.29.084-.639.2-.979.325a4.086,4.086,0,0,1-.818.244l-.572.148c-.091.024-.2.059-.305.092a6.073,6.073,0,0,1-1.043.254c-.353.068-.711.153-1.063.252-.05.014-.1.025-.152.034-.166.027-.332.05-.5.074-.231.033-.463.064-.691.112l-.627.127a1.391,1.391,0,0,1-.16.023l-.633.055c-.176.013-.34.04-.5.066-.262.041-.524.081-.789.1-.386.008-.708.036-1.031.062a13.457,13.457,0,0,1-1.624.064A39.273,39.273,0,0,1,.7,3.57,1.41,1.41,0,0,1,2.12,1.132,36.483,36.483,0,0,0,21.136,5.978a.848.848,0,0,1,.1,0,10.787,10.787,0,0,0,1.325-.056c.381-.031.762-.06,1.143-.068.115-.008.288-.038.464-.066.237-.037.473-.073.714-.092l.541-.047.54-.109c.282-.058.572-.1.863-.142.121-.017.242-.034.363-.053.42-.115.844-.214,1.264-.295.034-.006.068-.011.1-.015a3.594,3.594,0,0,0,.582-.152c.141-.044.284-.089.427-.127l.626-.16.075-.018a1.927,1.927,0,0,0,.3-.078c.027-.013.056-.025.085-.036.425-.16.864-.3,1.305-.429a2.789,2.789,0,0,0,.483-.182,6.6,6.6,0,0,1,.644-.256,8.221,8.221,0,0,0,1.14-.464c.344-.16.7-.325,1.089-.468.143-.069.282-.147.422-.224.221-.121.441-.24.667-.344l.581-.269c.034-.017.09-.057.149-.1.1-.066.206-.131.313-.191.337-.205.724-.418,1.117-.617l.206-.14c.292-.2.586-.4.888-.582A1.4,1.4,0,0,1,40.379,0Z" transform="translate(0 0)" fill="#adadad"/>
      </g>
      <g id="Group_118" data-name="Group 118" transform="translate(163.071 243.453)">
        <path id="Path_181" data-name="Path 181" d="M74.691,0a2.821,2.821,0,0,1,1.382,5.281A200.968,200.968,0,0,1,3.168,29.258a2.82,2.82,0,1,1-.695-5.6A195.247,195.247,0,0,0,73.312.361,2.817,2.817,0,0,1,74.691,0Z" transform="translate(0)" fill="#d3d3d3"/>
      </g>
      <g id="Group_119" data-name="Group 119" transform="translate(213.175 40.183)">
        <path id="Path_182" data-name="Path 182" d="M2.821,0A2.823,2.823,0,0,1,5.433,1.754a83.425,83.425,0,0,1,6.085,28.412A82.6,82.6,0,0,1,7.471,59.113,2.821,2.821,0,0,1,2.1,57.373,78.091,78.091,0,0,0,5.882,30.391,77.812,77.812,0,0,0,.21,3.888,2.821,2.821,0,0,1,2.821,0Z" transform="translate(0 0)" fill="#adadad"/>
      </g>
      <g id="Group_120" data-name="Group 120" transform="translate(242.506 115.063)">
        <path id="Path_183" data-name="Path 183" d="M15.293,0a2.823,2.823,0,0,1,2.635,3.824A125.3,125.3,0,0,1,5.166,28.807a2.82,2.82,0,0,1-4.692-3.13A119.681,119.681,0,0,0,12.656,1.819,2.821,2.821,0,0,1,15.293,0Z" transform="translate(0)" fill="#adadad"/>
      </g>
      <g id="Group_121" data-name="Group 121" transform="translate(47.975 67.45)">
        <path id="Path_184" data-name="Path 184" d="M1.947,0l.066,0A1.88,1.88,0,0,1,3.827,1.947,90.289,90.289,0,0,0,5.787,25.03,90.916,90.916,0,0,0,8.953,36.182L10.006,38.9c.076.192.149.391.223.589.094.253.188.506.291.755l1.763,3.975,1.322,2.6a1.88,1.88,0,1,1-3.35,1.709L8.907,45.877c-.018-.033-.032-.066-.047-.1L7.068,41.734c-.144-.347-.253-.641-.363-.935-.067-.179-.134-.357-.2-.536L5.43,37.5c-.012-.028-.021-.057-.031-.086a94.059,94.059,0,0,1-3.29-11.6,93.832,93.832,0,0,1-2.04-24A1.88,1.88,0,0,1,1.947,0Z" transform="translate(0 0)" fill="#badcd6"/>
      </g>
      <g id="Group_122" data-name="Group 122" transform="translate(147.965 83.463)">
        <path id="Path_185" data-name="Path 185" d="M40.549,0a2.819,2.819,0,0,1,2.762,3.405,21.187,21.187,0,0,1-.647,2.259c-.13.4-.261.792-.371,1.194-.019.072-.042.143-.067.213-.1.272-.2.541-.31.811-.1.252-.2.5-.288.76-.057.156-.088.247-.118.337-.068.2-.137.4-.215.594-.017.042-.034.082-.053.123l-.325.712a48.04,48.04,0,0,1-3.229,6.367c-.021.038-.045.076-.069.113q-.412.641-.787,1.308c-.05.087-.1.172-.161.253l-.185.26c-.245.34-.489.679-.718,1.028-.015.023-.03.045-.044.066-.042.06-.081.123-.12.185-.134.214-.273.425-.426.624l-.557.7c-.14.172-.25.327-.36.482a12.043,12.043,0,0,1-.743.96c-.288.318-.534.615-.781.913-.457.548-.929,1.115-1.5,1.673a21.231,21.231,0,0,1-1.534,1.579c-.29.278-.582.555-.856.847l-.062.063c-.31.308-.618.563-.888.789-.154.127-.31.255-.456.392l-.652.6a6.188,6.188,0,0,1-.662.534c-.048.035-.1.069-.144.106l-.065.051q-.624.477-1.224.988c-.06.052-.122.1-.187.147-.215.154-.434.3-.654.455-.247.169-.495.338-.734.517l-.692.52c-.043.032-.086.063-.13.092-.178.118-.36.227-.543.336-.085.05-.169.1-.253.153-.479.3-.927.592-1.368.9a2.836,2.836,0,0,1-.269.166l-.107.058c-.438.236-.873.469-1.3.723l-.721.435a2.587,2.587,0,0,1-.25.134l-.772.366c-.253.121-.508.257-.764.392-.231.122-.461.244-.694.36-.072.037-.145.069-.22.1-.455.182-.9.374-1.345.58a11.43,11.43,0,0,1-1.484.619l-.342.125-.082.029c-.16.054-.315.124-.472.19a9.823,9.823,0,0,1-1.267.463c-.417.124-.877.275-1.337.44a7.461,7.461,0,0,1-1.146.345L6.9,40.1a18.937,18.937,0,0,1-2.1.532c-.405.085-.811.169-1.211.281a2.82,2.82,0,0,1-1.533-5.428c.553-.156,1.076-.267,1.584-.372a13.764,13.764,0,0,0,1.534-.382c.066-.023.132-.044.2-.06l.813-.214.112-.027a2.305,2.305,0,0,0,.336-.092l.121-.046c.589-.212,1.179-.406,1.754-.576a5.174,5.174,0,0,0,.6-.23c.276-.117.551-.231.832-.329l.365-.133a6.954,6.954,0,0,0,.805-.323c.044-.024.089-.047.134-.068.524-.246,1.056-.477,1.586-.691.161-.082.321-.167.482-.253.324-.172.65-.344.982-.5l.652-.308.617-.372c.5-.3.993-.565,1.488-.831q.713-.491,1.447-.947c.107-.067.241-.148.375-.227.081-.048.163-.1.242-.147l.625-.469c.307-.229.616-.441.925-.653.155-.107.311-.213.464-.321q.655-.555,1.335-1.077c.115-.091.233-.178.351-.263.049-.035.1-.069.144-.107l.647-.595c.2-.192.444-.394.684-.593.167-.139.336-.275.491-.425.33-.347.675-.679,1.021-1.009A15.3,15.3,0,0,0,27,21.621a2.912,2.912,0,0,1,.219-.236A16.815,16.815,0,0,0,28.4,20.056c.3-.356.594-.711.905-1.056.117-.133.24-.314.369-.492.179-.251.361-.5.555-.74l.506-.634c.015-.022.054-.09.1-.157.076-.121.154-.242.235-.36.267-.406.55-.8.833-1.2l.094-.131c.271-.476.555-.944.843-1.4A42.651,42.651,0,0,0,35.7,8.271c.018-.046.037-.092.058-.138l.323-.707c.034-.089.063-.178.093-.267.049-.145.1-.289.153-.432.089-.262.218-.589.346-.914.073-.186.147-.371.216-.559.127-.453.274-.9.421-1.349a16.571,16.571,0,0,0,.487-1.669A2.821,2.821,0,0,1,40.549,0Z" transform="translate(0 0)" fill="#ececec"/>
      </g>
      <g id="Group_123" data-name="Group 123" transform="translate(142.685 156.942)">
        <path id="Path_186" data-name="Path 186" d="M39.5,0a1.881,1.881,0,0,1,.819,3.574,95.357,95.357,0,0,1-18.684,6.754,96.432,96.432,0,0,1-19.7,2.706,1.88,1.88,0,0,1-.125-3.759,92.616,92.616,0,0,0,18.925-2.6A91.711,91.711,0,0,0,38.688.189,1.865,1.865,0,0,1,39.5,0Z" transform="translate(0 0)" fill="#7bbbb1"/>
      </g>
    </g>
  </g>
</svg>
