<svg xmlns="http://www.w3.org/2000/svg" width="59.784" height="50.434" viewBox="0 0 59.784 50.434">
  <g id="shrekna" transform="translate(-1284.216 -5055.578)">
    <path id="Path_51592" data-name="Path 51592" d="M292.932,382.842l11.389-4.128a22.954,22.954,0,1,0-7.633-8.006Z" transform="translate(991.284 4723.169)" fill="#00564e"/>
    <path id="Path_52750" data-name="Path 52750" d="M339.668,382.842l-11.389-4.128a22.954,22.954,0,1,1,7.633-8.006Z" transform="translate(1004.332 4719.254)" fill="#cca079"/>
    <path id="Path_51593" data-name="Path 51593" d="M316.777,350.516a3.193,3.193,0,1,1-3.194-3.192,3.194,3.194,0,0,1,3.194,3.192" transform="translate(1018.376 4728.104)" fill="#fff"/>
    <path id="Path_51594" data-name="Path 51594" d="M310.364,350.516a3.191,3.191,0,1,1-3.192-3.192,3.192,3.192,0,0,1,3.192,3.192" transform="translate(1013.221 4728.104)" fill="#fff"/>
    <path id="Path_51595" data-name="Path 51595" d="M303.955,350.516a3.191,3.191,0,1,1-3.192-3.192,3.192,3.192,0,0,1,3.192,3.192" transform="translate(1008.065 4728.104)" fill="#fff"/>
  </g>
</svg>
