<svg xmlns="http://www.w3.org/2000/svg" width="65.704" height="66" viewBox="0 0 65.704 66">
  <g id="st-goal-new-3" transform="translate(-903 -3288)">
    <g id="Group_25640" data-name="Group 25640" transform="translate(903 3288)">
      <g id="online-shopping" transform="translate(11.046 0)">
        <g id="Group_25639" data-name="Group 25639" transform="translate(0 0)">
          <path id="Path_59310" data-name="Path 59310" d="M114.4,31.9a3.545,3.545,0,0,0,.489-3.975H116.3a3.071,3.071,0,0,0,2.99-2.422l2.435-11.473a3.089,3.089,0,0,0-3.235-3.691V6.3a2.376,2.376,0,0,0-2.373-2.373h-4.642a.963.963,0,0,0,0,1.927h4.642a.447.447,0,0,1,.447.447v4.04h-8.585V2.373A2.376,2.376,0,0,0,105.608,0H97.916a2.376,2.376,0,0,0-2.373,2.373v7.963H92.926L90.29,7.473a3.628,3.628,0,0,0-2.662-1.167h-2.9a.963.963,0,0,0,0,1.927h2.9a1.7,1.7,0,0,1,1.244.546l2.7,2.927.988,13.386A3.069,3.069,0,0,0,95.6,27.922h1.285a3.545,3.545,0,0,0,.489,3.975s.471.793,2.67.793a6.829,6.829,0,0,0,2.67-.793h6.346a4.893,4.893,0,0,0,5.34,0Zm-1.041-2.345a1.63,1.63,0,1,1-1.63-1.63A1.632,1.632,0,0,1,113.364,29.552ZM97.916,1.927h2.444L97.469,4.9V2.373a.447.447,0,0,1,.447-.447ZM97.469,7.66l5.579-5.734h2.559a.447.447,0,0,1,.447.447v7.963H97.469ZM94.478,24.949l-.937-12.686h25.2a1.137,1.137,0,0,1,1.105,1.364L117.408,25.1a1.135,1.135,0,0,1-1.105.9H95.6A1.134,1.134,0,0,1,94.478,24.949Zm7.2,4.6a1.63,1.63,0,1,1-1.63-1.63A1.632,1.632,0,0,1,101.678,29.552Zm1.53-1.629h5.367a3.545,3.545,0,0,0,.489,3.975h-6.346a6.251,6.251,0,0,0,.886-2.345A3.533,3.533,0,0,0,103.208,27.922Z" transform="translate(-83.766 0)" fill="#007066"/>
          <path id="Path_59311" data-name="Path 59311" d="M187.321,122.9H204.5a.963.963,0,0,0,0-1.927H187.321a.963.963,0,0,0,0,1.927Z" transform="translate(-173.18 -105.435)" fill="#007066"/>
          <path id="Path_59312" data-name="Path 59312" d="M252.929,159.576h-8.857a.963.963,0,0,0,0,1.927h8.857a.963.963,0,1,0,0-1.927Z" transform="translate(-222.642 -139.079)" fill="#007066"/>
          <path id="Path_59313" data-name="Path 59313" d="M190.89,160.539a.963.963,0,0,0-.963-.963h-2.6a.963.963,0,0,0,0,1.927h2.6A.963.963,0,0,0,190.89,160.539Z" transform="translate(-173.181 -139.079)" fill="#007066"/>
        </g>
      </g>
      <g id="online-shopping-2" data-name="online-shopping" transform="translate(0 32.045)">
        <g id="Group_25639-2" data-name="Group 25639" transform="translate(0 0)">
          <path id="Path_59310-2" data-name="Path 59310" d="M65.2,248.323a2.387,2.387,0,0,0-1.718-.735c-4.827-.141,0,0,0,0H2.53s8.4-.245,0,0a2.386,2.386,0,0,0-2.372,2.477,32.884,32.884,0,0,0,32.848,31.369h.031a32.883,32.883,0,0,0,32.817-31.369,2.346,2.346,0,0,0-.654-1.742Zm-1.271,1.655a30.986,30.986,0,0,1-1.175,7.167q-3.978,1.564-8.01,2.723a44.587,44.587,0,0,0,1.205-6.751.963.963,0,1,0-1.917-.193,42.124,42.124,0,0,1-1.45,7.538,83.7,83.7,0,0,1-8.41,1.732,72.132,72.132,0,0,0,.879-12.679H63.482a.416.416,0,0,1,.447.463ZM21.9,262.386l.008.044a72.458,72.458,0,0,1-8.338-1.616,42.782,42.782,0,0,1-1.769-11.3h9.18A72.038,72.038,0,0,0,21.9,262.386Zm1.011-12.872h9.151v13.6a77.218,77.218,0,0,1-8.147-.44A71.255,71.255,0,0,1,22.91,249.515Zm20.211,0a71.406,71.406,0,0,1-.961,12.963,78.872,78.872,0,0,1-8.172.613V249.515Zm-9.133,29.28V265.02c2.594-.059,5.2-.244,7.786-.554C40.553,270.155,38.26,275.88,33.988,278.795Zm-1.927-13.754V278.8c-4.226-2.883-6.519-8.515-7.754-14.143Q28.156,265.036,32.061,265.041Zm8.783,8.3a37.59,37.59,0,0,0,2.961-9.141q4.04-.584,8.069-1.571a31.27,31.27,0,0,1-2.476,5.3A23.577,23.577,0,0,1,37.679,278.1,20.541,20.541,0,0,0,40.844,273.34ZM2.53,249.515H9.868a43.7,43.7,0,0,0,1.51,10.7A50.919,50.919,0,0,1,3.273,257.2a30.975,30.975,0,0,1-1.191-7.225.433.433,0,0,1,.447-.463ZM4.118,259.7a60.521,60.521,0,0,0,7.928,2.712,34.075,34.075,0,0,0,2.8,6.254.963.963,0,1,0,1.666-.967,31.027,31.027,0,0,1-2.212-4.715,76.664,76.664,0,0,0,7.98,1.438,37.348,37.348,0,0,0,2.92,8.916,20.566,20.566,0,0,0,3.166,4.754,23.253,23.253,0,0,1-9.331-6.769.963.963,0,0,0-1.481,1.233,25.044,25.044,0,0,0,6.775,5.717A31.047,31.047,0,0,1,4.118,259.7Zm50.3,11.2a30.836,30.836,0,0,1-12.647,7.345,25.689,25.689,0,0,0,9.284-9.344,33.932,33.932,0,0,0,3.052-6.856q3.95-1.078,7.859-2.538A30.9,30.9,0,0,1,54.42,270.9Z" transform="translate(-0.153 -247.479)" fill="#cca079"/>
        </g>
      </g>
    </g>
  </g>
</svg>
