<svg id="st-goal-new-1" xmlns="http://www.w3.org/2000/svg" width="60" height="60" viewBox="0 0 60 60">
  <path id="Path_59387" data-name="Path 59387" d="M27.25,43.5A16.25,16.25,0,1,1,43.5,27.25,16.269,16.269,0,0,1,27.25,43.5Zm0-30A13.75,13.75,0,1,0,41,27.25,13.765,13.765,0,0,0,27.25,13.5Z" transform="translate(16.5 16.5)" fill="#007066"/>
  <path id="Path_59388" data-name="Path 59388" d="M16.25,42.1A1.25,1.25,0,0,1,15,40.85V12.6a1.25,1.25,0,0,1,2.5,0V40.85A1.25,1.25,0,0,1,16.25,42.1Z" transform="translate(22.5 17.025)" fill="#007066"/>
  <path id="Path_59389" data-name="Path 59389" d="M20.25,42.1A1.25,1.25,0,0,1,19,40.85V12.6a1.25,1.25,0,0,1,2.5,0V40.85A1.25,1.25,0,0,1,20.25,42.1Z" transform="translate(28.5 17.025)" fill="#007066"/>
  <path id="Path_59390" data-name="Path 59390" d="M40.85,17.5H12.6a1.25,1.25,0,0,1,0-2.5H40.85a1.25,1.25,0,0,1,0,2.5Z" transform="translate(17.025 22.5)" fill="#007066"/>
  <path id="Path_59391" data-name="Path 59391" d="M40.85,21.5H12.6a1.25,1.25,0,0,1,0-2.5H40.85a1.25,1.25,0,0,1,0,2.5Z" transform="translate(17.025 28.5)" fill="#007066"/>
  <path id="Path_59392" data-name="Path 59392" d="M23.75,52.5h-20A3.755,3.755,0,0,1,0,48.75v-45A3.755,3.755,0,0,1,3.75,0h45A3.755,3.755,0,0,1,52.5,3.75v20a1.25,1.25,0,0,1-2.5,0v-20A1.25,1.25,0,0,0,48.75,2.5h-45A1.25,1.25,0,0,0,2.5,3.75v45A1.25,1.25,0,0,0,3.75,50h20a1.25,1.25,0,0,1,0,2.5Z" fill="#cca079"/>
  <path id="Path_59393" data-name="Path 59393" d="M27.25,22.5a1.252,1.252,0,0,1-.75-.25l-9.25-6.938L8,22.25a1.25,1.25,0,0,1-2-1v-20A1.25,1.25,0,0,1,7.25,0h20A1.25,1.25,0,0,1,28.5,1.25v20a1.252,1.252,0,0,1-.69,1.117A1.27,1.27,0,0,1,27.25,22.5ZM8.5,18.75Z" transform="translate(9)" fill="#bbb"/>
</svg>
