<svg xmlns="http://www.w3.org/2000/svg" width="75.241" height="66" viewBox="0 0 75.241 66">
  <g id="st-goal-new-2" transform="translate(-931.281 -3512)">
    <path id="Path_59223" data-name="Path 59223" d="M962.238,386.285a1.393,1.393,0,0,0-.153.29c-.017.085-.171.511-.171.511a1.025,1.025,0,0,0-.119.239.688.688,0,0,1,0,.187.549.549,0,0,0,0,.17l-.1.188s.017.017,0,.119a1.33,1.33,0,0,0,0,.273,1.436,1.436,0,0,0-.17.221,1.414,1.414,0,0,0,0,.273.963.963,0,0,1-.008.273c-.026.034-.359.733-.359.733a2.569,2.569,0,0,1-.145.238.853.853,0,0,0-.1.2c-.026.06-.1.1-.119.128s-.128.06-.119.136-.026.128.077.162.128-.077.247-.128a.424.424,0,0,1,.332.051c.068.034.23.132.341.083s.1-.151.273-.083a2.21,2.21,0,0,1,.537.273c.051.068.434.681.477.784s.23.486.264.545.077.094.085.17-.085.332,0,.435.255.443.341.537.23.162.273.3a1.04,1.04,0,0,1,.051.4c-.017.077-.1.128-.085.179s.588.494.665.613.162.537.247.682.485.639.545.758.136.494.2.639a4.642,4.642,0,0,1,.2.46.932.932,0,0,0,.213.417c.094.068.213-.034.358.136a.367.367,0,0,1,.043.426c-.043.085-.179.085-.111.264s.2.375.281.4.239,0,.29.094a3.718,3.718,0,0,0,.239.554,1.677,1.677,0,0,1,.222.417c.051.136.043.366.119.443s.136.043.272.264a1.1,1.1,0,0,1,.2.69c-.034.2-.068.358-.076.4s.017.222,0,.264-.171-.068-.2.06.06.145.111.256.023.221.177.324a.552.552,0,0,1,.257.29c.068.145.179.29.213.358a.5.5,0,0,1,.06.221c0,.077.034.1,0,.162s-.085.068.094.2.281.221.281.221.145.051.179,0,.043-.128.136-.043.281.2.349.281.136.179.2.111.128-.145.2-.051.486.545.613.673a4.322,4.322,0,0,1,.477.409c.111.153.213.179.392.409s.128.375.179.486.085.332.162.349.119-.077.23.23a1.779,1.779,0,0,1,.136.682.517.517,0,0,0,.17.383.524.524,0,0,1,.111.375.556.556,0,0,0,.085.332c.051.043.213.034.222.1a1.061,1.061,0,0,0,.094.247c.025.051,0,.026,0,.153s-.026.162.068.29a1.309,1.309,0,0,1,.23.409,5.968,5.968,0,0,1,.111.826.6.6,0,0,1-.085.307c-.077.145-.128.145-.145.341s.051.3-.026.383-.247.2-.2.349.017.349-.077.29-.1.1,0,.179a1.414,1.414,0,0,1,.247.392.277.277,0,0,1,.051.273.441.441,0,0,0,.077.315c.06.1.172.187.154.349s.008.179-.12.324a.311.311,0,0,0-.017.4c.068.1,0,.136.034.255s.153.179.222.307.1.341.145.417a.769.769,0,0,0,.213.281c.111.077.222.077.247.222s-.009.239.094.315a.609.609,0,0,1,.188.264,3.041,3.041,0,0,0,.307.588,3.132,3.132,0,0,0,.545.6,2.459,2.459,0,0,0,.63.222,1.1,1.1,0,0,1,.511.2,6.131,6.131,0,0,1,.707.639c.111.119.264.247.358.358a2.784,2.784,0,0,1,.239.418c.043.077.085.094.23.111s.255.068.272.162.009.153.06.2.1.111.068.162-.094.111-.077.187.23.17.315.247.187.221.171.29-.09.077,0,.221.083.221.194.3.128.52.187.571.272.1.255.247-.153.2-.094.349.162.187.222.349a1.18,1.18,0,0,1,0,.426,2.317,2.317,0,0,0,.452.682.468.468,0,0,1,.179.358,1.382,1.382,0,0,0,.221.537,7.239,7.239,0,0,0,.426.895,9.876,9.876,0,0,0,.75.784c.153.17.681.656.766.741a4.48,4.48,0,0,1,.452.452,6.271,6.271,0,0,1,.239.877c.077.2.162.162.239.349a.942.942,0,0,0,.256.383.676.676,0,0,1,.23.366.518.518,0,0,0,.111.3,2.687,2.687,0,0,1,.375.75c.009.17-.077.307,0,.383a.929.929,0,0,1,.145.256,1.76,1.76,0,0,0,.426-.23,1.793,1.793,0,0,0,.46-.409c.136-.187.1-.238.273-.307a.431.431,0,0,0,.187-.511c-.085-.119-.272-.136-.2-.494s.1-.307.1-.511-.051-.221.051-.324.027-.119.082-.273-.157-.1,0-.256.429-.562.838-.46a2.137,2.137,0,0,1,.835.324c.238.17.46.324.716.256a3.2,3.2,0,0,1,.63-.1,1.56,1.56,0,0,1,.63-.051c.221.068.034.153.409.034s6.338,2.607,6.338,2.607-.273,3.356,0,3.1,2.317-2.488,2.317-2.488l5.827-6.253s8.928-2.351,10.9-3.135,8.179-3.1,8.451-3.305.341-.613.443-.886,1.534-5.861,1.534-5.861l-1.056-1.738s-.2-.579-.409-.511-.136.477-.341.511-9.78-1.295-9.78-1.295a18.192,18.192,0,0,0-1.022-3.1,1.135,1.135,0,0,0-.307-.051,3.072,3.072,0,0,1-.809-.128,4.716,4.716,0,0,1-.545-.341c-.2-.145-.2-.094-.3-.213s-.324-.247-.409-.443a2.865,2.865,0,0,1-.153-.75c-.008-.162-.034-.042.026-.29l-.443-.451a.111.111,0,0,1-.162-.034,1.821,1.821,0,0,1-.128-.324c-.043-.119-.026-.068-.068-.188a.42.42,0,0,0-.094-.17c-.068-.1-.128-.043-.145-.179s-.026-.17-.077-.23-.077,0-.12-.2-.111-.29-.111-.358-.128-.153-.128-.247a.546.546,0,0,0-.034-.273c-.051-.128.136-.1-.085-.179s-.366-.111-.4-.162-.094-.009-.171-.2a.656.656,0,0,0-.247-.332c-.068-.034-.088-.062-.065-.108s.156.02.15-.051-.23-.256-.278-.321a.336.336,0,0,1-.085-.19,1.137,1.137,0,0,0-.028-.349c-.031-.062-.065-.048-.131-.094s-.1-.031-.133-.139-.091-.156-.094-.224a.365.365,0,0,1,.074-.221c.04-.034.04-.105.122,0s.1.2.2.236.122.065.148-.043.06-.31.077-.454-.051-.2-.017-.3.06-.136.025-.2a.478.478,0,0,0-.153-.2c-.085-.06-.068-.077-.179-.136a.447.447,0,0,1-.2-.179c-.009-.034-.111-.051-.111-.162a2.4,2.4,0,0,0-.043-.366c-.009-.026-.034-.094-.009-.119s.017-.085.17.017.273.187.247.085-.017-.06-.136-.187-.017-.051-.179-.179-.085-.136-.221-.17-.255,0-.366-.06a1.185,1.185,0,0,1-.375-.332c-.051-.1-.256-.136-.29-.239s-.051-.034-.077-.17,0-.145-.077-.2-.119.1-.315.077-.324-.034-.315-.145-.085-.136-.111-.2a.608.608,0,0,1-.051-.23c0-.094.043-.153-.085-.179s-.187.034-.222-.017.026-.068-.034-.111a1.1,1.1,0,0,0-.128-.077s-.136-.077.034-.111.443-.085.358-.145a1.072,1.072,0,0,0-.417-.179c-.111,0-.341.009-.358-.034s-.068-.17-.119-.17-.077.051-.162.051-.17-.051-.162-.1a.124.124,0,0,0-.026-.128,1.365,1.365,0,0,1-.145-.23c0-.026-.128-.017-.085-.085s.162-.026.2-.128a.263.263,0,0,0-.111-.307c-.111-.085-.213-.136-.213-.187s.136-.017.026-.179-.179-.1-.264-.145a.446.446,0,0,1-.2-.256.491.491,0,0,1-.017-.085.33.33,0,0,1,.009-.136c.009-.043.06-.06-.026-.119s-.1-.077-.145-.1-.026-.077-.085-.213-.119-.17-.094-.221.077-.043.034-.128-.051.034-.043-.085.128-.153-.043-.239-.171-.043-.255-.145a11.628,11.628,0,0,0-1.908-.062c-.159,0-.648-.079-.648-.409a1.917,1.917,0,0,0-.182-.806c-.1-.239-.08-.318-.318-.363s-2.647-.352-2.647-.352l-3.044,1.124s-5.623-2.828-5.611-2.874.148-2.4.159-2.453.1-.193-.239-.227-1.4-.125-1.431-.159-.239-.841-.261-.954-5.009-2.76-5.009-2.76-2.34-1.465-2.4-1.511a11.456,11.456,0,0,0-1.09-.647c-.318-.148-1.09-.4-1.261-.454s-.636-.238-.636-.238-.795.636-.9.7-2.011.466-2.045.466a11.876,11.876,0,0,0-1.249.261c-.42.125-2.34.511-2.431.545s-.25.023-.136.227,2.192,3.044,2.249,3.09.466.3.193.4a1.786,1.786,0,0,0-.841.42,7.692,7.692,0,0,0-.557.886,1.525,1.525,0,0,1-.8.341,8.538,8.538,0,0,0-1.408.136c-.08.091-.954,1.068-1.113,1.25a10.551,10.551,0,0,1-.988.772,1.112,1.112,0,0,1-.579.125C964.976,387.024,962.238,386.285,962.238,386.285Z" transform="translate(-29.389 3143.84)" fill="#cca079" opacity="0.38"/>
    <g id="growth" transform="translate(959.844 3512)">
      <path id="Path_59308" data-name="Path 59308" d="M41.65,18.859h5.929L37.138,3.2,30.66,12.913l-1.778.364a16.343,16.343,0,0,0-5.513-2.308l-.712-2.65H16.987l-.712,2.651a16.349,16.349,0,0,0-5.382,2.225L8.519,11.827l-4.01,4.01L5.876,18.21a16.356,16.356,0,0,0-2.225,5.382L1,24.3v5.671l2.651.712a16.349,16.349,0,0,0,2.225,5.382L4.508,38.444l4.01,4.01,2.373-1.367a16.356,16.356,0,0,0,5.382,2.225l.712,2.652h2.057c.028,0,.107,0,.232,0a22.262,22.262,0,0,0,14.8-6.058C38.973,35.175,41.519,28.1,41.65,18.859Zm-22.581,25.6h-.928l-.657-2.442-.465-.087a14.876,14.876,0,0,1-5.676-2.347l-.391-.267-2.186,1.26L6.389,38.2l1.26-2.186-.267-.391a14.869,14.869,0,0,1-2.347-5.676l-.087-.465-2.442-.657V25.459L4.947,24.8l.087-.465a14.876,14.876,0,0,1,2.347-5.676l.267-.391-1.26-2.186,2.378-2.378,2.186,1.26.391-.267a14.869,14.869,0,0,1,5.676-2.347l.465-.087.657-2.442H21.5l.657,2.442.465.087A14.876,14.876,0,0,1,28.3,14.7l.264.179.909-.186-1.21,1.816a12.8,12.8,0,0,0-8.442-2.92,13.552,13.552,0,0,0-.037,27.1,11.263,11.263,0,0,0,8.1-3c4.139-3.706,6.238-10.294,6.238-19.584v-.753H29.51L37.138,5.912l7.628,11.442H40.15v.753c0,9.172-2.391,16.136-7.106,20.7A21.048,21.048,0,0,1,19.069,44.457Zm5.27-18.069V38.256a10.2,10.2,0,0,1-1.506.566V31.658H16.81V38.79A12,12,0,0,1,15.3,38.3V27.894H9.282V32.96a12.036,12.036,0,0,1,10.54-17.865,11.154,11.154,0,0,1,7.6,2.676L26.7,18.859h5.919a33.121,33.121,0,0,1-2.254,12.714V26.388Zm4.517,1.506v6.413a12.726,12.726,0,0,1-1.944,2.235,10.686,10.686,0,0,1-1.068.84V27.894Zm-7.529,5.27v5.97a7.3,7.3,0,0,1-1.423.057l-.083,0a11.973,11.973,0,0,1-1.506-.1V33.164ZM13.8,29.4v8.157a12.116,12.116,0,0,1-3.012-2.475V29.4Z" transform="translate(-1 -1.543)" fill="#007066"/>
      <path id="Path_59309" data-name="Path 59309" d="M30.316,26a2.261,2.261,0,0,0-2.259,2.259,2.223,2.223,0,0,0,.091.6L24.1,31.695a2.236,2.236,0,0,0-2.872.211l-3.734-1.867a2.209,2.209,0,0,0,.028-.274,2.27,2.27,0,1,0-.695,1.623l3.734,1.867a2.209,2.209,0,0,0-.028.274,2.259,2.259,0,1,0,4.427-.6l4.053-2.837a2.236,2.236,0,0,0,1.307.424,2.259,2.259,0,0,0,0-4.517ZM15.259,30.517a.753.753,0,1,1,.753-.753A.753.753,0,0,1,15.259,30.517Zm7.529,3.764a.753.753,0,1,1,.753-.753A.753.753,0,0,1,22.787,34.282Zm7.529-5.27a.753.753,0,1,1,.753-.753A.753.753,0,0,1,30.316,29.012Z" transform="translate(-3.965 -7.178)" fill="#cca079"/>
      <rect id="Rectangle_16027" data-name="Rectangle 16027" width="1.506" height="1.506" transform="translate(6.776 0)" fill="#007066"/>
      <rect id="Rectangle_16028" data-name="Rectangle 16028" width="1.506" height="1.506" transform="translate(6.776 3.012)" fill="#007066"/>
      <rect id="Rectangle_16029" data-name="Rectangle 16029" width="1.506" height="1.506" transform="translate(8.282 1.506)" fill="#007066"/>
      <rect id="Rectangle_16030" data-name="Rectangle 16030" width="1.506" height="1.506" transform="translate(5.27 1.506)" fill="#007066"/>
      <rect id="Rectangle_16031" data-name="Rectangle 16031" width="1.506" height="1.506" transform="translate(33.88 42.161)" fill="#007066"/>
      <rect id="Rectangle_16032" data-name="Rectangle 16032" width="1.506" height="1.506" transform="translate(33.88 45.173)" fill="#007066"/>
      <rect id="Rectangle_16033" data-name="Rectangle 16033" width="1.506" height="1.506" transform="translate(35.385 43.667)" fill="#007066"/>
      <rect id="Rectangle_16034" data-name="Rectangle 16034" width="1.506" height="1.506" transform="translate(32.374 43.667)" fill="#007066"/>
      <rect id="Rectangle_16035" data-name="Rectangle 16035" width="1.506" height="1.506" transform="translate(43.667 26.351)" fill="#007066"/>
      <rect id="Rectangle_16036" data-name="Rectangle 16036" width="1.506" height="1.506" transform="translate(43.667 29.362)" fill="#007066"/>
      <rect id="Rectangle_16037" data-name="Rectangle 16037" width="1.506" height="1.506" transform="translate(45.173 27.857)" fill="#007066"/>
      <rect id="Rectangle_16038" data-name="Rectangle 16038" width="1.506" height="1.506" transform="translate(42.161 27.857)" fill="#007066"/>
      <rect id="Rectangle_16039" data-name="Rectangle 16039" width="1.506" height="1.506" transform="translate(26.351 2.259)" fill="#007066"/>
      <rect id="Rectangle_16040" data-name="Rectangle 16040" width="1.506" height="1.506" transform="translate(26.351 5.27)" fill="#007066"/>
      <rect id="Rectangle_16041" data-name="Rectangle 16041" width="1.506" height="1.506" transform="translate(27.857 3.764)" fill="#007066"/>
      <rect id="Rectangle_16042" data-name="Rectangle 16042" width="1.506" height="1.506" transform="translate(24.845 3.764)" fill="#007066"/>
      <rect id="Rectangle_16043" data-name="Rectangle 16043" width="1.506" height="1.506" transform="translate(41.408 36.891)" fill="#007066"/>
      <rect id="Rectangle_16044" data-name="Rectangle 16044" width="1.506" height="1.506" transform="translate(41.408 39.903)" fill="#007066"/>
      <rect id="Rectangle_16045" data-name="Rectangle 16045" width="1.506" height="1.506" transform="translate(42.914 38.397)" fill="#007066"/>
      <rect id="Rectangle_16046" data-name="Rectangle 16046" width="1.506" height="1.506" transform="translate(39.903 38.397)" fill="#007066"/>
      <rect id="Rectangle_16047" data-name="Rectangle 16047" width="1.506" height="1.506" transform="translate(3.012 40.655)" fill="#007066"/>
      <rect id="Rectangle_16048" data-name="Rectangle 16048" width="1.506" height="1.506" transform="translate(3.012 43.667)" fill="#007066"/>
      <rect id="Rectangle_16049" data-name="Rectangle 16049" width="1.506" height="1.506" transform="translate(4.517 42.161)" fill="#007066"/>
      <rect id="Rectangle_16050" data-name="Rectangle 16050" width="1.506" height="1.506" transform="translate(1.506 42.161)" fill="#007066"/>
    </g>
  </g>
</svg>
