<svg xmlns="http://www.w3.org/2000/svg" width="65.979" height="64.202" viewBox="0 0 65.979 64.202">
  <g id="st-goal-new-4" transform="translate(-545.999 -3229.798)">
    <g id="hand" transform="translate(545.498 3228)">
      <path id="Path_59328" data-name="Path 59328" d="M220.925,332.394a1.289,1.289,0,1,0-1.823,0A1.291,1.291,0,0,0,220.925,332.394Zm0,0" transform="translate(-190.093 -287.63)" fill="#cca079"/>
      <path id="Path_59330" data-name="Path 59330" d="M15.345,250.568a1.288,1.288,0,0,0,1.819.011l6.248-6.155a3.894,3.894,0,0,0,.917-4l1.344-1.3a3.843,3.843,0,0,1,2.683-1.084H45.488a11.538,11.538,0,0,0,8.09-3.287c.09-.087-.68.82,11.688-13.962a5.155,5.155,0,0,0-7.844-6.691l-7.6,7.816A5.179,5.179,0,0,0,45.811,220H31.44a16.626,16.626,0,0,0-6.453-1.289c-6.206,0-11.624,2.866-14.532,8.24a3.849,3.849,0,0,0-3.447,1.068L.877,234.171a1.289,1.289,0,0,0,0,1.818Zm9.641-29.277a14.068,14.068,0,0,1,5.673,1.181,1.286,1.286,0,0,0,.517.108H45.811a2.577,2.577,0,1,1,0,5.155H35.3a1.289,1.289,0,0,0,0,2.577H45.811a5.147,5.147,0,0,0,5.109-5.828c7.356-7.562,8.394-8.624,8.438-8.677a2.578,2.578,0,1,1,3.936,3.33L51.735,232.955a8.974,8.974,0,0,1-6.246,2.512H28.356a6.407,6.407,0,0,0-4.473,1.807l-1.1,1.057-10.1-10.1c2.36-4.427,6.787-6.944,12.294-6.944ZM8.832,229.843a1.286,1.286,0,0,1,1.6-.181c.223.136-.417-.447,11.162,11.116a1.291,1.291,0,0,1,.007,1.816l-5.326,5.247L3.607,235.083Zm0,0" transform="translate(0 -184.95)" fill="#007066"/>
    </g>
    <g id="Group_25643" data-name="Group 25643" transform="translate(11.375)">
      <g id="Group_25642" data-name="Group 25642" transform="translate(545.498 3230)">
        <path id="Path_59329" data-name="Path 59329" d="M188.449,12a12,12,0,1,0,12-12A12.014,12.014,0,0,0,188.449,12Zm21.818,0a9.818,9.818,0,1,1-9.818-9.818A9.829,9.829,0,0,1,210.267,12Zm0,0" transform="translate(-163.721)" fill="#cca079"/>
        <path id="Path_59331" data-name="Path 59331" d="M268.039,41.08v1.278a3.272,3.272,0,0,0,1.091,6.358,1.091,1.091,0,1,1,0,2.182,1.973,1.973,0,0,1-1.416-.825,1.091,1.091,0,1,0-1.67,1.4,4.525,4.525,0,0,0,2,1.421V54.17a1.091,1.091,0,1,0,2.182,0V52.892a3.272,3.272,0,0,0-1.091-6.358,1.091,1.091,0,0,1,0-2.182,1.752,1.752,0,0,1,1.18.57,1.091,1.091,0,1,0,1.517-1.568,4.214,4.214,0,0,0-1.607-1V41.08a1.091,1.091,0,1,0-2.182,0Zm0,0" transform="translate(-232.618 -35.625)" fill="#cca079" stroke="#fff" stroke-width="1"/>
      </g>
      <g id="promotion" transform="translate(541 3230)">
        <path id="Path_59332" data-name="Path 59332" d="M122.707,290.5a.5.5,0,1,0-.677-.181A.5.5,0,0,0,122.707,290.5Zm0,0" transform="translate(-115.922 -275.23)" fill="#cca079" stroke="#cca079" stroke-width="0.4"/>
        <path id="Path_59333" data-name="Path 59333" d="M4.755,39.936l2.495,4.321a1.981,1.981,0,1,0,3.432-1.981L9.2,39.7l1.287-.743a.5.5,0,0,0,.181-.677l-.644-1.116L19.508,35.3a1.486,1.486,0,0,0,1.2-2.227l-1.646-2.851,1.052-1.593a.5.5,0,0,0,.016-.521L19.143,26.4a.5.5,0,0,0-.459-.247l-1.906.114L14.951,23.1a1.473,1.473,0,0,0-1.268-.743h-.019a1.473,1.473,0,0,0-1.251.685L5.941,31.284,1.734,33.713a3.468,3.468,0,0,0,3.021,6.223Zm5.069,2.835a.991.991,0,0,1-1.716.991L5.63,39.471l1.716-.991,2.477,4.291ZM8.7,38.843l-.5-.858.858-.5.5.858Zm9.738-11.686.685,1.186-.611.925-1.18-2.044Zm-5.2-3.573a.5.5,0,0,1,.852.01l5.762,9.98a.5.5,0,0,1-.417.743,1.819,1.819,0,0,0-.272.046L13.071,23.806c.128-.164.144-.18.17-.222Zm-.829,1.062,5.726,9.918L9.5,36.259,6.868,31.708ZM1.323,37.955a2.475,2.475,0,0,1,.907-3.383L6.09,32.342l2.477,4.29L4.706,38.861a2.48,2.48,0,0,1-3.383-.907Zm0,0" transform="translate(0 -21.248)" fill="#cca079" stroke="#cca079" stroke-width="0.4"/>
        <path id="Path_59334" data-name="Path 59334" d="M45.818,309.82a.5.5,0,0,0-.677-.181l-.858.5a.5.5,0,0,1-.677-.181.5.5,0,0,0-.858.5,1.488,1.488,0,0,0,2.03.544l.858-.5a.5.5,0,0,0,.181-.677Zm0,0" transform="translate(-40.568 -294.237)" fill="#cca079" stroke="#cca079" stroke-width="0.4"/>
        <path id="Path_59335" data-name="Path 59335" d="M439.29,42.544l-2.76,1.536a.5.5,0,1,0,.482.866l2.76-1.536a.5.5,0,0,0-.482-.866Zm0,0" transform="translate(-414.663 -40.376)" fill="#cca079" stroke="#cca079" stroke-width="0.4"/>
        <path id="Path_59336" data-name="Path 59336" d="M442.6,137.151l-1.914-.513a.5.5,0,1,0-.256.957l1.914.513a.5.5,0,1,0,.256-.957Zm0,0" transform="translate(-418.264 -129.853)" fill="#cca079" stroke="#cca079" stroke-width="0.4"/>
        <path id="Path_59337" data-name="Path 59337" d="M384.023.368l-.513,1.914a.5.5,0,1,0,.957.257l.513-1.914a.5.5,0,1,0-.957-.257Zm0,0" transform="translate(-364.495 0)" fill="#cca079" stroke="#cca079" stroke-width="0.4"/>
      </g>
    </g>
  </g>
</svg>
