<svg xmlns="http://www.w3.org/2000/svg" width="18.809" height="18.002" viewBox="0 0 18.809 18.002">
  <path id="star-empty" d="M18.566-9.721,13.43-10.47l-2.3-4.655a1.126,1.126,0,0,0-2.018,0L6.82-10.47l-5.136.749A1.126,1.126,0,0,0,1.062-7.8L4.778-4.18,3.9.935A1.124,1.124,0,0,0,5.53,2.12L10.125-.3,14.72,2.12A1.125,1.125,0,0,0,16.351.935L15.472-4.18,19.188-7.8A1.126,1.126,0,0,0,18.566-9.721Zm-4.9,4.95L14.495.095l-4.37-2.3L5.755.095l.833-4.866L3.052-8.216l4.887-.71,2.187-4.43,2.187,4.43,4.887.71Z" transform="translate(-0.721 15.75)" fill="#007066"/>
</svg>
