<svg id="twitter2" xmlns="http://www.w3.org/2000/svg" xmlns:xlink="http://www.w3.org/1999/xlink" width="19.366" height="15.323" viewBox="0 0 19.366 15.323">
  <defs>
    <clipPath id="clip-path">
      <rect width="19.366" height="15.323" fill="none"/>
    </clipPath>
  </defs>
  <g id="Group_24660" data-name="Group 24660" transform="translate(-1718.645 -904)">
    <g id="Twitter" transform="translate(1718.645 904)" clip-path="url(#clip-path)">
      <path id="Path_2" data-name="Path 2" d="M43.965,17.279A10.89,10.89,0,0,0,54.953,6.291V5.767a8.506,8.506,0,0,0,1.884-1.988,8.687,8.687,0,0,1-2.2.628,4.072,4.072,0,0,0,1.674-2.093,9.6,9.6,0,0,1-2.407.942A3.737,3.737,0,0,0,51.081,2a3.932,3.932,0,0,0-3.872,3.872,2.04,2.04,0,0,0,.1.837A10.819,10.819,0,0,1,39.36,2.628a4.008,4.008,0,0,0-.523,1.988A4.158,4.158,0,0,0,40.512,7.86a3.528,3.528,0,0,1-1.779-.523h0A3.825,3.825,0,0,0,41.872,11.1a3.226,3.226,0,0,1-1.046.1,1.781,1.781,0,0,1-.733-.1,3.965,3.965,0,0,0,3.663,2.721A7.9,7.9,0,0,1,38.942,15.5,2.9,2.9,0,0,1,38,15.4a9.878,9.878,0,0,0,5.965,1.884" transform="translate(-38 -2)" fill="#cca079" fill-rule="evenodd"/>
    </g>
  </g>
</svg>
