<svg id="twitter1" xmlns="http://www.w3.org/2000/svg" width="20.823" height="16.89" viewBox="0 0 20.823 16.89">
  <g id="Group_24660" data-name="Group 24660" transform="translate(-1717.5 -903.072)">
    <g id="Twitter" transform="translate(1717.5 903.072)">
      <path id="Path_2" data-name="Path 2" d="M44.594,18.89A12.039,12.039,0,0,0,56.741,6.743V6.165a9.4,9.4,0,0,0,2.082-2.2,9.6,9.6,0,0,1-2.429.694,4.5,4.5,0,0,0,1.851-2.314,10.611,10.611,0,0,1-2.661,1.041A4.131,4.131,0,0,0,52.461,2a4.346,4.346,0,0,0-4.28,4.28,2.255,2.255,0,0,0,.116.925A11.961,11.961,0,0,1,39.5,2.694a4.43,4.43,0,0,0-.578,2.2,4.6,4.6,0,0,0,1.851,3.586A3.9,3.9,0,0,1,38.81,7.9h0a4.228,4.228,0,0,0,3.471,4.165,3.566,3.566,0,0,1-1.157.116,1.969,1.969,0,0,1-.81-.116,4.383,4.383,0,0,0,4.049,3.008,8.734,8.734,0,0,1-5.322,1.851A3.2,3.2,0,0,1,38,16.808a10.919,10.919,0,0,0,6.594,2.082" transform="translate(-38 -2)" fill="#007066" fill-rule="evenodd"/>
    </g>
  </g>
</svg>
