<svg xmlns="http://www.w3.org/2000/svg" width="20.715" height="15.164" viewBox="0 0 20.715 15.164">
  <path id="View" d="M803.62,1431.838c-.171-.28-4.248-6.838-10.148-6.838s-9.978,6.558-10.149,6.838a1.432,1.432,0,0,0,0,1.493c.171.275,4.247,6.814,10.141,6.833h.026c5.89,0,9.958-6.558,10.128-6.838A1.428,1.428,0,0,0,803.62,1431.838Zm-10.127,6.9h-.022c-5.179-.019-8.946-6.16-8.946-6.16s3.767-6.16,8.946-6.16,8.946,6.16,8.946,6.16S798.661,1438.742,793.494,1438.742Zm-.022-9.951a3.791,3.791,0,1,0,3.766,3.791A3.791,3.791,0,0,0,793.472,1428.791Zm0,6.16a2.369,2.369,0,1,1,2.354-2.369,2.369,2.369,0,0,1-2.354,2.369Z" transform="translate(-783.113 -1425)" fill="#fff" fill-rule="evenodd"/>
</svg>
